<?xml version="1.0" encoding="utf-8"?>
<!-- Generator: Adobe Illustrator 23.0.5, SVG Export Plug-In . SVG Version: 6.00 Build 0)  -->
<svg version="1.1" id="Layer_1" xmlns="http://www.w3.org/2000/svg" xmlns:xlink="http://www.w3.org/1999/xlink" x="0px" y="0px"
	 viewBox="0 0 3000 3000" style="enable-background:new 0 0 3000 3000;" xml:space="preserve">
<style type="text/css">
	.st0{display:none;}
	.st1{font-family:'SecularOne-Regular';}
	.st2{font-size:832.6735px;}
	.st3{fill:#004450;}
	.st4{fill:#020202;}
	.st5{fill:#FFFFFF;}
	.st6{fill:#7B9E3F;}
	.st7{fill:#014047;}
	.st8{opacity:0.3;fill:#0E0F0F;}
</style>
<text transform="matrix(1 0 0 1 23.2304 1752.5352)" class="st0 st1 st2">mis</text>
<g>
	<path class="st3" d="M128.9,915.4h224.3v130c66.1-101.9,155.5-152.8,268.2-152.8c63.9,0,118.4,14.9,163.4,44.7
		c45,29.8,77.7,72.3,98.3,127.6c37.9-59.6,80.5-103.2,127.6-130.9c47.1-27.6,101-41.5,161.7-41.5c89.9,0,160.1,26.8,210.5,80.5
		c50.4,53.6,75.6,128.2,75.6,223.5v555.9h-229.2v-520.2c0-43.3-10.6-77.2-31.7-101.6s-49.6-36.6-85.3-36.6
		c-44.4,0-85.6,18.4-123.5,55.3c-37.9,36.9-66.1,84-84.5,141.4v461.7H675.1v-520.2c0-42.3-10.8-75.8-32.5-100.8
		c-21.7-24.9-50.4-37.4-86.2-37.4c-40.1,0-77.8,14.9-113,44.7c-35.2,29.8-63.7,71.8-85.3,126v487.7H128.9V915.4z"/>
	<path class="st3" d="M1632.5,1555.8h156.1v-443.8h-156.1V915.4h385.3v640.5h139.8v196.7h-525.1V1555.8z"/>
	<path class="st3" d="M2397.3,1760.7c-49.3-10.8-91.3-25.4-126-43.9l21.1-195.1c36.8,22.8,77.5,41.2,121.9,55.3
		c44.4,14.1,86.2,21.1,125.2,21.1c36.8,0,67.7-6.8,92.7-20.3c24.9-13.5,37.4-33.3,37.4-59.3c0-20.6-8.7-36.6-26-48
		c-17.3-11.4-50.4-25.7-99.2-43.1l-43.9-16.3c-46.6-17.3-84.5-33.9-113.8-49.6c-29.3-15.7-55.8-39.8-79.7-72.3
		c-23.9-32.5-35.8-75.3-35.8-128.4c0-84.5,31.7-150.4,95.1-197.5c63.4-47.1,146-70.7,247.9-70.7c80.2,0,164.7,15.7,253.6,47.1
		l-30.9,193.4c-31.4-18.4-66.9-33.3-106.5-44.7c-39.6-11.4-76.7-17.1-111.4-17.1c-35.8,0-64.2,6-85.3,17.9
		c-21.1,11.9-31.7,29.3-31.7,52c0,21.7,8.7,37.9,26,48.8c17.3,10.8,46.6,23.3,87.8,37.4c32.5,11.9,51.5,19,56.9,21.1
		c45.5,18.4,83.4,36.3,113.8,53.6c30.3,17.3,56.9,43.1,79.7,77.2c22.8,34.1,34.1,77.8,34.1,130.9c0,88.9-32,155.5-95.9,199.9
		c-64,44.4-148.5,66.6-253.6,66.6C2497.9,1776.9,2446.6,1771.5,2397.3,1760.7z"/>
</g>
<g>
	<g>
		<path class="st4" d="M144.4,1898.4H126l14.5-110.9l43.3,71.7l43.5-71.7l14.5,110.9h-18.4l-7.4-64.3l-32.1,54.5l-32.1-54.5
			L144.4,1898.4z"/>
		<path class="st4" d="M290.8,1882.7c1.1,1.7,2.6,2.9,4.6,3.7c2,0.8,4.2,1.2,6.7,1.2c3.2,0,6.2-0.7,8.8-2c2.7-1.3,4.8-3.2,6.5-5.8
			c1.7-2.6,2.5-5.6,2.5-9l2.4,9.1c0,4.4-1.3,8.1-3.8,11.1c-2.6,3-5.8,5.2-9.7,6.6c-3.9,1.5-7.8,2.2-11.8,2.2
			c-4.3,0-8.4-0.9-12.1-2.6c-3.7-1.7-6.7-4.2-8.9-7.5c-2.2-3.3-3.3-7.3-3.3-12.1c0-6.7,2.4-12.1,7.1-16.1c4.7-4,11.4-6,20.1-6
			c4.6,0,8.6,0.5,12,1.5c3.4,1,6.2,2.2,8.4,3.5c2.2,1.4,3.8,2.6,4.7,3.7v8.3c-3.1-2.2-6.4-3.8-10-4.8c-3.5-1-7.2-1.5-11.2-1.5
			c-3.4,0-6.2,0.4-8.3,1.3c-2.1,0.9-3.7,2-4.8,3.5s-1.6,3.4-1.6,5.6C289.1,1879.1,289.7,1881.1,290.8,1882.7z M277.3,1835.6
			c3.1-1.9,7.2-3.8,12.1-5.6s10.7-2.7,17.1-2.7c5.7,0,10.8,0.9,15.2,2.6c4.4,1.7,7.8,4.1,10.3,7.3c2.5,3.2,3.8,7.1,3.8,11.7v49.5
			h-16V1852c0-2.2-0.4-4-1.1-5.4c-0.8-1.4-1.8-2.6-3.1-3.5c-1.3-0.9-2.9-1.6-4.7-2c-1.8-0.4-3.8-0.6-5.9-0.6c-3.2,0-6.3,0.4-9.1,1.1
			c-2.9,0.8-5.3,1.7-7.4,2.7c-2.1,1.1-3.6,1.9-4.6,2.6L277.3,1835.6z"/>
		<path class="st4" d="M417.5,1844.5c-2.1-2.6-5.4-3.9-9.8-3.9c-3,0-5.7,0.6-8,1.9c-2.3,1.3-4.1,3.1-5.4,5.4c-1.3,2.4-2,5.1-2,8.2
			v42.2H376v-69.4h16.3v10.7c2.2-4.1,5.1-7.2,8.5-9.2c3.5-2,7.6-3,12.4-3c7.8,0,13.8,2.4,18,7.2c4.1,4.8,6.2,11.3,6.2,19.7v44.1
			h-16.7v-42.2C420.7,1851,419.6,1847.1,417.5,1844.5z"/>
		<path class="st4" d="M491.3,1882.7c1.1,1.7,2.6,2.9,4.6,3.7c2,0.8,4.2,1.2,6.7,1.2c3.2,0,6.2-0.7,8.8-2c2.7-1.3,4.8-3.2,6.5-5.8
			c1.7-2.6,2.5-5.6,2.5-9l2.4,9.1c0,4.4-1.3,8.1-3.8,11.1c-2.6,3-5.8,5.2-9.7,6.6c-3.9,1.5-7.8,2.2-11.8,2.2
			c-4.3,0-8.4-0.9-12.1-2.6c-3.7-1.7-6.7-4.2-8.9-7.5c-2.2-3.3-3.3-7.3-3.3-12.1c0-6.7,2.4-12.1,7.1-16.1c4.7-4,11.4-6,20.1-6
			c4.6,0,8.6,0.5,12,1.5c3.4,1,6.2,2.2,8.4,3.5c2.2,1.4,3.8,2.6,4.7,3.7v8.3c-3.1-2.2-6.4-3.8-10-4.8c-3.5-1-7.2-1.5-11.2-1.5
			c-3.4,0-6.2,0.4-8.3,1.3c-2.1,0.9-3.7,2-4.8,3.5s-1.6,3.4-1.6,5.6C489.6,1879.1,490.2,1881.1,491.3,1882.7z M477.8,1835.6
			c3.1-1.9,7.2-3.8,12.1-5.6s10.7-2.7,17.1-2.7c5.7,0,10.8,0.9,15.2,2.6c4.4,1.7,7.8,4.1,10.3,7.3c2.5,3.2,3.8,7.1,3.8,11.7v49.5
			h-16V1852c0-2.2-0.4-4-1.1-5.4c-0.8-1.4-1.8-2.6-3.1-3.5c-1.3-0.9-2.9-1.6-4.7-2c-1.8-0.4-3.8-0.6-5.9-0.6c-3.2,0-6.3,0.4-9.1,1.1
			c-2.9,0.8-5.3,1.7-7.4,2.7c-2.1,1.1-3.6,1.9-4.6,2.6L477.8,1835.6z"/>
		<path class="st4" d="M575.9,1843.8c3.1-5.3,7.3-9.3,12.4-12.1c5.2-2.8,10.7-4.2,16.7-4.2c5.8,0,10.9,1.4,15.3,4.3
			c4.4,2.9,7.8,7,10.4,12.3c2.6,5.3,3.8,11.8,3.8,19.3c0,7.4-1.3,13.8-3.8,19.2c-2.6,5.3-6,9.4-10.4,12.3c-4.4,2.9-9.5,4.3-15.3,4.3
			c-5.9,0-11.5-1.4-16.7-4.2c-5.2-2.8-9.3-6.9-12.4-12.2c-3.1-5.3-4.7-11.8-4.7-19.3C571.2,1855.6,572.8,1849.1,575.9,1843.8z
			 M588.7,1903c0.1,3.1,1,5.9,2.6,8.4c1.7,2.5,3.9,4.5,6.9,5.9c2.9,1.4,6.3,2.1,10.1,2.1c3.4,0,6.7-0.8,9.8-2.4
			c3.1-1.6,5.7-4.1,7.6-7.4s2.9-7.6,2.9-12.8v-67.9h16v67.9c0,8.3-1.7,15.2-5.1,20.7c-3.4,5.4-7.8,9.5-13.2,12.1
			c-5.4,2.7-11.3,4-17.7,4c-7.5,0-14-1.3-19.3-3.8c-5.3-2.6-9.4-6.2-12.3-10.8c-2.9-4.6-4.4-10-4.6-16H588.7z M591,1875.1
			c1.9,3.2,4.5,5.7,7.6,7.3c3.2,1.7,6.6,2.5,10.3,2.5c3.1,0,6.2-0.8,9.3-2.4c3.1-1.6,5.6-4,7.5-7.3c2-3.3,2.9-7.2,2.9-11.8
			c0-3.6-0.6-6.8-1.7-9.4c-1.2-2.7-2.7-4.9-4.6-6.8c-1.9-1.9-4.1-3.2-6.4-4.1c-2.4-0.9-4.7-1.4-7-1.4c-3.7,0-7.2,0.8-10.3,2.5
			c-3.2,1.7-5.7,4.1-7.6,7.3c-1.9,3.2-2.9,7.2-2.9,11.9C588.1,1868,589.1,1871.9,591,1875.1z"/>
		<path class="st4" d="M697.6,1895.3c-5.4-3-9.5-7.2-12.4-12.7c-2.9-5.4-4.4-11.8-4.4-19c0-7.3,1.5-13.7,4.5-19.2
			c3-5.4,7.2-9.6,12.6-12.6c5.4-3,11.8-4.5,19.2-4.5c7.3,0,13.6,1.4,18.7,4.2c5.1,2.8,9.1,6.9,11.8,12.1c2.8,5.3,4.1,11.6,4.1,19.1
			c0,0.8,0,1.7-0.1,2.6c-0.1,0.9-0.1,1.6-0.2,2h-61v-11.2h47.1l-5,6.9c0.3-0.6,0.6-1.4,1-2.5c0.4-1.1,0.5-1.9,0.5-2.6
			c0-3.7-0.7-6.9-2.2-9.7c-1.5-2.7-3.5-4.8-6-6.3s-5.6-2.3-9-2.3c-4.1,0-7.6,0.9-10.6,2.7c-2.9,1.8-5.1,4.4-6.6,7.8
			c-1.5,3.4-2.3,7.6-2.4,12.7c0,5,0.8,9.3,2.3,12.7c1.5,3.5,3.7,6.1,6.7,7.9c3,1.8,6.6,2.7,10.8,2.7c4.4,0,8.3-0.9,11.6-2.7
			s6.1-4.6,8.3-8.3l14,5.7c-3.6,6.2-8.3,10.9-14,14c-5.7,3.1-12.6,4.7-20.7,4.7C709.2,1899.9,703,1898.4,697.6,1895.3z"/>
		<path class="st4" d="M887.6,1898.4h-16.3v-42.2c0-5.2-0.9-9.1-2.8-11.7c-1.9-2.6-4.8-3.8-8.8-3.8c-2.7,0-5.1,0.6-7.2,1.8
			c-2.1,1.2-3.7,3-4.8,5.3c-1.2,2.3-1.7,5.1-1.7,8.4v42.2h-16.3v-42.2c0-5.2-0.9-9.1-2.8-11.7c-1.9-2.6-4.8-3.8-8.8-3.8
			c-2.8,0-5.3,0.6-7.3,1.8c-2.1,1.2-3.6,3-4.8,5.3c-1.1,2.3-1.7,5.1-1.7,8.4v42.2h-16v-69.4h16v10.1c2-3.8,4.7-6.7,7.9-8.7
			c3.3-2,7.1-2.9,11.5-2.9c5.1,0,9.4,1.1,12.7,3.2c3.4,2.1,5.8,5.2,7.3,9.2c2.4-4,5.5-7.1,9.1-9.2c3.7-2.1,7.9-3.2,12.6-3.2
			c4.9,0,9,1,12.3,3.1c3.3,2.1,5.7,5.1,7.3,9.1c1.6,4,2.4,8.9,2.4,14.6V1898.4z"/>
		<path class="st4" d="M941.1,1895.3c-5.4-3-9.5-7.2-12.4-12.7c-2.9-5.4-4.4-11.8-4.4-19c0-7.3,1.5-13.7,4.5-19.2
			c3-5.4,7.2-9.6,12.6-12.6c5.4-3,11.8-4.5,19.2-4.5c7.3,0,13.6,1.4,18.7,4.2c5.1,2.8,9.1,6.9,11.8,12.1c2.8,5.3,4.1,11.6,4.1,19.1
			c0,0.8,0,1.7-0.1,2.6c-0.1,0.9-0.1,1.6-0.2,2h-61v-11.2H981l-5,6.9c0.3-0.6,0.6-1.4,1-2.5c0.4-1.1,0.5-1.9,0.5-2.6
			c0-3.7-0.7-6.9-2.2-9.7c-1.5-2.7-3.5-4.8-6-6.3s-5.6-2.3-9-2.3c-4.1,0-7.6,0.9-10.6,2.7c-2.9,1.8-5.1,4.4-6.6,7.8
			c-1.5,3.4-2.3,7.6-2.4,12.7c0,5,0.8,9.3,2.3,12.7c1.5,3.5,3.7,6.1,6.7,7.9c3,1.8,6.6,2.7,10.8,2.7c4.4,0,8.3-0.9,11.6-2.7
			s6.1-4.6,8.3-8.3l14,5.7c-3.6,6.2-8.3,10.9-14,14c-5.7,3.1-12.6,4.7-20.7,4.7C952.7,1899.9,946.5,1898.4,941.1,1895.3z"/>
		<path class="st4" d="M1073.4,1844.5c-2.1-2.6-5.4-3.9-9.8-3.9c-3,0-5.7,0.6-8,1.9c-2.3,1.3-4.1,3.1-5.4,5.4c-1.3,2.4-2,5.1-2,8.2
			v42.2h-16.3v-69.4h16.3v10.7c2.2-4.1,5.1-7.2,8.5-9.2c3.5-2,7.6-3,12.4-3c7.8,0,13.8,2.4,18,7.2c4.1,4.8,6.2,11.3,6.2,19.7v44.1
			h-16.7v-42.2C1076.5,1851,1075.5,1847.1,1073.4,1844.5z"/>
		<path class="st4" d="M1164.9,1828.9v14.3h-39.4v-14.3H1164.9z M1153.3,1804.8v93.5h-16.1v-93.5H1153.3z"/>
		<path class="st4" d="M1282.9,1792.7v105.6h-18v-105.6H1282.9z"/>
		<path class="st4" d="M1367.7,1844.5c-2.1-2.6-5.4-3.9-9.8-3.9c-3,0-5.7,0.6-8,1.9c-2.3,1.3-4.1,3.1-5.4,5.4c-1.3,2.4-2,5.1-2,8.2
			v42.2h-16.3v-69.4h16.3v10.7c2.2-4.1,5.1-7.2,8.5-9.2c3.5-2,7.6-3,12.4-3c7.8,0,13.8,2.4,18,7.2c4.1,4.8,6.2,11.3,6.2,19.7v44.1
			h-16.7v-42.2C1370.9,1851,1369.8,1847.1,1367.7,1844.5z"/>
		<path class="st4" d="M1463.7,1828.9v14.3h-39.8v-14.3H1463.7z M1458.5,1795c-1.3-0.5-2.5-0.8-3.8-0.8c-1.5,0-2.8,0.4-3.8,1.2
			c-1.1,0.8-1.9,2.1-2.5,3.9s-0.9,4.2-0.9,7.1v91.9h-16v-95.1c0-5.4,0.9-9.9,2.6-13.5c1.8-3.6,4.3-6.3,7.6-8.1
			c3.3-1.9,7.4-2.8,12.2-2.8c2.7,0,5.1,0.4,7.1,1.1c2,0.7,3.7,1.6,5.2,2.6c1.5,1,2.6,2,3.4,3l-7.7,12.7
			C1460.9,1796.6,1459.7,1795.5,1458.5,1795z"/>
		<path class="st4" d="M1496.9,1844.8c3.3-5.4,7.7-9.7,13.4-12.8c5.6-3.1,12-4.6,19.2-4.6c7.1,0,13.5,1.5,19.1,4.6
			c5.6,3.1,10,7.3,13.4,12.8s5,11.7,5,18.9c0,7-1.7,13.3-5,18.8c-3.3,5.5-7.8,9.8-13.4,12.8c-5.6,3.1-11.9,4.6-19.1,4.6
			c-7.1,0-13.5-1.5-19.2-4.6c-5.6-3.1-10.1-7.3-13.4-12.8c-3.3-5.5-4.9-11.7-4.9-18.8C1492,1856.5,1493.7,1850.2,1496.9,1844.8z
			 M1511.5,1875c1.8,3.3,4.3,5.8,7.4,7.7c3.1,1.9,6.6,2.8,10.6,2.8c3.8,0,7.3-0.9,10.5-2.8c3.2-1.9,5.7-4.4,7.5-7.7
			c1.8-3.3,2.7-7.1,2.7-11.4c0-4.3-0.9-8.1-2.7-11.5s-4.3-5.9-7.5-7.7c-3.2-1.8-6.7-2.7-10.5-2.7c-3.9,0-7.4,0.9-10.6,2.7
			c-3.1,1.8-5.6,4.4-7.4,7.7s-2.7,7.1-2.7,11.5C1508.8,1868,1509.7,1871.8,1511.5,1875z"/>
		<path class="st4" d="M1619.5,1898.4h-16.1v-69.4h16.1V1898.4z M1636,1843.6c-1.3-0.6-3-0.9-5-0.9c-2.7,0-4.9,0.7-6.6,2.1
			c-1.7,1.4-2.9,3.3-3.7,5.8c-0.8,2.5-1.1,5.4-1.1,8.7l-5.4-3.2c0-5.5,1-10.4,3.1-14.7c2.1-4.3,4.7-7.7,8-10.2
			c3.3-2.5,6.7-3.8,10.2-3.8c2.5,0,4.9,0.4,7.1,1.1c2.2,0.8,4.1,2.1,5.6,4l-7.8,13.7C1638.7,1845.1,1637.3,1844.2,1636,1843.6z"/>
		<path class="st4" d="M1779.6,1898.4h-16.3v-42.2c0-5.2-0.9-9.1-2.8-11.7c-1.9-2.6-4.8-3.8-8.8-3.8c-2.7,0-5.1,0.6-7.2,1.8
			c-2.1,1.2-3.7,3-4.8,5.3c-1.2,2.3-1.7,5.1-1.7,8.4v42.2h-16.3v-42.2c0-5.2-0.9-9.1-2.8-11.7c-1.9-2.6-4.8-3.8-8.8-3.8
			c-2.8,0-5.3,0.6-7.3,1.8c-2.1,1.2-3.6,3-4.8,5.3c-1.1,2.3-1.7,5.1-1.7,8.4v42.2h-16v-69.4h16v10.1c2-3.8,4.7-6.7,7.9-8.7
			c3.3-2,7.1-2.9,11.5-2.9c5.1,0,9.4,1.1,12.7,3.2c3.4,2.1,5.8,5.2,7.3,9.2c2.4-4,5.5-7.1,9.1-9.2c3.7-2.1,7.9-3.2,12.6-3.2
			c4.9,0,9,1,12.3,3.1c3.3,2.1,5.7,5.1,7.3,9.1c1.6,4,2.4,8.9,2.4,14.6V1898.4z"/>
		<path class="st4" d="M1833.5,1882.7c1.1,1.7,2.6,2.9,4.6,3.7c2,0.8,4.2,1.2,6.7,1.2c3.2,0,6.2-0.7,8.8-2c2.7-1.3,4.8-3.2,6.5-5.8
			c1.7-2.6,2.5-5.6,2.5-9l2.4,9.1c0,4.4-1.3,8.1-3.8,11.1c-2.6,3-5.8,5.2-9.7,6.6c-3.9,1.5-7.8,2.2-11.8,2.2
			c-4.3,0-8.3-0.9-12.1-2.6c-3.7-1.7-6.7-4.2-8.9-7.5c-2.2-3.3-3.3-7.3-3.3-12.1c0-6.7,2.4-12.1,7.1-16.1c4.7-4,11.4-6,20.1-6
			c4.6,0,8.6,0.5,12,1.5c3.4,1,6.2,2.2,8.4,3.5c2.2,1.4,3.8,2.6,4.7,3.7v8.3c-3.1-2.2-6.4-3.8-10-4.8c-3.5-1-7.2-1.5-11.2-1.5
			c-3.4,0-6.2,0.4-8.3,1.3c-2.1,0.9-3.7,2-4.8,3.5c-1.1,1.5-1.6,3.4-1.6,5.6C1831.8,1879.1,1832.4,1881.1,1833.5,1882.7z
			 M1820.1,1835.6c3.1-1.9,7.2-3.8,12.1-5.6c5-1.8,10.7-2.7,17.1-2.7c5.7,0,10.8,0.9,15.2,2.6c4.4,1.7,7.8,4.1,10.3,7.3
			c2.5,3.2,3.8,7.1,3.8,11.7v49.5h-16V1852c0-2.2-0.4-4-1.1-5.4c-0.8-1.4-1.8-2.6-3.1-3.5c-1.3-0.9-2.9-1.6-4.7-2
			c-1.8-0.4-3.8-0.6-5.9-0.6c-3.2,0-6.3,0.4-9.1,1.1c-2.9,0.8-5.3,1.7-7.4,2.7c-2.1,1.1-3.6,1.9-4.6,2.6L1820.1,1835.6z"/>
		<path class="st4" d="M1948.4,1828.9v14.3h-39.4v-14.3H1948.4z M1936.8,1804.8v93.5h-16.1v-93.5H1936.8z"/>
		<path class="st4" d="M1983.2,1794.2c2.1-1.9,4.5-2.9,7.2-2.9c2.9,0,5.4,1,7.3,2.9c2,1.9,2.9,4.3,2.9,7.1c0,2.7-1,5.1-2.9,7
			c-2,2-4.4,2.9-7.3,2.9c-2.7,0-5.1-1-7.2-2.9c-2.1-2-3.1-4.3-3.1-7C1980.1,1798.5,1981.2,1796.2,1983.2,1794.2z M1998.4,1828.9
			v69.4h-16v-69.4H1998.4z"/>
		<path class="st4" d="M2041.6,1844.8c3.3-5.4,7.7-9.7,13.4-12.8c5.6-3.1,12-4.6,19.2-4.6c7.1,0,13.5,1.5,19.1,4.6
			c5.6,3.1,10,7.3,13.4,12.8s5,11.7,5,18.9c0,7-1.7,13.3-5,18.8c-3.3,5.5-7.8,9.8-13.4,12.8c-5.6,3.1-11.9,4.6-19.1,4.6
			c-7.1,0-13.5-1.5-19.2-4.6c-5.6-3.1-10.1-7.3-13.4-12.8c-3.3-5.5-4.9-11.7-4.9-18.8C2036.7,1856.5,2038.3,1850.2,2041.6,1844.8z
			 M2056.2,1875c1.8,3.3,4.3,5.8,7.4,7.7c3.1,1.9,6.6,2.8,10.6,2.8c3.8,0,7.3-0.9,10.5-2.8c3.2-1.9,5.7-4.4,7.5-7.7
			c1.8-3.3,2.7-7.1,2.7-11.4c0-4.3-0.9-8.1-2.7-11.5s-4.3-5.9-7.5-7.7c-3.2-1.8-6.7-2.7-10.5-2.7c-3.9,0-7.4,0.9-10.6,2.7
			c-3.1,1.8-5.6,4.4-7.4,7.7s-2.7,7.1-2.7,11.5C2053.5,1868,2054.4,1871.8,2056.2,1875z"/>
		<path class="st4" d="M2189.5,1844.5c-2.1-2.6-5.4-3.9-9.8-3.9c-3,0-5.7,0.6-8,1.9c-2.3,1.3-4.1,3.1-5.4,5.4c-1.3,2.4-2,5.1-2,8.2
			v42.2h-16.3v-69.4h16.3v10.7c2.2-4.1,5.1-7.2,8.5-9.2c3.5-2,7.6-3,12.4-3c7.8,0,13.8,2.4,18,7.2c4.1,4.8,6.2,11.3,6.2,19.7v44.1
			h-16.7v-42.2C2192.7,1851,2191.7,1847.1,2189.5,1844.5z"/>
		<path class="st4" d="M2333.6,1875c2.7,3.1,5.6,5.4,8.8,7.1c3.2,1.7,6.8,2.5,10.9,2.5c4.8,0,8.8-1.3,11.8-3.9c3-2.6,4.5-6,4.5-10.1
			c0-3.9-1-7.1-2.9-9.4c-1.9-2.4-4.6-4.4-7.9-6c-3.4-1.7-7.3-3.3-11.7-4.9c-2.6-0.9-5.5-2.1-8.8-3.7c-3.2-1.6-6.3-3.5-9.2-5.9
			c-2.9-2.4-5.3-5.3-7.2-8.8c-1.9-3.5-2.9-7.7-2.9-12.6c0-5.6,1.5-10.6,4.4-14.9c2.9-4.3,6.9-7.6,11.8-10c5-2.4,10.6-3.5,17-3.5
			c6.2,0,11.7,1.1,16.3,3.3c4.6,2.2,8.5,5,11.7,8.4c3.2,3.4,5.7,7,7.5,10.7l-14.5,8.1c-1.3-2.6-3-5.1-5-7.3c-2-2.3-4.4-4.1-7-5.4
			c-2.7-1.4-5.8-2-9.3-2c-4.9,0-8.5,1.1-10.9,3.4c-2.3,2.3-3.5,4.9-3.5,7.9c0,2.7,0.8,5.2,2.5,7.3c1.7,2.2,4.2,4.2,7.8,6.1
			c3.5,1.9,8.1,3.9,13.7,5.9c3.1,1.1,6.3,2.5,9.4,4.2c3.2,1.7,6.1,3.8,8.7,6.4c2.6,2.6,4.7,5.6,6.3,9c1.6,3.4,2.3,7.4,2.3,12.1
			c0,4.9-1,9.4-2.9,13.3c-1.9,3.9-4.5,7.2-7.8,9.9c-3.3,2.7-7.1,4.7-11.2,6.2c-4.2,1.5-8.5,2.2-13.1,2.2c-6.2,0-12-1.2-17.3-3.7
			c-5.3-2.5-9.9-5.8-13.8-9.9c-3.9-4.1-7-8.6-9.4-13.4l13.3-9.2C2328.4,1868.4,2330.9,1872,2333.6,1875z"/>
		<path class="st4" d="M2442.4,1931.5h-17.4l18.1-41.3l-27.9-61.3h18.7l22.2,54.9l-7.7-0.5l21.7-54.5h17.5L2442.4,1931.5z"/>
		<path class="st4" d="M2528.5,1881.8c2.3,1.8,4.5,3.1,6.9,3.9c2.3,0.9,4.6,1.3,6.9,1.3c2.9,0,5.2-0.7,6.9-2
			c1.7-1.3,2.5-3.1,2.5-5.4c0-2-0.7-3.7-2-5.2c-1.3-1.5-3.1-2.7-5.4-3.8c-2.3-1.1-5-2.1-8.1-3.2c-3.1-1.2-6.2-2.6-9.3-4.3
			c-3.1-1.7-5.6-3.8-7.5-6.6c-2-2.7-2.9-6.1-2.9-10.3c0-4.2,1.1-7.7,3.2-10.6c2.2-2.8,5.1-4.9,8.8-6.3c3.7-1.4,7.6-2,11.8-2
			c3.8,0,7.4,0.6,10.8,1.7c3.4,1.1,6.4,2.6,9.1,4.4s5,3.9,6.9,6.2l-9.1,9.7c-2.3-2.7-5.1-4.9-8.3-6.6c-3.2-1.7-6.5-2.6-10-2.6
			c-2.3,0-4.2,0.5-5.7,1.5c-1.5,1-2.3,2.5-2.3,4.4c0,1.6,0.7,3,2,4.3c1.4,1.3,3.2,2.4,5.4,3.4c2.3,1,4.8,2.1,7.6,3.2
			c3.8,1.5,7.3,3.2,10.6,5c3.2,1.8,5.8,4,7.8,6.6c2,2.6,2.9,6,2.9,10.3c0,6.5-2.2,11.8-6.7,15.8c-4.5,4-10.5,6-18.2,6
			c-4.7,0-9.1-0.7-13.1-2.2c-4-1.5-7.4-3.4-10.4-5.7c-3-2.4-5.5-4.9-7.5-7.5l9.5-9.5C2524,1878,2526.2,1880.1,2528.5,1881.8z"/>
		<path class="st4" d="M2633.4,1828.9v14.3H2594v-14.3H2633.4z M2621.8,1804.8v93.5h-16.1v-93.5H2621.8z"/>
		<path class="st4" d="M2677.3,1895.3c-5.4-3-9.5-7.2-12.4-12.7c-2.9-5.4-4.4-11.8-4.4-19c0-7.3,1.5-13.7,4.5-19.2
			c3-5.4,7.2-9.6,12.6-12.6c5.4-3,11.8-4.5,19.2-4.5c7.3,0,13.6,1.4,18.7,4.2c5.1,2.8,9.1,6.9,11.8,12.1c2.8,5.3,4.1,11.6,4.1,19.1
			c0,0.8,0,1.7-0.1,2.6c-0.1,0.9-0.1,1.6-0.2,2h-61v-11.2h47.1l-5,6.9c0.3-0.6,0.6-1.4,1-2.5c0.4-1.1,0.5-1.9,0.5-2.6
			c0-3.7-0.7-6.9-2.2-9.7c-1.5-2.7-3.5-4.8-6-6.3c-2.6-1.5-5.6-2.3-9-2.3c-4.1,0-7.6,0.9-10.6,2.7c-2.9,1.8-5.1,4.4-6.6,7.8
			c-1.5,3.4-2.3,7.6-2.4,12.7c0,5,0.8,9.3,2.3,12.7c1.5,3.5,3.7,6.1,6.7,7.9c3,1.8,6.6,2.7,10.8,2.7c4.4,0,8.3-0.9,11.6-2.7
			s6.1-4.6,8.3-8.3l14,5.7c-3.6,6.2-8.3,10.9-14,14c-5.7,3.1-12.6,4.7-20.7,4.7C2688.9,1899.9,2682.6,1898.4,2677.3,1895.3z"/>
		<path class="st4" d="M2867.3,1898.4H2851v-42.2c0-5.2-0.9-9.1-2.8-11.7c-1.9-2.6-4.8-3.8-8.8-3.8c-2.7,0-5.1,0.6-7.2,1.8
			c-2.1,1.2-3.7,3-4.8,5.3c-1.2,2.3-1.7,5.1-1.7,8.4v42.2h-16.3v-42.2c0-5.2-0.9-9.1-2.8-11.7c-1.9-2.6-4.8-3.8-8.8-3.8
			c-2.8,0-5.3,0.6-7.3,1.8c-2.1,1.2-3.6,3-4.8,5.3c-1.1,2.3-1.7,5.1-1.7,8.4v42.2h-16v-69.4h16v10.1c2-3.8,4.7-6.7,7.9-8.7
			c3.3-2,7.1-2.9,11.5-2.9c5.1,0,9.4,1.1,12.7,3.2c3.4,2.1,5.8,5.2,7.3,9.2c2.4-4,5.5-7.1,9.1-9.2c3.7-2.1,7.9-3.2,12.6-3.2
			c4.9,0,9,1,12.3,3.1c3.3,2.1,5.7,5.1,7.3,9.1c1.6,4,2.4,8.9,2.4,14.6V1898.4z"/>
	</g>
</g>
<rect x="120.3" y="1969.4" class="st3" width="2756.3" height="216"/>
<g>
	<g>
		<path class="st5" d="M962,2080.3h41.5c0.2,6.3-0.7,12.3-2.5,17.9c-1.8,5.6-4.5,10.6-8.1,14.9c-3.6,4.3-8.1,7.8-13.5,10.3
			c-5.4,2.5-11.5,3.8-18.3,3.8c-6.5,0-12.5-1.1-18-3.3c-5.5-2.2-10.3-5.3-14.3-9.3c-4.1-4-7.2-8.8-9.4-14.3
			c-2.2-5.5-3.3-11.5-3.3-18.1c0-6.6,1.1-12.6,3.4-18c2.3-5.5,5.4-10.2,9.5-14.1c4.1-4,8.9-7,14.4-9.2c5.5-2.1,11.5-3.2,18-3.2
			c5.7,0,10.8,0.8,15.4,2.3c4.6,1.5,8.7,3.7,12.4,6.5c3.6,2.8,6.7,6.3,9.3,10.3l-11.8,7.9c-2.4-4.1-5.7-7.4-9.9-9.8
			c-4.2-2.5-9.3-3.7-15.3-3.7c-5.6,0-10.6,1.3-15.1,3.9c-4.5,2.6-8.1,6.2-10.8,10.8c-2.7,4.6-4.1,10.1-4.1,16.4
			c0,6.2,1.3,11.7,4,16.4c2.7,4.7,6.3,8.4,10.8,11c4.5,2.6,9.6,3.9,15.3,3.9c3.9,0,7.3-0.5,10.3-1.6c3-1.1,5.7-2.6,7.9-4.6
			s4.1-4.2,5.5-6.8c1.5-2.5,2.6-5.2,3.3-8.1H962V2080.3z"/>
		<path class="st5" d="M1082.1,2039.3v86.1h-14.5v-86.1H1082.1z M1076.2,2039.3h18c6.2,0,11.7,1.1,16.3,3.3
			c4.6,2.2,8.2,5.3,10.8,9.3c2.5,4,3.8,8.7,3.8,14.1s-1.3,10.1-3.8,14.1c-2.5,4-6.1,7.1-10.8,9.3c-4.6,2.2-10.1,3.3-16.3,3.3h-18
			v-11.9h17.3c3.3,0,6.2-0.6,8.7-1.7c2.5-1.1,4.4-2.8,5.8-5c1.4-2.2,2.1-4.8,2.1-7.8c0-3.1-0.7-5.7-2.1-7.9
			c-1.4-2.1-3.3-3.8-5.8-4.9c-2.5-1.1-5.4-1.7-8.7-1.7h-17.3V2039.3z M1101,2084.3l29.2,41.1h-17.5l-27.4-41.1H1101z"/>
		<path class="st5" d="M1188.3,2064.5c2.2-5.4,5.4-10.1,9.4-14.1c4.1-4,8.8-7.1,14.3-9.3c5.5-2.2,11.3-3.3,17.7-3.3
			c6.5,0,12.4,1.1,17.8,3.3c5.4,2.2,10.1,5.3,14.2,9.3c4.1,4,7.2,8.7,9.4,14.1s3.3,11.4,3.3,17.8c0,6.4-1.1,12.3-3.3,17.8
			c-2.2,5.5-5.3,10.3-9.3,14.3c-4,4-8.8,7.2-14.2,9.4c-5.5,2.3-11.4,3.4-17.9,3.4c-6.4,0-12.3-1.1-17.8-3.4
			c-5.5-2.3-10.2-5.4-14.2-9.4c-4-4-7.1-8.8-9.3-14.3c-2.2-5.5-3.3-11.4-3.3-17.8C1185,2075.8,1186.1,2069.9,1188.3,2064.5z
			 M1204.1,2098.1c2.5,4.6,6,8.3,10.4,10.9c4.4,2.6,9.5,3.9,15.1,3.9c5.7,0,10.8-1.3,15.2-3.9c4.4-2.6,7.8-6.3,10.3-10.9
			c2.5-4.6,3.8-9.9,3.8-15.8c0-5.9-1.2-11.2-3.7-15.8c-2.5-4.6-5.9-8.3-10.3-10.9c-4.4-2.6-9.5-3.9-15.3-3.9
			c-5.7,0-10.7,1.3-15.1,3.9c-4.4,2.6-7.9,6.3-10.4,10.9c-2.5,4.6-3.8,9.9-3.8,15.8C1200.4,2088.2,1201.6,2093.5,1204.1,2098.1z"/>
		<path class="st5" d="M1435.8,2039.3h16.9l-35.2,90.7l-26.6-60.9l-26.6,60.9l-35.2-90.7h16.9l20.4,57.7l24.5-62l24.7,62
			L1435.8,2039.3z"/>
		<path class="st5" d="M1503.8,2039.3h60v13.4h-22.8v72.7h-14.6v-72.7h-22.6V2039.3z"/>
		<path class="st5" d="M1638.1,2039.3v86.1h-14.5v-86.1H1638.1z M1629.4,2072.5h61.4v13.4h-61.4V2072.5z M1695.9,2039.3v86.1h-14.5
			v-86.1H1695.9z"/>
		<path class="st5" d="M1864.9,2039.3v86.1h-14.5v-86.1H1864.9z M1859,2039.3h17.3c6.2,0,11.7,1.1,16.3,3.3
			c4.6,2.2,8.2,5.2,10.8,9.2c2.5,4,3.8,8.7,3.8,14.2c0,5.5-1.3,10.3-3.8,14.3c-2.5,4-6.1,7.1-10.8,9.3c-4.6,2.2-10.1,3.3-16.3,3.3
			H1859V2080h17.3c5,0,9-1.2,12.1-3.6c3-2.4,4.6-5.9,4.6-10.5c0-4.6-1.5-8.1-4.6-10.4c-3-2.3-7.1-3.5-12.1-3.5H1859V2039.3z"/>
		<path class="st5" d="M1985.2,2039.3v86.1h-14.5v-86.1H1985.2z M1979.3,2039.3h18c6.2,0,11.7,1.1,16.3,3.3
			c4.6,2.2,8.2,5.3,10.8,9.3c2.5,4,3.8,8.7,3.8,14.1s-1.3,10.1-3.8,14.1c-2.5,4-6.1,7.1-10.8,9.3c-4.6,2.2-10.1,3.3-16.3,3.3h-18
			v-11.9h17.3c3.3,0,6.2-0.6,8.7-1.7c2.5-1.1,4.4-2.8,5.8-5c1.4-2.2,2.1-4.8,2.1-7.8c0-3.1-0.7-5.7-2.1-7.9
			c-1.4-2.1-3.3-3.8-5.8-4.9c-2.5-1.1-5.4-1.7-8.7-1.7h-17.3V2039.3z M2004.2,2084.3l29.2,41.1h-17.5l-27.4-41.1H2004.2z"/>
		<path class="st5" d="M2091.5,2064.5c2.2-5.4,5.4-10.1,9.4-14.1c4.1-4,8.8-7.1,14.3-9.3c5.5-2.2,11.3-3.3,17.7-3.3
			c6.5,0,12.4,1.1,17.8,3.3s10.1,5.3,14.2,9.3c4.1,4,7.2,8.7,9.4,14.1c2.2,5.4,3.3,11.4,3.3,17.8c0,6.4-1.1,12.3-3.3,17.8
			c-2.2,5.5-5.3,10.3-9.3,14.3c-4,4-8.8,7.2-14.2,9.4c-5.5,2.3-11.4,3.4-17.9,3.4c-6.4,0-12.3-1.1-17.8-3.4
			c-5.5-2.3-10.2-5.4-14.2-9.4c-4-4-7.1-8.8-9.3-14.3c-2.2-5.5-3.3-11.4-3.3-17.8C2088.2,2075.8,2089.3,2069.9,2091.5,2064.5z
			 M2107.3,2098.1c2.5,4.6,6,8.3,10.4,10.9c4.4,2.6,9.5,3.9,15.1,3.9c5.7,0,10.8-1.3,15.2-3.9c4.4-2.6,7.8-6.3,10.3-10.9
			c2.5-4.6,3.8-9.9,3.8-15.8c0-5.9-1.2-11.2-3.7-15.8c-2.5-4.6-5.9-8.3-10.3-10.9c-4.4-2.6-9.5-3.9-15.3-3.9
			c-5.7,0-10.7,1.3-15.1,3.9c-4.4,2.6-7.9,6.3-10.4,10.9c-2.5,4.6-3.8,9.9-3.8,15.8C2103.6,2088.2,2104.8,2093.5,2107.3,2098.1z"/>
		<path class="st5" d="M2227.1,2139.3c1.7,0.8,3.6,1.2,5.7,1.2c1.9,0,3.7-0.8,5.5-2.4c1.8-1.6,2.7-4.4,2.7-8.3v-90.5h14.9v93.2
			c0,3.6-0.6,6.7-1.7,9.3c-1.1,2.6-2.7,4.8-4.7,6.5c-2,1.7-4.4,3-7.2,3.8c-2.8,0.8-5.8,1.2-9.1,1.2c-2.5,0-5-0.3-7.4-1
			c-2.4-0.7-4.5-1.5-6.3-2.5c-1.8-1-3.2-1.9-4.3-2.8l7.7-10.7C2223.9,2137.4,2225.3,2138.4,2227.1,2139.3z"/>
		<path class="st5" d="M2338.4,2039.3v86.1h-14.3v-86.1H2338.4z M2333.1,2039.3h43.4v12.8h-43.4V2039.3z M2333.1,2073h41v12.5h-41
			V2073z M2333.1,2112.6h43.4v12.8h-43.4V2112.6z"/>
		<path class="st5" d="M2458.3,2098.3c2.7,4.6,6.4,8.1,10.8,10.6c4.5,2.5,9.3,3.8,14.6,3.8c4.1,0,7.8-0.5,11.1-1.6
			c3.3-1.1,6.3-2.5,8.9-4.4c2.7-1.8,5-3.9,6.9-6.2v17.2c-3.6,3-7.5,5.2-11.7,6.8c-4.2,1.6-9.4,2.3-15.7,2.3
			c-6.3,0-12.2-1.1-17.7-3.2c-5.5-2.1-10.2-5.2-14.2-9.2c-4-4-7.2-8.8-9.4-14.2c-2.3-5.5-3.4-11.4-3.4-17.9c0-6.5,1.1-12.4,3.4-17.9
			c2.3-5.5,5.4-10.2,9.4-14.2c4-4,8.8-7.1,14.2-9.2c5.5-2.1,11.3-3.2,17.7-3.2c6.3,0,11.6,0.8,15.7,2.3c4.2,1.6,8.1,3.8,11.7,6.8
			v17.2c-2-2.3-4.3-4.4-6.9-6.2c-2.7-1.8-5.6-3.3-8.9-4.4c-3.3-1.1-7-1.6-11.1-1.6c-5.2,0-10.1,1.3-14.6,3.8
			c-4.5,2.5-8.1,6-10.8,10.6c-2.7,4.6-4.1,9.9-4.1,16.1C2454.2,2088.4,2455.6,2093.7,2458.3,2098.3z"/>
		<path class="st5" d="M2569.1,2039.3h60v13.4h-22.8v72.7h-14.6v-72.7h-22.6V2039.3z"/>
	</g>
</g>
<g id="rapid">
	<path class="st5" d="M394.1,2102l45.4,41.7c-0.7,0-1.1,0.1-1.6,0.1c-8.9,0-17.9,0-26.8,0c-0.9,0-1.5-0.3-2.2-0.9
		c-12-11-24-22.1-36-33.1c-6-5.5-11.9-10.9-17.9-16.4c-0.3-0.3-0.6-0.5-1.2-1c-0.2,3.6-0.1,7-0.1,10.3c0,3.4,0,6.8,0,10.2v30.5
		c-1.1,0.3-19.7,0.4-21,0.1v-135.4c0.5,0,1-0.1,1.4-0.1c13.8,0,27.5-0.1,41.3,0c18,0.2,32.5,7.4,43.5,21.7c5,6.5,7.7,13.9,8.4,22.1
		c0.7,8.2-0.4,16.1-3.9,23.7c-3.1,6.6-7.6,12-13.1,16.7c-4.6,3.9-9.7,7-15.3,9.1C394.8,2101.6,394.5,2101.8,394.1,2102z
		 M353.9,2085.6c0.5,0,0.8,0.1,1.2,0.1c6.6,0,13.2,0,19.7,0c1.5,0,3.1-0.1,4.6-0.3c9.2-1.1,16.5-5.5,22-12.8
		c6.9-9.1,7.1-22,0.5-31.3c-6.3-8.9-15.1-13.6-26.1-13.8c-6.9-0.1-13.8,0-20.6,0c-0.4,0-0.8,0-1.3,0.1V2085.6z"/>
	<path class="st5" d="M676.4,2143.8v-135.5c0.3-0.1,0.6-0.1,0.9-0.1c11.5,0,23.1-0.3,34.6,0.1c24.9,1,44.7,11.9,59.3,32.2
		c6.2,8.7,9.5,18.5,10.4,29.2c0.9,10.1-0.2,19.9-3.9,29.4c-3.4,8.9-8.8,16.4-15.5,23c-8.1,7.9-17.4,13.9-28.1,17.6
		c-5.8,2-11.8,3.3-17.9,3.7c-3.2,0.2-6.4,0.4-9.5,0.4c-9.5,0.1-19.1,0-28.7,0L676.4,2143.8z M697.5,2124.4c0.5,0,1,0.1,1.4,0.1
		c3.1,0,6.2,0,9.3,0c3.7,0,7.5-0.3,11.2-1c10.1-1.9,18.9-6.5,26.4-13.5c10.3-9.6,15.6-21.4,15.1-35.6c-0.3-8.3-2.4-16.1-7.2-22.9
		c-10.7-15.4-25.5-23.4-44.2-23.9c-3.5-0.1-7.1,0-10.6,0c-0.4,0-0.8,0-1.3,0.1L697.5,2124.4z"/>
	<path class="st6" d="M439.6,2143.4v-1.6c0-7.3,0-14.5,0-21.8c0-1.2,0.4-1.8,1.4-2.3c12.1-6.1,24.1-12.2,36.1-18.3
		c14.8-7.5,29.6-15.1,44.4-22.6c0.4-0.2,0.8-0.5,1.4-0.8c-0.7-0.4-1.1-0.7-1.5-0.9c-8.5-4.3-17-8.7-25.5-13
		c-9-4.6-18.1-9.2-27.1-13.8c-9.3-4.7-18.6-9.5-27.9-14.2c-0.8-0.4-1.2-0.8-1.1-1.8c0-7.6,0-15.1,0-22.7c0-0.3,0-0.5,0-0.7
		c0.1,0,0.1-0.1,0.2-0.1c0,0,0.1,0,0.1,0c45.1,22.3,90.2,44.6,135.3,66.9c0.2,0.1,0.3,0.2,0.5,0.3L439.6,2143.4z"/>
	<path class="st5" d="M542.9,2008.1h1.6c13.7,0,27.4-0.1,41,0c16.6,0.1,30.4,6.4,41.3,18.9c6.5,7.4,10.1,16.1,10.7,26
		c0.7,10.3-1.4,19.9-7.3,28.4c-7.6,11.1-18,18.5-31.1,21.8c-4.4,1.1-9,1.7-13.5,1.6c-6.7,0-13.4,0-20.1,0h-1.7
		c0,0.7-0.1,1.3-0.1,1.9c0,11.7,0,23.4,0,35.1v1.6c-1.1,0.3-19.4,0.4-20.9,0.1c0-0.4-0.1-0.8-0.1-1.2c0-13.2,0-26.4,0-39.6
		c0-0.9,0.3-1.4,1.1-1.8c10-4.9,20-9.9,30-14.9c0.6-0.3,1.3-0.4,2-0.4c3.4,0,6.7,0,10.1-0.1c10.2-0.2,18.6-4.4,24.9-12.3
		c8.3-10.3,7.7-25.1-1.2-35c-5.3-5.9-11.8-9.5-19.7-10.6c-1.4-0.2-2.7-0.3-4.1-0.3c-6.9,0-13.9,0-20.8,0c-0.4,0-0.8,0-1.3,0.1
		c0,5.6,0,11.1,0,16.7c0,5.5,0,11,0,16.5c-1-0.1-18.8-8.8-20.9-10.1L542.9,2008.1z"/>
	<path class="st5" d="M644.8,2008.2h20.7c0.3,1,0.3,133.6,0.1,135.4c-0.9,0.3-18.5,0.4-20.7,0.1c0,0-0.1-0.1-0.1-0.1
		c0,0-0.1-0.1-0.1-0.1c0-0.3-0.1-0.6-0.1-0.9c0-44.6,0-89.2,0-133.8C644.7,2008.6,644.8,2008.5,644.8,2008.2z"/>
</g>
<circle class="st6" cx="1846.4" cy="673.7" r="163.8"/>
<g>
	<g>
		<path class="st7" d="M147.7,1209.2c-1.4,0.8-2.5,1.9-3.3,3.3c-0.8,1.4-1.1,2.9-1.1,4.5c0,1.3,0.2,2.4,0.5,3.4
			c0.3,1,0.8,1.9,1.3,2.7c0.6,0.8,1.2,1.5,1.9,2.1h-5.3c-0.9-1.1-1.6-2.3-2.1-3.6s-0.7-2.9-0.7-4.8c0-1.9,0.3-3.7,1-5.4
			c0.7-1.7,1.6-3.1,2.8-4.3c1.2-1.2,2.7-2.2,4.3-2.9c1.7-0.7,3.5-1,5.5-1s3.8,0.3,5.5,1c1.7,0.7,3.1,1.6,4.3,2.9
			c1.2,1.2,2.2,2.7,2.8,4.3c0.7,1.7,1,3.5,1,5.4c0,1.9-0.2,3.5-0.7,4.8c-0.5,1.3-1.2,2.5-2.1,3.6h-5.3c0.7-0.6,1.3-1.3,1.9-2.1
			c0.6-0.8,1-1.7,1.3-2.7c0.3-1,0.5-2.1,0.5-3.4c0-1.6-0.4-3.1-1.1-4.5c-0.8-1.4-1.8-2.5-3.2-3.3c-1.4-0.8-3-1.3-4.9-1.3
			C150.7,1207.9,149.1,1208.3,147.7,1209.2z"/>
		<path class="st7" d="M135.2,1241.4c-0.3,0.5-0.4,1.1-0.4,1.7c0,0.6,0.2,1.1,0.7,1.7c0.5,0.6,1.3,0.8,2.5,0.8h27.7v4.6h-28.5
			c-1.1,0-2.1-0.2-2.9-0.5c-0.8-0.4-1.5-0.8-2-1.4c-0.5-0.6-0.9-1.3-1.1-2.2c-0.2-0.9-0.4-1.8-0.4-2.8c0-0.8,0.1-1.5,0.3-2.3
			c0.2-0.7,0.5-1.4,0.8-1.9s0.6-1,0.9-1.3l3.3,2.4C135.7,1240.5,135.4,1240.9,135.2,1241.4z"/>
		<path class="st7" d="M139.4,1274.2v-4.6l27.6,3.6l-17.9,10.8l17.9,10.8l-27.6,3.6v-4.6l16-1.8l-13.6-8l13.6-8L139.4,1274.2z"/>
		<path class="st7" d="M139.4,1320.9v-4.6l27.6,3.6l-17.9,10.8l17.9,10.8l-27.6,3.6v-4.6l16-1.8l-13.6-8l13.6-8L139.4,1320.9z"/>
		<path class="st7" d="M165.7,1381.8l-32-15.5v-4.1l32,15.6V1381.8z"/>
		<path class="st7" d="M159.7,1400.2c2,0.9,3.6,2.1,4.7,3.6c1.1,1.5,1.7,3.3,1.7,5.3c0,2.1-0.6,3.9-1.7,5.4
			c-1.1,1.5-2.7,2.7-4.7,3.6c-2,0.9-4.4,1.3-7.1,1.3s-5.1-0.4-7.1-1.3c-2-0.9-3.6-2.1-4.7-3.6c-1.1-1.5-1.7-3.3-1.7-5.4
			c0-2,0.6-3.8,1.7-5.3c1.1-1.5,2.7-2.7,4.7-3.6s4.4-1.3,7.1-1.3S157.7,1399.3,159.7,1400.2z M148.7,1403.7c-1.2,0.3-2.2,0.7-3,1.2
			c-0.9,0.5-1.5,1.1-2,1.9c-0.5,0.7-0.7,1.5-0.7,2.4c0,0.9,0.2,1.7,0.7,2.5c0.5,0.7,1.1,1.3,2,1.8c0.9,0.5,1.9,0.9,3,1.2
			c1.2,0.3,2.5,0.4,3.9,0.4s2.7-0.1,3.9-0.4s2.2-0.7,3-1.2c0.9-0.5,1.5-1.1,2-1.8s0.7-1.5,0.7-2.5c0-0.9-0.2-1.7-0.7-2.4
			c-0.5-0.7-1.1-1.3-2-1.9c-0.9-0.5-1.9-0.9-3-1.2c-1.2-0.3-2.5-0.4-3.9-0.4S149.9,1403.4,148.7,1403.7z"/>
		<path class="st7" d="M152.2,1448.9c0.7,0.6,1.3,1.2,2,1.6c0.6,0.5,1.3,0.8,1.9,1c0.6,0.2,1.3,0.3,2,0.3c0.5,0,1-0.1,1.5-0.3
			c0.5-0.2,0.9-0.5,1.3-0.9c0.4-0.4,0.7-0.9,1-1.4c0.2-0.6,0.4-1.2,0.4-1.9c0-1-0.2-1.9-0.7-2.6c-0.5-0.7-1.1-1.3-2-1.7
			c-0.9-0.4-1.9-0.6-3-0.6v-4.4c1.9,0,3.6,0.4,5,1.1c1.5,0.7,2.6,1.8,3.5,3.2c0.8,1.4,1.3,3.1,1.3,5.1c0,1.5-0.2,2.9-0.7,4
			c-0.5,1.1-1.1,2.1-1.9,2.8c-0.8,0.7-1.6,1.3-2.6,1.7c-0.9,0.4-1.8,0.5-2.7,0.5c-1.4,0-2.7-0.3-4-1c-1.3-0.7-2.4-1.5-3.4-2.6
			l-7.3-7.5v11.4h-4.1v-20.1L152.2,1448.9z"/>
		<path class="st7" d="M165.7,1493.9l-32-15.5v-4.1l32,15.6V1493.9z"/>
		<path class="st7" d="M152.2,1522.5c0.7,0.6,1.3,1.2,2,1.6c0.6,0.5,1.3,0.8,1.9,1c0.6,0.2,1.3,0.3,2,0.3c0.5,0,1-0.1,1.5-0.3
			c0.5-0.2,0.9-0.5,1.3-0.9c0.4-0.4,0.7-0.9,1-1.4c0.2-0.6,0.4-1.2,0.4-1.9c0-1-0.2-1.9-0.7-2.6c-0.5-0.7-1.1-1.3-2-1.7
			c-0.9-0.4-1.9-0.6-3-0.6v-4.4c1.9,0,3.6,0.4,5,1.1c1.5,0.7,2.6,1.8,3.5,3.2c0.8,1.4,1.3,3.1,1.3,5.1c0,1.5-0.2,2.9-0.7,4
			c-0.5,1.1-1.1,2.1-1.9,2.8c-0.8,0.7-1.6,1.3-2.6,1.7c-0.9,0.4-1.8,0.5-2.7,0.5c-1.4,0-2.7-0.3-4-1c-1.3-0.7-2.4-1.5-3.4-2.6
			l-7.3-7.5v11.4h-4.1v-20.1L152.2,1522.5z"/>
		<path class="st7" d="M165.7,1548.4v19.6l-26.3-12.6v-4.7l22.2,10.8v-13.1H165.7z"/>
		<path class="st7" d="M165.7,1603.4l-32-15.5v-4.1l32,15.6V1603.4z"/>
		<path class="st7" d="M152.2,1632c0.7,0.6,1.3,1.2,2,1.6c0.6,0.5,1.3,0.8,1.9,1c0.6,0.2,1.3,0.3,2,0.3c0.5,0,1-0.1,1.5-0.3
			c0.5-0.2,0.9-0.5,1.3-0.9c0.4-0.4,0.7-0.9,1-1.4c0.2-0.6,0.4-1.2,0.4-1.9c0-1-0.2-1.9-0.7-2.6c-0.5-0.7-1.1-1.3-2-1.7
			c-0.9-0.4-1.9-0.6-3-0.6v-4.4c1.9,0,3.6,0.4,5,1.1c1.5,0.7,2.6,1.8,3.5,3.2c0.8,1.4,1.3,3.1,1.3,5.1c0,1.5-0.2,2.9-0.7,4
			c-0.5,1.1-1.1,2.1-1.9,2.8c-0.8,0.7-1.6,1.3-2.6,1.7c-0.9,0.4-1.8,0.5-2.7,0.5c-1.4,0-2.7-0.3-4-1c-1.3-0.7-2.4-1.5-3.4-2.6
			l-7.3-7.5v11.4h-4.1v-20.1L152.2,1632z"/>
		<path class="st7" d="M159.7,1659.6c2,0.9,3.6,2.1,4.7,3.6c1.1,1.5,1.7,3.3,1.7,5.3c0,2.1-0.6,3.9-1.7,5.4s-2.7,2.7-4.7,3.6
			s-4.4,1.3-7.1,1.3s-5.1-0.4-7.1-1.3s-3.6-2-4.7-3.6s-1.7-3.3-1.7-5.4c0-2,0.6-3.8,1.7-5.3c1.1-1.5,2.7-2.7,4.7-3.6
			c2-0.9,4.4-1.3,7.1-1.3S157.7,1658.8,159.7,1659.6z M148.7,1663.1c-1.2,0.3-2.2,0.7-3,1.2c-0.9,0.5-1.5,1.1-2,1.9
			c-0.5,0.7-0.7,1.5-0.7,2.4c0,0.9,0.2,1.7,0.7,2.5c0.5,0.7,1.1,1.3,2,1.8c0.9,0.5,1.9,0.9,3,1.2c1.2,0.3,2.5,0.4,3.9,0.4
			s2.7-0.1,3.9-0.4c1.2-0.3,2.2-0.7,3-1.2c0.9-0.5,1.5-1.1,2-1.8c0.5-0.7,0.7-1.5,0.7-2.5c0-0.9-0.2-1.7-0.7-2.4s-1.1-1.3-2-1.9
			c-0.9-0.5-1.9-0.9-3-1.2c-1.2-0.3-2.5-0.4-3.9-0.4S149.9,1662.8,148.7,1663.1z"/>
		<path class="st7" d="M152.2,1708.3c0.7,0.6,1.3,1.2,2,1.6c0.6,0.5,1.3,0.8,1.9,1c0.6,0.2,1.3,0.3,2,0.3c0.5,0,1-0.1,1.5-0.3
			c0.5-0.2,0.9-0.5,1.3-0.9c0.4-0.4,0.7-0.9,1-1.4c0.2-0.6,0.4-1.2,0.4-1.9c0-1-0.2-1.9-0.7-2.6c-0.5-0.7-1.1-1.3-2-1.7
			c-0.9-0.4-1.9-0.6-3-0.6v-4.4c1.9,0,3.6,0.4,5,1.1c1.5,0.7,2.6,1.8,3.5,3.2c0.8,1.4,1.3,3.1,1.3,5.1c0,1.5-0.2,2.9-0.7,4
			c-0.5,1.1-1.1,2.1-1.9,2.8c-0.8,0.7-1.6,1.3-2.6,1.7c-0.9,0.4-1.8,0.5-2.7,0.5c-1.4,0-2.7-0.3-4-1c-1.3-0.7-2.4-1.5-3.4-2.6
			l-7.3-7.5v11.4h-4.1v-20.1L152.2,1708.3z"/>
		<path class="st7" d="M139.6,1740.5c0.4-1.1,1-2.1,1.7-2.9s1.6-1.4,2.6-1.8c1-0.4,2-0.6,3.1-0.6v4.4c-0.9,0-1.6,0.2-2.2,0.6
			c-0.6,0.4-1.1,1-1.4,1.7c-0.3,0.7-0.5,1.5-0.5,2.4c0,0.9,0.2,1.7,0.5,2.4c0.3,0.7,0.8,1.2,1.4,1.6c0.6,0.4,1.4,0.6,2.2,0.6
			c0.7,0,1.3-0.1,1.9-0.4c0.6-0.3,1-0.7,1.4-1.2c0.4-0.5,0.7-1.1,0.9-1.9c0.2-0.7,0.3-1.5,0.3-2.4h2.5c0,1.5-0.1,2.8-0.4,4.1
			c-0.3,1.3-0.7,2.4-1.3,3.3c-0.6,0.9-1.4,1.7-2.3,2.2c-0.9,0.5-2.1,0.8-3.4,0.8c-1.5,0-2.8-0.4-3.9-1.1c-1.1-0.8-2-1.8-2.6-3.2
			c-0.6-1.4-0.9-2.9-0.9-4.7C139,1742.9,139.2,1741.6,139.6,1740.5z M154.7,1743c0,0.8,0.1,1.5,0.3,2.1c0.2,0.6,0.5,1.2,0.9,1.6
			c0.4,0.4,0.8,0.8,1.3,1c0.5,0.2,1,0.4,1.6,0.4c0.7,0,1.3-0.1,1.9-0.4c0.5-0.3,1-0.7,1.3-1.2c0.3-0.5,0.5-1.2,0.5-2
			c0-1.2-0.3-2.1-1-2.9c-0.7-0.8-1.6-1.1-2.6-1.1v-4.2c1.5,0,2.7,0.3,3.8,1c1.1,0.7,2,1.6,2.6,2.9c0.6,1.2,1,2.6,1,4.3
			c0,1.7-0.3,3.2-1,4.4c-0.7,1.2-1.5,2.1-2.6,2.8c-1.1,0.6-2.3,1-3.6,1c-1.3,0-2.5-0.4-3.5-1.2c-1-0.8-1.8-2-2.4-3.4
			c-0.6-1.4-0.8-3.1-0.8-4.9H154.7z"/>
	</g>
</g>
<g>
	<g>
		<path class="st8" d="M2729.8,2204.9c0.7-0.7,1.2-1.4,1.7-2.1s0.8-1.3,1.1-2s0.4-1.4,0.4-2.1c0-0.5-0.1-1.1-0.3-1.6
			c-0.2-0.5-0.5-1-0.9-1.4c-0.4-0.4-0.9-0.8-1.5-1c-0.6-0.3-1.3-0.4-2-0.4c-1.1,0-2,0.2-2.8,0.7c-0.8,0.5-1.4,1.2-1.8,2.1
			c-0.4,0.9-0.6,2-0.6,3.2h-4.7c0-2,0.4-3.8,1.1-5.3s1.9-2.8,3.4-3.7s3.3-1.3,5.4-1.3c1.6,0,3,0.3,4.2,0.8c1.2,0.5,2.2,1.2,3,2
			c0.8,0.8,1.4,1.7,1.8,2.7c0.4,1,0.6,1.9,0.6,2.9c0,1.5-0.4,2.9-1.1,4.2c-0.7,1.4-1.6,2.6-2.8,3.6l-8,7.8h12.2v4.4h-21.4
			L2729.8,2204.9z"/>
		<path class="st8" d="M2743.2,2197c0.9-2.2,2.2-3.8,3.8-5c1.6-1.2,3.5-1.8,5.7-1.8c2.2,0,4.1,0.6,5.7,1.8c1.6,1.2,2.9,2.9,3.8,5
			c0.9,2.2,1.4,4.7,1.4,7.6c0,2.9-0.5,5.4-1.4,7.6c-0.9,2.2-2.2,3.8-3.8,5c-1.6,1.2-3.6,1.8-5.7,1.8c-2.1,0-4-0.6-5.7-1.8
			c-1.6-1.2-2.9-2.9-3.8-5c-0.9-2.2-1.4-4.7-1.4-7.6C2741.8,2201.7,2742.3,2199.1,2743.2,2197z M2746.9,2208.7
			c0.3,1.3,0.7,2.3,1.3,3.2s1.2,1.6,2,2.1c0.8,0.5,1.6,0.7,2.6,0.7c1,0,1.9-0.2,2.6-0.7c0.8-0.5,1.4-1.2,2-2.1s1-2,1.3-3.2
			c0.3-1.3,0.4-2.6,0.4-4.1c0-1.5-0.1-2.9-0.4-4.1c-0.3-1.3-0.7-2.3-1.3-3.2c-0.5-0.9-1.2-1.6-2-2.1c-0.8-0.5-1.6-0.7-2.6-0.7
			c-0.9,0-1.8,0.2-2.6,0.7c-0.8,0.5-1.4,1.2-2,2.1c-0.5,0.9-1,2-1.3,3.2c-0.3,1.3-0.4,2.6-0.4,4.1
			C2746.4,2206.1,2746.6,2207.5,2746.9,2208.7z"/>
		<path class="st8" d="M2779,2204.9c0.7-0.7,1.2-1.4,1.7-2.1c0.5-0.7,0.8-1.3,1.1-2c0.2-0.7,0.4-1.4,0.4-2.1c0-0.5-0.1-1.1-0.3-1.6
			c-0.2-0.5-0.5-1-0.9-1.4s-0.9-0.8-1.5-1c-0.6-0.3-1.3-0.4-2-0.4c-1.1,0-2,0.2-2.8,0.7c-0.8,0.5-1.4,1.2-1.8,2.1
			c-0.4,0.9-0.6,2-0.6,3.2h-4.7c0-2,0.4-3.8,1.1-5.3s1.9-2.8,3.4-3.7c1.5-0.9,3.3-1.3,5.4-1.3c1.6,0,3,0.3,4.2,0.8
			c1.2,0.5,2.2,1.2,3,2s1.4,1.7,1.8,2.7c0.4,1,0.6,1.9,0.6,2.9c0,1.5-0.4,2.9-1.1,4.2c-0.7,1.4-1.6,2.6-2.8,3.6l-8,7.8h12.2v4.4
			H2766L2779,2204.9z"/>
		<path class="st8" d="M2797.2,2218.4c-1.2-0.4-2.2-1.1-3-1.8c-0.8-0.8-1.5-1.7-1.9-2.7c-0.5-1-0.7-2.1-0.7-3.3h4.7
			c0,0.9,0.2,1.7,0.7,2.3c0.4,0.7,1,1.2,1.8,1.5c0.8,0.4,1.6,0.5,2.6,0.5c1,0,1.8-0.2,2.5-0.5c0.7-0.3,1.3-0.8,1.7-1.5
			c0.4-0.7,0.6-1.4,0.6-2.4c0-0.7-0.1-1.4-0.4-2c-0.3-0.6-0.7-1.1-1.3-1.5c-0.5-0.4-1.2-0.7-2-0.9c-0.8-0.2-1.6-0.3-2.6-0.3v-2.7
			c1.5,0,3,0.2,4.3,0.5c1.3,0.3,2.5,0.8,3.5,1.4c1,0.6,1.8,1.4,2.3,2.4c0.6,1,0.8,2.2,0.8,3.6c0,1.6-0.4,3-1.2,4.2
			c-0.8,1.2-1.9,2.1-3.4,2.8c-1.4,0.7-3.1,1-5,1C2799.7,2219.1,2798.4,2218.8,2797.2,2218.4z M2799.8,2202.3c0.9,0,1.6-0.1,2.3-0.3
			c0.7-0.2,1.2-0.5,1.7-0.9c0.5-0.4,0.8-0.9,1.1-1.4c0.3-0.5,0.4-1.1,0.4-1.7c0-0.7-0.1-1.4-0.4-2c-0.3-0.6-0.7-1-1.3-1.3
			s-1.3-0.5-2.1-0.5c-1.2,0-2.2,0.4-3.1,1.1c-0.8,0.7-1.2,1.7-1.2,2.8h-4.4c0-1.5,0.4-2.9,1.1-4.1c0.7-1.2,1.8-2.1,3.1-2.8
			s2.8-1,4.5-1c1.8,0,3.4,0.3,4.6,1c1.3,0.7,2.3,1.6,2.9,2.7c0.7,1.1,1,2.4,1,3.8c0,1.4-0.4,2.7-1.3,3.8c-0.9,1.1-2.1,1.9-3.6,2.5
			c-1.5,0.6-3.3,0.9-5.3,0.9V2202.3z"/>
		<path class="st8" d="M2812.4,2221.4h20.5v2.8h-20.5V2221.4z"/>
		<path class="st8" d="M2837.6,2200.2l4.8,11.9l4.8-11.9h4.8l-9.6,20.1l-9.5-20.1H2837.6z"/>
		<path class="st8" d="M2865.6,2204.9c0.7-0.7,1.2-1.4,1.7-2.1s0.8-1.3,1.1-2s0.4-1.4,0.4-2.1c0-0.5-0.1-1.1-0.3-1.6
			c-0.2-0.5-0.5-1-0.9-1.4c-0.4-0.4-0.9-0.8-1.5-1c-0.6-0.3-1.3-0.4-2-0.4c-1.1,0-2,0.2-2.8,0.7c-0.8,0.5-1.4,1.2-1.8,2.1
			c-0.4,0.9-0.6,2-0.6,3.2h-4.7c0-2,0.4-3.8,1.1-5.3s1.9-2.8,3.4-3.7s3.3-1.3,5.4-1.3c1.6,0,3,0.3,4.2,0.8c1.2,0.5,2.2,1.2,3,2
			c0.8,0.8,1.4,1.7,1.8,2.7c0.4,1,0.6,1.9,0.6,2.9c0,1.5-0.4,2.9-1.1,4.2c-0.7,1.4-1.6,2.6-2.8,3.6l-8,7.8h12.2v4.4h-21.4
			L2865.6,2204.9z"/>
	</g>
</g>
</svg>
