<?xml version="1.0" encoding="utf-8"?>
<!-- Generator: Adobe Illustrator 23.0.5, SVG Export Plug-In . SVG Version: 6.00 Build 0)  -->
<svg version="1.1" id="Layer_2" xmlns="http://www.w3.org/2000/svg" xmlns:xlink="http://www.w3.org/1999/xlink" x="0px" y="0px"
	 viewBox="0 0 2552.5 648.4" style="enable-background:new 0 0 2552.5 648.4;" xml:space="preserve">
<style type="text/css">
	.st0{fill:url(#SVGID_1_);}
	.st1{display:none;}
	.st2{display:inline;fill:#DBEBE9;}
	.st3{display:inline;opacity:0.6;}
	.st4{fill:#B9D6DD;}
	.st5{display:inline;}
	.st6{fill:#A7CDD4;}
	.st7{fill:#F7B07C;}
	.st8{fill:#EC865C;}
	.st9{fill:#71AA9F;}
	.st10{fill:#5C315E;}
	.st11{fill:#341933;}
	.st12{fill:#0D0936;}
	.st13{fill:#FFFFFF;}
	.st14{fill:#764678;}
	.st15{fill:#EE875D;}
	.st16{fill:#030304;}
	.st17{fill:#68A2C0;}
	.st18{fill:#DBEBE9;}
	.st19{opacity:0.3;fill:#FFFFFF;}
	.st20{fill:#F08062;}
	.st21{fill:#F5A370;}
	.st22{fill:#E8955F;}
	.st23{fill:#94A3D3;}
	.st24{fill:#5F3663;}
	.st25{fill:#7A4A7F;}
	.st26{fill:#7F94CB;}
	.st27{fill:#366F92;}
	.st28{fill:#532B54;}
	.st29{fill:#ADCAC6;}
	.st30{display:inline;fill:#4487A9;}
</style>
<linearGradient id="SVGID_1_" gradientUnits="userSpaceOnUse" x1="1276.2646" y1="648.4117" x2="1276.2646" y2="-9.094947e-13">
	<stop  offset="0" style="stop-color:#FFFFFF"/>
	<stop  offset="0.2646" style="stop-color:#F1F9F9"/>
	<stop  offset="0.6747" style="stop-color:#E1F1F2"/>
	<stop  offset="1" style="stop-color:#DCEFF0"/>
</linearGradient>
<rect class="st0" width="2552.5" height="648.4"/>
<g class="st1">
	<g>
		<path class="st2" d="M2324.6,215.7v273c0,35.4-27.6,61.5-65.1,73.4c-9.1,2.9-18.5,4.8-27.9,5.9c-61.5,7.2-127.5,3.7-245.8-3.2
			c-70.4-4.1-209.9,2.6-282,3.2c-52.1,0.4-93.1-36.1-93.1-79.3v-273c0-43.8,41.8-81.8,93.1-79.3c47.6,2.4,117.8,11.9,190.8,6.1
			c86-6.8,251.4-12.8,337-6.1C2282.7,140.5,2324.6,172,2324.6,215.7z"/>
	</g>
	<g class="st3">
		<ellipse class="st4" cx="1966.2" cy="480.2" rx="308.8" ry="44.3"/>
	</g>
	<g class="st5">
		<polygon class="st6" points="2144.2,454.5 2147.8,455.7 2147.6,381 2144.8,382.9 		"/>
		<path class="st6" d="M2129.2,458.1c0,0,25.4,0.5,33.9,0.5c0.9,0,1.6-1.3,1.6-2.2l0,0c0-0.9-1.4-2-2.3-2c-8.3,0-33.2,0.3-33.2,0.3
			c-0.9,0-1.7,0.8-1.7,1.7l0,0C2127.5,457.4,2128.3,458.1,2129.2,458.1z"/>
		<path class="st6" d="M2163.5,461.2c-0.3-1.9-1.9-3-3.8-3c-1.9,0-3.8,1.2-3.8,3.1c0,2.3,2.4,4,4.3,4
			C2162,465.2,2163.9,463.5,2163.5,461.2z"/>
		<path class="st6" d="M2136.4,461.2c-0.3-1.9-1.9-3-3.8-3c-1.9,0-3.8,1.2-3.8,3.1c0,2.3,2.4,4,4.3,4
			C2134.9,465.2,2136.8,463.5,2136.4,461.2z"/>
		<path class="st6" d="M2156.7,400.5c0,0,0.9,6.1-8.5,8c-9.4,2-13.4-8-13.4-8H2156.7z"/>
		<path class="st6" d="M2129,377.3c-0.1-11.3,5.7-34.2,17.2-48.1c12.1-14.7,39.8-19.7,46.7-3.9c6.9,15.8-12.3,61-12.3,61
			s-4.1,11.7-8,14.3c-9.6,6.4-55.6,4.9-62.9-2.1C2093.9,383.4,2116.5,374.3,2129,377.3z"/>
	</g>
	<g class="st5">
		<g>
			<g>
				<g>
					<path class="st7" d="M2100,318.9c0,0,0-3.4-1.7-3.5c-2.2-0.1-5.2-0.6-6.8-2.1c-2.7-2.7-4.2-8.2-2.1-6.9c2,1.3,4.2,3.7,4.2,3.7
						s-4.3-5.4-2.6-5.8c1.7-0.5,5.4,4.2,5.4,4.2s-4.7-6.8-2.9-6.7c1.7,0.1,5.2,5.3,5.2,5.3s-4.1-6.5-2.1-6.4c2,0.1,3.3,5,5,4.9
						c3.4-0.2,8.3,0.7,8.3,6.8L2100,318.9z"/>
				</g>
				<g>
					<path class="st8" d="M2095.9,312C2095.9,312,2095.9,312,2095.9,312c-1.3-0.1-2.3-1.8-2.3-1.9c0-0.1,0-0.2,0-0.2
						c0.1,0,0.2,0,0.2,0.1c0,0,1,1.6,2.1,1.7c0.1,0,0.1,0.1,0.1,0.1C2096,311.9,2096,312,2095.9,312z"/>
				</g>
				<g>
					<path class="st8" d="M2099.1,310.7C2099.1,310.7,2099.1,310.7,2099.1,310.7c-1.8-0.5-2.7-2.1-2.8-2.2c0-0.1,0-0.2,0.1-0.2
						c0.1,0,0.2,0,0.2,0.1c0,0,0.9,1.6,2.5,2.1c0.1,0,0.1,0.1,0.1,0.2C2099.2,310.7,2099.2,310.7,2099.1,310.7z"/>
				</g>
				<g>
					<path class="st8" d="M2101.3,309.1c-1.3,0-2.5-2-2.6-2.1c0-0.1,0-0.2,0-0.2c0.1-0.1,0.2,0,0.2,0.1c0,0,1.2,1.9,2.3,1.9
						c0,0,0,0,0,0h0c0.1,0,0.1,0.1,0.1,0.1C2101.4,309.1,2101.3,309.1,2101.3,309.1z"/>
				</g>
			</g>
			<g>
				<g>
					<path class="st9" d="M2109.5,355.9c1.8-0.2,3.4-0.8,5-1.8c5.1-3.1,8.5-9.7,11.1-21.4c1.2-5.4,4.6-11.9,4.7-11.9l-11.5-6.1
						c-0.2,0.3-4.3,8.1-5.9,15.3c-0.9,4.1,1.3-18.8-2-18.6c-8.8,0.6-12.7,6.6-12.7,6.6c-0.9,3.3-1,20.5-0.9,24.3
						c0.1,2.7,0.4,4.9,1,6.6c1.5,4.7,4.6,6.1,6.4,6.6C2106.2,356,2107.9,356.1,2109.5,355.9z"/>
				</g>
			</g>
			<g>
				<path class="st8" d="M2114.1,343.1C2114.1,343.1,2114.1,343.1,2114.1,343.1c-0.1,0-0.2-0.1-0.2-0.2c0-0.1,0.9-7.1-1.7-12.6
					c0-0.1,0-0.2,0.1-0.2c0.1,0,0.2,0,0.2,0.1c2.7,5.6,1.8,12.7,1.8,12.8C2114.3,343,2114.2,343.1,2114.1,343.1z"/>
			</g>
			<g>
				<path class="st9" d="M2170.8,315.6c0,0-2.5-11.2-23.1-11.8c-29.7-1-27.7,26.4-31.6,67.9c0,0,29.4-3.4,57,3.4
					C2173.1,375.1,2176.8,332.7,2170.8,315.6z"/>
			</g>
			<g>
				<path class="st9" d="M2178.8,322.1l-14.1-0.7c0,0-29.6,1.9-37.4,0.4c-7.8-1.5-9.8-7.3-9.8-7.3s8.6-8.4,22.8-10.3
					c1.3-0.2,2.7-0.3,4.2-0.4c2.4-0.1,4.8,0.1,7.2,0.3C2173.4,306,2178.8,322.1,2178.8,322.1z"/>
			</g>
			<g>
				<path class="st7" d="M2150.6,301.3l-1.4-5.1l-0.4-1.5l-2.4-8.7l-0.6,8.5l-0.3,5.1l-0.1,1.6c-0.1,1.1-0.8,1.3-1.6,2.3
					c-0.3,0.4-2.5,2.7-0.1,3.8c3,1.4,8.6-0.4,10.8-3C2154.3,304.5,2151,303,2150.6,301.3z"/>
			</g>
			<g>
				<g>
					<path class="st10" d="M2139.3,280.3c0,0-1.1,2.2-1.1,5.2s4.4-3.5,4.4-3.5L2139.3,280.3z"/>
				</g>
				<g>
					
						<ellipse transform="matrix(0.3271 -0.945 0.945 0.3271 1170.8479 2222.5378)" class="st7" cx="2146" cy="289.2" rx="10.5" ry="8.7"/>
				</g>
				<g>
					<path class="st11" d="M2155,289.1l-4-1.3c-0.9-0.3-1.6-0.9-2-1.8c-0.6-1.5-1.5-2.4-5.3-3c-4.9-0.8-7.5-4.4-7.5-7
						c0-2.7,2.9-4,5-2.2c2.2,1.7,1.8-1.5,4.2-1.4c4.5,0.3,4.7,3.9,8.3,4.5c4.8,0.8,12.5,6.2,6.8,13.6L2155,289.1z"/>
				</g>
				<g>
					<g>
						<path class="st12" d="M2145.6,288.6c0,0-0.1-0.1-0.1-0.1c0-0.1,0.1-0.2,0.2-0.2c0.1,0,1.4,0,1.8,1.5c0,0.1,0,0.2-0.1,0.2
							c-0.1,0-0.2,0-0.2-0.1c-0.4-0.9-1.4-1.3-1.5-1.3C2145.7,288.7,2145.6,288.7,2145.6,288.6z"/>
					</g>
				</g>
				<g>
					<path class="st12" d="M2145.9,291c-0.2,0.4-0.6,0.6-0.8,0.4s-0.3-0.6-0.1-0.9c0.2-0.4,0.6-0.6,0.8-0.4
						C2146,290.2,2146.1,290.6,2145.9,291z"/>
				</g>
				<g>
					<g>
						<path class="st12" d="M2139.3,286.8c0,0-0.1-0.1-0.1-0.1c0-0.1,0-0.2,0.1-0.2c0,0,1.1-0.6,1.7,0.6c0,0.1,0,0.2,0,0.2
							c-0.1,0.1-0.1,0-0.2,0C2140.3,286.7,2139.4,286.8,2139.3,286.8C2139.4,286.8,2139.3,286.8,2139.3,286.8z"/>
					</g>
				</g>
				<g>
					<path class="st12" d="M2140.5,288.9c0,0.4-0.3,0.7-0.6,0.7s-0.5-0.4-0.5-0.8c0-0.4,0.3-0.7,0.6-0.7
						C2140.3,288.1,2140.6,288.5,2140.5,288.9z"/>
				</g>
				<g>
					<path class="st10" d="M2160.4,290.5c0,0-4.1,5.6-8.3,5.2c0,0,4.2-4-2.1-8.3C2150.1,287.4,2156.6,287.7,2160.4,290.5z"/>
				</g>
				<g>
					<path class="st7" d="M2154,292.7c-1,0.4-2,0-2.4-0.9c-0.3-0.9,0.2-1.9,1.2-2.3c1-0.4,2,0,2.4,0.9
						C2155.5,291.3,2155,292.4,2154,292.7z"/>
				</g>
				<g>
					<path class="st10" d="M2150.1,287.4c0,0-0.5,5.3-1.8,6c-1.3,0.8-8.3-0.2-11.3-2.2l0,0c-0.7,3.3,1,6.7,4.2,7.9
						c1,0.4,2.2,0.6,3.3,0.7l0,0c2.3,0.1,4.7-0.4,6.1-2.3c0.4-0.6,0.4-4.7,0.4-4.7s0.2-2.4,1.8-3.3
						C2152.8,289.6,2151.6,287.9,2150.1,287.4z"/>
				</g>
				<g>
					<path class="st11" d="M2142.2,273.5c-0.1,0-0.3,0-0.5-0.1l0.1-0.2c1.1,0.3,1.4-0.6,1.4-0.7l0.2,0.1
						C2143.4,272.6,2143.2,273.5,2142.2,273.5z"/>
				</g>
				<g>
					<path class="st13" d="M2142.6,281.3c-0.2-0.1-5-2.7-4.7-5.5c0.1-0.8,0.3-1.3,0.8-1.5c0.7-0.4,1.6,0.1,2.4,0.4
						c0.1,0.1,0.2,0.1,0.3,0.2l0,0.1c-0.1,0-0.2-0.1-0.4-0.2c-0.8-0.4-1.7-0.8-2.3-0.4c-0.4,0.2-0.6,0.7-0.7,1.5
						c-0.3,2.7,4.5,5.3,4.6,5.3L2142.6,281.3z"/>
				</g>
				<g>
					<path class="st13" d="M2155.5,278.2c-5.3-0.4-7.2-3.8-7.2-3.8l0.1-0.1c0,0,1.9,3.4,7.1,3.7L2155.5,278.2z"/>
				</g>
				<g>
					<path class="st13" d="M2140.9,295.5c-0.1,0.5,0.1,1,0.5,1.1s0.8-0.3,0.9-0.8c0.1-0.5-0.1-1-0.5-1.1
						C2141.4,294.6,2141,295,2140.9,295.5z"/>
				</g>
			</g>
			<g>
				<g>
					<g>
						<path class="st14" d="M2144.3,353.1l-24.5-2.5c-1.5-0.1-2.7-1.1-3.1-2.5l-8.6-29.3c-0.6-2,0.9-3.9,3.1-4.2l22.7-2.8
							c3.7-0.7,5.4,0.9,5.8,2.6l8.7,34.6C2148.9,351.3,2146.8,353.4,2144.3,353.1z"/>
					</g>
				</g>
				<g>
					<g>
						<path class="st11" d="M2142.3,353.1l-24.5-2.5c-1.5-0.1-2.7-1.1-3.1-2.5l-8.6-29.3c-0.6-2,0.9-3.9,3.1-4.2l24.5-2.8
							c1.9-0.2,3.6,0.9,4,2.6l8.7,34.6C2146.8,351.3,2144.7,353.4,2142.3,353.1z"/>
					</g>
				</g>
				<g>
					<path class="st14" d="M2131.2,316c0,0.6,0.5,1,1,1c0.6,0,1-0.5,1-1c0-0.6-0.5-1-1-1C2131.7,315,2131.2,315.5,2131.2,316z"/>
				</g>
			</g>
			<g>
				<g>
					<g>
						<g>
							<g>
								<g>
									<path class="st7" d="M2151.3,332.3c0,0-3.5-8.9-8.2-10.4c-4.6-1.5-11.9,0.6-9,1.8c1.8,0.8,6.6,1.3,6.6,1.3
										s-8.6-0.5-8.1,1.7c0.3,1.6,7.6,2.5,7.6,2.5s-9.9-0.1-9,1.9c0.8,1.6,8.4,2.3,8.4,2.3s-8.9-0.3-7.8,2.1
										c0.7,1.6,6.6,0.1,6.8,2.4c0.2,2.5,0.8,3.4,4.3,5.5L2151.3,332.3z"/>
								</g>
							</g>
						</g>
						<g>
							<g>
								<path class="st15" d="M2143.8,326.6c0.1,0,0.2,0,0.2,0c0.1-0.1,0.2-0.3,0.1-0.4c-0.7-1.3-3-1.4-3.1-1.4
									c-0.2,0-0.3,0.1-0.3,0.3c0,0.2,0.1,0.3,0.3,0.3c0,0,2,0.1,2.6,1.1C2143.7,326.6,2143.7,326.6,2143.8,326.6z"/>
							</g>
						</g>
						<g>
							<g>
								<path class="st15" d="M2143,330.6c0.1,0,0.2,0,0.2,0c0.1-0.1,0.1-0.2,0-0.3c-1-1.2-2.7-1.2-2.8-1.2c-0.1,0-0.2,0.1-0.2,0.2
									c0,0.1,0.1,0.2,0.2,0.2c0,0,1.5,0.1,2.4,1.1C2142.9,330.6,2143,330.6,2143,330.6z"/>
							</g>
						</g>
						<g>
							<g>
								<path class="st15" d="M2142.3,334.9c0.1,0,0.2,0,0.2,0c0.1-0.1,0.1-0.2,0-0.3c-1-1.2-2.7-1.2-2.8-1.2
									c-0.1,0-0.2,0.1-0.2,0.2c0,0.1,0.1,0.2,0.2,0.2c0,0,1.5,0.1,2.4,1.1C2142.2,334.9,2142.2,334.9,2142.3,334.9z"/>
							</g>
						</g>
					</g>
					<g>
						<g>
							<g>
								<path class="st9" d="M2178.7,359.5c6.5-2.4,8.1-11.4,3.1-30.4c-1.3-5.1-5.4-12.1-6.6-13.3c-1.9-1.7-5.5,3.4-6.8,4.3
									c-2.3,1.5-7.4,5.6-5.9,8.5c0,0,6.5,14.3,6.5,14.3c-4.3-2-15.3-10.8-18.4-12.2c0,0-9.5,7.4-8.1,14.6
									C2142.5,345.5,2160.6,366.3,2178.7,359.5z"/>
							</g>
						</g>
					</g>
				</g>
			</g>
		</g>
		<g>
			<path class="st11" d="M2122.8,320.6l-0.3-0.1c1-3.1,4-7,4-7l0.3,0.2C2126.7,313.7,2123.7,317.5,2122.8,320.6z"/>
		</g>
		<g>
			<path class="st11" d="M2168.2,338.3C2168.2,338.3,2168.2,338.3,2168.2,338.3c-4.9-0.2-16.5-6.9-17-7.1c-0.1,0-0.1-0.1-0.1-0.2
				c0-0.1,0.1-0.1,0.2-0.1c0.1,0.1,12,6.9,16.9,7.1c0.1,0,0.1,0.1,0.1,0.2C2168.4,338.2,2168.3,338.3,2168.2,338.3z"/>
		</g>
		<g>
			<path class="st11" d="M2161.2,359.9C2161.2,359.9,2161.2,359.9,2161.2,359.9c-7.7-3.1-15.5-10.9-15.6-11c-0.1-0.1-0.1-0.2,0-0.2
				c0.1-0.1,0.1-0.1,0.2,0c0.1,0.1,7.8,7.8,15.4,10.9c0.1,0,0.1,0.1,0.1,0.2C2161.3,359.9,2161.2,359.9,2161.2,359.9z"/>
		</g>
		<g>
			<path class="st11" d="M2162.5,336.7C2162.5,336.7,2162.5,336.7,2162.5,336.7c-0.1,0-0.2-0.1-0.1-0.2c0.6-2.7-1.9-10.7-2-10.8
				c0-0.1,0-0.2,0.1-0.2c0.1,0,0.2,0,0.2,0.1c0.1,0.3,2.6,8.1,2,10.9C2162.7,336.7,2162.6,336.7,2162.5,336.7z"/>
		</g>
		<g>
			<path class="st11" d="M2109.9,453.1c0,0,0.1,4.2-2.7,5.5c-2.8,1.3-11,2.8-7.7,5.4c1.8,1.5,10.1,0,12.5-0.1
				c2.4-0.1,4.6,0.8,6.3-0.9c1.8-1.8-0.5-10.3-0.5-10.3s-2,1.2-3.8,1.2C2111.2,454,2109.9,453.1,2109.9,453.1z"/>
		</g>
		<g>
			<path class="st11" d="M2084.6,452.5c0,0,0.1,4.2-2.7,5.5c-2.8,1.3-11,2.7-7.8,5.3c1.8,1.5,10.1,0.1,12.5,0
				c2.4-0.1,4.6,0.8,6.3-0.8c1.9-1.8-0.4-10.4-0.4-10.4s-2,1.1-3.8,1.2C2086,453.4,2084.6,452.5,2084.6,452.5z"/>
		</g>
		<g>
			<g>
				<path class="st14" d="M2086.8,455.9c-4.9-0.2-8.8-4.2-8.8-9.1c-0.1-27.7,1.4-41.7,9.9-53.8c5.4-7.8,13.6-15.4,23.8-20
					c8.8-4,16.3-5.9,26.2-6.4c16.1-0.7,23.7,1.8,23.7,1.8c11.8,25.3-7.2,28.4-21.2,28.9c-0.5,0-0.9,0-1.4,0.1
					c-8.5,0.4-23.6,2.4-29.4,10.7c-4.6,6.6-7.9,15.9-9.5,40.1c-0.3,4.6-4.2,8.2-8.9,8L2086.8,455.9z"/>
			</g>
		</g>
		<g>
			<g>
				<path class="st14" d="M2110.1,457.6c-4.9-0.2-8.8-4.2-8.8-9.1c-0.1-27.7,1.4-41.7,9.9-53.8c5.4-7.8,13.5-13.6,24.1-17.4
					c7.5-2.6,8.3-14.5,18.2-14.9c16.1-0.7,20.4,0.9,20.4,0.9c12.6,32.3-23.9,31.6-36.5,45.2c-5.5,5.9-12.3,17.2-14,41.3
					c-0.3,4.6-4.2,8.2-8.9,8L2110.1,457.6z"/>
			</g>
		</g>
		<g>
			<path class="st16" d="M2101.4,432.9l0.2,0c0-0.1-0.8-10.6,2.3-22.1c1.8-6.8,4.5-12.6,8.2-17.3c4.5-5.8,10.4-9.9,17.5-12.2
				l-0.1-0.2c-7.1,2.2-13.1,6.4-17.6,12.2c-3.6,4.7-6.4,10.5-8.2,17.3C2100.7,422.3,2101.4,432.8,2101.4,432.9z"/>
		</g>
	</g>
	<g class="st5">
		<polygon class="st6" points="1994.3,447.5 1998,448.7 1997.7,374 1994.9,375.9 		"/>
		<path class="st6" d="M1979.4,451.1c0,0,25.4,0.5,33.9,0.5c0.9,0,1.6-1.3,1.6-2.2l0,0c0-0.9-1.4-2-2.3-2c-8.3,0-33.2,0.3-33.2,0.3
			c-0.9,0-1.7,0.8-1.7,1.7l0,0C1977.7,450.4,1978.4,451.1,1979.4,451.1z"/>
		<path class="st6" d="M2013.6,454.2c-0.3-1.9-1.9-3-3.8-3s-3.8,1.2-3.8,3.1c0,2.3,2.4,4,4.3,4S2014,456.5,2013.6,454.2z"/>
		<path class="st6" d="M1986.5,454.2c-0.3-1.9-1.9-3-3.8-3s-3.8,1.2-3.8,3.1c0,2.3,2.4,4,4.3,4S1986.9,456.5,1986.5,454.2z"/>
		<path class="st6" d="M2006.9,399.7c0,0,0.9,6.1-8.5,8s-13.4-8-13.4-8H2006.9z"/>
		<path class="st6" d="M1979.1,376.5c-0.1-11.3,5.7-34.2,17.2-48.1c12.1-14.7,39.8-19.7,46.7-3.9c6.9,15.8-12.3,61-12.3,61
			s-4.1,11.7-8,14.3c-9.6,6.4-55.6,4.9-62.9-2.1C1944,382.6,1966.7,373.5,1979.1,376.5z"/>
	</g>
	<g class="st5">
		<polygon class="st6" points="1898.5,450.7 1894.8,451.9 1895.1,377.2 1897.9,379.1 		"/>
		<path class="st6" d="M1913.5,454.3c0,0-25.4,0.5-33.9,0.5c-0.9,0-1.6-1.3-1.6-2.2l0,0c0-0.9,1.4-2,2.3-2c8.3,0,33.2,0.3,33.2,0.3
			c0.9,0,1.7,0.8,1.7,1.7l0,0C1915.2,453.6,1914.4,454.3,1913.5,454.3z"/>
		<path class="st6" d="M1879.2,457.4c0.3-1.9,1.9-3,3.8-3s3.8,1.2,3.8,3.1c0,2.3-2.4,4-4.3,4S1878.8,459.7,1879.2,457.4z"/>
		<path class="st6" d="M1906.3,457.4c0.3-1.9,1.9-3,3.8-3s3.8,1.2,3.8,3.1c0,2.3-2.4,4-4.3,4S1905.9,459.7,1906.3,457.4z"/>
		<path class="st6" d="M1885.9,392c0,0-0.9,6.1,8.5,8c9.4,2,13.4-8,13.4-8H1885.9z"/>
		<path class="st6" d="M1905.9,396.1h-26c-13,0-23.7-10.7-23.7-23.7v-33.7c0-20.4,16.7-37.1,37.1-37.1h0c20,0,36.3,16.3,36.3,36.3
			v34.5C1929.5,385.5,1918.9,396.1,1905.9,396.1z"/>
	</g>
	<g class="st5">
		<polygon class="st6" points="1759.7,450.6 1756.1,451.8 1756.3,377.1 1759.1,379 		"/>
		<path class="st6" d="M1774.7,454.2c0,0-25.4,0.5-33.9,0.5c-0.9,0-1.6-1.3-1.6-2.2l0,0c0-0.9,1.4-2,2.3-2c8.3,0,33.2,0.3,33.2,0.3
			c0.9,0,1.7,0.8,1.7,1.7l0,0C1776.4,453.4,1775.6,454.2,1774.7,454.2z"/>
		<path class="st6" d="M1740.4,457.2c0.3-1.9,1.9-3,3.8-3s3.8,1.2,3.8,3.1c0,2.3-2.4,4-4.3,4S1740,459.6,1740.4,457.2z"/>
		<path class="st6" d="M1767.5,457.2c0.3-1.9,1.9-3,3.8-3s3.8,1.2,3.8,3.1c0,2.3-2.4,4-4.3,4S1767.1,459.6,1767.5,457.2z"/>
		<path class="st6" d="M1747.2,391.8c0,0-0.9,6.1,8.5,8s13.4-8,13.4-8H1747.2z"/>
		<path class="st6" d="M1775,368.6c0.1-11.3-5.7-34.2-17.2-48.1c-12.1-14.7-39.8-19.7-46.7-3.9c-6.9,15.8,12.3,61,12.3,61
			s4.1,11.7,8,14.3c9.6,6.4,55.6,4.9,62.9-2.1C1810,374.7,1787.4,365.6,1775,368.6z"/>
	</g>
	<g class="st5">
		<path class="st11" d="M2025.1,354.6c0,0,8.9,27.6-4.2,37.8s-35.3,7-35.3,7l7.4-37.5L2025.1,354.6z"/>
		<path class="st17" d="M1971,331.5c-3.8-1.2-8.5-5.5-8.5-5.5s11.7-20.3,28.3-20.9c2.3-0.1,10.4,0.8,12.6,1.4
			c24.8,6.5,21.7,57.9,21.7,59.2c-48.4-9.7-54.8-2-54.8-2C1969.5,349.2,1970.2,341.9,1971,331.5z"/>
		<path class="st18" d="M1989.5,319.3c0-0.4-0.5-0.7-0.9-0.7c-0.5,0.1-0.8,0.4-0.7,0.9c0,0.4,0.5,0.7,0.9,0.7
			C1989.2,320.1,1989.5,319.7,1989.5,319.3z"/>
		<path class="st18" d="M1986.4,342.1c0-0.4-0.4-0.7-0.9-0.7c-0.5,0-0.8,0.4-0.8,0.9c0,0.4,0.4,0.7,0.9,0.7
			C1986.1,343,1986.4,342.6,1986.4,342.1z"/>
		<path class="st18" d="M1987.5,333.3c0-0.4-0.5-0.7-0.9-0.7c-0.5,0.1-0.8,0.4-0.7,0.9c0,0.4,0.5,0.7,0.9,0.7
			S1987.5,333.8,1987.5,333.3z"/>
		<path class="st11" d="M1983.9,279.2c0,0-1.4-6.7,4.7-7.9c6.1-1.1,5.1,3.5,6.3,4.6c1.2,1.1-1.3,4.7-4.2,5.5
			C1987.8,282,1983.9,279.2,1983.9,279.2z"/>
		<path class="st7" d="M1999.8,306.9c-2.4,2.7-4.4,2.6-7.8,2.8c-5.9,0.3-3.5-4.5-3.5-4.5c1.3,0,2-0.7,2.1-1.9l0.1-1.6l0.1-0.8
			l0.2-2.5l0.2-2.2l0.8-9l2.4,9.2l0.4,1.6l1.4,5.4c0.5,1.7,2,2.1,3.7,2.6C1999.9,306,1999.8,306.9,1999.8,306.9z"/>
		<path class="st11" d="M1994.7,298c0,0-1.5,2.7-4,2.9l0.2-2.5C1992.5,298.2,1994.7,298,1994.7,298z"/>
		<path class="st11" d="M2002.4,287.3c0,0-0.6,1.4-0.2,4.6c0.6,4.6-4.9,5.7-6,4.2c-0.1-0.2,1.3-7.6,1.3-7.6l1.8-0.7L2002.4,287.3z"
			/>
		
			<ellipse transform="matrix(0.1678 -0.9858 0.9858 0.1678 1372.5677 2203.1714)" class="st7" cx="1991.3" cy="288.6" rx="10.5" ry="8.7"/>
		<path class="st11" d="M1989.1,280.1c0.2,0.4-2,5.5,7.9,8.3c9.9,2.8,5.7-10.1-1.7-11.5c-10.7-2-13.3,4.8-12.7,7.5
			C1983.2,287.1,1989.1,280.1,1989.1,280.1z"/>
		<path class="st11" d="M1996.2,286.5c0,0,3.4,4.9,1.3,9c0,0,2.8-2.2,3-3.1c0.2-0.9,0.1-4.5,0.1-4.5L1996.2,286.5z"/>
		<path class="st7" d="M1998.4,291.3c-1.1,0.8-2.5,0.6-3.1-0.3c-0.6-0.9-0.1-2.3,1-3c1.1-0.8,2.5-0.6,3.1,0.3
			C2000,289.2,1999.6,290.5,1998.4,291.3z"/>
		<g>
			<path class="st12" d="M1990.4,288.6c-0.1,0-0.1-0.1-0.1-0.1c0-0.1,0-0.2,0.1-0.2c0.1,0,1.5-0.5,2.4,0.9c0.1,0.1,0,0.2,0,0.3
				c-0.1,0.1-0.2,0-0.3,0c-0.8-0.7-2-0.8-2-0.8C1990.5,288.6,1990.5,288.6,1990.4,288.6z"/>
		</g>
		<path class="st12" d="M1991.6,290.9c-0.1,0.5-0.4,0.8-0.7,0.8c-0.3,0-0.6-0.4-0.5-0.9c0.1-0.5,0.4-0.8,0.7-0.8
			C1991.5,290,1991.7,290.4,1991.6,290.9z"/>
		<g>
			<path class="st12" d="M1983.3,288.5c-0.1,0-0.1,0-0.2-0.1c-0.1-0.1,0-0.2,0-0.3c0.1,0,1.2-1,2.6,0c0.1,0.1,0.1,0.2,0.1,0.3
				c-0.1,0.1-0.2,0.1-0.3,0.1c-1-0.4-2.1,0-2.2,0C1983.4,288.5,1983.4,288.5,1983.3,288.5z"/>
		</g>
		<path class="st12" d="M1985.3,290.2c0.1,0.4,0,0.9-0.4,1c-0.3,0.1-0.7-0.2-0.8-0.6c-0.1-0.4,0-0.9,0.4-1
			C1984.8,289.5,1985.2,289.8,1985.3,290.2z"/>
		<path class="st19" d="M1995.3,288.9c0.4,2.6-0.8,5.2-2.6,5.9c-1.8,0.7-3.6-0.8-4-3.4s0.8-5.2,2.6-5.9
			C1993.1,284.7,1994.9,286.3,1995.3,288.9z"/>
		<path class="st19" d="M1986.5,289.1c0.1,2.6-1.2,5.1-2.8,5.6c-1.6,0.6-3-1.1-3.1-3.6c-0.1-2.6,1.2-5.1,2.8-5.6
			C1985,284.9,1986.4,286.5,1986.5,289.1z"/>
		<g>
			<path class="st20" d="M1995.6,289.9c0-0.3,0-0.7,0-1c0-0.1,0-0.2,0-0.4c0-0.2-0.1-0.4-0.1-0.6c-0.3-1.3-1-2.4-2-2.9
				c-0.7-0.4-1.6-0.5-2.4-0.2c-0.2,0.1-0.3,0.1-0.5,0.2c-1.2,0.7-2.1,2.3-2.4,4.1c0,0.2,0,0.4-0.1,0.6c0,0.5,0,1,0.1,1.5
				c0.1,0.5,0.2,0.9,0.4,1.3c0.4,1,1,1.7,1.8,2.2c0.3,0.2,0.6,0.3,1,0.3c0.1,0,0.2,0,0.3,0c0.4,0,0.7,0,1.1-0.2
				c0.4-0.1,0.7-0.4,1.1-0.7c0.8-0.7,1.4-1.8,1.7-3.1c0-0.1,0.1-0.3,0.1-0.4C1995.5,290.4,1995.6,290.1,1995.6,289.9z M1989.6,293.6
				c-0.3-0.4-0.6-0.8-0.8-1.3c-0.2-0.4-0.3-0.8-0.3-1.2c-0.1-0.4-0.1-0.9-0.1-1.3c0-0.2,0-0.4,0.1-0.6c0.2-1.7,1.1-3.3,2.3-3.9
				c0.1-0.1,0.2-0.1,0.4-0.2c0.3-0.1,0.7-0.2,1-0.2c0.4,0,0.8,0.1,1.1,0.3c0.5,0.3,0.9,0.7,1.3,1.3c0.1,0.2,0.2,0.5,0.4,0.7
				c0,0,0,0,0,0c0,0,0,0,0,0c0.1,0.1,0.1,0.3,0.1,0.4c0.1,0.2,0.1,0.5,0.2,0.8c0,0.3,0.1,0.6,0.1,0.9c0,0.2,0,0.4,0,0.6
				c0,0.2,0,0.4-0.1,0.6l0,0c-0.2,1.3-0.7,2.5-1.5,3.2c-0.3,0.3-0.7,0.6-1.1,0.7c-0.4,0.2-0.8,0.2-1.3,0.1c-0.3,0-0.6-0.1-0.8-0.3
				C1990.2,294.2,1989.9,293.9,1989.6,293.6C1989.6,293.7,1989.6,293.6,1989.6,293.6z"/>
		</g>
		<g>
			<path class="st20" d="M1986.5,290.2c0-0.1,0-0.3,0-0.4c-0.1,0-0.1,0-0.1,0c0,0.7-0.1,1.5-0.3,2.1c0,0,0,0,0,0
				c0-0.1,0-0.1,0.1-0.2c0,0,0,0,0,0c0-0.1,0.1-0.2,0.1-0.3c0-0.1,0.1-0.3,0.1-0.4c0-0.1,0.1-0.3,0.1-0.4
				C1986.5,290.4,1986.5,290.3,1986.5,290.2z M1986.5,290.2c0-0.1,0-0.3,0-0.4c-0.1,0-0.1,0-0.1,0c0,0.7-0.1,1.5-0.3,2.1
				c0,0,0,0,0,0c0-0.1,0-0.1,0.1-0.2c0,0,0,0,0,0c0-0.1,0.1-0.2,0.1-0.3c0-0.1,0.1-0.3,0.1-0.4c0-0.1,0.1-0.3,0.1-0.4
				C1986.5,290.4,1986.5,290.3,1986.5,290.2z M1986.5,290.2c0-0.1,0-0.3,0-0.4c-0.1,0-0.1,0-0.1,0c0,0.7-0.1,1.5-0.3,2.1
				c0,0,0,0,0,0c0-0.1,0-0.1,0.1-0.2c0,0,0,0,0,0c0-0.1,0.1-0.2,0.1-0.3c0-0.1,0.1-0.3,0.1-0.4c0-0.1,0.1-0.3,0.1-0.4
				C1986.5,290.4,1986.5,290.3,1986.5,290.2z M1986.5,290.2c0-0.1,0-0.3,0-0.4c-0.1,0-0.1,0-0.1,0c0,0.7-0.1,1.5-0.3,2.1
				c0,0,0,0,0,0c0-0.1,0-0.1,0.1-0.2c0,0,0,0,0,0c0-0.1,0.1-0.2,0.1-0.3c0-0.1,0.1-0.3,0.1-0.4c0-0.1,0.1-0.3,0.1-0.4
				C1986.5,290.4,1986.5,290.3,1986.5,290.2z M1986.5,290.2c0-0.1,0-0.3,0-0.4c-0.1,0-0.1,0-0.1,0c0,0.7-0.1,1.5-0.3,2.1
				c0,0,0,0,0,0c0-0.1,0-0.1,0.1-0.2c0,0,0,0,0,0c0-0.1,0.1-0.2,0.1-0.3c0-0.1,0.1-0.3,0.1-0.4c0-0.1,0.1-0.3,0.1-0.4
				C1986.5,290.4,1986.5,290.3,1986.5,290.2z M1986.5,290.2c0-0.1,0-0.3,0-0.4c-0.1,0-0.1,0-0.1,0c0,0.7-0.1,1.5-0.3,2.1
				c0,0,0,0,0,0c0-0.1,0-0.1,0.1-0.2c0,0,0,0,0,0c0-0.1,0.1-0.2,0.1-0.3c0-0.1,0.1-0.3,0.1-0.4c0-0.1,0.1-0.3,0.1-0.4
				C1986.5,290.4,1986.5,290.3,1986.5,290.2z M1986.5,290.2c0-0.1,0-0.3,0-0.4c-0.1,0-0.1,0-0.1,0c0,0.7-0.1,1.5-0.3,2.1
				c0,0,0,0,0,0c0-0.1,0-0.1,0.1-0.2c0,0,0,0,0,0c0-0.1,0.1-0.2,0.1-0.3c0-0.1,0.1-0.3,0.1-0.4c0-0.1,0.1-0.3,0.1-0.4
				C1986.5,290.4,1986.5,290.3,1986.5,290.2z M1986.5,290.2c0-0.1,0-0.3,0-0.4c-0.1,0-0.1,0-0.1,0c0,0.7-0.1,1.5-0.3,2.1
				c0,0,0,0,0,0c0-0.1,0-0.1,0.1-0.2c0,0,0,0,0,0c0-0.1,0.1-0.2,0.1-0.3c0-0.1,0.1-0.3,0.1-0.4c0-0.1,0.1-0.3,0.1-0.4
				C1986.5,290.4,1986.5,290.3,1986.5,290.2z M1986.7,289.7c0-0.2,0-0.4,0-0.6c0-0.1,0-0.2,0-0.3c-0.2-1.7-0.9-3-2-3.6
				c-0.2-0.1-0.5-0.2-0.7-0.3c-0.2,0-0.4,0-0.6,0c-0.1,0-0.3,0.1-0.4,0.1l0,0c0,0-0.1,0-0.1,0c-1.7,0.7-2.9,3.4-2.5,6.1
				c0.2,1.7,0.9,3,2,3.6c0.3,0.2,0.5,0.2,0.8,0.3c0.3,0,0.7,0,1-0.1c0,0,0,0,0,0c0,0,0.1,0,0.1,0c0.6-0.2,1.2-0.8,1.6-1.4l0,0l0,0
				c0.4-0.7,0.7-1.5,0.9-2.5C1986.7,290.6,1986.7,290.1,1986.7,289.7z M1986.1,292c-0.2,0.6-0.5,1.2-0.8,1.7c-0.3,0.4-0.6,0.7-1,0.9
				c0,0,0,0,0,0c0,0,0,0,0,0c0,0,0,0,0,0c0,0-0.1,0-0.1,0.1c-0.1,0-0.1,0-0.2,0.1c-0.5,0.1-1,0.1-1.5-0.2c-0.9-0.5-1.6-1.8-1.8-3.3
				c0,0,0,0,0,0c0,0,0,0,0,0c0,0,0,0,0,0c0,0,0,0,0,0c-0.3-2.6,0.7-5.2,2.3-5.8c0.1,0,0.2-0.1,0.3-0.1c0.2,0,0.4-0.1,0.6,0
				c0.2,0,0.5,0.1,0.7,0.2c0,0,0,0,0.1,0c0.4,0.3,0.8,0.7,1.1,1.3c0.3,0.6,0.5,1.3,0.6,2.1c0,0.1,0,0.2,0,0.4c0,0.2,0,0.4,0,0.6
				C1986.4,290.5,1986.3,291.2,1986.1,292C1986.1,291.9,1986.1,292,1986.1,292z M1986.5,290.2c0-0.1,0-0.3,0-0.4c-0.1,0-0.1,0-0.1,0
				c0,0.7-0.1,1.5-0.3,2.1c0,0,0,0,0,0c0-0.1,0-0.1,0.1-0.2c0,0,0,0,0,0c0-0.1,0.1-0.2,0.1-0.3c0-0.1,0.1-0.3,0.1-0.4
				c0-0.1,0.1-0.3,0.1-0.4C1986.5,290.4,1986.5,290.3,1986.5,290.2z M1986.5,290.2c0-0.1,0-0.3,0-0.4c-0.1,0-0.1,0-0.1,0
				c0,0.7-0.1,1.5-0.3,2.1c0,0,0,0,0,0c0-0.1,0-0.1,0.1-0.2c0,0,0,0,0,0c0-0.1,0.1-0.2,0.1-0.3c0-0.1,0.1-0.3,0.1-0.4
				c0-0.1,0.1-0.3,0.1-0.4C1986.5,290.4,1986.5,290.3,1986.5,290.2z M1986.5,290.2c0-0.1,0-0.3,0-0.4c-0.1,0-0.1,0-0.1,0
				c0,0.7-0.1,1.5-0.3,2.1c0,0,0,0,0,0c0-0.1,0-0.1,0.1-0.2c0,0,0,0,0,0c0-0.1,0.1-0.2,0.1-0.3c0-0.1,0.1-0.3,0.1-0.4
				c0-0.1,0.1-0.3,0.1-0.4C1986.5,290.4,1986.5,290.3,1986.5,290.2z M1986.5,290.2c0-0.1,0-0.3,0-0.4c-0.1,0-0.1,0-0.1,0
				c0,0.7-0.1,1.5-0.3,2.1c0,0,0,0,0,0c0-0.1,0-0.1,0.1-0.2c0,0,0,0,0,0c0-0.1,0.1-0.2,0.1-0.3c0-0.1,0.1-0.3,0.1-0.4
				c0-0.1,0.1-0.3,0.1-0.4C1986.5,290.4,1986.5,290.3,1986.5,290.2z M1986.5,290.2c0-0.1,0-0.3,0-0.4c-0.1,0-0.1,0-0.1,0
				c0,0.7-0.1,1.5-0.3,2.1c0,0,0,0,0,0c0-0.1,0-0.1,0.1-0.2c0,0,0,0,0,0c0-0.1,0.1-0.2,0.1-0.3c0-0.1,0.1-0.3,0.1-0.4
				c0-0.1,0.1-0.3,0.1-0.4C1986.5,290.4,1986.5,290.3,1986.5,290.2z M1986.5,290.2c0-0.1,0-0.3,0-0.4c-0.1,0-0.1,0-0.1,0
				c0,0.7-0.1,1.5-0.3,2.1c0,0,0,0,0,0c0-0.1,0-0.1,0.1-0.2c0,0,0,0,0,0c0-0.1,0.1-0.2,0.1-0.3c0-0.1,0.1-0.3,0.1-0.4
				c0-0.1,0.1-0.3,0.1-0.4C1986.5,290.4,1986.5,290.3,1986.5,290.2z M1986.5,290.2c0-0.1,0-0.3,0-0.4c-0.1,0-0.1,0-0.1,0
				c0,0.7-0.1,1.5-0.3,2.1c0,0,0,0,0,0c0-0.1,0-0.1,0.1-0.2c0,0,0,0,0,0c0-0.1,0.1-0.2,0.1-0.3c0-0.1,0.1-0.3,0.1-0.4
				c0-0.1,0.1-0.3,0.1-0.4C1986.5,290.4,1986.5,290.3,1986.5,290.2z"/>
		</g>
		<g>
			<path class="st11" d="M1986.2,289.8c-0.1,0-0.2-0.1-0.2-0.2c-0.1-0.1,0-0.3,0.1-0.4c0,0,1.2-0.6,2.7,0c0.2,0.1,0.2,0.2,0.2,0.4
				c-0.1,0.2-0.2,0.2-0.4,0.2c-1.3-0.5-2.2,0-2.2,0C1986.3,289.8,1986.2,289.8,1986.2,289.8z"/>
		</g>
		<path class="st11" d="M1997.4,279.1c0,0,1.9-6.6,7.8-4.9c5.9,1.7,4.2,4.9,3.5,6.9c-0.5,1.5-3.3,3.6-6.3,3
			S1997.4,279.1,1997.4,279.1z"/>
		<g>
			<path class="st16" d="M1988,296.1c-0.6,0-1.2-0.2-1.7-0.7c0,0,0-0.1,0-0.1c0,0,0.1,0,0.1,0c1.1,1.2,3.5,0.1,3.6,0.1
				c0.1,0,0.1,0,0.1,0.1c0,0.1,0,0.1-0.1,0.1C1990,295.7,1989,296.1,1988,296.1z"/>
		</g>
		<path class="st18" d="M1988.5,305.2c0,0-1.8,4.7,3.5,4.4c0,0-2.6,2.9-4.6,2c-2-0.9-0.3-2-1.1-2.6c-0.9-0.6-1.9-1-1.1-1.9
			c0.2-0.3,0.1-0.9,0.1-1C1985,305.5,1987.2,304.7,1988.5,305.2z"/>
		<path class="st13" d="M1948.8,326.8c0,0,10.5,10.6,13.2,37.7c0,0.4,0.1,0.8,0.1,0.8s24-3.9,28.8-2.6c0,0,0-26.7-13.4-39.6
			L1948.8,326.8z"/>
		<g>
			<path class="st7" d="M1951.4,339.7c0,0-1.1-3.6,1.7-4.6c3.6-1.3,11.6,3.3,3.4,3.8c-0.2,0,4.7,0.5,4.6,2.1
				c-0.1,1.2-4.2,1.2-4.2,1.2s5,0.7,5.1,1.9c0.1,1.3-4.3,1.4-4.3,1.4s5,0,4,1.9c-0.5,1-5,1-6.7,1.1c-1.6,0.1-2.3-1.1-2.3-2.9
				c0,0-1-1.8-0.7-3c0.1-0.5-0.3-0.9-0.4-1.2C1951.4,340.9,1951.4,339.7,1951.4,339.7z"/>
		</g>
		<path class="st7" d="M1998,342.9c-1.4-1.1-4.8-2.6-6.2-3.7c-0.6-0.5-2.8-1.9-3.5-1.3c-0.5,0.5,0.6,2.4,1.3,3.2
			c-6.7-0.4-15.5,1.6-2.3,2.9c0,0,0,0,0,0c-1.2,0-9.6-0.5-9.3,1.3c0.2,1.3,7.2,1.5,9.1,1.6c0,0,0,0,0,0c-1.9,0.1-7.8,0-7.6,1.3
			c0.2,1.7,7.8,1.5,7.8,1.5s-6.3,0-5.3,1.7c0.6,0.9,4.3,0.8,6.6,0.7l0,0c0,0,0,0,0,0c0.5,0,0.9,0,1.2-0.1c0.3,0,0.5,0,0.7-0.1
			c3.9-0.4,6.3-1.2,6.3-1.2s3-0.5,3.3-3.6C2000.3,345.1,1998.6,343.3,1998,342.9z"/>
		<path class="st17" d="M2004.8,306.6c0,0,26.4,6.3,28.2,31.3c1.3,17.7-35,15.1-36.2,12.8c-1.2-2.3,1.1-9.2,2.4-9.7
			c1.3-0.5,13.2-5.6,13.2-5.6l-8.7-24.4L2004.8,306.6z"/>
		<g>
			<path class="st11" d="M2014.8,334.9c0,0-0.1,0-0.1-0.1c-2.7-4.2-4.2-9.9-4.2-9.9c0-0.1,0-0.1,0.1-0.2c0.1,0,0.1,0,0.2,0.1
				c0,0.1,1.5,5.7,4.2,9.9C2015,334.8,2014.9,334.9,2014.8,334.9C2014.9,334.9,2014.8,334.9,2014.8,334.9z"/>
		</g>
		<g>
			<path class="st11" d="M1998,343c-0.1,0-0.1,0-0.1-0.1c0,0-0.1-0.9,0.6-1.9c0.9-1.2,2.7-1.8,5.3-2c3.3-0.2,5.6-1.5,7.7-2.7
				c1.9-1.1,3.7-2.1,5.9-2.1c0,0,0,0,0,0c0.1,0,0.1,0.1,0.1,0.1c0,0.1-0.1,0.1-0.1,0.1c-2.2,0.1-3.9,1-5.8,2.1
				c-2.1,1.2-4.4,2.5-7.8,2.7c-2.5,0.2-4.3,0.8-5.1,1.9c-0.7,0.9-0.6,1.7-0.6,1.7C1998.1,342.9,1998.1,343,1998,343
				C1998,343,1998,343,1998,343z"/>
		</g>
		<g>
			<path class="st11" d="M2003.4,352.9c-0.9,0-1.7,0-2.2-0.1c-4.4-0.4-4.5-2-4.5-2.1c0-0.1,0.1-0.1,0.1-0.1c0,0,0,0,0,0
				c0.1,0,0.1,0.1,0.1,0.1c0,0,0.1,1.5,4.2,1.8c4.2,0.3,19.4-0.5,23.9-3.4c0.1,0,0.1,0,0.2,0c0,0.1,0,0.1,0,0.2
				C2021.3,351.9,2009.3,352.9,2003.4,352.9z"/>
		</g>
		<path class="st18" d="M1999.1,305.7c0,0,4.3-0.9,5.5-0.2c0.6,0.4,0.8,1.8-1,2.5c-1.8,0.8-2.2,0.8-2.7,2.2
			c-0.5,1.4-2.8,1.7-3.6,1.3c-0.9-0.4-2.1,1.5-3.4,1.6c-1.3,0.1-3.8-2-3.4-3.5C1990.5,309.5,1994,310.2,1999.1,305.7z"/>
	</g>
	<g class="st5">
		<g>
			<g>
				<path class="st21" d="M1816.5,434.2c-1.9-28.2-0.9-42.8-10.4-54.6c-6.1-7.5-15-14.7-25.7-18.6c-9.2-3.4-17-4.8-27.1-4.5
					c-16.5,0.5,0.7,31.3,1.2,31.3c8.7-0.2,31.3,1.4,37.2,9.9c1.4,2,2.9,16.3,9.5,42c0.7,2.9,18.7,7.9,23.1,7.1
					C1826.9,446.3,1816.6,436.1,1816.5,434.2z"/>
			</g>
		</g>
		<path class="st11" d="M1800.3,436.1c0,0,6.4,2.3,9.6,5.1s10.8-0.3,12,0s6.9,5.8,5.5,6.9c-1.3,1.1-14.9,1.7-17.5-0.5
			c-2.5-2.1-7.3-3.1-8.9-3.5C1799.3,443.8,1799.1,436.8,1800.3,436.1z"/>
		
			<rect x="1800.8" y="443.2" transform="matrix(-1 -1.224647e-16 1.224647e-16 -1 3606.5049 891.368)" class="st11" width="4.9" height="4.9"/>
		<g>
			<g>
				<path class="st7" d="M1808,438.7c-1.9-28.2-0.9-42.8-10.4-54.6c-6.1-7.5-15-14.7-25.7-18.6c-9.2-3.4-17-4.8-27.1-4.5
					c-16.5,0.5-24,3.6-24,3.6c-10.1,26.6,9.5,28.3,23.8,27.8c0.5,0,0.9,0,1.4,0c8.7-0.2,31.3,1.4,37.2,9.9c1.4,2,2.9,16.3,9.5,42
					c0.7,2.9,18.7,7.9,23.1,7.1C1818.4,450.8,1808.1,440.6,1808,438.7z"/>
			</g>
		</g>
		<path class="st14" d="M1791.8,440.6c0,0,6.4,2.3,9.6,5.1c3.2,2.8,10.8-0.3,12,0s6.9,5.8,5.5,6.9c-1.3,1.1-14.9,1.7-17.5-0.5
			c-2.5-2.1-7.3-3.1-8.9-3.5C1790.8,448.3,1790.6,441.2,1791.8,440.6z"/>
		
			<rect x="1792.2" y="448.1" transform="matrix(-1 -1.224647e-16 1.224647e-16 -1 3589.2368 901.1893)" class="st14" width="4.9" height="4.9"/>
		<path class="st11" d="M1770.1,342.9c0,0,3,16.2,9.9,20.2c6.9,4,27.9,11.5,36.3,24.7c0,0-12.2,15.5-20.4,16.5s-16-0.9-16-0.9
			s-3.5-7.6-13.2-7.2c-9.7,0.4-33-2.9-32.6-19.8S1770.1,342.9,1770.1,342.9z"/>
		<path class="st11" d="M1766.1,282.4c0,0-1.6,5.8,2.9,10.1c2.8,2.7-1.4,6.9-4.4,6c-3-0.9-2.6,4.6-7.6,1.2
			C1753.5,297.5,1766.1,282.4,1766.1,282.4z"/>
		<path class="st14" d="M1736.1,310c0,0,10.4-9.4,25.5-6c15.1,3.4,15.6,16.1,22.3,55.7c0,0-13.9-0.5-50.6,11.6
			c-4.3,1.4-10.7,0.3-8.5-7.1C1728.9,350.6,1729.1,321.4,1736.1,310z"/>
		<path class="st14" d="M1723,327l15.9,6.6c0,0,23.7-0.6,31.3,0c12.4,0.9,17.5-12.7,17.5-12.7s-9.1-16-32.9-17.9
			C1727.1,300.7,1723,327,1723,327z"/>
		<path class="st7" d="M1760.7,310.9c-5.6,2.2-14.3-2.6-16.3-7.4c3.8-0.9,7.3-1.9,7.8-3.5l1.6-5l0-0.1l0.4-1.3l0,0l2.7-8.4l0.2,8.5
			v0l0.1,5.1v0l0,1.4c0,1.2,1.2,2.9,5.7,4C1762.9,304.2,1765.2,309.1,1760.7,310.9z"/>
		<path class="st22" d="M1757.3,298.8L1757.3,298.8c-0.3-0.1-3-1.1-3.5-3.7c0,0,0-0.1,0-0.1c0,0,0,0,0,0c-0.1-0.6,0.1-1,0.4-1.3
			c0,0,0,0,0.1,0c0.7-0.4,2-0.2,2.9,0v0L1757.3,298.8z"/>
		
			<ellipse transform="matrix(0.9955 -9.480511e-02 9.480511e-02 0.9955 -19.2484 167.906)" class="st7" cx="1757.5" cy="286.5" rx="7.9" ry="9.8"/>
		<path class="st7" d="M1750.7,288.6c1,0.8,2.2,0.7,2.8-0.1c0.6-0.8,0.3-2.1-0.7-2.9c-1-0.8-2.2-0.7-2.8,0.1
			S1749.8,287.9,1750.7,288.6z"/>
		<g>
			<path class="st14" d="M1763.3,292.3c-1.8-0.2-3.1-2-2.9-4.1c0.1-1.1,0.6-2.2,1.4-2.8c0.6-0.5,1.4-0.8,2.2-0.7
				c1.8,0.2,3.1,2,2.9,4.1c-0.1,1.1-0.6,2.2-1.4,2.8c-0.5,0.4-1.1,0.7-1.7,0.7C1763.7,292.4,1763.5,292.4,1763.3,292.3z
				 M1761.9,285.5c-0.8,0.6-1.2,1.6-1.3,2.7c-0.2,2,1.1,3.8,2.7,3.9c0.7,0.1,1.4-0.2,2-0.7c0.8-0.6,1.2-1.6,1.3-2.7
				c0.2-2-1.1-3.8-2.7-3.9c-0.2,0-0.3,0-0.5,0C1762.9,284.9,1762.4,285.1,1761.9,285.5z"/>
		</g>
		<g>
			<path class="st14" d="M1755.6,292c-1.8-0.2-3.1-2-2.9-4.1l0,0c0.1-1.1,0.6-2.2,1.4-2.8c0.6-0.5,1.4-0.8,2.2-0.7
				c1.8,0.2,3.1,2,2.9,4.1c-0.1,1.1-0.6,2.2-1.4,2.8c-0.5,0.4-1.1,0.7-1.7,0.7C1755.9,292,1755.8,292,1755.6,292z M1754.2,285.2
				c-0.8,0.6-1.2,1.6-1.3,2.7l0,0c-0.2,2,1.1,3.8,2.7,3.9c0.7,0.1,1.4-0.2,2-0.7c0.8-0.6,1.2-1.6,1.3-2.7c0.2-2-1.1-3.8-2.7-3.9
				c-0.2,0-0.3,0-0.5,0C1755.2,284.5,1754.7,284.8,1754.2,285.2z"/>
		</g>
		<g>
			<path class="st14" d="M1761.4,288.5C1761.4,288.5,1761.5,288.5,1761.4,288.5c0.1-0.1,0.1-0.2,0-0.2c0,0-1.1-0.6-2.9-0.2
				c-0.1,0-0.1,0.1-0.1,0.1c0,0.1,0.1,0.1,0.1,0.1C1760.3,287.9,1761.3,288.5,1761.4,288.5C1761.4,288.5,1761.4,288.5,1761.4,288.5z
				"/>
		</g>
		<g>
			<path class="st12" d="M1757.6,286.8c0.1,0,0.1-0.1,0.1-0.1c0-0.1,0-0.2-0.1-0.2c-0.1,0-1.3-0.5-2.3,0.7c-0.1,0.1,0,0.2,0,0.3
				s0.2,0,0.3,0c0.8-0.6,1.8-0.6,1.9-0.6C1757.5,286.8,1757.6,286.8,1757.6,286.8z"/>
		</g>
		<path class="st12" d="M1756.4,288.9c0,0.4,0.3,0.8,0.6,0.7c0.3,0,0.5-0.4,0.5-0.8s-0.3-0.8-0.6-0.7
			C1756.6,288.1,1756.3,288.5,1756.4,288.9z"/>
		<g>
			<path class="st12" d="M1764.1,287.1c0.1,0,0.1,0,0.1-0.1c0.1-0.1,0.1-0.2,0-0.3c0,0-1-1-2.4-0.2c-0.1,0.1-0.1,0.2-0.1,0.2
				c0,0.1,0.2,0.1,0.2,0.1c1-0.3,1.9,0.1,2,0.2C1764,287.1,1764.1,287.1,1764.1,287.1z"/>
		</g>
		<path class="st12" d="M1762.2,288.6c-0.1,0.4,0,0.8,0.3,0.9c0.3,0.1,0.6-0.1,0.8-0.6s0-0.8-0.3-0.9
			C1762.7,288,1762.3,288.2,1762.2,288.6z"/>
		<path class="st11" d="M1759.6,278.6c0,0,0.3,3.2-3.6,4.3s-6.4,3.2-5.5,6c0.9,2.8,8.9,9.9,4.5,12.9c-4.4,3-4.7-3.5-9.7-1.8
			c-5,1.7-9-3.3-3.9-9.5c3.4-4.1,0-15.6,13.4-16.2c16.4-0.8,10.6,10.3,10.6,10.3S1760.1,282.2,1759.6,278.6z"/>
		<g>
			<path class="st13" d="M1754.2,302.3L1754.2,302.3c0.7-0.6,1.2-1.2,1.3-1.9c0.4-2.7-3.7-6.8-6.7-9.7c-0.6-0.6-1.1-1.1-1.6-1.6
				c-1.6-1.7-2.1-4-1.1-5.9c0.9-1.9,3-3.1,5.4-3.1c0.2,0,0.5,0,0.7,0c0.3,0,0.6,0,0.9,0c4.3,0,5.8-2.9,5.8-2.9l0.1,0
				c0,0-1.5,2.9-5.9,2.9c-0.3,0-0.6,0-1,0c-0.2,0-0.5,0-0.7,0c-2.4,0-4.4,1.1-5.3,3c-0.9,1.9-0.5,4,1.1,5.7c0.5,0.5,1,1,1.6,1.6
				c3,3,7.1,7.1,6.7,9.8C1755.5,301.2,1755,301.8,1754.2,302.3z"/>
		</g>
		<g>
			<path class="st11" d="M1759.6,293.1c-1.4,0-2.4-0.6-2.4-0.6c-0.1,0-0.1-0.1,0-0.2c0-0.1,0.1-0.1,0.2,0c0,0,2.1,1.3,4.4,0
				c0.1,0,0.1,0,0.2,0c0,0.1,0,0.1,0,0.2C1761,292.9,1760.3,293.1,1759.6,293.1z"/>
		</g>
		<path class="st13" d="M1821.7,314.9c0,0-11.6,13-12.7,44.3c0,0.4,0,0.9,0,0.9s-28.6-2.6-34.2-0.7c0,0-2-30.6,12.8-46.5
			L1821.7,314.9z"/>
		<g>
			<path class="st7" d="M1817.8,334.7c0,0,1.2-3.6-1.7-4.6c-3.7-1.3-12.1,3.4-3.5,3.9c0.2,0-4.9,0.6-4.8,2.1
				c0.1,1.2,4.4,1.3,4.4,1.3s-5.3,0.7-5.4,1.9c-0.1,1.3,4.4,1.4,4.4,1.4s-5.2,0-4.2,1.9c0.6,1.1,5.2,1.1,7,1.1
				c1.7,0.1,2.4-1.1,2.4-3c0,0,1-1.9,0.8-3.1c-0.1-0.5,0.3-0.9,0.4-1.2C1817.8,335.9,1817.8,334.7,1817.8,334.7z"/>
		</g>
	</g>
	<g class="st5">
		<path class="st7" d="M1930.2,374.3c-1,1.5-2.2,5-3.1,6.5c-0.4,0.7-1.6,3-1,3.5c0.5,0.4,2.4-1,3.1-1.8c0.3,5.2,3.1,12.6,3.2,1.7
			c0,0,0,0,0,0c0.1,1.1,0.6,7.3,2,6.6c1.2-0.6,1.1-5,0.9-6.8c0,0,0,0,0,0c0.3,1.8,1.1,6.3,2.1,5.3c1.2-1.2,1.2-6.1,1.2-6.1
			s0.2,6.2,1.8,5c0.9-0.7,0.4-4.2,0.1-6.4v0c0,0,0,0,0,0c-0.1-0.5-0.1-0.9-0.2-1.2c0-0.3-0.1-0.5-0.2-0.7c-0.8-3.6-1.9-5.8-1.9-5.8
			s-0.9-2.8-4.1-2.6C1932.2,371.7,1930.6,373.6,1930.2,374.3z"/>
		<g>
			<path class="st23" d="M1927.8,375c-11.6-7.6,0.9-31.1-4-47.4c-1.1-3.8-1.6-5.2-2.6-7.3c-0.8-1.7,1.3-5,4.2-6.3
				c2.7-1.3,9.2-0.4,9.7,0.4c7.8,13,10.3,34.3,6.4,61.6C1941.5,376.1,1932.7,378.3,1927.8,375z"/>
		</g>
		<path class="st11" d="M1877.5,374.7c0.1,2.1,13,3,28.9,2.5c16-0.5,28.7-2.7,28.7-4.8c-0.1-2.1-12.9-3.4-28.9-2.9
			C1890.3,369.9,1877.5,372.6,1877.5,374.7z"/>
		<path class="st23" d="M1881.4,314.3c0,0,2.8-11.2,23.7-11.3c30-0.2,27.3,27.4,30,69.4c0,0-29.6-4.2-57.6,1.8
			C1877.5,374.2,1874.9,331.3,1881.4,314.3z"/>
		<path class="st23" d="M1873.7,312.6l13.6,7.5c0,0,29.8,2.7,37.7,1.4c7.9-1.3,10.1-7.1,10.1-7.1s-8.4-8.7-22.7-11
			c-1.3-0.2-2.7-0.4-4.2-0.5c-2.4-0.2-4.9-0.1-7.2,0.1C1882.8,305.1,1873.7,312.6,1873.7,312.6z"/>
		<g>
			<path class="st23" d="M1871.1,374.2c1.3-13.8,11.4-49.9,12.6-51.9c1-1.6-0.8-5.1-3.5-6.7c-2.5-1.6-5.8-3.6-6.6-2.9
				c-10.7,9-19.9,42-17,60.3L1871.1,374.2z"/>
		</g>
		<path class="st7" d="M1898.3,303.4c2.2,2.7,6,2.3,9.1,0.9c2.4-1.1,2.1-1.1,1.8-1.4c-0.8-1-1.5-1.2-1.6-2.3l-0.1-1.5l0-0.2
			l-0.1-1.9l-0.1-3.3l-0.4-8.6l-2.7,8.7l-0.5,1.5l-1.6,5.1C1901.7,302,1898.3,303.4,1898.3,303.4z"/>
		<path class="st11" d="M1903.5,296.6c0,0,1.3,2.1,4,2.5l0-0.2l-0.1-1.9C1905.9,296.9,1903.5,296.6,1903.5,296.6z"/>
		<path class="st24" d="M1921.1,354.6c0,0-0.9,8-6.5,12.3c0,0-3.5-2.3-6.1-6.1c-1.2-1.8-2.3-3.9-2.6-6.2c-0.1-1.1-0.2-3-0.1-5.5
			c0.1-2,0.2-4.4,0.4-7.1c0.2-4.6,0.6-9.8,0.8-14.8c0.1-2.7,0.2-5.3,0.3-7.7c0.1-5,0-9-0.7-10.3l2.7-0.8c0,0,1.2,3,2.8,7.6
			c0.6,1.8,1.3,3.7,2,5.9c1.1,3.4,2.3,7.2,3.3,11c0.6,2.1,1.1,4.2,1.6,6.3c1,4.3,1.8,8.3,2,11.7
			C1921.1,352.1,1921.2,353.4,1921.1,354.6z"/>
		<path class="st11" d="M1856.7,372.9c-0.1,2,3.1,3.8,7.1,4c4,0.2,7.3-1.2,7.4-3.2c0.1-2-3.1-3.8-7.1-4
			C1860.1,369.5,1856.8,370.9,1856.7,372.9z"/>
		<g>
			<path class="st11" d="M1935.3,372.3l-0.3,0c0-0.3,2.4-29.9-6.1-48.2l0.3-0.1C1937.7,342.4,1935.3,372,1935.3,372.3z"/>
		</g>
		<g>
			<path class="st11" d="M1877.2,345.7l-0.3-0.1c2.3-9.3,7-16,7.1-16l0.3,0.2C1884.1,329.9,1879.4,336.5,1877.2,345.7z"/>
		</g>
		<path class="st20" d="M1910.1,279.6c0,0,1.2,1.8,1.6,4.5c0.4,2.7-4.3-2.6-4.3-2.6L1910.1,279.6z"/>
		
			<ellipse transform="matrix(0.8924 -0.4512 0.4512 0.8924 74.9462 890.7414)" class="st7" cx="1905.3" cy="288.2" rx="7.7" ry="9.3"/>
		<path class="st20" d="M1897.4,289.2l3.4-1.6c0.7-0.4,1.3-1,1.5-1.8c0.3-1.4,1-2.3,4.3-3.3c4.2-1.3,6.1-4.8,5.8-7.1
			c-0.3-2.4-3-3.1-4.7-1.4c-1.7,1.8-1.7-1.1-3.8-0.7c-3.9,0.8-3.6,3.9-6.7,4.9c-4.1,1.3-10.2,6.9-4.3,12.8L1897.4,289.2z"/>
		<g>
			<path class="st12" d="M1906.1,287.2c0,0,0-0.1,0-0.1c0-0.1-0.1-0.1-0.2-0.1c0,0-1.2,0.2-1.4,1.6c0,0.1,0.1,0.2,0.1,0.2
				c0.1,0,0.1-0.1,0.2-0.1C1905.1,287.7,1905.9,287.3,1906.1,287.2C1906,287.2,1906,287.2,1906.1,287.2z"/>
		</g>
		<path class="st12" d="M1906.1,289.3c0.2,0.3,0.6,0.4,0.8,0.3s0.2-0.5,0-0.8c-0.2-0.3-0.6-0.4-0.8-0.3S1905.9,289,1906.1,289.3z"/>
		<g>
			<path class="st12" d="M1910.9,284.6c0,0,0-0.1,0-0.1c0-0.1-0.1-0.2-0.1-0.2c0,0-1.1-0.2-1.3,0.9c0,0.1,0,0.2,0.1,0.2
				c0.1,0,0.1,0,0.2-0.1C1910.1,284.8,1910.8,284.6,1910.9,284.6C1910.9,284.7,1910.9,284.6,1910.9,284.6z"/>
		</g>
		<path class="st12" d="M1910.4,286.7c0.1,0.4,0.4,0.6,0.7,0.5c0.3-0.1,0.4-0.4,0.2-0.8s-0.4-0.6-0.7-0.5
			C1910.4,286,1910.3,286.4,1910.4,286.7z"/>
		<path class="st20" d="M1892.8,291.1c0,0,4.3,4.4,7.9,3.6c0,0-4.2-3,0.8-7.5C1901.5,287.2,1895.8,288.2,1892.8,291.1z"/>
		<path class="st7" d="M1898.7,292.3c0.9,0.2,1.8-0.3,2-1.1c0.2-0.8-0.4-1.6-1.3-1.8s-1.8,0.3-2,1.1
			C1897.2,291.3,1897.8,292.1,1898.7,292.3z"/>
		<g>
			<path class="st20" d="M1911.2,275c-1,0-1.2-0.9-1.2-0.9c0-0.1,0-0.2,0.1-0.2c0.1,0,0.2,0,0.2,0.1l0,0c0,0.1,0.2,0.7,1.2,0.6
				c0.1,0,0.2,0,0.2,0.1c0,0.1,0,0.2-0.1,0.2C1911.4,275,1911.3,275,1911.2,275z"/>
		</g>
		<g>
			<path class="st13" d="M1907.4,280.9L1907.4,280.9c0-0.1,4-3,3.3-5.3c-0.2-0.7-0.4-1.1-0.8-1.2c-0.6-0.2-1.3,0.2-2,0.7
				c-0.1,0.1-0.2,0.1-0.3,0.2l-0.1-0.1c0.1-0.1,0.2-0.1,0.3-0.2c0.7-0.4,1.4-0.9,2-0.7c0.4,0.2,0.7,0.6,0.9,1.3
				C1911.4,278,1907.5,280.8,1907.4,280.9z"/>
		</g>
		<g>
			<path class="st13" d="M1895.7,279.7l0-0.1c4.5-0.9,5.8-4.1,5.8-4.1l0.1,0C1901.5,275.6,1900.2,278.8,1895.7,279.7z"/>
		</g>
		<path class="st25" d="M1907.3,319.4c0.1-5,0-9-0.7-10.3l2.7-0.8c0,0,1.2,3,2.8,7.6C1910.5,317,1908.7,318.3,1907.3,319.4z"/>
		<path class="st25" d="M1917.4,332.7c-3.8,3-9.2,7.2-11.3,9.3c0.2-4.6,0.6-9.8,0.8-14.8l7.1-5.4
			C1915.2,325.1,1916.3,328.9,1917.4,332.7z"/>
		<path class="st25" d="M1921,350.7c-3.4,2.7-8.9,7-12.5,10.1c-1.2-1.8-2.3-3.9-2.6-6.2c-0.1-1.1-0.2-3-0.1-5.5L1919,339
			C1920,343.2,1920.8,347.3,1921,350.7z"/>
		<path class="st24" d="M1905.1,304.8c0,0,3.7-1.1,4.6-0.3s0.3,4.9-1.4,5.3C1906.6,310.2,1903.5,305.8,1905.1,304.8z"/>
		<path class="st26" d="M1907.3,303.9c0,0-4.8-1.7-5.7-3.4c-0.9-1.7-5.9,2.2-5.8,3.4c0.1,1.2,9,7.6,9.6,6.8
			C1905.9,309.9,1908.4,305,1907.3,303.9z"/>
		<path class="st26" d="M1907.3,303.9c0,0,0.7-1.8,0.4-2.7c0,0-0.2-0.8,0.5-0.8c0.7,0.1,4.7,2.8,5,3.7c0.3,0.8,0.4,4.8-0.9,5.1
			c-1.3,0.3-4.4-4-4.7-4.4C1907.2,304.3,1907.3,303.9,1907.3,303.9z"/>
		<g>
			<path class="st11" d="M1908.3,309.9c-1.1,0-2-0.9-2-1l0.1-0.1c0,0,0.9,0.9,1.9,0.9c0,0,0,0,0,0c1,0,1.6-2.1,1.6-2.2l0.2,0
				C1910,307.7,1909.4,309.9,1908.3,309.9C1908.3,309.9,1908.3,309.9,1908.3,309.9z"/>
		</g>
		<g>
			<path class="st11" d="M1908.8,292.7c-0.4,0-0.9-0.1-1.5-0.3c-0.1,0-0.1-0.1-0.1-0.2c0-0.1,0.1-0.1,0.2-0.1c2.6,1,3.5-1,3.6-1
				c0-0.1,0.1-0.1,0.2-0.1c0.1,0,0.1,0.1,0.1,0.2C1911.3,291.2,1910.6,292.7,1908.8,292.7z"/>
		</g>
		<path class="st7" d="M1870.8,379.9c-0.4-0.9-0.9-2.3-1.4-3.6c-0.4-1.1-1.2-3.3-1.5-4c-0.7-1.7-5.1-1.9-6.7-0.9
			c-1.5,0.9-2,3.4-3.1,6.8c-0.1,0.2-0.2,0.4-0.2,0.6c-0.4,1.6-1.2,3.9-0.2,4.8c1.1,1,1.8-0.7,2.1-1.6c-0.2,0.8-0.4,2.4,0.4,3.3
			c0.9,0.9,1.8-1.6,2.2-2.9c0,0,0,0,0,0c-0.3,1.2-0.7,3.5,0.4,4.1c1.3,0.7,2.2-2.8,2.5-3.6c0,0,0.1,0,0.1,0c0.7,5,2.7,2.5,3.2-1.4
			c0.7,0.8,2.4,2.2,2.9,1.9C1872.2,382.9,1871.2,380.5,1870.8,379.9z"/>
		<g>
			<path class="st11" d="M1927,452.5c0,0-0.1,4.1,2.6,5.4s10.7,2.8,7.5,5.2c-1.8,1.4-9.8,0-12.1-0.1c-2.3-0.1-4.5,0.8-6.1-0.9
				c-1.8-1.8,0.5-10.1,0.5-10.1s1.9,1.1,3.7,1.2C1925.7,453.3,1927,452.5,1927,452.5z"/>
		</g>
		<g>
			<path class="st11" d="M1951.5,451.9c0,0-0.1,4.1,2.6,5.4c2.7,1.3,10.7,2.6,7.6,5.1c-1.8,1.4-9.8,0.1-12.1,0
				c-2.3-0.1-4.5,0.8-6.1-0.8c-1.8-1.8,0.4-10.1,0.4-10.1s1.9,1.1,3.7,1.1C1950.2,452.8,1951.5,451.9,1951.5,451.9z"/>
		</g>
		<g>
			<g>
				<path class="st9" d="M1949.4,455.1c4.8-0.2,8.5-4.1,8.5-8.8c0.1-26.9-1.4-40.5-9.6-52.3c-5.3-7.6-13.3-15-23.1-19.5
					c-8.5-3.8-15.8-5.7-25.4-6.2c-15.7-0.7-23,1.7-23,1.7c-11.4,24.6,7,27.6,20.6,28.1c0.4,0,0.9,0,1.4,0.1
					c8.2,0.4,22.9,2.3,28.6,10.4c4.5,6.4,7.6,15.5,9.2,38.9c0.3,4.5,4.1,7.9,8.6,7.8L1949.4,455.1z"/>
			</g>
		</g>
		<g>
			<g>
				<path class="st9" d="M1926.8,456.8c4.8-0.2,8.5-4.1,8.5-8.8c0.1-26.9-1.4-40.5-9.6-52.3c-5.3-7.6-13.1-13.3-23.4-16.9
					c-7.3-2.6-8.1-14.1-17.7-14.5c-15.7-0.7-19.8,0.9-19.8,0.9c-12.3,31.4,23.3,30.7,35.5,43.9c5.3,5.7,12,16.7,13.6,40.1
					c0.3,4.5,4.1,7.9,8.6,7.8L1926.8,456.8z"/>
			</g>
		</g>
	</g>
	<g class="st5">
		<g>
			<g>
				<ellipse class="st17" cx="1950.7" cy="376.1" rx="297" ry="14.7"/>
			</g>
			<g>
				<rect x="1653.7" y="369.3" class="st17" width="594.1" height="6.8"/>
			</g>
			<g>
				<ellipse class="st4" cx="1950.7" cy="369.3" rx="297" ry="14.7"/>
			</g>
		</g>
	</g>
	<g class="st5">
		<g>
			<path class="st7" d="M1712.6,314.8l2.5-6.6l0.7-1.9l4.3-11.2l-0.3,11.4l-0.2,6.9l0,2.2c0,1.5,0.8,1.8,1.9,3.2
				c0.4,0.5,3,3.9-0.3,5.1c-4.1,1.5-11.4-1.6-14.1-5.3C1707.2,318.5,1711.8,316.9,1712.6,314.8z"/>
		</g>
		<g>
			
				<ellipse transform="matrix(0.9977 -6.757487e-02 6.757487e-02 0.9977 -16.2939 116.8647)" class="st7" cx="1719.3" cy="299.3" rx="10.2" ry="12.3"/>
		</g>
		<g>
			<path class="st20" d="M1725.3,295.4c5.8,0.6,8.9-2.6,9.1-5.7c0.3-4-2-7.7-5-6.4c-3,1.3-1.5-2.3-4.3-2.8
				c-5.2-1.1-6.4,2.6-10.8,2.5c-5.7-0.1-12.8,8.9-8.4,16.1C1705.9,299.1,1720.7,294.9,1725.3,295.4z"/>
		</g>
		<g>
			<path class="st20" d="M1730.7,291.7c0,0-6.6,5.6-6,9c0.6,3.4,0.3,4.7-3.4,6.3c-3.8,1.6-0.7,4.7-5.6,4.6
				c-4.9-0.1-10.4-6.2-9.8-15.6c0.3-5.3,3.6-8.5,3.6-8.5L1730.7,291.7z"/>
		</g>
		<g>
			<ellipse transform="matrix(0.852 -0.5236 0.5236 0.852 97.5254 948.5078)" class="st7" cx="1726.2" cy="301.8" rx="2" ry="2.2"/>
		</g>
		<g>
			<path class="st11" d="M1726.5,304L1726.5,304c0,0-1.5,0.4-2.3-1.6c0,0,0-0.1,0-0.1c0,0,0.1,0,0.1,0c0.8,1.8,2.1,1.5,2.1,1.5
				C1726.5,303.9,1726.6,303.9,1726.5,304C1726.6,304,1726.6,304,1726.5,304z"/>
		</g>
		<g>
			<path class="st11" d="M1758.7,466.5c0,0,0.2,4.3,3.1,5.4c2.9,1.2,11.4,2.1,8.3,4.9c-1.8,1.6-10.3,0.8-12.7,0.8
				c-2.4,0-4.6,1.1-6.5-0.4c-2-1.7-0.2-10.6-0.2-10.6s2.1,1,4,1C1757.4,467.5,1758.7,466.5,1758.7,466.5z"/>
		</g>
		<g>
			<path class="st11" d="M1784.4,470.9c0,0,0.2,4.3,3.2,5.4c2.9,1.1,11.4,1.9,8.3,4.8c-1.8,1.6-10.3,0.9-12.7,1
				c-2.4,0.1-4.6,1.2-6.5-0.4c-2-1.7-0.3-10.6-0.3-10.6s2.1,1,4,0.9C1783,471.9,1784.4,470.9,1784.4,470.9z"/>
		</g>
		<g>
			<g>
				<path class="st14" d="M1782.4,474.4c5-0.6,8.6-4.9,8.3-9.9c-1.9-28.2-4.6-42.3-14.1-54.1c-6.1-7.5-15-14.7-25.7-18.6
					c-9.2-3.4-17-4.8-27.1-4.5c-16.5,0.5-24,3.6-24,3.6c-10.1,26.6,9.5,28.3,23.8,27.8c0.5,0,0.9,0,1.4,0c8.7-0.2,24.2,0.7,30.7,8.7
					c5.2,6.4,9.2,15.6,12.6,40.1c0.7,4.7,4.9,8,9.6,7.5L1782.4,474.4z"/>
			</g>
		</g>
		<g>
			<g>
				<path class="st14" d="M1757.5,469.5c5-0.6,8.7-4.6,8.4-9.2c-1.6-25.6-4-38.5-13.3-49.1c-6-6.8-14.6-11.5-25.5-14.1
					c-7.8-1.8-16.9-2.6-26.9-2.2c-16.4,0.6-11.4-7.6-11.4-7.6c-11,43.2,24.6,27.3,38.2,38.9c5.9,5,13.6,14.9,16.7,37.2
					c0.6,4.3,4.8,7.2,9.5,6.7L1757.5,469.5z"/>
			</g>
		</g>
		<g>
			<path class="st16" d="M1765.4,451.8c0-0.1-1.3-6.4-6.6-13c-4.9-6.1-14.3-13.7-31.5-15.3l0-0.2c7.6,0.7,14.3,2.6,20,5.7
				c4.6,2.5,8.5,5.7,11.6,9.7c5.3,6.7,6.6,13,6.6,13.1L1765.4,451.8z"/>
		</g>
		<path class="st23" d="M1759.5,347.7c-9-3.4-21.1-32.1-43.2-32.1c-50.8,0-34.4,80.8-34.4,80.8c35.9,38.2,63.4-7.5,63.4-7.5
			c0.3-3.7-1.1-13.5-1.4-17.9c7.6,7.6,57.1,6.2,61.5-5.8C1811.5,348.1,1783.6,356.8,1759.5,347.7z"/>
		<g>
			<polygon class="st11" points="1714.3,475.8 1710.6,477 1710.8,402.3 1713.6,404.2 			"/>
		</g>
		<g>
			<path class="st11" d="M1729.2,479.4c0,0-25.4,0.5-33.9,0.5c-0.9,0-1.6-1.3-1.6-2.2l0,0c0-0.9,1.4-2,2.3-2
				c8.3,0,33.2,0.3,33.2,0.3c0.9,0,1.7,0.8,1.7,1.7l0,0C1730.9,478.6,1730.1,479.4,1729.2,479.4z"/>
		</g>
		<g>
			<path class="st11" d="M1694.9,482.4c0.3-1.9,1.9-3,3.8-3s3.8,1.2,3.8,3.1c0,2.3-2.4,4-4.3,4S1694.5,484.8,1694.9,482.4z"/>
		</g>
		<g>
			<path class="st11" d="M1722,482.4c0.3-1.9,1.9-3,3.8-3s3.8,1.2,3.8,3.1c0,2.3-2.4,4-4.3,4S1721.6,484.8,1722,482.4z"/>
		</g>
		<g>
			<path class="st11" d="M1701.7,426.2c0,0-0.9,6.1,8.5,8c9.4,2,13.4-8,13.4-8H1701.7z"/>
		</g>
		<g>
			<path class="st27" d="M1729.5,402.9c0.1-11.3-5.7-34.2-17.2-48.1c-12.1-14.7-39.8-19.7-46.7-3.9c-6.9,15.8,12.3,61,12.3,61
				s4.1,11.7,8,14.3c9.6,6.4,55.6,4.9,62.9-2.1C1764.5,409.1,1741.9,399.9,1729.5,402.9z"/>
		</g>
		<g>
			<path class="st28" d="M1743.8,371.3c-0.1,0-0.1,0-0.2-0.1c-6.9-5-16.5-15.7-16.5-15.8c-0.1-0.1-0.1-0.3,0-0.4
				c0.1-0.1,0.3-0.1,0.4,0c0.1,0.1,9.6,10.7,16.5,15.7c0.1,0.1,0.2,0.3,0.1,0.4C1744,371.3,1743.9,371.3,1743.8,371.3z"/>
		</g>
		<g>
			<path class="st28" d="M1750.7,354.9c0,0-0.1,0-0.1,0c-0.1-0.1-0.2-0.2-0.2-0.4c0-0.1,2.8-6.7,9-7.1c0.1,0,0.3,0.1,0.3,0.3
				c0,0.2-0.1,0.3-0.3,0.3c-5.8,0.4-8.5,6.7-8.5,6.8C1750.9,354.8,1750.8,354.9,1750.7,354.9z"/>
		</g>
	</g>
	<g class="st5">
		<path class="st7" d="M1943.5,435.4c0,0,7.7,42.5,12.2,42.4c4.5,0,7.8-1.1,8.9-4.5c1.1-3.5-2-41.7-2-41.7L1943.5,435.4z"/>
		<path class="st7" d="M1982.3,432.2c0,0,9.4,42.1,5.3,43.8s-7.4,3.3-9.8,0.5c-2.4-2.8-13.7-40.7-13.7-40.7L1982.3,432.2z"/>
		<path class="st7" d="M1965.1,322.5l1.5-6.5l0.4-1.9l2.6-11.2l1.3,10.8l0.8,6.5l0.2,2.1c0.2,1.4,1,1.6,2.2,2.8
			c0.5,0.5,3.4,3.3,0.4,4.8c-3.7,2-11.1-0.1-14.1-3.2C1960.5,326.7,1964.6,324.6,1965.1,322.5z"/>
		
			<ellipse transform="matrix(0.9767 -0.2147 0.2147 0.9767 -19.9942 429.9274)" class="st7" cx="1969.5" cy="307" rx="9.8" ry="11.7"/>
		<path class="st20" d="M1974.7,291.7c0,0,4.6,1.6,5.3,6s-7.1,7.3-8,12.3c-0.9,5-3.3,11-8.8,7.3s-9.7-8.8-7.2-16.5
			S1964.5,286.5,1974.7,291.7z"/>
		<g>
			<path class="st7" d="M1974.7,307.9c-0.8-0.9-2-1.1-2.8-0.4c-0.8,0.7-0.9,1.9-0.1,2.8c0.8,0.9,2,1.1,2.8,0.4
				C1975.4,310,1975.4,308.8,1974.7,307.9z"/>
			<g>
				<path class="st11" d="M1973.3,311.2c-0.5,0-1.2-0.2-1.9-1.3c0,0,0-0.1,0-0.1c0,0,0.1,0,0.1,0c1,1.6,2.2,1.2,2.2,1.1
					c0,0,0.1,0,0.1,0c0,0,0,0.1,0,0.1C1973.8,311.1,1973.6,311.2,1973.3,311.2z"/>
			</g>
		</g>
		<ellipse class="st11" cx="1964.9" cy="367.2" rx="27.1" ry="42.9"/>
		<path class="st14" d="M1937.9,406.3c-10.3,11.2,4.7,31.3,4.7,31.3s36.4,4,49.1,0l-6.1-31.6C1985.5,406,1947.8,395.6,1937.9,406.3z
			"/>
		<g>
			<path class="st11" d="M1951.7,470.5c0,0,0,9.8,7.8,8.3c7.8-1.5,5.4-9.7,5.4-9.7S1959.6,464.2,1951.7,470.5z"/>
			<polygon class="st11" points="1955.7,477.8 1957.6,481.7 1962.1,481 1962.5,476.9 			"/>
		</g>
		<g>
			<path class="st11" d="M1975.3,471.2c0,0,1.1,9.7,8.7,7.3s4.2-10.2,4.2-10.2S1982.5,464,1975.3,471.2z"/>
			<polygon class="st11" points="1980.2,478 1982.5,481.5 1986.9,480.4 1986.9,476.2 			"/>
		</g>
		<path class="st11" d="M1967.6,324.6c0,0,18.1,3.3,24.7,9.7s21.8,36.6,17.2,40.9c-4.7,4.3-23.9-0.6-23.9-0.6L1967.6,324.6z"/>
		<path class="st20" d="M1961.5,307.8c0,0-9.4,5.2-7.2,12.2c2.3,7.1-10.9,5.5-11.5,15.3c-0.4,6.6,3.3,10.2,10.7,8.6
			c7.4-1.5,4.2,9.4,12.2,4.4c8-5,6.8-1.8,15.2-1.1c8.3,0.8,12-8.6,4.7-15.2c-5.9-5.3-2.1-8.9-6.1-10.2c-5.9-2-5.7-10.7-12.4-11.9
			C1963.5,309.3,1961.5,307.8,1961.5,307.8z"/>
	</g>
	<g class="st5">
		<g>
			<g>
				<path class="st7" d="M2161.3,361.9c0,0-11.6-1.1-14.7,1.3c-3.1,2.5-5.3,8-3,6.9s4.7-3.3,4.7-3.3s-5.1,5-3.4,5.7
					c1.6,0.7,6-3.7,6-3.7s-5.6,6.5-3.8,6.6s6-4.8,6-4.8s-5,6.2-2.9,6.4c2.1,0.1,4.1-5.2,5.7-4.5s6.3,4.7,8.8,0.2L2161.3,361.9z"/>
			</g>
			<g>
				<path class="st8" d="M2148.4,366.9l-0.2-0.2c0.1-0.1,1.3-1.7,2.6-1.6l0,0.3C2149.6,365.3,2148.4,366.9,2148.4,366.9z"/>
			</g>
			<g>
				<path class="st8" d="M2151,368.9l-0.2-0.2c0.1-0.1,1.2-1.7,3-1.9l0,0.3c-0.1,0-0.2,0-0.3,0C2152.1,367.5,2151,368.9,2151,368.9z
					"/>
			</g>
			<g>
				<path class="st8" d="M2153.2,370.8l-0.2-0.2c0.1-0.1,1.5-2,2.9-1.8l0,0.3C2154.6,368.9,2153.2,370.7,2153.2,370.8z"/>
			</g>
		</g>
		<g>
			<g>
				<path class="st21" d="M2174.8,460.9c1.9-28.2,0.9-42.8,10.4-54.6c6.1-7.5,15-14.7,25.7-18.6c9.2-3.4,17-4.8,27.1-4.5
					c16.5,0.5-0.7,31.3-1.2,31.3c-8.7-0.2-31.3,1.4-37.2,9.9c-1.4,2-2.9,16.3-9.5,42c-0.7,2.9-18.7,7.9-23.1,7.1
					C2164.4,473,2174.7,462.8,2174.8,460.9z"/>
			</g>
		</g>
		<path class="st11" d="M2191,462.8c0,0-6.4,2.3-9.6,5.1c-3.2,2.8-10.8-0.3-12,0c-1.2,0.3-6.9,5.8-5.5,6.9
			c1.3,1.1,14.9,1.7,17.5-0.5c2.5-2.1,7.3-3.1,8.9-3.5C2192,470.5,2192.2,463.5,2191,462.8z"/>
		<rect x="2185.6" y="469.9" class="st11" width="4.9" height="4.9"/>
		<g>
			<g>
				<path class="st7" d="M2158.4,465.4c1.9-28.2,0.9-42.8,10.4-54.6c6.1-7.5,15-14.7,25.7-18.6c9.2-3.4,17-4.8,27.1-4.5
					c16.5,0.5,24,3.6,24,3.6c10.1,26.6-9.5,28.3-23.8,27.8c-0.5,0-0.9,0-1.4,0c-8.7-0.2-31.3,1.4-37.2,9.9c-1.4,2-2.9,16.3-9.5,42
					c-0.7,2.9-18.7,7.9-23.1,7.1C2148,477.5,2158.3,467.3,2158.4,465.4z"/>
			</g>
		</g>
		<path class="st14" d="M2174.6,467.3c0,0-6.4,2.3-9.6,5.1c-3.2,2.8-10.8-0.3-12,0s-6.9,5.8-5.5,6.9c1.3,1.1,14.9,1.7,17.5-0.5
			c2.5-2.1,7.3-3.1,8.9-3.5C2175.6,475,2175.8,468,2174.6,467.3z"/>
		<rect x="2169.2" y="474.4" class="st14" width="4.9" height="4.9"/>
		<path class="st11" d="M2211.3,368c0,0-3,16.2-9.9,20.2s-27.9,11.5-36.3,24.7c0,0,12.2,15.5,20.4,16.5c8.2,1,16-0.9,16-0.9
			s3.5-7.6,13.2-7.2c9.7,0.4,33-2.9,32.6-19.8C2247,384.5,2211.3,368,2211.3,368z"/>
		<path class="st7" d="M2232.1,319.8l-1.5-6.5l-0.4-1.9l-2.6-11.2l-1.3,10.8l-0.8,6.5l-0.2,2.1c-0.2,1.4-1,1.6-2.2,2.8
			c-0.5,0.5-3.4,3.3-0.4,4.8c3.7,2,11.1-0.1,14.1-3.2C2236.8,324,2232.6,322,2232.1,319.8z"/>
		
			<ellipse transform="matrix(0.2147 -0.9767 0.9767 0.2147 1452.2743 2414.8401)" class="st7" cx="2227.8" cy="304.4" rx="11.7" ry="9.8"/>
		<path class="st11" d="M2222.6,289c0,0-4.6,1.6-5.3,6c-0.7,4.4,7.1,7.3,8,12.3c0.9,5,3.3,11,8.8,7.3c5.5-3.7,9.7-8.8,7.2-16.5
			C2238.8,290.4,2232.7,283.8,2222.6,289z"/>
		<path class="st23" d="M2205.2,382.9c-3.9,11,11.7,11.3,26.7,11.3c15,0,27.5-6,27.5-29.6c0-23.7-12.1-42.9-27.1-42.9
			c-9.8,0-20.4,13-25,30.7C2204.8,361.8,2208.2,374.5,2205.2,382.9z"/>
		<path class="st21" d="M2188,431c0,0,3.6-4.3,7.2-5.6c0,0-2,3.7-2.1,6.2C2193,434.1,2188,431,2188,431z"/>
		<path class="st23" d="M2229.6,321.9c0,0-12.4,0.2-19.1,8.6c-3.6,4.5-13.1,22.7-19.8,25.5c-7.7,3.3-31,5.4-31,5.4s-0.7,2.8,0.3,6.6
			c1.4,5.5,5.6,7.1,5.6,7.1s32.5,2.5,40.6-2c3.2-0.6,16.3-13.5,16.3-13.5L2229.6,321.9z"/>
		<path class="st11" d="M2253.5,322.4c-0.5-1.4-2-2.6-1.4-3.9c0.1-0.3,0.4-0.5,0.4-0.8c0.2-0.9-1.1-1.4-1.4-2.2
			c-0.3-0.8,0.2-1.6,0-2.4c-0.2-1.1-1.5-1.7-1.6-2.7c-0.1-0.8,0.7-1.6,0.6-2.4c-0.1-1.1-1.5-1.7-1.9-2.7c-0.4-0.9,0.1-1.9,0-2.9
			c-0.1-1.9-2.1-3-3.1-4.6c-0.6-0.9-0.8-2-1.2-3c-1.5-4.1-5.1-7.3-9.3-8.4c-4.2-1.1-8.9,0.1-12.2,2.9l-0.1,2.6
			c0.3,2.1-0.1,4.4,0.6,6.4c0.3,0.8,0.7,1.6,1.1,2.5c0.5,1.3,0.7,2.8,0.9,4.2c0.5,3.7,1,7.6-0.6,11c-1.4,2.9-4.1,4.9-5.7,7.7
			c-0.3,0.6-0.5,1.6,0.2,1.8c0.3,0.1,0.7-0.1,1-0.1c0.6,0.1,0.8,0.9,1.2,1.4c0.7,0.9,2.1,0.7,3.1,0.3c1-0.5,2-1.1,3.1-1.1
			c1.3,0,2.5,1,3.7,0.6c0.5-0.2,0.9-0.6,1.5-0.7c1.5-0.5,2.9,1.2,4.5,1.1c1.2-0.1,2-1.2,3.2-1.3c1.9-0.3,3.7,1.9,5.4,1.2
			c0.7-0.3,1.1-0.9,1.7-1.2c1.2-0.6,2.7,0.3,4,0.2C2252.8,325.6,2253.9,323.8,2253.5,322.4z"/>
		<g>
			<path class="st7" d="M2222.6,305.2c0.8-0.9,2-1.1,2.8-0.4c0.8,0.7,0.9,1.9,0.1,2.8c-0.8,0.9-2,1.1-2.8,0.4
				S2221.8,306.1,2222.6,305.2z"/>
			<g>
				<path class="st11" d="M2223.9,308.5c-0.3,0-0.5-0.1-0.5-0.1c0,0-0.1-0.1,0-0.1c0,0,0.1-0.1,0.1,0c0.1,0,1.2,0.5,2.2-1.1
					c0,0,0.1,0,0.1,0c0,0,0,0.1,0,0.1C2225.2,308.3,2224.4,308.5,2223.9,308.5z"/>
			</g>
		</g>
		<g>
			<path class="st11" d="M2206.3,373.4c-0.1,0-0.2,0-0.2-0.1c-0.1-0.1-0.1-0.3,0.1-0.4c0.1,0,6.5-4.3,10-7.5c0.1-0.1,0.3-0.1,0.4,0
				c0.1,0.1,0.1,0.3,0,0.4c-3.5,3.2-10,7.5-10,7.6C2206.4,373.4,2206.3,373.4,2206.3,373.4z"/>
		</g>
	</g>
	<g class="st5">
		<path class="st11" d="M1963.7,312.7c-0.1,0-0.3,0-0.4-0.1c-1.7-0.6-4.6-0.2-5.5,0c-0.7,0.2-1.4-0.3-1.6-1c-0.2-0.7,0.3-1.4,1-1.6
			c0.4-0.1,4.3-0.9,7,0c0.7,0.2,1,1,0.8,1.7C1964.8,312.3,1964.3,312.7,1963.7,312.7z"/>
	</g>
	<g class="st5">
		<g>
			<polygon class="st11" points="2224.5,478.1 2228.1,479.3 2227.9,404.6 2225.1,406.6 			"/>
		</g>
		<g>
			<path class="st11" d="M2209.5,481.7c0,0,25.4,0.5,33.9,0.5c0.9,0,1.6-1.3,1.6-2.2l0,0c0-0.9-1.4-2-2.3-2
				c-8.3,0-33.2,0.3-33.2,0.3c-0.9,0-1.7,0.8-1.7,1.7l0,0C2207.8,481,2208.6,481.7,2209.5,481.7z"/>
		</g>
		<g>
			<path class="st11" d="M2243.8,484.8c-0.3-1.9-1.9-3-3.8-3c-1.9,0-3.8,1.2-3.8,3.1c0,2.3,2.4,4,4.3,4
				C2242.3,488.9,2244.2,487.1,2243.8,484.8z"/>
		</g>
		<g>
			<path class="st11" d="M2216.7,484.8c-0.3-1.9-1.9-3-3.8-3c-1.9,0-3.8,1.2-3.8,3.1c0,2.3,2.4,4,4.3,4
				C2215.2,488.9,2217.1,487.1,2216.7,484.8z"/>
		</g>
		<g>
			<path class="st11" d="M2237,419.4c0,0,0.9,6.1-8.5,8c-9.4,2-13.4-8-13.4-8H2237z"/>
		</g>
		<g>
			<path class="st27" d="M2209.3,396.1c-0.1-11.3,5.7-34.2,17.2-48.1c12.1-14.7,39.8-19.7,46.7-3.9c6.9,15.8-12.3,61-12.3,61
				s-4.1,11.7-8,14.3c-9.6,6.4-55.6,4.9-62.9-2.1C2174.2,402.3,2196.8,393.2,2209.3,396.1z"/>
		</g>
	</g>
	<g class="st5">
		<g>
			<path class="st7" d="M1915.6,332c3-3.8,3-9,1.2-7.1c-1.8,1.9-3.5,4.9-3.5,4.9s3.2-6.6,1.4-6.7c-1.9-0.1-4.7,5.7-4.7,5.7
				s3.2-8.2,1.4-7.7c-1.8,0.5-4.2,6.7-4.2,6.7s2.7-7.7,0.6-7.1c-2.1,0.6-2.4,5.4-4.1,6.3c-2.5,1.4-6.8,4.8-5.7,9.7
				c0,0,11.2,7.3,11.4,4.1c0.4-5.4,8.1-5.6,9.8-7.8C1920.4,331.7,1917.7,331.8,1915.6,332z"/>
			<g>
				<path class="st8" d="M1907.5,326.6c-0.4,0.7-0.8,1.5-1.6,1.8c-0.2,0.1-0.1,0.4,0.1,0.4c0.9-0.3,1.4-1.2,1.9-2
					C1908,326.6,1907.7,326.4,1907.5,326.6L1907.5,326.6z"/>
			</g>
			<g>
				<path class="st8" d="M1910,327.9c-0.1,0.4-0.4,0.7-0.7,1c-0.2,0.2,0.1,0.4,0.3,0.3c0.4-0.3,0.6-0.7,0.8-1.2
					C1910.4,327.8,1910.1,327.7,1910,327.9L1910,327.9z"/>
			</g>
			<g>
				<path class="st8" d="M1913.4,328.9c-0.2,0.3-0.4,0.6-0.7,0.8c-0.2,0.1,0,0.5,0.2,0.3c0.3-0.3,0.6-0.6,0.8-1
					C1913.8,328.9,1913.5,328.7,1913.4,328.9L1913.4,328.9z"/>
			</g>
			<g>
				<path class="st8" d="M1905.1,336.4c0.1-2.7,2.3-3.2,4.6-3.4c2-0.2,4-0.5,6-0.8c0.2,0,0.1-0.4-0.1-0.4c-1.6,0.2-3.1,0.5-4.7,0.6
					c-1.1,0.1-2.3,0.1-3.4,0.4c-1.7,0.5-2.7,1.7-2.7,3.5C1904.7,336.7,1905,336.7,1905.1,336.4L1905.1,336.4z"/>
			</g>
		</g>
		<g>
			<path class="st7" d="M1842.2,319l2.5-6.6l0.7-1.9l4.3-11.2l-0.3,11.4l-0.2,6.9l0,2.2c0,1.5,0.8,1.8,1.9,3.2
				c0.4,0.5,3,3.9-0.3,5.1c-4.1,1.5-11.4-1.6-14.1-5.3C1836.8,322.7,1841.4,321.1,1842.2,319z"/>
		</g>
		<g>
			
				<ellipse transform="matrix(0.9977 -6.758153e-02 6.758153e-02 0.9977 -16.2851 125.6465)" class="st7" cx="1848.9" cy="303.5" rx="10.2" ry="12.3"/>
		</g>
		<g>
			<path class="st11" d="M1854.9,299.6c5.8,0.6,8.9-2.6,9.1-5.7c0.3-4-2-7.7-5-6.4c-3,1.3-1.5-2.3-4.3-2.8
				c-5.2-1.1-6.4,2.6-10.8,2.5c-5.7-0.1-12.8,8.9-8.4,16.1C1835.5,303.4,1850.3,299.1,1854.9,299.6z"/>
		</g>
		<g>
			<path class="st11" d="M1860.4,295.9c0,0-6.6,5.6-6,9c0.6,3.4,0.3,4.7-3.4,6.3c-3.8,1.6-0.7,4.7-5.6,4.6
				c-4.9-0.1-10.4-6.2-9.8-15.6c0.3-5.3,3.6-8.5,3.6-8.5L1860.4,295.9z"/>
		</g>
		<g>
			<path class="st7" d="M1857.5,305c-0.6-1-1.9-1.4-2.9-0.9c-0.9,0.6-1.2,1.9-0.5,2.9s1.9,1.4,2.9,0.9S1858.2,306,1857.5,305z"/>
		</g>
		<g>
			<path class="st11" d="M1837,302.2c0,0-0.1,0-0.1,0c-0.1,0-0.1-0.1-0.1-0.2c0.6-1.2,2-1.6,2.2-1.7c0,0,0,0,0,0
				c0.1,0,0.2,0,0.2,0.1c0,0.1,0,0.2-0.1,0.2c0,0,0,0,0,0c0,0,0,0,0,0C1839,300.6,1837.7,301,1837,302.2
				C1837.1,302.2,1837,302.2,1837,302.2z"/>
		</g>
		<g>
			<path class="st11" d="M1839.3,299.9C1839.3,299.9,1839.2,299.9,1839.3,299.9c-0.1,0-1.8-0.6-1.7-2.1c0-0.1,0.1-0.1,0.2-0.1
				c0.1,0,0.1,0.1,0.1,0.2c-0.1,1.2,1.4,1.8,1.4,1.8c0.1,0,0.1,0.1,0.1,0.2C1839.4,299.9,1839.3,299.9,1839.3,299.9z"/>
		</g>
		<g>
			<path class="st11" d="M1863.1,285.8C1863.1,285.8,1863,285.8,1863.1,285.8c-1.3-0.5-2-0.1-2.7,0.3c-0.3,0.2-0.7,0.4-1.1,0.6
				c0,0-0.1,0-0.1,0c-0.3,0.1-0.6,0-0.9-0.2c-0.8-0.6-0.8-2.3-0.8-2.4c0-0.1,0.1-0.2,0.2-0.2c0.1,0,0.2,0.1,0.2,0.2
				c0,0,0.1,1.6,0.7,2.1c0.2,0.1,0.4,0.2,0.6,0.1c0,0,0.1,0,0.1,0c0.4-0.1,0.7-0.3,1.1-0.5c0.7-0.4,1.5-0.9,2.8-0.3
				c0.1,0,0.1,0.1,0.1,0.2C1863.2,285.7,1863.1,285.8,1863.1,285.8z"/>
		</g>
		<g>
			<path class="st11" d="M1846.1,285.3c-0.7,0.2-1.5,0.3-2.4,0.1c-0.1,0-0.1-0.1-0.1-0.2c0-0.1,0.1-0.1,0.2-0.1
				c2.3,0.5,4.4-1.2,4.4-1.2c0.1,0,0.2,0,0.2,0c0.1,0.1,0,0.2,0,0.2C1848.4,284.1,1847.5,284.9,1846.1,285.3z"/>
		</g>
		<g>
			<path class="st11" d="M1856.2,308.2L1856.2,308.2c0,0-1.5,0.4-2.3-1.6c0,0,0-0.1,0-0.1c0,0,0.1,0,0.1,0c0.8,1.8,2.1,1.5,2.1,1.5
				C1856.2,308.1,1856.2,308.1,1856.2,308.2C1856.2,308.2,1856.2,308.2,1856.2,308.2z"/>
		</g>
		<g>
			<path class="st11" d="M1888.4,470.7c0,0,0.2,4.3,3.1,5.4s11.4,2.1,8.3,4.9c-1.8,1.6-10.3,0.8-12.7,0.8c-2.4,0-4.6,1.1-6.5-0.4
				c-2-1.7-0.2-10.6-0.2-10.6s2.1,1,4,1C1887,471.7,1888.4,470.7,1888.4,470.7z"/>
		</g>
		<g>
			<path class="st11" d="M1914,475.1c0,0,0.2,4.3,3.2,5.4c2.9,1.1,11.4,1.9,8.3,4.8c-1.8,1.6-10.3,0.9-12.7,1
				c-2.4,0.1-4.6,1.2-6.5-0.4c-2-1.7-0.3-10.6-0.3-10.6s2.1,1,4,0.9C1912.7,476.1,1914,475.1,1914,475.1z"/>
		</g>
		<g>
			<g>
				<path class="st14" d="M1912,478.7c5-0.6,8.6-4.9,8.3-9.9c-1.9-28.2-4.6-42.3-14.1-54.1c-6.1-7.5-15-14.7-25.7-18.6
					c-9.2-3.4-17-4.8-27.1-4.5c-16.5,0.5-24,3.6-24,3.6c-10.1,26.6,9.5,28.3,23.8,27.8c0.5,0,0.9,0,1.4,0c8.7-0.2,24.2,0.7,30.7,8.7
					c5.2,6.4,9.2,15.6,12.6,40.1c0.7,4.7,4.9,8,9.6,7.5L1912,478.7z"/>
			</g>
		</g>
		<g>
			<g>
				<path class="st14" d="M1887.2,473.7c5-0.6,8.7-4.6,8.4-9.2c-1.6-25.6-4-38.5-13.3-49.1c-6-6.8-14.6-11.5-25.5-14.1
					c-7.8-1.8-16.9-2.6-26.9-2.2c-16.4,0.6-11.4-7.6-11.4-7.6c-11,43.2,24.6,27.3,38.2,38.9c5.9,5,13.6,14.9,16.7,37.2
					c0.6,4.3,4.8,7.2,9.5,6.7L1887.2,473.7z"/>
			</g>
		</g>
		<g>
			<path class="st16" d="M1895.1,456c0-0.1-1.3-6.4-6.6-13c-4.9-6.1-14.3-13.7-31.5-15.3l0-0.2c7.6,0.7,14.3,2.6,20,5.7
				c4.6,2.5,8.5,5.7,11.6,9.7c5.3,6.7,6.6,13,6.6,13.1L1895.1,456z"/>
		</g>
		<path class="st11" d="M1909.8,339.7c-0.9-0.5-7.7,0.1-11.8-5.7c-0.8-1.2-4.3,13.3-8.9,17.9c-7.1-6.5-21.1-32.1-43.2-32.1
			c-50.8,0-34.4,80.8-34.4,80.8c35.9,38.2,63.4-7.5,63.4-7.5c0.3-3.7-1.1-13.5-1.4-17.9c5.6,5.1,27,8.9,31.3-3.2
			C1911,355,1910.7,340.2,1909.8,339.7z"/>
		<g>
			<polygon class="st11" points="1843.9,480 1840.2,481.2 1840.5,406.5 1843.3,408.5 			"/>
		</g>
		<g>
			<path class="st11" d="M1858.8,483.6c0,0-25.4,0.5-33.9,0.5c-0.9,0-1.6-1.3-1.6-2.2l0,0c0-0.9,1.4-2,2.3-2
				c8.3,0,33.2,0.3,33.2,0.3c0.9,0,1.7,0.8,1.7,1.7l0,0C1860.5,482.9,1859.8,483.6,1858.8,483.6z"/>
		</g>
		<g>
			<path class="st11" d="M1824.6,486.7c0.3-1.9,1.9-3,3.8-3s3.8,1.2,3.8,3.1c0,2.3-2.4,4-4.3,4S1824.2,489,1824.6,486.7z"/>
		</g>
		<g>
			<path class="st11" d="M1851.7,486.7c0.3-1.9,1.9-3,3.8-3s3.8,1.2,3.8,3.1c0,2.3-2.4,4-4.3,4S1851.3,489,1851.7,486.7z"/>
		</g>
		<g>
			<path class="st11" d="M1831.3,430.4c0,0-0.9,6.1,8.5,8c9.4,2,13.4-8,13.4-8H1831.3z"/>
		</g>
		<g>
			<path class="st27" d="M1859.1,407.2c0.1-11.3-5.7-34.2-17.2-48.1c-12.1-14.7-39.8-19.7-46.7-3.9c-6.9,15.8,12.3,61,12.3,61
				s4.1,11.7,8,14.3c9.6,6.4,55.6,4.9,62.9-2.1C1894.2,413.3,1871.5,404.2,1859.1,407.2z"/>
		</g>
		<g>
			<path class="st28" d="M1873.5,375.6c-0.1,0-0.1,0-0.2-0.1c-6.9-5-16.5-15.7-16.5-15.8c-0.1-0.1-0.1-0.3,0-0.4
				c0.1-0.1,0.3-0.1,0.4,0c0.1,0.1,9.6,10.7,16.5,15.7c0.1,0.1,0.2,0.3,0.1,0.4C1873.7,375.5,1873.6,375.6,1873.5,375.6z"/>
		</g>
		<g>
			<path class="st28" d="M1896.4,365c-0.2,0-0.3-0.1-0.3-0.3c-0.6-7.9-7.1-12.5-7.2-12.6c-0.1-0.1-0.2-0.3-0.1-0.4
				c0.1-0.1,0.3-0.2,0.4-0.1c0.1,0.1,6.8,4.8,7.4,13C1896.7,364.8,1896.5,365,1896.4,365C1896.4,365,1896.4,365,1896.4,365z"/>
		</g>
	</g>
	<g class="st5">
		<g>
			<path class="st7" d="M2079.1,317.8l-2.5-6.6l-0.7-1.9l-4.3-11.2l0.3,11.4l0.2,6.9l0,2.2c0,1.5-0.8,1.8-1.9,3.2
				c-0.4,0.5-3,3.9,0.3,5.1c4.1,1.5,11.4-1.6,14.1-5.3C2084.5,321.5,2079.9,320,2079.1,317.8z"/>
		</g>
		<g>
			
				<ellipse transform="matrix(6.757821e-02 -0.9977 0.9977 6.757821e-02 1630.6914 2349.6042)" class="st7" cx="2072.4" cy="302.4" rx="12.3" ry="10.2"/>
		</g>
		<g>
			<path class="st20" d="M2066.4,298.4c-5.8,0.6-8.9-2.6-9.1-5.7c-0.3-4,2-7.7,5-6.4s1.5-2.3,4.3-2.8c5.2-1.1,6.4,2.6,10.8,2.5
				c5.7-0.1,12.8,8.9,8.4,16.1C2085.8,302.2,2071,298,2066.4,298.4z"/>
		</g>
		<g>
			<path class="st20" d="M2061,294.7c0,0,6.6,5.6,6,9c-0.6,3.4-0.3,4.7,3.4,6.3c3.8,1.6,0.7,4.7,5.6,4.6c4.9-0.1,10.4-6.2,9.8-15.6
				c-0.3-5.3-3.6-8.5-3.6-8.5L2061,294.7z"/>
		</g>
		<g>
			
				<ellipse transform="matrix(0.5236 -0.852 0.852 0.5236 724.3335 1905.015)" class="st7" cx="2065.5" cy="304.9" rx="2.2" ry="2"/>
		</g>
		<g>
			<path class="st11" d="M2065.2,307.1L2065.2,307.1c0,0,1.5,0.4,2.3-1.6c0,0,0-0.1,0-0.1c0,0-0.1,0-0.1,0c-0.8,1.8-2.1,1.5-2.1,1.5
				C2065.2,306.9,2065.1,307,2065.2,307.1C2065.1,307,2065.1,307.1,2065.2,307.1z"/>
		</g>
		<g>
			<path class="st11" d="M2033,469.5c0,0-0.2,4.3-3.1,5.4s-11.4,2.1-8.3,4.9c1.8,1.6,10.3,0.8,12.7,0.8c2.4,0,4.6,1.1,6.5-0.4
				c2-1.7,0.2-10.6,0.2-10.6s-2.1,1-4,1C2034.3,470.5,2033,469.5,2033,469.5z"/>
		</g>
		<g>
			<path class="st11" d="M2007.3,474c0,0-0.2,4.3-3.2,5.4c-2.9,1.1-11.4,1.9-8.3,4.8c1.8,1.6,10.3,0.9,12.7,1
				c2.4,0.1,4.6,1.2,6.5-0.4c2-1.7,0.3-10.6,0.3-10.6s-2.1,1-4,0.9C2008.7,475,2007.3,474,2007.3,474z"/>
		</g>
		<g>
			<g>
				<path class="st14" d="M2009.3,477.5c-5-0.6-8.6-4.9-8.3-9.9c1.9-28.2,4.6-42.3,14.1-54.1c6.1-7.5,15-14.7,25.7-18.6
					c9.2-3.4,17-4.8,27.1-4.5c16.5,0.5,24,3.6,24,3.6c10.1,26.6-9.5,28.3-23.8,27.8c-0.5,0-0.9,0-1.4,0c-8.7-0.2-24.2,0.7-30.7,8.7
					c-5.2,6.4-9.2,15.6-12.6,40.1c-0.7,4.7-4.9,8-9.6,7.5L2009.3,477.5z"/>
			</g>
		</g>
		<g>
			<g>
				<path class="st14" d="M2034.2,472.6c-5-0.6-8.7-4.6-8.4-9.2c1.6-25.6,4-38.5,13.3-49.1c6-6.8,14.6-11.5,25.5-14.1
					c7.8-1.8,16.9-2.6,26.9-2.2c16.4,0.6,11.4-7.6,11.4-7.6c11,43.2-24.6,27.3-38.2,38.9c-5.9,5-13.6,14.9-16.7,37.2
					c-0.6,4.3-4.8,7.2-9.5,6.7L2034.2,472.6z"/>
			</g>
		</g>
		<g>
			<path class="st16" d="M2026.3,454.9c0-0.1,1.3-6.4,6.6-13c4.9-6.1,14.3-13.7,31.5-15.3l0-0.2c-7.6,0.7-14.3,2.6-20,5.7
				c-4.6,2.5-8.5,5.7-11.6,9.7c-5.3,6.7-6.6,13-6.6,13.1L2026.3,454.9z"/>
		</g>
		<path class="st23" d="M2032.2,350.7c6.5-7.1,21.1-32.1,43.2-32.1c50.8,0,34.4,80.8,34.4,80.8c-35.9,38.2-63.4-7.5-63.4-7.5
			c-0.3-3.7,0.7-9.8,1-14.3C2029.3,380.2,2007.7,377.9,2032.2,350.7z"/>
		<g>
			<polygon class="st11" points="2077.4,478.9 2081.1,480.1 2080.9,405.4 2078.1,407.3 			"/>
		</g>
		<g>
			<path class="st11" d="M2062.5,482.5c0,0,25.4,0.5,33.9,0.5c0.9,0,1.6-1.3,1.6-2.2l0,0c0-0.9-1.4-2-2.3-2
				c-8.3,0-33.2,0.3-33.2,0.3c-0.9,0-1.7,0.8-1.7,1.7l0,0C2060.8,481.7,2061.6,482.5,2062.5,482.5z"/>
		</g>
		<g>
			<path class="st11" d="M2096.8,485.5c-0.3-1.9-1.9-3-3.8-3c-1.9,0-3.8,1.2-3.8,3.1c0,2.3,2.4,4,4.3,4
				C2095.3,489.6,2097.2,487.9,2096.8,485.5z"/>
		</g>
		<g>
			<path class="st11" d="M2069.7,485.5c-0.3-1.9-1.9-3-3.8-3c-1.9,0-3.8,1.2-3.8,3.1c0,2.3,2.4,4,4.3,4
				C2068.2,489.6,2070.1,487.9,2069.7,485.5z"/>
		</g>
		<g>
			<path class="st11" d="M2090,429.3c0,0,0.9,6.1-8.5,8c-9.4,2-13.4-8-13.4-8H2090z"/>
		</g>
		<g>
			<path class="st27" d="M2062.2,406c-0.1-11.3,5.7-34.2,17.2-48.1c12.1-14.7,39.8-19.7,46.7-3.9s-12.3,61-12.3,61s-4.1,11.7-8,14.3
				c-9.6,6.4-55.6,4.9-62.9-2.1C2027.2,412.1,2049.8,403,2062.2,406z"/>
		</g>
		<g>
			<path class="st28" d="M2047.9,378.1c-0.1,0-0.2-0.1-0.3-0.2c-0.1-0.1,0-0.3,0.1-0.4c6.7-3,13.5-10.6,13.6-10.7
				c0.1-0.1,0.3-0.1,0.4,0c0.1,0.1,0.1,0.3,0,0.4c-0.1,0.1-7,7.8-13.8,10.8C2047.9,378.1,2047.9,378.1,2047.9,378.1z"/>
		</g>
	</g>
	<g class="st5">
		<g>
			<polygon class="st11" points="1966.2,484.9 1962.6,486.1 1962.8,411.4 1965.6,413.3 			"/>
		</g>
		<g>
			<path class="st11" d="M1981.2,488.5c0,0-25.4,0.5-33.9,0.5c-0.9,0-1.6-1.3-1.6-2.2v0c0-0.9,1.4-2,2.3-2c8.3,0,33.2,0.3,33.2,0.3
				c0.9,0,1.7,0.8,1.7,1.7v0C1982.9,487.8,1982.1,488.5,1981.2,488.5z"/>
		</g>
		<g>
			<path class="st11" d="M1946.9,491.6c0.3-1.9,1.9-3,3.8-3s3.8,1.2,3.8,3.1c0,2.3-2.4,4-4.3,4S1946.5,493.9,1946.9,491.6z"/>
		</g>
		<g>
			<path class="st11" d="M1974,491.6c0.3-1.9,1.9-3,3.8-3c1.9,0,3.8,1.2,3.8,3.1c0,2.3-2.4,4-4.3,4S1973.6,493.9,1974,491.6z"/>
		</g>
		<g>
			<path class="st11" d="M1953.7,426.2c0,0-0.9,6.1,8.5,8c9.4,2,13.4-8,13.4-8H1953.7z"/>
		</g>
		<path class="st27" d="M1973.6,430.3h-26c-13,0-23.7-10.7-23.7-23.7V373c0-20.4,16.7-37.1,37.1-37.1l0,0c20,0,36.3,16.3,36.3,36.3
			v34.5C1997.3,419.7,1986.6,430.3,1973.6,430.3z"/>
	</g>
	<g class="st5">
		<g>
			<g>
				<path class="st11" d="M1853.4,214.2c0,0.8-5.9,1.4-13.1,1.4c-7.2,0-13.1,1.1-13.1,0.3c0-5.6,5.8-10.8,13.1-10.8
					C1847.6,205.2,1853.4,209.3,1853.4,214.2z"/>
			</g>
			<g>
				<path class="st29" d="M1853.4,214.3c0,0.5-2.8,1.2-7,1.7c-0.2,0-0.5,0.1-0.7,0.1c-1.6,0.2-3.4,0.3-5.3,0.5
					c-1.6,0.1-3.1,0.2-4.6,0.2c-0.5,0-1,0-1.5,0c-4.2,0-7.1-0.3-7.1-0.8c0-0.5,2.1-1,5.3-1.5c0.3,0,0.5-0.1,0.8-0.1
					c1.4-0.2,2.9-0.3,4.6-0.5c0.7-0.1,1.5-0.1,2.3-0.2c0.5,0,1.1-0.1,1.6-0.1c2.2-0.1,4.2-0.2,6-0.1c0,0,0.1,0,0.1,0
					C1851.2,213.6,1853.4,213.8,1853.4,214.3z"/>
			</g>
			<g>
				<path class="st13" d="M1847.8,213.5c-0.4,0.7-0.9,1.4-1.4,2c-0.2,0.2-0.4,0.4-0.7,0.6c-1.5,1.2-3.3,1.9-5.4,1.9
					c-1.6,0-3.2-0.5-4.5-1.3c-0.6-0.4-1.1-0.8-1.6-1.3c-0.3-0.3-0.6-0.7-0.9-1.1c1.4-0.2,2.9-0.3,4.6-0.5c0.7-0.1,1.5-0.1,2.3-0.2
					c0.5,0,1.1-0.1,1.6-0.1C1844,213.5,1846.1,213.5,1847.8,213.5z"/>
			</g>
			<g>
				<path class="st11" d="M1840.3,206.1L1840.3,206.1c-0.3,0-0.6-0.3-0.6-0.6v-22.3c0-0.3,0.3-0.6,0.6-0.6l0,0
					c0.3,0,0.6,0.3,0.6,0.6v22.3C1840.9,205.9,1840.7,206.1,1840.3,206.1z"/>
			</g>
			<g>
				<ellipse class="st11" cx="1840.3" cy="205.5" rx="1.6" ry="1.6"/>
			</g>
		</g>
		<g>
			<g>
				<path class="st11" d="M2103.1,214.2c0,0.8-5.9,1.4-13.1,1.4s-13.1,1.1-13.1,0.3c0-5.6,5.8-10.8,13.1-10.8
					S2103.1,209.3,2103.1,214.2z"/>
			</g>
			<g>
				<path class="st29" d="M2103.1,214.3c0,0.5-2.8,1.2-7,1.7c-0.2,0-0.5,0.1-0.7,0.1c-1.6,0.2-3.4,0.3-5.3,0.5
					c-1.6,0.1-3.1,0.2-4.6,0.2c-0.5,0-1,0-1.5,0c-4.2,0-7.1-0.3-7.1-0.8c0-0.5,2.1-1,5.3-1.5c0.3,0,0.5-0.1,0.8-0.1
					c1.4-0.2,2.9-0.3,4.6-0.5c0.7-0.1,1.5-0.1,2.3-0.2c0.5,0,1.1-0.1,1.6-0.1c2.2-0.1,4.2-0.2,6-0.1c0,0,0.1,0,0.1,0
					C2100.9,213.6,2103.1,213.8,2103.1,214.3z"/>
			</g>
			<g>
				<path class="st13" d="M2097.5,213.5c-0.4,0.7-0.9,1.4-1.4,2c-0.2,0.2-0.4,0.4-0.7,0.6c-1.5,1.2-3.3,1.9-5.4,1.9
					c-1.6,0-3.2-0.5-4.5-1.3c-0.6-0.4-1.1-0.8-1.6-1.3c-0.3-0.3-0.6-0.7-0.9-1.1c1.4-0.2,2.9-0.3,4.6-0.5c0.7-0.1,1.5-0.1,2.3-0.2
					c0.5,0,1.1-0.1,1.6-0.1C2093.7,213.5,2095.8,213.5,2097.5,213.5z"/>
			</g>
			<g>
				<path class="st11" d="M2090,206.1L2090,206.1c-0.3,0-0.6-0.3-0.6-0.6v-22.3c0-0.3,0.3-0.6,0.6-0.6l0,0c0.3,0,0.6,0.3,0.6,0.6
					v22.3C2090.6,205.9,2090.3,206.1,2090,206.1z"/>
			</g>
			<g>
				<path class="st11" d="M2088.4,205.5c0-0.9,0.7-1.6,1.6-1.6s1.6,0.7,1.6,1.6c0,0.9-0.7,1.6-1.6,1.6S2088.4,206.4,2088.4,205.5z"
					/>
			</g>
		</g>
		<g>
			<g>
				<g>
					<path class="st11" d="M1979.4,214.2c0,0.8-5.9,1.4-13.1,1.4s-13.1,1.1-13.1,0.3c0-5.6,5.8-10.8,13.1-10.8
						S1979.4,209.3,1979.4,214.2z"/>
				</g>
				<g>
					<path class="st29" d="M1979.3,214.3c0,0.5-2.8,1.2-7,1.7c-0.2,0-0.5,0.1-0.7,0.1c-1.6,0.2-3.4,0.3-5.3,0.5
						c-1.6,0.1-3.1,0.2-4.6,0.2c-0.5,0-1,0-1.5,0c-4.2,0-7.1-0.3-7.1-0.8c0-0.5,2.1-1,5.3-1.5c0.3,0,0.5-0.1,0.8-0.1
						c1.4-0.2,2.9-0.3,4.6-0.5c0.7-0.1,1.5-0.1,2.3-0.2c0.5,0,1.1-0.1,1.6-0.1c2.2-0.1,4.2-0.2,6-0.1c0,0,0.1,0,0.1,0
						C1977.2,213.6,1979.3,213.8,1979.3,214.3z"/>
				</g>
				<g>
					<path class="st13" d="M1973.7,213.5c-0.4,0.7-0.9,1.4-1.4,2c-0.2,0.2-0.4,0.4-0.7,0.6c-1.5,1.2-3.3,1.9-5.4,1.9
						c-1.6,0-3.2-0.5-4.5-1.3c-0.6-0.4-1.1-0.8-1.6-1.3c-0.3-0.3-0.6-0.7-0.9-1.1c1.4-0.2,2.9-0.3,4.6-0.5c0.7-0.1,1.5-0.1,2.3-0.2
						c0.5,0,1.1-0.1,1.6-0.1C1970,213.5,1972,213.5,1973.7,213.5z"/>
				</g>
				<g>
					<path class="st11" d="M1966.3,206.1L1966.3,206.1c-0.3,0-0.6-0.3-0.6-0.6v-22.3c0-0.3,0.3-0.6,0.6-0.6l0,0
						c0.3,0,0.6,0.3,0.6,0.6v22.3C1966.8,205.9,1966.6,206.1,1966.3,206.1z"/>
				</g>
				<g>
					<path class="st11" d="M1964.6,205.5c0-0.9,0.7-1.6,1.6-1.6c0.9,0,1.6,0.7,1.6,1.6c0,0.9-0.7,1.6-1.6,1.6
						C1965.4,207.1,1964.6,206.4,1964.6,205.5z"/>
				</g>
			</g>
			<path class="st11" d="M2100,184.7h-267.4c-0.6,0-1-0.5-1-1l0,0c0-0.6,0.5-1,1-1H2100c0.6,0,1,0.5,1,1l0,0
				C2101,184.3,2100.5,184.7,2100,184.7z"/>
		</g>
	</g>
	<path class="st30" d="M1718,375.3c0,0-8.7-20.2-19.2-24.1c-10.5-3.9,3.8,13.2,7,18.2C1709,374.3,1720.9,381.2,1718,375.3z"/>
	<path class="st30" d="M1843.4,375.3c0,0-8.7-20.2-19.2-24.1c-10.5-3.9,3.8,13.2,7,18.2C1834.5,374.3,1846.4,381.2,1843.4,375.3z"/>
	<path class="st30" d="M1991.3,369.3c-0.1-2.2-1.5-16.4-11.8-21.1s-6.2,5.6-3.2,9.3C1979.3,361.2,1991.7,375.9,1991.3,369.3z"/>
	<path class="st30" d="M2124.6,367.9c0,0-0.8-16.1-6.9-17.2c-6-1.1-0.4,11.4,0,15.3C2118.1,369.9,2124.1,371.2,2124.6,367.9z"/>
	<path class="st30" d="M2247.8,341.1c0,0-18.1,9.3-18.7,19.8C2228.4,371.4,2263.6,336.2,2247.8,341.1z"/>
</g>
</svg>
