<?xml version="1.0" encoding="utf-8"?>
<!-- Generator: Adobe Illustrator 23.0.5, SVG Export Plug-In . SVG Version: 6.00 Build 0)  -->
<svg version="1.1" xmlns="http://www.w3.org/2000/svg" xmlns:xlink="http://www.w3.org/1999/xlink" x="0px" y="0px"
	 viewBox="0 0 1000 200" style="enable-background:new 0 0 1000 200;" xml:space="preserve">
<style type="text/css">
	.st0{display:none;}
	.st1{display:inline;fill:#4F4F4F;stroke:#000000;stroke-miterlimit:10;}
	.st2{display:inline;fill:#828282;stroke:#000000;stroke-miterlimit:10;}
	.st3{fill:#FFFFFF;}
	.st4{fill:none;stroke:#FFFFFF;stroke-width:0.2993;}
	.st5{fill:#1C388F;}
	.st6{fill:#A6A8AB;}
	.st7{fill:#B5B5B5;}
</style>
<g id="Layer_2" class="st0">
	<rect class="st1" width="1000" height="200"/>
	<image style="overflow:visible;" width="211" height="211" xlink:href="FOI.png"  transform="matrix(0.7962 0 0 0.7962 2 16)">
	</image>
	
		<image style="overflow:visible;" width="211" height="211" xlink:href="TS_white.png"  transform="matrix(0.7478 0 0 0.7478 180.2202 21.1101)">
	</image>
</g>
<g id="Layer_1">
	<g class="st0">
		<rect y="0" class="st2" width="1000" height="200"/>
	</g>
	<g id="DTI">
		<g>
			<g>
				<polygon class="st3" points="249.8,150.2 115.7,162 115.7,149.4 249.8,149.4 				"/>
				<polygon class="st4" points="115.7,162 249.8,150.2 249.8,162.8 115.7,162.8 				"/>
			</g>
			<path class="st3" d="M227.2,81.7h-16.1V60.9h-22.3l-0.1,20.9h-14.9V60.9h-22.4v25.9c-3.6-3.7-8.3-6.2-13.8-6.2
				c-17.5,0-23.1,16.3-23.1,32c0,15.1,5.7,31.4,22.4,31.4c7.2,0,12.2-2.6,15.4-9.3h0.2v8.2h21.4V97.3h15.2v19.7
				c0,6.6-1,14.8,3.4,19.9c4.4,5.1,8.8,6,16.2,6.2l14.1-0.2v-17.4c0,0-4.3-0.1-6.4-0.1c-5.3,0-4.8-4.4-4.8-8.7V97.3h15.6v45.4h22.4
				V81.7H227.2L227.2,81.7z M150,125c-1.3,2.1-2.8,3.1-4.9,3.1c-7,0-7.4-9.5-7.4-14.9c0-3.3,0.5-8,1.1-11.4c0.7-3.7,2.4-6.4,6.3-6.4
				c1.8,0,3.9,0.8,4.8,2.4c1.5,2,1.4,4.8,1.4,7.1v12.3C151.4,120.1,151.6,122.3,150,125L150,125z"/>
			<path class="st5" d="M251.5,57.1l-0.1-0.1L251.5,57.1z"/>
			<path class="st3" d="M239,36c-10.6,0-19.2,9-19.2,20.1s8.6,20.1,19.2,20.1c10.6,0,19.1-9,19.1-20.1C258.2,45.1,249.5,36,239,36z
				 M252,52.9l1.1,0.9l-0.1,0.7l0.7,1l0.5,2.2h-1l-0.5-0.9l-0.3-0.2l0,0v0.8l0.9,0.9l0.6,1.5l-1,0.2v0.8l-1.1-0.3l-0.6-1.1l0.5-0.3
				l-0.3-0.8l-0.5,0.5l-1-0.1l-0.6-2.6l0.7-0.7l-0.8-0.5l-0.2-1.6L252,52.9z M248.7,58.4l0.5,2.2l-1,1.7l0.1,1.6l-0.8,0.7l-0.3-1.5
				l0.9-4.6L248.7,58.4z M232.4,41.7l1,0.7l0.2-3.9l0.9-1.1h4.5l0.6-0.6l0.7,0.5l-0.7,0.7l0.9,1.3l0.1,1.6l-3,2l1.5,4.1l1.1,0.1
				v-0.6l1.8-0.1l1.6,1.4l0.8-0.7l1.8,0.9l0.1,0.6l-0.7,0.1l1.7,1.8l-0.8,1.7l1,1.3l-1.4,0.9l-0.9-1.1l-0.7,0.9l-0.7-0.1l0.3-0.8
				l-0.3-0.3l0.3-1.6l-1.7-1.4l-0.1,0.7l-3.6-2.2l-2.5,0.6l-0.5-0.8l-1,0.2l-3.3-5.4L232.4,41.7z M245.9,63.8l-0.3,0.9l-3.7-1.4V62
				l1.1-0.7l0.3-1.7l2-1.5l1.5,0.9l-1.6,2l-0.1,2.6L245.9,63.8z M231.4,60.9l-1,0.2l0.1,0.8l-3.1,2.3l-1-1.1l5.9-5.1l-0.3-0.8l0.7-2
				h0.8l0.5,2.2l0.6,0.6L231.4,60.9z M235.6,54.2l-0.2-1.4l-0.9-0.9v-1.1l3.9,0.1l0.7,1.5l-1.3,3.1L235.6,54.2z M238.3,59.9l0.2-4
				l0.7-0.6l1.6,0.8l2.9-0.3l0.5,0.9l-3,2.3h-1l-1,1.3L238.3,59.9z M248.2,72.1l-0.2-1.6l0.9-1l-0.7-0.8l-1.7,0.1l-1.7,0.9l-0.8-0.2
				l-0.5-0.5l-1.7,2.5l-1.7-0.1l0.8-1.4l-0.6-0.5l0.6-0.7l3.3-1.3l0.2-1.6l2.8-0.1l1.4,1.1l0.9-1.3h1.3v-2.2h0.9l0.6,0.8l1.3-0.9
				l-0.3-1.3l1-2l0.8,0.7l-0.6,0.7l1.1,1.4l-2.4,4.3L248.2,72.1z"/>
			<g>
				<path class="st3" d="M117.4,174.1v-2.6h1c0.3,0,0.7,0,1,0.2c0.2,0.2,0.3,0.7,0.3,1c0,0.3-0.1,0.7-0.2,0.9
					c-0.3,0.5-0.7,0.5-1,0.5L117.4,174.1L117.4,174.1z M117.4,175.9h1.1c0.8,0,1.5,0,2.2-0.7c0.6-0.6,0.8-1.6,0.8-2.5
					c0-1-0.3-2-1-2.5c-0.6-0.6-1.3-0.6-2.1-0.6h-2.9v10h1.7v-3.7H117.4z"/>
				<polygon class="st3" points="135.5,179.7 133.7,179.7 133.7,175.5 131.4,175.5 131.4,179.7 129.6,179.7 129.6,169.7 
					131.4,169.7 131.4,173.6 133.7,173.6 133.7,169.7 135.5,169.7 				"/>
				<polygon class="st3" points="145.9,179.7 144.2,179.7 144.2,169.7 145.9,169.7 				"/>
				<polygon class="st3" points="159.3,177.6 159.3,179.7 154.5,179.7 154.5,169.7 156.2,169.7 156.2,177.6 				"/>
				<polygon class="st3" points="169,179.7 167.3,179.7 167.3,169.7 169,169.7 				"/>
				<path class="st3" d="M179.4,174.1v-2.6h1c0.3,0,0.7,0,0.9,0.2c0.2,0.2,0.3,0.7,0.3,1c0,0.3-0.1,0.7-0.2,0.9
					c-0.3,0.5-0.7,0.5-1,0.5L179.4,174.1L179.4,174.1z M179.4,175.9h1.1c0.8,0,1.5,0,2.2-0.7c0.6-0.6,0.8-1.6,0.8-2.5
					c0-1-0.3-2-1-2.5s-1.4-0.6-2.1-0.6h-2.9v10h1.7v-3.7H179.4z"/>
				<path class="st3" d="M193.5,174.1v-2.6h1c0.3,0,0.7,0,0.9,0.2c0.2,0.2,0.3,0.7,0.3,1c0,0.3-0.1,0.7-0.2,0.9
					c-0.3,0.5-0.7,0.5-1,0.5L193.5,174.1L193.5,174.1z M193.5,175.9h1.1c0.8,0,1.5,0,2.2-0.7c0.6-0.6,0.8-1.6,0.8-2.5
					c0-1-0.3-2-1-2.5s-1.3-0.6-2.1-0.6h-2.9v10h1.7v-3.7H193.5z"/>
				<polygon class="st3" points="207.5,179.7 205.8,179.7 205.8,169.7 207.5,169.7 				"/>
				<polygon class="st3" points="222.1,179.7 220.5,179.7 217.6,172.9 217.6,172.9 217.6,179.7 216.2,179.7 216.2,169.7 
					218.1,169.7 220.7,175.5 220.7,175.5 220.7,169.7 222.1,169.7 				"/>
				<polygon class="st3" points="232.4,171.5 232.4,173.6 235.3,173.6 235.3,175.4 232.4,175.4 232.4,177.7 236.1,177.7 
					236.1,179.7 230.6,179.7 230.6,169.7 236.1,169.7 236.1,171.5 				"/>
				<path class="st3" d="M248.1,172.5c-0.2-0.8-0.7-1.1-1.3-1.1c-0.5,0-1,0.1-1,0.9c0,0.7,0.7,0.9,1.1,1c0.6,0.1,1.5,0.3,2,0.8
					c0.6,0.6,1,1.4,1,2.4c0,0.9-0.3,2-0.9,2.5c-0.6,0.6-1.5,0.8-2.2,0.8c-1.4,0-2.8-0.8-3.1-2.8l1.6-0.5c0.2,1,0.8,1.4,1.6,1.4
					c0.5,0,1.1-0.2,1.1-1s-0.9-1-1.4-1.1c-1.4-0.3-2.6-0.9-2.6-3.1c0-0.9,0.2-1.7,0.8-2.3c0.6-0.6,1.1-0.8,2-0.8
					c1.4,0,2.4,0.6,2.9,2.3L248.1,172.5L248.1,172.5z"/>
			</g>
		</g>
	</g>
	<g id="RAPID">
		<g>
			<g id="Layer_1-2">
				<path class="st3" d="M389.5,102.5l15.9,14.6c-0.2,0-0.4,0-0.6,0c-3.1,0-6.2,0-9.5,0c-0.3,0-0.6-0.1-0.7-0.3
					c-4.2-3.9-8.4-7.7-12.7-11.6c-2.1-1.9-4.2-3.9-6.2-5.8c-0.1-0.1-0.2-0.2-0.4-0.3c-0.1,1.2,0,2.5,0,3.6c0,1.2,0,2.4,0,3.5V117
					c-0.3,0.1-6.9,0.2-7.4,0V69.6c0.2,0,0.3,0,0.5,0c4.9,0,9.6,0,14.5,0c6.3,0.1,11.4,2.6,15.2,7.6c1.7,2.3,2.7,4.9,3,7.7
					c0.2,2.9-0.2,5.7-1.3,8.3c-1.1,2.3-2.6,4.2-4.6,5.8c-1.6,1.4-3.5,2.5-5.3,3.2C389.8,102.4,389.6,102.4,389.5,102.5z M375.4,96.8
					c0.2,0,0.3,0,0.4,0c2.3,0,4.6,0,6.9,0c0.6,0,1.1,0,1.6-0.1c3.2-0.4,5.8-1.9,7.7-4.5c2.4-3.2,2.5-7.7,0.2-11
					c-2.2-3.1-5.3-4.8-9.1-4.9c-2.4-0.1-4.9,0-7.2,0c-0.2,0-0.3,0-0.5,0L375.4,96.8z"/>
				<path class="st3" d="M488.5,117.2V69.6c0.1,0,0.2,0,0.3-0.1c4,0,8.1-0.1,12.2,0.1c8.7,0.3,15.7,4.2,20.8,11.3
					c2.2,3,3.4,6.5,3.7,10.2c0.3,3.5-0.1,7-1.4,10.3c-1.2,3.1-3,5.8-5.4,8.1c-2.8,2.8-6.1,4.9-9.9,6.2c-2.1,0.7-4.1,1.2-6.2,1.3
					c-1.2,0.1-2.2,0.2-3.4,0.2c-3.4,0-6.7,0-10,0L488.5,117.2z M495.9,110.4c0.2,0,0.3,0,0.5,0c1.1,0,2.1,0,3.3,0
					c1.3,0,2.6-0.1,3.9-0.3c3.5-0.7,6.7-2.3,9.3-4.8c3.6-3.4,5.4-7.5,5.3-12.5c-0.1-2.9-0.8-5.7-2.5-8.1c-3.8-5.4-9-8.2-15.5-8.4
					c-1.2,0-2.5,0-3.7,0c-0.2,0-0.3,0-0.5,0L495.9,110.4z"/>
				<path class="st6" d="M405.5,117v-0.6c0-2.5,0-5.1,0-7.6c0-0.4,0.2-0.6,0.5-0.8c4.2-2.1,8.5-4.3,12.7-6.4
					c5.2-2.6,10.4-5.3,15.5-7.9c0.2-0.1,0.2-0.2,0.5-0.3c-0.2-0.2-0.4-0.2-0.5-0.3c-3-1.5-6-3-9-4.5c-3.2-1.6-6.3-3.2-9.5-4.9
					c-3.3-1.6-6.5-3.3-9.8-5c-0.2-0.2-0.4-0.3-0.4-0.7c0-2.6,0-5.3,0-8c0-0.1,0-0.2,0-0.2c0,0,0,0,0.1,0c0,0,0,0,0.1,0
					c15.8,7.8,31.7,15.6,47.4,23.4c0.1,0,0.1,0.1,0.2,0.1L405.5,117z"/>
				<path class="st3" d="M441.7,69.6h0.6c4.8,0,9.6,0,14.4,0c5.8,0,10.7,2.2,14.5,6.7c2.3,2.6,3.5,5.7,3.8,9.1
					c0.2,3.6-0.5,7-2.5,9.9c-2.7,3.9-6.3,6.5-10.9,7.6c-1.6,0.4-3.1,0.6-4.8,0.6c-2.4,0-4.7,0-7.1,0H449c0,0.2,0,0.4,0,0.7
					c0,4.1,0,8.2,0,12.3v0.6c-0.4,0.1-6.8,0.2-7.3,0c0-0.2,0-0.2,0-0.4c0-4.6,0-9.3,0-13.9c0-0.3,0.1-0.5,0.4-0.7
					c3.5-1.7,7-3.5,10.5-5.3c0.2-0.1,0.5-0.2,0.7-0.2c1.2,0,2.4,0,3.5,0c3.6-0.1,6.5-1.6,8.7-4.4c2.9-3.6,2.7-8.8-0.4-12.2
					c-1.9-2.1-4.1-3.3-6.9-3.7c-0.5-0.1-1-0.1-1.5-0.1c-2.5,0-4.9,0-7.3,0c-0.2,0-0.2,0-0.5,0c0,2,0,3.9,0,5.8c0,1.9,0,3.9,0,5.8
					c-0.3-0.1-6.6-3-7.3-3.5L441.7,69.6z"/>
				<path class="st3" d="M477.4,69.6h7.2c0.1,0.3,0.1,46.9,0,47.4c-0.3,0.1-6.5,0.2-7.2,0.1l0,0l0,0c0-0.1,0-0.2,0-0.3
					c0-15.6,0-31.3,0-46.9C477.3,69.8,477.4,69.7,477.4,69.6z"/>
				<path class="st3" d="M470,139.8h-1.7c-1.6-4.8-3.1-9.6-4.6-14.4h-0.1c-1.6,4.8-3.1,9.6-4.7,14.4h-1.7l-5.6-16.6h1.8L458,138
					c0.5-1.2,0.8-2.5,1.2-3.6c0.4-1.2,0.8-2.5,1.2-3.7c0.4-1.2,0.8-2.5,1.2-3.7c0.4-1.2,0.7-2.5,1.2-3.7h1.7
					c1.6,4.9,3.1,9.8,4.7,14.8c0.4-1.1,0.7-2.1,1-3c0.3-1,0.7-2,1-3c0.3-1,0.6-2,0.9-3c0.3-1,0.7-2,0.9-3c0.3-1,0.7-2,0.9-3h1.7
					L470,139.8z"/>
				<path class="st3" d="M440.6,131.4c0,1.6-0.3,2.9-1.1,4.1c-1.4,2.5-3.5,3.9-6.2,4.4c-3.1,0.5-5.9-0.4-8-2.9
					c-4.3-5.1-1.6-12.2,4.4-13.7c3.1-0.7,5.9-0.1,8.3,2.1C439.6,126.9,440.6,129.2,440.6,131.4z M438.9,131.5c0.1-3.9-3.2-7-7-7
					c-3.9,0-7.1,3.1-7.1,6.9c0,3.5,2.9,7.1,7,7.2C436,138.5,439,134.9,438.9,131.5L438.9,131.5z"/>
				<path class="st3" d="M406.5,134.1l3.9,5.8c-0.7,0-1.2,0-1.8,0c-0.1,0-0.2-0.2-0.3-0.2c-0.6-0.9-1.2-1.7-1.7-2.6
					c-0.5-0.7-1-1.5-1.5-2.3c-0.1-0.2-0.2-0.2-0.4-0.2c-1.7,0-3.5,0-5.2,0c-0.1,0-0.2,0-0.3,0c0,0.6,0,1.2,0,1.7s0,1.2,0,1.8v1.8
					h-1.6v-16.6c0.1,0,0.1,0,0.2,0c2.3,0,4.5,0,6.8,0c1.2,0,2.2,0.2,3.2,0.8c1.4,0.8,2.2,2,2.5,3.6c0.2,1,0.1,2.1-0.2,3
					c-0.3,1.1-0.9,2-1.8,2.6c-0.4,0.2-0.9,0.4-1.3,0.7C406.7,134,406.6,134,406.5,134.1z M399.2,132.9c0.1,0,0.2,0,0.2,0
					c1.6,0,3.2,0,4.8,0c0.7,0,1.5-0.2,2.1-0.4c1.2-0.5,1.9-1.3,2.2-2.5c0.1-0.5,0.2-1,0.2-1.6c0-1.6-0.9-2.8-2.4-3.4
					c-0.8-0.3-1.6-0.4-2.5-0.4c-1.4,0-2.8,0-4.2,0c-0.2,0-0.2,0-0.4,0V132.9z"/>
				<path class="st3" d="M523.6,130.7v-7.6h1.6c0.1,0.3,0.2,15.9,0,16.6h-1.6v-7.4c-0.1-0.1-0.1-0.1-0.1-0.1l0,0c-0.1,0-0.2,0-0.2,0
					c-3.3,0-6.6,0-9.9,0c-0.1,0-0.1,0-0.2,0.1v7.5h-1.6l0,0l0,0c0-0.1,0-0.1,0-0.2c0-5.4,0-10.8,0-16.2c0-0.1,0-0.2,0-0.2h1.6v7.5
					C513.5,130.8,522.9,130.9,523.6,130.7z"/>
				<path class="st3" d="M381.2,131.7h1.4c0,0.2,0,0.2,0,0.3c0,1.8,0,3.6,0,5.3c0,0.2-0.1,0.4-0.3,0.6c-1.3,1-2.9,1.6-4.4,1.8
					c-2.8,0.4-5.3-0.3-7.2-2.2c-4.2-3.9-3.5-10.5,1.5-13.4c3.2-1.9,7.6-1.6,10.4,0.8c0.1,0.1,0.2,0.1,0.2,0.2l-1,1.2
					c-0.2-0.1-0.2-0.2-0.3-0.2c-2.5-2.1-6.4-2.4-9.2-0.2c-3,2.4-3.5,6.7-1.2,9.8c2.1,2.5,5.6,3.5,8.7,2c0.4-0.2,0.7-0.4,1.2-0.6
					c0.2-0.1,0.3-0.3,0.3-0.6c0-1.5,0-3,0-4.4L381.2,131.7L381.2,131.7z"/>
				<path class="st3" d="M493.1,124.6v15.2h-1.6c0-1,0-2,0-3c0-1,0-2.1,0-3v-9.1c-1.8,0-3.6,0-5.5,0v-1.4c0.3-0.1,12.2-0.1,12.7,0
					v1.4H493.1z"/>
				<g>
					<rect x="368.1" y="145.5" class="st3" width="157.3" height="14.6"/>
				</g>
			</g>
		</g>
		<g>
			<path class="st6" d="M381.6,153v3.5h-0.9v-7.7h1.6c0.6,0,1,0,1.2,0.1s0.5,0.2,0.7,0.3c0.2,0.2,0.4,0.4,0.6,0.7
				c0.2,0.3,0.2,0.7,0.2,1c0,0.4-0.1,0.7-0.2,1c-0.2,0.3-0.3,0.6-0.6,0.7c-0.2,0.2-0.4,0.2-0.7,0.3c-0.2,0.1-0.7,0.1-1.2,0.1h-0.2
				L381.6,153L381.6,153z M381.6,152.2h0.5c0.8,0,1.3-0.1,1.6-0.2c0.2-0.2,0.4-0.5,0.4-1c0-0.5-0.2-0.8-0.4-1.1
				c-0.2-0.2-0.8-0.3-1.6-0.3h-0.5V152.2z"/>
			<path class="st6" d="M399.7,156.5v-7.7h1.8c0.5,0,0.9,0,1.2,0.1c0.2,0.1,0.5,0.2,0.7,0.3c0.2,0.2,0.4,0.4,0.5,0.7
				c0.2,0.3,0.2,0.7,0.2,1c0,0.7-0.2,1.2-0.5,1.5c-0.3,0.3-0.9,0.5-1.6,0.5h-0.1l3,3.7h-1.2l-2.8-3.7h-0.2v3.7L399.7,156.5
				L399.7,156.5z M400.6,149.5v2.6h0.7c0.7,0,1.2-0.1,1.5-0.2c0.2-0.2,0.3-0.5,0.3-1c0-0.5-0.2-0.8-0.4-1.1
				c-0.2-0.2-0.7-0.3-1.4-0.3H400.6z"/>
			<path class="st6" d="M427,152.6c0,0.6-0.1,1.1-0.3,1.6c-0.2,0.5-0.5,0.9-0.9,1.3c-0.4,0.4-0.8,0.7-1.3,0.9
				c-0.5,0.2-1.1,0.3-1.6,0.3s-1.1-0.1-1.6-0.3s-1-0.5-1.3-0.9c-0.4-0.4-0.7-0.8-0.9-1.3c-0.2-0.5-0.3-1-0.3-1.6
				c0-0.6,0.1-1.1,0.3-1.6c0.2-0.5,0.5-0.9,0.9-1.3c0.4-0.4,0.8-0.7,1.3-0.9c0.5-0.2,1.1-0.3,1.6-0.3c0.6,0,1.1,0.1,1.6,0.3
				c0.5,0.2,1,0.5,1.3,0.9c0.4,0.4,0.7,0.8,0.9,1.3C426.9,151.5,427,152.1,427,152.6z M422.8,155.8c0.4,0,0.8-0.1,1.2-0.2
				c0.4-0.2,0.7-0.4,1.1-0.7c0.3-0.3,0.6-0.7,0.7-1.1c0.2-0.4,0.2-0.8,0.2-1.2c0-0.4-0.1-0.8-0.2-1.2c-0.2-0.4-0.4-0.7-0.7-1.1
				c-0.3-0.3-0.7-0.6-1.1-0.7c-0.4-0.2-0.8-0.2-1.2-0.2c-0.4,0-0.8,0.1-1.2,0.2c-0.4,0.2-0.7,0.4-1,0.7c-0.3,0.3-0.6,0.7-0.7,1.1
				c-0.2,0.4-0.2,0.8-0.2,1.2c0,0.4,0.1,0.8,0.2,1.2c0.2,0.4,0.4,0.7,0.7,1.1c0.3,0.3,0.7,0.6,1.1,0.7
				C422,155.7,422.4,155.8,422.8,155.8z"/>
			<path class="st6" d="M443.5,148.7h0.9v6c0,0.7-0.2,1.2-0.4,1.5c-0.3,0.3-0.7,0.5-1.3,0.5c-0.3,0-0.6-0.1-0.8-0.2
				c-0.2-0.2-0.5-0.3-0.7-0.6l0.6-0.6c0.2,0.2,0.3,0.3,0.5,0.4s0.3,0.2,0.5,0.2c0.2,0,0.5-0.1,0.6-0.3c0.1-0.2,0.2-0.7,0.2-1.2
				L443.5,148.7L443.5,148.7z"/>
			<path class="st6" d="M459.8,156.5v-7.7h4.1v0.8h-3.1v2.2h3.1v0.8h-3.1v3h3.1v0.8L459.8,156.5L459.8,156.5z"/>
			<path class="st6" d="M485.2,150.6c-0.4-0.4-0.7-0.7-1.2-0.9c-0.4-0.2-0.9-0.3-1.4-0.3c-0.4,0-0.8,0.1-1.2,0.2s-0.7,0.4-1,0.7
				c-0.3,0.3-0.5,0.7-0.7,1.1c-0.2,0.4-0.2,0.8-0.2,1.2c0,0.3,0.1,0.7,0.2,1c0.1,0.3,0.2,0.6,0.4,0.8c0.3,0.4,0.7,0.7,1.2,1
				c0.5,0.2,0.9,0.3,1.5,0.3c0.5,0,1-0.1,1.4-0.3c0.4-0.2,0.8-0.5,1.2-0.9v1.2c-0.4,0.2-0.8,0.5-1.2,0.7c-0.4,0.2-0.9,0.2-1.4,0.2
				c-0.4,0-0.8-0.1-1.2-0.2s-0.7-0.3-1.1-0.5c-0.6-0.4-1-0.9-1.3-1.5c-0.3-0.6-0.4-1.2-0.4-1.9c0-0.6,0.1-1.2,0.3-1.6
				c0.2-0.5,0.5-0.9,0.9-1.3c0.4-0.4,0.8-0.7,1.3-0.8c0.5-0.2,1-0.2,1.6-0.2c0.4,0,0.9,0.1,1.3,0.2c0.4,0.2,0.8,0.3,1.2,0.7
				L485.2,150.6L485.2,150.6z"/>
			<path class="st6" d="M501.7,156.5v-6.9h-2.2v-0.9h5.3v0.9h-2.2v6.9H501.7z"/>
		</g>
	</g>
	<g transform="translate(0 -902.36)">
		<g transform="translate(-16.252 29.372)">
			<g>
				<path class="st3" d="M658.8,1034.3h2.3v-17.4h-2.3V1034.3z"/>
				<path class="st3" d="M664.6,1021.7h1.9v2h0.1c0.9-1.6,2.3-2.3,4.1-2.3c3.3,0,4.3,1.9,4.3,4.6v8.3H673v-8.5c0-1.5-1-2.5-2.6-2.5
					c-2.5,0-3.7,1.7-3.7,3.9v7.1h-2.1L664.6,1021.7L664.6,1021.7z"/>
				<path class="st3" d="M683.7,1034.3h-2.2l-4.7-12.6h2.3l3.5,10.5h0l3.4-10.5h2.2C688.3,1021.7,683.7,1034.3,683.7,1034.3z"/>
				<path class="st3" d="M698.9,1026.8c-0.1-2-1.6-3.6-3.6-3.6c-2.2,0-3.5,1.6-3.6,3.6H698.9z M700.9,1030.3
					c-0.6,2.8-2.6,4.3-5.4,4.3c-4,0-5.9-2.8-6-6.6c0-3.8,2.5-6.5,5.9-6.5c4.5,0,5.8,4.2,5.7,7.2h-9.4c-0.1,2.2,1.2,4.1,3.9,4.1
					c1.7,0,2.9-0.8,3.3-2.5H700.9L700.9,1030.3z"/>
				<path class="st3" d="M704.4,1030.3c0.1,1.9,1.7,2.4,3.4,2.4c1.3,0,3-0.3,3-1.9c0-1.6-2-1.9-4.1-2.3c-2-0.5-4.1-1.1-4.1-3.6
					c0-2.5,2.5-3.6,4.7-3.6c2.8,0,5,0.9,5.2,3.9h-2.1c-0.1-1.6-1.6-2.1-2.9-2.1c-1.2,0-2.7,0.3-2.7,1.6c0,1.5,2.2,1.7,4.1,2.2
					c2.1,0.5,4.1,1.1,4.1,3.6c0,3-2.8,4-5.4,4c-2.8,0-5.2-1.1-5.3-4.3L704.4,1030.3L704.4,1030.3z"/>
				<path class="st3" d="M718.1,1021.7h2.5v1.8h-2.5v7.8c0,0.9,0.3,1.1,1.6,1.1h0.9v1.8H719c-2.1,0-3-0.4-3-2.7v-8h-2.1v-1.8h2.1
					v-3.8h2.1V1021.7L718.1,1021.7z"/>
				<path class="st3" d="M722.9,1021.7h2.1v12.6h-2.1V1021.7z M725,1019.4h-2.1v-2.5h2.1V1019.4z"/>
				<path class="st3" d="M728.1,1021.7h1.9v2h0.1c0.9-1.6,2.3-2.3,4.1-2.3c3.3,0,4.3,1.9,4.3,4.6v8.3h-2.1v-8.5c0-1.5-1-2.5-2.6-2.5
					c-2.5,0-3.7,1.7-3.7,3.9v7.1h-2.1L728.1,1021.7L728.1,1021.7z"/>
				<path class="st3" d="M750.3,1027.7c0-2.2-1-4.5-3.6-4.5c-2.7,0-3.7,2.2-3.7,4.6c0,2.3,0.8,4.8,3.6,4.8
					C749.3,1032.6,750.3,1030.1,750.3,1027.7 M752.4,1033.2c0,4.1-1.9,6.2-5.8,6.2c-2.4,0-5.1-0.9-5.2-3.7h2.1c0.1,1.5,1.9,2,3.3,2
					c2.7,0,3.8-1.9,3.8-4.8v-0.8h-0.1c-0.7,1.5-2.3,2.3-3.9,2.3c-3.7,0-5.6-2.9-5.6-6.4c0-3,1.5-6.6,5.8-6.6c1.6,0,3,0.7,3.7,2.1h0
					h0.1v-1.8h1.9L752.4,1033.2L752.4,1033.2z"/>
				<path class="st3" d="M762.2,1021.7h2.1v12.6h-2.1V1021.7z M764.2,1019.4h-2.1v-2.5h2.1V1019.4z"/>
				<path class="st3" d="M767.4,1021.7h1.9v2h0.1c0.9-1.6,2.3-2.3,4.1-2.3c3.3,0,4.3,1.9,4.3,4.6v8.3h-2.1v-8.5c0-1.5-1-2.5-2.6-2.5
					c-2.5,0-3.7,1.7-3.7,3.9v7.1h-2.1L767.4,1021.7L767.4,1021.7z"/>
				<path class="st3" d="M787.4,1021.7h1.9v2.7h0.1c1-2,2.4-3,4.6-2.9v2.2c-3.3,0-4.6,1.9-4.6,5.1v5.6h-2.1V1021.7L787.4,1021.7z"/>
				<path class="st3" d="M805.9,1034.3H804v-2h-0.1c-0.9,1.6-2.3,2.3-4.1,2.3c-3.3,0-4.3-1.9-4.3-4.6v-8.3h2.1v8.5
					c0,1.5,1,2.5,2.6,2.5c2.5,0,3.7-1.7,3.7-3.9v-7.1h2.1L805.9,1034.3L805.9,1034.3z"/>
				<path class="st3" d="M808.9,1021.7h1.9v2.7h0c1-2,2.4-3,4.6-2.9v2.2c-3.3,0-4.6,1.9-4.6,5.1v5.6h-2.1V1021.7L808.9,1021.7z"/>
				<path class="st3" d="M824.7,1027.8c-0.8,0.6-2.4,0.6-3.7,0.9c-1.4,0.2-2.5,0.7-2.5,2.3c0,1.4,1.2,1.8,2.4,1.8
					c2.7,0,3.8-1.7,3.8-2.8L824.7,1027.8L824.7,1027.8z M828.1,1034.3c-0.4,0.2-0.8,0.3-1.5,0.3c-1.1,0-1.8-0.6-1.8-1.9
					c-1.1,1.3-2.7,1.9-4.4,1.9c-2.3,0-4.2-1-4.2-3.5c0-2.8,2.1-3.5,4.3-3.9c2.3-0.4,4.2-0.3,4.2-1.9c0-1.8-1.5-2.1-2.8-2.1
					c-1.8,0-3,0.5-3.1,2.4h-2.1c0.1-3.1,2.5-4.2,5.3-4.2c2.3,0,4.7,0.5,4.7,3.5v6.5c0,1,0,1.4,0.7,1.4c0.2,0,0.4,0,0.6-0.1
					L828.1,1034.3L828.1,1034.3z"/>
				<path class="st3" d="M830,1016.9h2.1v17.4H830V1016.9z"/>
				<path class="st3" d="M847.8,1023.2c-2.8,0-3.8,2.4-3.8,4.7c0,2.5,1.1,4.8,4,4.8c2.8,0,3.8-2.4,3.8-4.9
					C851.7,1025.5,850.5,1023.2,847.8,1023.2 M842,1021.7h2.1v1.7h0.1c0.7-1.4,2.3-2,4-2c3.9,0,5.8,3.1,5.8,6.6
					c0,3.6-1.9,6.5-5.7,6.5c-1.3,0-3.1-0.5-4.1-2H844v6.5H842L842,1021.7L842,1021.7z"/>
				<path class="st3" d="M865,1026.8c-0.1-2-1.6-3.6-3.6-3.6c-2.2,0-3.5,1.6-3.6,3.6H865L865,1026.8z M867,1030.3
					c-0.6,2.8-2.6,4.3-5.4,4.3c-4,0-5.9-2.8-6-6.6c0-3.8,2.5-6.5,5.9-6.5c4.5,0,5.8,4.2,5.7,7.2h-9.4c-0.1,2.2,1.2,4.1,3.9,4.1
					c1.7,0,2.9-0.8,3.3-2.5H867L867,1030.3z"/>
				<path class="st3" d="M874.6,1032.8c2.2,0,3.9-1.7,3.9-4.7c0-3.1-1.8-4.8-3.9-4.8c-2.2,0-3.9,1.7-3.9,4.8
					C870.7,1031.1,872.5,1032.8,874.6,1032.8 M874.6,1021.4c4,0,6.1,2.9,6.1,6.6c0,3.7-2.1,6.6-6.1,6.6c-4,0-6.1-2.9-6.1-6.6
					C868.5,1024.3,870.7,1021.4,874.6,1021.4"/>
				<path class="st3" d="M889,1023.2c-2.8,0-3.8,2.4-3.8,4.7c0,2.5,1.1,4.8,4,4.8c2.8,0,3.8-2.4,3.8-4.9
					C892.9,1025.5,891.7,1023.2,889,1023.2 M883.2,1021.7h2.1v1.7h0c0.7-1.4,2.3-2,4-2c3.9,0,5.8,3.1,5.8,6.6c0,3.6-1.9,6.5-5.7,6.5
					c-1.3,0-3.1-0.5-4.1-2h0v6.5h-2.1L883.2,1021.7L883.2,1021.7z"/>
				<path class="st3" d="M897.6,1016.9h2.1v17.4h-2.1V1016.9z"/>
				<path class="st3" d="M911.5,1026.8c-0.1-2-1.6-3.6-3.6-3.6c-2.2,0-3.5,1.6-3.6,3.6H911.5z M913.5,1030.3
					c-0.6,2.8-2.6,4.3-5.4,4.3c-4,0-5.9-2.8-6-6.6c0-3.8,2.5-6.5,5.9-6.5c4.5,0,5.8,4.2,5.7,7.2h-9.4c-0.1,2.2,1.2,4.1,3.9,4.1
					c1.7,0,2.9-0.8,3.3-2.5H913.5L913.5,1030.3z"/>
				<path class="st3" d="M809.7,968.1h4.2c4.3,0,6.2,1.8,7.3,3.5c1.4,2.1,1.8,4.8,1.8,7c0,5.4-2,10.3-9.2,10.3h-4.1L809.7,968.1
					L809.7,968.1z M800.1,997.4h13.2c14.3,0,19.4-8.7,19.4-18.9c0-4.1-0.9-8.2-3.5-11.7c-4.9-7-12.4-7-16.7-7h-12.5L800.1,997.4
					L800.1,997.4z M777.9,971.4h0.1h0l3.9,12.9h-7.9L777.9,971.4L777.9,971.4z M784.5,991.9l1.8,5.4h10.4l-15-37.7h-7.6l-15.1,37.7
					h10.3l2-5.4L784.5,991.9L784.5,991.9z M739.4,997.4h9.2V983h10.9v-8.5h-10.9v-6.4H760v-8.4h-20.6V997.4L739.4,997.4z M723,997.4
					h9.6v-37.7H723C723,959.7,723,997.4,723,997.4z"/>
			</g>
			<g>
				<path class="st7" d="M698.5,937.9"/>
				<path class="st7" d="M674.5,937.9"/>
				<path class="st7" d="M686.5,938c-0.5-0.7-0.7-1.1-1.3-1.7c-0.6-0.6-0.9-0.8-1.6-1.3c-0.5-0.3-0.8-0.4-1.2-0.6
					c-0.6-0.3-0.9-0.5-1.4-1c-0.5-0.4-0.7-0.7-1.1-1.3c-0.5-0.7-0.8-1.1-1.1-1.9c-0.3-0.7-0.4-1.1-0.5-1.9c-0.1-0.8-0.1-1.2,0-2
					c0.1-0.6,0.2-0.9,0.3-1.5c0.1-0.3,0.2-0.6,0.4-0.9c0.2-0.3,0.3-0.4,0.5-0.7v-11.8h0.7v12c0.1,0.7,0,1,0.1,1.7
					c0.1,0.6,0.3,0.9,0.6,1.5c0.4,0.6,0.7,0.9,1.2,1.2c0.3,0.2,0.5,0.4,0.8,0.4c0.2,0,0.4,0,0.4,0c-0.2-0.5-0.3-1.2-0.3-2
					c0-0.8,0.1-1.6,0.3-2.1v-12.7h0h0.7V923l0,0l0-0.1c0.2-0.2,0.3-0.4,0.5-0.6c0.2-0.2,0.3-0.3,0.5-0.4c0.2-0.1,0.3-0.2,0.5-0.2
					c0.3-0.1,0.7-0.1,0.7-0.1s0.4,0,0.7,0.1c0.2,0.1,0.3,0.1,0.5,0.2c0.2,0.1,0.3,0.2,0.5,0.4c0.2,0.2,0.3,0.3,0.5,0.6l0,0.1l0,0
					v-11.5h0.7h0v12.7c0.2,0.6,0.3,1.3,0.3,2.1c0,0.8-0.1,1.5-0.3,2c0,0,0.3,0,0.4,0c0.4-0.1,0.5-0.2,0.8-0.4
					c0.6-0.4,0.9-0.7,1.2-1.2c0.3-0.5,0.4-0.9,0.6-1.5c0.2-0.6,0.1-1,0.1-1.7v-12h0.7v11.8c0.2,0.2,0.3,0.4,0.5,0.7
					c0.2,0.3,0.2,0.5,0.3,0.9c0.2,0.6,0.3,0.9,0.3,1.5c0.1,0.8,0.1,1.2,0,2c-0.1,0.8-0.2,1.2-0.5,1.9c-0.3,0.8-0.6,1.2-1.1,1.9
					c-0.4,0.5-0.6,0.8-1.1,1.3c-0.5,0.4-0.8,0.6-1.4,1c-0.5,0.3-0.8,0.4-1.2,0.6c-0.7,0.4-1,0.7-1.6,1.3
					C687.2,936.9,687,937.3,686.5,938"/>
				<path class="st7" d="M686.5,948.1c-1-1.7-2.3-3.1-3.9-4.1c0,0-0.6-0.4-2.2-1.3c-1.2-0.7-2.1-1.6-2.8-2.5
					c-4.1-6.1-1.9-11.7-1.5-11.5l0,0l0,0v-17.2h0.7V930c0,0-0.4,2.1,2.9,3.6c2.1,0.9,4.9,3.4,6.7,6.6c1.9-3.2,4.6-5.7,6.7-6.6
					c3.2-1.4,2.9-3.6,2.9-3.6v-18.5h0.7v17.2l0,0l0,0c0.4-0.1,2.7,5.4-1.5,11.5c-0.7,0.9-1.5,1.8-2.8,2.5c-1.5,0.9-2.2,1.3-2.2,1.3
					C688.8,945.1,687.5,946.4,686.5,948.1"/>
				<path class="st7" d="M686.5,958.3c0,0-1-3.3-4.9-4.8c-13.1-4.9-8.3-15.1-7.9-15.6v-26.5h0.7v26.4c0,0.3,0.1,1.1,0.4,1.9
					c0.4,1,1,2.1,1.7,2.5c1.6,1,2.7,1.2,4.2,2c1.3,0.7,3,1.9,5.7,4.9c2.6-3,4.3-4.2,5.7-4.9c1.5-0.8,2.6-1,4.2-2
					c0.7-0.4,1.3-1.5,1.7-2.5c0.3-0.8,0.4-1.6,0.4-1.9v-26.4h0.7V938c0.5,0.5,5.2,10.7-7.9,15.6C687.5,955,686.5,958.3,686.5,958.3"
					/>
				<path class="st7" d="M667.4,997.4h-8.5v-7.5h8.4c3.7,0,6.7-3,6.7-6.7v-23.5h7.2l0,23.7C681.3,991.1,675.1,997.4,667.4,997.4"/>
				<path class="st7" d="M705.6,997.4h8.5v-7.5h-8.4c-3.7,0-6.7-3-6.7-6.7v-23.5h-7.2l0,23.7C691.7,991.1,697.9,997.4,705.6,997.4"
					/>
				<path class="st7" d="M667.3,1006.4h-8.4v-7.5h8.4c9.6,0,15.5-7.5,15.5-15.8v-23.5h7.2l0,23.7
					C690.1,995.9,680.2,1006.4,667.3,1006.4"/>
			</g>
		</g>
	</g>
</g>
<g id="Layer_3">
</g>
</svg>
