<?xml version="1.0" encoding="utf-8"?>
<!-- Generator: Adobe Illustrator 23.0.5, SVG Export Plug-In . SVG Version: 6.00 Build 0)  -->
<svg version="1.1" id="Layer_1" xmlns="http://www.w3.org/2000/svg" xmlns:xlink="http://www.w3.org/1999/xlink" x="0px" y="0px"
	 viewBox="0 0 1000 200" style="enable-background:new 0 0 1000 200;" xml:space="preserve">
<style type="text/css">
	.st0{display:none;}
	.st1{display:inline;fill:#4F4F4F;stroke:#000000;stroke-miterlimit:10;}
	.st2{display:inline;fill:#828282;stroke:#000000;stroke-miterlimit:10;}
	.st3{fill:#FFFFFF;}
	.st4{fill:none;stroke:#FFFFFF;stroke-width:0.3326;}
	.st5{fill:#1C388F;}
	.st6{fill:#A6A8AB;}
	.st7{fill:#B5B5B5;}
</style>
<g class="st0">
	<rect class="st1" width="1000" height="200"/>
	
		<image style="overflow:visible;enable-background:new    ;" width="211" height="211" xlink:href="FOI.png"  transform="matrix(0.7962 0 0 0.7962 2 16)">
	</image>
	
		<image style="overflow:visible;enable-background:new    ;" width="211" height="211" xlink:href="TS_white.png"  transform="matrix(0.7478 0 0 0.7478 180.2202 21.1101)">
	</image>
</g>
<g>
	<g class="st0">
		<rect class="st2" width="1000" height="200"/>
	</g>
	<g id="DTI">
		<g>
			<g>
				<polygon class="st3" points="590.2,146.9 441.2,160 441.2,146 590.2,146 				"/>
				<polygon class="st4" points="441.2,160 590.2,146.9 590.2,160.9 441.2,160.9 				"/>
			</g>
			<path class="st3" d="M565.1,70.8h-17.9V47.7h-24.8l-0.1,23.2h-16.6V47.7h-24.9v28.8c-4-4.1-9.2-6.9-15.3-6.9
				c-19.4,0-25.7,18.1-25.7,35.6c0,16.8,6.3,34.9,24.9,34.9c8,0,13.6-2.9,17.1-10.3h0.2v9.1h23.8V88.1h16.9V110
				c0,7.3-1.1,16.4,3.8,22.1c4.9,5.7,9.8,6.7,18,6.9l15.7-0.2v-19.3c0,0-4.8-0.1-7.1-0.1c-5.9,0-5.3-4.9-5.3-9.7V88.1h17.3v50.5H590
				V70.8H565.1L565.1,70.8z M479.3,118.9c-1.4,2.3-3.1,3.4-5.4,3.4c-7.8,0-8.2-10.6-8.2-16.6c0-3.7,0.6-8.9,1.2-12.7
				c0.8-4.1,2.7-7.1,7-7.1c2,0,4.3,0.9,5.3,2.7c1.7,2.2,1.6,5.3,1.6,7.9v13.7C480.9,113.5,481.1,115.9,479.3,118.9L479.3,118.9z"/>
			<path class="st5" d="M592.1,43.4l-0.1-0.1L592.1,43.4z"/>
			<path class="st3" d="M578.2,20c-11.8,0-21.3,10-21.3,22.3s9.6,22.3,21.3,22.3c11.8,0,21.2-10,21.2-22.3
				C599.6,30.1,589.9,20,578.2,20z M592.7,38.8l1.2,1l-0.1,0.8l0.8,1.1l0.6,2.4H594l-0.6-1l-0.3-0.2l0,0v0.9l1,1l0.7,1.7l-1.1,0.2
				v0.9l-1.2-0.3l-0.7-1.2l0.6-0.3l-0.3-0.9l-0.6,0.6l-1.1-0.1l-0.7-2.9l0.8-0.8l-0.9-0.6l-0.2-1.8L592.7,38.8z M589,44.9l0.6,2.4
				l-1.1,1.9l0.1,1.8l-0.9,0.8l-0.3-1.7l1-5.1L589,44.9z M570.9,26.3l1.1,0.8l0.2-4.3l1-1.2h5l0.7-0.7l0.8,0.6l-0.8,0.8l1,1.4
				l0.1,1.8l-3.3,2.2l1.7,4.6l1.2,0.1v-0.7l2-0.1l1.8,1.6l0.9-0.8l2,1l0.1,0.7l-0.8,0.1l1.9,2l-0.9,1.9l1.1,1.4l-1.6,1l-1-1.2
				l-0.8,1l-0.8-0.1l0.3-0.9l-0.3-0.3l0.3-1.8l-1.9-1.6l-0.1,0.8l-4-2.4l-2.8,0.7l-0.6-0.9l-1.1,0.2l-3.7-6L570.9,26.3z M585.9,50.9
				l-0.3,1l-4.1-1.6v-1.4l1.2-0.8l0.3-1.9l2.2-1.7l1.7,1l-1.8,2.2l-0.1,2.9L585.9,50.9z M569.8,47.7l-1.1,0.2l0.1,0.9l-3.4,2.6
				l-1.1-1.2l6.6-5.7l-0.3-0.9l0.8-2.2h0.9l0.6,2.4l0.7,0.7L569.8,47.7z M574.4,40.2l-0.2-1.6l-1-1v-1.2l4.3,0.1l0.8,1.7l-1.4,3.4
				L574.4,40.2z M577.4,46.6l0.2-4.4l0.8-0.7l1.8,0.9l3.2-0.3l0.6,1l-3.3,2.6h-1.1l-1.1,1.4L577.4,46.6z M588.4,60.1l-0.2-1.8l1-1.1
				l-0.8-0.9l-1.9,0.1l-1.9,1l-0.9-0.2l-0.6-0.6l-1.9,2.8l-1.9-0.1l0.9-1.6l-0.7-0.6l0.7-0.8L584,55l0.2-1.8l3.1-0.1l1.6,1.2l1-1.4
				h1.4v-2.4h1l0.7,0.9l1.4-1l-0.3-1.4l1.1-2.2l0.9,0.8l-0.7,0.8l1.2,1.6l-2.7,4.8L588.4,60.1z"/>
			<g>
				<path class="st3" d="M443.1,173.5v-2.9h1.1c0.3,0,0.8,0,1.1,0.2c0.2,0.2,0.3,0.8,0.3,1.1c0,0.3-0.1,0.8-0.2,1
					c-0.3,0.6-0.8,0.6-1.1,0.6L443.1,173.5L443.1,173.5z M443.1,175.5h1.2c0.9,0,1.7,0,2.4-0.8c0.7-0.7,0.9-1.8,0.9-2.8
					c0-1.1-0.3-2.2-1.1-2.8c-0.7-0.7-1.4-0.7-2.3-0.7H441v11.1h1.9v-4.1H443.1z"/>
				<polygon class="st3" points="463.2,179.7 461.2,179.7 461.2,175 458.6,175 458.6,179.7 456.6,179.7 456.6,168.6 458.6,168.6 
					458.6,172.9 461.2,172.9 461.2,168.6 463.2,168.6 				"/>
				<polygon class="st3" points="474.8,179.7 472.9,179.7 472.9,168.6 474.8,168.6 				"/>
				<polygon class="st3" points="489.6,177.4 489.6,179.7 484.3,179.7 484.3,168.6 486.2,168.6 486.2,177.4 				"/>
				<polygon class="st3" points="500.4,179.7 498.5,179.7 498.5,168.6 500.4,168.6 				"/>
				<path class="st3" d="M512,173.5v-2.9h1.1c0.3,0,0.8,0,1,0.2c0.2,0.2,0.3,0.8,0.3,1.1c0,0.3-0.1,0.8-0.2,1
					c-0.3,0.6-0.8,0.6-1.1,0.6L512,173.5L512,173.5z M512,175.5h1.2c0.9,0,1.7,0,2.4-0.8c0.7-0.7,0.9-1.8,0.9-2.8
					c0-1.1-0.3-2.2-1.1-2.8s-1.6-0.7-2.3-0.7h-3.2v11.1h1.9v-4.1H512z"/>
				<path class="st3" d="M527.7,173.5v-2.9h1.1c0.3,0,0.8,0,1,0.2c0.2,0.2,0.3,0.8,0.3,1.1c0,0.3-0.1,0.8-0.2,1
					c-0.3,0.6-0.8,0.6-1.1,0.6L527.7,173.5L527.7,173.5z M527.7,175.5h1.2c0.9,0,1.7,0,2.4-0.8c0.7-0.7,0.9-1.8,0.9-2.8
					c0-1.1-0.3-2.2-1.1-2.8c-0.8-0.6-1.4-0.7-2.3-0.7h-3.2v11.1h1.9v-4.1H527.7z"/>
				<polygon class="st3" points="543.2,179.7 541.3,179.7 541.3,168.6 543.2,168.6 				"/>
				<polygon class="st3" points="559.4,179.7 557.7,179.7 554.4,172.1 554.4,172.1 554.4,179.7 552.9,179.7 552.9,168.6 555,168.6 
					557.9,175 557.9,175 557.9,168.6 559.4,168.6 				"/>
				<polygon class="st3" points="570.9,170.6 570.9,172.9 574.1,172.9 574.1,174.9 570.9,174.9 570.9,177.5 575,177.5 575,179.7 
					568.9,179.7 568.9,168.6 575,168.6 575,170.6 				"/>
				<path class="st3" d="M588.3,171.7c-0.2-0.9-0.8-1.2-1.4-1.2c-0.6,0-1.1,0.1-1.1,1c0,0.8,0.8,1,1.2,1.1c0.7,0.1,1.7,0.3,2.2,0.9
					c0.7,0.7,1.1,1.6,1.1,2.7c0,1-0.3,2.2-1,2.8c-0.7,0.7-1.7,0.9-2.4,0.9c-1.6,0-3.1-0.9-3.4-3.1l1.8-0.6c0.2,1.1,0.9,1.6,1.8,1.6
					c0.6,0,1.2-0.2,1.2-1.1c0-0.9-1-1.1-1.6-1.2c-1.6-0.3-2.9-1-2.9-3.4c0-1,0.2-1.9,0.9-2.6c0.7-0.7,1.2-0.9,2.2-0.9
					c1.6,0,2.7,0.7,3.2,2.6L588.3,171.7L588.3,171.7z"/>
			</g>
		</g>
	</g>
	<g id="RAPID">
		<g>
			<g id="Layer_1-2">
				<path class="st3" d="M705.5,113.3l14.9,13.6c-0.2,0-0.4,0-0.6,0c-2.9,0-5.8,0-8.9,0c-0.3,0-0.6-0.1-0.7-0.3
					c-3.9-3.6-7.9-7.2-11.9-10.8c-2-1.8-3.9-3.6-5.8-5.4c-0.1-0.1-0.2-0.2-0.4-0.3c-0.1,1.1,0,2.3,0,3.4c0,1.1,0,2.2,0,3.3v10.1
					c-0.3,0.1-6.4,0.2-6.9,0V82.5c0.2,0,0.3,0,0.5,0c4.6,0,9,0,13.6,0c5.9,0.1,10.7,2.4,14.2,7.1c1.6,2.1,2.5,4.6,2.8,7.2
					c0.2,2.7-0.2,5.3-1.2,7.8c-1,2.1-2.4,3.9-4.3,5.4c-1.5,1.3-3.3,2.3-5,3C705.7,113.2,705.5,113.2,705.5,113.3z M692.3,107.9
					c0.2,0,0.3,0,0.4,0c2.1,0,4.3,0,6.4,0c0.6,0,1,0,1.5-0.1c3-0.4,5.4-1.8,7.2-4.2c2.2-3,2.3-7.2,0.2-10.3c-2.1-2.9-5-4.5-8.5-4.6
					c-2.2-0.1-4.6,0-6.7,0c-0.2,0-0.3,0-0.5,0V107.9z"/>
				<path class="st3" d="M798,127V82.5c0.1,0,0.2,0,0.3-0.1c3.7,0,7.6-0.1,11.4,0.1c8.1,0.3,14.7,3.9,19.4,10.6
					c2.1,2.8,3.2,6.1,3.5,9.5c0.3,3.3-0.1,6.5-1.3,9.6c-1.1,2.9-2.8,5.4-5,7.6c-2.6,2.6-5.7,4.6-9.3,5.8c-2,0.7-3.8,1.1-5.8,1.2
					c-1.1,0.1-2.1,0.2-3.2,0.2c-3.2,0-6.3,0-9.3,0H798z M804.9,120.6c0.2,0,0.3,0,0.5,0c1,0,2,0,3.1,0c1.2,0,2.4-0.1,3.6-0.3
					c3.3-0.7,6.3-2.1,8.7-4.5c3.4-3.2,5-7,5-11.7c-0.1-2.7-0.7-5.3-2.3-7.6c-3.6-5-8.4-7.7-14.5-7.9c-1.1,0-2.3,0-3.5,0
					c-0.2,0-0.3,0-0.5,0L804.9,120.6z"/>
				<path class="st6" d="M720.4,126.8v-0.6c0-2.3,0-4.8,0-7.1c0-0.4,0.2-0.6,0.5-0.7c3.9-2,7.9-4,11.9-6c4.9-2.4,9.7-5,14.5-7.4
					c0.2-0.1,0.2-0.2,0.5-0.3c-0.2-0.2-0.4-0.2-0.5-0.3c-2.8-1.4-5.6-2.8-8.4-4.2c-3-1.5-5.9-3-8.9-4.6c-3.1-1.5-6.1-3.1-9.2-4.7
					c-0.2-0.2-0.4-0.3-0.4-0.7c0-2.4,0-5,0-7.5c0-0.1,0-0.2,0-0.2s0,0,0.1,0c0,0,0,0,0.1,0c14.8,7.3,29.6,14.6,44.3,21.9
					c0.1,0,0.1,0.1,0.2,0.1L720.4,126.8z"/>
				<path class="st3" d="M754.2,82.5h0.6c4.5,0,9,0,13.5,0c5.4,0,10,2.1,13.6,6.3c2.1,2.4,3.3,5.3,3.6,8.5c0.2,3.4-0.5,6.5-2.3,9.3
					c-2.5,3.6-5.9,6.1-10.2,7.1c-1.5,0.4-2.9,0.6-4.5,0.6c-2.2,0-4.4,0-6.6,0h-0.7c0,0.2,0,0.4,0,0.7c0,3.8,0,7.7,0,11.5v0.6
					c-0.4,0.1-6.4,0.2-6.8,0c0-0.2,0-0.2,0-0.4c0-4.3,0-8.7,0-13c0-0.3,0.1-0.5,0.4-0.7c3.3-1.6,6.5-3.3,9.8-5
					c0.2-0.1,0.5-0.2,0.7-0.2c1.1,0,2.2,0,3.3,0c3.4-0.1,6.1-1.5,8.1-4.1c2.7-3.4,2.5-8.2-0.4-11.4c-1.8-2-3.8-3.1-6.4-3.5
					c-0.5-0.1-0.9-0.1-1.4-0.1c-2.3,0-4.6,0-6.8,0c-0.2,0-0.2,0-0.5,0c0,1.9,0,3.6,0,5.4s0,3.6,0,5.4c-0.3-0.1-6.2-2.8-6.8-3.3
					L754.2,82.5z"/>
				<path class="st3" d="M787.6,82.5h6.7c0.1,0.3,0.1,43.8,0,44.3c-0.3,0.1-6.1,0.2-6.7,0.1l0,0l0,0c0-0.1,0-0.2,0-0.3
					c0-14.6,0-29.3,0-43.8C787.5,82.7,787.6,82.6,787.6,82.5z"/>
				<path class="st3" d="M780.7,148.1h-1.6c-1.5-4.5-2.9-9-4.3-13.5h-0.1c-1.5,4.5-2.9,9-4.4,13.5h-1.6l-5.2-15.5h1.7l4.3,13.8
					c0.5-1.1,0.7-2.3,1.1-3.4c0.4-1.1,0.7-2.3,1.1-3.5c0.4-1.1,0.7-2.3,1.1-3.5c0.4-1.1,0.7-2.3,1.1-3.5h1.6
					c1.5,4.6,2.9,9.2,4.4,13.8c0.4-1,0.7-2,0.9-2.8c0.3-0.9,0.7-1.9,0.9-2.8c0.3-0.9,0.6-1.9,0.8-2.8c0.3-0.9,0.7-1.9,0.8-2.8
					c0.3-0.9,0.7-1.9,0.8-2.8h1.6L780.7,148.1z"/>
				<path class="st3" d="M753.2,140.3c0,1.5-0.3,2.7-1,3.8c-1.3,2.3-3.3,3.6-5.8,4.1c-2.9,0.5-5.5-0.4-7.5-2.7
					c-4-4.8-1.5-11.4,4.1-12.8c2.9-0.7,5.5-0.1,7.8,2C752.3,136.1,753.2,138.2,753.2,140.3z M751.6,140.4c0.1-3.6-3-6.5-6.5-6.5
					c-3.6,0-6.6,2.9-6.6,6.4c0,3.3,2.7,6.6,6.5,6.7C748.9,146.9,751.7,143.5,751.6,140.4L751.6,140.4z"/>
				<path class="st3" d="M721.3,142.8l3.6,5.4c-0.7,0-1.1,0-1.7,0c-0.1,0-0.2-0.2-0.3-0.2c-0.6-0.8-1.1-1.6-1.6-2.4
					c-0.5-0.7-0.9-1.4-1.4-2.1c-0.1-0.2-0.2-0.2-0.4-0.2c-1.6,0-3.3,0-4.9,0c-0.1,0-0.2,0-0.3,0c0,0.6,0,1.1,0,1.6
					c0,0.5,0,1.1,0,1.7v1.7H713v-15.5c0.1,0,0.1,0,0.2,0c2.1,0,4.2,0,6.4,0c1.1,0,2.1,0.2,3,0.7c1.3,0.7,2.1,1.9,2.3,3.4
					c0.2,0.9,0.1,2-0.2,2.8c-0.3,1-0.8,1.9-1.7,2.4c-0.4,0.2-0.8,0.4-1.2,0.7C721.5,142.7,721.4,142.7,721.3,142.8z M714.5,141.7
					c0.1,0,0.2,0,0.2,0c1.5,0,3,0,4.5,0c0.7,0,1.4-0.2,2-0.4c1.1-0.5,1.8-1.2,2.1-2.3c0.1-0.5,0.2-0.9,0.2-1.5
					c0-1.5-0.8-2.6-2.2-3.2c-0.7-0.3-1.5-0.4-2.3-0.4c-1.3,0-2.6,0-3.9,0c-0.2,0-0.2,0-0.4,0V141.7L714.5,141.7z"/>
				<path class="st3" d="M830.8,139.6v-7.1h1.5c0.1,0.3,0.2,14.9,0,15.5h-1.5v-6.9c-0.1-0.1-0.1-0.1-0.1-0.1l0,0c-0.1,0-0.2,0-0.2,0
					c-3.1,0-6.2,0-9.3,0c-0.1,0-0.1,0-0.2,0.1v7h-1.5l0,0l0,0c0-0.1,0-0.1,0-0.2c0-5,0-10.1,0-15.1c0-0.1,0-0.2,0-0.2h1.5v7
					C821.4,139.7,830.1,139.8,830.8,139.6z"/>
				<path class="st3" d="M697.7,140.6h1.3c0,0.2,0,0.2,0,0.3c0,1.7,0,3.4,0,5c0,0.2-0.1,0.4-0.3,0.6c-1.2,0.9-2.7,1.5-4.1,1.7
					c-2.6,0.4-5-0.3-6.7-2.1c-3.9-3.6-3.3-9.8,1.4-12.5c3-1.8,7.1-1.5,9.7,0.7c0.1,0.1,0.2,0.1,0.2,0.2l-0.9,1.1
					c-0.2-0.1-0.2-0.2-0.3-0.2c-2.3-2-6-2.2-8.6-0.2c-2.8,2.2-3.3,6.3-1.1,9.2c2,2.3,5.2,3.3,8.1,1.9c0.4-0.2,0.7-0.4,1.1-0.6
					c0.2-0.1,0.3-0.3,0.3-0.6c0-1.4,0-2.8,0-4.1L697.7,140.6L697.7,140.6z"/>
				<path class="st3" d="M802.3,133.9v14.2h-1.5c0-0.9,0-1.9,0-2.8c0-0.9,0-2,0-2.8V134c-1.7,0-3.4,0-5.1,0v-1.3
					c0.3-0.1,11.4-0.1,11.9,0v1.3L802.3,133.9L802.3,133.9z"/>
				<g>
					<rect x="685.5" y="153.5" class="st3" width="147" height="13.6"/>
				</g>
			</g>
		</g>
		<g>
			<path class="st6" d="M698.1,160.5v3.3h-0.8v-7.2h1.5c0.6,0,0.9,0,1.1,0.1c0.2,0.1,0.5,0.2,0.7,0.3c0.2,0.2,0.4,0.4,0.6,0.7
				c0.2,0.3,0.2,0.7,0.2,0.9c0,0.4-0.1,0.7-0.2,0.9c-0.2,0.3-0.3,0.6-0.6,0.7c-0.2,0.2-0.4,0.2-0.7,0.3c-0.2,0.1-0.7,0.1-1.1,0.1
				h-0.2L698.1,160.5L698.1,160.5z M698.1,159.7h0.5c0.7,0,1.2-0.1,1.5-0.2c0.2-0.2,0.4-0.5,0.4-0.9c0-0.5-0.2-0.7-0.4-1
				c-0.2-0.2-0.7-0.3-1.5-0.3h-0.5V159.7z"/>
			<path class="st6" d="M715,163.7v-7.2h1.7c0.5,0,0.8,0,1.1,0.1c0.2,0.1,0.5,0.2,0.7,0.3c0.2,0.2,0.4,0.4,0.5,0.7
				c0.2,0.3,0.2,0.7,0.2,0.9c0,0.7-0.2,1.1-0.5,1.4s-0.8,0.5-1.5,0.5H717l2.8,3.5h-1.1l-2.6-3.5h-0.2v3.5L715,163.7L715,163.7z
				 M715.8,157.2v2.4h0.7c0.7,0,1.1-0.1,1.4-0.2c0.2-0.2,0.3-0.5,0.3-0.9c0-0.5-0.2-0.7-0.4-1c-0.2-0.2-0.7-0.3-1.3-0.3H715.8z"/>
			<path class="st6" d="M740.5,160.1c0,0.6-0.1,1-0.3,1.5c-0.2,0.5-0.5,0.8-0.8,1.2c-0.4,0.4-0.7,0.7-1.2,0.8
				c-0.5,0.2-1,0.3-1.5,0.3s-1-0.1-1.5-0.3c-0.5-0.2-0.9-0.5-1.2-0.8c-0.4-0.4-0.7-0.7-0.8-1.2c-0.2-0.5-0.3-0.9-0.3-1.5
				c0-0.6,0.1-1,0.3-1.5c0.2-0.5,0.5-0.8,0.8-1.2s0.7-0.7,1.2-0.8c0.5-0.2,1-0.3,1.5-0.3c0.6,0,1,0.1,1.5,0.3
				c0.5,0.2,0.9,0.5,1.2,0.8c0.4,0.4,0.7,0.7,0.8,1.2C740.4,159.1,740.5,159.6,740.5,160.1z M736.6,163.1c0.4,0,0.7-0.1,1.1-0.2
				c0.4-0.2,0.7-0.4,1-0.7c0.3-0.3,0.6-0.7,0.7-1c0.2-0.4,0.2-0.7,0.2-1.1s-0.1-0.7-0.2-1.1c-0.2-0.4-0.4-0.7-0.7-1
				c-0.3-0.3-0.7-0.6-1-0.7c-0.4-0.2-0.7-0.2-1.1-0.2c-0.4,0-0.7,0.1-1.1,0.2c-0.4,0.2-0.7,0.4-0.9,0.7s-0.6,0.7-0.7,1
				c-0.2,0.4-0.2,0.7-0.2,1.1s0.1,0.7,0.2,1.1c0.2,0.4,0.4,0.7,0.7,1c0.3,0.3,0.7,0.6,1,0.7C735.8,163,736.2,163.1,736.6,163.1z"/>
			<path class="st6" d="M755.9,156.4h0.8v5.6c0,0.7-0.2,1.1-0.4,1.4c-0.3,0.3-0.7,0.5-1.2,0.5c-0.3,0-0.6-0.1-0.7-0.2
				c-0.2-0.2-0.5-0.3-0.7-0.6l0.6-0.6c0.2,0.2,0.3,0.3,0.5,0.4s0.3,0.2,0.5,0.2c0.2,0,0.5-0.1,0.6-0.3c0.1-0.2,0.2-0.7,0.2-1.1
				L755.9,156.4L755.9,156.4z"/>
			<path class="st6" d="M771.2,163.7v-7.2h3.8v0.7h-2.9v2.1h2.9v0.7h-2.9v2.8h2.9v0.7L771.2,163.7L771.2,163.7z"/>
			<path class="st6" d="M794.9,158.2c-0.4-0.4-0.7-0.7-1.1-0.8c-0.4-0.2-0.8-0.3-1.3-0.3c-0.4,0-0.7,0.1-1.1,0.2
				c-0.4,0.1-0.7,0.4-0.9,0.7s-0.5,0.7-0.7,1c-0.2,0.4-0.2,0.7-0.2,1.1c0,0.3,0.1,0.7,0.2,0.9c0.1,0.3,0.2,0.6,0.4,0.7
				c0.3,0.4,0.7,0.7,1.1,0.9c0.5,0.2,0.8,0.3,1.4,0.3c0.5,0,0.9-0.1,1.3-0.3c0.4-0.2,0.7-0.5,1.1-0.8v1.1c-0.4,0.2-0.7,0.5-1.1,0.7
				c-0.4,0.2-0.8,0.2-1.3,0.2c-0.4,0-0.7-0.1-1.1-0.2c-0.4-0.1-0.7-0.3-1-0.5c-0.6-0.4-0.9-0.8-1.2-1.4c-0.3-0.6-0.4-1.1-0.4-1.8
				c0-0.6,0.1-1.1,0.3-1.5c0.2-0.5,0.5-0.8,0.8-1.2c0.4-0.4,0.7-0.7,1.2-0.7c0.5-0.2,0.9-0.2,1.5-0.2c0.4,0,0.8,0.1,1.2,0.2
				c0.4,0.2,0.7,0.3,1.1,0.7L794.9,158.2L794.9,158.2z"/>
			<path class="st6" d="M810.3,163.7v-6.4h-2.1v-0.8h5v0.8h-2.1v6.4H810.3z"/>
		</g>
	</g>
	<g transform="translate(0 -902.36)">
		<g transform="translate(-16.252 29.372)">
			<g>
				<path class="st3" d="M108,1050.2h2.3v-17.6H108V1050.2z"/>
				<path class="st3" d="M113.8,1037.4h1.9v2h0.1c0.9-1.6,2.3-2.3,4.2-2.3c3.3,0,4.4,1.9,4.4,4.7v8.4h-2v-8.6c0-1.5-1-2.5-2.6-2.5
					c-2.5,0-3.7,1.7-3.7,4v7.2h-2.1L113.8,1037.4L113.8,1037.4z"/>
				<path class="st3" d="M133.2,1050.2H131l-4.8-12.8h2.3l3.5,10.6l0,0l3.4-10.6h2.2C137.9,1037.4,133.2,1050.2,133.2,1050.2z"/>
				<path class="st3" d="M148.6,1042.6c-0.1-2-1.6-3.6-3.6-3.6c-2.2,0-3.5,1.6-3.6,3.6H148.6z M150.6,1046.2
					c-0.6,2.8-2.6,4.4-5.5,4.4c-4.1,0-6-2.8-6.1-6.7c0-3.9,2.5-6.6,6-6.6c4.6,0,5.9,4.3,5.8,7.3h-9.5c-0.1,2.2,1.2,4.2,4,4.2
					c1.7,0,2.9-0.8,3.3-2.5H150.6L150.6,1046.2z"/>
				<path class="st3" d="M154.2,1046.2c0.1,1.9,1.7,2.4,3.4,2.4c1.3,0,3-0.3,3-1.9c0-1.6-2-1.9-4.2-2.3c-2-0.5-4.2-1.1-4.2-3.6
					c0-2.5,2.5-3.6,4.8-3.6c2.8,0,5.1,0.9,5.3,4h-2.1c-0.1-1.6-1.6-2.1-2.9-2.1c-1.2,0-2.7,0.3-2.7,1.6c0,1.5,2.2,1.7,4.2,2.2
					c2.1,0.5,4.2,1.1,4.2,3.6c0,3-2.8,4.1-5.5,4.1c-2.8,0-5.3-1.1-5.4-4.4L154.2,1046.2L154.2,1046.2z"/>
				<path class="st3" d="M168.1,1037.4h2.5v1.8h-2.5v7.9c0,0.9,0.3,1.1,1.6,1.1h0.9v1.8H169c-2.1,0-3-0.4-3-2.7v-8.1h-2.1v-1.8h2.1
					v-3.9h2.1V1037.4L168.1,1037.4z"/>
				<path class="st3" d="M172.9,1037.4h2.1v12.8h-2.1V1037.4z M175,1035.1h-2.1v-2.5h2.1V1035.1z"/>
				<path class="st3" d="M178.2,1037.4h1.9v2h0.1c0.9-1.6,2.3-2.3,4.2-2.3c3.3,0,4.4,1.9,4.4,4.7v8.4h-2.1v-8.6c0-1.5-1-2.5-2.6-2.5
					c-2.5,0-3.7,1.7-3.7,4v7.2h-2.1L178.2,1037.4L178.2,1037.4z"/>
				<path class="st3" d="M200.7,1043.5c0-2.2-1-4.6-3.6-4.6c-2.7,0-3.7,2.2-3.7,4.7c0,2.3,0.8,4.9,3.6,4.9
					C199.7,1048.5,200.7,1046,200.7,1043.5 M202.8,1049.1c0,4.2-1.9,6.3-5.9,6.3c-2.4,0-5.2-0.9-5.3-3.7h2.1c0.1,1.5,1.9,2,3.3,2
					c2.7,0,3.9-1.9,3.9-4.9v-0.8h-0.1c-0.7,1.5-2.3,2.3-4,2.3c-3.7,0-5.7-2.9-5.7-6.5c0-3,1.5-6.7,5.9-6.7c1.6,0,3,0.7,3.7,2.1l0,0
					h0.1v-1.8h1.9L202.8,1049.1L202.8,1049.1z"/>
				<path class="st3" d="M212.7,1037.4h2.1v12.8h-2.1V1037.4z M214.8,1035.1h-2.1v-2.5h2.1V1035.1z"/>
				<path class="st3" d="M218,1037.4h1.9v2h0.1c0.9-1.6,2.3-2.3,4.2-2.3c3.3,0,4.4,1.9,4.4,4.7v8.4h-2.1v-8.6c0-1.5-1-2.5-2.6-2.5
					c-2.5,0-3.7,1.7-3.7,4v7.2h-2.1L218,1037.4L218,1037.4z"/>
				<path class="st3" d="M238.3,1037.4h1.9v2.7h0.1c1-2,2.4-3,4.7-2.9v2.2c-3.3,0-4.7,1.9-4.7,5.2v5.7h-2.1v-12.9H238.3z"/>
				<path class="st3" d="M257,1050.2h-1.9v-2H255c-0.9,1.6-2.3,2.3-4.2,2.3c-3.3,0-4.4-1.9-4.4-4.7v-8.4h2.1v8.6
					c0,1.5,1,2.5,2.6,2.5c2.5,0,3.7-1.7,3.7-4v-7.2h2.1L257,1050.2L257,1050.2z"/>
				<path class="st3" d="M260.1,1037.4h1.9v2.7l0,0c1-2,2.4-3,4.7-2.9v2.2c-3.3,0-4.7,1.9-4.7,5.2v5.7h-2.1v-12.9H260.1z"/>
				<path class="st3" d="M276.1,1043.6c-0.8,0.6-2.4,0.6-3.7,0.9c-1.4,0.2-2.5,0.7-2.5,2.3c0,1.4,1.2,1.8,2.4,1.8
					c2.7,0,3.9-1.7,3.9-2.8V1043.6L276.1,1043.6z M279.5,1050.2c-0.4,0.2-0.8,0.3-1.5,0.3c-1.1,0-1.8-0.6-1.8-1.9
					c-1.1,1.3-2.7,1.9-4.5,1.9c-2.3,0-4.3-1-4.3-3.5c0-2.8,2.1-3.5,4.4-4c2.3-0.4,4.3-0.3,4.3-1.9c0-1.8-1.5-2.1-2.8-2.1
					c-1.8,0-3,0.5-3.1,2.4H268c0.1-3.1,2.5-4.3,5.4-4.3c2.3,0,4.8,0.5,4.8,3.5v6.6c0,1,0,1.4,0.7,1.4c0.2,0,0.4,0,0.6-0.1
					L279.5,1050.2L279.5,1050.2z"/>
				<path class="st3" d="M281.4,1032.6h2.1v17.6h-2.1V1032.6z"/>
				<path class="st3" d="M299.5,1039c-2.8,0-3.9,2.4-3.9,4.8c0,2.5,1.1,4.9,4.1,4.9c2.8,0,3.9-2.4,3.9-5
					C303.4,1041.3,302.2,1039,299.5,1039 M293.6,1037.4h2.1v1.7h0.1c0.7-1.4,2.3-2,4.1-2c4,0,5.9,3.1,5.9,6.7c0,3.6-1.9,6.6-5.8,6.6
					c-1.3,0-3.1-0.5-4.2-2h-0.2v6.6h-2V1037.4L293.6,1037.4z"/>
				<path class="st3" d="M316.9,1042.6c-0.1-2-1.6-3.6-3.6-3.6c-2.2,0-3.5,1.6-3.6,3.6H316.9L316.9,1042.6z M318.9,1046.2
					c-0.6,2.8-2.6,4.4-5.5,4.4c-4.1,0-6-2.8-6.1-6.7c0-3.9,2.5-6.6,6-6.6c4.6,0,5.9,4.3,5.8,7.3h-9.5c-0.1,2.2,1.2,4.2,4,4.2
					c1.7,0,2.9-0.8,3.3-2.5H318.9L318.9,1046.2z"/>
				<path class="st3" d="M326.6,1048.7c2.2,0,4-1.7,4-4.8c0-3.1-1.8-4.9-4-4.9c-2.2,0-4,1.7-4,4.9
					C322.7,1047,324.5,1048.7,326.6,1048.7 M326.6,1037.1c4.1,0,6.2,2.9,6.2,6.7s-2.1,6.7-6.2,6.7s-6.2-2.9-6.2-6.7
					S322.7,1037.1,326.6,1037.1"/>
				<path class="st3" d="M341.2,1039c-2.8,0-3.9,2.4-3.9,4.8c0,2.5,1.1,4.9,4.1,4.9c2.8,0,3.9-2.4,3.9-5
					C345.2,1041.3,344,1039,341.2,1039 M335.3,1037.4h2.1v1.7l0,0c0.7-1.4,2.3-2,4.1-2c4,0,5.9,3.1,5.9,6.7c0,3.6-1.9,6.6-5.8,6.6
					c-1.3,0-3.1-0.5-4.2-2l0,0v6.6h-2.1V1037.4L335.3,1037.4z"/>
				<path class="st3" d="M349.9,1032.6h2.1v17.6h-2.1V1032.6z"/>
				<path class="st3" d="M364,1042.6c-0.1-2-1.6-3.6-3.6-3.6c-2.2,0-3.5,1.6-3.6,3.6H364z M366,1046.2c-0.6,2.8-2.6,4.4-5.5,4.4
					c-4.1,0-6-2.8-6.1-6.7c0-3.9,2.5-6.6,6-6.6c4.6,0,5.9,4.3,5.8,7.3h-9.5c-0.1,2.2,1.2,4.2,4,4.2c1.7,0,2.9-0.8,3.3-2.5H366
					L366,1046.2z"/>
				<path class="st3" d="M306.3,972.7h7c7.1,0,10.3,3,12.1,5.8c2.3,3.5,3,7.9,3,11.6c0,8.9-3.3,17.1-15.2,17.1h-6.8V972.7
					L306.3,972.7z M290.4,1021.2h21.9c23.7,0,32.1-14.4,32.1-31.3c0-6.8-1.5-13.6-5.8-19.4c-8.1-11.6-20.5-11.6-27.7-11.6h-20.7
					L290.4,1021.2L290.4,1021.2z M253.6,978.1h0.2l0,0l6.5,21.4h-13.1L253.6,978.1L253.6,978.1z M264.5,1012.1l3,8.9h17.2
					l-24.8-62.4h-12.6l-25,62.4h17.1l3.3-8.9H264.5L264.5,1012.1z M189.9,1021.2h15.2v-23.8h18v-14.1h-18v-10.6H224v-13.9h-34.1
					V1021.2L189.9,1021.2z M162.7,1021.2h15.9v-62.4h-15.9V1021.2z"/>
			</g>
			<g>
				<path class="st7" d="M122.1,922.7"/>
				<path class="st7" d="M82.4,922.7"/>
				<path class="st7" d="M102.3,922.8c-0.8-1.2-1.2-1.8-2.2-2.8c-1-1-1.5-1.3-2.6-2.2c-0.8-0.5-1.3-0.7-2-1c-1-0.5-1.5-0.8-2.3-1.7
					c-0.8-0.7-1.2-1.2-1.8-2.2c-0.8-1.2-1.3-1.8-1.8-3.1c-0.5-1.2-0.7-1.8-0.8-3.1c-0.2-1.3-0.2-2,0-3.3c0.2-1,0.3-1.5,0.5-2.5
					c0.2-0.5,0.3-1,0.7-1.5c0.3-0.5,0.5-0.7,0.8-1.2v-19.5h1.2v19.9c0.2,1.2,0,1.7,0.2,2.8c0.2,1,0.5,1.5,1,2.5c0.7,1,1.2,1.5,2,2
					c0.5,0.3,0.8,0.7,1.3,0.7c0.3,0,0.7,0,0.7,0c-0.3-0.8-0.5-2-0.5-3.3c0-1.3,0.2-2.6,0.5-3.5v-21l0,0h1.2V898l0,0v-0.2
					c0.3-0.3,0.5-0.7,0.8-1c0.3-0.3,0.5-0.5,0.8-0.7c0.3-0.2,0.5-0.3,0.8-0.3c0.5-0.2,1.2-0.2,1.2-0.2s0.7,0,1.2,0.2
					c0.3,0.2,0.5,0.2,0.8,0.3c0.3,0.2,0.5,0.3,0.8,0.7s0.5,0.5,0.8,1v0.2l0,0v-19h1.2l0,0v21c0.3,1,0.5,2.2,0.5,3.5
					c0,1.3-0.2,2.5-0.5,3.3c0,0,0.5,0,0.7,0c0.7-0.2,0.8-0.3,1.3-0.7c1-0.7,1.5-1.2,2-2c0.5-0.8,0.7-1.5,1-2.5
					c0.3-1,0.2-1.7,0.2-2.8v-19.9h1.2v19.5c0.3,0.3,0.5,0.7,0.8,1.2c0.3,0.5,0.3,0.8,0.5,1.5c0.3,1,0.5,1.5,0.5,2.5
					c0.2,1.3,0.2,2,0,3.3c-0.2,1.3-0.3,2-0.8,3.1c-0.5,1.3-1,2-1.8,3.1c-0.7,0.8-1,1.3-1.8,2.2c-0.8,0.7-1.3,1-2.3,1.7
					c-0.8,0.5-1.3,0.7-2,1c-1.2,0.7-1.7,1.2-2.6,2.2C103.4,921,103.1,921.7,102.3,922.8"/>
				<path class="st7" d="M102.3,939.5c-1.7-2.8-3.8-5.1-6.5-6.8c0,0-1-0.7-3.6-2.2c-2-1.2-3.5-2.6-4.6-4.1
					c-6.8-10.1-3.1-19.4-2.5-19l0,0l0,0v-28.5h1.2v30.6c0,0-0.7,3.5,4.8,6c3.5,1.5,8.1,5.6,11.1,10.9c3.1-5.3,7.6-9.4,11.1-10.9
					c5.3-2.3,4.8-6,4.8-6v-30.6h1.2v28.5l0,0l0,0c0.7-0.2,4.5,8.9-2.5,19c-1.2,1.5-2.5,3-4.6,4.1c-2.5,1.5-3.6,2.2-3.6,2.2
					C106.1,934.6,103.9,936.7,102.3,939.5"/>
				<path class="st7" d="M102.3,956.4c0,0-1.7-5.5-8.1-7.9c-21.7-8.1-13.7-25-13.1-25.8v-43.9h1.2v43.7c0,0.5,0.2,1.8,0.7,3.1
					c0.7,1.7,1.7,3.5,2.8,4.1c2.6,1.7,4.5,2,7,3.3c2.2,1.2,5,3.1,9.4,8.1c4.3-5,7.1-7,9.4-8.1c2.5-1.3,4.3-1.7,7-3.3
					c1.2-0.7,2.2-2.5,2.8-4.1c0.5-1.3,0.7-2.6,0.7-3.1v-43.7h1.2v44c0.8,0.8,8.6,17.7-13.1,25.8C103.9,951,102.3,956.4,102.3,956.4"
					/>
				<path class="st7" d="M70.6,1021.2H56.6v-12.4h13.9c6.1,0,11.1-5,11.1-11.1v-38.9h11.9V998C93.7,1010.8,83.4,1021.2,70.6,1021.2"
					/>
				<path class="st7" d="M133.9,1021.2H148v-12.4h-13.9c-6.1,0-11.1-5-11.1-11.1v-38.9H111V998
					C110.9,1010.8,121.1,1021.2,133.9,1021.2"/>
				<path class="st7" d="M70.5,1036.1H56.6v-12.4h13.9c15.9,0,25.7-12.4,25.7-26.2v-38.9h11.9v39.2
					C108.2,1018.7,91.8,1036.1,70.5,1036.1"/>
			</g>
		</g>
	</g>
</g>
<g id="Layer_3">
</g>
</svg>
