<?xml version="1.0" encoding="utf-8"?>
<!-- Generator: Adobe Illustrator 23.0.5, SVG Export Plug-In . SVG Version: 6.00 Build 0)  -->
<svg version="1.1" id="Layer_1" xmlns="http://www.w3.org/2000/svg" xmlns:xlink="http://www.w3.org/1999/xlink" x="0px" y="0px"
	 viewBox="0 0 792.3 200" style="enable-background:new 0 0 792.3 200;" xml:space="preserve">
<style type="text/css">
	.st0{display:none;}
	.st1{display:inline;fill:#4F4F4F;stroke:#000000;stroke-miterlimit:10;}
	.st2{display:inline;fill:#828282;stroke:#000000;stroke-miterlimit:10;}
	.st3{fill:#FFFFFF;}
	.st4{fill:none;stroke:#FFFFFF;stroke-width:0.3326;}
	.st5{fill:#1C388F;}
	.st6{fill:#A6A8AB;}
	.st7{fill:#B5B5B5;}
</style>
<g class="st0">
	<rect x="-40.3" class="st1" width="1000" height="200"/>
	
		<image style="display:inline;overflow:visible;enable-background:new    ;" width="211" height="211" xlink:href="FOI.png"  transform="matrix(0.7962 0 0 0.7962 -38.348 16)">
	</image>
	
		<image style="display:inline;overflow:visible;enable-background:new    ;" width="211" height="211" xlink:href="TS_white.png"  transform="matrix(0.7478 0 0 0.7478 139.8722 21.1101)">
	</image>
</g>
<g>
	<g class="st0">
		<rect x="-40.3" class="st2" width="1000" height="200"/>
	</g>
	<g id="DTI">
		<g>
			<g>
				<polygon class="st3" points="549.9,146.9 400.9,160 400.9,146 549.9,146 				"/>
				<polygon class="st4" points="400.9,160 549.9,146.9 549.9,160.9 400.9,160.9 				"/>
			</g>
			<path class="st3" d="M524.8,70.8h-17.9V47.7h-24.8L482,70.9h-16.6V47.7h-24.9v28.8c-4-4.1-9.2-6.9-15.3-6.9
				c-19.4,0-25.7,18.1-25.7,35.6c0,16.8,6.3,34.9,24.9,34.9c8,0,13.6-2.9,17.1-10.3h0.2v9.1h23.8V88.1h16.9V110
				c0,7.3-1.1,16.4,3.8,22.1c4.9,5.7,9.8,6.7,18,6.9l15.7-0.2v-19.3c0,0-4.8-0.1-7.1-0.1c-5.9,0-5.3-4.9-5.3-9.7V88.1h17.3v50.5
				h24.9V70.8H524.8L524.8,70.8z M439,118.9c-1.4,2.3-3.1,3.4-5.4,3.4c-7.8,0-8.2-10.6-8.2-16.6c0-3.7,0.6-8.9,1.2-12.7
				c0.8-4.1,2.7-7.1,7-7.1c2,0,4.3,0.9,5.3,2.7c1.7,2.2,1.6,5.3,1.6,7.9v13.7C440.6,113.5,440.8,115.9,439,118.9L439,118.9z"/>
			<path class="st5" d="M551.8,43.4L551.8,43.4L551.8,43.4z"/>
			<path class="st3" d="M537.9,20c-11.8,0-21.3,10-21.3,22.3s9.6,22.3,21.3,22.3c11.8,0,21.2-10,21.2-22.3
				C559.3,30.1,549.6,20,537.9,20z M552.4,38.8l1.2,1l-0.1,0.8l0.8,1.1l0.6,2.4h-1.2l-0.6-1l-0.3-0.2l0,0v0.9l1,1l0.7,1.7l-1.1,0.2
				v0.9l-1.2-0.3l-0.7-1.2l0.6-0.3l-0.3-0.9l-0.6,0.6l-1.1-0.1l-0.7-2.9l0.8-0.8l-0.9-0.6l-0.2-1.8L552.4,38.8z M548.7,44.9l0.6,2.4
				l-1.1,1.9l0.1,1.8l-0.9,0.8l-0.3-1.7l1-5.1L548.7,44.9z M530.6,26.3l1.1,0.8l0.2-4.3l1-1.2h5l0.7-0.7l0.8,0.6l-0.8,0.8l1,1.4
				l0.1,1.8l-3.3,2.2l1.7,4.6l1.2,0.1v-0.7l2-0.1l1.8,1.6l0.9-0.8l2,1l0.1,0.7l-0.8,0.1l1.9,2l-0.9,1.9l1.1,1.4l-1.6,1l-1-1.2
				l-0.8,1l-0.8-0.1l0.3-0.9l-0.3-0.3l0.3-1.8l-1.9-1.6l-0.1,0.8l-4-2.4l-2.8,0.7l-0.6-0.9L533,34l-3.7-6L530.6,26.3z M545.6,50.9
				l-0.3,1l-4.1-1.6v-1.4l1.2-0.8l0.3-1.9l2.2-1.7l1.7,1l-1.8,2.2l-0.1,2.9L545.6,50.9z M529.5,47.7l-1.1,0.2l0.1,0.9l-3.4,2.6
				l-1.1-1.2l6.6-5.7l-0.3-0.9l0.8-2.2h0.9l0.6,2.4l0.7,0.7L529.5,47.7z M534.1,40.2l-0.2-1.6l-1-1v-1.2l4.3,0.1l0.8,1.7l-1.4,3.4
				L534.1,40.2z M537.1,46.6l0.2-4.4l0.8-0.7l1.8,0.9l3.2-0.3l0.6,1l-3.3,2.6h-1.1l-1.1,1.4L537.1,46.6z M548.1,60.1l-0.2-1.8l1-1.1
				l-0.8-0.9l-1.9,0.1l-1.9,1l-0.9-0.2l-0.6-0.6l-1.9,2.8l-1.9-0.1l0.9-1.6l-0.7-0.6l0.7-0.8l3.8-1.3l0.2-1.8l3.1-0.1l1.6,1.2l1-1.4
				h1.4v-2.4h1l0.7,0.9l1.4-1l-0.3-1.4l1.1-2.2l0.9,0.8l-0.7,0.8l1.2,1.6l-2.7,4.8L548.1,60.1z"/>
			<g>
				<path class="st3" d="M402.8,173.5v-2.9h1.1c0.3,0,0.8,0,1.1,0.2c0.2,0.2,0.3,0.8,0.3,1.1s-0.1,0.8-0.2,1
					c-0.3,0.6-0.8,0.6-1.1,0.6L402.8,173.5L402.8,173.5z M402.8,175.5h1.2c0.9,0,1.7,0,2.4-0.8c0.7-0.7,0.9-1.8,0.9-2.8
					c0-1.1-0.3-2.2-1.1-2.8c-0.7-0.7-1.4-0.7-2.3-0.7h-3.2v11.1h1.9v-4.1h0.2V175.5z"/>
				<polygon class="st3" points="422.9,179.7 420.9,179.7 420.9,175 418.3,175 418.3,179.7 416.3,179.7 416.3,168.6 418.3,168.6 
					418.3,172.9 420.9,172.9 420.9,168.6 422.9,168.6 				"/>
				<polygon class="st3" points="434.5,179.7 432.6,179.7 432.6,168.6 434.5,168.6 				"/>
				<polygon class="st3" points="449.3,177.4 449.3,179.7 444,179.7 444,168.6 445.9,168.6 445.9,177.4 				"/>
				<polygon class="st3" points="460.1,179.7 458.2,179.7 458.2,168.6 460.1,168.6 				"/>
				<path class="st3" d="M471.7,173.5v-2.9h1.1c0.3,0,0.8,0,1,0.2s0.3,0.8,0.3,1.1s-0.1,0.8-0.2,1c-0.3,0.6-0.8,0.6-1.1,0.6
					L471.7,173.5L471.7,173.5z M471.7,175.5h1.2c0.9,0,1.7,0,2.4-0.8c0.7-0.7,0.9-1.8,0.9-2.8c0-1.1-0.3-2.2-1.1-2.8
					s-1.6-0.7-2.3-0.7h-3.2v11.1h1.9v-4.1h0.2V175.5z"/>
				<path class="st3" d="M487.4,173.5v-2.9h1.1c0.3,0,0.8,0,1,0.2s0.3,0.8,0.3,1.1s-0.1,0.8-0.2,1c-0.3,0.6-0.8,0.6-1.1,0.6
					L487.4,173.5L487.4,173.5z M487.4,175.5h1.2c0.9,0,1.7,0,2.4-0.8c0.7-0.7,0.9-1.8,0.9-2.8c0-1.1-0.3-2.2-1.1-2.8
					s-1.4-0.7-2.3-0.7h-3.2v11.1h1.9v-4.1h0.2V175.5z"/>
				<polygon class="st3" points="502.9,179.7 501,179.7 501,168.6 502.9,168.6 				"/>
				<polygon class="st3" points="519.1,179.7 517.4,179.7 514.1,172.1 514.1,172.1 514.1,179.7 512.6,179.7 512.6,168.6 
					514.7,168.6 517.6,175 517.6,175 517.6,168.6 519.1,168.6 				"/>
				<polygon class="st3" points="530.6,170.6 530.6,172.9 533.8,172.9 533.8,174.9 530.6,174.9 530.6,177.5 534.7,177.5 
					534.7,179.7 528.6,179.7 528.6,168.6 534.7,168.6 534.7,170.6 				"/>
				<path class="st3" d="M548,171.7c-0.2-0.9-0.8-1.2-1.4-1.2c-0.6,0-1.1,0.1-1.1,1c0,0.8,0.8,1,1.2,1.1c0.7,0.1,1.7,0.3,2.2,0.9
					c0.7,0.7,1.1,1.6,1.1,2.7c0,1-0.3,2.2-1,2.8c-0.7,0.7-1.7,0.9-2.4,0.9c-1.6,0-3.1-0.9-3.4-3.1l1.8-0.6c0.2,1.1,0.9,1.6,1.8,1.6
					c0.6,0,1.2-0.2,1.2-1.1c0-0.9-1-1.1-1.6-1.2c-1.6-0.3-2.9-1-2.9-3.4c0-1,0.2-1.9,0.9-2.6c0.7-0.7,1.2-0.9,2.2-0.9
					c1.6,0,2.7,0.7,3.2,2.6L548,171.7L548,171.7z"/>
			</g>
		</g>
	</g>
	<g id="RAPID">
		<g>
			<g id="Layer_1-2">
				<path class="st3" d="M665.2,113.3l14.9,13.6c-0.2,0-0.4,0-0.6,0c-2.9,0-5.8,0-8.9,0c-0.3,0-0.6-0.1-0.7-0.3
					c-3.9-3.6-7.9-7.2-11.9-10.8c-2-1.8-3.9-3.6-5.8-5.4c-0.1-0.1-0.2-0.2-0.4-0.3c-0.1,1.1,0,2.3,0,3.4s0,2.2,0,3.3v10.1
					c-0.3,0.1-6.4,0.2-6.9,0V82.5c0.2,0,0.3,0,0.5,0c4.6,0,9,0,13.6,0c5.9,0.1,10.7,2.4,14.2,7.1c1.6,2.1,2.5,4.6,2.8,7.2
					c0.2,2.7-0.2,5.3-1.2,7.8c-1,2.1-2.4,3.9-4.3,5.4c-1.5,1.3-3.3,2.3-5,3C665.4,113.2,665.2,113.2,665.2,113.3z M652,107.9
					c0.2,0,0.3,0,0.4,0c2.1,0,4.3,0,6.4,0c0.6,0,1,0,1.5-0.1c3-0.4,5.4-1.8,7.2-4.2c2.2-3,2.3-7.2,0.2-10.3c-2.1-2.9-5-4.5-8.5-4.6
					c-2.2-0.1-4.6,0-6.7,0c-0.2,0-0.3,0-0.5,0L652,107.9L652,107.9z"/>
				<path class="st3" d="M757.7,127V82.5c0.1,0,0.2,0,0.3-0.1c3.7,0,7.6-0.1,11.4,0.1c8.1,0.3,14.7,3.9,19.4,10.6
					c2.1,2.8,3.2,6.1,3.5,9.5c0.3,3.3-0.1,6.5-1.3,9.6c-1.1,2.9-2.8,5.4-5,7.6c-2.6,2.6-5.7,4.6-9.3,5.8c-2,0.7-3.8,1.1-5.8,1.2
					c-1.1,0.1-2.1,0.2-3.2,0.2c-3.2,0-6.3,0-9.3,0C758.4,127,757.7,127,757.7,127z M764.6,120.6c0.2,0,0.3,0,0.5,0c1,0,2,0,3.1,0
					c1.2,0,2.4-0.1,3.6-0.3c3.3-0.7,6.3-2.1,8.7-4.5c3.4-3.2,5-7,5-11.7c-0.1-2.7-0.7-5.3-2.3-7.6c-3.6-5-8.4-7.7-14.5-7.9
					c-1.1,0-2.3,0-3.5,0c-0.2,0-0.3,0-0.5,0L764.6,120.6z"/>
				<path class="st6" d="M680.1,126.8v-0.6c0-2.3,0-4.8,0-7.1c0-0.4,0.2-0.6,0.5-0.7c3.9-2,7.9-4,11.9-6c4.9-2.4,9.7-5,14.5-7.4
					c0.2-0.1,0.2-0.2,0.5-0.3c-0.2-0.2-0.4-0.2-0.5-0.3c-2.8-1.4-5.6-2.8-8.4-4.2c-3-1.5-5.9-3-8.9-4.6c-3.1-1.5-6.1-3.1-9.2-4.7
					c-0.2-0.2-0.4-0.3-0.4-0.7c0-2.4,0-5,0-7.5c0-0.1,0-0.2,0-0.2s0,0,0.1,0c0,0,0,0,0.1,0c14.8,7.3,29.6,14.6,44.3,21.9
					c0.1,0,0.1,0.1,0.2,0.1L680.1,126.8z"/>
				<path class="st3" d="M713.9,82.5h0.6c4.5,0,9,0,13.5,0c5.4,0,10,2.1,13.6,6.3c2.1,2.4,3.3,5.3,3.6,8.5c0.2,3.4-0.5,6.5-2.3,9.3
					c-2.5,3.6-5.9,6.1-10.2,7.1c-1.5,0.4-2.9,0.6-4.5,0.6c-2.2,0-4.4,0-6.6,0h-0.7c0,0.2,0,0.4,0,0.7c0,3.8,0,7.7,0,11.5v0.6
					c-0.4,0.1-6.4,0.2-6.8,0c0-0.2,0-0.2,0-0.4c0-4.3,0-8.7,0-13c0-0.3,0.1-0.5,0.4-0.7c3.3-1.6,6.5-3.3,9.8-5
					c0.2-0.1,0.5-0.2,0.7-0.2c1.1,0,2.2,0,3.3,0c3.4-0.1,6.1-1.5,8.1-4.1c2.7-3.4,2.5-8.2-0.4-11.4c-1.8-2-3.8-3.1-6.4-3.5
					c-0.5-0.1-0.9-0.1-1.4-0.1c-2.3,0-4.6,0-6.8,0c-0.2,0-0.2,0-0.5,0c0,1.9,0,3.6,0,5.4s0,3.6,0,5.4c-0.3-0.1-6.2-2.8-6.8-3.3
					L713.9,82.5z"/>
				<path class="st3" d="M747.3,82.5h6.7c0.1,0.3,0.1,43.8,0,44.3c-0.3,0.1-6.1,0.2-6.7,0.1l0,0l0,0c0-0.1,0-0.2,0-0.3
					c0-14.6,0-29.3,0-43.8C747.2,82.7,747.3,82.6,747.3,82.5z"/>
				<path class="st3" d="M740.4,148.1h-1.6c-1.5-4.5-2.9-9-4.3-13.5h-0.1c-1.5,4.5-2.9,9-4.4,13.5h-1.6l-5.2-15.5h1.7l4.3,13.8
					c0.5-1.1,0.7-2.3,1.1-3.4c0.4-1.1,0.7-2.3,1.1-3.5c0.4-1.1,0.7-2.3,1.1-3.5c0.4-1.1,0.7-2.3,1.1-3.5h1.6
					c1.5,4.6,2.9,9.2,4.4,13.8c0.4-1,0.7-2,0.9-2.8c0.3-0.9,0.7-1.9,0.9-2.8c0.3-0.9,0.6-1.9,0.8-2.8c0.3-0.9,0.7-1.9,0.8-2.8
					c0.3-0.9,0.7-1.9,0.8-2.8h1.6L740.4,148.1z"/>
				<path class="st3" d="M712.9,140.3c0,1.5-0.3,2.7-1,3.8c-1.3,2.3-3.3,3.6-5.8,4.1c-2.9,0.5-5.5-0.4-7.5-2.7
					c-4-4.8-1.5-11.4,4.1-12.8c2.9-0.7,5.5-0.1,7.8,2C712,136.1,712.9,138.2,712.9,140.3z M711.3,140.4c0.1-3.6-3-6.5-6.5-6.5
					c-3.6,0-6.6,2.9-6.6,6.4c0,3.3,2.7,6.6,6.5,6.7C708.6,146.9,711.4,143.5,711.3,140.4L711.3,140.4z"/>
				<path class="st3" d="M681,142.8l3.6,5.4c-0.7,0-1.1,0-1.7,0c-0.1,0-0.2-0.2-0.3-0.2c-0.6-0.8-1.1-1.6-1.6-2.4
					c-0.5-0.7-0.9-1.4-1.4-2.1c-0.1-0.2-0.2-0.2-0.4-0.2c-1.6,0-3.3,0-4.9,0c-0.1,0-0.2,0-0.3,0c0,0.6,0,1.1,0,1.6s0,1.1,0,1.7v1.7
					h-1.3v-15.5c0.1,0,0.1,0,0.2,0c2.1,0,4.2,0,6.4,0c1.1,0,2.1,0.2,3,0.7c1.3,0.7,2.1,1.9,2.3,3.4c0.2,0.9,0.1,2-0.2,2.8
					c-0.3,1-0.8,1.9-1.7,2.4c-0.4,0.2-0.8,0.4-1.2,0.7C681.2,142.7,681.1,142.7,681,142.8z M674.2,141.7c0.1,0,0.2,0,0.2,0
					c1.5,0,3,0,4.5,0c0.7,0,1.4-0.2,2-0.4c1.1-0.5,1.8-1.2,2.1-2.3c0.1-0.5,0.2-0.9,0.2-1.5c0-1.5-0.8-2.6-2.2-3.2
					c-0.7-0.3-1.5-0.4-2.3-0.4c-1.3,0-2.6,0-3.9,0c-0.2,0-0.2,0-0.4,0v7.8H674.2z"/>
				<path class="st3" d="M790.5,139.6v-7.1h1.5c0.1,0.3,0.2,14.9,0,15.5h-1.5v-6.9c-0.1-0.1-0.1-0.1-0.1-0.1l0,0c-0.1,0-0.2,0-0.2,0
					c-3.1,0-6.2,0-9.3,0c-0.1,0-0.1,0-0.2,0.1v7h-1.5l0,0l0,0c0-0.1,0-0.1,0-0.2c0-5,0-10.1,0-15.1c0-0.1,0-0.2,0-0.2h1.5v7
					C781.1,139.7,789.8,139.8,790.5,139.6z"/>
				<path class="st3" d="M657.4,140.6h1.3c0,0.2,0,0.2,0,0.3c0,1.7,0,3.4,0,5c0,0.2-0.1,0.4-0.3,0.6c-1.2,0.9-2.7,1.5-4.1,1.7
					c-2.6,0.4-5-0.3-6.7-2.1c-3.9-3.6-3.3-9.8,1.4-12.5c3-1.8,7.1-1.5,9.7,0.7c0.1,0.1,0.2,0.1,0.2,0.2l-0.9,1.1
					c-0.2-0.1-0.2-0.2-0.3-0.2c-2.3-2-6-2.2-8.6-0.2c-2.8,2.2-3.3,6.3-1.1,9.2c2,2.3,5.2,3.3,8.1,1.9c0.4-0.2,0.7-0.4,1.1-0.6
					c0.2-0.1,0.3-0.3,0.3-0.6c0-1.4,0-2.8,0-4.1L657.4,140.6L657.4,140.6z"/>
				<path class="st3" d="M762,133.9v14.2h-1.5c0-0.9,0-1.9,0-2.8c0-0.9,0-2,0-2.8V134c-1.7,0-3.4,0-5.1,0v-1.3
					c0.3-0.1,11.4-0.1,11.9,0v1.3L762,133.9L762,133.9z"/>
				<g>
					<rect x="645.2" y="153.5" class="st3" width="147" height="13.6"/>
				</g>
			</g>
		</g>
		<g>
			<path class="st6" d="M657.8,160.5v3.3H657v-7.2h1.5c0.6,0,0.9,0,1.1,0.1c0.2,0.1,0.5,0.2,0.7,0.3c0.2,0.2,0.4,0.4,0.6,0.7
				c0.2,0.3,0.2,0.7,0.2,0.9c0,0.4-0.1,0.7-0.2,0.9c-0.2,0.3-0.3,0.6-0.6,0.7c-0.2,0.2-0.4,0.2-0.7,0.3c-0.2,0.1-0.7,0.1-1.1,0.1
				h-0.2L657.8,160.5L657.8,160.5z M657.8,159.7h0.5c0.7,0,1.2-0.1,1.5-0.2c0.2-0.2,0.4-0.5,0.4-0.9c0-0.5-0.2-0.7-0.4-1
				c-0.2-0.2-0.7-0.3-1.5-0.3h-0.5V159.7z"/>
			<path class="st6" d="M674.7,163.7v-7.2h1.7c0.5,0,0.8,0,1.1,0.1c0.2,0.1,0.5,0.2,0.7,0.3c0.2,0.2,0.4,0.4,0.5,0.7
				c0.2,0.3,0.2,0.7,0.2,0.9c0,0.7-0.2,1.1-0.5,1.4s-0.8,0.5-1.5,0.5h-0.2l2.8,3.5h-1.1l-2.6-3.5h-0.2v3.5L674.7,163.7L674.7,163.7z
				 M675.5,157.2v2.4h0.7c0.7,0,1.1-0.1,1.4-0.2c0.2-0.2,0.3-0.5,0.3-0.9c0-0.5-0.2-0.7-0.4-1c-0.2-0.2-0.7-0.3-1.3-0.3H675.5z"/>
			<path class="st6" d="M700.2,160.1c0,0.6-0.1,1-0.3,1.5s-0.5,0.8-0.8,1.2c-0.4,0.4-0.7,0.7-1.2,0.8c-0.5,0.2-1,0.3-1.5,0.3
				s-1-0.1-1.5-0.3s-0.9-0.5-1.2-0.8c-0.4-0.4-0.7-0.7-0.8-1.2c-0.2-0.5-0.3-0.9-0.3-1.5s0.1-1,0.3-1.5s0.5-0.8,0.8-1.2
				s0.7-0.7,1.2-0.8c0.5-0.2,1-0.3,1.5-0.3c0.6,0,1,0.1,1.5,0.3s0.9,0.5,1.2,0.8c0.4,0.4,0.7,0.7,0.8,1.2
				C700.1,159.1,700.2,159.6,700.2,160.1z M696.3,163.1c0.4,0,0.7-0.1,1.1-0.2c0.4-0.2,0.7-0.4,1-0.7s0.6-0.7,0.7-1
				c0.2-0.4,0.2-0.7,0.2-1.1s-0.1-0.7-0.2-1.1c-0.2-0.4-0.4-0.7-0.7-1s-0.7-0.6-1-0.7c-0.4-0.2-0.7-0.2-1.1-0.2
				c-0.4,0-0.7,0.1-1.1,0.2c-0.4,0.2-0.7,0.4-0.9,0.7s-0.6,0.7-0.7,1c-0.2,0.4-0.2,0.7-0.2,1.1s0.1,0.7,0.2,1.1
				c0.2,0.4,0.4,0.7,0.7,1s0.7,0.6,1,0.7C695.5,163,695.9,163.1,696.3,163.1z"/>
			<path class="st6" d="M715.6,156.4h0.8v5.6c0,0.7-0.2,1.1-0.4,1.4c-0.3,0.3-0.7,0.5-1.2,0.5c-0.3,0-0.6-0.1-0.7-0.2
				c-0.2-0.2-0.5-0.3-0.7-0.6l0.6-0.6c0.2,0.2,0.3,0.3,0.5,0.4s0.3,0.2,0.5,0.2s0.5-0.1,0.6-0.3s0.2-0.7,0.2-1.1L715.6,156.4
				L715.6,156.4z"/>
			<path class="st6" d="M730.9,163.7v-7.2h3.8v0.7h-2.9v2.1h2.9v0.7h-2.9v2.8h2.9v0.7L730.9,163.7L730.9,163.7z"/>
			<path class="st6" d="M754.6,158.2c-0.4-0.4-0.7-0.7-1.1-0.8c-0.4-0.2-0.8-0.3-1.3-0.3c-0.4,0-0.7,0.1-1.1,0.2
				c-0.4,0.1-0.7,0.4-0.9,0.7s-0.5,0.7-0.7,1c-0.2,0.4-0.2,0.7-0.2,1.1c0,0.3,0.1,0.7,0.2,0.9c0.1,0.3,0.2,0.6,0.4,0.7
				c0.3,0.4,0.7,0.7,1.1,0.9c0.5,0.2,0.8,0.3,1.4,0.3c0.5,0,0.9-0.1,1.3-0.3c0.4-0.2,0.7-0.5,1.1-0.8v1.1c-0.4,0.2-0.7,0.5-1.1,0.7
				c-0.4,0.2-0.8,0.2-1.3,0.2c-0.4,0-0.7-0.1-1.1-0.2c-0.4-0.1-0.7-0.3-1-0.5c-0.6-0.4-0.9-0.8-1.2-1.4c-0.3-0.6-0.4-1.1-0.4-1.8
				c0-0.6,0.1-1.1,0.3-1.5c0.2-0.5,0.5-0.8,0.8-1.2c0.4-0.4,0.7-0.7,1.2-0.7c0.5-0.2,0.9-0.2,1.5-0.2c0.4,0,0.8,0.1,1.2,0.2
				c0.4,0.2,0.7,0.3,1.1,0.7L754.6,158.2L754.6,158.2z"/>
			<path class="st6" d="M770,163.7v-6.4h-2.1v-0.8h5v0.8h-2.1v6.4H770z"/>
		</g>
	</g>
	<g transform="translate(0 -902.36)">
		<g transform="translate(-16.252 29.372)">
			<g>
				<path class="st3" d="M67.7,1050.2H70v-17.6h-2.3V1050.2z"/>
				<path class="st3" d="M73.5,1037.4h1.9v2h0.1c0.9-1.6,2.3-2.3,4.2-2.3c3.3,0,4.4,1.9,4.4,4.7v8.4h-2v-8.6c0-1.5-1-2.5-2.6-2.5
					c-2.5,0-3.7,1.7-3.7,4v7.2h-2.1L73.5,1037.4L73.5,1037.4z"/>
				<path class="st3" d="M92.9,1050.2h-2.2l-4.8-12.8h2.3l3.5,10.6l0,0l3.4-10.6h2.2C97.6,1037.4,92.9,1050.2,92.9,1050.2z"/>
				<path class="st3" d="M108.3,1042.6c-0.1-2-1.6-3.6-3.6-3.6c-2.2,0-3.5,1.6-3.6,3.6H108.3z M110.3,1046.2
					c-0.6,2.8-2.6,4.4-5.5,4.4c-4.1,0-6-2.8-6.1-6.7c0-3.9,2.5-6.6,6-6.6c4.6,0,5.9,4.3,5.8,7.3H101c-0.1,2.2,1.2,4.2,4,4.2
					c1.7,0,2.9-0.8,3.3-2.5h2V1046.2z"/>
				<path class="st3" d="M113.9,1046.2c0.1,1.9,1.7,2.4,3.4,2.4c1.3,0,3-0.3,3-1.9s-2-1.9-4.2-2.3c-2-0.5-4.2-1.1-4.2-3.6
					s2.5-3.6,4.8-3.6c2.8,0,5.1,0.9,5.3,4h-2.1c-0.1-1.6-1.6-2.1-2.9-2.1c-1.2,0-2.7,0.3-2.7,1.6c0,1.5,2.2,1.7,4.2,2.2
					c2.1,0.5,4.2,1.1,4.2,3.6c0,3-2.8,4.1-5.5,4.1c-2.8,0-5.3-1.1-5.4-4.4L113.9,1046.2L113.9,1046.2z"/>
				<path class="st3" d="M127.8,1037.4h2.5v1.8h-2.5v7.9c0,0.9,0.3,1.1,1.6,1.1h0.9v1.8h-1.6c-2.1,0-3-0.4-3-2.7v-8.1h-2.1v-1.8h2.1
					v-3.9h2.1V1037.4L127.8,1037.4z"/>
				<path class="st3" d="M132.6,1037.4h2.1v12.8h-2.1V1037.4z M134.7,1035.1h-2.1v-2.5h2.1V1035.1z"/>
				<path class="st3" d="M137.9,1037.4h1.9v2h0.1c0.9-1.6,2.3-2.3,4.2-2.3c3.3,0,4.4,1.9,4.4,4.7v8.4h-2.1v-8.6c0-1.5-1-2.5-2.6-2.5
					c-2.5,0-3.7,1.7-3.7,4v7.2H138L137.9,1037.4L137.9,1037.4z"/>
				<path class="st3" d="M160.4,1043.5c0-2.2-1-4.6-3.6-4.6c-2.7,0-3.7,2.2-3.7,4.7c0,2.3,0.8,4.9,3.6,4.9
					C159.4,1048.5,160.4,1046,160.4,1043.5 M162.5,1049.1c0,4.2-1.9,6.3-5.9,6.3c-2.4,0-5.2-0.9-5.3-3.7h2.1c0.1,1.5,1.9,2,3.3,2
					c2.7,0,3.9-1.9,3.9-4.9v-0.8h-0.1c-0.7,1.5-2.3,2.3-4,2.3c-3.7,0-5.7-2.9-5.7-6.5c0-3,1.5-6.7,5.9-6.7c1.6,0,3,0.7,3.7,2.1l0,0
					h0.1v-1.8h1.9L162.5,1049.1L162.5,1049.1z"/>
				<path class="st3" d="M172.4,1037.4h2.1v12.8h-2.1V1037.4z M174.5,1035.1h-2.1v-2.5h2.1V1035.1z"/>
				<path class="st3" d="M177.7,1037.4h1.9v2h0.1c0.9-1.6,2.3-2.3,4.2-2.3c3.3,0,4.4,1.9,4.4,4.7v8.4h-2.1v-8.6c0-1.5-1-2.5-2.6-2.5
					c-2.5,0-3.7,1.7-3.7,4v7.2h-2.1L177.7,1037.4L177.7,1037.4z"/>
				<path class="st3" d="M198,1037.4h1.9v2.7h0.1c1-2,2.4-3,4.7-2.9v2.2c-3.3,0-4.7,1.9-4.7,5.2v5.7h-2.1v-12.9L198,1037.4
					L198,1037.4z"/>
				<path class="st3" d="M216.7,1050.2h-1.9v-2h-0.1c-0.9,1.6-2.3,2.3-4.2,2.3c-3.3,0-4.4-1.9-4.4-4.7v-8.4h2.1v8.6
					c0,1.5,1,2.5,2.6,2.5c2.5,0,3.7-1.7,3.7-4v-7.2h2.1L216.7,1050.2L216.7,1050.2z"/>
				<path class="st3" d="M219.8,1037.4h1.9v2.7l0,0c1-2,2.4-3,4.7-2.9v2.2c-3.3,0-4.7,1.9-4.7,5.2v5.7h-2.1v-12.9L219.8,1037.4
					L219.8,1037.4z"/>
				<path class="st3" d="M235.8,1043.6c-0.8,0.6-2.4,0.6-3.7,0.9c-1.4,0.2-2.5,0.7-2.5,2.3c0,1.4,1.2,1.8,2.4,1.8
					c2.7,0,3.9-1.7,3.9-2.8L235.8,1043.6L235.8,1043.6z M239.2,1050.2c-0.4,0.2-0.8,0.3-1.5,0.3c-1.1,0-1.8-0.6-1.8-1.9
					c-1.1,1.3-2.7,1.9-4.5,1.9c-2.3,0-4.3-1-4.3-3.5c0-2.8,2.1-3.5,4.4-4c2.3-0.4,4.3-0.3,4.3-1.9c0-1.8-1.5-2.1-2.8-2.1
					c-1.8,0-3,0.5-3.1,2.4h-2.2c0.1-3.1,2.5-4.3,5.4-4.3c2.3,0,4.8,0.5,4.8,3.5v6.6c0,1,0,1.4,0.7,1.4c0.2,0,0.4,0,0.6-0.1V1050.2
					L239.2,1050.2z"/>
				<path class="st3" d="M241.1,1032.6h2.1v17.6h-2.1V1032.6z"/>
				<path class="st3" d="M259.2,1039c-2.8,0-3.9,2.4-3.9,4.8c0,2.5,1.1,4.9,4.1,4.9c2.8,0,3.9-2.4,3.9-5
					C263.1,1041.3,261.9,1039,259.2,1039 M253.3,1037.4h2.1v1.7h0.1c0.7-1.4,2.3-2,4.1-2c4,0,5.9,3.1,5.9,6.7s-1.9,6.6-5.8,6.6
					c-1.3,0-3.1-0.5-4.2-2h-0.2v6.6h-2V1037.4L253.3,1037.4z"/>
				<path class="st3" d="M276.6,1042.6c-0.1-2-1.6-3.6-3.6-3.6c-2.2,0-3.5,1.6-3.6,3.6H276.6L276.6,1042.6z M278.6,1046.2
					c-0.6,2.8-2.6,4.4-5.5,4.4c-4.1,0-6-2.8-6.1-6.7c0-3.9,2.5-6.6,6-6.6c4.6,0,5.9,4.3,5.8,7.3h-9.5c-0.1,2.2,1.2,4.2,4,4.2
					c1.7,0,2.9-0.8,3.3-2.5h2V1046.2z"/>
				<path class="st3" d="M286.3,1048.7c2.2,0,4-1.7,4-4.8c0-3.1-1.8-4.9-4-4.9s-4,1.7-4,4.9C282.4,1047,284.2,1048.7,286.3,1048.7
					 M286.3,1037.1c4.1,0,6.2,2.9,6.2,6.7s-2.1,6.7-6.2,6.7s-6.2-2.9-6.2-6.7S282.4,1037.1,286.3,1037.1"/>
				<path class="st3" d="M300.9,1039c-2.8,0-3.9,2.4-3.9,4.8c0,2.5,1.1,4.9,4.1,4.9c2.8,0,3.9-2.4,3.9-5
					C304.9,1041.3,303.7,1039,300.9,1039 M295,1037.4h2.1v1.7l0,0c0.7-1.4,2.3-2,4.1-2c4,0,5.9,3.1,5.9,6.7s-1.9,6.6-5.8,6.6
					c-1.3,0-3.1-0.5-4.2-2l0,0v6.6H295V1037.4L295,1037.4z"/>
				<path class="st3" d="M309.6,1032.6h2.1v17.6h-2.1V1032.6z"/>
				<path class="st3" d="M323.7,1042.6c-0.1-2-1.6-3.6-3.6-3.6c-2.2,0-3.5,1.6-3.6,3.6H323.7z M325.7,1046.2
					c-0.6,2.8-2.6,4.4-5.5,4.4c-4.1,0-6-2.8-6.1-6.7c0-3.9,2.5-6.6,6-6.6c4.6,0,5.9,4.3,5.8,7.3h-9.5c-0.1,2.2,1.2,4.2,4,4.2
					c1.7,0,2.9-0.8,3.3-2.5h2V1046.2z"/>
				<path class="st3" d="M266,972.7h7c7.1,0,10.3,3,12.1,5.8c2.3,3.5,3,7.9,3,11.6c0,8.9-3.3,17.1-15.2,17.1h-6.8v-34.5H266z
					 M250.1,1021.2H272c23.7,0,32.1-14.4,32.1-31.3c0-6.8-1.5-13.6-5.8-19.4c-8.1-11.6-20.5-11.6-27.7-11.6h-20.7L250.1,1021.2
					L250.1,1021.2z M213.3,978.1h0.2l0,0l6.5,21.4h-13.1L213.3,978.1L213.3,978.1z M224.2,1012.1l3,8.9h17.2l-24.8-62.4H207
					l-25,62.4h17.1l3.3-8.9H224.2L224.2,1012.1z M149.6,1021.2h15.2v-23.8h18v-14.1h-18v-10.6h18.9v-13.9h-34.1V1021.2L149.6,1021.2
					z M122.4,1021.2h15.9v-62.4h-15.9V1021.2z"/>
			</g>
			<g>
				<path class="st7" d="M81.8,922.7"/>
				<path class="st7" d="M42.1,922.7"/>
				<path class="st7" d="M62,922.8c-0.8-1.2-1.2-1.8-2.2-2.8s-1.5-1.3-2.6-2.2c-0.8-0.5-1.3-0.7-2-1c-1-0.5-1.5-0.8-2.3-1.7
					c-0.8-0.7-1.2-1.2-1.8-2.2c-0.8-1.2-1.3-1.8-1.8-3.1c-0.5-1.2-0.7-1.8-0.8-3.1c-0.2-1.3-0.2-2,0-3.3c0.2-1,0.3-1.5,0.5-2.5
					c0.2-0.5,0.3-1,0.7-1.5c0.3-0.5,0.5-0.7,0.8-1.2v-19.5h1.2v19.9c0.2,1.2,0,1.7,0.2,2.8c0.2,1,0.5,1.5,1,2.5c0.7,1,1.2,1.5,2,2
					c0.5,0.3,0.8,0.7,1.3,0.7c0.3,0,0.7,0,0.7,0c-0.3-0.8-0.5-2-0.5-3.3s0.2-2.6,0.5-3.5v-21l0,0h1.2V898l0,0v-0.2
					c0.3-0.3,0.5-0.7,0.8-1s0.5-0.5,0.8-0.7s0.5-0.3,0.8-0.3c0.5-0.2,1.2-0.2,1.2-0.2s0.7,0,1.2,0.2c0.3,0.2,0.5,0.2,0.8,0.3
					c0.3,0.2,0.5,0.3,0.8,0.7s0.5,0.5,0.8,1v0.2l0,0v-19h1.2l0,0v21c0.3,1,0.5,2.2,0.5,3.5s-0.2,2.5-0.5,3.3c0,0,0.5,0,0.7,0
					c0.7-0.2,0.8-0.3,1.3-0.7c1-0.7,1.5-1.2,2-2s0.7-1.5,1-2.5s0.2-1.7,0.2-2.8v-19.9h1.2v19.5c0.3,0.3,0.5,0.7,0.8,1.2
					s0.3,0.8,0.5,1.5c0.3,1,0.5,1.5,0.5,2.5c0.2,1.3,0.2,2,0,3.3s-0.3,2-0.8,3.1c-0.5,1.3-1,2-1.8,3.1c-0.7,0.8-1,1.3-1.8,2.2
					c-0.8,0.7-1.3,1-2.3,1.7c-0.8,0.5-1.3,0.7-2,1c-1.2,0.7-1.7,1.2-2.6,2.2C63.1,921,62.8,921.7,62,922.8"/>
				<path class="st7" d="M62,939.5c-1.7-2.8-3.8-5.1-6.5-6.8c0,0-1-0.7-3.6-2.2c-2-1.2-3.5-2.6-4.6-4.1c-6.8-10.1-3.1-19.4-2.5-19
					l0,0l0,0v-28.5H46v30.6c0,0-0.7,3.5,4.8,6c3.5,1.5,8.1,5.6,11.1,10.9c3.1-5.3,7.6-9.4,11.1-10.9c5.3-2.3,4.8-6,4.8-6v-30.6H79
					v28.5l0,0l0,0c0.7-0.2,4.5,8.9-2.5,19c-1.2,1.5-2.5,3-4.6,4.1c-2.5,1.5-3.6,2.2-3.6,2.2C65.8,934.6,63.6,936.7,62,939.5"/>
				<path class="st7" d="M62,956.4c0,0-1.7-5.5-8.1-7.9c-21.7-8.1-13.7-25-13.1-25.8v-43.9H42v43.7c0,0.5,0.2,1.8,0.7,3.1
					c0.7,1.7,1.7,3.5,2.8,4.1c2.6,1.7,4.5,2,7,3.3c2.2,1.2,5,3.1,9.4,8.1c4.3-5,7.1-7,9.4-8.1c2.5-1.3,4.3-1.7,7-3.3
					c1.2-0.7,2.2-2.5,2.8-4.1c0.5-1.3,0.7-2.6,0.7-3.1v-43.7H83v44c0.8,0.8,8.6,17.7-13.1,25.8C63.6,951,62,956.4,62,956.4"/>
				<path class="st7" d="M30.3,1021.2h-14v-12.4h13.9c6.1,0,11.1-5,11.1-11.1v-38.9h11.9V998C53.4,1010.8,43.1,1021.2,30.3,1021.2"
					/>
				<path class="st7" d="M93.6,1021.2h14.1v-12.4H93.8c-6.1,0-11.1-5-11.1-11.1v-38.9h-12V998C70.6,1010.8,80.8,1021.2,93.6,1021.2"
					/>
				<path class="st7" d="M30.2,1036.1H16.3v-12.4h13.9c15.9,0,25.7-12.4,25.7-26.2v-38.9h11.9v39.2
					C67.9,1018.7,51.5,1036.1,30.2,1036.1"/>
			</g>
		</g>
	</g>
</g>
<g id="Layer_3">
</g>
</svg>
