<?xml version="1.0" encoding="utf-8"?>
<!-- Generator: Adobe Illustrator 23.0.5, SVG Export Plug-In . SVG Version: 6.00 Build 0)  -->
<svg version="1.1"
	 id="Layer_1" xmlns:cc="http://creativecommons.org/ns#" xmlns:dc="http://purl.org/dc/elements/1.1/" xmlns:rdf="http://www.w3.org/1999/02/22-rdf-syntax-ns#"
	 xmlns="http://www.w3.org/2000/svg" xmlns:xlink="http://www.w3.org/1999/xlink" x="0px" y="0px" viewBox="0 0 350 150"
	 style="enable-background:new 0 0 350 150;" xml:space="preserve">
<style type="text/css">
	.st0{fill:#FFFFFF;}
	.st1{fill:#BFBFBF;}
</style>
<g transform="translate(0 -902.36)">
	<g transform="translate(-16.252 29.372)">
		<g>
			<path class="st0" d="M41.8,1017h2.7v-20.4h-2.7V1017z"/>
			<path class="st0" d="M48.6,1002.2h2.3v2.3h0.1c1-1.8,2.7-2.7,4.8-2.7c3.9,0,5.1,2.2,5.1,5.4v9.7h-2.4v-10c0-1.8-1.1-3-3-3
				c-2.9,0-4.4,2-4.4,4.6v8.3h-2.4L48.6,1002.2L48.6,1002.2z"/>
			<path class="st0" d="M71,1017h-2.6l-5.5-14.8h2.7l4.1,12.3h0.1l4-12.3h2.5C76.4,1002.2,71,1017,71,1017z"/>
			<path class="st0" d="M88.8,1008.2c-0.1-2.3-1.9-4.2-4.3-4.2c-2.5,0-4.1,1.9-4.2,4.2H88.8z M91.1,1012.3c-0.7,3.3-3,5-6.3,5
				c-4.7,0-6.9-3.3-7.1-7.8c0-4.4,2.9-7.7,6.9-7.7c5.2,0,6.8,4.9,6.7,8.5h-11c-0.1,2.6,1.4,4.8,4.6,4.8c2,0,3.4-1,3.8-2.9
				L91.1,1012.3L91.1,1012.3z"/>
			<path class="st0" d="M95.2,1012.3c0.1,2.2,2,2.9,4,2.9c1.5,0,3.6-0.3,3.6-2.2c0-1.9-2.4-2.2-4.8-2.7c-2.4-0.5-4.8-1.3-4.8-4.2
				c0-3,2.9-4.2,5.5-4.2c3.3,0,5.9,1,6,4.6h-2.4c-0.2-1.9-1.8-2.5-3.4-2.5c-1.5,0-3.1,0.4-3.1,1.9c0,1.7,2.6,2,4.8,2.6
				c2.4,0.5,4.8,1.3,4.8,4.2c0,3.5-3.3,4.7-6.3,4.7c-3.3,0-6.1-1.3-6.3-5L95.2,1012.3L95.2,1012.3z"/>
			<path class="st0" d="M111.3,1002.2h2.9v2.1h-2.9v9.2c0,1.1,0.3,1.3,1.8,1.3h1.1v2.1h-1.9c-2.5,0-3.5-0.5-3.5-3.2v-9.4h-2.5v-2.1
				h2.5v-4.4h2.4V1002.2L111.3,1002.2z"/>
			<path class="st0" d="M116.9,1002.2h2.4v14.8h-2.4V1002.2z M119.3,999.5h-2.4v-3h2.4V999.5z"/>
			<path class="st0" d="M123,1002.2h2.3v2.3h0.1c1-1.8,2.7-2.7,4.8-2.7c3.9,0,5.1,2.2,5.1,5.4v9.7h-2.4v-10c0-1.8-1.1-3-3-3
				c-2.9,0-4.4,2-4.4,4.6v8.3H123L123,1002.2L123,1002.2z"/>
			<path class="st0" d="M149.1,1009.3c0-2.6-1.1-5.3-4.2-5.3c-3.1,0-4.4,2.5-4.4,5.4c0,2.7,1,5.6,4.2,5.6
				C147.9,1015,149.1,1012.1,149.1,1009.3 M151.5,1015.7c0,4.8-2.2,7.3-6.8,7.3c-2.8,0-6-1.1-6.1-4.3h2.4c0.1,1.8,2.2,2.4,3.8,2.4
				c3.2,0,4.4-2.3,4.4-5.6v-1h-0.1c-0.8,1.8-2.7,2.7-4.6,2.7c-4.4,0-6.6-3.5-6.6-7.5c0-3.5,1.7-7.8,6.8-7.8c1.9,0,3.5,0.8,4.4,2.5h0
				h0.1v-2.1h2.3L151.5,1015.7L151.5,1015.7z"/>
			<path class="st0" d="M163,1002.2h2.4v14.8H163V1002.2z M165.4,999.5H163v-3h2.4V999.5z"/>
			<path class="st0" d="M169.1,1002.2h2.3v2.3h0.1c1-1.8,2.7-2.7,4.8-2.7c3.9,0,5.1,2.2,5.1,5.4v9.7h-2.4v-10c0-1.8-1.1-3-3-3
				c-2.9,0-4.4,2-4.4,4.6v8.3h-2.4L169.1,1002.2L169.1,1002.2z"/>
			<path class="st0" d="M192.6,1002.2h2.3v3.1h0.1c1.2-2.4,2.8-3.5,5.4-3.5v2.6c-3.9,0-5.3,2.2-5.3,6v6.6h-2.4V1002.2L192.6,1002.2z
				"/>
			<path class="st0" d="M214.3,1017H212v-2.3h-0.1c-1,1.8-2.7,2.7-4.8,2.7c-3.9,0-5.1-2.2-5.1-5.4v-9.7h2.4v10c0,1.8,1.1,3,3,3
				c2.9,0,4.4-2,4.4-4.6v-8.3h2.4L214.3,1017L214.3,1017z"/>
			<path class="st0" d="M217.8,1002.2h2.3v3.1h0.1c1.2-2.4,2.8-3.5,5.4-3.5v2.6c-3.9,0-5.3,2.2-5.3,6v6.6h-2.4V1002.2L217.8,1002.2z
				"/>
			<path class="st0" d="M236.4,1009.4c-0.9,0.7-2.8,0.7-4.4,1c-1.6,0.3-3,0.9-3,2.7c0,1.6,1.4,2.2,2.9,2.2c3.2,0,4.5-2,4.5-3.3
				L236.4,1009.4L236.4,1009.4z M240.3,1017c-0.4,0.3-1,0.4-1.7,0.4c-1.3,0-2.1-0.7-2.1-2.3c-1.3,1.6-3.1,2.3-5.2,2.3
				c-2.7,0-4.9-1.2-4.9-4.1c0-3.3,2.5-4.1,5-4.5c2.7-0.5,5-0.3,5-2.2c0-2.1-1.7-2.5-3.3-2.5c-2.1,0-3.6,0.6-3.7,2.8H227
				c0.1-3.7,3-4.9,6.2-4.9c2.7,0,5.5,0.6,5.5,4.1v7.6c0,1.1,0,1.7,0.8,1.7c0.2,0,0.4,0,0.7-0.1L240.3,1017L240.3,1017z"/>
			<path class="st0" d="M242.6,996.6h2.4v20.4h-2.4V996.6z"/>
			<path class="st0" d="M263.4,1004c-3.3,0-4.5,2.8-4.5,5.6c0,2.9,1.3,5.6,4.7,5.6c3.3,0,4.4-2.8,4.4-5.7
				C268,1006.7,266.6,1004,263.4,1004 M256.6,1002.2h2.4v2h0.1c0.8-1.6,2.7-2.3,4.7-2.3c4.5,0,6.8,3.6,6.8,7.8
				c0,4.2-2.2,7.7-6.7,7.7c-1.5,0-3.7-0.6-4.8-2.3H259v7.6h-2.4L256.6,1002.2L256.6,1002.2z"/>
			<path class="st0" d="M283.6,1008.2c-0.1-2.3-1.9-4.2-4.3-4.2c-2.5,0-4.1,1.9-4.2,4.2H283.6L283.6,1008.2z M285.9,1012.3
				c-0.7,3.3-3,5-6.3,5c-4.7,0-6.9-3.3-7.1-7.8c0-4.4,2.9-7.7,6.9-7.7c5.2,0,6.8,4.9,6.7,8.5h-11c-0.1,2.6,1.4,4.8,4.6,4.8
				c2,0,3.4-1,3.8-2.9L285.9,1012.3L285.9,1012.3z"/>
			<path class="st0" d="M294.9,1015.2c2.5,0,4.6-2,4.6-5.6c0-3.6-2.1-5.6-4.6-5.6c-2.5,0-4.6,2-4.6,5.6
				C290.3,1013.2,292.4,1015.2,294.9,1015.2 M294.9,1001.9c4.7,0,7.2,3.4,7.2,7.7c0,4.3-2.5,7.7-7.2,7.7s-7.2-3.4-7.2-7.7
				C287.7,1005.3,290.2,1001.9,294.9,1001.9"/>
			<path class="st0" d="M311.8,1004c-3.3,0-4.5,2.8-4.5,5.6c0,2.9,1.3,5.6,4.7,5.6c3.3,0,4.4-2.8,4.4-5.7
				C316.3,1006.7,314.9,1004,311.8,1004 M304.9,1002.2h2.4v2h0.1c0.8-1.6,2.7-2.3,4.7-2.3c4.5,0,6.8,3.6,6.8,7.8
				c0,4.2-2.2,7.7-6.7,7.7c-1.5,0-3.7-0.6-4.8-2.3h-0.1v7.6h-2.4L304.9,1002.2L304.9,1002.2z"/>
			<path class="st0" d="M321.8,996.6h2.4v20.4h-2.4V996.6z"/>
			<path class="st0" d="M338.1,1008.2c-0.1-2.3-1.9-4.2-4.3-4.2c-2.5,0-4.1,1.9-4.2,4.2H338.1z M340.5,1012.3c-0.7,3.3-3,5-6.3,5
				c-4.7,0-6.9-3.3-7.1-7.8c0-4.4,2.9-7.7,6.9-7.7c5.2,0,6.8,4.9,6.7,8.5h-11c-0.1,2.6,1.4,4.8,4.6,4.8c2,0,3.4-1,3.8-2.9
				L340.5,1012.3L340.5,1012.3z"/>
			<path class="st0" d="M218.8,939.4h4.9c5,0,7.3,2.1,8.6,4.1c1.6,2.5,2.1,5.7,2.1,8.2c0,6.3-2.4,12.1-10.8,12.1h-4.8L218.8,939.4
				L218.8,939.4z M207.5,973.7H223c16.8,0,22.8-10.2,22.8-22.2c0-4.8-1-9.6-4.1-13.7c-5.7-8.2-14.6-8.2-19.5-8.2h-14.6L207.5,973.7
				L207.5,973.7z M181.5,943.2h0.1h0.1l4.5,15.1H177L181.5,943.2L181.5,943.2z M189.2,967.3l2.1,6.4h12.2L186,929.5h-8.9l-17.7,44.2
				h12.1l2.3-6.4L189.2,967.3L189.2,967.3z M136.3,973.7h10.8v-16.8H160v-9.9h-12.8v-7.5h13.3v-9.9h-24.1V973.7L136.3,973.7z
				 M117,973.7h11.3v-44.2H117C117,929.5,117,973.7,117,973.7z"/>
		</g>
		<g>
			<path class="st1" d="M88.3,903.9"/>
			<path class="st1" d="M60.2,903.9"/>
			<path class="st1" d="M74.2,904.1c-0.6-0.8-0.8-1.3-1.5-2c-0.6-0.7-1.1-1-1.9-1.5c-0.5-0.3-0.9-0.4-1.4-0.8
				c-0.7-0.4-1-0.6-1.6-1.1c-0.6-0.5-0.8-0.9-1.3-1.5c-0.6-0.8-0.9-1.3-1.3-2.3c-0.3-0.8-0.5-1.3-0.6-2.2c-0.1-0.9-0.1-1.5,0-2.4
				c0.1-0.7,0.2-1.1,0.4-1.7c0.1-0.4,0.2-0.6,0.4-1c0.2-0.3,0.3-0.5,0.6-0.8V873h0.8v14c0.1,0.8,0,1.2,0.2,2
				c0.2,0.7,0.3,1.1,0.7,1.7c0.4,0.7,0.8,1,1.4,1.4c0.4,0.2,0.6,0.4,1,0.5c0.2,0,0.5,0,0.5,0c-0.2-0.6-0.3-1.5-0.3-2.3
				c0-1,0.1-1.8,0.4-2.5V873h0h0.8v13.5l0,0l0-0.1c0.2-0.3,0.3-0.4,0.6-0.7c0.2-0.2,0.4-0.3,0.6-0.4c0.2-0.1,0.4-0.2,0.6-0.2
				c0.3-0.1,0.8-0.1,0.8-0.1s0.5,0,0.8,0.1c0.3,0.1,0.4,0.1,0.6,0.2c0.3,0.1,0.4,0.2,0.6,0.4c0.3,0.2,0.4,0.4,0.6,0.7l0,0.1l0,0V873
				h0.8h0v14.9c0.2,0.7,0.4,1.5,0.4,2.5c0,0.9-0.1,1.7-0.3,2.3c0,0,0.3,0,0.5,0c0.4-0.1,0.6-0.3,1-0.5c0.7-0.4,1-0.8,1.4-1.4
				c0.4-0.6,0.5-1,0.7-1.7c0.2-0.8,0.1-1.2,0.2-2v-14h0.8v13.8c0.3,0.3,0.4,0.5,0.6,0.8c0.2,0.4,0.3,0.6,0.4,1
				c0.2,0.7,0.3,1,0.4,1.7c0.1,0.9,0.1,1.4,0,2.4c-0.1,0.9-0.2,1.4-0.6,2.2c-0.4,1-0.7,1.5-1.3,2.3c-0.5,0.6-0.7,1-1.3,1.5
				c-0.6,0.5-0.9,0.7-1.6,1.1c-0.5,0.3-0.9,0.4-1.4,0.8c-0.8,0.5-1.2,0.8-1.9,1.5C75.1,902.8,74.8,903.3,74.2,904.1"/>
			<path class="st1" d="M74.2,915.9c-1.1-2-2.7-3.6-4.6-4.8c0,0-0.7-0.5-2.5-1.5c-1.5-0.8-2.4-1.9-3.3-2.9
				c-4.9-7.2-2.2-13.7-1.7-13.5l0,0l0,0V873H63v21.7c0,0-0.4,2.5,3.4,4.2c2.4,1.1,5.7,4,7.9,7.8c2.2-3.8,5.4-6.7,7.9-7.8
				c3.8-1.7,3.4-4.2,3.4-4.2V873h0.8v20.1l0,0l0,0c0.5-0.1,3.1,6.4-1.7,13.5c-0.9,1-1.8,2.1-3.3,2.9c-1.8,1-2.5,1.5-2.5,1.5
				C77,912.3,75.4,914,74.2,915.9"/>
			<path class="st1" d="M74.2,927.9c0,0-1.2-3.9-5.7-5.6c-15.3-5.7-9.8-17.7-9.2-18.3v-31h0.8v30.9c0,0.3,0.1,1.3,0.5,2.2
				c0.4,1.2,1.2,2.5,2,3c1.9,1.2,3.2,1.4,5,2.3c1.6,0.8,3.6,2.2,6.6,5.7c3.1-3.6,5.1-4.9,6.6-5.7c1.8-0.9,3.1-1.2,5-2.3
				c0.8-0.5,1.6-1.8,2-3c0.4-1,0.4-1.9,0.5-2.2V873h0.8v31c0.5,0.6,6.1,12.6-9.2,18.3C75.4,924,74.2,927.9,74.2,927.9"/>
			<path class="st1" d="M51.8,973.7h-9.9v-8.8h9.9c4.3,0,7.9-3.5,7.9-7.9v-27.5h8.5l0,27.8C68.2,966.4,60.9,973.7,51.8,973.7"/>
			<path class="st1" d="M96.7,973.7h9.9v-8.8h-9.9c-4.3,0-7.9-3.5-7.9-7.9v-27.5h-8.5l0,27.8C80.4,966.4,87.6,973.7,96.7,973.7"/>
			<path class="st1" d="M51.7,984.3h-9.8v-8.8h9.9c11.2,0,18.2-8.8,18.2-18.5v-27.5h8.5l0,27.8C78.5,972,66.9,984.3,51.7,984.3"/>
		</g>
	</g>
</g>
</svg>
