<svg xmlns="http://www.w3.org/2000/svg" xmlns:xlink="http://www.w3.org/1999/xlink" viewBox="0 0 3543.64 2952"><defs><style>.cls-1{fill:#231f20;}.cls-2{fill:#fff;}.cls-3{opacity:0.5;}.cls-4,.cls-5{fill:none;}.cls-4{stroke:#fff;stroke-miterlimit:10;}.cls-6{fill:#a6a8ab;}.cls-7{mask:url(#mask);}.cls-8{filter:url(#luminosity-noclip);}</style><filter id="luminosity-noclip" x="2.79" y="2622.42" width="3538.06" height="329.58" filterUnits="userSpaceOnUse" color-interpolation-filters="sRGB"><feFlood flood-color="#fff" result="bg"/><feBlend in="SourceGraphic" in2="bg"/></filter><mask id="mask" x="2.79" y="2622.42" width="3538.06" height="329.58" maskUnits="userSpaceOnUse"><g class="cls-8"><path class="cls-1" d="M273.33,2811.46v72H247.4V2690.94h56.83q18.27,0,31.78,4.23t22.37,12A48.38,48.38,0,0,1,371.61,2726,66.22,66.22,0,0,1,376,2750.6a62.72,62.72,0,0,1-4.7,24.58,53.05,53.05,0,0,1-13.77,19.22A64.06,64.06,0,0,1,335,2807q-13.44,4.5-30.77,4.5Zm0-20.69h30.9a60.09,60.09,0,0,0,19.69-3,40.38,40.38,0,0,0,14.31-8.26,34.32,34.32,0,0,0,8.73-12.7,43.35,43.35,0,0,0,3-16.25q0-18.42-11.36-28.76t-34.33-10.34h-30.9Z"/><path class="cls-1" d="M756.75,2803.13v80.35H730.82V2690.94h54.41q18.27,0,31.58,3.7t22,10.68a42.9,42.9,0,0,1,12.83,16.86,56.46,56.46,0,0,1,4.16,22.1,55.39,55.39,0,0,1-3.22,19.08,50.49,50.49,0,0,1-9.34,15.92,56.21,56.21,0,0,1-14.91,12,73.92,73.92,0,0,1-20,7.52,27.42,27.42,0,0,1,8.6,8.2l56.16,76.45H850q-7.11,0-10.48-5.51l-50-68.79a14.55,14.55,0,0,0-5-4.64q-2.68-1.41-8.06-1.41Zm0-18.94H784a66.28,66.28,0,0,0,20.09-2.76,40.67,40.67,0,0,0,14.51-7.79,32.28,32.28,0,0,0,8.8-12,39.26,39.26,0,0,0,3-15.45q0-17.19-11.35-25.93t-33.8-8.73H756.75Z"/><path class="cls-1" d="M1393.07,2787.28a111.09,111.09,0,0,1-6.85,39.7,90.84,90.84,0,0,1-19.35,31.1,86.41,86.41,0,0,1-30,20.22,101.12,101.12,0,0,1-38.76,7.19q-21.24,0-38.7-7.19a86.59,86.59,0,0,1-30-20.22,90.84,90.84,0,0,1-19.35-31.1,118.5,118.5,0,0,1,0-79.41,91.72,91.72,0,0,1,19.35-31.17,86.91,86.91,0,0,1,30-20.35,106.94,106.94,0,0,1,77.46,0,86.73,86.73,0,0,1,30,20.35,91.72,91.72,0,0,1,19.35,31.17A111.11,111.11,0,0,1,1393.07,2787.28Zm-26.74,0a97.74,97.74,0,0,0-4.84-31.85,67.41,67.41,0,0,0-13.7-23.85,59.59,59.59,0,0,0-21.5-15,78.21,78.21,0,0,0-56.29,0,60.29,60.29,0,0,0-21.57,15,66.93,66.93,0,0,0-13.77,23.85,107,107,0,0,0,0,63.62,66.88,66.88,0,0,0,13.77,23.78,59.4,59.4,0,0,0,21.57,14.92,79.19,79.19,0,0,0,56.29,0,58.72,58.72,0,0,0,21.5-14.92,67.35,67.35,0,0,0,13.7-23.78A97.07,97.07,0,0,0,1366.33,2787.28Z"/><path class="cls-1" d="M1820.32,2817a97.4,97.4,0,0,1-4,28.89,58.45,58.45,0,0,1-11.69,21.56,50.92,50.92,0,0,1-19,13.5q-11.28,4.71-25.93,4.71a105.14,105.14,0,0,1-27.14-3.77c.18-2.59.4-5.17.67-7.72s.54-5.08.81-7.59a6,6,0,0,1,1.68-3.7,5.75,5.75,0,0,1,4.23-1.41,23.7,23.7,0,0,1,6.45,1.21,38.42,38.42,0,0,0,10.75,1.21,43.15,43.15,0,0,0,15.78-2.69,28.61,28.61,0,0,0,11.69-8.33,38.08,38.08,0,0,0,7.26-14.44,77.75,77.75,0,0,0,2.48-20.89V2690.94h25.93Z"/><path class="cls-1" d="M2305.08,2690.94v21.23h-92.43v63.95h74.83v20.43h-74.83v65.7h92.43v21.23H2186.45V2690.94Z"/><path class="cls-1" d="M2797.5,2843.71a5.39,5.39,0,0,1,3.9,1.74l10.21,11.15a82.37,82.37,0,0,1-28.68,21.37q-16.87,7.65-40.65,7.66-20.82,0-37.75-7.19a82.61,82.61,0,0,1-28.89-20.16,91.11,91.11,0,0,1-18.54-31.1,116.14,116.14,0,0,1-6.58-39.9,109.25,109.25,0,0,1,7.05-39.91,91.17,91.17,0,0,1,19.82-31.17A88.59,88.59,0,0,1,2708,2696a104.1,104.1,0,0,1,39.3-7.19q21.24,0,36.62,6.58a92.8,92.8,0,0,1,27.34,17.87l-8.47,12a8.93,8.93,0,0,1-2.15,2.22,5.91,5.91,0,0,1-3.49.87,6.77,6.77,0,0,1-3.69-1.27c-1.3-.85-2.85-1.91-4.64-3.16s-3.9-2.6-6.31-4a55.53,55.53,0,0,0-8.6-4,70.54,70.54,0,0,0-11.56-3.16,80.48,80.48,0,0,0-15.18-1.28,73.24,73.24,0,0,0-28.28,5.31,63.28,63.28,0,0,0-22.1,15.12,68.6,68.6,0,0,0-14.45,23.91,91.2,91.2,0,0,0-5.17,31.58q0,18,5.17,32.11a71,71,0,0,0,14.11,23.85,59.5,59.5,0,0,0,21.16,14.84,67.53,67.53,0,0,0,26.33,5.11,107.24,107.24,0,0,0,15.46-1A62.84,62.84,0,0,0,2772,2859a53.27,53.27,0,0,0,10.89-5.44,83.77,83.77,0,0,0,10.14-7.86A6.83,6.83,0,0,1,2797.5,2843.71Z"/><path class="cls-1" d="M3296.24,2690.94v21.9H3234v170.64H3208V2712.84h-62.48v-21.9Z"/></g></mask></defs><g id="Layer_2" data-name="Layer 2"><g id="Layer_1-2" data-name="Layer 1"><rect class="cls-2" x="1648.43" y="547.16" width="9.94" height="74.72"/><path class="cls-2" d="M1673.24,567.78h8.38v8.58h.2c3.77-6.69,9.84-9.84,17.59-9.84,14.22,0,18.62,8.18,18.62,19.78v35.58h-8.89V585.25c0-6.58-4.19-10.88-11-10.88-10.77,0-16,7.22-16,17v30.55h-8.89Z"/><polygon class="cls-2" points="1755.43 621.88 1745.91 621.88 1725.8 567.78 1735.75 567.78 1750.92 612.88 1751.12 612.88 1765.88 567.78 1775.2 567.78 1755.43 621.88"/><path class="cls-2" d="M1829.11,604.72c-2.41,11.92-11,18.42-23.13,18.42-17.26,0-25.43-11.92-25.94-28.47,0-16.22,10.66-28.15,25.42-28.15,19.14,0,25,17.9,24.48,31h-40.5c-.31,9.4,5,17.77,16.85,17.77,7.33,0,12.45-3.55,14-10.56Zm-8.57-15.06c-.43-8.49-6.82-15.29-15.6-15.29-9.31,0-14.87,7-15.5,15.29Z"/><path class="cls-2" d="M1844.21,604.82c.32,7.95,7.22,10.46,14.54,10.46,5.56,0,13.08-1.25,13.08-8s-8.79-8.05-17.68-10-17.68-4.92-17.68-15.28c0-10.88,10.77-15.39,20.19-15.39,11.93,0,21.45,3.77,22.19,17H1870c-.62-6.9-6.69-9.11-12.55-9.11-5.35,0-11.52,1.47-11.52,6.92,0,6.38,9.42,7.42,17.7,9.4,8.89,2,17.68,4.93,17.68,15.39,0,12.86-12,17.06-23,17.06-12.15,0-22.39-4.93-22.93-18.32Z"/><path class="cls-2" d="M1903,567.78h10.78v7.85H1903v33.6c0,4.07,1.15,4.8,6.7,4.8h4.08v7.85H1907c-9.21,0-12.87-1.88-12.87-11.82V575.63h-9.21v-7.85h9.21V551.56H1903Z"/><path class="cls-2" d="M1932.68,558h-8.9V547.16h8.9Zm-8.9,9.74h8.9v54.1h-8.9Z"/><path class="cls-2" d="M1946.08,567.78h8.37v8.58h.22c3.75-6.69,9.81-9.84,17.56-9.84,14.24,0,18.64,8.18,18.64,19.78v35.58H1982V585.25c0-6.58-4.19-10.88-11-10.88-10.78,0-16,7.22-16,17v30.55h-8.89Z"/><path class="cls-2" d="M2050.55,617.27c0,17.58-8.07,26.58-25.12,26.58-10.15,0-21.88-4.07-22.39-15.9h8.88c.42,6.48,8.18,8.79,14,8.79,11.63,0,16.22-8.37,16.22-20.51v-3.56H2042c-2.93,6.6-10,9.83-16.85,9.83-16.11,0-24.17-12.65-24.17-27.41,0-12.76,6.28-28.57,25-28.57,6.82,0,12.87,3,16.12,9h.1v-7.75h8.38Zm-8.79-23.53c0-9.53-4.18-19.37-15.39-19.37-11.4,0-16,9.31-16,19.67,0,9.73,3.55,20.62,15.28,20.62S2041.76,603.88,2041.76,593.74Z"/><path class="cls-2" d="M2101.65,558h-8.89V547.16h8.89Zm-8.89,9.74h8.89v54.1h-8.89Z"/><path class="cls-2" d="M2115.05,567.78h8.37v8.58h.22c3.76-6.69,9.83-9.84,17.57-9.84,14.24,0,18.63,8.18,18.63,19.78v35.58h-8.9V585.25c0-6.58-4.18-10.88-11-10.88-10.76,0-16,7.22-16,17v30.55h-8.9Z"/><path class="cls-2" d="M2201.22,567.78h8.38v11.4h.21c4.28-8.67,10.24-13,19.89-12.66v9.42c-14.36,0-19.59,8.17-19.59,21.87v24.07h-8.89Z"/><path class="cls-2" d="M2280.77,621.88h-8.37V613.3h-.21c-3.77,6.7-9.83,9.84-17.58,9.84-14.23,0-18.63-8.17-18.63-19.78V567.78h8.9v36.63c0,6.59,4.18,10.87,11,10.87,10.77,0,16-7.21,16-16.95V567.78h8.89Z"/><path class="cls-2" d="M2293.47,567.78h8.37v11.4h.19c4.3-8.67,10.26-13,19.9-12.66v9.42c-14.34,0-19.57,8.17-19.57,21.87v24.07h-8.89Z"/><path class="cls-2" d="M2376.13,621.67a11.86,11.86,0,0,1-6.37,1.47c-4.62,0-7.54-2.52-7.54-8.37-4.92,5.75-11.5,8.37-19,8.37-9.85,0-17.9-4.39-17.9-15.18,0-12.25,9.11-14.86,18.31-16.63,9.84-1.88,18.22-1.26,18.22-8,0-7.74-6.39-9-12-9-7.53,0-13.07,2.31-13.49,10.26h-8.91c.54-13.39,10.89-18.11,22.93-18.11,9.72,0,20.3,2.2,20.3,14.86v27.85c0,4.18,0,6,2.82,6a7.46,7.46,0,0,0,2.71-.51Zm-14.43-27.74c-3.45,2.52-10.15,2.63-16.12,3.67s-10.88,3.15-10.88,9.74c0,5.85,5,7.94,10.47,7.94,11.71,0,16.53-7.32,16.53-12.24Z"/><rect class="cls-2" x="2384.54" y="547.16" width="8.9" height="74.72"/><path class="cls-2" d="M2435.84,567.78h8.9v7.33h.21c2.93-6,9.83-8.59,17.27-8.59,16.63,0,24.9,13.19,24.9,28.47s-8.16,28.15-24.7,28.15c-5.54,0-13.49-2.1-17.47-8.48h-.21V642.6h-8.9Zm25.12,6.59c-11.93,0-16.53,10.26-16.53,20.41,0,10.66,4.81,20.5,17.05,20.5s16.22-10.35,16.22-20.92C2477.7,584.21,2472.47,574.37,2461,574.37Z"/><path class="cls-2" d="M2543.33,604.72c-2.4,11.92-11,18.42-23.12,18.42-17.26,0-25.43-11.92-25.95-28.47,0-16.22,10.68-28.15,25.43-28.15,19.16,0,25,17.9,24.49,31h-40.5c-.31,9.4,5,17.77,16.85,17.77,7.33,0,12.44-3.55,14-10.56Zm-8.56-15.06c-.43-8.49-6.82-15.29-15.59-15.29-9.33,0-14.87,7-15.5,15.29Z"/><path class="cls-2" d="M2576.33,566.52c17.16,0,26.26,12.46,26.26,28.37s-9.1,28.25-26.26,28.25-26.27-12.46-26.27-28.25,9.12-28.37,26.27-28.37m0,48.76c9.32,0,16.85-7.32,16.85-20.39s-7.53-20.52-16.85-20.52-16.84,7.33-16.84,20.52S2567,615.28,2576.33,615.28Z"/><path class="cls-2" d="M2613,567.78h8.9v7.33h.2c2.93-6,9.85-8.59,17.28-8.59,16.62,0,24.9,13.19,24.9,28.47s-8.16,28.15-24.7,28.15c-5.55,0-13.5-2.1-17.48-8.48h-.2V642.6H2613Zm25.11,6.59c-11.92,0-16.52,10.26-16.52,20.41,0,10.66,4.8,20.5,17.06,20.5s16.2-10.35,16.2-20.92C2654.83,584.21,2649.6,574.37,2638.09,574.37Z"/><rect class="cls-2" x="2674.88" y="547.16" width="8.89" height="74.72"/><path class="cls-2" d="M2743.29,604.72c-2.39,11.92-11,18.42-23.12,18.42-17.25,0-25.41-11.92-26-28.47,0-16.22,10.67-28.15,25.44-28.15,19.13,0,25,17.9,24.47,31h-40.49c-.31,9.4,5,17.77,16.85,17.77,7.33,0,12.45-3.55,14-10.56Zm-8.56-15.06c-.43-8.49-6.8-15.29-15.59-15.29-9.33,0-14.86,7-15.5,15.29Z"/><path class="cls-2" d="M1924.2,463.09h41.35v-162H1924.2Zm70.69,0h39.62V401.38h47.09V365h-47.09V337.43h48.86V301.11h-88.48Zm193.86-23.4,7.88,23.4h44.89l-64.38-162h-32.58l-65,162H2124l8.51-23.4Zm-28.22-88.26h.64l16.64,55.42H2143.9Zm95.39,111.66h56.69c61.53,0,83.42-37.22,83.42-81.41,0-17.76-3.72-35-14.88-50.37-21-30.2-53.41-30.2-71.6-30.2h-53.63Zm41.38-125.66h17.95c18.38,0,26.71,7.68,31.54,14.92,5.91,9.17,7.85,20.77,7.85,30,0,23-8.71,44.44-39.62,44.44H2297.3Z"/><path class="cls-2" d="M1767.34,207.86c-2.17-2.85-3.09-4.74-5.59-7.34a31.38,31.38,0,0,0-6.8-5.45c-2-1.24-3.3-1.57-5.27-2.76a31.13,31.13,0,0,1-5.93-4.17,30.27,30.27,0,0,1-4.7-5.47,33.36,33.36,0,0,1-4.85-8.37,26.52,26.52,0,0,1-2.1-8.12,31.68,31.68,0,0,1,.13-8.7,33,33,0,0,1,1.49-6.34,16.92,16.92,0,0,1,1.51-3.75,12.34,12.34,0,0,1,2.15-2.9V93.94h3.08v51.5c.23,2.82-.09,4.5.63,7.28a16.73,16.73,0,0,0,2.51,6.26,14.79,14.79,0,0,0,5.31,5.29,9.37,9.37,0,0,0,3.59,1.84,15.31,15.31,0,0,0,1.91.07,29.48,29.48,0,0,1-1.22-8.61,27.63,27.63,0,0,1,1.3-9.14V93.94h3V143.4l.08.07.13-.25a24.86,24.86,0,0,1,2.17-2.4,9.91,9.91,0,0,1,2.23-1.55,9.12,9.12,0,0,1,2.33-.9,15.33,15.33,0,0,1,2.9-.31,15.13,15.13,0,0,1,2.91.31,9.3,9.3,0,0,1,2.33.9,9.75,9.75,0,0,1,2.24,1.55,27.37,27.37,0,0,1,2.16,2.4l.16.25.06-.07V93.94h3v54.49a26.62,26.62,0,0,1,1.3,9.14,28.82,28.82,0,0,1-1.22,8.61,15.75,15.75,0,0,0,1.94-.07,9.49,9.49,0,0,0,3.6-1.84,14.92,14.92,0,0,0,5.3-5.29,17.48,17.48,0,0,0,2.54-6.26c.65-2.78.35-4.46.59-7.28V93.94h3.07v50.55a12.74,12.74,0,0,1,2.18,2.9,18.44,18.44,0,0,1,1.49,3.75,32.25,32.25,0,0,1,1.48,6.34,30.92,30.92,0,0,1,.15,8.7,27.69,27.69,0,0,1-2.09,8.12,33.34,33.34,0,0,1-4.86,8.37,31.51,31.51,0,0,1-4.7,5.47,30.82,30.82,0,0,1-5.93,4.17c-2,1.19-3.3,1.55-5.29,2.76a31.81,31.81,0,0,0-6.8,5.45c-2.52,2.58-3.39,4.49-5.6,7.34"/><path class="cls-2" d="M1767.34,251.33a56,56,0,0,0-16.73-17.77s-2.63-1.79-9.28-5.53c-5.37-3-8.82-6.84-11.92-10.57-17.82-26.35-8.08-50.15-6.28-49.65l.15-.14-.15.14V93.94h3v79.63s-1.53,9.18,12.35,15.36c8.89,3.95,20.89,14.73,28.83,28.54,8-13.81,19.94-24.59,28.85-28.54,13.89-6.18,12.36-15.36,12.36-15.36V93.94h3v73.87l-.14-.14.14.14c1.8-.5,11.51,23.3-6.26,49.65-3.12,3.73-6.58,7.55-12,10.57-6.64,3.74-9.25,5.53-9.25,5.53a56.11,56.11,0,0,0-16.74,17.77"/><path class="cls-2" d="M1767.34,295.26a34.77,34.77,0,0,0-20.92-20.46c-56.16-20.89-35.79-65-33.81-67.08V93.94h3.11V207.41a30.42,30.42,0,0,0,1.72,8.08c1.65,4.42,4.51,9.13,7.39,10.89,6.92,4.21,11.64,5.09,18.17,8.52,5.77,3,13.08,8,24.34,21,11.32-13,18.56-18,24.36-21,6.55-3.43,11.23-4.31,18.17-8.52,2.87-1.76,5.75-6.47,7.38-10.89a30.42,30.42,0,0,0,1.72-8.08V93.94h3.12V207.72c1.94,2.05,22.37,46.19-33.82,67.08a34.91,34.91,0,0,0-20.93,20.46"/><path class="cls-2" d="M1685.22,463.07h-36.45V431h36.31a28.9,28.9,0,0,0,28.84-28.92V301.21H1745l.07,101.89a59.82,59.82,0,0,1-59.87,60"/><path class="cls-2" d="M1849.59,463.07H1886V431h-36.29a28.92,28.92,0,0,1-28.83-28.92V301.21H1789.8l0,101.89a59.83,59.83,0,0,0,59.84,60"/><path class="cls-2" d="M1684.76,502h-36V469.85h36.31c41.23,0,66.77-32.29,66.77-67.77V301.21H1783l0,101.89c0,53.67-42.56,98.87-98.24,98.87"/><g class="cls-3"><rect class="cls-2" x="1506.45" width="5.12" height="734.29"/></g><polygon class="cls-2" points="1335.05 534.88 804.23 580.93 804.23 531.54 1335.05 531.54 1335.05 534.88 1335.05 534.88"/><polygon class="cls-4" points="804.23 580.93 1335.05 534.88 1335.05 584.34 804.23 584.34 804.23 580.93 804.23 580.93"/><path class="cls-2" d="M1246.09,263.79h-63.76V181.22l-88.4-.05-.28,82.62h-59.11V181.2H945.73V283.62C931.79,269,912.93,259.09,891,259.09c-69.1,0-91.5,64.64-91.5,126.46,0,59.46,22.86,124.15,88.82,124.15,28.69,0,48-10.39,61-36.83h.92V505h84.35V325.17h59.93v77.59c0,26-4,58.78,13.44,78.6s34.84,23.73,64.12,24.56l56.12-.77V436.5s-17-.5-25.55-.5c-21.09,0-19.32-17.05-19.32-34.55V325.17h62.81V505h88.85V263.79ZM940.35,434.62c-5,8-10.79,12.3-19.76,12.3-27.83,0-29.16-37.77-29.16-59a253.21,253.21,0,0,1,4.51-44.82c2.69-14.61,9.39-25.46,25.09-25.46,7.2,0,15.27,3.26,19.32,9.42,5.78,7.57,5.38,18.88,5.38,28.31V404c0,11.83.86,20.32-5.38,30.67Z"/><polygon class="cls-5" points="1342 166.6 1341.41 166.14 1341.64 166.55 1342 166.6"/><path class="cls-2" d="M1292.46,82.85c-41.86,0-75.74,35.64-75.74,79.62s33.88,79.65,75.74,79.65,75.64-35.64,75.64-79.65S1334.2,82.85,1292.46,82.85Zm51.31,66.74,4.38,3.57-.44,2.93,2.67,4.29,1.69,8.56-4.28.2-1.78-3.49-1.36-.77.13.19-.09,3.22,3.77,3.78,2.15,5.8-4.14,1-.14,3.31-4.33-1.35-2.09-4.74,1.64-1.53-1.28-3.07-1.73,1.8-3.92-.64-2.19-10.37,2.51-2.87-3-1.66-1.11-6.47Zm-13,21.81,1.68,8.58-4,6.75.41,6.2-3.38,2.71-1.49-6,3.77-18.32Zm-64.26-65.93,4.23,2.75.87-15.5,3.77-4.58,17.85.08,2.37-2.49,2.51,1.91-2.69,2.88,3.47,5.17.28,6.56L1287.49,110l5.92,16.56,4.46.67-.09-2.13,7.1-.55,6.29,5.27,3-2.68,7.39,3.58.31,2.16-2.69.38,6.65,7.29-3,6.59,4.16,5-5.42,3.81-3.6-4.41-2.55,3.54-2.68-.63,1.26-3.63-1.55-1.3,1.32-6.37-6.6-5.56-.58,2.58-14.12-8.74-9.8,2.47-1.77-3-4,1-13.2-21.56Zm53.1,87.29-1.45,3.51-14.44-5.48.14-5.62,4.42-2.94,1.22-6.9,7.88-5.86,5.69,4-6.24,7.86-.59,10.28ZM1262,181.27l-4.28,1.06.28,3-12.45,9.15-4-4.4,23.22-19.83-1.33-3.15,2.51-7.91h3.33l1.87,8.52,2.14,2.43Zm17.25-26.89-.81-5.35-3.57-3.51.15-4.35,15.36.25,2.63,5.78-5.18,12.21Zm10.3,22.91.74-16,2.85-2.24,6.56,3.07,11.22-1.38,1.86,3.49-11.61,9.16-4-.14-3.89,5Zm38.89,48.37-1.1-6.21,3.61-4.16-2.82-3.1-6.65.4-6.7,3.77-3-1-1.6-1.66-6.82,10.1-6.93-.27,3.32-5.34-2.48-1.71,2.12-2.78,13.07-4.93.92-6.44,11.11-.43,5.68,4.36,3.66-4.8,4.92-.11-.14-8.75,3.73.17,2.41,3.23,4.83-3.52-1.37-5.2,3.88-7.57,3.18,2.78-2.23,2.94,4.51,5.39-9.34,16.67Z"/><polygon class="cls-5" points="1269.27 159.16 1265.94 159.16 1263.43 167.07 1264.76 170.22 1241.54 190.05 1245.59 194.45 1258.03 185.31 1257.75 182.33 1262.03 181.27 1273.28 170.11 1271.13 167.68 1269.27 159.16"/><polygon class="cls-5" points="1290.41 141.42 1275.05 141.17 1274.9 145.53 1278.47 149.03 1279.28 154.38 1287.86 159.41 1293.04 147.2 1290.41 141.42"/><polygon class="cls-5" points="1280.89 130.89 1282.66 133.88 1292.46 131.41 1306.58 140.15 1307.16 137.56 1313.76 143.13 1312.44 149.5 1313.99 150.8 1312.73 154.43 1315.41 155.06 1317.96 151.52 1321.56 155.93 1326.98 152.12 1322.82 147.13 1325.83 140.54 1319.18 133.25 1321.87 132.87 1321.56 130.72 1314.17 127.13 1311.17 129.81 1304.88 124.54 1297.78 125.09 1297.87 127.22 1293.41 126.55 1287.49 109.99 1299.2 102.25 1298.92 95.69 1295.45 90.52 1298.14 87.64 1295.63 85.73 1293.26 88.22 1275.41 88.14 1271.64 92.72 1270.77 108.22 1266.54 105.47 1263.71 110.31 1276.91 131.87 1280.89 130.89"/><path class="cls-5" d="M1334.94,159.41l-2.51,2.87,2.19,10.37,3.92.64,1.73-1.8,1.28,3.07-1.64,1.53,2.09,4.74,4.33,1.35.14-3.31,4.14-1-2.15-5.8-3.77-3.78.09-3.22-.13-.19,1.36.77,1.78,3.49,4.28-.2-1.69-8.56-2.67-4.29.44-2.93-4.38-3.57-12.93,1.69,1.11,6.47Zm7.06,7.19-.36,0-.23-.41Z"/><polygon class="cls-5" points="1301.2 173.37 1312.81 164.21 1310.95 160.72 1299.73 162.1 1293.17 159.03 1290.32 161.26 1289.58 177.29 1293.36 178.26 1297.24 173.23 1301.2 173.37"/><polygon class="cls-5" points="1323.1 173.5 1317.41 169.47 1309.53 175.33 1308.31 182.23 1303.89 185.17 1303.75 190.79 1318.19 196.27 1319.64 192.76 1316.27 191.64 1316.86 181.36 1323.1 173.5"/><polygon class="cls-5" points="1325.55 195.64 1328.93 192.93 1328.52 186.74 1332.48 179.98 1330.8 171.4 1327.83 171.34 1324.06 189.66 1325.55 195.64"/><polygon class="cls-5" points="1353.02 185.47 1355.25 182.52 1352.07 179.74 1348.19 187.31 1349.57 192.51 1344.73 196.03 1342.32 192.79 1338.59 192.63 1338.73 201.38 1333.81 201.49 1330.15 206.28 1324.47 201.93 1313.36 202.36 1312.44 208.8 1299.38 213.73 1297.24 216.51 1299.73 218.22 1296.41 223.56 1303.34 223.83 1310.16 213.73 1311.76 215.39 1314.81 216.36 1321.51 212.59 1328.16 212.19 1330.98 215.29 1327.37 219.45 1328.47 225.66 1348.19 207.52 1357.53 190.85 1353.02 185.47"/><path class="cls-2" d="M811.26,629V618.53h3.86c1.33,0,2.79,0,3.88,1.1a5.86,5.86,0,0,1,1.46,4.12,6.35,6.35,0,0,1-1,3.55c-1.18,1.71-2.6,1.71-4.28,1.71Zm0,7.24h4.5c3.2,0,5.92,0,8.51-2.83,2.28-2.46,3.24-6.27,3.24-9.95,0-4.15-1.37-7.57-3.87-9.87s-5.19-2.3-8.11-2.3H804.24v39.57h7V636.25Z"/><polygon class="cls-2" points="882.9 650.87 875.84 650.87 875.84 634.58 866.59 634.58 866.59 650.87 859.53 650.87 859.53 611.3 866.59 611.3 866.59 626.77 875.84 626.77 875.84 611.3 882.9 611.3 882.9 650.87 882.9 650.87"/><polygon class="cls-2" points="923.98 650.87 916.96 650.87 916.96 611.3 923.98 611.3 923.98 650.87 923.98 650.87"/><polygon class="cls-2" points="977.17 643.05 977.17 650.87 958.09 650.87 958.09 611.3 965.05 611.3 965.05 643.05 977.17 643.05 977.17 643.05"/><polygon class="cls-2" points="1015.56 650.87 1008.55 650.87 1008.55 611.3 1015.56 611.3 1015.56 650.87 1015.56 650.87"/><path class="cls-2" d="M1056.83,629V618.53h3.91c1.29,0,2.73,0,3.84,1.1a6.08,6.08,0,0,1,1.44,4.12,6.24,6.24,0,0,1-1,3.55c-1.22,1.71-2.58,1.71-4.32,1.71Zm0,7.24h4.51c3.19,0,6,0,8.55-2.83,2.23-2.46,3.24-6.27,3.24-9.95a13,13,0,0,0-3.87-9.87c-2.54-2.3-5.23-2.3-8.15-2.3h-11.3v39.57h7V636.25Z"/><path class="cls-2" d="M1112.26,629V618.53h3.91c1.28,0,2.74,0,3.82,1.1a5.82,5.82,0,0,1,1.46,4.12,6.56,6.56,0,0,1-1,3.55c-1.22,1.71-2.64,1.71-4.28,1.71Zm0,7.24h4.5c3.18,0,6,0,8.56-2.83,2.23-2.46,3.24-6.27,3.24-9.95,0-4.15-1.37-7.57-3.88-9.87s-5.18-2.3-8.1-2.3h-11.34v39.57h7V636.25Z"/><polygon class="cls-2" points="1167.77 650.87 1160.85 650.87 1160.85 611.3 1167.77 611.3 1167.77 650.87 1167.77 650.87"/><polygon class="cls-2" points="1225.21 650.87 1219.23 650.87 1207.66 624.32 1207.53 624.32 1207.53 650.87 1202.11 650.87 1202.11 611.3 1209.62 611.3 1219.74 634.58 1219.78 634.58 1219.78 611.3 1225.21 611.3 1225.21 650.87 1225.21 650.87"/><polygon class="cls-2" points="1266.24 618.99 1266.24 627.01 1277.67 627.01 1277.67 634.44 1266.24 634.44 1266.24 643.2 1280.73 643.2 1280.73 650.87 1259.23 650.87 1259.23 611.3 1280.73 611.3 1280.73 618.99 1266.24 618.99 1266.24 618.99"/><path class="cls-2" d="M1328.14,622.65c-.88-3.36-2.51-4.7-5.2-4.7-1.86,0-4.14.63-4.14,3.69,0,2.88,2.59,3.6,4.32,4,2.46.64,5.75,1.46,7.89,3.31a12.11,12.11,0,0,1,3.91,9.36,14.31,14.31,0,0,1-3.68,9.91,12.15,12.15,0,0,1-8.76,3.23c-5.64,0-10.79-3.23-12.15-11l6.51-2c.9,4.15,3.13,5.59,6.23,5.59,2,0,4.74-1,4.74-4.27s-3.45-3.93-5.28-4.4c-5.32-1.45-10.62-3.51-10.62-12.17a13.55,13.55,0,0,1,3.25-9.32,9.48,9.48,0,0,1,7.55-3.19c5.24,0,9.56,2.39,11.38,9.29l-5.95,2.59Z"/><path class="cls-2" d="M484.49,1655.87,843,1985.08c-5.83.23-9.07.47-12.31.47-70.59,0-141.17-.08-211.75.15-7,0-12.06-2.26-17.11-6.91q-141.95-130.62-284.12-261-70.49-64.71-141-129.39c-2.42-2.22-5-4.26-9.22-7.82-1.24,28.53-.41,55.1-.56,81.64-.16,26.81,0,53.62,0,80.42v240.79c-8.29,2.62-155.09,3-165.5.64V916c4.15-.18,7.79-.48,11.42-.48,108.59,0,217.19-.8,325.77.17C480.42,917,595.2,974.24,681.42,1087c39.26,51.33,60.77,110,66.55,174.5,5.81,64.83-2.89,127.24-30.4,186.57-24.14,52-60,95-103.5,131.85A419,419,0,0,1,493.16,1652C490.72,1652.93,488.37,1654.13,484.49,1655.87ZM167.55,1526.75c3.91.2,6.6.45,9.29.45,51.91,0,103.82.14,155.74-.1a320.53,320.53,0,0,0,36.51-2.18c72.31-8.62,130-43.18,173.45-100.92,54.1-71.92,56.06-173.86,4.18-246.85-50.06-70.43-119.3-107.13-205.83-109-54.26-1.16-108.57-.23-162.86-.2-3.29,0-6.59.36-10.48.58Z"/><path class="cls-2" d="M2711.75,1985.56V916.61a48.41,48.41,0,0,1,7-1.05c90.92.12,182-2.62,272.73,1.06,196.78,8,353,94.19,467.45,254.22,49,68.46,75.12,146.09,82.42,230,6.92,79.56-1.62,157.08-30.57,231.9-27,69.86-69.19,129.55-122.42,181.71-63.68,62.39-137,109.53-221.58,138.44-45.74,15.63-92.72,25.82-141,29.37-25,1.85-50.1,3-75.16,3.17-75.32.4-150.64.14-226,.14Zm166.31-152.88c4.2.25,7.52.61,10.84.61,24.43,0,48.86.24,73.28,0,29.54-.32,58.94-2.52,88-8.12,79.69-15.36,148.86-51.28,208.1-106.59,81.37-76,122.78-168.93,119.26-281-2.06-65.61-19.22-126.94-56.62-181-84.16-121.72-201-184.39-349-188.49-27.79-.77-55.63-.14-83.45-.09-3.28,0-6.56.38-10.4.62Z"/><path class="cls-6" d="M844.11,1982.13V1969.6c0-57.35.21-114.7-.21-172-.07-9.17,3-13.85,11.08-17.94q142.64-72,284.94-144.59Q1315,1546,1490,1456.91c3.15-1.61,6.07-3.66,10.79-6.54-5.18-3-8.47-5.19-12-7q-100.65-51.23-201.35-102.38-107-54.4-214.07-108.83-110.19-56-220.41-112c-6.1-3.09-9.08-6.6-9-14,.3-59.72.17-119.44.19-179.16,0-2,.25-4,.36-5.66a11.23,11.23,0,0,1,1.34-.77c.3-.11.72-.26,1-.14q533.54,263.82,1067,527.7a35.54,35.54,0,0,1,3.69,2.69Z"/><path class="cls-2" d="M1658.66,915.51h12.5c107.9,0,215.81-.52,323.72.13,130.86.79,240.06,50.22,326.08,149.16q76.56,88.08,84.78,205c5.56,81.13-11.07,156.88-57.37,224.33-60.11,87.55-141.68,145.7-245,172.19a422.6,422.6,0,0,1-106.74,12.94c-52.94-.15-105.87,0-158.81,0h-13.28c-.3,5.42-.77,10-.77,14.61q-.08,138.45,0,276.89v12.68c-8.35,2.62-153.21,3.13-165.14.77-.17-3.05-.51-6.33-.51-9.61q0-156.25-.18-312.52c0-7.16,2.36-10.74,8.73-13.88,79.07-39,158-78.39,237-117.41a37.44,37.44,0,0,1,15.56-3.37c26.47-.39,53,.16,79.4-.41,80.59-1.74,146.44-34.44,196.59-97.14,65.17-81.46,60.79-197.82-9.35-275.81-41.71-46.38-93.29-74.75-155.26-83.48a241.21,241.21,0,0,0-32.43-2.46c-54.63-.25-109.26-.13-163.9-.1-3,0-6,.28-10.4.5-.25,44.16-.08,87.84-.11,131.51q0,65.05,0,130.24c-8.28-1.14-148.06-69.19-165.06-80Z"/><path class="cls-2" d="M2462.55,916h163.22c2,8,2.69,1054.1.82,1067.7-7,2.22-146.29,3.12-163.14,1.06-.31-.28-.57-.49-.8-.74s-.56-.51-.6-.79a60.1,60.1,0,0,1-.7-7q0-527.76.19-1055.52C2461.54,919.39,2462.09,918.09,2462.55,916Z"/><path class="cls-2" d="M2295,2495.11H2256Q2203.79,2333,2151.7,2171.23l-2.42-.07q-52.53,161.55-105.26,323.7h-38.65L1879.14,2121h40.52L2025,2451.8c11.6-26.73,18.9-54.7,27.94-82.07s17.63-54.86,26.35-82.32q13.23-41.68,26.34-83.4c8.67-27.45,17.32-54.9,26.18-83h38.43c35.05,110.15,70.17,220.5,106.09,333.4,9-23.55,14.5-45.78,21.6-67.45q10.92-33.34,21.56-66.77c7-22,13.86-44,20.78-65.95q10.53-33.47,21.07-66.93c6.94-22,13.94-43.87,21.09-66.35h39.47Z"/><path class="cls-2" d="M1633.49,2305.34c.18,34.8-8.15,64.85-23.9,92.9-31.09,55.37-78.36,88.69-140.72,98.14-71.12,10.78-133.42-9.86-180.21-64.92-97-114.1-36.63-274.31,99.65-308,70-17.31,133.26-1.14,186.66,48.19A180.67,180.67,0,0,1,1633.49,2305.34Zm-38,2.71c1.53-86.11-72-157.57-157.16-157.24-87.08.35-158.2,69.59-159.12,154.68-.87,80,65.58,159.33,157.57,160C1530.82,2466.19,1596.78,2384.05,1595.51,2308.05Z"/><path class="cls-2" d="M867,2365.79l89.24,129.65c-14.64,0-27.38.34-40.06-.29-2.51-.12-5.41-3.58-7.15-6.16q-19.92-29.5-39.41-59.3-16.76-25.49-33.21-51.17c-2.36-3.67-4.78-5.78-9.68-5.73-38.66.39-77.31.43-116,.62-2,0-4,.37-7.4.71,0,13.29-.08,26.38-.09,39.47q0,20.34,0,40.69v40.41H667V2121.58a26.33,26.33,0,0,1,4.13-.71c50.87.06,101.74-.33,152.6.44,25.3.38,49.75,6.27,72.15,18.67,32.2,17.81,50.36,45.28,55.67,81.6a157,157,0,0,1-4.3,67.45c-7.06,24.24-20.56,44.36-41.59,58.47-9.17,6.15-19.88,10-29.92,14.84C873.33,2363.49,870.77,2364.31,867,2365.79Zm-163.33-25.52a45.81,45.81,0,0,0,5,.65c36,0,71.93.21,107.89-.22a128.67,128.67,0,0,0,48.54-10c25.76-10.82,43.09-29.42,49.2-56.88,2.47-11.12,3-22.88,2.83-34.32-.67-36.47-19.89-63-53.9-76.27-18.32-7.13-37.51-9.2-56.88-9.42-31.22-.36-62.44-.12-93.65-.07-2.92,0-5.83.49-9,.78Z"/><path class="cls-2" d="M3500.89,2291V2121.37H3536c2.25,7.05,3,359,.6,374.16H3501V2329c-1.13-1.33-1.32-1.62-1.57-1.85a1.78,1.78,0,0,0-.79-.55,37.25,37.25,0,0,0-5-.56q-111.47,0-222.92.11c-1,0-1.9.49-4.05,1.09v167.7h-35.39a7,7,0,0,1-.79-.65,1.78,1.78,0,0,1-.55-.78,22.94,22.94,0,0,1-.58-4q0-181.68,0-363.38a32.84,32.84,0,0,1,.75-4.6h36V2290C3273.82,2292.57,3484.16,2293.42,3500.89,2291Z"/><path class="cls-2" d="M300.09,2312.75h32c.26,3,.68,5.58.68,8.18.05,40.37-.09,80.73.16,121.1,0,6.15-2.22,9.86-7,13.43a214.77,214.77,0,0,1-100.49,41.35c-62,8.63-117.66-7.07-163.48-50-94.22-88.2-79.18-236.19,32.65-302,72.79-42.86,169.44-34.94,234.42,19,1.55,1.29,3.15,2.51,5.43,4.31L313,2194.54c-3-2.33-5.55-4.32-8.07-6.37-57.34-46.64-144.69-52.93-207.13-3.4-68.24,54.12-79.25,151.17-25.52,219.8,45.46,58.07,125.61,77.59,196.28,45,8.59-4,16.63-9.1,25-13.48,5.12-2.68,6.7-6.54,6.66-12.3-.26-32.9-.13-65.81-.13-98.71Z"/><path class="cls-2" d="M2816.37,2153.61v341.18h-37.3c-.28-22.55-.09-45.15-.12-67.74s0-45.46,0-68.18V2154c-41.35-.77-81.83.09-123-.5v-31.6c8-2.14,273.33-2.47,284.63-.16v31.85Z"/><g class="cls-7"><rect class="cls-2" x="2.79" y="2622.42" width="3538.06" height="329.58"/></g></g></g></svg>