<?xml version="1.0" encoding="utf-8"?>
<!-- Generator: Adobe Illustrator 23.0.5, SVG Export Plug-In . SVG Version: 6.00 Build 0)  -->
<svg version="1.1" id="Layer_1" xmlns="http://www.w3.org/2000/svg" xmlns:xlink="http://www.w3.org/1999/xlink" x="0px" y="0px"
	 viewBox="0 0 3543.6 2952" style="enable-background:new 0 0 3543.6 2952;" xml:space="preserve">
<style type="text/css">
	.st0{fill:#FFFFFF;}
	.st1{opacity:0.5;}
	.st2{fill:none;stroke:#FFFFFF;stroke-miterlimit:10;}
	.st3{fill:none;}
</style>
<g>
	<g id="Layer_1-2">
		<rect x="1648.4" y="547.2" class="st0" width="9.9" height="74.7"/>
		<path class="st0" d="M1673.2,567.8h8.4v8.6h0.2c3.8-6.7,9.8-9.8,17.6-9.8c14.2,0,18.6,8.2,18.6,19.8V622h-8.9v-36.6
			c0-6.6-4.2-10.9-11-10.9c-10.8,0-16,7.2-16,17V622h-8.9L1673.2,567.8z"/>
		<polygon class="st0" points="1755.4,621.9 1745.9,621.9 1725.8,567.8 1735.8,567.8 1750.9,612.9 1751.1,612.9 1765.9,567.8 
			1775.2,567.8 		"/>
		<path class="st0" d="M1829.1,604.7c-2.4,11.9-11,18.4-23.1,18.4c-17.3,0-25.4-11.9-25.9-28.5c0-16.2,10.7-28.2,25.4-28.2
			c19.1,0,25,17.9,24.5,31h-40.5c-0.3,9.4,5,17.8,16.8,17.8c7.3,0,12.4-3.5,14-10.6L1829.1,604.7z M1820.5,589.7
			c-0.4-8.5-6.8-15.3-15.6-15.3c-9.3,0-14.9,7-15.5,15.3H1820.5z"/>
		<path class="st0" d="M1844.2,604.8c0.3,8,7.2,10.5,14.5,10.5c5.6,0,13.1-1.3,13.1-8s-8.8-8-17.7-10s-17.7-4.9-17.7-15.3
			c0-10.9,10.8-15.4,20.2-15.4c11.9,0,21.4,3.8,22.2,17h-8.8c-0.6-6.9-6.7-9.1-12.6-9.1c-5.3,0-11.5,1.5-11.5,6.9
			c0,6.4,9.4,7.4,17.7,9.4c8.9,2,17.7,4.9,17.7,15.4c0,12.9-12,17.1-23,17.1c-12.2,0-22.4-4.9-22.9-18.3L1844.2,604.8z"/>
		<path class="st0" d="M1903,567.8h10.8v7.8H1903v33.6c0,4.1,1.2,4.8,6.7,4.8h4.1v7.8h-6.8c-9.2,0-12.9-1.9-12.9-11.8v-34.4h-9.2
			v-7.8h9.2v-16.2h8.9L1903,567.8L1903,567.8z"/>
		<path class="st0" d="M1932.7,558h-8.9v-10.8h8.9V558z M1923.8,567.7h8.9v54.1h-8.9V567.7z"/>
		<path class="st0" d="M1946.1,567.8h8.4v8.6h0.2c3.8-6.7,9.8-9.8,17.6-9.8c14.2,0,18.6,8.2,18.6,19.8V622h-8.9v-36.6
			c0-6.6-4.2-10.9-11-10.9c-10.8,0-16,7.2-16,17V622h-8.9L1946.1,567.8z"/>
		<path class="st0" d="M2050.6,617.3c0,17.6-8.1,26.6-25.1,26.6c-10.2,0-21.9-4.1-22.4-15.9h8.9c0.4,6.5,8.2,8.8,14,8.8
			c11.6,0,16.2-8.4,16.2-20.5v-3.6h-0.1c-2.9,6.6-10,9.8-16.8,9.8c-16.1,0-24.2-12.7-24.2-27.4c0-12.8,6.3-28.6,25-28.6
			c6.8,0,12.9,3,16.1,9h0.1v-7.8h8.4L2050.6,617.3z M2041.8,593.7c0-9.5-4.2-19.4-15.4-19.4c-11.4,0-16,9.3-16,19.7
			c0,9.7,3.6,20.6,15.3,20.6S2041.8,603.9,2041.8,593.7z"/>
		<path class="st0" d="M2101.6,558h-8.9v-10.8h8.9V558z M2092.8,567.7h8.9v54.1h-8.9V567.7z"/>
		<path class="st0" d="M2115.1,567.8h8.4v8.6h0.2c3.8-6.7,9.8-9.8,17.6-9.8c14.2,0,18.6,8.2,18.6,19.8V622h-8.9v-36.6
			c0-6.6-4.2-10.9-11-10.9c-10.8,0-16,7.2-16,17V622h-8.9L2115.1,567.8z"/>
		<path class="st0" d="M2201.2,567.8h8.4v11.4h0.2c4.3-8.7,10.2-13,19.9-12.7v9.4c-14.4,0-19.6,8.2-19.6,21.9v24.1h-8.9
			L2201.2,567.8z"/>
		<path class="st0" d="M2280.8,621.9h-8.4v-8.6h-0.2c-3.8,6.7-9.8,9.8-17.6,9.8c-14.2,0-18.6-8.2-18.6-19.8v-35.6h8.9v36.6
			c0,6.6,4.2,10.9,11,10.9c10.8,0,16-7.2,16-17v-30.5h8.9L2280.8,621.9z"/>
		<path class="st0" d="M2293.5,567.8h8.4v11.4h0.2c4.3-8.7,10.3-13,19.9-12.7v9.4c-14.3,0-19.6,8.2-19.6,21.9v24.1h-8.9
			L2293.5,567.8L2293.5,567.8z"/>
		<path class="st0" d="M2376.1,621.7c-1.9,1.1-4.2,1.6-6.4,1.5c-4.6,0-7.5-2.5-7.5-8.4c-4.9,5.8-11.5,8.4-19,8.4
			c-9.9,0-17.9-4.4-17.9-15.2c0-12.3,9.1-14.9,18.3-16.6c9.8-1.9,18.2-1.3,18.2-8c0-7.7-6.4-9-12-9c-7.5,0-13.1,2.3-13.5,10.3h-8.9
			c0.5-13.4,10.9-18.1,22.9-18.1c9.7,0,20.3,2.2,20.3,14.9v27.8c0,4.2,0,6,2.8,6c0.9,0,1.8-0.2,2.7-0.5L2376.1,621.7z M2361.7,593.9
			c-3.4,2.5-10.1,2.6-16.1,3.7s-10.9,3.2-10.9,9.7c0,5.8,5,7.9,10.5,7.9c11.7,0,16.5-7.3,16.5-12.2V593.9z"/>
		<rect x="2384.5" y="547.2" class="st0" width="8.9" height="74.7"/>
		<path class="st0" d="M2435.8,567.8h8.9v7.3h0.2c2.9-6,9.8-8.6,17.3-8.6c16.6,0,24.9,13.2,24.9,28.5s-8.2,28.2-24.7,28.2
			c-5.5,0-13.5-2.1-17.5-8.5h-0.2v27.9h-8.9V567.8z M2461,574.4c-11.9,0-16.5,10.3-16.5,20.4c0,10.7,4.8,20.5,17.1,20.5
			s16.2-10.3,16.2-20.9C2477.7,584.2,2472.5,574.4,2461,574.4L2461,574.4z"/>
		<path class="st0" d="M2543.3,604.7c-2.4,11.9-11,18.4-23.1,18.4c-17.3,0-25.4-11.9-25.9-28.5c0-16.2,10.7-28.2,25.4-28.2
			c19.2,0,25,17.9,24.5,31h-40.5c-0.3,9.4,5,17.8,16.9,17.8c7.3,0,12.4-3.5,14-10.6L2543.3,604.7z M2534.8,589.7
			c-0.4-8.5-6.8-15.3-15.6-15.3c-9.3,0-14.9,7-15.5,15.3H2534.8z"/>
		<path class="st0" d="M2576.3,566.5c17.2,0,26.3,12.5,26.3,28.4s-9.1,28.3-26.3,28.3s-26.3-12.5-26.3-28.3
			S2559.2,566.5,2576.3,566.5 M2576.3,615.3c9.3,0,16.9-7.3,16.9-20.4s-7.5-20.5-16.9-20.5s-16.8,7.3-16.8,20.5
			S2567,615.3,2576.3,615.3z"/>
		<path class="st0" d="M2613,567.8h8.9v7.3h0.2c2.9-6,9.9-8.6,17.3-8.6c16.6,0,24.9,13.2,24.9,28.5s-8.2,28.2-24.7,28.2
			c-5.6,0-13.5-2.1-17.5-8.5h-0.2v27.9h-8.9V567.8z M2638.1,574.4c-11.9,0-16.5,10.3-16.5,20.4c0,10.7,4.8,20.5,17.1,20.5
			s16.2-10.3,16.2-20.9C2654.8,584.2,2649.6,574.4,2638.1,574.4L2638.1,574.4z"/>
		<rect x="2674.9" y="547.2" class="st0" width="8.9" height="74.7"/>
		<path class="st0" d="M2743.3,604.7c-2.4,11.9-11,18.4-23.1,18.4c-17.3,0-25.4-11.9-26-28.5c0-16.2,10.7-28.2,25.4-28.2
			c19.1,0,25,17.9,24.5,31h-40.5c-0.3,9.4,5,17.8,16.9,17.8c7.3,0,12.4-3.5,14-10.6L2743.3,604.7z M2734.7,589.7
			c-0.4-8.5-6.8-15.3-15.6-15.3c-9.3,0-14.9,7-15.5,15.3H2734.7z"/>
		<path class="st0" d="M1924.2,463.1h41.3v-162h-41.3V463.1z M1994.9,463.1h39.6v-61.7h47.1V365h-47.1v-27.6h48.9v-36.3h-88.5
			L1994.9,463.1L1994.9,463.1z M2188.8,439.7l7.9,23.4h44.9l-64.4-162h-32.6l-65,162h44.4l8.5-23.4H2188.8z M2160.5,351.4h0.6
			l16.6,55.4h-33.9L2160.5,351.4z M2255.9,463.1h56.7c61.5,0,83.4-37.2,83.4-81.4c0-17.8-3.7-35-14.9-50.4
			c-21-30.2-53.4-30.2-71.6-30.2h-53.6L2255.9,463.1L2255.9,463.1z M2297.3,337.4h17.9c18.4,0,26.7,7.7,31.5,14.9
			c5.9,9.2,7.9,20.8,7.9,30c0,23-8.7,44.4-39.6,44.4h-17.7L2297.3,337.4z"/>
		<path class="st0" d="M1767.3,207.9c-2.2-2.9-3.1-4.7-5.6-7.3c-2-2.1-4.3-4-6.8-5.4c-2-1.2-3.3-1.6-5.3-2.8
			c-2.1-1.2-4.1-2.6-5.9-4.2c-1.8-1.6-3.4-3.5-4.7-5.5c-2-2.5-3.6-5.4-4.8-8.4c-1.1-2.6-1.8-5.3-2.1-8.1c-0.4-2.9-0.3-5.8,0.1-8.7
			c0.3-2.2,0.8-4.3,1.5-6.3c0.4-1.3,0.9-2.6,1.5-3.8c0.6-1.1,1.3-2,2.2-2.9V93.9h3.1v51.5c0.2,2.8-0.1,4.5,0.6,7.3
			c0.4,2.2,1.3,4.4,2.5,6.3c1.3,2.2,3.1,4,5.3,5.3c1,0.9,2.3,1.5,3.6,1.8c0.6,0.1,1.3,0.1,1.9,0.1c-0.8-2.8-1.2-5.7-1.2-8.6
			c-0.1-3.1,0.4-6.2,1.3-9.1V93.9h3v49.5l0.1,0.1l0.1-0.3c0.7-0.8,1.4-1.6,2.2-2.4c0.7-0.6,1.4-1.1,2.2-1.6c0.7-0.4,1.5-0.7,2.3-0.9
			c1-0.2,1.9-0.3,2.9-0.3s2,0.1,2.9,0.3c0.8,0.2,1.6,0.5,2.3,0.9c0.8,0.4,1.6,0.9,2.2,1.6c0.8,0.8,1.5,1.6,2.2,2.4l0.2,0.3l0.1-0.1
			V93.9h3v54.5c1,2.9,1.4,6,1.3,9.1c0,2.9-0.4,5.8-1.2,8.6c0.6,0,1.3,0,1.9-0.1c1.3-0.3,2.5-1,3.6-1.8c2.2-1.3,4-3.1,5.3-5.3
			c1.2-1.9,2.1-4,2.5-6.3c0.7-2.8,0.3-4.5,0.6-7.3V93.9h3.1v50.6c0.9,0.9,1.6,1.8,2.2,2.9c0.6,1.2,1.1,2.4,1.5,3.8
			c0.7,2.1,1.2,4.2,1.5,6.3c0.5,2.9,0.5,5.8,0.2,8.7c-0.3,2.8-1,5.5-2.1,8.1c-1.2,3-2.8,5.8-4.9,8.4c-1.4,2-2.9,3.8-4.7,5.5
			c-1.8,1.6-3.8,3-5.9,4.2c-2,1.2-3.3,1.6-5.3,2.8c-2.5,1.5-4.8,3.3-6.8,5.4C1770.4,203.1,1769.6,205,1767.3,207.9"/>
		<path class="st0" d="M1767.3,251.3c-4.2-7.1-9.9-13.1-16.7-17.8c0,0-2.6-1.8-9.3-5.5c-5.4-3-8.8-6.8-11.9-10.6
			c-17.8-26.4-8.1-50.1-6.3-49.6l0.2-0.1l-0.2,0.1V93.9h3v79.6c0,0-1.5,9.2,12.3,15.4c8.9,3.9,20.9,14.7,28.8,28.5
			c8-13.8,19.9-24.6,28.8-28.5c13.9-6.2,12.4-15.4,12.4-15.4V93.9h3v73.9l-0.1-0.1l0.1,0.1c1.8-0.5,11.5,23.3-6.3,49.6
			c-3.1,3.7-6.6,7.6-12,10.6c-6.6,3.7-9.3,5.5-9.3,5.5C1777.2,238.2,1771.5,244.2,1767.3,251.3"/>
		<path class="st0" d="M1767.3,295.3c-3.6-9.6-11.3-17-20.9-20.5c-56.2-20.9-35.8-65-33.8-67.1V93.9h3.1v113.5
			c0.2,2.8,0.8,5.5,1.7,8.1c1.7,4.4,4.5,9.1,7.4,10.9c6.9,4.2,11.6,5.1,18.2,8.5c5.8,3,13.1,8,24.3,21c11.3-13,18.6-18,24.4-21
			c6.6-3.4,11.2-4.3,18.2-8.5c2.9-1.8,5.8-6.5,7.4-10.9c0.9-2.6,1.5-5.3,1.7-8.1V93.9h3.1v113.8c1.9,2.1,22.4,46.2-33.8,67.1
			C1778.6,278.2,1771,285.7,1767.3,295.3"/>
		<path class="st0" d="M1685.2,463.1h-36.4V431h36.3c15.9,0,28.9-13,28.8-28.9V301.2h31.1l0.1,101.9c0.1,33-26.6,59.9-59.6,60
			C1685.4,463.1,1685.3,463.1,1685.2,463.1"/>
		<path class="st0" d="M1849.6,463.1h36.4V431h-36.3c-15.9,0-28.8-13-28.8-28.9V301.2h-31.1v101.9c-0.1,33,26.6,59.9,59.7,60
			C1849.5,463.1,1849.6,463.1,1849.6,463.1"/>
		<path class="st0" d="M1684.8,502h-36v-32.1h36.3c41.2,0,66.8-32.3,66.8-67.8V301.2h31.2v101.9C1783,456.8,1740.4,502,1684.8,502"
			/>
		<g class="st1">
			<rect x="1506.4" class="st0" width="5.1" height="734.3"/>
		</g>
		<polygon class="st0" points="1335.1,534.9 804.2,580.9 804.2,531.5 1335.1,531.5 		"/>
		<polygon class="st2" points="804.2,580.9 1335.1,534.9 1335.1,584.3 804.2,584.3 		"/>
		<path class="st0" d="M1246.1,263.8h-63.8v-82.6l-88.4-0.1l-0.3,82.6h-59.1v-82.6h-88.8v102.4C931.8,268.9,912.9,259,891,259
			c-69.1,0-91.5,64.6-91.5,126.5c0,59.5,22.9,124.1,88.8,124.1c28.7,0,48-10.4,61-36.8h0.9V505h84.3V325.2h59.9v77.6
			c0,26-4,58.8,13.4,78.6s34.8,23.7,64.1,24.6l56.1-0.8v-68.7c0,0-17-0.5-25.6-0.5c-21.1,0-19.3-17-19.3-34.5v-76.3h62.8V505h88.8
			V263.8H1246.1z M940.3,434.6c-5,8-10.8,12.3-19.8,12.3c-27.8,0-29.2-37.8-29.2-59c0.2-15,1.7-30,4.5-44.8
			c2.7-14.6,9.4-25.5,25.1-25.5c7.2,0,15.3,3.3,19.3,9.4c5.8,7.6,5.4,18.9,5.4,28.3V404C945.7,415.8,946.6,424.3,940.3,434.6
			L940.3,434.6z"/>
		<polygon class="st3" points="1342,166.6 1341.4,166.1 1341.6,166.6 		"/>
		<path class="st0" d="M1292.5,82.8c-41.9,0-75.7,35.6-75.7,79.6s33.9,79.6,75.7,79.6s75.6-35.6,75.6-79.6S1334.2,82.8,1292.5,82.8z
			 M1343.8,149.6l4.4,3.6l-0.4,2.9l2.7,4.3l1.7,8.6l-4.3,0.2l-1.8-3.5l-1.4-0.8l0.1,0.2l-0.1,3.2l3.8,3.8l2.2,5.8l-4.1,1l-0.1,3.3
			l-4.3-1.4l-2.1-4.7l1.6-1.5l-1.3-3.1l-1.7,1.8l-3.9-0.6l-2.2-10.4l2.5-2.9l-3-1.7l-1.1-6.5L1343.8,149.6z M1330.8,171.4l1.7,8.6
			l-4,6.8l0.4,6.2l-3.4,2.7l-1.5-6l3.8-18.3H1330.8z M1266.5,105.5l4.2,2.8l0.9-15.5l3.8-4.6l17.8,0.1l2.4-2.5l2.5,1.9l-2.7,2.9
			l3.5,5.2l0.3,6.6l-11.7,7.8l5.9,16.6l4.5,0.7l-0.1-2.1l7.1-0.6l6.3,5.3l3-2.7l7.4,3.6l0.3,2.2l-2.7,0.4l6.7,7.3l-3,6.6l4.2,5
			l-5.4,3.8l-3.6-4.4l-2.6,3.5l-2.7-0.6l1.3-3.6l-1.6-1.3l1.3-6.4l-6.6-5.6l-0.6,2.6l-14.1-8.7l-9.8,2.5l-1.8-3l-4,1l-13.2-21.6
			L1266.5,105.5z M1319.6,192.8l-1.4,3.5l-14.4-5.5l0.1-5.6l4.4-2.9l1.2-6.9l7.9-5.9l5.7,4l-6.2,7.9l-0.6,10.3L1319.6,192.8z
			 M1262,181.3l-4.3,1.1l0.3,3l-12.4,9.1l-4-4.4l23.2-19.8l-1.3-3.1l2.5-7.9h3.3l1.9,8.5l2.1,2.4L1262,181.3z M1279.3,154.4
			l-0.8-5.4l-3.6-3.5l0.2-4.4l15.4,0.3l2.6,5.8l-5.2,12.2L1279.3,154.4z M1289.6,177.3l0.7-16l2.8-2.2l6.6,3.1l11.2-1.4l1.9,3.5
			l-11.6,9.2l-4-0.1l-3.9,5L1289.6,177.3z M1328.4,225.7l-1.1-6.2l3.6-4.2l-2.8-3.1l-6.7,0.4l-6.7,3.8l-3-1l-1.6-1.7l-6.8,10.1
			l-6.9-0.3l3.3-5.3l-2.5-1.7l2.1-2.8l13.1-4.9l0.9-6.4l11.1-0.4l5.7,4.4l3.7-4.8l4.9-0.1l-0.1-8.8l3.7,0.2l2.4,3.2l4.8-3.5
			l-1.4-5.2l3.9-7.6l3.2,2.8l-2.2,2.9l4.5,5.4l-9.3,16.7L1328.4,225.7z"/>
		<polygon class="st3" points="1269.3,159.2 1265.9,159.2 1263.4,167.1 1264.8,170.2 1241.5,190.1 1245.6,194.4 1258,185.3 
			1257.8,182.3 1262,181.3 1273.3,170.1 1271.1,167.7 		"/>
		<polygon class="st3" points="1290.4,141.4 1275.1,141.2 1274.9,145.5 1278.5,149 1279.3,154.4 1287.9,159.4 1293,147.2 		"/>
		<polygon class="st3" points="1280.9,130.9 1282.7,133.9 1292.5,131.4 1306.6,140.1 1307.2,137.6 1313.8,143.1 1312.4,149.5 
			1314,150.8 1312.7,154.4 1315.4,155.1 1318,151.5 1321.6,155.9 1327,152.1 1322.8,147.1 1325.8,140.5 1319.2,133.3 1321.9,132.9 
			1321.6,130.7 1314.2,127.1 1311.2,129.8 1304.9,124.5 1297.8,125.1 1297.9,127.2 1293.4,126.6 1287.5,110 1299.2,102.3 
			1298.9,95.7 1295.4,90.5 1298.1,87.6 1295.6,85.7 1293.3,88.2 1275.4,88.1 1271.6,92.7 1270.8,108.2 1266.5,105.5 1263.7,110.3 
			1276.9,131.9 		"/>
		<path class="st3" d="M1334.9,159.4l-2.5,2.9l2.2,10.4l3.9,0.6l1.7-1.8l1.3,3.1l-1.6,1.5l2.1,4.7l4.3,1.4l0.1-3.3l4.1-1l-2.2-5.8
			l-3.8-3.8l0.1-3.2l-0.1-0.2l1.4,0.8l1.8,3.5l4.3-0.2l-1.7-8.6l-2.7-4.3l0.4-2.9l-4.4-3.6l-12.9,1.7l1.1,6.5L1334.9,159.4z
			 M1342,166.6h-0.4l-0.2-0.4L1342,166.6z"/>
		<polygon class="st3" points="1301.2,173.4 1312.8,164.2 1310.9,160.7 1299.7,162.1 1293.2,159 1290.3,161.3 1289.6,177.3 
			1293.4,178.3 1297.2,173.2 		"/>
		<polygon class="st3" points="1323.1,173.5 1317.4,169.5 1309.5,175.3 1308.3,182.2 1303.9,185.2 1303.8,190.8 1318.2,196.3 
			1319.6,192.8 1316.3,191.6 1316.9,181.4 		"/>
		<polygon class="st3" points="1325.6,195.6 1328.9,192.9 1328.5,186.7 1332.5,180 1330.8,171.4 1327.8,171.3 1324.1,189.7 		"/>
		<polygon class="st3" points="1353,185.5 1355.3,182.5 1352.1,179.7 1348.2,187.3 1349.6,192.5 1344.7,196 1342.3,192.8 
			1338.6,192.6 1338.7,201.4 1333.8,201.5 1330.2,206.3 1324.5,201.9 1313.4,202.4 1312.4,208.8 1299.4,213.7 1297.2,216.5 
			1299.7,218.2 1296.4,223.6 1303.3,223.8 1310.2,213.7 1311.8,215.4 1314.8,216.4 1321.5,212.6 1328.2,212.2 1331,215.3 
			1327.4,219.4 1328.5,225.7 1348.2,207.5 1357.5,190.9 		"/>
		<path class="st0" d="M811.3,629v-10.5h3.9c1.3,0,2.8,0,3.9,1.1c1,1.1,1.5,2.6,1.5,4.1c0,1.3-0.3,2.5-1,3.5
			c-1.2,1.7-2.6,1.7-4.3,1.7L811.3,629z M811.3,636.2h4.5c3.2,0,5.9,0,8.5-2.8c2.3-2.5,3.2-6.3,3.2-10c0-4.2-1.4-7.6-3.9-9.9
			s-5.2-2.3-8.1-2.3h-11.3v39.6h7L811.3,636.2L811.3,636.2z"/>
		<polygon class="st0" points="882.9,650.9 875.8,650.9 875.8,634.6 866.6,634.6 866.6,650.9 859.5,650.9 859.5,611.3 866.6,611.3 
			866.6,626.8 875.8,626.8 875.8,611.3 882.9,611.3 		"/>
		<polygon class="st0" points="924,650.9 917,650.9 917,611.3 924,611.3 		"/>
		<polygon class="st0" points="977.2,643 977.2,650.9 958.1,650.9 958.1,611.3 965,611.3 965,643 		"/>
		<polygon class="st0" points="1015.6,650.9 1008.5,650.9 1008.5,611.3 1015.6,611.3 		"/>
		<path class="st0" d="M1056.8,629v-10.5h3.9c1.3,0,2.7,0,3.8,1.1c1,1.1,1.5,2.6,1.4,4.1c0,1.3-0.3,2.5-1,3.5
			c-1.2,1.7-2.6,1.7-4.3,1.7L1056.8,629z M1056.8,636.2h4.5c3.2,0,6,0,8.6-2.8c2.2-2.5,3.2-6.3,3.2-10c0.2-3.7-1.2-7.3-3.9-9.9
			c-2.5-2.3-5.2-2.3-8.2-2.3h-11.3v39.6h7L1056.8,636.2L1056.8,636.2z"/>
		<path class="st0" d="M1112.3,629v-10.5h3.9c1.3,0,2.7,0,3.8,1.1c1,1.1,1.5,2.6,1.5,4.1c0,1.3-0.3,2.5-1,3.5
			c-1.2,1.7-2.6,1.7-4.3,1.7L1112.3,629z M1112.3,636.2h4.5c3.2,0,6,0,8.6-2.8c2.2-2.5,3.2-6.3,3.2-10c0-4.2-1.4-7.6-3.9-9.9
			s-5.2-2.3-8.1-2.3h-11.3v39.6h7L1112.3,636.2L1112.3,636.2z"/>
		<polygon class="st0" points="1167.8,650.9 1160.8,650.9 1160.8,611.3 1167.8,611.3 		"/>
		<polygon class="st0" points="1225.2,650.9 1219.2,650.9 1207.7,624.3 1207.5,624.3 1207.5,650.9 1202.1,650.9 1202.1,611.3 
			1209.6,611.3 1219.7,634.6 1219.8,634.6 1219.8,611.3 1225.2,611.3 		"/>
		<polygon class="st0" points="1266.2,619 1266.2,627 1277.7,627 1277.7,634.4 1266.2,634.4 1266.2,643.2 1280.7,643.2 
			1280.7,650.9 1259.2,650.9 1259.2,611.3 1280.7,611.3 1280.7,619 		"/>
		<path class="st0" d="M1328.1,622.7c-0.9-3.4-2.5-4.7-5.2-4.7c-1.9,0-4.1,0.6-4.1,3.7c0,2.9,2.6,3.6,4.3,4c2.5,0.6,5.8,1.5,7.9,3.3
			c2.6,2.4,4,5.8,3.9,9.4c0.1,3.7-1.2,7.2-3.7,9.9c-2.4,2.2-5.5,3.4-8.8,3.2c-5.6,0-10.8-3.2-12.2-11l6.5-2c0.9,4.2,3.1,5.6,6.2,5.6
			c2,0,4.7-1,4.7-4.3s-3.4-3.9-5.3-4.4c-5.3-1.5-10.6-3.5-10.6-12.2c-0.1-3.4,1-6.7,3.3-9.3c1.9-2.2,4.7-3.3,7.6-3.2
			c5.2,0,9.6,2.4,11.4,9.3L1328.1,622.7L1328.1,622.7z"/>
		<path class="st0" d="M484.5,1655.9L843,1985.1c-5.8,0.2-9.1,0.5-12.3,0.5c-70.6,0-141.2-0.1-211.8,0.2c-7,0-12.1-2.3-17.1-6.9
			c-94.6-87.1-189.3-174.1-284.1-261c-47-43.1-94-86.3-141-129.4c-2.4-2.2-5-4.3-9.2-7.8c-1.2,28.5-0.4,55.1-0.6,81.6
			c-0.2,26.8,0,53.6,0,80.4v240.8c-8.3,2.6-155.1,3-165.5,0.6V916c4.2-0.2,7.8-0.5,11.4-0.5c108.6,0,217.2-0.8,325.8,0.2
			c141.8,1.3,256.6,58.5,342.8,171.3c39.3,51.3,60.8,110,66.5,174.5c5.8,64.8-2.9,127.2-30.4,186.6c-24.1,52-60,95-103.5,131.8
			c-36,30.7-76.8,55-120.9,72.1C490.7,1652.9,488.4,1654.1,484.5,1655.9z M167.6,1526.8c3.9,0.2,6.6,0.4,9.3,0.4
			c51.9,0,103.8,0.1,155.7-0.1c12.2,0,24.4-0.8,36.5-2.2c72.3-8.6,130-43.2,173.5-100.9c54.1-71.9,56.1-173.9,4.2-246.8
			c-50.1-70.4-119.3-107.1-205.8-109c-54.3-1.2-108.6-0.2-162.9-0.2c-3.3,0-6.6,0.4-10.5,0.6V1526.8z"/>
		<path class="st0" d="M2711.8,1985.6v-1069c2.3-0.5,4.6-0.9,7-1c90.9,0.1,182-2.6,272.7,1.1c196.8,8,353,94.2,467.4,254.2
			c49,68.5,75.1,146.1,82.4,230c6.9,79.6-1.6,157.1-30.6,231.9c-27,69.9-69.2,129.6-122.4,181.7c-63.7,62.4-137,109.5-221.6,138.4
			c-45.7,15.6-92.7,25.8-141,29.4c-25,1.8-50.1,3-75.2,3.2c-75.3,0.4-150.6,0.1-226,0.1L2711.8,1985.6z M2878.1,1832.7
			c4.2,0.3,7.5,0.6,10.8,0.6c24.4,0,48.9,0.2,73.3,0c29.5-0.3,58.9-2.5,88-8.1c79.7-15.4,148.9-51.3,208.1-106.6
			c81.4-76,122.8-168.9,119.3-281c-2.1-65.6-19.2-126.9-56.6-181c-84.2-121.7-201-184.4-349-188.5c-27.8-0.8-55.6-0.1-83.4-0.1
			c-3.3,0-6.6,0.4-10.4,0.6L2878.1,1832.7z"/>
		<path class="st0" d="M844.1,1982.1v-12.5c0-57.3,0.2-114.7-0.2-172c-0.1-9.2,3-13.8,11.1-17.9c95.1-48,190.1-96.2,284.9-144.6
			c116.7-59.4,233.4-118.8,350.1-178.2c3.2-1.6,6.1-3.7,10.8-6.5c-5.2-3-8.5-5.2-12-7c-67.1-34.2-134.2-68.3-201.3-102.4
			c-71.3-36.3-142.7-72.5-214.1-108.8c-73.5-37.3-146.9-74.7-220.4-112c-6.1-3.1-9.1-6.6-9-14c0.3-59.7,0.2-119.4,0.2-179.2
			c0-2,0.3-4,0.4-5.7c0.4-0.3,0.9-0.5,1.3-0.8c0.3-0.1,0.7-0.3,1-0.1c355.7,175.9,711.4,351.8,1067,527.7c1.3,0.8,2.5,1.7,3.7,2.7
			L844.1,1982.1z"/>
		<path class="st0" d="M1658.7,915.5h12.5c107.9,0,215.8-0.5,323.7,0.1c130.9,0.8,240.1,50.2,326.1,149.2
			c51,58.7,79.3,127.1,84.8,205c5.6,81.1-11.1,156.9-57.4,224.3c-60.1,87.6-141.7,145.7-245,172.2c-34.9,8.8-70.8,13.2-106.7,12.9
			c-52.9-0.2-105.9,0-158.8,0h-13.3c-0.3,5.4-0.8,10-0.8,14.6c-0.1,92.3-0.1,184.6,0,276.9v12.7c-8.3,2.6-153.2,3.1-165.1,0.8
			c-0.2-3.1-0.5-6.3-0.5-9.6c0-104.2-0.1-208.3-0.2-312.5c0-7.2,2.4-10.7,8.7-13.9c79.1-39,158-78.4,237-117.4
			c4.9-2.2,10.2-3.4,15.6-3.4c26.5-0.4,53,0.2,79.4-0.4c80.6-1.7,146.4-34.4,196.6-97.1c65.2-81.5,60.8-197.8-9.4-275.8
			c-41.7-46.4-93.3-74.8-155.3-83.5c-10.7-1.5-21.6-2.4-32.4-2.5c-54.6-0.3-109.3-0.1-163.9-0.1c-3,0-6,0.3-10.4,0.5
			c-0.3,44.2-0.1,87.8-0.1,131.5c0,43.4,0,86.8,0,130.2c-8.3-1.1-148.1-69.2-165.1-80L1658.7,915.5z"/>
		<path class="st0" d="M2462.6,916h163.2c2,8,2.7,1054.1,0.8,1067.7c-7,2.2-146.3,3.1-163.1,1.1c-0.3-0.3-0.6-0.5-0.8-0.7
			s-0.6-0.5-0.6-0.8c-0.4-2.3-0.6-4.7-0.7-7c0-351.8,0.1-703.7,0.2-1055.5C2461.5,919.4,2462.1,918.1,2462.6,916z"/>
		<path class="st0" d="M2295,2495.1h-39c-34.8-108.1-69.6-216-104.3-323.9l-2.4-0.1c-35,107.7-70.1,215.6-105.3,323.7h-38.7
			L1879.1,2121h40.5l105.3,330.8c11.6-26.7,18.9-54.7,27.9-82.1c9-27.4,17.6-54.9,26.4-82.3c8.8-27.8,17.6-55.6,26.3-83.4
			c8.7-27.4,17.3-54.9,26.2-83h38.4c35.1,110.1,70.2,220.5,106.1,333.4c9-23.6,14.5-45.8,21.6-67.4c7.3-22.2,14.5-44.5,21.6-66.8
			c7-22,13.9-44,20.8-65.9c7-22.3,14-44.6,21.1-66.9c6.9-22,13.9-43.9,21.1-66.4h39.5L2295,2495.1z"/>
		<path class="st0" d="M1633.5,2305.3c0.2,34.8-8.2,64.9-23.9,92.9c-31.1,55.4-78.4,88.7-140.7,98.1
			c-71.1,10.8-133.4-9.9-180.2-64.9c-97-114.1-36.6-274.3,99.7-308c70-17.3,133.3-1.1,186.7,48.2
			C1612.4,2206,1633.7,2254.5,1633.5,2305.3z M1595.5,2308.1c1.5-86.1-72-157.6-157.2-157.2c-87.1,0.4-158.2,69.6-159.1,154.7
			c-0.9,80,65.6,159.3,157.6,160C1530.8,2466.2,1596.8,2384.1,1595.5,2308.1L1595.5,2308.1z"/>
		<path class="st0" d="M867,2365.8l89.2,129.6c-14.6,0-27.4,0.3-40.1-0.3c-2.5-0.1-5.4-3.6-7.2-6.2c-13.3-19.7-26.4-39.4-39.4-59.3
			c-11.2-17-22.2-34.1-33.2-51.2c-2.4-3.7-4.8-5.8-9.7-5.7c-38.7,0.4-77.3,0.4-116,0.6c-2,0-4,0.4-7.4,0.7c0,13.3-0.1,26.4-0.1,39.5
			c0,13.6,0,27.1,0,40.7v40.4H667v-373.1c1.4-0.3,2.7-0.6,4.1-0.7c50.9,0.1,101.7-0.3,152.6,0.4c25.3,0.4,49.8,6.3,72.2,18.7
			c32.2,17.8,50.4,45.3,55.7,81.6c3.5,22.5,2,45.5-4.3,67.4c-7.1,24.2-20.6,44.4-41.6,58.5c-9.2,6.1-19.9,10-29.9,14.8
			C873.3,2363.5,870.8,2364.3,867,2365.8z M703.7,2340.3c1.7,0.3,3.3,0.5,5,0.6c36,0,71.9,0.2,107.9-0.2c16.7-0.2,33.2-3.6,48.5-10
			c25.8-10.8,43.1-29.4,49.2-56.9c2.5-11.1,3-22.9,2.8-34.3c-0.7-36.5-19.9-63-53.9-76.3c-18.3-7.1-37.5-9.2-56.9-9.4
			c-31.2-0.4-62.4-0.1-93.7-0.1c-2.9,0-5.8,0.5-9,0.8L703.7,2340.3z"/>
		<path class="st0" d="M3500.9,2291v-169.6h35.1c2.3,7.1,3,359,0.6,374.2H3501V2329c-1.1-1.3-1.3-1.6-1.6-1.9
			c-0.2-0.3-0.5-0.4-0.8-0.6c-1.7-0.3-3.3-0.5-5-0.6c-74.3,0-148.6,0-222.9,0.1c-1,0-1.9,0.5-4.1,1.1v167.7h-35.4
			c-0.3-0.2-0.5-0.4-0.8-0.6c-0.3-0.2-0.4-0.5-0.6-0.8c-0.3-1.3-0.5-2.7-0.6-4c0-121.1,0-242.2,0-363.4c0.1-1.5,0.4-3.1,0.8-4.6h36
			V2290C3273.8,2292.6,3484.2,2293.4,3500.9,2291z"/>
		<path class="st0" d="M300.1,2312.8h32c0.3,3,0.7,5.6,0.7,8.2c0,40.4-0.1,80.7,0.2,121.1c0,6.1-2.2,9.9-7,13.4
			c-29.4,22.2-64,36.4-100.5,41.4c-62,8.6-117.7-7.1-163.5-50c-94.2-88.2-79.2-236.2,32.7-302c72.8-42.9,169.4-34.9,234.4,19
			c1.5,1.3,3.1,2.5,5.4,4.3l-21.5,26.4c-3-2.3-5.5-4.3-8.1-6.4c-57.3-46.6-144.7-52.9-207.1-3.4c-68.2,54.1-79.3,151.2-25.5,219.8
			c45.5,58.1,125.6,77.6,196.3,45c8.6-4,16.6-9.1,25-13.5c5.1-2.7,6.7-6.5,6.7-12.3c-0.3-32.9-0.1-65.8-0.1-98.7v-12.3H300.1z"/>
		<path class="st0" d="M2816.4,2153.6v341.2h-37.3c-0.3-22.6-0.1-45.1-0.1-67.7s0-45.5,0-68.2V2154c-41.4-0.8-81.8,0.1-123-0.5
			v-31.6c8-2.1,273.3-2.5,284.6-0.2v31.9L2816.4,2153.6z"/>
		<g>
			<rect x="2.8" y="2622.4" class="st0" width="3538.1" height="329.6"/>
		</g>
	</g>
</g>
<g>
	<path class="st0" d="M348.5,2797v84.1H329v-183.9h39.1c15.7,0,23.5,0,27.4,2c5.9,2,13.7,5.9,17.6,7.8c5.9,5.9,9.8,9.8,15.7,17.6
		s5.9,17.6,5.9,23.5c0,9.8-2,17.6-5.9,23.5c-5.9,7.8-7.8,15.7-15.7,17.6c-5.9,5.9-9.8,5.9-17.6,7.8c-5.9,2-17.6,2-27.4,2h-5.9
		L348.5,2797L348.5,2797z M348.5,2777.4h13.7c17.6,0,31.3-2,39.1-5.9c5.9-5.9,9.8-13.7,9.8-23.5c0-13.7-5.9-17.6-9.8-25.4
		c-5.9-5.9-17.6-7.8-39.1-7.8h-13.7V2777.4z"/>
	<path class="st0" d="M778.9,2879.2v-183.9h43c13.7,0,19.6,0,27.4,2c5.9,2,13.7,5.9,17.6,7.8c5.9,5.9,9.8,9.8,13.7,17.6
		c5.9,7.8,5.9,17.6,5.9,23.5c0,17.6-5.9,27.4-13.7,35.2s-19.6,13.7-39.1,13.7h-5.9l70.4,90h-27.4l-66.5-90h-5.9v90L778.9,2879.2
		L778.9,2879.2z M800.4,2712.9v60.6H818c17.6,0,27.4-2,35.2-5.9c5.9-5.9,7.8-13.7,7.8-23.5c0-13.7-5.9-17.6-9.8-25.4
		c-5.9-5.9-17.6-7.8-33.3-7.8h-17.6L800.4,2712.9L800.4,2712.9z"/>
	<path class="st0" d="M1428.4,2787.2c0,15.7-2,25.4-7.8,39.1c-5.9,13.7-13.7,19.6-19.6,31.3c-9.8,9.8-17.6,17.6-31.3,19.6
		c-13.7,5.9-25.4,7.8-39.1,7.8s-25.4-2-39.1-7.8c-13.7-5.9-23.5-13.7-31.3-19.6c-9.8-9.8-17.6-17.6-19.6-31.3
		c-5.9-13.7-7.8-23.5-7.8-39.1c0-15.7,2-25.4,7.8-39.1s13.7-19.6,19.6-31.3c7.8-9.8,17.6-17.6,31.3-19.6c13.7-5.9,25.4-7.8,39.1-7.8
		c15.7,0,25.4,2,39.1,7.8c13.7,5.9,23.5,13.7,31.3,19.6c9.8,9.8,17.6,17.6,19.6,31.3C1426.5,2761.8,1428.4,2775.5,1428.4,2787.2z
		 M1330.6,2863.5c9.8,0,17.6-2,27.4-5.9c9.8-5.9,17.6-9.8,25.4-17.6s15.7-17.6,17.6-25.4c5.9-9.8,5.9-17.6,5.9-27.4
		s-2-17.6-5.9-27.4c-5.9-9.8-9.8-17.6-17.6-25.4c-7.8-7.8-17.6-15.7-25.4-17.6c-9.8-5.9-17.6-5.9-27.4-5.9s-17.6,2-27.4,5.9
		c-9.8,5.9-17.6,9.8-23.5,17.6s-15.7,17.6-17.6,25.4c-5.9,9.8-5.9,17.6-5.9,27.4s2,17.6,5.9,27.4c5.9,9.8,9.8,17.6,17.6,25.4
		c7.8,7.8,17.6,15.7,25.4,17.6C1309.1,2861.5,1318.9,2863.5,1330.6,2863.5z"/>
	<path class="st0" d="M1821.6,2693.3h19.6v142.8c0,17.6-5.9,27.4-9.8,35.2c-7.8,7.8-17.6,13.7-31.3,13.7c-7.8,0-15.7-2-17.6-5.9
		c-5.9-5.9-13.7-7.8-17.6-15.7l15.7-15.7c5.9,5.9,7.8,7.8,13.7,9.8c5.9,2,7.8,5.9,13.7,5.9s13.7-2,15.7-7.8c2-5.9,5.9-17.6,5.9-27.4
		L1821.6,2693.3L1821.6,2693.3z"/>
	<path class="st0" d="M2210.9,2879.2v-183.9h95.9v17.6h-74.3v52.8h74.3v17.6h-74.3v70.4h74.3v17.6L2210.9,2879.2L2210.9,2879.2z"/>
	<path class="st0" d="M2813.5,2738.3c-9.8-9.8-17.6-17.6-27.4-19.6c-9.8-5.9-19.6-7.8-33.3-7.8c-9.8,0-17.6,2-27.4,5.9
		c-9.8,2-17.6,9.8-23.5,17.6s-13.7,17.6-17.6,25.4c-5.9,9.8-5.9,17.6-5.9,27.4c0,7.8,2,17.6,5.9,23.5c2,7.8,5.9,15.7,9.8,17.6
		c7.8,9.8,17.6,17.6,27.4,23.5c13.7,5.9,19.6,7.8,35.2,7.8c13.7,0,23.5-2,33.3-7.8c9.8-5.9,17.6-13.7,27.4-19.6v27.4
		c-9.8,5.9-17.6,13.7-27.4,17.6c-9.8,5.9-19.6,5.9-33.3,5.9c-9.8,0-17.6-2-27.4-5.9c-9.8-2-17.6-7.8-25.4-13.7
		c-15.7-9.8-23.5-19.6-31.3-35.2c-7.8-15.7-9.8-27.4-9.8-45c0-15.7,2-27.4,7.8-39.1c5.9-13.7,13.7-19.6,19.6-31.3
		c9.8-9.8,17.6-17.6,31.3-17.6c13.7-5.9,23.5-5.9,39.1-5.9c9.8,0,19.6,2,31.3,5.9c9.8,5.9,17.6,7.8,27.4,17.6L2813.5,2738.3
		L2813.5,2738.3z"/>
	<path class="st0" d="M3206.7,2879.2v-162.4h-52.8v-19.6H3281v19.6h-52.8v162.4H3206.7z"/>
</g>
</svg>
