<svg xmlns="http://www.w3.org/2000/svg" xmlns:xlink="http://www.w3.org/1999/xlink" viewBox="0 0 3543.64 2952"><defs><style>.cls-1{fill:#231f20;}.cls-2{fill:none;}.cls-3{clip-path:url(#clip-path);}.cls-4{opacity:0.5;}.cls-5{fill:#273d80;}.cls-6{fill:#ec1c24;}.cls-7{fill:#17479d;}.cls-8{fill:#fff100;}.cls-9{fill:#004450;}.cls-10{fill:#7b9e3e;}.cls-11{fill:#1c2815;}.cls-12{mask:url(#mask);}.cls-13{filter:url(#luminosity-noclip);}</style><clipPath id="clip-path"><rect class="cls-2" x="1640.87" y="82.57" width="1103.29" height="566.68"/></clipPath><filter id="luminosity-noclip" x="2.79" y="2622.42" width="3538.06" height="329.58" filterUnits="userSpaceOnUse" color-interpolation-filters="sRGB"><feFlood flood-color="#fff" result="bg"/><feBlend in="SourceGraphic" in2="bg"/></filter><mask id="mask" x="2.79" y="2622.42" width="3538.06" height="329.58" maskUnits="userSpaceOnUse"><g class="cls-13"><path class="cls-1" d="M273.33,2811.46v72H247.4V2690.94h56.83q18.27,0,31.78,4.23t22.37,12A48.38,48.38,0,0,1,371.61,2726,66.22,66.22,0,0,1,376,2750.6a62.72,62.72,0,0,1-4.7,24.58,53.05,53.05,0,0,1-13.77,19.22A64.06,64.06,0,0,1,335,2807q-13.44,4.5-30.77,4.5Zm0-20.69h30.9a60.09,60.09,0,0,0,19.69-3,40.38,40.38,0,0,0,14.31-8.26,34.32,34.32,0,0,0,8.73-12.7,43.35,43.35,0,0,0,3-16.25q0-18.42-11.36-28.76t-34.33-10.34h-30.9Z"/><path class="cls-1" d="M756.75,2803.13v80.35H730.82V2690.94h54.41q18.27,0,31.58,3.7t22,10.68a42.9,42.9,0,0,1,12.83,16.86,56.46,56.46,0,0,1,4.16,22.1,55.39,55.39,0,0,1-3.22,19.08,50.49,50.49,0,0,1-9.34,15.92,56.21,56.21,0,0,1-14.91,12,73.92,73.92,0,0,1-20,7.52,27.42,27.42,0,0,1,8.6,8.2l56.16,76.45H850q-7.11,0-10.48-5.51l-50-68.79a14.55,14.55,0,0,0-5-4.64q-2.68-1.41-8.06-1.41Zm0-18.94H784a66.28,66.28,0,0,0,20.09-2.76,40.67,40.67,0,0,0,14.51-7.79,32.28,32.28,0,0,0,8.8-12,39.26,39.26,0,0,0,3-15.45q0-17.19-11.35-25.93t-33.8-8.73H756.75Z"/><path class="cls-1" d="M1393.07,2787.28a111.09,111.09,0,0,1-6.85,39.7,90.84,90.84,0,0,1-19.35,31.1,86.41,86.41,0,0,1-30,20.22,101.12,101.12,0,0,1-38.76,7.19q-21.24,0-38.7-7.19a86.59,86.59,0,0,1-30-20.22,90.84,90.84,0,0,1-19.35-31.1,118.5,118.5,0,0,1,0-79.41,91.72,91.72,0,0,1,19.35-31.17,86.91,86.91,0,0,1,30-20.35,106.94,106.94,0,0,1,77.46,0,86.73,86.73,0,0,1,30,20.35,91.72,91.72,0,0,1,19.35,31.17A111.11,111.11,0,0,1,1393.07,2787.28Zm-26.74,0a97.74,97.74,0,0,0-4.84-31.85,67.41,67.41,0,0,0-13.7-23.85,59.59,59.59,0,0,0-21.5-15,78.21,78.21,0,0,0-56.29,0,60.29,60.29,0,0,0-21.57,15,66.93,66.93,0,0,0-13.77,23.85,107,107,0,0,0,0,63.62,66.88,66.88,0,0,0,13.77,23.78,59.4,59.4,0,0,0,21.57,14.92,79.19,79.19,0,0,0,56.29,0,58.72,58.72,0,0,0,21.5-14.92,67.35,67.35,0,0,0,13.7-23.78A97.07,97.07,0,0,0,1366.33,2787.28Z"/><path class="cls-1" d="M1820.32,2817a97.4,97.4,0,0,1-4,28.89,58.45,58.45,0,0,1-11.69,21.56,50.92,50.92,0,0,1-19,13.5q-11.28,4.71-25.93,4.71a105.14,105.14,0,0,1-27.14-3.77c.18-2.59.4-5.17.67-7.72s.54-5.08.81-7.59a6,6,0,0,1,1.68-3.7,5.75,5.75,0,0,1,4.23-1.41,23.7,23.7,0,0,1,6.45,1.21,38.42,38.42,0,0,0,10.75,1.21,43.15,43.15,0,0,0,15.78-2.69,28.61,28.61,0,0,0,11.69-8.33,38.08,38.08,0,0,0,7.26-14.44,77.75,77.75,0,0,0,2.48-20.89V2690.94h25.93Z"/><path class="cls-1" d="M2305.08,2690.94v21.23h-92.43v63.95h74.83v20.43h-74.83v65.7h92.43v21.23H2186.45V2690.94Z"/><path class="cls-1" d="M2797.5,2843.71a5.39,5.39,0,0,1,3.9,1.74l10.21,11.15a82.37,82.37,0,0,1-28.68,21.37q-16.87,7.65-40.65,7.66-20.82,0-37.75-7.19a82.61,82.61,0,0,1-28.89-20.16,91.11,91.11,0,0,1-18.54-31.1,116.14,116.14,0,0,1-6.58-39.9,109.25,109.25,0,0,1,7.05-39.91,91.17,91.17,0,0,1,19.82-31.17A88.59,88.59,0,0,1,2708,2696a104.1,104.1,0,0,1,39.3-7.19q21.24,0,36.62,6.58a92.8,92.8,0,0,1,27.34,17.87l-8.47,12a8.93,8.93,0,0,1-2.15,2.22,5.91,5.91,0,0,1-3.49.87,6.77,6.77,0,0,1-3.69-1.27c-1.3-.85-2.85-1.91-4.64-3.16s-3.9-2.6-6.31-4a55.53,55.53,0,0,0-8.6-4,70.54,70.54,0,0,0-11.56-3.16,80.48,80.48,0,0,0-15.18-1.28,73.24,73.24,0,0,0-28.28,5.31,63.28,63.28,0,0,0-22.1,15.12,68.6,68.6,0,0,0-14.45,23.91,91.2,91.2,0,0,0-5.17,31.58q0,18,5.17,32.11a71,71,0,0,0,14.11,23.85,59.5,59.5,0,0,0,21.16,14.84,67.53,67.53,0,0,0,26.33,5.11,107.24,107.24,0,0,0,15.46-1A62.84,62.84,0,0,0,2772,2859a53.27,53.27,0,0,0,10.89-5.44,83.77,83.77,0,0,0,10.14-7.86A6.83,6.83,0,0,1,2797.5,2843.71Z"/><path class="cls-1" d="M3296.24,2690.94v21.9H3234v170.64H3208V2712.84h-62.48v-21.9Z"/></g></mask></defs><g id="Layer_2" data-name="Layer 2"><g id="Layer_1-2" data-name="Layer 1"><g class="cls-3"><rect class="cls-1" x="1645.57" y="545.31" width="9.91" height="74.47"/><path class="cls-1" d="M1670.29,565.87h8.35v8.54h.21c3.75-6.66,9.8-9.8,17.53-9.8,14.17,0,18.56,8.15,18.56,19.71v35.46h-8.87v-36.5c0-6.56-4.17-10.84-11-10.84-10.73,0-15.95,7.19-15.95,16.89v30.45h-8.87Z"/><polygon class="cls-1" points="1752.2 619.78 1742.71 619.78 1722.67 565.87 1732.59 565.87 1747.71 610.81 1747.91 610.81 1762.62 565.87 1771.91 565.87 1752.2 619.78"/><path class="cls-1" d="M1825.64,602.68c-2.41,11.88-11,18.36-23.05,18.36-17.21,0-25.35-11.89-25.86-28.38,0-16.16,10.63-28,25.34-28,19.07,0,24.92,17.83,24.4,30.88H1786.1c-.31,9.37,5,17.72,16.8,17.72,7.3,0,12.41-3.55,14-10.53Zm-8.55-15c-.43-8.46-6.79-15.23-15.55-15.23-9.27,0-14.81,7-15.44,15.23Z"/><path class="cls-1" d="M1840.69,602.78c.31,7.93,7.19,10.43,14.49,10.43,5.53,0,13-1.26,13-8s-8.76-8-17.62-10S1833,590.27,1833,580c0-10.85,10.72-15.34,20.11-15.34,11.89,0,21.38,3.76,22.11,16.9h-8.86c-.62-6.88-6.67-9.07-12.51-9.07-5.33,0-11.48,1.46-11.48,6.88,0,6.36,9.39,7.4,17.64,9.38,8.86,2,17.62,4.91,17.62,15.33,0,12.82-12,17-22.94,17-12.11,0-22.32-4.91-22.85-18.26Z"/><path class="cls-1" d="M1899.31,565.87h10.75v7.82h-10.75v33.48c0,4.06,1.15,4.78,6.68,4.78h4.07v7.83h-6.78c-9.17,0-12.82-1.87-12.82-11.78V573.69h-9.18v-7.82h9.18V549.7h8.85Z"/><path class="cls-1" d="M1928.86,556.16H1920V545.31h8.88Zm-8.88,9.71h8.88v53.91H1920Z"/><path class="cls-1" d="M1942.21,565.87h8.34v8.54h.22c3.74-6.66,9.78-9.8,17.51-9.8,14.18,0,18.57,8.15,18.57,19.71v35.46H1978v-36.5c0-6.56-4.18-10.84-11-10.84-10.74,0-16,7.19-16,16.89v30.45h-8.86Z"/><path class="cls-1" d="M2046.33,615.19c0,17.52-8,26.49-25,26.49-10.12,0-21.81-4.06-22.32-15.85h8.85c.42,6.46,8.15,8.76,14,8.76,11.58,0,16.16-8.34,16.16-20.44V610.6h-.21c-2.92,6.58-10,9.8-16.79,9.8-16.06,0-24.09-12.61-24.09-27.32,0-12.71,6.25-28.47,24.93-28.47,6.79,0,12.82,3,16,9h.11v-7.72h8.35Zm-8.76-23.46c0-9.49-4.17-19.29-15.34-19.29-11.37,0-16,9.27-16,19.59,0,9.7,3.54,20.56,15.22,20.56S2037.57,601.84,2037.57,591.73Z"/><path class="cls-1" d="M2097.26,556.16h-8.87V545.31h8.87Zm-8.87,9.71h8.87v53.91h-8.87Z"/><path class="cls-1" d="M2110.61,565.87H2119v8.54h.22c3.75-6.66,9.8-9.8,17.52-9.8,14.18,0,18.56,8.15,18.56,19.71v35.46h-8.87v-36.5c0-6.56-4.17-10.84-11-10.84-10.73,0-15.95,7.19-15.95,16.89v30.45h-8.87Z"/><path class="cls-1" d="M2196.5,565.87h8.34v11.36h.21c4.27-8.65,10.21-12.93,19.82-12.62V574c-14.31,0-19.52,8.14-19.52,21.79v24h-8.85Z"/><path class="cls-1" d="M2275.77,619.78h-8.34v-8.55h-.21c-3.76,6.68-9.8,9.81-17.52,9.81-14.19,0-18.56-8.14-18.56-19.71V565.87H2240v36.5c0,6.57,4.17,10.84,10.95,10.84,10.73,0,16-7.19,16-16.89V565.87h8.86Z"/><path class="cls-1" d="M2288.43,565.87h8.34v11.36h.19c4.28-8.65,10.23-12.93,19.83-12.62V574c-14.29,0-19.5,8.14-19.5,21.79v24h-8.86Z"/><path class="cls-1" d="M2370.81,619.58a11.86,11.86,0,0,1-6.34,1.46c-4.61,0-7.52-2.52-7.52-8.35-4.9,5.74-11.47,8.35-19,8.35-9.82,0-17.84-4.38-17.84-15.13,0-12.2,9.07-14.81,18.24-16.58,9.81-1.87,18.16-1.25,18.16-7.92,0-7.72-6.37-9-12-9-7.5,0-13,2.29-13.44,10.22h-8.88c.53-13.34,10.85-18,22.85-18,9.69,0,20.23,2.19,20.23,14.81v27.75c0,4.17,0,6,2.81,6a7.42,7.42,0,0,0,2.7-.52Zm-14.38-27.66c-3.44,2.52-10.11,2.62-16.06,3.67s-10.85,3.13-10.85,9.7c0,5.84,5,7.92,10.43,7.92,11.68,0,16.48-7.3,16.48-12.2Z"/><rect class="cls-1" x="2379.2" y="545.31" width="8.87" height="74.47"/><path class="cls-1" d="M2430.32,565.87h8.87v7.3h.21c2.92-5.95,9.8-8.56,17.21-8.56,16.58,0,24.81,13.14,24.81,28.37S2473.29,621,2456.81,621c-5.52,0-13.45-2.1-17.41-8.45h-.21v27.84h-8.87Zm25,6.57c-11.89,0-16.48,10.22-16.48,20.33,0,10.63,4.79,20.44,17,20.44S2472,602.89,2472,592.35C2472,582.24,2466.82,572.44,2455.36,572.44Z"/><path class="cls-1" d="M2537.45,602.68c-2.4,11.88-10.94,18.36-23,18.36-17.2,0-25.34-11.89-25.87-28.38,0-16.16,10.65-28,25.35-28,19.09,0,24.92,17.83,24.4,30.88h-40.36c-.31,9.37,5,17.72,16.8,17.72,7.3,0,12.39-3.55,14-10.53Zm-8.54-15c-.42-8.46-6.79-15.23-15.53-15.23-9.3,0-14.82,7-15.45,15.23Z"/><path class="cls-1" d="M2570.33,564.61c17.1,0,26.18,12.42,26.18,28.27S2587.43,621,2570.33,621s-26.17-12.42-26.17-28.16,9.08-28.27,26.17-28.27m0,48.6c9.29,0,16.79-7.3,16.79-20.33s-7.5-20.44-16.79-20.44-16.78,7.3-16.78,20.44S2561.06,613.21,2570.33,613.21Z"/><path class="cls-1" d="M2606.87,565.87h8.87v7.3h.19c2.93-5.95,9.82-8.56,17.22-8.56,16.57,0,24.82,13.14,24.82,28.37S2649.84,621,2633.35,621c-5.53,0-13.45-2.1-17.42-8.45h-.19v27.84h-8.87Zm25,6.57c-11.89,0-16.47,10.22-16.47,20.33,0,10.63,4.79,20.44,17,20.44s16.15-10.32,16.15-20.86C2648.57,582.24,2643.36,572.44,2631.89,572.44Z"/><rect class="cls-1" x="2668.55" y="545.31" width="8.86" height="74.47"/><path class="cls-1" d="M2736.74,602.68c-2.39,11.88-10.95,18.36-23,18.36-17.19,0-25.33-11.89-25.86-28.38,0-16.16,10.63-28,25.36-28,19.06,0,24.92,17.83,24.38,30.88h-40.35c-.31,9.37,5,17.72,16.79,17.72,7.3,0,12.41-3.55,14-10.53Zm-8.54-15c-.43-8.46-6.78-15.23-15.53-15.23-9.3,0-14.81,7-15.45,15.23Z"/><path class="cls-1" d="M1920.41,461.53h41.21V300.09h-41.21Zm70.45,0h39.49V400h46.93V363.78h-46.93V336.29H2079v-36.2h-88.18Zm193.2-23.32,7.85,23.32h44.74L2172.5,300.09H2140l-64.8,161.44h44.29l8.49-23.32Zm-28.12-88h.63l16.59,55.22h-33.8ZM2251,461.53h56.49c61.33,0,83.14-37.1,83.14-81.14,0-17.69-3.7-34.92-14.83-50.2-20.94-30.1-53.23-30.1-71.36-30.1H2251Zm41.24-125.24h17.89c18.32,0,26.61,7.65,31.43,14.87,5.89,9.14,7.82,20.7,7.82,29.87,0,22.92-8.68,44.29-39.48,44.29h-17.66Z"/><path class="cls-1" d="M1764.08,207.16c-2.17-2.84-3.09-4.73-5.58-7.31a31.17,31.17,0,0,0-6.77-5.44c-2-1.23-3.29-1.56-5.26-2.75a31.26,31.26,0,0,1-5.91-4.16,30,30,0,0,1-4.68-5.44,33.38,33.38,0,0,1-4.84-8.35,27,27,0,0,1-2.09-8.09,31.86,31.86,0,0,1,.13-8.67,34.33,34.33,0,0,1,1.48-6.32,17.34,17.34,0,0,1,1.51-3.74,12.47,12.47,0,0,1,2.14-2.88V93.63h3.07V145c.23,2.81-.08,4.49.63,7.25a16.64,16.64,0,0,0,2.51,6.24,14.61,14.61,0,0,0,5.29,5.27,9.26,9.26,0,0,0,3.58,1.84,15,15,0,0,0,1.89.07A29.62,29.62,0,0,1,1750,157a27.72,27.72,0,0,1,1.29-9.11V93.63h3v49.29l.08.07.12-.26a24.62,24.62,0,0,1,2.17-2.38,10.09,10.09,0,0,1,2.22-1.55,9.2,9.2,0,0,1,2.32-.9,15.33,15.33,0,0,1,2.9-.31,15,15,0,0,1,2.89.31,9.47,9.47,0,0,1,2.32.9,9.75,9.75,0,0,1,2.24,1.55,27.11,27.11,0,0,1,2.16,2.38l.15.26.06-.07V93.63h3v54.3a26.46,26.46,0,0,1,1.29,9.11,28.63,28.63,0,0,1-1.21,8.58,15.79,15.79,0,0,0,1.94-.07,9.48,9.48,0,0,0,3.58-1.84,14.68,14.68,0,0,0,5.29-5.27,17.35,17.35,0,0,0,2.52-6.24c.65-2.76.35-4.44.6-7.25V93.63h3V144a12.63,12.63,0,0,1,2.18,2.88,18.91,18.91,0,0,1,1.48,3.74,32.06,32.06,0,0,1,1.48,6.32,30.7,30.7,0,0,1,.15,8.67,27.58,27.58,0,0,1-2.09,8.09,33.33,33.33,0,0,1-4.84,8.35,31.25,31.25,0,0,1-4.69,5.44,30.33,30.33,0,0,1-5.91,4.16c-2,1.19-3.29,1.54-5.27,2.75a31.53,31.53,0,0,0-6.77,5.44c-2.52,2.57-3.39,4.47-5.58,7.31"/><path class="cls-1" d="M1764.08,250.49a55.87,55.87,0,0,0-16.68-17.72s-2.62-1.78-9.24-5.51c-5.36-3-8.79-6.82-11.89-10.53-17.76-26.26-8-50-6.26-49.49l.15-.13-.15.13V93.63h3V173s-1.53,9.15,12.31,15.3c8.86,3.94,20.82,14.69,28.74,28.45,7.93-13.76,19.86-24.51,28.75-28.45,13.84-6.15,12.31-15.3,12.31-15.3V93.63h3v73.61l-.15-.13.15.13c1.79-.49,11.46,23.23-6.24,49.49-3.11,3.71-6.56,7.52-11.93,10.53-6.62,3.73-9.22,5.51-9.22,5.51a55.76,55.76,0,0,0-16.68,17.72"/><path class="cls-1" d="M1764.08,294.27a34.65,34.65,0,0,0-20.85-20.39c-56-20.83-35.67-64.82-33.7-66.86V93.63h3.1V206.71a30.27,30.27,0,0,0,1.72,8c1.64,4.41,4.49,9.11,7.35,10.86,6.91,4.19,11.6,5.07,18.11,8.49,5.76,3,13,7.95,24.27,20.94,11.27-13,18.49-17.9,24.27-20.94,6.53-3.42,11.2-4.3,18.11-8.49,2.86-1.75,5.73-6.45,7.35-10.86a30.27,30.27,0,0,0,1.72-8V93.63h3.11V207c1.93,2,22.29,46-33.7,66.86a34.75,34.75,0,0,0-20.86,20.39"/><path class="cls-1" d="M1682.24,461.51h-36.33v-32h36.18a28.8,28.8,0,0,0,28.74-28.82V300.19h31l.07,101.55a59.62,59.62,0,0,1-59.66,59.77"/><path class="cls-1" d="M1846,461.51h36.34v-32h-36.17a28.82,28.82,0,0,1-28.74-28.82V300.19h-31l0,101.55A59.63,59.63,0,0,0,1846,461.51"/><path class="cls-1" d="M1681.78,500.28h-35.87v-32h36.18c41.1,0,66.55-32.18,66.55-67.55V300.19h31l0,101.55c0,53.49-42.42,98.54-97.9,98.54"/></g><g class="cls-4"><rect class="cls-1" x="1504.06" width="5.1" height="731.82"/></g><polygon class="cls-5" points="1333.24 533.07 804.22 578.98 804.22 529.75 1333.24 529.75 1333.24 533.07 1333.24 533.07"/><polygon class="cls-6" points="804.22 578.98 1333.24 533.07 1333.24 582.37 804.22 582.37 804.22 578.98 804.22 578.98"/><path class="cls-5" d="M1244.58,262.9H1181V180.61l-88.09-.05-.28,82.34h-58.92V180.59h-88.5V282.67c-13.89-14.6-32.69-24.45-54.57-24.45-68.86,0-91.19,64.41-91.19,126C799.48,443.51,822.27,508,888,508c28.59,0,47.84-10.36,60.77-36.7h.92v32h84V324.08h59.74V401.4c0,25.88-4,58.58,13.39,78.34s34.72,23.64,63.9,24.47l55.93-.77V435s-17-.5-25.46-.5c-21,0-19.26-17-19.26-34.43v-76h62.6V503.25h88.56V262.9ZM939.88,433.16c-5,8-10.76,12.26-19.7,12.26-27.73,0-29.06-37.65-29.06-58.83a252.36,252.36,0,0,1,4.5-44.66c2.68-14.57,9.35-25.38,25-25.38,7.18,0,15.22,3.25,19.26,9.39,5.76,7.54,5.36,18.81,5.36,28.22v48.42c0,11.8.85,20.26-5.36,30.58Z"/><polygon class="cls-7" points="1340.17 166.04 1339.58 165.58 1339.81 165.99 1340.17 166.04"/><path class="cls-5" d="M1290.8,82.57c-41.72,0-75.49,35.53-75.49,79.35s33.77,79.39,75.49,79.39,75.39-35.53,75.39-79.39S1332.4,82.57,1290.8,82.57Zm51.14,66.52,4.36,3.55-.44,2.92,2.66,4.28,1.69,8.53-4.27.2-1.78-3.47-1.35-.77.13.19-.09,3.2,3.76,3.77,2.14,5.78-4.13,1-.14,3.3-4.31-1.35-2.08-4.73,1.63-1.52-1.27-3.06-1.73,1.8-3.9-.64-2.18-10.34,2.5-2.85-3-1.67-1.11-6.44ZM1329,170.82l1.67,8.56-4,6.72.42,6.18-3.37,2.7-1.49-6,3.76-18.25Zm-64-65.71,4.22,2.74.87-15.44,3.76-4.57,17.79.08,2.36-2.48,2.5,1.9-2.68,2.87,3.46,5.16.27,6.54-11.67,7.71,5.9,16.5,4.44.67-.08-2.13,7.08-.54,6.27,5.26,3-2.68,7.37,3.57.31,2.15-2.68.38,6.63,7.26-3,6.58,4.15,5-5.4,3.8-3.59-4.39-2.54,3.53-2.67-.63,1.25-3.62-1.54-1.3,1.32-6.35-6.58-5.54-.58,2.58L1290.8,131l-9.77,2.47-1.76-3-4,1-13.16-21.48Zm52.93,87-1.45,3.5-14.39-5.47.14-5.59,4.4-2.93,1.22-6.88,7.85-5.85,5.67,4-6.21,7.83-.6,10.24Zm-57.42-11.46-4.27,1.06.28,3-12.4,9.12-4-4.39,23.15-19.76-1.32-3.14,2.5-7.89h3.32l1.85,8.49,2.14,2.42Zm17.19-26.79-.8-5.33-3.56-3.5.14-4.34,15.31.26,2.62,5.75-5.16,12.18Zm10.27,22.84.73-16,2.85-2.23,6.53,3.07,11.18-1.39,1.86,3.48-11.58,9.14-3.93-.15-3.88,5Zm38.76,48.2-1.1-6.19,3.6-4.14-2.81-3.1-6.63.4-6.68,3.76-3-1-1.59-1.65-6.8,10.06-6.9-.27,3.3-5.32-2.47-1.7,2.12-2.77,13-4.92.92-6.41,11.07-.43,5.66,4.34,3.65-4.78,4.9-.11-.14-8.72,3.72.16,2.41,3.22,4.81-3.5-1.37-5.18,3.87-7.55,3.17,2.78-2.23,2.93,4.5,5.36-9.31,16.62Z"/><polygon class="cls-8" points="1267.69 158.62 1264.37 158.62 1261.87 166.5 1263.19 169.65 1240.04 189.41 1244.08 193.8 1256.48 184.68 1256.2 181.71 1260.47 180.66 1271.68 169.53 1269.54 167.11 1267.69 158.62"/><polygon class="cls-8" points="1288.75 140.94 1273.44 140.69 1273.3 145.03 1276.86 148.53 1277.66 153.86 1286.21 158.88 1291.37 146.7 1288.75 140.94"/><polygon class="cls-8" points="1279.27 130.45 1281.03 133.43 1290.8 130.96 1304.87 139.68 1305.45 137.1 1312.03 142.65 1310.71 148.99 1312.25 150.29 1310.99 153.91 1313.67 154.53 1316.21 151.01 1319.8 155.4 1325.2 151.6 1321.05 146.64 1324.06 140.06 1317.43 132.81 1320.11 132.42 1319.8 130.27 1312.43 126.7 1309.45 129.38 1303.18 124.12 1296.1 124.66 1296.18 126.79 1291.74 126.13 1285.84 109.62 1297.51 101.91 1297.24 95.37 1293.78 90.21 1296.46 87.34 1293.96 85.44 1291.6 87.92 1273.81 87.84 1270.05 92.41 1269.18 107.85 1264.96 105.11 1262.14 109.94 1275.3 131.43 1279.27 130.45"/><path class="cls-8" d="M1333.14,158.88l-2.5,2.85,2.18,10.34,3.9.64,1.73-1.8,1.27,3.06-1.63,1.52,2.08,4.73,4.31,1.35.14-3.3,4.13-1-2.14-5.78-3.76-3.77.09-3.2-.13-.19,1.35.77,1.78,3.47,4.27-.2-1.69-8.53-2.66-4.28.44-2.92-4.36-3.55-12.9,1.68,1.11,6.44Zm7,7.16-.36,0-.23-.41Z"/><polygon class="cls-8" points="1299.5 172.79 1311.08 163.65 1309.22 160.18 1298.04 161.56 1291.51 158.49 1288.66 160.72 1287.93 176.7 1291.69 177.66 1295.57 172.64 1299.5 172.79"/><polygon class="cls-8" points="1321.33 172.91 1315.66 168.9 1307.81 174.74 1306.59 181.62 1302.19 184.55 1302.05 190.14 1316.44 195.61 1317.89 192.11 1314.52 190.99 1315.12 180.75 1321.33 172.91"/><polygon class="cls-8" points="1323.78 194.98 1327.15 192.28 1326.73 186.1 1330.68 179.38 1329.01 170.82 1326.05 170.76 1322.29 189.02 1323.78 194.98"/><polygon class="cls-8" points="1351.15 184.84 1353.38 181.91 1350.21 179.13 1346.34 186.68 1347.71 191.86 1342.89 195.37 1340.49 192.15 1336.78 191.98 1336.91 200.7 1332.01 200.81 1328.36 205.59 1322.7 201.25 1311.63 201.68 1310.71 208.09 1297.69 213.01 1295.57 215.78 1298.04 217.48 1294.74 222.8 1301.64 223.07 1308.44 213.01 1310.03 214.66 1313.08 215.63 1319.75 211.87 1326.38 211.47 1329.19 214.56 1325.59 218.71 1326.69 224.9 1346.34 206.82 1355.65 190.2 1351.15 184.84"/><path class="cls-5" d="M811.22,626.89V616.44h3.85c1.32,0,2.77,0,3.87,1.1a5.87,5.87,0,0,1,1.45,4.1,6.29,6.29,0,0,1-1,3.54c-1.17,1.71-2.59,1.71-4.27,1.71Zm0,7.22h4.49c3.18,0,5.89,0,8.48-2.83,2.27-2.44,3.23-6.24,3.23-9.91,0-4.14-1.37-7.55-3.87-9.84s-5.16-2.29-8.07-2.29H804.22v39.43h7V634.11Z"/><polygon class="cls-5" points="882.62 648.67 875.58 648.67 875.58 632.44 866.37 632.44 866.37 648.67 859.33 648.67 859.33 609.24 866.37 609.24 866.37 624.65 875.58 624.65 875.58 609.24 882.62 609.24 882.62 648.67 882.62 648.67"/><polygon class="cls-5" points="923.56 648.67 916.57 648.67 916.57 609.24 923.56 609.24 923.56 648.67 923.56 648.67"/><polygon class="cls-5" points="976.58 640.88 976.58 648.67 957.55 648.67 957.55 609.24 964.5 609.24 964.5 640.88 976.58 640.88 976.58 640.88"/><polygon class="cls-5" points="1014.83 648.67 1007.84 648.67 1007.84 609.24 1014.83 609.24 1014.83 648.67 1014.83 648.67"/><path class="cls-5" d="M1056,626.89V616.44h3.9a5,5,0,0,1,3.82,1.1,6,6,0,0,1,1.44,4.1,6.25,6.25,0,0,1-.95,3.54c-1.23,1.71-2.57,1.71-4.31,1.71Zm0,7.22h4.5c3.18,0,5.93,0,8.52-2.83,2.22-2.44,3.23-6.24,3.23-9.91a13,13,0,0,0-3.86-9.84c-2.54-2.29-5.21-2.29-8.12-2.29H1049v39.43h7V634.11Z"/><path class="cls-5" d="M1111.2,626.89V616.44h3.9c1.27,0,2.73,0,3.81,1.1a5.82,5.82,0,0,1,1.45,4.1,6.59,6.59,0,0,1-.95,3.54c-1.22,1.71-2.64,1.71-4.26,1.71Zm0,7.22h4.49c3.17,0,6,0,8.53-2.83,2.22-2.44,3.23-6.24,3.23-9.91,0-4.14-1.37-7.55-3.87-9.84s-5.16-2.29-8.07-2.29h-11.3v39.43h7V634.11Z"/><polygon class="cls-5" points="1166.53 648.67 1159.63 648.67 1159.63 609.24 1166.53 609.24 1166.53 648.67 1166.53 648.67"/><polygon class="cls-5" points="1223.78 648.67 1217.81 648.67 1206.28 622.21 1206.15 622.21 1206.15 648.67 1200.76 648.67 1200.76 609.24 1208.23 609.24 1218.32 632.44 1218.36 632.44 1218.36 609.24 1223.78 609.24 1223.78 648.67 1223.78 648.67"/><polygon class="cls-5" points="1264.66 616.9 1264.66 624.89 1276.06 624.89 1276.06 632.3 1264.66 632.3 1264.66 641.02 1279.1 641.02 1279.1 648.67 1257.68 648.67 1257.68 609.24 1279.1 609.24 1279.1 616.9 1264.66 616.9 1264.66 616.9"/><path class="cls-5" d="M1326.35,620.55c-.87-3.35-2.5-4.68-5.18-4.68-1.85,0-4.12.62-4.12,3.67,0,2.87,2.58,3.59,4.31,4,2.44.64,5.73,1.46,7.86,3.3a12.06,12.06,0,0,1,3.89,9.32,14.26,14.26,0,0,1-3.67,9.88,12,12,0,0,1-8.72,3.22c-5.62,0-10.76-3.22-12.11-10.93l6.49-1.94c.9,4.14,3.12,5.56,6.21,5.56,2,0,4.72-1,4.72-4.25s-3.44-3.92-5.27-4.39c-5.3-1.44-10.57-3.49-10.57-12.12a13.51,13.51,0,0,1,3.23-9.29,9.46,9.46,0,0,1,7.53-3.18c5.21,0,9.52,2.39,11.33,9.26l-5.93,2.58Z"/><path class="cls-9" d="M484.49,1655.87,843,1985.08c-5.83.23-9.07.47-12.31.47-70.59,0-141.17-.08-211.75.15-7,0-12.06-2.26-17.11-6.91q-141.95-130.62-284.12-261-70.49-64.71-141-129.39c-2.42-2.22-5-4.26-9.22-7.82-1.24,28.53-.41,55.1-.56,81.64-.16,26.81,0,53.62,0,80.42v240.79c-8.29,2.62-155.09,3-165.5.64V916c4.15-.18,7.79-.48,11.42-.48,108.59,0,217.19-.8,325.77.17C480.42,917,595.2,974.24,681.42,1087c39.26,51.33,60.77,110,66.55,174.5,5.81,64.83-2.89,127.24-30.4,186.57-24.14,52-60,95-103.5,131.85A419,419,0,0,1,493.16,1652C490.72,1652.93,488.37,1654.13,484.49,1655.87ZM167.55,1526.75c3.91.2,6.6.45,9.29.45,51.91,0,103.82.14,155.74-.1a320.53,320.53,0,0,0,36.51-2.18c72.31-8.62,130-43.18,173.45-100.92,54.1-71.92,56.06-173.86,4.18-246.85-50.06-70.43-119.3-107.13-205.83-109-54.26-1.16-108.57-.23-162.86-.2-3.29,0-6.59.36-10.48.58Z"/><path class="cls-9" d="M2711.75,1985.56V916.61a48.41,48.41,0,0,1,7-1.05c90.92.12,182-2.62,272.73,1.06,196.78,8,353,94.19,467.45,254.22,49,68.46,75.12,146.09,82.42,230,6.92,79.56-1.62,157.08-30.57,231.9-27,69.86-69.19,129.55-122.42,181.71-63.68,62.39-137,109.53-221.58,138.44-45.74,15.63-92.72,25.82-141,29.37-25,1.85-50.1,3-75.16,3.17-75.32.4-150.64.14-226,.14Zm166.31-152.88c4.2.25,7.52.61,10.84.61,24.43,0,48.86.24,73.28,0,29.54-.32,58.94-2.52,88-8.12,79.69-15.36,148.86-51.28,208.1-106.59,81.37-76,122.78-168.93,119.26-281-2.06-65.61-19.22-126.94-56.62-181-84.16-121.72-201-184.39-349-188.49-27.79-.77-55.63-.14-83.45-.09-3.28,0-6.56.38-10.4.62Z"/><path class="cls-10" d="M844.11,1982.13V1969.6c0-57.35.21-114.7-.21-172-.07-9.17,3-13.85,11.08-17.94q142.64-72,284.94-144.59Q1315,1546,1490,1456.91c3.15-1.61,6.07-3.66,10.79-6.54-5.18-3-8.47-5.19-12-7q-100.65-51.23-201.35-102.38-107-54.4-214.07-108.83-110.19-56-220.41-112c-6.1-3.09-9.08-6.6-9-14,.3-59.72.17-119.44.19-179.16,0-2,.25-4,.36-5.66a11.23,11.23,0,0,1,1.34-.77c.3-.11.72-.26,1-.14q533.54,263.82,1067,527.7a35.54,35.54,0,0,1,3.69,2.69Z"/><path class="cls-9" d="M1658.66,915.51h12.5c107.9,0,215.81-.52,323.72.13,130.86.79,240.06,50.22,326.08,149.16q76.56,88.08,84.78,205c5.56,81.13-11.07,156.88-57.37,224.33-60.11,87.55-141.68,145.7-245,172.19a422.6,422.6,0,0,1-106.74,12.94c-52.94-.15-105.87,0-158.81,0h-13.28c-.3,5.42-.77,10-.77,14.61q-.08,138.45,0,276.89v12.68c-8.35,2.62-153.21,3.13-165.14.77-.17-3.05-.51-6.33-.51-9.61q0-156.25-.18-312.52c0-7.16,2.36-10.74,8.73-13.88,79.07-39,158-78.39,237-117.41a37.44,37.44,0,0,1,15.56-3.37c26.47-.39,53,.16,79.4-.41,80.59-1.74,146.44-34.44,196.59-97.14,65.17-81.46,60.79-197.82-9.35-275.81-41.71-46.38-93.29-74.75-155.26-83.48a241.21,241.21,0,0,0-32.43-2.46c-54.63-.25-109.26-.13-163.9-.1-3,0-6,.28-10.4.5-.25,44.16-.08,87.84-.11,131.51q0,65.05,0,130.24c-8.28-1.14-148.06-69.19-165.06-80Z"/><path class="cls-9" d="M2462.55,916h163.22c2,8,2.69,1054.1.82,1067.7-7,2.22-146.29,3.12-163.14,1.06-.31-.28-.57-.49-.8-.74s-.56-.51-.6-.79a60.1,60.1,0,0,1-.7-7q0-527.76.19-1055.52C2461.54,919.39,2462.09,918.09,2462.55,916Z"/><path class="cls-11" d="M2295,2495.11H2256Q2203.79,2333,2151.7,2171.23l-2.42-.07q-52.53,161.55-105.26,323.7h-38.65L1879.14,2121h40.52L2025,2451.8c11.6-26.73,18.9-54.7,27.94-82.07s17.63-54.86,26.35-82.32q13.23-41.68,26.34-83.4c8.67-27.45,17.32-54.9,26.18-83h38.43c35.05,110.15,70.17,220.5,106.09,333.4,9-23.55,14.5-45.78,21.6-67.45q10.92-33.34,21.56-66.77c7-22,13.86-44,20.78-65.95q10.53-33.47,21.07-66.93c6.94-22,13.94-43.87,21.09-66.35h39.47Z"/><path class="cls-11" d="M1633.49,2305.34c.18,34.8-8.15,64.85-23.9,92.9-31.09,55.37-78.36,88.69-140.72,98.14-71.12,10.78-133.42-9.86-180.21-64.92-97-114.1-36.63-274.31,99.65-308,70-17.31,133.26-1.14,186.66,48.19A180.67,180.67,0,0,1,1633.49,2305.34Zm-38,2.71c1.53-86.11-72-157.57-157.16-157.24-87.08.35-158.2,69.59-159.12,154.68-.87,80,65.58,159.33,157.57,160C1530.82,2466.19,1596.78,2384.05,1595.51,2308.05Z"/><path class="cls-11" d="M867,2365.79l89.24,129.65c-14.64,0-27.38.34-40.06-.29-2.51-.12-5.41-3.58-7.15-6.16q-19.92-29.5-39.41-59.3-16.76-25.49-33.21-51.17c-2.36-3.67-4.78-5.78-9.68-5.73-38.66.39-77.31.43-116,.62-2,0-4,.37-7.4.71,0,13.29-.08,26.38-.09,39.47q0,20.34,0,40.69v40.41H667V2121.58a26.33,26.33,0,0,1,4.13-.71c50.87.06,101.74-.33,152.6.44,25.3.38,49.75,6.27,72.15,18.67,32.2,17.81,50.36,45.28,55.67,81.6a157,157,0,0,1-4.3,67.45c-7.06,24.24-20.56,44.36-41.59,58.47-9.17,6.15-19.88,10-29.92,14.84C873.33,2363.49,870.77,2364.31,867,2365.79Zm-163.33-25.52a45.81,45.81,0,0,0,5,.65c36,0,71.93.21,107.89-.22a128.67,128.67,0,0,0,48.54-10c25.76-10.82,43.09-29.42,49.2-56.88,2.47-11.12,3-22.88,2.83-34.32-.67-36.47-19.89-63-53.9-76.27-18.32-7.13-37.51-9.2-56.88-9.42-31.22-.36-62.44-.12-93.65-.07-2.92,0-5.83.49-9,.78Z"/><path class="cls-11" d="M3500.89,2291V2121.37H3536c2.25,7.05,3,359,.6,374.16H3501V2329c-1.13-1.33-1.32-1.62-1.57-1.85a1.78,1.78,0,0,0-.79-.55,37.25,37.25,0,0,0-5-.56q-111.47,0-222.92.11c-1,0-1.9.49-4.05,1.09v167.7h-35.39a7,7,0,0,1-.79-.65,1.78,1.78,0,0,1-.55-.78,22.94,22.94,0,0,1-.58-4q0-181.68,0-363.38a32.84,32.84,0,0,1,.75-4.6h36V2290C3273.82,2292.57,3484.16,2293.42,3500.89,2291Z"/><path class="cls-11" d="M300.09,2312.75h32c.26,3,.68,5.58.68,8.18.05,40.37-.09,80.73.16,121.1,0,6.15-2.22,9.86-7,13.43a214.77,214.77,0,0,1-100.49,41.35c-62,8.63-117.66-7.07-163.48-50-94.22-88.2-79.18-236.19,32.65-302,72.79-42.86,169.44-34.94,234.42,19,1.55,1.29,3.15,2.51,5.43,4.31L313,2194.54c-3-2.33-5.55-4.32-8.07-6.37-57.34-46.64-144.69-52.93-207.13-3.4-68.24,54.12-79.25,151.17-25.52,219.8,45.46,58.07,125.61,77.59,196.28,45,8.59-4,16.63-9.1,25-13.48,5.12-2.68,6.7-6.54,6.66-12.3-.26-32.9-.13-65.81-.13-98.71Z"/><path class="cls-11" d="M2816.37,2153.61v341.18h-37.3c-.28-22.55-.09-45.15-.12-67.74s0-45.46,0-68.18V2154c-41.35-.77-81.83.09-123-.5v-31.6c8-2.14,273.33-2.47,284.63-.16v31.85Z"/><g class="cls-12"><rect class="cls-9" x="2.79" y="2622.42" width="3538.06" height="329.58"/></g></g></g></svg>