<?xml version="1.0" encoding="utf-8"?>
<!-- Generator: Adobe Illustrator 23.0.5, SVG Export Plug-In . SVG Version: 6.00 Build 0)  -->
<svg version="1.1" xmlns="http://www.w3.org/2000/svg" xmlns:xlink="http://www.w3.org/1999/xlink" x="0px" y="0px"
	 viewBox="0 0 1000 800" style="enable-background:new 0 0 1000 800;" xml:space="preserve">
<style type="text/css">
	.st0{fill:#E3EBD5;}
	.st1{opacity:0.3;}
	.st2{fill:#FFFFFF;}
	.st3{fill:#B97262;}
	.st4{fill:#D67086;}
	.st5{fill:#292949;}
	.st6{fill:#EFBFA5;}
	.st7{fill:#5D66D3;}
	.st8{fill:#1F4F5A;}
	.st9{fill:#3B767F;}
	.st10{fill:#FFFFEE;}
	.st11{fill:#ECE9DE;}
	.st12{fill:#FFFFEF;}
	.st13{fill:#8CABEF;}
	.st14{fill:#AEAEAF;}
	.st15{fill:#3B3387;}
	.st16{fill:#322E7F;}
</style>
<g id="background">
	<rect x="0" class="st0" width="1000" height="800"/>
</g>
<g id="shadow">
	<g class="st1">
		<path class="st2" d="M462.5,670.6c-23,0.1-46,0.7-69,3.4c-8.7,1-17.1,3.3-25.8,4.2c-17.3,1.8-34.4,5.2-51.8,6.7
			c-14,1.3-28.1,2-42.1,3.6c-13.1,1.5-27.6,1.1-40.6-1.3c-9.6-1.8-19.3-2.9-28.8-5.8c-10.6-3.3-22.1-5.6-33.1-5.5
			c-15.7,0.1-31.1,0.1-46.1,5.9c-5.3,2-11.8,5.4-15.8,9.6c-9.2,9.8-10.4,34.1-1.3,44.2c15.5,17,48.4,23.7,70.1,24
			c23.7,0.3,46.8-1.5,70.6-2.6c22.1-1,44.1-2.5,66.2-2.4c45.2,0.1,90.4,0,135.5-3.2c42.4-3,84.9-2,127.3-2c43.5,0,86.8,0.4,130,6.5
			c18.8,2.7,38,3.6,57,5.5c17,1.7,33.2,0,50.1-1.6c14.2-1.3,28.3-5.2,41.2-11.7c10.2-5.2,28.4-21.2,31.5-33.5
			C896.4,680.1,764,681,743.7,681c-22.7,0.1-45.6,0.9-68.3,0c-9.6-0.4-19-2.4-28.3-4.5c-9.3-2.2-18.6-1.6-28.1-2.5
			c-39.3-3.8-78.6-3.2-118-3.2C488.2,670.7,475.3,670.6,462.5,670.6z"/>
	</g>
</g>
<g id="object">
	<g>
		<g>
			<g>
				<polygon class="st3" points="317.5,348.6 315.7,336.7 320.8,335.8 323.8,343.6 326,342.1 326.3,352.4 321.1,354.2 				"/>
			</g>
			<g>
				<polygon class="st4" points="394,410.5 348.4,398.7 327.3,348.9 317.4,352.8 329.2,417.1 381.7,444.1 				"/>
			</g>
		</g>
		<g>
			<polygon class="st5" points="549.5,702.5 550.4,709.6 537.2,718.4 529.3,712.3 535.4,704.4 548.6,695.5 			"/>
			<g>
				<polygon class="st5" points="550,700.2 539.8,610.3 552,509.7 549.3,488.3 494.6,486.2 492.6,521 501.8,610.4 536.3,704.8 				
					"/>
			</g>
			<polygon class="st2" points="489.5,386.8 462,394.3 430.2,450.6 445.3,464.5 466.5,439.4 			"/>
			<g>
				<polygon class="st5" points="454.5,496.3 454.4,587 472.6,703.7 485.8,703.6 493,595.6 509.9,487.6 				"/>
				<polygon class="st5" points="485.7,709.1 471.6,716.4 464.4,709.4 471.5,702.2 485.7,702 				"/>
			</g>
			<g>
				<path class="st2" d="M557.7,527.1c-0.1-3.9-0.3-7.2-0.4-8.4c-0.3-10.5-1.2-21.1-2.5-31.5c-1.2-9.4-2.7-32.7-4.3-42
					c-1.3-7.7-5.9-26.9-9.3-34.1c-8.3-17.8-5.7-19.4-42.2-24.7c-16-2.3-19.8,7.6-32.8,19.1c-1.3,1.1-1.2,7.9-1.5,9.6
					c-0.5,3.1-1.1,6.3-1.7,9.4c-0.5,2.4-1.1,4.9-1.7,7.3l0,0c0,0-11,49.9-18.2,60.5c-7.3,10.6-22.2,25.4,2.8,34.5
					c4.4,1.4,8.9,2.8,13.5,3.5c0,0,20.5-2.3,31-2.2c9.7,0.1,19.5,1.1,29,2.7c6.4,1.1,12.9,2.6,18.6,5.6c5.4,2.8,9.4,7,14.9,10
					c0.5,0.3,1.1,0.6,1.7,0.5C557.8,546.5,557.9,535.4,557.7,527.1z"/>
			</g>
			<path class="st6" d="M533.2,296.4c0,0-5.2-2.6-5.2-3.3c0-0.7,0.9-10.1,0.9-10.1l3.4-2l1.4-4c0,0-3.9-6.8-3.2-8.9
				c0.7-2,5.9,6.9,5.9,6.9l1.9,5.5l0.5,8.8L533.2,296.4z"/>
			<polygon class="st6" points="477.6,431.4 488.2,423.2 485,418.5 476.4,422.5 475.9,419.5 467.6,427.6 470.3,433 			"/>
			<g>
				<polygon class="st2" points="476.2,434.3 467.6,423.1 438.1,440.9 445.4,464.6 				"/>
			</g>
			<g>
				<path class="st6" d="M499,391.5c1.8,0.9,6.2,1.2,10.7-0.5c0.9-0.4,1.5-1.2,1.5-2.2c0-2.8-0.3-5.5-0.7-8.2c3.4-1.2,7.3-3,7.9-6.5
					c0.2-1.1,0-2.3-0.2-3.4c-0.8-4.6-1.6-9.2-2.4-13.9c-0.3-1.6-0.6-3.2-1.4-4.6c-1.5-2.4-4.5-3.5-7.3-3.9c-7.2-1.2-15,0.3-20.5,5
					c-1.5,1.2-2.8,2.7-3.5,4.6c-1,2.8-0.3,5.9,0.5,8.8c0.7,2.7,1.4,5.3,2.1,8c0.8,3.1,2,6.5,4.9,7.7c1.6,0.6,3.4,0.4,4.8,1.3
					C498,385.1,497.7,388.8,499,391.5z"/>
				<path class="st5" d="M457.7,345.4c-0.7-1.2-1.5-2.3-2.3-3.3c-1.8-2.3-4.1-4.2-5.6-6.7c-1.5-2.5-2-5.9-0.2-8.2
					c1.1-1.5,3-2.2,4.8-2.8c5.9-1.7,12.4-1.9,18.4-0.3c5.7,1.5,10.8,3.9,16.6,1.7c5.4-2,9.3-1.2,15,0.8c6.1,2.2,14.3,2.7,19.9,5.8
					c2.3,1.3,4.2,3.3,5.6,5.5c5,7.7,5,18.3,0.1,26c-1.1,1.7-2.4,3.3-3.8,4.8c-2.9,3.1-6.3,7-10.3,8.2c-0.1-3.6,3.1-14.7,0.4-17.7
					c-4.3-4.6-14.1-3-19.5-1.9c-5.9,1.2-11.1,5.4-16.9,6.3c-4.2,0.6-9.5-1.4-13.1-3.6C462.3,357.4,460.2,349.6,457.7,345.4z"/>
			</g>
			<polygon class="st2" points="519.2,389.9 547.3,375.2 528,296.4 541.3,289.3 574.9,375.2 538.9,418.5 			"/>
		</g>
		<g>
			<g>
				<g>
					<polygon class="st5" points="352.9,707.7 352.3,713.7 363.6,720.9 370.2,715.5 364.8,709 353.5,701.8 					"/>
					<polygon class="st7" points="352.4,525.7 350.6,543.9 366.8,624.8 352.5,705.8 364,709.3 401.5,613.1 403.6,583.7 398.5,522.8 
											"/>
				</g>
				<g>
					<polygon class="st7" points="440.3,531.9 440.7,608.5 425.6,707.1 414.5,707 408.1,615.9 393.5,524.7 					"/>
					<polygon class="st5" points="414.5,711.7 426.5,717.7 432.5,711.8 426.6,705.7 414.6,705.7 					"/>
				</g>
			</g>
			<g>
				<path class="st4" d="M449.7,520.7c-8-24.8-8.9-50.8-11.2-76.6c-0.7-7.6-1.4-15.4-4.6-22.4c-3.6-8-9.7-12.2-16.7-14.5
					c-8.9-2.9-19.5-2.8-28.7-3.3c-8.8-0.3-16.6,32.8-25.6,48.9c-5.5,9.8-11.2,18.5-14.9,29.3c-3.6,10.3-7,20.8-9.1,31.5
					c-3.1,16.2-11.1,27.5-3.5,33c0.7,0.2,1.4,0.5,2,0.7c12.5,4.5,25.5,7.8,38.7,9.6c11.7,1.5,23.6,1.8,35.4,0.7
					c16.1-1.6,31.7-3.9,45.9-12.3C454.9,536.9,452.3,528.8,449.7,520.7z"/>
			</g>
			<g>
				<path class="st3" d="M384.2,379.2c5-15.1,27.1-20.4,32.3-2.8c1.5,5.3,2.5,10.9,1.4,16.3c-1.1,5.4-4.4,10.6-9.4,12.8
					c0,0-0.1,0-0.1,0c0.2,1.4,0.4,2.8,0.6,4.2c0,0.3,0.1,0.6-0.1,0.9c-0.2,0.3-0.6,0.4-0.9,0.4c-1.7,0.3-3.4,0.5-5,0.8
					c-0.8,0.1-1.7,0.2-2.5,0c-1.8-0.6-2.5-2.7-2.6-4.5c0-0.4,0-0.9,0-1.3C387.9,402.6,380.9,389.1,384.2,379.2z"/>
				<g>
					<path class="st8" d="M411.1,353.3c4-0.6,7.5,3.3,11.2,5.4c3.1,1.7,6.6,2.2,9.8,3.6c3.2,1.4,6.4,4.4,6.5,8.1
						c3.3-1.7,6.8-3.4,10.5-2.7c3.7,0.7,7.1,5.1,5.6,8.7c-1.3,3.2-5.5,4-6.9,7.2c-2.2,5,3.8,12.8-0.3,16.1c-1,0.8-2.3,1-3.3,1.8
						c-1.2,1-1.6,2.8-2.1,4.3c-2.4,7.1-9.6,11.7-16.6,10.8c-4.4-2.1-7.9-6.3-9.4-11.2c-1.9-5.9,1.2-7.9,1.8-13.4
						c0.6-6-1.3-12.4-5.1-17c-2.5-3-6-5.7-9.7-6c-1.5-0.1-1,1.1-2.7-0.1c-0.7-0.5-1.7-2.4-1.9-3.3
						C402.4,362.3,405.8,354.1,411.1,353.3z"/>
					<path class="st8" d="M367.3,361.1c-2.1,0.6-4.4,0.5-6.3,1.4c-3,1.3-2.8,4.4-3.7,7.1c-0.9,3-2.3,7-4.3,9.3
						c-1.4,1.7-3.4,2.6-5.1,3.9c-1.7,1.3-3.3,3.2-3.3,5.5c0,2.2,1.5,4.2,1.7,6.4c0.3,3.3-0.3,5,0.7,8.3c0.5,1.7,1.1,3.6,2.4,4.7
						c1.7,1.6,4.1,1.5,6.3,1.2c2.1-0.4,4.4-1,6.5-0.2c4.6,1.5,3.7,6.2,4.9,10c1.9,5.9,8.7,9.3,13.9,7.2c4.4-1.8,7-6.9,6.8-12
						c-0.1-2.5-1.1-4.9-1.2-7.5c-0.1-2.5,1.3-5.9-0.9-7.8c-0.5-0.5-1.2-0.7-1.7-1.3c-0.4-0.4-0.6-1-0.8-1.6c-0.5-2,0-4.3,1.2-5.8
						c0.9-1.1,2.1-1.9,2.6-3.3c0.6-1.5,0.1-3.4,0-5.1c-0.2-4.1,2-8.2,5.5-9.8c2.3-1.1,4.3-1.7,6.3-3.3c0.3-0.2,4.8-4.2,4.9-3.4
						c-0.2-1.5-1.1-2.8-2-4c-1.5-2-3.1-3.9-5.1-5.1c-6.6-3.8-7,5.1-12.3,3.9c-1.3-0.3-2.3-1.5-3.4-2.2c-2.2-1.3-4.9-0.9-7.1,0.1
						C371.7,359,369.7,360.5,367.3,361.1z"/>
				</g>
			</g>
		</g>
		<g>
			<g>
				<g>
					<polygon class="st6" points="315.5,556.7 267.2,538.9 277.2,623.5 271.4,696.4 271.2,696.9 271.3,696.9 271,701.8 279.5,703.3 
						279.5,703.3 279.5,703.3 302.5,633 313.7,563.8 313.7,563.8 					"/>
					<polygon class="st5" points="280.4,701.3 270.5,701.1 268,709.4 268.2,709.5 268.2,709.5 284.5,719.1 292.2,720 293.2,711.1 
						291.1,709.6 					"/>
				</g>
				<g>
					<polygon class="st6" points="348.3,558.1 333.4,707.3 325,709.3 314.7,625.2 298.1,547.3 					"/>
					<polygon class="st5" points="333.8,706.3 346.5,713.4 345.3,719.4 322.7,716 324,707.4 					"/>
				</g>
				<g>
					<g>
						<path class="st9" d="M371,594.5c3.1-2.1,3.1-5.8,3.1-9.5c0-6.9-1.3-14-2.9-20.8c-3-12.7-6.5-27.9-8-44.3
							C359.4,477.5,346,449,346,449l-4.3-11.5c-0.9-1.5-1.7-3-2.7-4.4c-5.4-8.5-14.8-22.9-24.8-25.2c-0.2,0-0.4-0.1-0.6-0.1
							c-10.5-2.3-24-1.2-33.6,3.9c-1.8,1-3.4,2.3-5,3.6c-4.7,3.8-8.5,5.8-10.5,11.5c-1.7,5-2.1,10.4-3.1,15.5
							c-2,10.5-3.1,21-4.7,31.6c-2.9,19.7-5.4,39.5-8.5,59.2c-1.6,10.1-3.2,20.3-4,30.5c-0.7,9.1-8.8,18.3-13.4,26.4
							c-1.6,2.8,21.4,10.1,23.4,10.6c9.5,2.2,19.6,1.7,29.5,1.7c21.5,0.1,43-0.6,64.5-2c7.1-0.5,15.9-1.8,22.2-5.4
							C370.6,594.7,370.8,594.6,371,594.5z"/>
					</g>
					<path class="st2" d="M301.7,406.6c0,0-12.1-3.3-13.8,24.1c-1.7,27.3-4.5,96.5-8.4,115.5c-3.9,19-9.8,56.2-9.8,56.2l37.1,1.3
						l42.4-3.3c0,0-14.5-26.8-16.7-45.7c-2.2-19,1.7-90.4-7.8-117.1C315.3,410.5,313.3,407,301.7,406.6z"/>
					<g>
						<polygon class="st9" points="356.6,467.4 359.4,470.8 369.4,456.8 329.2,412.2 314.2,407.7 321.4,427.3 						"/>
					</g>
					<polygon class="st6" points="323,455.9 314.2,449.2 316.9,445.3 323.9,448.5 324.4,446.1 331.2,452.8 328.9,457.2 					"/>
					<g>
						<polygon class="st9" points="357.5,454.2 357.1,455 329.6,449.7 325.6,458.8 359.4,470.8 						"/>
					</g>
				</g>
				<g>
					<g>
						<path class="st5" d="M318.6,384.9c1.8,5.5-0.8,11.4-3.1,16.4c-2.1,4.4-2.8,7.4,2.5,8.6c3,0.7,8.2,1.9,10.8-0.3
							c2-1.7,0.9-7-0.1-9.1c-0.7-1.6-2.7-2.4-3.3-4c-0.3-0.7-0.3-1.4-0.3-2.1c0-3,0.4-5.9,1.2-8.8c0.6-1.9,1.3-3.8,1.5-5.8
							c0.3-2.9-1.8-6.3-2.9-9c-2-5-9-11.7-14.9-7.7c-1.3,0.9-2.1,2.4-2.8,3.9c-0.4,0.9-0.8,1.8-0.8,2.7c0,3.8,3.4,4.5,5.9,6.3
							C315.2,378,317.5,381.4,318.6,384.9z"/>
						<path class="st6" d="M307.5,406.4c5.1-1.2,9.1-5.5,11-10.3c1.9-4.9,2-10.3,1.5-15.5c-1.8-17.3-23.3-16.2-30.6-2.9
							C283,389.2,292.7,409.9,307.5,406.4z"/>
					</g>
					<path class="st6" d="M307.5,404.5c-0.1,2-0.2,3.9-0.3,5.9c0,0.3,0,0.6-0.2,0.8c-0.2,0.2-0.6,0.2-0.9,0.2
						c-1.6-0.1-3.2-0.1-4.8-0.2c-0.8,0-1.6-0.1-2.3-0.4c-1.5-0.8-1.9-2.9-1.6-4.6c0.2-1.7,0.9-3.5,0.5-5.2c3.3,1.6,6.5-2.1,9.8-0.4
						L307.5,404.5z"/>
				</g>
				<path class="st5" d="M300.5,350.6c-5.7,1.9-9.3,7.6-14.8,9.9c-3.2,1.3-6.9,1.5-9.5,3.7c-5.8,5-1.1,15.6-5.9,21.6
					c-1,1.3-2.3,2.2-3.3,3.4c-2.1,2.7-2.4,6.4-2.6,9.8c0,0.8-0.1,1.6,0.1,2.4c0.7,7.9,12.3,7.4,16.8,6.9c5-0.6,3.3-3.3,3.3-3.3
					l-0.2-0.2c-0.5-3.2,0.8-6.7,3.4-8.7c0.9-0.8,2-1.4,2.7-2.4c1.5-2.3,0.1-5.3,0.3-8c0.9-10.9,19.2-8.6,24.3-16.3
					C321.5,360,311.2,346.9,300.5,350.6z"/>
			</g>
		</g>
		<g>
			<path class="st4" d="M360.3,200.1l-157.5,12.8c-0.6,0-1.1,0.6-1,1.3l9.9,117.3c0.1,0.6,0.6,1.1,1.2,1.1l35.6-2.9l27.3,31.7
				c0.8,0.9,2.3,0.3,2.2-0.9l-2.3-33l61.6-5c18.9-1.5,32.8-19.1,31.1-39.3l-6.9-81.9C361.5,200.5,360.9,200,360.3,200.1z"/>
			<g>
				<polygon class="st10" points="342.8,225.2 244.7,233.2 244.4,229.2 342.5,221.2 				"/>
				<polygon class="st10" points="345.4,255.8 228.4,265.3 228,261.3 345,251.8 				"/>
				<polygon class="st10" points="347.9,286.4 231,295.9 230.6,291.9 347.6,282.4 				"/>
			</g>
		</g>
		<g>
			<g>
				<path class="st8" d="M527.8,240.3c0-34,39-61.5,87.1-61.5c48.1,0,87.1,27.5,87.1,61.5s-39,61.5-87.1,61.5c-1.9,0-3.8,0-5.7-0.1
					c-0.9,0-1.5,0.7-1.4,1.6l6.9,37.9c0.2,1.3-1.4,2.1-2.3,1.1l-45.3-50.4c-0.1-0.1-0.3-0.2-0.4-0.3
					C543.3,280.5,527.8,261.7,527.8,240.3z"/>
				<g>
					<path class="st11" d="M652,247.8c-5,0-5-7.8,0-7.8C657,240,657,247.8,652,247.8z"/>
					<path class="st11" d="M616.8,247.8c-5,0-5-7.8,0-7.8C621.9,240,621.9,247.8,616.8,247.8z"/>
					<path class="st11" d="M572.9,247.8c-5,0-5-7.8,0-7.8C577.9,240,577.9,247.8,572.9,247.8z"/>
				</g>
			</g>
		</g>
		<g>
			<g>
				<polygon class="st6" points="241,331.3 244.3,319.7 249.3,320.9 248.8,329.4 251.5,328.8 247.4,338.4 242.1,337.9 				"/>
			</g>
			<g>
				<polygon class="st9" points="285.2,419.2 248.6,389.6 249.9,335.6 239.2,335.1 223.5,398.5 260.2,444.8 				"/>
			</g>
		</g>
		<polygon class="st3" points="633.7,305.3 633.7,289.3 626.3,285 622.8,291.5 622.8,298 619,299.6 623.2,309.9 		"/>
		<g>
			<g>
				<path class="st7" d="M431,154.2l127.5-0.2c11.8,0,21.4,9.5,21.4,21.3l0.2,82.2c0,11.8-9.5,21.3-21.2,21.4l-20.5,0.2l-23.3,32.8
					c-0.7,1-2.2,0.5-2.2-0.7l-0.5-32.1l-81.2,0c-11.8,0-21.3-9.5-21.4-21.3l-0.2-82.1C409.6,163.8,419.2,154.2,431,154.2z"/>
				<g>
					<rect x="434.2" y="179" class="st12" width="101.9" height="4.2"/>
					<rect x="434.2" y="211.3" class="st12" width="121.5" height="4.2"/>
					<rect x="434.1" y="243.7" class="st12" width="121.5" height="4.2"/>
				</g>
			</g>
		</g>
		<g>
			<g>
				<path class="st8" d="M468.4,265c-0.3-16.3-13.6-29.3-29.8-29.2c0-0.5,0-1,0-1.5c-0.3-19.9-16.7-35.7-36.6-35.4
					c-10.8,0.2-20.4,5.1-26.9,12.8c-6.2-6.9-15.2-11.1-25.2-10.9c-17.8,0.3-32,14.4-32.7,32c-0.8,0-1.5-0.1-2.3-0.1
					c-16.4,0.3-29.4,13.8-29.2,30.2c0.2,13.2,9,24.2,21,27.9c-1.4,3.5-2.2,7.3-2.1,11.3c0.3,15.9,13.3,28.5,29.2,28.2
					c1.2,0,2.4-0.1,3.6-0.3l0.5,30.7c0,1.3,1.8,1.8,2.2,1.1l19-27.6c4.6,2.9,10.1,4.6,15.9,4.5c10.6-0.2,19.8-6.1,24.6-14.8
					c5,3,10.8,4.7,17.1,4.6c17.7-0.3,31.8-14.9,31.5-32.6c0-0.8-0.1-1.5-0.1-2.3C460.1,289.7,468.6,278.3,468.4,265z"/>
				<g>
					<path class="st11" d="M411.9,269.1c-4.4,0.1-4.3,6.9,0.1,6.8C416.4,275.8,416.3,269,411.9,269.1z"/>
					<path class="st11" d="M381.3,269.6c-4.4,0.1-4.3,6.9,0.1,6.8C385.8,276.4,385.7,269.5,381.3,269.6z"/>
					<path class="st11" d="M343,270.2c-4.4,0.1-4.3,6.9,0.1,6.8C347.5,277,347.4,270.2,343,270.2z"/>
				</g>
			</g>
		</g>
		<g>
			<g>
				<polygon class="st3" points="438.8,322.1 432.2,312 427.7,314.7 430.8,322.6 428.1,322.8 434.8,330.7 439.8,328.6 				"/>
			</g>
			<g>
				<polygon class="st4" points="417.1,412 449.1,380 431.6,328.8 441.7,325.1 475.7,380.9 431.9,435.2 				"/>
			</g>
		</g>
		<g>
			<path class="st4" d="M674.3,208.5l132.2,11c12.2,1,21.3,11.8,20.3,24l-7.1,85.2c-1,12.2-11.7,21.3-23.9,20.3l-21.3-1.6l-27,32
				c-0.8,0.9-2.3,0.3-2.2-0.9l2.3-33.3l-84.1-7.2c-12.2-1-21.3-11.8-20.3-24l7.1-85.1C651.3,216.5,662.1,207.5,674.3,208.5z"/>
			<g>
				
					<rect x="725.8" y="188.1" transform="matrix(8.499385e-02 -0.9964 0.9964 8.499385e-02 425.9497 945.9933)" class="st10" width="4.4" height="106"/>
				
					<rect x="733.1" y="212.3" transform="matrix(8.499325e-02 -0.9964 0.9964 8.499325e-02 398.3567 984.761)" class="st10" width="4.4" height="126.4"/>
				
					<rect x="730.3" y="245.8" transform="matrix(8.499325e-02 -0.9964 0.9964 8.499325e-02 362.3205 1012.5995)" class="st10" width="4.4" height="126.4"/>
			</g>
		</g>
		<polygon class="st13" points="674.6,405.3 631.4,436.8 593.8,420.6 588.3,430.7 616.8,450.1 632.7,456.1 674.6,436 		"/>
		<g>
			<g>
				<polygon class="st14" points="626.3,554.2 628.8,612.9 621.4,712.8 610.3,713.6 596.8,622.9 578.1,546.1 				"/>
				<polygon class="st15" points="610.6,718.3 623.1,723.4 628.7,717 622.2,711.4 610.2,712.2 				"/>
			</g>
			<g>
				<polygon class="st14" points="547.6,533.4 545.2,577.8 552.4,709.8 563.5,710.4 580.2,623.8 594.9,528.8 				"/>
				<polygon class="st15" points="563.2,715 550.9,720.5 545.2,714.1 551.5,708.4 563.5,709 				"/>
			</g>
			<g>
				<path class="st8" d="M612.3,402.5l-34.7-3.7c0,0-19.3,2.1-32.4,47.9c-7.3,25.5-9.5,65.7-10,96.4c0.8,4.4,5.6,23.5,25.7,20.3
					c34.6-5.6,53-11.2,68.1-8.4c12.8,2.8,11.7-14.9,10.3-28.4l-5.1-41.7L612.3,402.5z"/>
			</g>
			<g>
				<path class="st3" d="M605.6,359.3c-8.7-1.9-17.8-3.7-26.5-1.9c-1.9,0.4-4,1-5,2.7c-0.4,0.6-0.6,1.4-0.8,2.1
					c-2.2,8.2-5,20.4,0.4,28c1,1.4,2.4,2.6,3.9,3.5c2,1.2,4.2,2.1,6.5,2.5c-0.5,2-1.1,4-2,6c2,3,11.3,3.4,13.1,0.5
					c0.1-2.5,0.2-5,0.3-7.5c1.1-0.5,2.2-1,3.3-1.7c4-2.6,6.6-6.6,8.2-11.1c1.7-4.9,4-9.5,5.5-14.4c0.6-1.8,1-3.9,0-5.5
					c-1-1.7-3.2-2.3-5.2-2.8C606.7,359.6,606.1,359.5,605.6,359.3z"/>
				<path class="st16" d="M576.5,364c4.3-2.8,10.8-4,14.9-3.7c12.3,0.9,16.8,9.9,17.5,21.2c3.4-4.3,9.7-9.7,10.1-15.3
					c0.3-4.5-0.3-10.7-2.9-14.6c-2.4-3.7-8.5-5.7-12.1-7.8c-3.4-2-6.8-4-10.2-6c-0.7-0.4-1.4-0.8-2.2-1c-1-0.2-1.9,0.1-2.9,0.3
					c-8.1,2.1-16.1,4.2-24.2,6.2c-1.5,0.4-3.3,1-3.9,2.5c-0.3,0.9-0.1,1.9,0.1,2.9c0.9,4.2,2.7,8.5,3.1,12.7
					c0.5,2.5,2,15.1,6.3,13.6c1.3-2.1,1.5-4.7,2.5-6.9C573.3,366.6,574.7,365.2,576.5,364z"/>
			</g>
			<polygon class="st8" points="577.6,398.8 564.7,402.7 517.9,451.8 515.1,468 537.5,505 543.5,491.4 534.1,464.1 549.1,453.5 
				569.2,408.3 			"/>
		</g>
		<polygon class="st8" points="604.9,405.5 628.8,379.7 623.2,309.9 633.7,305.3 647.9,376.1 643.5,393.8 616.8,430.7 		"/>
		<g>
			<g>
				<polygon class="st7" points="692.7,559.9 741.5,543.5 729.1,627.7 733,706.5 733,706.5 733,706.5 733,706.5 724.2,706.5 
					724.2,706.5 724.2,706.5 703.5,636.5 694.2,567 694.2,567 				"/>
				<polygon class="st5" points="723.7,705.4 733.5,705.5 735.8,713.9 735.6,713.9 735.6,713.9 719,723.1 711.2,723.8 710.5,714.9 
					712.7,713.4 				"/>
			</g>
			<g>
				<polygon class="st7" points="654.8,560.4 665.5,710.4 673.9,711.4 686.5,628.3 705.3,551 				"/>
				<polygon class="st5" points="665,708.8 652.2,715.7 653.2,721.7 675.9,718.9 674.8,710.3 				"/>
			</g>
			<g>
				<path class="st13" d="M754.7,584.2c1-24.5-20.9-102.5-20.9-102.5l0,0c-2.3-7.3-4.1-14.8-5.1-22.3c-0.8-5.3-16.7-65.8-15.6-65.9
					c-11,0.8-32.2-1.8-40.3,6c-0.2,0.2-0.5,0.5-0.7,0.7c-6.3,7.2-9.6,21.9-12.6,30.9c-3.9,11.8-7,24-9,36.3
					c-1.8,10.8-2.9,21.6-3.6,32.5c-0.7,9.4-0.1,18.7-0.5,27.9c-0.4,10.2-3.4,21.2-5.7,31.1c-2.3,10-5.2,19.8-9.2,29.3
					c10.9,4.8,23.1,6.1,35,6.2c11.9,0,23.8-1.1,35.8-0.9c10.1,0.2,20.3,1.3,30.2-0.8C740.2,591.1,747.4,587.6,754.7,584.2
					L754.7,584.2z"/>
			</g>
			<g>
				<path class="st5" d="M675.5,367.9c-5,2.5-10.2,8.9-9.9,14.8c0.2,2.9,1.7,5.1,1.8,8.2c0.1,6.1,9.3,12.4,3.7,18.2
					c-2.9,3-7.4,3.6-11.5,4c-0.5,0.1-1,0.1-1.5-0.1c-0.8-0.3-1.1-1.2-1.1-2.1c0-0.8,0.3-1.6,0.6-2.4c2.6-8.3-1.3-17.9-1.8-26.4
					c-0.5-8.4,1.5-17.5,8.4-23c4.6,1.4,8.1,3.4,10.4,7.6L675.5,367.9z"/>
				<path class="st6" d="M678.6,403.8c-5.7-0.7-10.6-4.9-13.2-10c-2.7-5.1-3.4-11-3.4-16.8c-0.1-19.2,23.6-20.4,33.1-6.8
					C703.4,382.2,695.2,405.9,678.6,403.8z"/>
				<path class="st5" d="M707.3,406.1c-2.9-0.8-5.9-1.8-8.1-4.2c-3.7-4-4.8-11.6-6.5-16.6c-1.8-5.3-4-11-8.8-13.8
					c-3.1-1.9-6.3-1.7-9.7-1.1c-2.3,0.4-2.3,1.3-4.5,0.5c-1.7-0.7-3.6-3.3-4.2-4.9c-1.1-2.7-0.6-5.9,0.8-8.5c2.2-4,5.3-6.3,9.6-7.3
					c15.2-3.3,28.4,3.5,35.7,17.5c3.5,6.8,3.5,15,7.1,21.5c2.2,4,5.5,6.3,7.5,10.6c5.2,11.2,14.6,25,16.5,37.2
					c0.1,0.5,0.1,1-0.2,1.3c-0.6,0.7-1.7,0.2-2.5-0.4c-4.3-3.4-8.6-6.8-12.9-10.1c-1.7-1.3-3.4-2.7-4.6-4.4
					c-3.1-4.3-3.2-10.7-7.4-14C712.8,407.6,710,406.9,707.3,406.1z"/>
			</g>
			<g>
				<g>
					<path class="st6" d="M778.4,382.9c2.9,0.5,10.3-1.5,12.1-4.1c4-6.1-5.4-4.2-8.8-4.3c0.4-1.2,0.8-2.3,1-3.5
						c0.1-1.1-10,1.8-10.9,2.8c-2.3,2.5-1.3,4.5-1.1,7.7C773.2,381.9,775.8,382.5,778.4,382.9z"/>
				</g>
				<polygon class="st13" points="699.1,444.2 754.2,435 779.6,383.5 769.5,375.2 742.6,410.8 714.6,409.6 688.6,410.8 				"/>
			</g>
		</g>
	</g>
</g>
</svg>
