<svg id="Layer_1" data-name="Layer 1" xmlns="http://www.w3.org/2000/svg" viewBox="0 0 480.33 480.31"><defs><style>.cls-1{fill:#fff;}.cls-2{fill:none;stroke:#fff;}</style></defs><title>dti_white</title><polygon class="cls-1" points="452.41 381.84 4.01 420.75 4.01 379.02 452.41 379.02 452.41 381.84 452.41 381.84"/><polygon class="cls-2" points="4.01 420.75 452.41 381.84 452.41 423.62 4.01 423.62 4.01 420.75 4.01 420.75"/><path class="cls-1" d="M422.3,175.19H368.44V105.44l-74.67,0-.23,69.79H243.6V105.43h-75V192c-11.78-12.38-27.71-20.73-46.26-20.73-58.36,0-77.28,54.6-77.28,106.83,0,50.22,19.31,104.86,75,104.86,24.24,0,40.55-8.77,51.51-31.1h.78v27.1H243.6V227h50.63v65.54c0,21.94-3.42,49.65,11.35,66.4s29.43,20,54.17,20.74l47.4-.65v-58s-14.39-.41-21.58-.41c-17.82,0-16.32-14.41-16.32-29.19V227H422.3V378.91h75.06V175.19ZM164,319.5c-4.19,6.79-9.11,10.39-16.69,10.39-23.51,0-24.63-31.91-24.63-49.86a214.11,214.11,0,0,1,3.81-37.86c2.27-12.34,7.93-21.51,21.2-21.51,6.08,0,12.89,2.76,16.31,8,4.89,6.4,4.55,15.95,4.55,23.92v41c0,10,.72,17.16-4.55,25.91Z" transform="translate(-45.05 -22.35)"/><path class="cls-1" d="M461.47,22.35c-35.36,0-64,30.11-64,67.25s28.61,67.29,64,67.29,63.9-30.11,63.9-67.29S496.74,22.35,461.47,22.35Zm43.35,56.38,3.7,3-.38,2.47,2.26,3.63,1.43,7.23-3.61.17-1.51-2.94-1.15-.66.12.16-.08,2.72,3.18,3.19,1.81,4.91-3.49.84-.12,2.8-3.66-1.14-1.76-4,1.38-1.29-1.07-2.59-1.47,1.52-3.31-.55-1.85-8.76L497.36,87l-2.53-1.41-.94-5.46Zm-11,18.42,1.42,7.25-3.34,5.7.35,5.23-2.86,2.3-1.26-5.06,3.19-15.47ZM439.58,41.46l3.57,2.32.74-13.09,3.19-3.88,15.07.07,2-2.1,2.11,1.61L464,28.83l2.94,4.37.23,5.54-9.89,6.53,5,14,3.76.57L466,58l6-.47L477.28,62l2.53-2.27,6.25,3,.26,1.82-2.27.33,5.62,6.15-2.55,5.57,3.51,4.21-4.57,3.22-3-3.73-2.16,3-2.26-.53,1.06-3.07-1.31-1.09,1.12-5.38-5.58-4.7-.49,2.18-11.93-7.38-8.27,2.09-1.5-2.53-3.36.83L437.19,45.54Zm44.86,73.73-1.23,3L471,113.52l.11-4.74,3.73-2.48,1-5.83,6.66-5,4.81,3.4-5.27,6.65-.51,8.67Zm-48.67-9.71-3.62.9.24,2.51-10.51,7.73-3.42-3.72,19.62-16.75L437,93.49l2.12-6.68h2.81l1.57,7.2,1.81,2Zm14.57-22.71-.68-4.52-3-3,.12-3.68,13,.22L462,76.7,457.59,87Zm8.7,19.36.63-13.54,2.41-1.89,5.54,2.59,9.47-1.17,1.58,2.95-9.81,7.74-3.34-.12-3.28,4.25ZM491.9,143l-.93-5.25,3-3.52-2.39-2.62-5.61.34-5.66,3.19-2.58-.82-1.35-1.4-5.76,8.52-5.85-.22,2.8-4.52-2.1-1.44,1.8-2.34,11-4.17.78-5.44,9.39-.36,4.8,3.68,3.09-4.05,4.15-.09-.11-7.39,3.14.13,2,2.73,4.08-3-1.16-4.39,3.28-6.4,2.69,2.35L512.63,109l3.81,4.55-7.89,14.08Z" transform="translate(-45.05 -22.35)"/><path class="cls-1" d="M55,483.71v-8.86h3.27a4.27,4.27,0,0,1,3.28.93,5,5,0,0,1,1.23,3.48,5.27,5.27,0,0,1-.86,3c-1,1.46-2.19,1.46-3.61,1.46Zm0,6.11H58.8c2.7,0,5,0,7.19-2.39,1.92-2.08,2.74-5.3,2.74-8.4a11,11,0,0,0-3.28-8.35c-2.11-1.94-4.38-1.94-6.84-1.94H49.07v33.43H55V489.82Z" transform="translate(-45.05 -22.35)"/><polygon class="cls-1" points="70.46 479.82 64.5 479.82 64.5 466.06 56.69 466.06 56.69 479.82 50.73 479.82 50.73 446.4 56.69 446.4 56.69 459.46 64.5 459.46 64.5 446.4 70.46 446.4 70.46 479.82 70.46 479.82"/><polygon class="cls-1" points="105.17 479.82 99.24 479.82 99.24 446.4 105.17 446.4 105.17 479.82 105.17 479.82"/><polygon class="cls-1" points="150.1 473.22 150.1 479.82 133.98 479.82 133.98 446.4 139.86 446.4 139.86 473.22 150.1 473.22 150.1 473.22"/><polygon class="cls-1" points="182.53 479.82 176.6 479.82 176.6 446.4 182.53 446.4 182.53 479.82 182.53 479.82"/><path class="cls-1" d="M262.43,483.71v-8.86h3.31a4.22,4.22,0,0,1,3.24.93,5.14,5.14,0,0,1,1.22,3.48,5.23,5.23,0,0,1-.81,3c-1,1.46-2.18,1.46-3.65,1.46Zm0,6.11h3.81c2.7,0,5,0,7.23-2.39,1.88-2.08,2.73-5.3,2.73-8.4a11.05,11.05,0,0,0-3.26-8.35c-2.15-1.94-4.43-1.94-6.89-1.94H256.5v33.43h5.93V489.82Z" transform="translate(-45.05 -22.35)"/><path class="cls-1" d="M309.26,483.71v-8.86h3.3a4.19,4.19,0,0,1,3.23.93,4.91,4.91,0,0,1,1.23,3.48,5.47,5.47,0,0,1-.81,3c-1,1.46-2.23,1.46-3.61,1.46Zm0,6.11h3.8c2.69,0,5,0,7.23-2.39,1.88-2.08,2.74-5.3,2.74-8.4a11,11,0,0,0-3.28-8.35c-2.14-1.94-4.38-1.94-6.84-1.94h-9.58v33.43h5.93V489.82Z" transform="translate(-45.05 -22.35)"/><polygon class="cls-1" points="311.1 479.82 305.26 479.82 305.26 446.4 311.1 446.4 311.1 479.82 311.1 479.82"/><polygon class="cls-1" points="359.62 479.82 354.57 479.82 344.8 457.39 344.68 457.39 344.68 479.82 340.11 479.82 340.11 446.4 346.45 446.4 355 466.06 355.04 466.06 355.04 446.4 359.62 446.4 359.62 479.82 359.62 479.82"/><polygon class="cls-1" points="394.28 452.89 394.28 459.66 403.94 459.66 403.94 465.94 394.28 465.94 394.28 473.34 406.52 473.34 406.52 479.82 388.36 479.82 388.36 446.4 406.52 446.4 406.52 452.89 394.28 452.89 394.28 452.89"/><path class="cls-1" d="M491.61,478.33c-.74-2.84-2.12-4-4.39-4-1.57,0-3.49.53-3.49,3.11s2.19,3,3.65,3.39c2.07.54,4.85,1.23,6.66,2.79a10.24,10.24,0,0,1,3.3,7.9,12.11,12.11,0,0,1-3.11,8.38,10.23,10.23,0,0,1-7.4,2.72c-4.76,0-9.11-2.72-10.26-9.26l5.5-1.64c.76,3.5,2.65,4.71,5.27,4.71,1.72,0,4-.85,4-3.6s-2.92-3.32-4.47-3.72c-4.49-1.22-9-3-9-10.28a11.45,11.45,0,0,1,2.74-7.87,8,8,0,0,1,6.38-2.7c4.42,0,8.08,2,9.61,7.85l-5,2.19Z" transform="translate(-45.05 -22.35)"/></svg>