<?xml version="1.0" encoding="utf-8"?>
<!-- Generator: Adobe Illustrator 23.0.5, SVG Export Plug-In . SVG Version: 6.00 Build 0)  -->
<svg version="1.1" xmlns="http://www.w3.org/2000/svg" xmlns:xlink="http://www.w3.org/1999/xlink" x="0px" y="0px"
	 viewBox="0 0 864.3 200" style="enable-background:new 0 0 864.3 200;" xml:space="preserve">
<style type="text/css">
	.st0{display:none;}
	.st1{display:inline;}
	.st2{fill:#4F4F4F;stroke:#000000;stroke-miterlimit:10;}
	.st3{display:inline;fill:#828282;stroke:#000000;stroke-miterlimit:10;}
	.st4{fill:#FFFFFF;}
	.st5{fill:none;stroke:#FFFFFF;stroke-width:0.3326;}
	.st6{fill:#1C388F;}
	.st7{fill:#A6A8AB;}
	.st8{fill:#B5B5B5;}
	.st9{clip-path:url(#SVGID_2_);fill:#273D80;}
	.st10{clip-path:url(#SVGID_2_);fill:#ED1C24;}
	.st11{clip-path:url(#SVGID_2_);}
	.st12{clip-path:url(#SVGID_4_);fill:#273D80;}
	.st13{clip-path:url(#SVGID_4_);fill:#17479E;}
	.st14{clip-path:url(#SVGID_4_);fill:#FFF200;}
	.st15{fill:#9D9D9C;}
	.st16{display:inline;clip-path:url(#SVGID_6_);}
	.st17{fill:#231F20;}
	.st18{display:none;opacity:0.5;}
	.st19{display:inline;fill:#231F20;}
	.st20{fill:#004450;}
	.st21{fill:#7B9E3E;}
	.st22{fill:#1C2815;}
</style>
<g id="Layer_1" class="st0">
	<g class="st1">
		<rect x="-40.3" class="st2" width="1000" height="200"/>
		
			<image style="display:none;overflow:visible;enable-background:new    ;" width="211" height="211" xlink:href="FOI.png"  transform="matrix(0.7962 0 0 0.7962 -38.348 16)">
		</image>
		
			<image style="display:none;overflow:visible;enable-background:new    ;" width="211" height="211" xlink:href="TS_white.png"  transform="matrix(0.7478 0 0 0.7478 139.8722 21.1101)">
		</image>
	</g>
	<g class="st1">
		<g class="st0">
			<rect x="-40.3" class="st3" width="1000" height="200"/>
		</g>
		<g id="DTI">
			<g>
				<g>
					<polygon class="st4" points="549.9,146.9 400.9,160 400.9,146 549.9,146 					"/>
					<polygon class="st5" points="400.9,160 549.9,146.9 549.9,160.9 400.9,160.9 					"/>
				</g>
				<path class="st4" d="M524.8,70.8h-17.9V47.7h-24.8L482,70.9h-16.6V47.7h-24.9v28.8c-4-4.1-9.2-6.9-15.3-6.9
					c-19.4,0-25.7,18.1-25.7,35.6c0,16.8,6.3,34.9,24.9,34.9c8,0,13.6-2.9,17.1-10.3h0.2v9.1h23.8V88.1h16.9V110
					c0,7.3-1.1,16.4,3.8,22.1c4.9,5.7,9.8,6.7,18,6.9l15.7-0.2v-19.3c0,0-4.8-0.1-7.1-0.1c-5.9,0-5.3-4.9-5.3-9.7V88.1h17.3v50.5
					h24.9V70.8H524.8L524.8,70.8z M439,118.9c-1.4,2.3-3.1,3.4-5.4,3.4c-7.8,0-8.2-10.6-8.2-16.6c0-3.7,0.6-8.9,1.2-12.7
					c0.8-4.1,2.7-7.1,7-7.1c2,0,4.3,0.9,5.3,2.7c1.7,2.2,1.6,5.3,1.6,7.9v13.7C440.6,113.5,440.8,115.9,439,118.9L439,118.9z"/>
				<path class="st6" d="M551.8,43.4L551.8,43.4L551.8,43.4z"/>
				<path class="st4" d="M537.9,20c-11.8,0-21.3,10-21.3,22.3s9.6,22.3,21.3,22.3c11.8,0,21.2-10,21.2-22.3
					C559.3,30.1,549.6,20,537.9,20z M552.4,38.8l1.2,1l-0.1,0.8l0.8,1.1l0.6,2.4h-1.2l-0.6-1l-0.3-0.2l0,0v0.9l1,1l0.7,1.7l-1.1,0.2
					v0.9l-1.2-0.3l-0.7-1.2l0.6-0.3l-0.3-0.9l-0.6,0.6l-1.1-0.1l-0.7-2.9l0.8-0.8l-0.9-0.6l-0.2-1.8L552.4,38.8z M548.7,44.9
					l0.6,2.4l-1.1,1.9l0.1,1.8l-0.9,0.8l-0.3-1.7l1-5.1L548.7,44.9z M530.6,26.3l1.1,0.8l0.2-4.3l1-1.2h5l0.7-0.7l0.8,0.6l-0.8,0.8
					l1,1.4l0.1,1.8l-3.3,2.2l1.7,4.6l1.2,0.1v-0.7l2-0.1l1.8,1.6l0.9-0.8l2,1l0.1,0.7l-0.8,0.1l1.9,2l-0.9,1.9l1.1,1.4l-1.6,1
					l-1-1.2l-0.8,1l-0.8-0.1l0.3-0.9l-0.3-0.3l0.3-1.8l-1.9-1.6l-0.1,0.8l-4-2.4l-2.8,0.7l-0.6-0.9L533,34l-3.7-6L530.6,26.3z
					 M545.6,50.9l-0.3,1l-4.1-1.6v-1.4l1.2-0.8l0.3-1.9l2.2-1.7l1.7,1l-1.8,2.2l-0.1,2.9L545.6,50.9z M529.5,47.7l-1.1,0.2l0.1,0.9
					l-3.4,2.6l-1.1-1.2l6.6-5.7l-0.3-0.9l0.8-2.2h0.9l0.6,2.4l0.7,0.7L529.5,47.7z M534.1,40.2l-0.2-1.6l-1-1v-1.2l4.3,0.1l0.8,1.7
					l-1.4,3.4L534.1,40.2z M537.1,46.6l0.2-4.4l0.8-0.7l1.8,0.9l3.2-0.3l0.6,1l-3.3,2.6h-1.1l-1.1,1.4L537.1,46.6z M548.1,60.1
					l-0.2-1.8l1-1.1l-0.8-0.9l-1.9,0.1l-1.9,1l-0.9-0.2l-0.6-0.6l-1.9,2.8l-1.9-0.1l0.9-1.6l-0.7-0.6l0.7-0.8l3.8-1.3l0.2-1.8
					l3.1-0.1l1.6,1.2l1-1.4h1.4v-2.4h1l0.7,0.9l1.4-1l-0.3-1.4l1.1-2.2l0.9,0.8l-0.7,0.8l1.2,1.6l-2.7,4.8L548.1,60.1z"/>
				<g>
					<path class="st4" d="M402.8,173.5v-2.9h1.1c0.3,0,0.8,0,1.1,0.2c0.2,0.2,0.3,0.8,0.3,1.1s-0.1,0.8-0.2,1
						c-0.3,0.6-0.8,0.6-1.1,0.6L402.8,173.5L402.8,173.5z M402.8,175.5h1.2c0.9,0,1.7,0,2.4-0.8c0.7-0.7,0.9-1.8,0.9-2.8
						c0-1.1-0.3-2.2-1.1-2.8c-0.7-0.7-1.4-0.7-2.3-0.7h-3.2v11.1h1.9v-4.1h0.2V175.5z"/>
					<polygon class="st4" points="422.9,179.7 420.9,179.7 420.9,175 418.3,175 418.3,179.7 416.3,179.7 416.3,168.6 418.3,168.6 
						418.3,172.9 420.9,172.9 420.9,168.6 422.9,168.6 					"/>
					<polygon class="st4" points="434.5,179.7 432.6,179.7 432.6,168.6 434.5,168.6 					"/>
					<polygon class="st4" points="449.3,177.4 449.3,179.7 444,179.7 444,168.6 445.9,168.6 445.9,177.4 					"/>
					<polygon class="st4" points="460.1,179.7 458.2,179.7 458.2,168.6 460.1,168.6 					"/>
					<path class="st4" d="M471.7,173.5v-2.9h1.1c0.3,0,0.8,0,1,0.2s0.3,0.8,0.3,1.1s-0.1,0.8-0.2,1c-0.3,0.6-0.8,0.6-1.1,0.6
						L471.7,173.5L471.7,173.5z M471.7,175.5h1.2c0.9,0,1.7,0,2.4-0.8c0.7-0.7,0.9-1.8,0.9-2.8c0-1.1-0.3-2.2-1.1-2.8
						s-1.6-0.7-2.3-0.7h-3.2v11.1h1.9v-4.1h0.2V175.5z"/>
					<path class="st4" d="M487.4,173.5v-2.9h1.1c0.3,0,0.8,0,1,0.2s0.3,0.8,0.3,1.1s-0.1,0.8-0.2,1c-0.3,0.6-0.8,0.6-1.1,0.6
						L487.4,173.5L487.4,173.5z M487.4,175.5h1.2c0.9,0,1.7,0,2.4-0.8c0.7-0.7,0.9-1.8,0.9-2.8c0-1.1-0.3-2.2-1.1-2.8
						s-1.4-0.7-2.3-0.7h-3.2v11.1h1.9v-4.1h0.2V175.5z"/>
					<polygon class="st4" points="502.9,179.7 501,179.7 501,168.6 502.9,168.6 					"/>
					<polygon class="st4" points="519.1,179.7 517.4,179.7 514.1,172.1 514.1,172.1 514.1,179.7 512.6,179.7 512.6,168.6 
						514.7,168.6 517.6,175 517.6,175 517.6,168.6 519.1,168.6 					"/>
					<polygon class="st4" points="530.6,170.6 530.6,172.9 533.8,172.9 533.8,174.9 530.6,174.9 530.6,177.5 534.7,177.5 
						534.7,179.7 528.6,179.7 528.6,168.6 534.7,168.6 534.7,170.6 					"/>
					<path class="st4" d="M548,171.7c-0.2-0.9-0.8-1.2-1.4-1.2c-0.6,0-1.1,0.1-1.1,1c0,0.8,0.8,1,1.2,1.1c0.7,0.1,1.7,0.3,2.2,0.9
						c0.7,0.7,1.1,1.6,1.1,2.7c0,1-0.3,2.2-1,2.8c-0.7,0.7-1.7,0.9-2.4,0.9c-1.6,0-3.1-0.9-3.4-3.1l1.8-0.6c0.2,1.1,0.9,1.6,1.8,1.6
						c0.6,0,1.2-0.2,1.2-1.1c0-0.9-1-1.1-1.6-1.2c-1.6-0.3-2.9-1-2.9-3.4c0-1,0.2-1.9,0.9-2.6c0.7-0.7,1.2-0.9,2.2-0.9
						c1.6,0,2.7,0.7,3.2,2.6L548,171.7L548,171.7z"/>
				</g>
			</g>
		</g>
		<g id="RAPID">
			<g>
				<g id="Layer_1-2">
					<path class="st4" d="M689.1,109.8l19.4,17.7c-0.3,0-0.5,0-0.8,0c-3.8,0-7.5,0-11.6,0c-0.4,0-0.8-0.1-0.9-0.4
						c-5.1-4.7-10.3-9.4-15.5-14.1c-2.6-2.3-5.1-4.7-7.5-7c-0.1-0.1-0.3-0.3-0.5-0.4c-0.1,1.4,0,3,0,4.4c0,1.4,0,2.9,0,4.3v13.1
						c-0.4,0.1-8.3,0.3-9,0V69.8c0.3,0,0.4,0,0.7,0c6,0,11.7,0,17.7,0c7.7,0.1,13.9,3.1,18.5,9.2c2.1,2.7,3.3,6,3.6,9.4
						c0.3,3.5-0.3,6.9-1.6,10.2c-1.3,2.7-3.1,5.1-5.6,7c-2,1.7-4.3,3-6.5,3.9C689.3,109.7,689.1,109.7,689.1,109.8z M671.9,102.8
						c0.3,0,0.4,0,0.5,0c2.7,0,5.6,0,8.3,0c0.8,0,1.3,0,2-0.1c3.9-0.5,7-2.3,9.4-5.5c2.9-3.9,3-9.4,0.3-13.4
						c-2.7-3.8-6.5-5.9-11.1-6c-2.9-0.1-6,0-8.7,0c-0.3,0-0.4,0-0.7,0L671.9,102.8L671.9,102.8z"/>
					<path class="st4" d="M809.5,127.7V69.8c0.1,0,0.3,0,0.4-0.1c4.8,0,9.9-0.1,14.8,0.1c10.5,0.4,19.1,5.1,25.3,13.8
						c2.7,3.6,4.2,7.9,4.6,12.4c0.4,4.3-0.1,8.5-1.7,12.5c-1.4,3.8-3.6,7-6.5,9.9c-3.4,3.4-7.4,6-12.1,7.6c-2.6,0.9-4.9,1.4-7.5,1.6
						c-1.4,0.1-2.7,0.3-4.2,0.3c-4.2,0-8.2,0-12.1,0C810.4,127.7,809.5,127.7,809.5,127.7z M818.5,119.4c0.3,0,0.4,0,0.7,0
						c1.3,0,2.6,0,4,0c1.6,0,3.1-0.1,4.7-0.4c4.3-0.9,8.2-2.7,11.3-5.9c4.4-4.2,6.5-9.1,6.5-15.2c-0.1-3.5-0.9-6.9-3-9.9
						c-4.7-6.5-10.9-10-18.9-10.3c-1.4,0-3,0-4.6,0c-0.3,0-0.4,0-0.7,0L818.5,119.4z"/>
					<path class="st7" d="M708.5,127.4v-0.8c0-3,0-6.2,0-9.2c0-0.5,0.3-0.8,0.7-0.9c5.1-2.6,10.3-5.2,15.5-7.8
						c6.4-3.1,12.6-6.5,18.9-9.6c0.3-0.1,0.3-0.3,0.7-0.4c-0.3-0.3-0.5-0.3-0.7-0.4c-3.6-1.8-7.3-3.6-10.9-5.5
						c-3.9-2-7.7-3.9-11.6-6c-4-2-7.9-4-12-6.1c-0.3-0.3-0.5-0.4-0.5-0.9c0-3.1,0-6.5,0-9.8c0-0.1,0-0.3,0-0.3s0,0,0.1,0
						c0,0,0,0,0.1,0c19.3,9.5,38.5,19,57.7,28.5c0.1,0,0.1,0.1,0.3,0.1L708.5,127.4z"/>
					<path class="st4" d="M752.5,69.8h0.8c5.9,0,11.7,0,17.6,0c7,0,13,2.7,17.7,8.2c2.7,3.1,4.3,6.9,4.7,11.1
						c0.3,4.4-0.7,8.5-3,12.1c-3.3,4.7-7.7,7.9-13.3,9.2c-2,0.5-3.8,0.8-5.9,0.8c-2.9,0-5.7,0-8.6,0h-0.9c0,0.3,0,0.5,0,0.9
						c0,4.9,0,10,0,15v0.8c-0.5,0.1-8.3,0.3-8.9,0c0-0.3,0-0.3,0-0.5c0-5.6,0-11.3,0-16.9c0-0.4,0.1-0.7,0.5-0.9
						c4.3-2.1,8.5-4.3,12.8-6.5c0.3-0.1,0.7-0.3,0.9-0.3c1.4,0,2.9,0,4.3,0c4.4-0.1,7.9-2,10.5-5.3c3.5-4.4,3.3-10.7-0.5-14.8
						c-2.3-2.6-4.9-4-8.3-4.6c-0.7-0.1-1.2-0.1-1.8-0.1c-3,0-6,0-8.9,0c-0.3,0-0.3,0-0.7,0c0,2.5,0,4.7,0,7s0,4.7,0,7
						c-0.4-0.1-8.1-3.6-8.9-4.3L752.5,69.8z"/>
					<path class="st4" d="M795.9,69.8h8.7c0.1,0.4,0.1,57,0,57.7c-0.4,0.1-7.9,0.3-8.7,0.1l0,0l0,0c0-0.1,0-0.3,0-0.4
						c0-19,0-38.1,0-57C795.8,70,795.9,69.9,795.9,69.8z"/>
					<path class="st4" d="M787,155.1h-2.1c-2-5.9-3.8-11.7-5.6-17.6h-0.1c-2,5.9-3.8,11.7-5.7,17.6h-2.1l-6.8-20.2h2.2l5.6,18
						c0.7-1.4,0.9-3,1.4-4.4c0.5-1.4,0.9-3,1.4-4.6c0.5-1.4,0.9-3,1.4-4.6c0.5-1.4,0.9-3,1.4-4.6h2.1c2,6,3.8,12,5.7,18
						c0.5-1.3,0.9-2.6,1.2-3.6c0.4-1.2,0.9-2.5,1.2-3.6c0.4-1.2,0.8-2.5,1-3.6c0.4-1.2,0.9-2.5,1-3.6c0.4-1.2,0.9-2.5,1-3.6h2.1
						L787,155.1z"/>
					<path class="st4" d="M751.2,145c0,2-0.4,3.5-1.3,4.9c-1.7,3-4.3,4.7-7.5,5.3c-3.8,0.7-7.2-0.5-9.8-3.5
						c-5.2-6.2-2-14.8,5.3-16.7c3.8-0.9,7.2-0.1,10.2,2.6C750,139.5,751.2,142.3,751.2,145z M749.1,145.1c0.1-4.7-3.9-8.5-8.5-8.5
						c-4.7,0-8.6,3.8-8.6,8.3c0,4.3,3.5,8.6,8.5,8.7C745.6,153.6,749.2,149.2,749.1,145.1L749.1,145.1z"/>
					<path class="st4" d="M709.6,148.2l4.7,7c-0.9,0-1.4,0-2.2,0c-0.1,0-0.3-0.3-0.4-0.3c-0.8-1-1.4-2.1-2.1-3.1
						c-0.7-0.9-1.2-1.8-1.8-2.7c-0.1-0.3-0.3-0.3-0.5-0.3c-2.1,0-4.3,0-6.4,0c-0.1,0-0.3,0-0.4,0c0,0.8,0,1.4,0,2.1s0,1.4,0,2.2v2.2
						h-1.7v-20.2c0.1,0,0.1,0,0.3,0c2.7,0,5.5,0,8.3,0c1.4,0,2.7,0.3,3.9,0.9c1.7,0.9,2.7,2.5,3,4.4c0.3,1.2,0.1,2.6-0.3,3.6
						c-0.4,1.3-1,2.5-2.2,3.1c-0.5,0.3-1,0.5-1.6,0.9C709.9,148.1,709.8,148.1,709.6,148.2z M700.8,146.8c0.1,0,0.3,0,0.3,0
						c2,0,3.9,0,5.9,0c0.9,0,1.8-0.3,2.6-0.5c1.4-0.7,2.3-1.6,2.7-3c0.1-0.7,0.3-1.2,0.3-2c0-2-1-3.4-2.9-4.2c-0.9-0.4-2-0.5-3-0.5
						c-1.7,0-3.4,0-5.1,0c-0.3,0-0.3,0-0.5,0v10.2L700.8,146.8L700.8,146.8z"/>
					<path class="st4" d="M852.2,144.1v-9.2h2c0.1,0.4,0.3,19.4,0,20.2h-2v-9c-0.1-0.1-0.1-0.1-0.1-0.1l0,0c-0.1,0-0.3,0-0.3,0
						c-4,0-8.1,0-12.1,0c-0.1,0-0.1,0-0.3,0.1v9.1h-2l0,0l0,0c0-0.1,0-0.1,0-0.3c0-6.5,0-13.1,0-19.7c0-0.1,0-0.3,0-0.3h2v9.1
						C839.9,144.2,851.3,144.3,852.2,144.1z"/>
					<path class="st4" d="M678.9,145.4h1.7c0,0.3,0,0.3,0,0.4c0,2.2,0,4.4,0,6.5c0,0.3-0.1,0.5-0.4,0.8c-1.6,1.2-3.5,2-5.3,2.2
						c-3.4,0.5-6.5-0.4-8.7-2.7c-5.1-4.7-4.3-12.8,1.8-16.3c3.9-2.3,9.2-2,12.6,0.9c0.1,0.1,0.3,0.1,0.3,0.3l-1.2,1.4
						c-0.3-0.1-0.3-0.3-0.4-0.3c-3-2.6-7.8-2.9-11.2-0.3c-3.6,2.9-4.3,8.2-1.4,12c2.6,3,6.8,4.3,10.5,2.5c0.5-0.3,0.9-0.5,1.4-0.8
						c0.3-0.1,0.4-0.4,0.4-0.8c0-1.8,0-3.6,0-5.3L678.9,145.4L678.9,145.4z"/>
					<path class="st4" d="M815.1,136.7v18.5h-2c0-1.2,0-2.5,0-3.6c0-1.2,0-2.6,0-3.6v-11.1c-2.2,0-4.4,0-6.6,0v-1.7
						c0.4-0.1,14.8-0.1,15.5,0v1.7L815.1,136.7L815.1,136.7z"/>
					<g>
						<rect x="663" y="162.2" class="st4" width="191.4" height="17.7"/>
					</g>
				</g>
			</g>
			<g>
				<path class="st7" d="M679.4,171.3v4.3h-1v-9.4h2c0.8,0,1.2,0,1.4,0.1c0.3,0.1,0.7,0.3,0.9,0.4c0.3,0.3,0.5,0.5,0.8,0.9
					c0.3,0.4,0.3,0.9,0.3,1.2c0,0.5-0.1,0.9-0.3,1.2c-0.3,0.4-0.4,0.8-0.8,0.9c-0.3,0.3-0.5,0.3-0.9,0.4c-0.3,0.1-0.9,0.1-1.4,0.1
					h-0.3L679.4,171.3L679.4,171.3z M679.4,170.2h0.7c0.9,0,1.6-0.1,2-0.3c0.3-0.3,0.5-0.7,0.5-1.2c0-0.7-0.3-0.9-0.5-1.3
					c-0.3-0.3-0.9-0.4-2-0.4h-0.7V170.2z"/>
				<path class="st7" d="M701.4,175.5v-9.4h2.2c0.7,0,1,0,1.4,0.1c0.3,0.1,0.7,0.3,0.9,0.4c0.3,0.3,0.5,0.5,0.7,0.9
					c0.3,0.4,0.3,0.9,0.3,1.2c0,0.9-0.3,1.4-0.7,1.8s-1,0.7-2,0.7H704l3.6,4.6h-1.4l-3.4-4.6h-0.3v4.6L701.4,175.5L701.4,175.5z
					 M702.5,167v3.1h0.9c0.9,0,1.4-0.1,1.8-0.3c0.3-0.3,0.4-0.7,0.4-1.2c0-0.7-0.3-0.9-0.5-1.3c-0.3-0.3-0.9-0.4-1.7-0.4H702.5z"/>
				<path class="st7" d="M734.6,170.8c0,0.8-0.1,1.3-0.4,2c-0.3,0.7-0.7,1-1,1.6c-0.5,0.5-0.9,0.9-1.6,1c-0.7,0.3-1.3,0.4-2,0.4
					c-0.7,0-1.3-0.1-2-0.4c-0.7-0.3-1.2-0.7-1.6-1c-0.5-0.5-0.9-0.9-1-1.6c-0.3-0.7-0.4-1.2-0.4-2c0-0.8,0.1-1.3,0.4-2
					c0.3-0.7,0.7-1,1-1.6c0.4-0.5,0.9-0.9,1.6-1c0.7-0.3,1.3-0.4,2-0.4c0.8,0,1.3,0.1,2,0.4c0.7,0.3,1.2,0.7,1.6,1
					c0.5,0.5,0.9,0.9,1,1.6C734.5,169.5,734.6,170.1,734.6,170.8z M729.6,174.7c0.5,0,0.9-0.1,1.4-0.3c0.5-0.3,0.9-0.5,1.3-0.9
					s0.8-0.9,0.9-1.3c0.3-0.5,0.3-0.9,0.3-1.4c0-0.5-0.1-0.9-0.3-1.4c-0.3-0.5-0.5-0.9-0.9-1.3c-0.4-0.4-0.9-0.8-1.3-0.9
					c-0.5-0.3-0.9-0.3-1.4-0.3c-0.5,0-0.9,0.1-1.4,0.3c-0.5,0.3-0.9,0.5-1.2,0.9c-0.3,0.4-0.8,0.9-0.9,1.3c-0.3,0.5-0.3,0.9-0.3,1.4
					c0,0.5,0.1,0.9,0.3,1.4c0.3,0.5,0.5,0.9,0.9,1.3s0.9,0.8,1.3,0.9C728.5,174.5,729,174.7,729.6,174.7z"/>
				<path class="st7" d="M754.7,166h1v7.3c0,0.9-0.3,1.4-0.5,1.8c-0.4,0.4-0.9,0.7-1.6,0.7c-0.4,0-0.8-0.1-0.9-0.3
					c-0.3-0.3-0.7-0.4-0.9-0.8l0.8-0.8c0.3,0.3,0.4,0.4,0.7,0.5c0.3,0.1,0.4,0.3,0.7,0.3s0.7-0.1,0.8-0.4c0.1-0.3,0.3-0.9,0.3-1.4
					L754.7,166L754.7,166z"/>
				<path class="st7" d="M774.6,175.5v-9.4h4.9v0.9h-3.8v2.7h3.8v0.9h-3.8v3.6h3.8v0.9L774.6,175.5L774.6,175.5z"/>
				<path class="st7" d="M805.4,168.3c-0.5-0.5-0.9-0.9-1.4-1c-0.5-0.3-1-0.4-1.7-0.4c-0.5,0-0.9,0.1-1.4,0.3
					c-0.5,0.1-0.9,0.5-1.2,0.9c-0.3,0.4-0.7,0.9-0.9,1.3c-0.3,0.5-0.3,0.9-0.3,1.4c0,0.4,0.1,0.9,0.3,1.2c0.1,0.4,0.3,0.8,0.5,0.9
					c0.4,0.5,0.9,0.9,1.4,1.2c0.7,0.3,1,0.4,1.8,0.4c0.7,0,1.2-0.1,1.7-0.4c0.5-0.3,0.9-0.7,1.4-1v1.4c-0.5,0.3-0.9,0.7-1.4,0.9
					c-0.5,0.3-1,0.3-1.7,0.3c-0.5,0-0.9-0.1-1.4-0.3c-0.5-0.1-0.9-0.4-1.3-0.7c-0.8-0.5-1.2-1-1.6-1.8s-0.5-1.4-0.5-2.3
					c0-0.8,0.1-1.4,0.4-2c0.3-0.7,0.7-1,1-1.6c0.5-0.5,0.9-0.9,1.6-0.9c0.7-0.3,1.2-0.3,2-0.3c0.5,0,1,0.1,1.6,0.3
					c0.5,0.3,0.9,0.4,1.4,0.9L805.4,168.3L805.4,168.3z"/>
				<path class="st7" d="M825.5,175.5v-8.3h-2.7v-1h6.5v1h-2.7v8.3H825.5z"/>
			</g>
		</g>
		<g transform="translate(0 -902.36)">
			<g transform="translate(-16.252 29.372)">
				<g>
					<path class="st4" d="M67.7,1050.2H70v-17.6h-2.3V1050.2z"/>
					<path class="st4" d="M73.5,1037.4h1.9v2h0.1c0.9-1.6,2.3-2.3,4.2-2.3c3.3,0,4.4,1.9,4.4,4.7v8.4h-2v-8.6c0-1.5-1-2.5-2.6-2.5
						c-2.5,0-3.7,1.7-3.7,4v7.2h-2.1L73.5,1037.4L73.5,1037.4z"/>
					<path class="st4" d="M92.9,1050.2h-2.2l-4.8-12.8h2.3l3.5,10.6l0,0l3.4-10.6h2.2C97.6,1037.4,92.9,1050.2,92.9,1050.2z"/>
					<path class="st4" d="M108.3,1042.6c-0.1-2-1.6-3.6-3.6-3.6c-2.2,0-3.5,1.6-3.6,3.6H108.3z M110.3,1046.2
						c-0.6,2.8-2.6,4.4-5.5,4.4c-4.1,0-6-2.8-6.1-6.7c0-3.9,2.5-6.6,6-6.6c4.6,0,5.9,4.3,5.8,7.3H101c-0.1,2.2,1.2,4.2,4,4.2
						c1.7,0,2.9-0.8,3.3-2.5h2V1046.2z"/>
					<path class="st4" d="M113.9,1046.2c0.1,1.9,1.7,2.4,3.4,2.4c1.3,0,3-0.3,3-1.9s-2-1.9-4.2-2.3c-2-0.5-4.2-1.1-4.2-3.6
						s2.5-3.6,4.8-3.6c2.8,0,5.1,0.9,5.3,4h-2.1c-0.1-1.6-1.6-2.1-2.9-2.1c-1.2,0-2.7,0.3-2.7,1.6c0,1.5,2.2,1.7,4.2,2.2
						c2.1,0.5,4.2,1.1,4.2,3.6c0,3-2.8,4.1-5.5,4.1c-2.8,0-5.3-1.1-5.4-4.4L113.9,1046.2L113.9,1046.2z"/>
					<path class="st4" d="M127.8,1037.4h2.5v1.8h-2.5v7.9c0,0.9,0.3,1.1,1.6,1.1h0.9v1.8h-1.6c-2.1,0-3-0.4-3-2.7v-8.1h-2.1v-1.8
						h2.1v-3.9h2.1L127.8,1037.4L127.8,1037.4z"/>
					<path class="st4" d="M132.6,1037.4h2.1v12.8h-2.1V1037.4z M134.7,1035.1h-2.1v-2.5h2.1V1035.1z"/>
					<path class="st4" d="M137.9,1037.4h1.9v2h0.1c0.9-1.6,2.3-2.3,4.2-2.3c3.3,0,4.4,1.9,4.4,4.7v8.4h-2.1v-8.6
						c0-1.5-1-2.5-2.6-2.5c-2.5,0-3.7,1.7-3.7,4v7.2H138L137.9,1037.4L137.9,1037.4z"/>
					<path class="st4" d="M160.4,1043.5c0-2.2-1-4.6-3.6-4.6c-2.7,0-3.7,2.2-3.7,4.7c0,2.3,0.8,4.9,3.6,4.9
						C159.4,1048.5,160.4,1046,160.4,1043.5 M162.5,1049.1c0,4.2-1.9,6.3-5.9,6.3c-2.4,0-5.2-0.9-5.3-3.7h2.1c0.1,1.5,1.9,2,3.3,2
						c2.7,0,3.9-1.9,3.9-4.9v-0.8h-0.1c-0.7,1.5-2.3,2.3-4,2.3c-3.7,0-5.7-2.9-5.7-6.5c0-3,1.5-6.7,5.9-6.7c1.6,0,3,0.7,3.7,2.1l0,0
						h0.1v-1.8h1.9L162.5,1049.1L162.5,1049.1z"/>
					<path class="st4" d="M172.4,1037.4h2.1v12.8h-2.1V1037.4z M174.5,1035.1h-2.1v-2.5h2.1V1035.1z"/>
					<path class="st4" d="M177.7,1037.4h1.9v2h0.1c0.9-1.6,2.3-2.3,4.2-2.3c3.3,0,4.4,1.9,4.4,4.7v8.4h-2.1v-8.6
						c0-1.5-1-2.5-2.6-2.5c-2.5,0-3.7,1.7-3.7,4v7.2h-2.1L177.7,1037.4L177.7,1037.4z"/>
					<path class="st4" d="M198,1037.4h1.9v2.7h0.1c1-2,2.4-3,4.7-2.9v2.2c-3.3,0-4.7,1.9-4.7,5.2v5.7h-2.1v-12.9L198,1037.4
						L198,1037.4z"/>
					<path class="st4" d="M216.7,1050.2h-1.9v-2h-0.1c-0.9,1.6-2.3,2.3-4.2,2.3c-3.3,0-4.4-1.9-4.4-4.7v-8.4h2.1v8.6
						c0,1.5,1,2.5,2.6,2.5c2.5,0,3.7-1.7,3.7-4v-7.2h2.1L216.7,1050.2L216.7,1050.2z"/>
					<path class="st4" d="M219.8,1037.4h1.9v2.7l0,0c1-2,2.4-3,4.7-2.9v2.2c-3.3,0-4.7,1.9-4.7,5.2v5.7h-2.1v-12.9L219.8,1037.4
						L219.8,1037.4z"/>
					<path class="st4" d="M235.8,1043.6c-0.8,0.6-2.4,0.6-3.7,0.9c-1.4,0.2-2.5,0.7-2.5,2.3c0,1.4,1.2,1.8,2.4,1.8
						c2.7,0,3.9-1.7,3.9-2.8L235.8,1043.6L235.8,1043.6z M239.2,1050.2c-0.4,0.2-0.8,0.3-1.5,0.3c-1.1,0-1.8-0.6-1.8-1.9
						c-1.1,1.3-2.7,1.9-4.5,1.9c-2.3,0-4.3-1-4.3-3.5c0-2.8,2.1-3.5,4.4-4c2.3-0.4,4.3-0.3,4.3-1.9c0-1.8-1.5-2.1-2.8-2.1
						c-1.8,0-3,0.5-3.1,2.4h-2.2c0.1-3.1,2.5-4.3,5.4-4.3c2.3,0,4.8,0.5,4.8,3.5v6.6c0,1,0,1.4,0.7,1.4c0.2,0,0.4,0,0.6-0.1
						L239.2,1050.2L239.2,1050.2z"/>
					<path class="st4" d="M241.1,1032.6h2.1v17.6h-2.1V1032.6z"/>
					<path class="st4" d="M259.2,1039c-2.8,0-3.9,2.4-3.9,4.8c0,2.5,1.1,4.9,4.1,4.9c2.8,0,3.9-2.4,3.9-5
						C263.1,1041.3,261.9,1039,259.2,1039 M253.3,1037.4h2.1v1.7h0.1c0.7-1.4,2.3-2,4.1-2c4,0,5.9,3.1,5.9,6.7s-1.9,6.6-5.8,6.6
						c-1.3,0-3.1-0.5-4.2-2h-0.2v6.6h-2L253.3,1037.4L253.3,1037.4z"/>
					<path class="st4" d="M276.6,1042.6c-0.1-2-1.6-3.6-3.6-3.6c-2.2,0-3.5,1.6-3.6,3.6H276.6L276.6,1042.6z M278.6,1046.2
						c-0.6,2.8-2.6,4.4-5.5,4.4c-4.1,0-6-2.8-6.1-6.7c0-3.9,2.5-6.6,6-6.6c4.6,0,5.9,4.3,5.8,7.3h-9.5c-0.1,2.2,1.2,4.2,4,4.2
						c1.7,0,2.9-0.8,3.3-2.5h2L278.6,1046.2L278.6,1046.2z"/>
					<path class="st4" d="M286.3,1048.7c2.2,0,4-1.7,4-4.8c0-3.1-1.8-4.9-4-4.9s-4,1.7-4,4.9C282.4,1047,284.2,1048.7,286.3,1048.7
						 M286.3,1037.1c4.1,0,6.2,2.9,6.2,6.7s-2.1,6.7-6.2,6.7s-6.2-2.9-6.2-6.7S282.4,1037.1,286.3,1037.1"/>
					<path class="st4" d="M300.9,1039c-2.8,0-3.9,2.4-3.9,4.8c0,2.5,1.1,4.9,4.1,4.9c2.8,0,3.9-2.4,3.9-5
						C304.9,1041.3,303.7,1039,300.9,1039 M295,1037.4h2.1v1.7l0,0c0.7-1.4,2.3-2,4.1-2c4,0,5.9,3.1,5.9,6.7s-1.9,6.6-5.8,6.6
						c-1.3,0-3.1-0.5-4.2-2l0,0v6.6H295V1037.4L295,1037.4z"/>
					<path class="st4" d="M309.6,1032.6h2.1v17.6h-2.1V1032.6z"/>
					<path class="st4" d="M323.7,1042.6c-0.1-2-1.6-3.6-3.6-3.6c-2.2,0-3.5,1.6-3.6,3.6H323.7z M325.7,1046.2
						c-0.6,2.8-2.6,4.4-5.5,4.4c-4.1,0-6-2.8-6.1-6.7c0-3.9,2.5-6.6,6-6.6c4.6,0,5.9,4.3,5.8,7.3h-9.5c-0.1,2.2,1.2,4.2,4,4.2
						c1.7,0,2.9-0.8,3.3-2.5h2L325.7,1046.2L325.7,1046.2z"/>
					<path class="st4" d="M266,972.7h7c7.1,0,10.3,3,12.1,5.8c2.3,3.5,3,7.9,3,11.6c0,8.9-3.3,17.1-15.2,17.1h-6.8v-34.5L266,972.7
						L266,972.7z M250.1,1021.2H272c23.7,0,32.1-14.4,32.1-31.3c0-6.8-1.5-13.6-5.8-19.4c-8.1-11.6-20.5-11.6-27.7-11.6h-20.7
						L250.1,1021.2L250.1,1021.2z M213.3,978.1h0.2l0,0l6.5,21.4h-13.1L213.3,978.1L213.3,978.1z M224.2,1012.1l3,8.9h17.2
						l-24.8-62.4H207l-25,62.4h17.1l3.3-8.9H224.2L224.2,1012.1z M149.6,1021.2h15.2v-23.8h18v-14.1h-18v-10.6h18.9v-13.9h-34.1
						V1021.2L149.6,1021.2z M122.4,1021.2h15.9v-62.4h-15.9V1021.2z"/>
				</g>
				<g>
					<path class="st8" d="M81.8,922.7"/>
					<path class="st8" d="M42.1,922.7"/>
					<path class="st8" d="M62,922.8c-0.8-1.2-1.2-1.8-2.2-2.8s-1.5-1.3-2.6-2.2c-0.8-0.5-1.3-0.7-2-1c-1-0.5-1.5-0.8-2.3-1.7
						c-0.8-0.7-1.2-1.2-1.8-2.2c-0.8-1.2-1.3-1.8-1.8-3.1c-0.5-1.2-0.7-1.8-0.8-3.1c-0.2-1.3-0.2-2,0-3.3c0.2-1,0.3-1.5,0.5-2.5
						c0.2-0.5,0.3-1,0.7-1.5c0.3-0.5,0.5-0.7,0.8-1.2v-19.5h1.2v19.9c0.2,1.2,0,1.7,0.2,2.8c0.2,1,0.5,1.5,1,2.5c0.7,1,1.2,1.5,2,2
						c0.5,0.3,0.8,0.7,1.3,0.7c0.3,0,0.7,0,0.7,0c-0.3-0.8-0.5-2-0.5-3.3s0.2-2.6,0.5-3.5v-21l0,0h1.2V898l0,0v-0.2
						c0.3-0.3,0.5-0.7,0.8-1s0.5-0.5,0.8-0.7s0.5-0.3,0.8-0.3c0.5-0.2,1.2-0.2,1.2-0.2s0.7,0,1.2,0.2c0.3,0.2,0.5,0.2,0.8,0.3
						c0.3,0.2,0.5,0.3,0.8,0.7s0.5,0.5,0.8,1v0.2l0,0v-19h1.2l0,0v21c0.3,1,0.5,2.2,0.5,3.5s-0.2,2.5-0.5,3.3c0,0,0.5,0,0.7,0
						c0.7-0.2,0.8-0.3,1.3-0.7c1-0.7,1.5-1.2,2-2s0.7-1.5,1-2.5s0.2-1.7,0.2-2.8v-19.9h1.2v19.5c0.3,0.3,0.5,0.7,0.8,1.2
						s0.3,0.8,0.5,1.5c0.3,1,0.5,1.5,0.5,2.5c0.2,1.3,0.2,2,0,3.3s-0.3,2-0.8,3.1c-0.5,1.3-1,2-1.8,3.1c-0.7,0.8-1,1.3-1.8,2.2
						c-0.8,0.7-1.3,1-2.3,1.7c-0.8,0.5-1.3,0.7-2,1c-1.2,0.7-1.7,1.2-2.6,2.2C63.1,921,62.8,921.7,62,922.8"/>
					<path class="st8" d="M62,939.5c-1.7-2.8-3.8-5.1-6.5-6.8c0,0-1-0.7-3.6-2.2c-2-1.2-3.5-2.6-4.6-4.1c-6.8-10.1-3.1-19.4-2.5-19
						l0,0l0,0v-28.5H46v30.6c0,0-0.7,3.5,4.8,6c3.5,1.5,8.1,5.6,11.1,10.9c3.1-5.3,7.6-9.4,11.1-10.9c5.3-2.3,4.8-6,4.8-6v-30.6H79
						v28.5l0,0l0,0c0.7-0.2,4.5,8.9-2.5,19c-1.2,1.5-2.5,3-4.6,4.1c-2.5,1.5-3.6,2.2-3.6,2.2C65.8,934.6,63.6,936.7,62,939.5"/>
					<path class="st8" d="M62,956.4c0,0-1.7-5.5-8.1-7.9c-21.7-8.1-13.7-25-13.1-25.8v-43.9H42v43.7c0,0.5,0.2,1.8,0.7,3.1
						c0.7,1.7,1.7,3.5,2.8,4.1c2.6,1.7,4.5,2,7,3.3c2.2,1.2,5,3.1,9.4,8.1c4.3-5,7.1-7,9.4-8.1c2.5-1.3,4.3-1.7,7-3.3
						c1.2-0.7,2.2-2.5,2.8-4.1c0.5-1.3,0.7-2.6,0.7-3.1v-43.7H83v44c0.8,0.8,8.6,17.7-13.1,25.8C63.6,951,62,956.4,62,956.4"/>
					<path class="st8" d="M30.3,1021.2h-14v-12.4h13.9c6.1,0,11.1-5,11.1-11.1v-38.9h11.9V998C53.4,1010.8,43.1,1021.2,30.3,1021.2"
						/>
					<path class="st8" d="M93.6,1021.2h14.1v-12.4H93.8c-6.1,0-11.1-5-11.1-11.1v-38.9h-12V998C70.6,1010.8,80.8,1021.2,93.6,1021.2
						"/>
					<path class="st8" d="M30.2,1036.1H16.3v-12.4h13.9c15.9,0,25.7-12.4,25.7-26.2v-38.9h11.9v39.2
						C67.9,1018.7,51.5,1036.1,30.2,1036.1"/>
				</g>
			</g>
		</g>
	</g>
	<g id="Layer_3" class="st1">
	</g>
</g>
<g id="Layer_2">
	<g>
		<g>
			<defs>
				<rect id="SVGID_1_" x="384.1" y="14.2" width="185.7" height="174.1"/>
			</defs>
			<clipPath id="SVGID_2_">
				<use xlink:href="#SVGID_1_"  style="overflow:visible;"/>
			</clipPath>
			<polygon class="st9" points="550.7,147 400.7,160.1 400.7,146.1 550.7,146.1 			"/>
			<polygon class="st10" points="400.7,160.1 550.7,147 550.7,161.1 400.7,161.1 			"/>
			<g class="st11">
				<defs>
					<rect id="SVGID_3_" x="384.1" y="14.2" width="185.7" height="174.1"/>
				</defs>
				<clipPath id="SVGID_4_">
					<use xlink:href="#SVGID_3_"  style="overflow:visible;"/>
				</clipPath>
				<path class="st12" d="M525.5,70.2h-18V46.9l-25,0l-0.1,23.4h-16.7V46.8h-25.1v29c-3.9-4.1-9.3-6.9-15.5-6.9
					c-19.5,0-25.9,18.3-25.9,35.8c0,16.8,6.5,35.2,25.1,35.2c8.1,0,13.6-2.9,17.2-10.4h0.3v9.1h23.8V87.6h16.9v22
					c0,7.4-1.1,16.7,3.8,22.3c4.9,5.6,9.8,6.7,18.1,7l15.9-0.2v-19.4c0,0-4.8-0.1-7.2-0.1c-6,0-5.5-4.8-5.5-9.8V87.6h17.8v50.9h25.1
					V70.2H525.5z M439.1,118.6c-1.4,2.3-3.1,3.5-5.6,3.5c-7.9,0-8.2-10.7-8.2-16.7c0-3.7,0.5-9,1.3-12.7c0.8-4.1,2.7-7.2,7.1-7.2
					c2,0,4.3,0.9,5.5,2.7c1.6,2.1,1.5,5.3,1.5,8V110C440.7,113.3,440.9,115.7,439.1,118.6"/>
				<polygon class="st13" points="552.7,42.7 552.5,42.6 552.5,42.7 				"/>
				<path class="st12" d="M538.6,19c-11.8,0-21.4,10.1-21.4,22.6c0,12.5,9.6,22.6,21.4,22.6c11.8,0,21.4-10.1,21.4-22.6
					C560,29.1,550.4,19,538.6,19 M553.2,37.9l1.2,1l-0.1,0.8L555,41l0.5,2.4l-1.2,0.1l-0.5-1l-0.4-0.2l0,0.1l0,0.9l1.1,1.1l0.6,1.6
					l-1.2,0.3l0,0.9l-1.2-0.4l-0.6-1.3l0.5-0.4l-0.4-0.9l-0.5,0.5l-1.1-0.2l-0.6-2.9l0.7-0.8l-0.8-0.5l-0.3-1.8L553.2,37.9z
					 M549.5,44.1l0.5,2.4l-1.1,1.9l0.1,1.8l-1,0.8l-0.4-1.7l1.1-5.2L549.5,44.1z M531.3,25.4l1.2,0.8l0.2-4.4l1.1-1.3l5,0l0.7-0.7
					l0.7,0.5l-0.8,0.8l1,1.5l0.1,1.9l-3.3,2.2l1.7,4.7l1.3,0.2l0-0.6l2-0.2l1.8,1.5l0.8-0.8l2.1,1l0.1,0.6l-0.8,0.1l1.9,2.1
					l-0.9,1.9l1.2,1.4l-1.5,1.1l-1-1.2l-0.7,1l-0.8-0.2l0.4-1l-0.4-0.4l0.4-1.8l-1.9-1.6l-0.2,0.7l-4-2.5l-2.8,0.7l-0.5-0.8
					l-1.1,0.3l-3.7-6.1L531.3,25.4z M546.3,50.1l-0.4,1l-4.1-1.6l0-1.6l1.2-0.8l0.3-2l2.2-1.7l1.6,1.1l-1.8,2.2l-0.2,2.9L546.3,50.1
					z M530,46.9l-1.2,0.3l0.1,0.8l-3.5,2.6l-1.1-1.2l6.6-5.6l-0.4-0.9l0.7-2.2h0.9l0.5,2.4l0.6,0.7L530,46.9z M534.9,39.3l-0.2-1.5
					l-1-1l0-1.2l4.3,0.1l0.7,1.6l-1.5,3.5L534.9,39.3z M537.8,45.7l0.2-4.5l0.8-0.6l1.9,0.9l3.2-0.4l0.5,1l-3.3,2.6l-1.1,0l-1.1,1.4
					L537.8,45.7z M548.8,59.4l-0.3-1.8l1-1.2l-0.8-0.9l-1.9,0.1l-1.9,1.1l-0.9-0.3l-0.5-0.5l-1.9,2.9l-2-0.1l0.9-1.5l-0.7-0.5
					l0.6-0.8l3.7-1.4l0.3-1.8l3.1-0.1l1.6,1.2l1-1.4l1.4,0l0-2.5l1.1,0l0.7,0.9l1.4-1l-0.4-1.5l1.1-2.1l0.9,0.8l-0.6,0.8l1.3,1.5
					l-2.6,4.7L548.8,59.4z"/>
				<polygon class="st14" points="532.1,40.6 531.2,40.6 530.4,42.8 530.8,43.7 524.3,49.4 525.4,50.6 528.9,48 528.8,47.2 
					530,46.9 533.2,43.7 532.6,43 				"/>
				<polygon class="st14" points="538.1,35.6 533.7,35.5 533.7,36.7 534.7,37.7 534.9,39.3 537.3,40.7 538.8,37.2 				"/>
				<polygon class="st14" points="535.4,32.6 535.9,33.4 538.6,32.7 542.6,35.2 542.8,34.5 544.7,36.1 544.3,37.9 544.7,38.2 
					544.4,39.3 545.1,39.4 545.9,38.4 546.9,39.7 548.4,38.6 547.2,37.2 548.1,35.3 546.2,33.3 547,33.2 546.9,32.5 544.8,31.5 
					543.9,32.3 542.2,30.8 540.2,31 540.2,31.6 538.9,31.4 537.2,26.7 540.6,24.5 540.5,22.6 539.5,21.2 540.3,20.3 539.5,19.8 
					538.9,20.5 533.8,20.5 532.8,21.8 532.5,26.2 531.3,25.4 530.5,26.8 534.3,32.9 				"/>
				<path class="st14" d="M550.7,40.7l-0.7,0.8l0.6,2.9l1.1,0.2l0.5-0.5l0.4,0.9l-0.5,0.4l0.6,1.3l1.2,0.4l0-0.9l1.2-0.3l-0.6-1.6
					l-1.1-1.1l0-0.9l0-0.1l0.4,0.2l0.5,1l1.2-0.1L555,41l-0.8-1.2l0.1-0.8l-1.2-1l-3.7,0.5l0.3,1.8L550.7,40.7z M552.7,42.7l-0.1,0
					l-0.1-0.1L552.7,42.7z"/>
				<polygon class="st14" points="541.1,44.6 544.4,42 543.9,41 540.7,41.4 538.8,40.6 538,41.2 537.8,45.7 538.9,46 540,44.6 				
					"/>
				<polygon class="st14" points="547.3,44.7 545.7,43.5 543.5,45.2 543.1,47.1 541.9,48 541.8,49.6 545.9,51.1 546.3,50.1 
					545.4,49.8 545.5,46.9 				"/>
				<polygon class="st14" points="548,50.9 549,50.2 548.8,48.4 550,46.5 549.5,44.1 548.6,44.1 547.6,49.2 				"/>
				<polygon class="st14" points="555.8,48.1 556.4,47.2 555.5,46.4 554.4,48.6 554.8,50.1 553.4,51 552.7,50.1 551.7,50.1 
					551.7,52.6 550.3,52.6 549.3,54 547.7,52.7 544.6,52.8 544.3,54.7 540.6,56.1 540,56.9 540.7,57.3 539.8,58.8 541.7,58.9 
					543.7,56.1 544.1,56.5 545,56.8 546.9,55.7 548.7,55.6 549.5,56.5 548.5,57.7 548.8,59.4 554.4,54.3 557,49.6 				"/>
				<path class="st12" d="M402.6,173.7v-3h1.1c0.4,0,0.8,0,1.1,0.3c0.3,0.3,0.4,0.7,0.4,1.2c0,0.4-0.1,0.7-0.3,1
					c-0.3,0.5-0.7,0.5-1.2,0.5H402.6z M402.6,175.8h1.3c0.9,0,1.7,0,2.4-0.8c0.6-0.7,0.9-1.8,0.9-2.8c0-1.2-0.4-2.1-1.1-2.8
					c-0.7-0.7-1.5-0.7-2.3-0.7h-3.2v11.2h2V175.8z"/>
				<polygon class="st12" points="422.9,179.9 420.9,179.9 420.9,175.3 418.3,175.3 418.3,179.9 416.3,179.9 416.3,168.7 
					418.3,168.7 418.3,173.1 420.9,173.1 420.9,168.7 422.9,168.7 				"/>
				<rect x="432.5" y="168.7" class="st12" width="2" height="11.2"/>
				<polygon class="st12" points="449.5,177.7 449.5,179.9 444.1,179.9 444.1,168.7 446.1,168.7 446.1,177.7 				"/>
				<rect x="458.4" y="168.7" class="st12" width="2" height="11.2"/>
				<path class="st12" d="M472,173.7v-3h1.1c0.4,0,0.8,0,1.1,0.3c0.3,0.3,0.4,0.7,0.4,1.2c0,0.4-0.1,0.7-0.3,1
					c-0.3,0.5-0.7,0.5-1.2,0.5H472z M472,175.8h1.3c0.9,0,1.7,0,2.4-0.8c0.6-0.7,0.9-1.8,0.9-2.8c0-1.2-0.4-2.1-1.1-2.8
					c-0.7-0.7-1.5-0.7-2.3-0.7h-3.2v11.2h2V175.8z"/>
				<path class="st12" d="M487.7,173.7v-3h1.1c0.4,0,0.8,0,1.1,0.3c0.3,0.3,0.4,0.7,0.4,1.2c0,0.4-0.1,0.7-0.3,1
					c-0.3,0.5-0.7,0.5-1.2,0.5H487.7z M487.7,175.8h1.3c0.9,0,1.7,0,2.4-0.8c0.6-0.7,0.9-1.8,0.9-2.8c0-1.2-0.4-2.1-1.1-2.8
					c-0.7-0.7-1.5-0.7-2.3-0.7h-3.2v11.2h2V175.8z"/>
				<rect x="501.5" y="168.7" class="st12" width="2" height="11.2"/>
				<polygon class="st12" points="519.6,179.9 518,179.9 514.7,172.4 514.6,172.4 514.6,179.9 513.1,179.9 513.1,168.7 515.2,168.7 
					518.1,175.3 518.1,175.3 518.1,168.7 519.6,168.7 				"/>
				<polygon class="st12" points="531.2,170.9 531.2,173.1 534.5,173.1 534.5,175.2 531.2,175.2 531.2,177.7 535.3,177.7 
					535.3,179.9 529.3,179.9 529.3,168.7 535.3,168.7 535.3,170.9 				"/>
				<path class="st12" d="M548.7,171.9c-0.2-1-0.7-1.3-1.5-1.3c-0.5,0-1.2,0.2-1.2,1c0,0.8,0.7,1,1.2,1.1c0.7,0.2,1.6,0.4,2.2,0.9
					c0.7,0.6,1.1,1.5,1.1,2.7c0,1.1-0.4,2.1-1,2.8c-0.7,0.7-1.6,0.9-2.5,0.9c-1.6,0-3.1-0.9-3.4-3.1l1.8-0.6
					c0.3,1.2,0.9,1.6,1.8,1.6c0.6,0,1.3-0.3,1.3-1.2c0-0.9-1-1.1-1.5-1.2c-1.5-0.4-3-1-3-3.4c0-1.1,0.3-2,0.9-2.6
					c0.6-0.7,1.3-0.9,2.1-0.9c1.5,0,2.7,0.7,3.2,2.6L548.7,171.9z"/>
			</g>
		</g>
	</g>
	<g transform="translate(0 -902.36)">
		<g transform="translate(-16.252 29.372)">
			<g>
				<path d="M74.6,1050.5H77v-17.7h-2.4V1050.5z"/>
				<path d="M80.5,1037.6h2v2h0.1c0.9-1.6,2.3-2.3,4.2-2.3c3.4,0,4.4,1.9,4.4,4.7v8.4H89v-8.7c0-1.6-1-2.6-2.6-2.6
					c-2.6,0-3.8,1.7-3.8,4v7.2h-2.1L80.5,1037.6L80.5,1037.6z"/>
				<path d="M100,1050.5h-2.3l-4.8-12.8h2.4l3.6,10.7h0l3.5-10.7h2.2C104.7,1037.6,100,1050.5,100,1050.5z"/>
				<path d="M115.5,1042.8c-0.1-2-1.6-3.6-3.7-3.6c-2.2,0-3.5,1.7-3.7,3.6H115.5z M117.5,1046.4c-0.6,2.8-2.6,4.4-5.5,4.4
					c-4.1,0-6-2.8-6.2-6.8c0-3.8,2.5-6.7,6-6.7c4.5,0,5.9,4.2,5.8,7.4h-9.6c-0.1,2.2,1.2,4.2,4,4.2c1.7,0,3-0.8,3.3-2.5H117.5
					L117.5,1046.4z"/>
				<path d="M121.1,1046.4c0.1,1.9,1.7,2.5,3.5,2.5c1.3,0,3.1-0.3,3.1-1.9c0-1.6-2.1-1.9-4.2-2.4c-2.1-0.5-4.2-1.2-4.2-3.6
					c0-2.6,2.6-3.7,4.8-3.7c2.8,0,5.1,0.9,5.3,4h-2.1c-0.1-1.6-1.6-2.2-3-2.2c-1.3,0-2.7,0.3-2.7,1.6c0,1.5,2.2,1.8,4.2,2.2
					c2.1,0.5,4.2,1.2,4.2,3.7c0,3.1-2.9,4-5.5,4c-2.9,0-5.3-1.2-5.4-4.3L121.1,1046.4L121.1,1046.4z"/>
				<path d="M135,1037.6h2.6v1.9H135v8c0,1,0.3,1.1,1.6,1.1h1v1.9H136c-2.2,0-3.1-0.4-3.1-2.8v-8.2h-2.2v-1.9h2.2v-3.9h2.1V1037.6
					L135,1037.6z"/>
				<path d="M140,1037.6h2.1v12.8H140V1037.6z M142.1,1035.3H140v-2.6h2.1V1035.3z"/>
				<path d="M145.2,1037.6h2v2h0.1c0.9-1.6,2.3-2.3,4.2-2.3c3.4,0,4.4,1.9,4.4,4.7v8.4h-2.1v-8.7c0-1.6-1-2.6-2.6-2.6
					c-2.6,0-3.8,1.7-3.8,4v7.2h-2.1L145.2,1037.6L145.2,1037.6z"/>
				<path d="M168,1043.8c0-2.3-1-4.6-3.7-4.6c-2.7,0-3.8,2.2-3.8,4.7c0,2.3,0.8,4.9,3.6,4.9C166.9,1048.7,168,1046.2,168,1043.8
					 M170,1049.4c0,4.2-1.9,6.3-6,6.3c-2.4,0-5.2-1-5.3-3.8h2.1c0.1,1.5,1.9,2.1,3.3,2.1c2.8,0,3.9-2,3.9-4.9v-0.8H168
					c-0.7,1.6-2.4,2.3-4,2.3c-3.8,0-5.7-3-5.7-6.5c0-3,1.5-6.8,5.9-6.8c1.6,0,3.1,0.7,3.8,2.1h0h0.1v-1.8h2L170,1049.4L170,1049.4z"
					/>
				<path d="M180.1,1037.6h2.1v12.8h-2.1V1037.6z M182.2,1035.3h-2.1v-2.6h2.1V1035.3z"/>
				<path d="M185.4,1037.6h2v2h0.1c0.9-1.6,2.3-2.3,4.2-2.3c3.4,0,4.4,1.9,4.4,4.7v8.4h-2.1v-8.7c0-1.6-1-2.6-2.6-2.6
					c-2.6,0-3.8,1.7-3.8,4v7.2h-2.1L185.4,1037.6L185.4,1037.6z"/>
				<path d="M205.8,1037.6h2v2.7h0.1c1-2.1,2.4-3.1,4.7-3v2.2c-3.4,0-4.6,1.9-4.6,5.2v5.7h-2.1V1037.6L205.8,1037.6z"/>
				<path d="M224.7,1050.5h-2v-2h-0.1c-0.9,1.6-2.3,2.3-4.2,2.3c-3.4,0-4.4-1.9-4.4-4.7v-8.4h2.1v8.7c0,1.6,1,2.6,2.6,2.6
					c2.6,0,3.8-1.7,3.8-4v-7.2h2.1L224.7,1050.5L224.7,1050.5z"/>
				<path d="M227.7,1037.6h2v2.7h0c1-2.1,2.4-3.1,4.7-3v2.2c-3.4,0-4.6,1.9-4.6,5.2v5.7h-2.1V1037.6L227.7,1037.6z"/>
				<path d="M243.9,1043.9c-0.8,0.6-2.4,0.6-3.8,0.9c-1.4,0.2-2.6,0.7-2.6,2.3c0,1.4,1.2,1.9,2.5,1.9c2.8,0,3.9-1.7,3.9-2.9
					L243.9,1043.9L243.9,1043.9z M247.3,1050.5c-0.4,0.2-0.8,0.3-1.5,0.3c-1.1,0-1.8-0.6-1.8-2c-1.2,1.4-2.7,2-4.5,2
					c-2.3,0-4.2-1-4.2-3.6c0-2.9,2.2-3.5,4.3-3.9c2.3-0.4,4.3-0.3,4.3-1.9c0-1.8-1.5-2.1-2.9-2.1c-1.8,0-3.1,0.5-3.2,2.4h-2.1
					c0.1-3.2,2.6-4.3,5.4-4.3c2.3,0,4.8,0.5,4.8,3.5v6.6c0,1,0,1.4,0.7,1.4c0.2,0,0.4,0,0.6-0.1L247.3,1050.5L247.3,1050.5z"/>
				<path d="M249.3,1032.7h2.1v17.7h-2.1V1032.7z"/>
				<path d="M267.4,1039.2c-2.8,0-3.9,2.4-3.9,4.8c0,2.5,1.1,4.9,4,4.9c2.9,0,3.9-2.5,3.9-5C271.4,1041.5,270.2,1039.2,267.4,1039.2
					 M261.5,1037.6h2.1v1.7h0.1c0.7-1.4,2.3-2,4.1-2c3.9,0,5.9,3.1,5.9,6.8c0,3.6-1.9,6.7-5.9,6.7c-1.3,0-3.2-0.5-4.1-2h-0.1v6.6
					h-2.1L261.5,1037.6L261.5,1037.6z"/>
				<path d="M285,1042.8c-0.1-2-1.6-3.6-3.7-3.6c-2.2,0-3.5,1.7-3.7,3.6H285L285,1042.8z M287,1046.4c-0.6,2.8-2.6,4.4-5.5,4.4
					c-4.1,0-6-2.8-6.2-6.8c0-3.8,2.5-6.7,6-6.7c4.5,0,5.9,4.2,5.8,7.4h-9.6c-0.1,2.2,1.2,4.2,4,4.2c1.7,0,3-0.8,3.3-2.5H287
					L287,1046.4z"/>
				<path d="M294.8,1048.9c2.2,0,4-1.7,4-4.8c0-3.1-1.8-4.9-4-4.9c-2.2,0-4,1.7-4,4.9C290.8,1047.2,292.6,1048.9,294.8,1048.9
					 M294.8,1037.3c4.1,0,6.2,3,6.2,6.7c0,3.7-2.2,6.7-6.2,6.7s-6.2-3-6.2-6.7C288.6,1040.3,290.8,1037.3,294.8,1037.3"/>
				<path d="M309.5,1039.2c-2.8,0-3.9,2.4-3.9,4.8c0,2.5,1.1,4.9,4.1,4.9c2.9,0,3.8-2.5,3.8-5
					C313.5,1041.5,312.2,1039.2,309.5,1039.2 M303.5,1037.6h2.1v1.7h0c0.7-1.4,2.3-2,4.1-2c3.9,0,5.9,3.1,5.9,6.8
					c0,3.6-1.9,6.7-5.9,6.7c-1.3,0-3.2-0.5-4.1-2h0v6.6h-2.1L303.5,1037.6L303.5,1037.6z"/>
				<path d="M318.2,1032.7h2.1v17.7h-2.1V1032.7z"/>
				<path d="M332.4,1042.8c-0.1-2-1.6-3.6-3.7-3.6c-2.2,0-3.5,1.7-3.7,3.6H332.4z M334.5,1046.4c-0.6,2.8-2.6,4.4-5.5,4.4
					c-4.1,0-6-2.8-6.2-6.8c0-3.8,2.5-6.7,6-6.7c4.5,0,5.9,4.2,5.8,7.4H325c-0.1,2.2,1.2,4.2,4,4.2c1.7,0,3-0.8,3.3-2.5H334.5
					L334.5,1046.4z"/>
				<path d="M274,972.5h7.1c7.2,0,10.5,3,12.4,5.9c2.3,3.6,3.1,8.2,3.1,11.8c0,9-3.4,17.5-15.6,17.5h-7L274,972.5L274,972.5z
					 M257.7,1021.9H280c24.2,0,32.8-14.6,32.8-32c0-7-1.5-13.8-5.8-19.8c-8.3-11.9-21-11.9-28.1-11.9h-21.1L257.7,1021.9
					L257.7,1021.9z M220.2,978h0.2h0.1l6.5,21.8h-13.3L220.2,978L220.2,978z M231.3,1012.7l3.1,9.2H252l-25.3-63.7h-12.8l-25.6,63.7
					h17.5l3.4-9.2L231.3,1012.7L231.3,1012.7z M155.1,1021.9h15.6v-24.3h18.5v-14.3h-18.5v-10.8h19.2v-14.3h-34.8V1021.9
					L155.1,1021.9z M127.3,1021.9h16.3v-63.7h-16.3C127.3,958.2,127.3,1021.9,127.3,1021.9z"/>
			</g>
			<g>
				<path class="st15" d="M86,921.4"/>
				<path class="st15" d="M45.4,921.4"/>
				<path class="st15" d="M65.7,921.5c-0.9-1.1-1.2-1.9-2.2-2.9c-0.9-1-1.5-1.4-2.7-2.1c-0.8-0.5-1.3-0.6-2.1-1.1
					c-1-0.6-1.5-0.9-2.3-1.6c-0.8-0.7-1.2-1.3-1.8-2.1c-0.9-1.2-1.3-1.9-1.9-3.3c-0.5-1.2-0.7-1.9-0.8-3.2c-0.2-1.3-0.1-2.1,0-3.4
					c0.1-1,0.3-1.5,0.6-2.5c0.2-0.6,0.3-0.9,0.6-1.5c0.3-0.5,0.5-0.7,0.8-1.1v-19.9h1.2V897c0.1,1.1,0,1.8,0.3,2.9
					c0.2,1,0.4,1.6,1,2.5c0.6,1,1.1,1.5,2.1,2.1c0.5,0.3,0.8,0.6,1.4,0.7c0.3,0,0.8,0,0.8,0c-0.3-0.9-0.5-2.1-0.5-3.4
					c0-1.4,0.2-2.6,0.5-3.6v-21.4h0h1.2v19.4l0,0l0-0.1c0.3-0.4,0.5-0.6,0.9-0.9c0.3-0.3,0.5-0.4,0.9-0.6c0.3-0.2,0.5-0.3,0.9-0.4
					c0.4-0.1,1.1-0.1,1.1-0.1s0.7,0,1.1,0.1c0.4,0.1,0.6,0.2,0.9,0.4c0.4,0.2,0.6,0.3,0.9,0.6c0.4,0.3,0.5,0.6,0.9,0.9l0.1,0.1l0,0
					v-19.4h1.2h0v21.4c0.4,1,0.5,2.2,0.5,3.6c0,1.3-0.2,2.5-0.5,3.4c0,0,0.5,0,0.8,0c0.6-0.1,0.9-0.4,1.4-0.7c1-0.6,1.5-1.1,2.1-2.1
					c0.6-0.9,0.8-1.4,1-2.5c0.3-1.1,0.1-1.7,0.2-2.9v-20.2h1.2v19.9c0.4,0.4,0.6,0.7,0.9,1.1c0.3,0.5,0.4,0.9,0.6,1.5
					c0.3,0.9,0.4,1.5,0.6,2.5c0.2,1.3,0.2,2.1,0.1,3.4c-0.2,1.3-0.3,2-0.8,3.2c-0.6,1.4-1,2.1-1.9,3.3c-0.7,0.9-1,1.4-1.9,2.1
					c-0.8,0.7-1.4,1.1-2.3,1.6c-0.8,0.5-1.3,0.6-2.1,1.1c-1.1,0.7-1.7,1.2-2.7,2.1C66.9,919.7,66.6,920.4,65.7,921.5"/>
				<path class="st15" d="M65.7,938.6c-1.6-2.8-3.9-5.2-6.6-7c0,0-1-0.7-3.6-2.2c-2.1-1.2-3.5-2.7-4.7-4.2
					c-7-10.4-3.2-19.7-2.5-19.5l0.1,0l-0.1,0v-29h1.2v31.3c0,0-0.6,3.6,4.9,6c3.5,1.6,8.2,5.8,11.3,11.2c3.1-5.4,7.8-9.7,11.3-11.2
					c5.5-2.4,4.9-6,4.9-6v-31.3h1.2v29l-0.1,0l0.1,0c0.7-0.2,4.5,9.2-2.5,19.5c-1.2,1.5-2.6,3-4.7,4.2c-2.6,1.5-3.6,2.2-3.6,2.2
					C69.6,933.5,67.3,935.8,65.7,938.6"/>
				<path class="st15" d="M65.7,955.9c0,0-1.7-5.6-8.2-8c-22.1-8.2-14.1-25.6-13.3-26.4v-44.7h1.2v44.6c0,0.5,0.2,1.8,0.7,3.2
					c0.6,1.7,1.8,3.6,2.9,4.3c2.7,1.7,4.6,2,7.1,3.3c2.3,1.2,5.1,3.1,9.6,8.3c4.5-5.1,7.3-7.1,9.6-8.3c2.6-1.3,4.4-1.7,7.1-3.3
					c1.1-0.7,2.3-2.5,2.9-4.3c0.5-1.4,0.6-2.7,0.7-3.2v-44.6h1.2v44.7c0.8,0.8,8.8,18.2-13.3,26.4C67.4,950.3,65.7,955.9,65.7,955.9
					"/>
				<path class="st15" d="M33.4,1021.8H19.1v-12.6h14.3c6.3,0,11.3-5.1,11.3-11.4v-39.6h12.2l0,40
					C56.9,1011.3,46.5,1021.8,33.4,1021.8"/>
				<path class="st15" d="M98,1021.8h14.3v-12.6H98.1c-6.3,0-11.3-5.1-11.3-11.4v-39.6H74.5l0,40C74.5,1011.3,85,1021.8,98,1021.8"
					/>
				<path class="st15" d="M33.2,1037.1H19.1v-12.6h14.3c16.2,0,26.2-12.7,26.2-26.6v-39.6h12.2l0,40
					C71.8,1019.4,55.1,1037.1,33.2,1037.1"/>
			</g>
		</g>
	</g>
	<g>
		<path class="st7" d="M679.4,171.3v4.3h-1v-9.4h2c0.8,0,1.2,0,1.4,0.1c0.3,0.1,0.7,0.3,0.9,0.4c0.3,0.3,0.5,0.5,0.8,0.9
			c0.3,0.4,0.3,0.9,0.3,1.2c0,0.5-0.1,0.9-0.3,1.2c-0.3,0.4-0.4,0.8-0.8,0.9c-0.3,0.3-0.5,0.3-0.9,0.4c-0.3,0.1-0.9,0.1-1.4,0.1
			h-0.3L679.4,171.3L679.4,171.3z M679.4,170.2h0.7c0.9,0,1.6-0.1,2-0.3c0.3-0.3,0.5-0.7,0.5-1.2c0-0.7-0.3-0.9-0.5-1.3
			c-0.3-0.3-0.9-0.4-2-0.4h-0.7V170.2z"/>
		<path class="st7" d="M701.4,175.5v-9.4h2.2c0.7,0,1,0,1.4,0.1c0.3,0.1,0.7,0.3,0.9,0.4c0.3,0.3,0.5,0.5,0.7,0.9
			c0.3,0.4,0.3,0.9,0.3,1.2c0,0.9-0.3,1.4-0.7,1.8s-1,0.7-2,0.7H704l3.6,4.6h-1.4l-3.4-4.6h-0.3v4.6L701.4,175.5L701.4,175.5z
			 M702.5,167v3.1h0.9c0.9,0,1.4-0.1,1.8-0.3c0.3-0.3,0.4-0.7,0.4-1.2c0-0.7-0.3-0.9-0.5-1.3c-0.3-0.3-0.9-0.4-1.7-0.4H702.5z"/>
		<path class="st7" d="M734.6,170.8c0,0.8-0.1,1.3-0.4,2c-0.3,0.7-0.7,1-1,1.6c-0.5,0.5-0.9,0.9-1.6,1c-0.7,0.3-1.3,0.4-2,0.4
			c-0.7,0-1.3-0.1-2-0.4c-0.7-0.3-1.2-0.7-1.6-1c-0.5-0.5-0.9-0.9-1-1.6c-0.3-0.7-0.4-1.2-0.4-2c0-0.8,0.1-1.3,0.4-2
			c0.3-0.7,0.7-1,1-1.6c0.4-0.5,0.9-0.9,1.6-1c0.7-0.3,1.3-0.4,2-0.4c0.8,0,1.3,0.1,2,0.4c0.7,0.3,1.2,0.7,1.6,1
			c0.5,0.5,0.9,0.9,1,1.6C734.5,169.5,734.6,170.1,734.6,170.8z M729.6,174.7c0.5,0,0.9-0.1,1.4-0.3c0.5-0.3,0.9-0.5,1.3-0.9
			s0.8-0.9,0.9-1.3c0.3-0.5,0.3-0.9,0.3-1.4c0-0.5-0.1-0.9-0.3-1.4c-0.3-0.5-0.5-0.9-0.9-1.3c-0.4-0.4-0.9-0.8-1.3-0.9
			c-0.5-0.3-0.9-0.3-1.4-0.3c-0.5,0-0.9,0.1-1.4,0.3c-0.5,0.3-0.9,0.5-1.2,0.9c-0.3,0.4-0.8,0.9-0.9,1.3c-0.3,0.5-0.3,0.9-0.3,1.4
			c0,0.5,0.1,0.9,0.3,1.4c0.3,0.5,0.5,0.9,0.9,1.3s0.9,0.8,1.3,0.9C728.5,174.5,729,174.7,729.6,174.7z"/>
		<path class="st7" d="M754.7,166h1v7.3c0,0.9-0.3,1.4-0.5,1.8c-0.4,0.4-0.9,0.7-1.6,0.7c-0.4,0-0.8-0.1-0.9-0.3
			c-0.3-0.3-0.7-0.4-0.9-0.8l0.8-0.8c0.3,0.3,0.4,0.4,0.7,0.5c0.3,0.1,0.4,0.3,0.7,0.3s0.7-0.1,0.8-0.4c0.1-0.3,0.3-0.9,0.3-1.4
			L754.7,166L754.7,166z"/>
		<path class="st7" d="M774.6,175.5v-9.4h4.9v0.9h-3.8v2.7h3.8v0.9h-3.8v3.6h3.8v0.9L774.6,175.5L774.6,175.5z"/>
		<path class="st7" d="M805.4,168.3c-0.5-0.5-0.9-0.9-1.4-1c-0.5-0.3-1-0.4-1.7-0.4c-0.5,0-0.9,0.1-1.4,0.3
			c-0.5,0.1-0.9,0.5-1.2,0.9c-0.3,0.4-0.7,0.9-0.9,1.3c-0.3,0.5-0.3,0.9-0.3,1.4c0,0.4,0.1,0.9,0.3,1.2c0.1,0.4,0.3,0.8,0.5,0.9
			c0.4,0.5,0.9,0.9,1.4,1.2c0.7,0.3,1,0.4,1.8,0.4c0.7,0,1.2-0.1,1.7-0.4c0.5-0.3,0.9-0.7,1.4-1v1.4c-0.5,0.3-0.9,0.7-1.4,0.9
			c-0.5,0.3-1,0.3-1.7,0.3c-0.5,0-0.9-0.1-1.4-0.3c-0.5-0.1-0.9-0.4-1.3-0.7c-0.8-0.5-1.2-1-1.6-1.8s-0.5-1.4-0.5-2.3
			c0-0.8,0.1-1.4,0.4-2c0.3-0.7,0.7-1,1-1.6c0.5-0.5,0.9-0.9,1.6-0.9c0.7-0.3,1.2-0.3,2-0.3c0.5,0,1,0.1,1.6,0.3
			c0.5,0.3,0.9,0.4,1.4,0.9L805.4,168.3L805.4,168.3z"/>
		<path class="st7" d="M825.5,175.5v-8.3h-2.7v-1h6.5v1h-2.7v8.3H825.5z"/>
	</g>
	<g>
		<g id="Layer_1-2_1_">
			<g class="st0">
				<defs>
					<rect id="SVGID_5_" x="749.5" y="25.2" width="58.7" height="30.1"/>
				</defs>
				<clipPath id="SVGID_6_" class="st1">
					<use xlink:href="#SVGID_5_"  style="overflow:visible;"/>
				</clipPath>
				<g class="st16">
					<rect x="749.7" y="49.8" class="st17" width="0.5" height="4"/>
					<path class="st17" d="M751,50.9h0.4v0.5h0c0.2-0.4,0.5-0.5,0.9-0.5c0.8,0,1,0.4,1,1v1.9h-0.5v-1.9c0-0.3-0.2-0.6-0.6-0.6
						c-0.6,0-0.8,0.4-0.8,0.9v1.6H751L751,50.9z"/>
					<polygon class="st17" points="755.4,53.7 754.9,53.7 753.8,50.9 754.3,50.9 755.1,53.3 755.2,53.3 755.9,50.9 756.4,50.9 					
						"/>
					<path class="st17" d="M759.3,52.8c-0.1,0.6-0.6,1-1.2,1c-0.9,0-1.3-0.6-1.4-1.5c0-0.9,0.6-1.5,1.3-1.5c1,0,1.3,0.9,1.3,1.6
						h-2.1c0,0.5,0.3,0.9,0.9,0.9c0.4,0,0.7-0.2,0.7-0.6L759.3,52.8z M758.8,52c0-0.5-0.4-0.8-0.8-0.8c-0.5,0-0.8,0.4-0.8,0.8H758.8
						z"/>
					<path class="st17" d="M760.1,52.8c0,0.4,0.4,0.6,0.8,0.6c0.3,0,0.7-0.1,0.7-0.4s-0.5-0.4-0.9-0.5c-0.5-0.1-0.9-0.3-0.9-0.8
						c0-0.6,0.6-0.8,1.1-0.8c0.6,0,1.1,0.2,1.2,0.9h-0.5c0-0.4-0.4-0.5-0.7-0.5c-0.3,0-0.6,0.1-0.6,0.4c0,0.3,0.5,0.4,0.9,0.5
						c0.5,0.1,0.9,0.3,0.9,0.8c0,0.7-0.6,0.9-1.2,0.9c-0.6,0-1.2-0.3-1.2-1L760.1,52.8z"/>
					<path class="st17" d="M763.2,50.9h0.6v0.4h-0.6v1.8c0,0.2,0.1,0.3,0.4,0.3h0.2v0.4h-0.4c-0.5,0-0.7-0.1-0.7-0.6v-1.8h-0.5v-0.4
						h0.5V50h0.5V50.9z"/>
					<path class="st17" d="M764.8,50.4h-0.5v-0.6h0.5L764.8,50.4z M764.3,50.9h0.5v2.9h-0.5L764.3,50.9z"/>
					<path class="st17" d="M765.5,50.9h0.4v0.5h0c0.2-0.4,0.5-0.5,0.9-0.5c0.8,0,1,0.4,1,1v1.9h-0.5v-1.9c0-0.3-0.2-0.6-0.6-0.6
						c-0.6,0-0.9,0.4-0.9,0.9v1.6h-0.5L765.5,50.9z"/>
					<path class="st17" d="M771,53.5c0,0.9-0.4,1.4-1.3,1.4c-0.5,0-1.2-0.2-1.2-0.8h0.5c0,0.3,0.4,0.5,0.7,0.5
						c0.6,0,0.9-0.4,0.9-1.1v-0.2h0c-0.2,0.4-0.5,0.5-0.9,0.5c-0.9,0-1.3-0.7-1.3-1.5c0-0.7,0.3-1.5,1.3-1.5c0.4,0,0.7,0.2,0.9,0.5
						h0v-0.4h0.4L771,53.5z M770.6,52.3c0-0.5-0.2-1-0.8-1c-0.6,0-0.9,0.5-0.9,1c0,0.5,0.2,1.1,0.8,1.1
						C770.3,53.4,770.6,52.8,770.6,52.3z"/>
					<path class="st17" d="M773.7,50.4h-0.5v-0.6h0.5V50.4z M773.3,50.9h0.5v2.9h-0.5V50.9z"/>
					<path class="st17" d="M774.4,50.9h0.4v0.5h0c0.2-0.4,0.5-0.5,0.9-0.5c0.8,0,1,0.4,1,1v1.9h-0.5v-1.9c0-0.3-0.2-0.6-0.6-0.6
						c-0.6,0-0.8,0.4-0.8,0.9v1.6h-0.5V50.9z"/>
					<path class="st17" d="M779,50.9h0.4v0.6h0c0.2-0.5,0.5-0.7,1.1-0.7v0.5c-0.8,0-1,0.4-1,1.2v1.3H779V50.9z"/>
					<path class="st17" d="M783.2,53.7h-0.4v-0.5h0c-0.2,0.4-0.5,0.5-0.9,0.5c-0.8,0-1-0.4-1-1v-1.9h0.5v1.9c0,0.3,0.2,0.6,0.6,0.6
						c0.6,0,0.9-0.4,0.9-0.9v-1.6h0.5L783.2,53.7z"/>
					<path class="st17" d="M783.9,50.9h0.4v0.6h0c0.2-0.5,0.5-0.7,1.1-0.7v0.5c-0.8,0-1,0.4-1,1.2v1.3h-0.5V50.9z"/>
					<path class="st17" d="M788.3,53.7c-0.1,0.1-0.2,0.1-0.3,0.1c-0.2,0-0.4-0.1-0.4-0.4c-0.3,0.3-0.6,0.4-1,0.4
						c-0.5,0-0.9-0.2-0.9-0.8c0-0.6,0.5-0.8,1-0.9c0.5-0.1,1-0.1,1-0.4c0-0.4-0.3-0.5-0.6-0.5c-0.4,0-0.7,0.1-0.7,0.5h-0.5
						c0-0.7,0.6-1,1.2-1c0.5,0,1.1,0.1,1.1,0.8v1.5c0,0.2,0,0.3,0.1,0.3c0,0,0.1,0,0.1,0L788.3,53.7z M787.5,52.3
						c-0.2,0.1-0.5,0.1-0.9,0.2c-0.3,0.1-0.6,0.2-0.6,0.5c0,0.3,0.3,0.4,0.6,0.4c0.6,0,0.9-0.4,0.9-0.6V52.3z"/>
					<rect x="788.7" y="49.8" class="st17" width="0.5" height="4"/>
					<path class="st17" d="M791.5,50.9h0.5v0.4h0c0.2-0.3,0.5-0.5,0.9-0.5c0.9,0,1.3,0.7,1.3,1.5c0,0.8-0.4,1.5-1.3,1.5
						c-0.3,0-0.7-0.1-0.9-0.4h0v1.5h-0.5V50.9z M792.8,51.2c-0.6,0-0.9,0.5-0.9,1.1c0,0.6,0.3,1.1,0.9,1.1c0.6,0,0.9-0.5,0.9-1.1
						C793.7,51.8,793.4,51.2,792.8,51.2L792.8,51.2z"/>
					<path class="st17" d="M797.1,52.8c-0.1,0.6-0.6,1-1.2,1c-0.9,0-1.3-0.6-1.4-1.5c0-0.9,0.6-1.5,1.3-1.5c1,0,1.3,0.9,1.3,1.6H795
						c0,0.5,0.3,0.9,0.9,0.9c0.4,0,0.7-0.2,0.7-0.6L797.1,52.8z M796.7,52c0-0.5-0.4-0.8-0.8-0.8c-0.5,0-0.8,0.4-0.8,0.8H796.7z"/>
					<path class="st17" d="M798.9,50.8c0.9,0,1.4,0.7,1.4,1.5c0,0.8-0.5,1.5-1.4,1.5s-1.4-0.7-1.4-1.5S798,50.8,798.9,50.8
						 M798.9,53.4c0.5,0,0.9-0.4,0.9-1.1s-0.4-1.1-0.9-1.1c-0.5,0-0.9,0.4-0.9,1.1S798.4,53.4,798.9,53.4L798.9,53.4z"/>
					<path class="st17" d="M800.8,50.9h0.5v0.4h0c0.2-0.3,0.5-0.5,0.9-0.5c0.9,0,1.3,0.7,1.3,1.5c0,0.8-0.4,1.5-1.3,1.5
						c-0.3,0-0.7-0.1-0.9-0.4h0v1.5h-0.5V50.9z M802.2,51.2c-0.6,0-0.9,0.5-0.9,1.1c0,0.6,0.3,1.1,0.9,1.1c0.6,0,0.9-0.5,0.9-1.1
						C803.1,51.8,802.8,51.2,802.2,51.2L802.2,51.2z"/>
					<rect x="804.1" y="49.8" class="st17" width="0.5" height="4"/>
					<path class="st17" d="M807.8,52.8c-0.1,0.6-0.6,1-1.2,1c-0.9,0-1.3-0.6-1.4-1.5c0-0.9,0.6-1.5,1.3-1.5c1,0,1.3,0.9,1.3,1.6
						h-2.1c0,0.5,0.3,0.9,0.9,0.9c0.4,0,0.7-0.2,0.7-0.6L807.8,52.8z M807.3,52c0-0.5-0.4-0.8-0.8-0.8c-0.5,0-0.8,0.4-0.8,0.8H807.3
						z"/>
					<path class="st17" d="M764.3,45.3h2.2v-8.6h-2.2V45.3z M768.1,45.3h2.1v-3.3h2.5v-1.9h-2.5v-1.5h2.6v-1.9h-4.7L768.1,45.3z
						 M778.4,44.1l0.4,1.2h2.4l-3.4-8.6H776l-3.4,8.6h2.4l0.5-1.2H778.4z M776.9,39.4L776.9,39.4l0.9,2.9H776L776.9,39.4z
						 M781.9,45.3h3c3.3,0,4.4-2,4.4-4.3c0-0.9-0.2-1.9-0.8-2.7c-1.1-1.6-2.8-1.6-3.8-1.6h-2.8V45.3z M784.1,38.7h1
						c1,0,1.4,0.4,1.7,0.8c0.3,0.5,0.4,1.1,0.4,1.6c0,1.2-0.5,2.4-2.1,2.4h-0.9V38.7z"/>
					<path class="st17" d="M756,31.8c-0.1-0.2-0.2-0.3-0.3-0.4c-0.1-0.1-0.2-0.2-0.4-0.3c-0.1-0.1-0.2-0.1-0.3-0.1
						c-0.1-0.1-0.2-0.1-0.3-0.2c-0.1-0.1-0.2-0.2-0.2-0.3c-0.1-0.1-0.2-0.3-0.3-0.4c-0.1-0.1-0.1-0.3-0.1-0.4c0-0.2,0-0.3,0-0.5
						c0-0.1,0-0.2,0.1-0.3c0-0.1,0-0.1,0.1-0.2c0-0.1,0.1-0.1,0.1-0.2v-2.7h0.2v2.7c0,0.1,0,0.2,0,0.4c0,0.1,0.1,0.2,0.1,0.3
						c0.1,0.1,0.2,0.2,0.3,0.3c0.1,0,0.1,0.1,0.2,0.1c0,0,0.1,0,0.1,0c0-0.1-0.1-0.3-0.1-0.5c0-0.2,0-0.3,0.1-0.5v-2.9h0.2v2.6l0,0
						l0,0c0,0,0.1-0.1,0.1-0.1c0,0,0.1-0.1,0.1-0.1c0,0,0.1,0,0.1,0c0.1,0,0.1,0,0.2,0c0.1,0,0.1,0,0.2,0c0,0,0.1,0,0.1,0
						c0,0,0.1,0,0.1,0.1c0,0,0.1,0.1,0.1,0.1l0,0l0,0v-2.6h0.2v2.9c0.1,0.2,0.1,0.3,0.1,0.5c0,0.2,0,0.3-0.1,0.5c0,0,0.1,0,0.1,0
						c0.1,0,0.1-0.1,0.2-0.1c0.1-0.1,0.2-0.2,0.3-0.3c0.1-0.1,0.1-0.2,0.1-0.3c0-0.1,0-0.2,0-0.4v-2.7h0.2v2.7c0,0,0.1,0.1,0.1,0.2
						c0,0.1,0.1,0.1,0.1,0.2c0,0.1,0.1,0.2,0.1,0.3c0,0.2,0,0.3,0,0.5c0,0.1-0.1,0.3-0.1,0.4c-0.1,0.2-0.2,0.3-0.3,0.4
						c-0.1,0.1-0.2,0.2-0.2,0.3c-0.1,0.1-0.2,0.2-0.3,0.2c-0.1,0.1-0.2,0.1-0.3,0.1c-0.1,0.1-0.3,0.2-0.4,0.3
						C756.2,31.5,756.1,31.6,756,31.8"/>
					<path class="st17" d="M756,34.1c-0.2-0.4-0.5-0.7-0.9-0.9c0,0-0.1-0.1-0.5-0.3c-0.3-0.2-0.5-0.4-0.6-0.6
						c-0.9-1.4-0.4-2.7-0.3-2.6l0,0l0,0v-3.9h0.2V30c0,0-0.1,0.5,0.7,0.8c0.5,0.2,1.1,0.8,1.5,1.5c0.4-0.7,1.1-1.3,1.5-1.5
						c0.7-0.3,0.7-0.8,0.7-0.8v-4.2h0.2v3.9l0,0l0,0c0.1,0,0.6,1.2-0.3,2.6c-0.2,0.2-0.3,0.4-0.6,0.6c-0.4,0.2-0.5,0.3-0.5,0.3
						C756.5,33.4,756.2,33.7,756,34.1"/>
					<path class="st17" d="M756,36.4c-0.2-0.5-0.6-0.9-1.1-1.1c-3-1.1-1.9-3.4-1.8-3.6v-6h0.2v6c0,0.1,0,0.3,0.1,0.4
						c0.1,0.2,0.2,0.5,0.4,0.6c0.4,0.2,0.6,0.3,1,0.5c0.3,0.2,0.7,0.4,1.3,1.1c0.6-0.7,1-1,1.3-1.1c0.3-0.2,0.6-0.2,1-0.5
						c0.2-0.1,0.3-0.3,0.4-0.6c0-0.1,0.1-0.3,0.1-0.4v-6h0.2v6c0.1,0.1,1.2,2.4-1.8,3.6C756.6,35.5,756.2,35.9,756,36.4"/>
					<path class="st17" d="M751.7,45.3h-1.9v-1.7h1.9c0.8,0,1.5-0.7,1.5-1.5v-5.3h1.6l0,5.4C754.8,43.9,753.4,45.3,751.7,45.3
						C751.7,45.3,751.7,45.3,751.7,45.3"/>
					<path class="st17" d="M760.4,45.3h1.9v-1.7h-1.9c-0.8,0-1.5-0.7-1.5-1.5v-5.3h-1.6v5.4C757.2,43.9,758.6,45.3,760.4,45.3
						C760.4,45.3,760.4,45.3,760.4,45.3"/>
					<path class="st17" d="M751.6,47.4h-1.9v-1.7h1.9c2.2,0,3.5-1.7,3.5-3.6v-5.3h1.6v5.4C756.8,45,754.6,47.4,751.6,47.4"/>
				</g>
			</g>
			<g class="st18">
				<rect x="742.2" y="20.8" class="st19" width="0.3" height="38.9"/>
			</g>
			<path class="st20" d="M687.9,108.9l19.1,17.5c-0.3,0-0.5,0-0.7,0c-3.8,0-7.5,0-11.3,0c-0.4,0-0.6-0.1-0.9-0.4
				c-5-4.6-10.1-9.3-15.1-13.9c-2.5-2.3-5-4.6-7.5-6.9c-0.1-0.1-0.3-0.2-0.5-0.4c-0.1,1.5,0,2.9,0,4.3c0,1.4,0,2.9,0,4.3v12.8
				c-0.4,0.1-8.2,0.2-8.8,0V69.5c0.2,0,0.4,0,0.6,0c5.8,0,11.6,0,17.3,0c7.5,0.1,13.6,3.1,18.2,9.1c2.1,2.7,3.2,5.9,3.5,9.3
				c0.3,3.4-0.2,6.8-1.6,9.9c-1.3,2.8-3.2,5.1-5.5,7c-1.9,1.6-4.1,2.9-6.4,3.8C688.3,108.7,688.1,108.8,687.9,108.9z M671.1,102
				c0.2,0,0.4,0,0.5,0c2.8,0,5.5,0,8.3,0c0.6,0,1.3,0,1.9-0.1c3.8-0.5,6.9-2.3,9.2-5.4c2.9-3.8,3-9.2,0.2-13.1
				c-2.7-3.7-6.3-5.7-10.9-5.8c-2.9-0.1-5.8,0-8.7,0c-0.2,0-0.4,0-0.6,0V102z"/>
			<path class="st20" d="M806.4,126.4V69.5c0.1,0,0.2,0,0.4-0.1c4.8,0,9.7-0.1,14.5,0.1c10.5,0.4,18.8,5,24.9,13.5
				c2.6,3.6,4,7.8,4.4,12.2c0.4,4.2-0.1,8.4-1.6,12.3c-1.4,3.7-3.7,6.9-6.5,9.7c-3.4,3.3-7.3,5.8-11.8,7.4c-2.4,0.8-4.9,1.4-7.5,1.6
				c-1.3,0.1-2.7,0.2-4,0.2c-4,0-8,0-12,0L806.4,126.4z M815.3,118.3c0.2,0,0.4,0,0.6,0c1.3,0,2.6,0,3.9,0c1.6,0,3.1-0.1,4.7-0.4
				c4.2-0.8,7.9-2.7,11.1-5.7c4.3-4,6.5-9,6.3-14.9c-0.1-3.5-1-6.8-3-9.6c-4.5-6.5-10.7-9.8-18.6-10c-1.5,0-3,0-4.4,0
				c-0.2,0-0.3,0-0.6,0L815.3,118.3z"/>
			<path class="st21" d="M707.1,126.2v-0.7c0-3.1,0-6.1,0-9.1c0-0.5,0.2-0.7,0.6-1c5.1-2.6,10.1-5.1,15.2-7.7
				c6.2-3.2,12.4-6.3,18.6-9.5c0.2-0.1,0.3-0.2,0.6-0.3c-0.3-0.2-0.5-0.3-0.6-0.4c-3.6-1.8-7.1-3.6-10.7-5.4
				c-3.8-1.9-7.6-3.9-11.4-5.8c-3.9-2-7.8-4-11.7-6c-0.3-0.2-0.5-0.4-0.5-0.7c0-3.2,0-6.4,0-9.5c0-0.1,0-0.2,0-0.3c0,0,0,0,0.1,0
				c0,0,0,0,0.1,0c18.9,9.4,37.8,18.7,56.8,28.1c0.1,0,0.1,0.1,0.2,0.1L707.1,126.2z"/>
			<path class="st20" d="M750.4,69.5h0.7c5.7,0,11.5,0,17.2,0c7,0,12.8,2.7,17.3,7.9c2.7,3.1,4.2,6.8,4.5,10.9
				c0.3,4.3-0.6,8.3-3.1,11.9c-3.2,4.7-7.5,7.8-13,9.2c-1.9,0.5-3.8,0.7-5.7,0.7c-2.8,0-5.6,0-8.4,0h-0.7c0,0.3,0,0.5,0,0.8
				c0,4.9,0,9.8,0,14.7v0.7c-0.4,0.1-8.1,0.2-8.8,0c0-0.2,0-0.3,0-0.5c0-5.5,0-11.1,0-16.6c0-0.4,0.1-0.6,0.5-0.7
				c4.2-2.1,8.4-4.2,12.6-6.2c0.3-0.1,0.5-0.2,0.8-0.2c1.4,0,2.8,0,4.2,0c4.3-0.1,7.8-1.8,10.5-5.2c3.5-4.3,3.2-10.5-0.5-14.7
				c-2.2-2.5-5-4-8.3-4.4c-0.6-0.1-1.1-0.1-1.7-0.1c-2.9,0-5.8,0-8.7,0c-0.2,0-0.3,0-0.6,0c0,2.3,0,4.7,0,7c0,2.3,0,4.6,0,6.9
				c-0.4-0.1-7.9-3.7-8.8-4.3L750.4,69.5z"/>
			<path class="st20" d="M793.2,69.5h8.7c0.1,0.4,0.1,56.1,0,56.8c-0.4,0.1-7.8,0.2-8.7,0.1c0,0,0,0,0,0c0,0,0,0,0,0
				c0-0.1,0-0.2,0-0.4c0-18.7,0-37.4,0-56.1C793.1,69.7,793.1,69.6,793.2,69.5z"/>
			<path class="st22" d="M784.3,153.5h-2.1c-1.9-5.7-3.7-11.5-5.5-17.2l-0.1,0c-1.9,5.7-3.7,11.5-5.6,17.2h-2.1l-6.7-19.9h2.2
				l5.6,17.6c0.6-1.4,1-2.9,1.5-4.4s0.9-2.9,1.4-4.4c0.5-1.5,0.9-3,1.4-4.4c0.5-1.5,0.9-2.9,1.4-4.4h2c1.9,5.9,3.7,11.7,5.6,17.7
				c0.5-1.3,0.8-2.4,1.1-3.6c0.4-1.2,0.8-2.4,1.1-3.6c0.4-1.2,0.7-2.3,1.1-3.5c0.4-1.2,0.7-2.4,1.1-3.6c0.4-1.2,0.7-2.3,1.1-3.5h2.1
				L784.3,153.5z"/>
			<path class="st22" d="M749.1,143.4c0,1.9-0.4,3.4-1.3,4.9c-1.7,2.9-4.2,4.7-7.5,5.2c-3.8,0.6-7.1-0.5-9.6-3.5
				c-5.2-6.1-1.9-14.6,5.3-16.4c3.7-0.9,7.1-0.1,9.9,2.6C747.9,138.1,749.1,140.7,749.1,143.4z M747,143.6c0.1-4.6-3.8-8.4-8.4-8.4
				c-4.6,0-8.4,3.7-8.5,8.2c0,4.3,3.5,8.5,8.4,8.5C743.6,152,747.1,147.6,747,143.6L747,143.6z"/>
			<path class="st22" d="M708.3,146.6l4.7,6.9c-0.8,0-1.5,0-2.1,0c-0.1,0-0.3-0.2-0.4-0.3c-0.7-1-1.4-2.1-2.1-3.2
				c-0.6-0.9-1.2-1.8-1.8-2.7c-0.1-0.2-0.3-0.3-0.5-0.3c-2.1,0-4.1,0-6.2,0c-0.1,0-0.2,0-0.4,0c0,0.7,0,1.4,0,2.1c0,0.7,0,1.4,0,2.2
				v2.1h-1.9v-19.8c0.1,0,0.1,0,0.2,0c2.7,0,5.4,0,8.1,0c1.3,0,2.6,0.3,3.8,1c1.7,0.9,2.7,2.4,3,4.3c0.2,1.2,0.1,2.4-0.2,3.6
				c-0.4,1.3-1.1,2.4-2.2,3.1c-0.5,0.3-1.1,0.5-1.6,0.8C708.6,146.5,708.5,146.5,708.3,146.6z M699.6,145.3c0.1,0,0.2,0,0.3,0
				c1.9,0,3.8,0,5.7,0c0.9,0,1.8-0.2,2.6-0.5c1.4-0.6,2.3-1.6,2.6-3c0.1-0.6,0.2-1.2,0.2-1.8c0-1.9-1.1-3.4-2.9-4.1
				c-1-0.4-2-0.5-3-0.5c-1.7,0-3.3,0-5,0c-0.2,0-0.3,0-0.5,0L699.6,145.3z"/>
			<path class="st22" d="M848.4,142.6v-9h1.9c0.1,0.4,0.2,19.1,0,19.9h-1.9v-8.9c-0.1-0.1-0.1-0.1-0.1-0.1c0,0,0,0,0,0
				c-0.1,0-0.2,0-0.3,0c-4,0-7.9,0-11.9,0c-0.1,0-0.1,0-0.2,0.1v8.9h-1.9c0,0,0,0,0,0c0,0,0,0,0,0c0-0.1,0-0.1,0-0.2
				c0-6.4,0-12.9,0-19.3c0-0.1,0-0.2,0-0.2h1.9v9C836.3,142.7,847.5,142.8,848.4,142.6z"/>
			<path class="st22" d="M678.1,143.8h1.7c0,0.2,0,0.3,0,0.4c0,2.1,0,4.3,0,6.4c0,0.3-0.1,0.5-0.4,0.7c-1.6,1.2-3.4,1.9-5.3,2.2
				c-3.3,0.5-6.3-0.4-8.7-2.7c-5-4.7-4.2-12.6,1.7-16.1c3.9-2.3,9-1.9,12.5,1c0.1,0.1,0.2,0.1,0.3,0.2l-1.1,1.4
				c-0.2-0.1-0.3-0.2-0.4-0.3c-3.1-2.5-7.7-2.8-11-0.2c-3.6,2.9-4.2,8-1.4,11.7c2.4,3.1,6.7,4.1,10.4,2.4c0.5-0.2,0.9-0.5,1.3-0.7
				c0.3-0.1,0.4-0.3,0.4-0.7c0-1.8,0-3.5,0-5.3V143.8z"/>
			<path class="st22" d="M812,135.3v18.1h-2c0-1.2,0-2.4,0-3.6s0-2.4,0-3.6v-10.9c-2.2,0-4.4,0-6.5,0v-1.7c0.4-0.1,14.5-0.1,15.1,0
				v1.7L812,135.3z"/>
			<g>
				<rect x="662.3" y="160.3" class="st20" width="188.2" height="17.5"/>
			</g>
		</g>
	</g>
	<g>
		<path class="st4" d="M682.7,172.9v4.3h-1v-9.4h2c0.8,0,1.2,0,1.4,0.1c0.3,0.1,0.7,0.3,0.9,0.4c0.3,0.3,0.5,0.5,0.8,0.9
			c0.3,0.4,0.3,0.9,0.3,1.2c0,0.5-0.1,0.9-0.3,1.2c-0.3,0.4-0.4,0.8-0.8,0.9c-0.3,0.3-0.5,0.3-0.9,0.4c-0.3,0.1-0.9,0.1-1.4,0.1
			h-0.3L682.7,172.9L682.7,172.9z M682.7,171.9h0.7c0.9,0,1.6-0.1,2-0.3c0.3-0.3,0.5-0.7,0.5-1.2c0-0.7-0.3-0.9-0.5-1.3
			c-0.3-0.3-0.9-0.4-2-0.4h-0.7V171.9z"/>
		<path class="st4" d="M704.7,177.1v-9.4h2.2c0.7,0,1,0,1.4,0.1c0.3,0.1,0.7,0.3,0.9,0.4c0.3,0.3,0.5,0.5,0.7,0.9
			c0.3,0.4,0.3,0.9,0.3,1.2c0,0.9-0.3,1.4-0.7,1.8s-1,0.7-2,0.7h-0.3l3.6,4.6h-1.4l-3.4-4.6h-0.3v4.6L704.7,177.1L704.7,177.1z
			 M705.8,168.6v3.1h0.9c0.9,0,1.4-0.1,1.8-0.3c0.3-0.3,0.4-0.7,0.4-1.2c0-0.7-0.3-0.9-0.5-1.3c-0.3-0.3-0.9-0.4-1.7-0.4H705.8z"/>
		<path class="st4" d="M737.9,172.4c0,0.8-0.1,1.3-0.4,2c-0.3,0.7-0.7,1-1,1.6c-0.5,0.5-0.9,0.9-1.6,1c-0.7,0.3-1.3,0.4-2,0.4
			c-0.7,0-1.3-0.1-2-0.4c-0.7-0.3-1.2-0.7-1.6-1c-0.5-0.5-0.9-0.9-1-1.6c-0.3-0.7-0.4-1.2-0.4-2c0-0.8,0.1-1.3,0.4-2s0.7-1,1-1.6
			c0.4-0.5,0.9-0.9,1.6-1c0.7-0.3,1.3-0.4,2-0.4c0.8,0,1.3,0.1,2,0.4c0.7,0.3,1.2,0.7,1.6,1c0.5,0.5,0.9,0.9,1,1.6
			C737.8,171.1,737.9,171.8,737.9,172.4z M732.9,176.3c0.5,0,0.9-0.1,1.4-0.3c0.5-0.3,0.9-0.5,1.3-0.9c0.4-0.4,0.8-0.9,0.9-1.3
			c0.3-0.5,0.3-0.9,0.3-1.4s-0.1-0.9-0.3-1.4c-0.3-0.5-0.5-0.9-0.9-1.3s-0.9-0.8-1.3-0.9c-0.5-0.3-0.9-0.3-1.4-0.3
			c-0.5,0-0.9,0.1-1.4,0.3c-0.5,0.3-0.9,0.5-1.2,0.9s-0.8,0.9-0.9,1.3c-0.3,0.5-0.3,0.9-0.3,1.4s0.1,0.9,0.3,1.4
			c0.3,0.5,0.5,0.9,0.9,1.3c0.4,0.4,0.9,0.8,1.3,0.9C731.8,176.2,732.3,176.3,732.9,176.3z"/>
		<path class="st4" d="M758,167.6h1v7.3c0,0.9-0.3,1.4-0.5,1.8c-0.4,0.4-0.9,0.7-1.6,0.7c-0.4,0-0.8-0.1-0.9-0.3
			c-0.3-0.3-0.7-0.4-0.9-0.8l0.8-0.8c0.3,0.3,0.4,0.4,0.7,0.5c0.3,0.1,0.4,0.3,0.7,0.3s0.7-0.1,0.8-0.4s0.3-0.9,0.3-1.4L758,167.6
			L758,167.6z"/>
		<path class="st4" d="M777.9,177.1v-9.4h4.9v0.9h-3.8v2.7h3.8v0.9h-3.8v3.6h3.8v0.9L777.9,177.1L777.9,177.1z"/>
		<path class="st4" d="M808.7,169.9c-0.5-0.5-0.9-0.9-1.4-1c-0.5-0.3-1-0.4-1.7-0.4c-0.5,0-0.9,0.1-1.4,0.3
			c-0.5,0.1-0.9,0.5-1.2,0.9c-0.3,0.4-0.7,0.9-0.9,1.3c-0.3,0.5-0.3,0.9-0.3,1.4c0,0.4,0.1,0.9,0.3,1.2c0.1,0.4,0.3,0.8,0.5,0.9
			c0.4,0.5,0.9,0.9,1.4,1.2c0.7,0.3,1,0.4,1.8,0.4c0.7,0,1.2-0.1,1.7-0.4s0.9-0.7,1.4-1v1.4c-0.5,0.3-0.9,0.7-1.4,0.9
			c-0.5,0.3-1,0.3-1.7,0.3c-0.5,0-0.9-0.1-1.4-0.3c-0.5-0.1-0.9-0.4-1.3-0.7c-0.8-0.5-1.2-1-1.6-1.8c-0.4-0.8-0.5-1.4-0.5-2.3
			c0-0.8,0.1-1.4,0.4-2c0.3-0.7,0.7-1,1-1.6c0.5-0.5,0.9-0.9,1.6-0.9c0.7-0.3,1.2-0.3,2-0.3c0.5,0,1,0.1,1.6,0.3
			c0.5,0.3,0.9,0.4,1.4,0.9L808.7,169.9L808.7,169.9z"/>
		<path class="st4" d="M828.8,177.1v-8.3h-2.7v-1h6.5v1h-2.7v8.3H828.8z"/>
	</g>
</g>
</svg>
