<?xml version="1.0" encoding="utf-8"?>
<!-- Generator: Adobe Illustrator 23.0.5, SVG Export Plug-In . SVG Version: 6.00 Build 0)  -->
<svg version="1.1" xmlns="http://www.w3.org/2000/svg" xmlns:xlink="http://www.w3.org/1999/xlink" x="0px" y="0px"
	 viewBox="0 0 555 519" style="enable-background:new 0 0 555 519;" xml:space="preserve">
<style type="text/css">
	.st0{display:none;}
	.st1{display:inline;}
	.st2{fill:#FFFFFF;}
	.st3{fill:none;stroke:#FFFFFF;}
	.st4{display:inline;fill:#FFFFFF;}
	.st5{display:inline;fill:#17479E;}
	.st6{font-family:'HelveticaNeue-Roman';}
	.st7{font-size:44.5142px;}
	.st8{fill:#DDDEDE;}
</style>
<g id="Layer_2" class="st0">
	<rect class="st1" width="555" height="519"/>
</g>
<g id="Layer_1">
	<g class="st0">
		<g class="st1">
			<polygon class="st2" points="497.5,404.2 49.1,443.1 49.1,401.4 497.5,401.4 497.5,404.2 			"/>
			<polygon class="st3" points="49.1,443.1 497.5,404.2 497.5,446 49.1,446 49.1,443.1 			"/>
		</g>
		<path class="st4" d="M422.3,175.2h-53.9v-69.7l-74.7,0l-0.2,69.8h-49.9v-69.8h-75v86.5c-11.8-12.4-27.7-20.7-46.3-20.7
			C64,171.2,45,225.8,45,278c0,50.2,19.3,104.9,75,104.9c24.2,0,40.5-8.8,51.5-31.1h0.8v27.1h71.2V227h50.6v65.5
			c0,21.9-3.4,49.7,11.4,66.4c14.8,16.7,29.4,20,54.2,20.7l47.4-0.7v-58c0,0-14.4-0.4-21.6-0.4c-17.8,0-16.3-14.4-16.3-29.2V227
			h53.1v151.9h75.1V175.2H422.3L422.3,175.2z M164,319.5c-4.2,6.8-9.1,10.4-16.7,10.4c-23.5,0-24.6-31.9-24.6-49.9
			c0-11.1,1.5-26.7,3.8-37.9c2.3-12.3,7.9-21.5,21.2-21.5c6.1,0,12.9,2.8,16.3,8c4.9,6.4,4.5,15.9,4.5,23.9v41
			C168.6,303.6,169.3,310.8,164,319.5L164,319.5z"/>
		<polygon class="st5" points="503.3,93.1 502.8,92.7 503,93.1 		"/>
		<path class="st4" d="M461.5,22.3c-35.4,0-64,30.1-64,67.3c0,37.2,28.6,67.3,64,67.3c35.3,0,63.9-30.1,63.9-67.3
			C525.4,52.5,496.7,22.3,461.5,22.3z M504.8,78.7l3.7,3l-0.4,2.5l2.3,3.6l1.4,7.2l-3.6,0.2l-1.5-2.9l-1.1-0.7l0.1,0.2l-0.1,2.7
			l3.2,3.2l1.8,4.9l-3.5,0.8l-0.1,2.8l-3.7-1.1l-1.8-4l1.4-1.3l-1.1-2.6l-1.5,1.5l-3.3-0.5l-1.8-8.8l2.1-2.4l-2.5-1.4l-0.9-5.5
			L504.8,78.7z M493.9,97.1l1.4,7.3l-3.3,5.7l0.3,5.2l-2.9,2.3l-1.3-5.1l3.2-15.5L493.9,97.1z M439.6,41.5l3.6,2.3l0.7-13.1l3.2-3.9
			l15.1,0.1l2-2.1l2.1,1.6l-2.3,2.4l2.9,4.4l0.2,5.5l-9.9,6.5l5,14l3.8,0.6L466,58l6-0.5l5.3,4.5l2.5-2.3l6.2,3l0.3,1.8l-2.3,0.3
			l5.6,6.2l-2.5,5.6l3.5,4.2l-4.6,3.2l-3-3.7l-2.2,3l-2.3-0.5l1.1-3.1l-1.3-1.1l1.1-5.4l-5.6-4.7l-0.5,2.2l-11.9-7.4l-8.3,2.1
			l-1.5-2.5l-3.4,0.8l-11.2-18.2L439.6,41.5z M484.4,115.2l-1.2,3l-12.2-4.6l0.1-4.7l3.7-2.5l1-5.8l6.7-5l4.8,3.4l-5.3,6.6l-0.5,8.7
			L484.4,115.2z M435.8,105.5l-3.6,0.9l0.2,2.5l-10.5,7.7l-3.4-3.7l19.6-16.8l-1.1-2.7l2.1-6.7h2.8l1.6,7.2l1.8,2.1L435.8,105.5z
			 M450.3,82.8l-0.7-4.5l-3-3l0.1-3.7l13,0.2l2.2,4.9L457.6,87L450.3,82.8z M459,102.1l0.6-13.5l2.4-1.9l5.5,2.6l9.5-1.2l1.6,2.9
			l-9.8,7.7l-3.3-0.1l-3.3,4.3L459,102.1z M491.9,143l-0.9-5.2l3-3.5l-2.4-2.6l-5.6,0.3l-5.7,3.2l-2.6-0.8l-1.3-1.4l-5.8,8.5
			l-5.8-0.2l2.8-4.5l-2.1-1.4l1.8-2.3l11-4.2l0.8-5.4l9.4-0.4l4.8,3.7l3.1-4l4.2-0.1l-0.1-7.4l3.1,0.1l2,2.7l4.1-3l-1.2-4.4l3.3-6.4
			l2.7,2.4l-1.9,2.5l3.8,4.5l-7.9,14.1L491.9,143z"/>
		<g class="st1">
			<path class="st2" d="M55,483.7v-8.9h3.3c1.1,0,2.4,0,3.3,0.9c0.8,0.8,1.2,2.2,1.2,3.5c0,1.1-0.3,2.1-0.9,3
				c-1,1.5-2.2,1.5-3.6,1.5H55L55,483.7z M55,489.8h3.8c2.7,0,5,0,7.2-2.4c1.9-2.1,2.7-5.3,2.7-8.4c0-3.5-1.2-6.4-3.3-8.3
				c-2.1-1.9-4.4-1.9-6.8-1.9h-9.5v33.4H55V489.8L55,489.8z"/>
			<polygon class="st2" points="115.5,502.2 109.5,502.2 109.5,488.4 101.7,488.4 101.7,502.2 95.8,502.2 95.8,468.7 101.7,468.7 
				101.7,481.8 109.5,481.8 109.5,468.7 115.5,468.7 115.5,502.2 			"/>
			<polygon class="st2" points="150.2,502.2 144.3,502.2 144.3,468.7 150.2,468.7 150.2,502.2 			"/>
			<polygon class="st2" points="195.1,495.6 195.1,502.2 179,502.2 179,468.7 184.9,468.7 184.9,495.6 195.1,495.6 			"/>
			<polygon class="st2" points="227.6,502.2 221.6,502.2 221.6,468.7 227.6,468.7 227.6,502.2 			"/>
			<path class="st2" d="M262.4,483.7v-8.9h3.3c1.1,0,2.3,0,3.2,0.9c0.8,0.8,1.2,2.2,1.2,3.5c0,1.1-0.2,2.1-0.8,3
				c-1,1.5-2.2,1.5-3.6,1.5H262.4L262.4,483.7z M262.4,489.8h3.8c2.7,0,5,0,7.2-2.4c1.9-2.1,2.7-5.3,2.7-8.4c0-3.5-1.2-6.4-3.3-8.3
				c-2.2-1.9-4.4-1.9-6.9-1.9h-9.5v33.4h5.9V489.8L262.4,489.8z"/>
			<path class="st2" d="M309.3,483.7v-8.9h3.3c1.1,0,2.3,0,3.2,0.9c0.8,0.8,1.2,2.2,1.2,3.5c0,1.1-0.3,2.1-0.8,3
				c-1,1.5-2.2,1.5-3.6,1.5H309.3L309.3,483.7z M309.3,489.8h3.8c2.7,0,5,0,7.2-2.4c1.9-2.1,2.7-5.3,2.7-8.4c0-3.5-1.2-6.4-3.3-8.3
				c-2.1-1.9-4.4-1.9-6.8-1.9h-9.6v33.4h5.9V489.8L309.3,489.8z"/>
			<polygon class="st2" points="356.1,502.2 350.3,502.2 350.3,468.7 356.1,468.7 356.1,502.2 			"/>
			<polygon class="st2" points="404.7,502.2 399.6,502.2 389.8,479.7 389.7,479.7 389.7,502.2 385.2,502.2 385.2,468.7 391.5,468.7 
				400,488.4 400.1,488.4 400.1,468.7 404.7,468.7 404.7,502.2 			"/>
			<polygon class="st2" points="439.3,475.2 439.3,482 449,482 449,488.3 439.3,488.3 439.3,495.7 451.6,495.7 451.6,502.2 
				433.4,502.2 433.4,468.7 451.6,468.7 451.6,475.2 439.3,475.2 			"/>
			<path class="st2" d="M491.6,478.3c-0.7-2.8-2.1-4-4.4-4c-1.6,0-3.5,0.5-3.5,3.1c0,2.4,2.2,3,3.7,3.4c2.1,0.5,4.9,1.2,6.7,2.8
				c2.1,1.8,3.3,4.6,3.3,7.9c0,3.3-1.2,6.4-3.1,8.4c-2.1,2.1-4.9,2.7-7.4,2.7c-4.8,0-9.1-2.7-10.3-9.3l5.5-1.6
				c0.8,3.5,2.6,4.7,5.3,4.7c1.7,0,4-0.9,4-3.6c0-2.8-2.9-3.3-4.5-3.7c-4.5-1.2-9-3-9-10.3c0-3.1,0.9-5.9,2.7-7.9
				c1.8-2.1,4-2.7,6.4-2.7c4.4,0,8.1,2,9.6,7.9L491.6,478.3L491.6,478.3z"/>
		</g>
	</g>
	<g id="Layer_3">
		<g>
			<g>
				<path class="st2" d="M154.6,279h21.5v-84h-21.5V279z M191.3,279h20.6v-32h24.4v-18.9h-24.4v-14.3h25.3V195h-45.9V279z
					 M291.9,266.9l4.1,12.2h23.3l-33.4-84h-16.9l-33.7,84h23.1l4.4-12.2H291.9z M277.2,221.1h0.2h0.1l8.6,28.7h-17.6L277.2,221.1z
					 M326.7,279h29.4c31.9,0,43.3-19.3,43.3-42.2c0-9.2-1.9-18.2-7.7-26.1C380.8,195,364,195,354.5,195h-27.8V279z M348.2,213.8h9.3
					c9.5,0,13.9,4,16.4,7.7c3.1,4.8,4.1,10.8,4.1,15.6c0,11.9-4.5,23-20.6,23h-9.2V213.8z"/>
			</g>
		</g>
		<text transform="matrix(1 0 0 1 7.6689 364.8781)"><tspan x="0" y="0" class="st2 st6 st7">Enabling poor rural people</tspan><tspan x="0" y="49" class="st2 st6 st7">to overcome poverty</tspan></text>
		<g>
			<path class="st8" d="M100,146.4L100,146.4L100,146.4z"/>
			<path class="st8" d="M46.4,146.4L46.4,146.4L46.4,146.4z"/>
			<path class="st8" d="M73.2,146.6c-1.1-1.5-1.6-2.5-2.9-3.8c-1.2-1.3-2-1.9-3.5-2.8c-1-0.6-1.7-0.8-2.7-1.4
				c-1.3-0.7-2-1.2-3.1-2.2c-1.1-1-1.6-1.7-2.4-2.8c-1.2-1.6-1.8-2.5-2.5-4.3c-0.6-1.6-0.9-2.5-1.1-4.2c-0.2-1.8-0.2-2.8,0.1-4.5
				c0.2-1.3,0.4-2,0.8-3.3c0.2-0.8,0.4-1.2,0.8-1.9c0.4-0.6,0.6-1,1.1-1.5V87.5h1.6v26.7l0,0c0.1,1.5,0,2.3,0.3,3.8
				c0.3,1.3,0.6,2.1,1.3,3.3c0.8,1.3,1.5,1.9,2.8,2.7c0.7,0.4,1.1,0.8,1.9,0.9c0.4,0.1,1,0,1,0c-0.4-1.2-0.6-2.8-0.6-4.5
				c0-1.8,0.2-3.5,0.7-4.7V87.5h0h1.6v25.6l0,0l0.1-0.1l0,0c0.4-0.5,0.6-0.8,1.1-1.2c0.4-0.4,0.7-0.6,1.2-0.8
				c0.5-0.2,0.7-0.4,1.2-0.5c0.6-0.1,1.5-0.2,1.5-0.2s0.9,0,1.5,0.2c0.5,0.1,0.8,0.2,1.2,0.5c0.5,0.2,0.7,0.4,1.2,0.8
				c0.5,0.4,0.7,0.8,1.1,1.2l0,0l0.1,0.1l0,0V87.5h1.6h0v28.3c0.5,1.3,0.7,2.9,0.7,4.7c0,1.7-0.2,3.2-0.6,4.5c0,0,0.6,0,1,0
				c0.8-0.2,1.2-0.5,1.9-0.9c1.3-0.8,1.9-1.5,2.7-2.7c0.7-1.2,1-1.9,1.3-3.3c0.3-1.4,0.2-2.3,0.3-3.8l0,0V87.5h1.6v26.2
				c0.5,0.5,0.8,0.9,1.1,1.5c0.4,0.7,0.5,1.2,0.8,1.9c0.4,1.3,0.6,2,0.8,3.3c0.2,1.7,0.3,2.7,0.1,4.5c-0.2,1.7-0.4,2.6-1.1,4.2
				c-0.7,1.8-1.4,2.8-2.5,4.3c-0.9,1.2-1.4,1.8-2.4,2.8c-1.1,1-1.8,1.4-3.1,2.2c-1,0.6-1.7,0.8-2.7,1.4c-1.5,0.9-2.3,1.6-3.5,2.8
				C74.8,144.1,74.4,145.1,73.2,146.6z"/>
			<path class="st8" d="M73.2,169.2c-2.2-3.7-5.2-6.8-8.7-9.2c0,0-1.4-0.9-4.8-2.9c-2.8-1.6-4.6-3.5-6.2-5.5
				c-9.2-13.7-4.2-26-3.3-25.8l0.1-0.1l-0.1,0.1V87.5l0,0h1.6v41.3l0,0c0,0-0.8,4.8,6.4,8c4.6,2.1,10.8,7.6,15,14.8
				c4.1-7.2,10.3-12.8,15-14.8c7.2-3.2,6.4-8,6.4-8l0,0V87.5h1.6l0,0v38.3l-0.1-0.1l0.1,0.1c0.9-0.2,6,12.1-3.2,25.8
				c-1.6,1.9-3.4,3.9-6.2,5.5c-3.4,1.9-4.8,2.9-4.8,2.9C78.4,162.3,75.4,165.4,73.2,169.2z"/>
			<path class="st8" d="M73.2,192c0,0-2.2-7.4-10.8-10.6c-29.1-10.8-18.6-33.7-17.5-34.8v-59h1.6v58.9l0,0c0,0.7,0.2,2.4,0.9,4.2
				c0.8,2.3,2.3,4.7,3.8,5.7c3.6,2.2,6,2.6,9.4,4.4c3,1.6,6.8,4.1,12.6,10.9c5.9-6.8,9.6-9.3,12.6-10.9c3.4-1.8,5.8-2.2,9.4-4.4
				c1.5-0.9,3-3.4,3.8-5.7c0.7-1.8,0.8-3.5,0.9-4.2l0,0V87.5h1.6v59c1,1.1,11.6,24-17.5,34.8C75.5,184.5,73.2,192,73.2,192z"/>
			<path class="st8" d="M30.6,279H11.7v-16.6h18.8c8.3,0,15-6.7,15-15V195h16.1l0,52.9C61.7,265.1,47.8,279,30.6,279z"/>
			<path class="st8" d="M115.9,279h18.9v-16.6H116c-8.3,0-15-6.7-15-15V195H84.9l0,52.9C84.8,265.1,98.7,279,115.9,279z"/>
			<path class="st8" d="M30.4,299.2H11.7v-16.7h18.8c21.4,0,34.6-16.7,34.6-35.2V195h16.1l0,52.9C81.3,275.8,59.3,299.2,30.4,299.2z
				"/>
		</g>
	</g>
</g>
</svg>
