<?xml version="1.0" encoding="UTF-8" standalone="no"?>
<!-- Created with Inkscape (http://www.inkscape.org/) -->
<svg xmlns:rdf="http://www.w3.org/1999/02/22-rdf-syntax-ns#" xmlns="http://www.w3.org/2000/svg" version="1.1" xmlns:cc="http://creativecommons.org/ns#" xmlns:dc="http://purl.org/dc/elements/1.1/" viewBox="0 0 350 150">
 <metadata>
  <rdf:RDF>
   <cc:Work rdf:about="">
    <dc:format>image/svg+xml</dc:format>
    <dc:type rdf:resource="http://purl.org/dc/dcmitype/StillImage"/>
    <dc:title/>
   </cc:Work>
  </rdf:RDF>
 </metadata>
 <g transform="translate(0 -902.36)">
  <g transform="translate(-16.252 29.372)">
   <g>
    <path d="m41.809 1017h2.7109v-20.384h-2.7109v20.384z"/>
    <path d="m48.577 1002.2h2.2821v2.3429h0.06077c1.0229-1.8298 2.6805-2.6872 4.7939-2.6872 3.8823 0 5.0808 2.2281 5.0808 5.3947v9.7059h-2.4273v-9.9895c0-1.7993-1.1411-2.9674-2.9978-2.9674-2.9371 0-4.3651 1.9682-4.3651 4.625v8.3319h-2.4273v-14.756z"/>
    <path d="m70.992 1017h-2.5961l-5.4825-14.756h2.7143l4.1355 12.302h0.05739l4.0241-12.302h2.5421l-5.3948 14.756z"/>
    <path d="m88.754 1008.2c-0.11478-2.3125-1.8568-4.1693-4.2537-4.1693-2.5421 0-4.0545 1.9108-4.2267 4.1693h8.4804zm2.3395 4.1119c-0.65831 3.2511-2.9978 5.0201-6.3063 5.0201-4.7095 0-6.9376-3.2511-7.0827-7.7647 0-4.4225 2.9134-7.677 6.9376-7.677 5.2226 0 6.8228 4.8817 6.6776 8.4501h-11.046c-0.0844 2.5657 1.3706 4.8478 4.5947 4.8478 2.0019 0 3.3962-0.9655 3.8283-2.8763h2.3969z"/>
    <path d="m95.212 1012.3c0.08777 2.1707 1.9682 2.8527 3.9701 2.8527 1.5124 0 3.5616-0.341 3.5616-2.1944 0-1.8838-2.3969-2.1977-4.8209-2.7413-2.3969-0.5435-4.8242-1.3402-4.8242-4.1659 0-2.9675 2.9405-4.1963 5.5096-4.1963 3.2544 0 5.8505 1.0263 6.0497 4.6251h-2.4239c-0.17218-1.8838-1.8264-2.4847-3.4266-2.4847-1.455 0-3.1396 0.4017-3.1396 1.8837 0 1.742 2.5691 2.0256 4.8242 2.5691 2.4273 0.5402 4.8242 1.3437 4.8242 4.1963 0 3.5077-3.2848 4.6521-6.2793 4.6521-3.3118 0-6.1071-1.3402-6.2523-4.9964h2.4273z"/>
    <path d="m111.26 1002.2h2.9404v2.1404h-2.9404v9.1623c0 1.1141 0.31396 1.3132 1.8264 1.3132h1.1141v2.1404h-1.8568c-2.5083 0-3.511-0.5132-3.511-3.224v-9.3919h-2.5117v-2.1404h2.5117v-4.4259h2.4273v4.4259z"/>
    <path d="m116.92 1002.2h2.4273v14.756h-2.4273v-14.756zm2.4273-2.6569h-2.4273v-2.9708h2.4273v2.9708z"/>
    <path d="m123 1002.2h2.2821v2.3429h0.0608c1.0229-1.8298 2.6805-2.6872 4.7905-2.6872 3.8823 0 5.0808 2.2281 5.0808 5.3947v9.7059h-2.4239v-9.9895c0-1.7993-1.1411-2.9674-2.9978-2.9674-2.9405 0-4.3651 1.9682-4.3651 4.625v8.3319h-2.4273v-14.756z"/>
    <path d="m149.1 1009.3c0-2.5961-1.1411-5.28-4.1963-5.28-3.1126 0-4.3685 2.5387-4.3685 5.3644 0 2.6535 0.97227 5.6243 4.1659 5.6243 3.2004 0 4.3989-2.9438 4.3989-5.7087m2.3969 6.4211c0 4.7938-2.1978 7.2515-6.8498 7.2515-2.7683 0-5.9687-1.1141-6.1105-4.3381h2.4273c0.11141 1.769 2.2281 2.3969 3.825 2.3969 3.17 0 4.4259-2.2855 4.4259-5.5973v-0.9689h-0.0608c-0.79673 1.7994-2.7379 2.6805-4.5947 2.6805-4.3955 0-6.5932-3.4502-6.5932-7.4777 0-3.4806 1.7116-7.7917 6.8228-7.7917 1.8568 0 3.511 0.8305 4.3955 2.4577h-0.0304 0.0608v-2.1134h2.2822v13.5z"/>
    <path d="m163.01 1002.2h2.4239v14.756h-2.4239v-14.756zm2.4273-2.6569h-2.4239v-2.9708h2.4239v2.9708z"/>
    <path d="m169.09 1002.2h2.2821v2.3429h0.0608c1.0229-1.8298 2.6805-2.6872 4.7938-2.6872 3.8824 0 5.0808 2.2281 5.0808 5.3947v9.7059h-2.4273v-9.9895c0-1.7993-1.1411-2.9674-2.9978-2.9674-2.9371 0-4.3651 1.9682-4.3651 4.625v8.3319h-2.4273v-14.756z"/>
    <path d="m192.6 1002.2h2.2821v3.1126h0.0608c1.1681-2.3699 2.7919-3.538 5.4218-3.4569v2.5691c-3.9127 0-5.3374 2.2281-5.3374 5.9686v6.5629h-2.4273v-14.756z"/>
    <path d="m214.29 1017h-2.2821v-2.3429h-0.0608c-1.0263 1.8298-2.6805 2.6872-4.7905 2.6872-3.8857 0-5.0808-2.2281-5.0808-5.3947v-9.7059h2.4239v9.9895c0 1.7993 1.1411 2.964 2.9945 2.964 2.9404 0 4.3685-1.9648 4.3685-4.6216v-8.3319h2.4273v14.756z"/>
    <path d="m217.76 1002.2h2.2821v3.1126h0.0574c1.1681-2.3699 2.7953-3.538 5.4218-3.4569v2.5691c-3.9094 0-5.3374 2.2281-5.3374 5.9686v6.5629h-2.4239v-14.756z"/>
    <path d="m236.37 1009.4c-0.94189 0.6853-2.7683 0.7157-4.3955 0.9993-1.5968 0.2869-2.9675 0.8575-2.9675 2.6569 0 1.5968 1.3706 2.1639 2.856 2.1639 3.1936 0 4.5069-1.9951 4.5069-3.3354v-2.4847zm3.9397 7.5655c-0.42875 0.2566-0.97228 0.3984-1.742 0.3984-1.2559 0-2.056-0.6853-2.056-2.2822-1.3402 1.5698-3.1363 2.2822-5.1922 2.2822-2.6839 0-4.8816-1.1985-4.8816-4.1389 0-3.3389 2.4847-4.0512 4.993-4.5373 2.6839-0.5132 4.9694-0.341 4.9694-2.1708 0-2.1099-1.7454-2.4543-3.2848-2.4543-2.056 0-3.565 0.6279-3.6798 2.7987h-2.4273c0.14517-3.6528 2.9675-4.939 6.2489-4.939 2.6569 0 5.5399 0.5975 5.5399 4.0511v7.5959c0 1.1411 0 1.6508 0.76972 1.6508 0.19918 0 0.42874-0.024 0.74271-0.1384v1.8838z"/>
    <path d="m242.6 996.62h2.4239v20.381h-2.4239v-20.381z"/>
    <path d="m263.44 1004c-3.2544 0-4.5103 2.7987-4.5103 5.5669 0 2.9101 1.3132 5.5906 4.6521 5.5906 3.3118 0 4.4259-2.8223 4.4259-5.7087 0-2.7649-1.4314-5.4488-4.5677-5.4488m-6.8498-1.7994h2.4239v1.9986h0.0608c0.79673-1.6272 2.6805-2.3396 4.7095-2.3396 4.5373 0 6.789 3.5954 6.789 7.7647 0 4.166-2.2248 7.677-6.735 7.677-1.5124 0-3.6798-0.5706-4.7635-2.3126h-0.0608v7.6229h-2.4239v-20.411z"/>
    <path d="m283.58 1008.2c-0.11478-2.3125-1.8568-4.1693-4.2537-4.1693-2.5421 0-4.0545 1.9108-4.2267 4.1693h8.4804zm2.3395 4.1119c-0.65832 3.2511-2.9945 5.0201-6.3063 5.0201-4.7095 0-6.9376-3.2511-7.0828-7.7647 0-4.4225 2.9168-7.677 6.9376-7.677 5.226 0 6.8228 4.8817 6.681 8.4501h-11.049c-0.0844 2.5657 1.3706 4.8478 4.598 4.8478 1.9986 0 3.3928-0.9655 3.825-2.8763h2.3969z"/>
    <path d="m294.91 1015.2c2.5421 0 4.5947-1.9952 4.5947-5.5636 0-3.5954-2.0526-5.5939-4.5947-5.5939-2.5387 0-4.5947 1.9985-4.5947 5.5939 0 3.5684 2.056 5.5636 4.5947 5.5636m0-13.298c4.6791 0 7.1638 3.3929 7.1638 7.7343 0 4.3077-2.4847 7.7073-7.1638 7.7073s-7.1638-3.3996-7.1638-7.7073c0-4.3414 2.4847-7.7343 7.1638-7.7343"/>
    <path d="m311.76 1004c-3.2544 0-4.5103 2.7987-4.5103 5.5669 0 2.9101 1.3132 5.5906 4.6554 5.5906 3.3084 0 4.4225-2.8223 4.4225-5.7087 0-2.7649-1.428-5.4488-4.5677-5.4488m-6.8498-1.7994h2.4273v1.9986h0.0574c0.79673-1.6272 2.6839-2.3396 4.7095-2.3396 4.5373 0 6.7924 3.5954 6.7924 7.7647 0 4.166-2.2248 7.677-6.735 7.677-1.5158 0-3.6798-0.5706-4.7668-2.3126h-0.0574v7.6229h-2.4273v-20.411z"/>
    <path d="m321.79 996.62h2.4239v20.381h-2.4239v-20.381z"/>
    <path d="m338.12 1008.2c-0.11478-2.3125-1.8568-4.1693-4.2537-4.1693-2.5421 0-4.0511 1.9108-4.2267 4.1693h8.4804zm2.3395 4.1119c-0.65832 3.2511-2.9978 5.0201-6.3097 5.0201-4.7061 0-6.9342-3.2511-7.076-7.7647 0-4.4225 2.9101-7.677 6.9342-7.677 5.2226 0 6.8228 4.8817 6.6776 8.4501h-11.046c-0.0844 2.5657 1.3706 4.8478 4.598 4.8478 1.9986 0 3.3928-0.9655 3.825-2.8763h2.3969z"/>
    <path d="m218.8 939.41h4.8951c5.0099 0 7.2853 2.0931 8.6019 4.0714 1.6137 2.5016 2.1404 5.6648 2.1404 8.1732 0 6.2759-2.3767 12.123-10.806 12.123h-4.831v-24.368zm-11.289 34.276h15.465c16.782 0 22.751-10.151 22.751-22.207 0-4.8411-1.0094-9.5607-4.0579-13.737-5.7324-8.2373-14.567-8.2373-19.53-8.2373h-14.628v44.181zm-26.022-30.454h0.12153 0.054l4.5406 15.114h-9.2535l4.5373-15.114zm7.7006 24.074 2.1471 6.3806h12.245l-17.558-44.181h-8.8889l-17.737 44.181h12.123l2.326-6.3806h15.344zm-52.881 6.3806h10.81v-16.832h12.842v-9.9186h-12.842v-7.525h13.325v-9.905h-24.135v44.181zm-19.28 0h11.279v-44.184h-11.279v44.184z"/>
   </g>
   <g fill="#9d9d9c">
    <path d="m88.327 903.94z"/>
    <path d="m60.162 903.94z"/>
    <path d="m74.243 904.06c-0.59417-0.77985-0.84399-1.293-1.5259-2.0019-0.64818-0.66506-1.0634-0.99253-1.8534-1.4854-0.54353-0.33759-0.90138-0.42875-1.4415-0.75284-0.66506-0.39161-1.0398-0.62792-1.6137-1.1411-0.57054-0.51652-0.83048-0.87099-1.2829-1.4888-0.61105-0.82711-0.93514-1.3335-1.3234-2.2855-0.34097-0.83049-0.46588-1.3301-0.57054-2.2146-0.10465-0.92163-0.08102-1.4584 0.03376-2.3699 0.09453-0.68532 0.19918-1.0736 0.40511-1.7319 0.13166-0.40849 0.20256-0.64819 0.41524-1.0229 0.18905-0.33422 0.32072-0.51652 0.58404-0.78997v-13.787h0.83724v14.047c0.06752 0.76972-0.02025 1.2288 0.17555 1.9817 0.16205 0.7022 0.29371 1.1039 0.68532 1.7082 0.42537 0.66506 0.76972 1.0263 1.4483 1.4449 0.35785 0.23632 0.56041 0.41525 0.97565 0.50302 0.20931 0.027 0.52327 0.0169 0.52327 0.0169-0.19918-0.64143-0.33084-1.4652-0.33084-2.3463 0-0.96552 0.11478-1.8331 0.35448-2.4948v-14.861h-0.02363 0.84399v13.487l0.02363 0.0203 0.03376-0.0675c0.22956-0.2532 0.3376-0.43212 0.59079-0.65494 0.22281-0.18905 0.35785-0.2937 0.61105-0.42199 0.23969-0.12829 0.38148-0.1823 0.63468-0.24645 0.30384-0.0776 0.78997-0.0844 0.78997-0.0844s0.49964 0.007 0.79335 0.0844c0.25995 0.0642 0.40174 0.12829 0.63468 0.24645 0.25995 0.12829 0.39161 0.23294 0.61105 0.42199 0.25657 0.22957 0.36123 0.40174 0.59417 0.65494l0.04051 0.0675 0.0135-0.0203v-13.487h0.84399-0.02363v14.861c0.24982 0.66169 0.35448 1.5293 0.35448 2.4948 0 0.88113-0.12491 1.7049-0.33084 2.3463 0 0 0.32409 0.0101 0.52327-0.0169 0.42537-0.0878 0.62118-0.2667 0.9824-0.50302 0.67181-0.42199 1.0128-0.76634 1.4483-1.4449 0.39161-0.6043 0.52327-1.006 0.69207-1.7082 0.17892-0.75283 0.0979-1.212 0.16205-1.9817v-14.047h0.83724v13.787c0.26332 0.27345 0.39836 0.45575 0.59417 0.78997 0.20593 0.37473 0.27008 0.61443 0.40511 1.0229 0.21268 0.65831 0.31059 1.0465 0.40511 1.7319 0.11816 0.91151 0.14517 1.4483 0.04051 2.3699-0.11478 0.8845-0.23294 1.3841-0.57054 2.2146-0.38824 0.95201-0.7157 1.4618-1.3234 2.2855-0.45238 0.6178-0.71908 0.97227-1.2862 1.4888-0.56716 0.51315-0.94527 0.74946-1.6171 1.1411-0.54353 0.32409-0.898 0.41862-1.4415 0.75284-0.78997 0.49289-1.212 0.82711-1.8534 1.4854-0.6887 0.7022-0.92839 1.2221-1.5293 2.0019"/>
    <path d="m74.243 915.92c-1.1343-1.958-2.7379-3.5853-4.5643-4.8479 0 0-0.7157-0.48951-2.5286-1.509-1.4652-0.82373-2.4071-1.8635-3.2544-2.8831-4.858-7.184-2.2011-13.679-1.7116-13.544l0.04051-0.0338-0.04051 0.0338v-20.148h0.82711v21.718s-0.42199 2.5083 3.3692 4.1929c2.4239 1.0803 5.6952 4.0174 7.8626 7.7849 2.1707-3.7676 5.4387-6.7046 7.8693-7.7849 3.7878-1.6846 3.3726-4.1929 3.3726-4.1929v-21.718h0.82373v20.148l-0.04051-0.0338 0.04051 0.0338c0.48614-0.13503 3.1363 6.3603-1.7082 13.544-0.85412 1.0195-1.7994 2.0593-3.2645 2.8831-1.8129 1.0195-2.5252 1.509-2.5252 1.509-1.8298 1.2626-3.43 2.8898-4.5677 4.8479"/>
    <path d="m74.243 927.9s-1.185-3.9026-5.7054-5.5804c-15.32-5.6986-9.7599-17.741-9.2231-18.301v-31.032h0.84736v30.947c0.02701 0.34772 0.11816 1.2525 0.47263 2.2045 0.449 1.2052 1.2288 2.4914 2.0121 2.9708 1.8905 1.1512 3.1734 1.3909 4.9559 2.3226 1.5766 0.83724 3.5684 2.1775 6.6405 5.7324 3.089-3.5549 5.0673-4.8951 6.6439-5.7324 1.7893-0.93176 3.0654-1.1714 4.9559-2.3226 0.78322-0.47939 1.5732-1.7656 2.0121-2.9708 0.35448-0.95202 0.449-1.8568 0.47263-2.2045v-30.947h0.84736v31.032c0.5334 0.56041 6.1037 12.602-9.2231 18.301-4.5136 1.6778-5.7087 5.5804-5.7087 5.5804"/>
    <path d="m51.845 973.68h-9.9456v-8.7538h9.905c4.3449 0 7.866-3.5414 7.866-7.8862v-27.514h8.4871l0.01688 27.794c0 9.0408-7.2786 16.36-16.329 16.36"/>
    <path d="m96.679 973.68h9.9456v-8.7538h-9.9017c-4.3381 0-7.8626-3.5414-7.8626-7.8862v-27.514h-8.4871l-0.01688 27.794c0 9.0408 7.2819 16.36 16.323 16.36"/>
    <path d="m51.717 984.29h-9.8173v-8.7606h9.905c11.249 0 18.21-8.8079 18.21-18.49v-27.514h8.4838l0.01688 27.794c0 14.642-11.61 26.97-26.798 26.97"/>
   </g>
  </g>
 </g>
</svg>
