<?xml version="1.0" encoding="utf-8"?>
<!-- Generator: Adobe Illustrator 23.0.5, SVG Export Plug-In . SVG Version: 6.00 Build 0)  -->
<svg version="1.1" xmlns="http://www.w3.org/2000/svg" xmlns:xlink="http://www.w3.org/1999/xlink" x="0px" y="0px"
	 viewBox="0 0 3710 3710" style="enable-background:new 0 0 3710 3710;" xml:space="preserve">
<style type="text/css">
	.st0{fill:#FFFFFF;}
	.st1{fill:#C6E0CE;}
	.st2{clip-path:url(#SVGID_1_);}
	.st3{fill:url(#SVGID_2_);}
	.st4{opacity:0.8;clip-path:url(#SVGID_3_);}
	.st5{fill:#FCFDFE;}
	.st6{clip-path:url(#SVGID_4_);fill:url(#SVGID_5_);}
	.st7{opacity:0.8;clip-path:url(#SVGID_4_);}
	.st8{fill:url(#SVGID_6_);}
	.st9{fill:#26264F;}
	.st10{fill:url(#SVGID_7_);}
	.st11{fill:url(#SVGID_8_);}
	.st12{fill:url(#SVGID_9_);}
	.st13{fill:url(#SVGID_10_);}
	.st14{fill:url(#SVGID_11_);}
	.st15{fill:url(#SVGID_12_);}
	.st16{fill:url(#SVGID_14_);}
	.st17{opacity:0.3;fill:url(#SVGID_15_);}
	.st18{fill:url(#SVGID_17_);}
	.st19{fill:url(#SVGID_18_);}
	.st20{fill:url(#SVGID_19_);}
	.st21{fill:url(#SVGID_21_);}
	.st22{fill:url(#SVGID_22_);}
	.st23{fill:url(#SVGID_23_);}
	.st24{fill:url(#SVGID_24_);}
	.st25{fill:url(#SVGID_25_);}
	.st26{fill:url(#SVGID_26_);}
	.st27{opacity:0.3;fill:url(#SVGID_27_);}
	.st28{fill:#D8DEE8;}
	.st29{fill:url(#SVGID_28_);}
	.st30{fill:#F4F7FA;}
	.st31{fill:url(#SVGID_29_);}
	.st32{fill:url(#SVGID_30_);}
	.st33{fill:url(#SVGID_31_);}
	.st34{fill:url(#SVGID_32_);}
	.st35{fill:url(#SVGID_33_);}
	.st36{fill:url(#SVGID_34_);}
	.st37{fill:url(#SVGID_35_);}
	.st38{fill:url(#SVGID_36_);}
	.st39{fill:url(#SVGID_37_);}
	.st40{opacity:0.5;fill:#FFFFFF;}
	.st41{opacity:0.3;fill:url(#SVGID_38_);}
	.st42{fill:url(#SVGID_39_);}
	.st43{fill:url(#SVGID_40_);}
	.st44{fill:url(#SVGID_41_);}
	.st45{fill:url(#SVGID_42_);}
	.st46{fill:url(#SVGID_43_);}
	.st47{fill:url(#SVGID_44_);}
	.st48{fill:url(#SVGID_45_);}
	.st49{fill:url(#SVGID_46_);}
	.st50{opacity:0.3;fill:url(#SVGID_47_);}
	.st51{fill:url(#SVGID_48_);}
	.st52{fill:url(#SVGID_49_);}
	.st53{fill:url(#SVGID_50_);}
	.st54{opacity:0.6;fill:#FFFFFF;}
</style>
<g id="Background">
	<g>
		<g>
			<rect class="st0" width="3710" height="3710"/>
		</g>
	</g>
</g>
<g id="Illustration">
	<g>
		<path class="st1" d="M1876.5,557.8c-288.6,116.8-316.3,415.4-576.2,441.1c-226.4,22.3-312.5-193.8-471.4-155.1
			c-242,59-394.2,646.4-297,1129.3c100.4,498.7,522.1,1161.6,1220.8,1206.9c784.4,50.8,1377.9-712,1414.2-1381.4
			c3.9-72.4,27.1-678.9-428.5-1037.2C2715.6,743.4,2266.7,399.8,1876.5,557.8z"/>
		<g>
			<defs>
				<rect id="SVGID_13_" x="1541.8" y="1402.3" width="1581.8" height="1770.5"/>
			</defs>
			<clipPath id="SVGID_1_">
				<use xlink:href="#SVGID_13_"  style="overflow:visible;"/>
			</clipPath>
			<g class="st2">
				<g>
					<g>
						
							<linearGradient id="SVGID_2_" gradientUnits="userSpaceOnUse" x1="-4750.3638" y1="-2223.1299" x2="-3806.5825" y2="-2223.1299" gradientTransform="matrix(-0.583 -0.8125 -0.8125 0.583 -1862.4246 659.3145)">
							<stop  offset="3.597120e-03" style="stop-color:#8EC025"/>
							<stop  offset="1" style="stop-color:#92C22D"/>
						</linearGradient>
						<path class="st3" d="M1721.5,3438.7c-17.7-8.5-48.9-43-53.4-55.4c-29.9-82.5-95.7-233.4-62.6-320c5.7-14.8,76.4-7,90-17.8
							c46.3-6.2,62.7-5.4,103.8-33.2c121.5-82.2-9.4-354.7,242.9-352.3c184.8,1.8,307.8,107.3,374-163.8
							c66.2-271.1,426.3-686.1,642.6-410.6c124.1,158.1-107.8,330.8-79.4,523.8c26.9,183.4-80.2,291.9-275.3,332.4
							s-130.1,142.4-129.9,308.4c0.2,199.3-282.5,141.5-410.8,103.5C2060,3323,1776.6,3316,1721.5,3438.7z"/>
						<g>
							<defs>
								<path id="SVGID_16_" d="M1570.8,3026.6c0.1,137.3-5.3,277-5.8,415.3c71.1,30.1,155.4,63.7,200.6-22.4
									c62.8-119.6,295-97.2,398.1-66.1c127.6,38.6,411,95.8,410.6-103.4c-0.3-165.8-65.1-267.9,129.9-308.4
									c195-40.5,302.2-148.9,275.3-332.4c-28.3-193,203.5-365.6,79.4-523.8c-216.2-275.6-576.5,139.8-642.5,410.5
									s-190,166.6-373.9,163.6c-251-4.1-124.8,274.6-241.7,350.4C1709.1,3069.5,1661.9,3037.6,1570.8,3026.6z"/>
							</defs>
							<clipPath id="SVGID_3_">
								<use xlink:href="#SVGID_16_"  style="overflow:visible;"/>
							</clipPath>
							<g class="st4">
								<path class="st5" d="M1636.6,3231.2l-0.5-3.4c163.4-23.5,320.7-72.3,467.7-144.9c141.3-69.8,273.2-161.7,392.1-273.1
									c230.9-216.4,409.1-503,515.4-828.9l3.2,1.1c-106.4,326.4-284.9,613.6-516.3,830.3c-119.2,111.7-251.4,203.7-392.9,273.7
									C1958,3158.8,1800.3,3207.6,1636.6,3231.2z"/>
								<path class="st5" d="M2583.8,3332.6c-142.1-105.4-407.5-194.5-591.7-198.4l0.1-3.4c184.8,4,451.1,93.3,593.6,199.1
									L2583.8,3332.6z"/>
								<path class="st5" d="M1761.2,3211.8l-1.4-3.1c87.5-39.9,151.7-123.3,191-247.7c28.8-91.2,43.8-202,44.5-329.3l3.4,0
									c-0.7,127.6-15.8,238.8-44.7,330.4C1914.4,3087.4,1849.5,3171.5,1761.2,3211.8z"/>
								<path class="st5" d="M2530,2780.2l-1.5-3c160.7-83.7,348.9-58.2,478.5-22.1l-0.9,3.3C2877.1,2722.4,2689.8,2697,2530,2780.2
									z"/>
								<path class="st5" d="M2793.1,2455.8l-3.1-1.3c32.9-82.5,74-258.4-19.8-510.1l3.1-1.2c31.7,85,51.1,173.4,56.3,255.7
									C2835.6,2293.5,2823.3,2380,2793.1,2455.8z"/>
							</g>
						</g>
					</g>
				</g>
				<g>
					<g>
						<defs>
							<path id="SVGID_20_" d="M2158.8,3665.3c-98.7-14.8-197.3-31.9-295.7-51.2c-1.6,1.5-34-216.9,68-331.4
								c201.5-221.9,65.8-421,27.1-538.9c-62-166.4-30.2-368.6,149.8-330.7c175.4,32.6,202-334.9,171.7-618
								c-25.8-137.8,101.9-305,229.4-343.2c130.1-42.3,260,44.3,299.8,319c60.2,318-167.8,509.8-252.2,669.3
								c-83.1,156.5,110.2,283.2-45.4,421.9c-130.8,123.2-295.8,211.8-235.4,366.6C2337.7,3381.5,2322.9,3506.6,2158.8,3665.3z"/>
						</defs>
						<clipPath id="SVGID_4_">
							<use xlink:href="#SVGID_20_"  style="overflow:visible;"/>
						</clipPath>
						
							<linearGradient id="SVGID_5_" gradientUnits="userSpaceOnUse" x1="-700.8555" y1="379.9676" x2="208.4565" y2="379.9676" gradientTransform="matrix(-0.8674 -0.4976 -0.4976 0.8674 2274.7078 2110.0093)">
							<stop  offset="0" style="stop-color:#B9D777"/>
							<stop  offset="0.4795" style="stop-color:#C1DB85"/>
							<stop  offset="0.9964" style="stop-color:#C7DE90"/>
						</linearGradient>
						<path class="st6" d="M2158.8,3665.3c-98.7-14.8-197.3-31.9-295.7-51.2c-1.6,1.5-34-216.9,68-331.4
							c201.5-221.9,65.8-421,27.1-538.9c-61.3-166.2-29.1-346.3,137.1-348.9c184.4-6.6,217.8-317.2,184.4-599.8
							c-25.8-137.8,101.9-305,229.4-343.2c130.1-42.3,260,44.3,299.8,319c60.2,318-167.8,509.8-252.2,669.3
							c-83.1,156.5,110.2,283.2-45.4,421.9c-130.8,123.2-295.8,211.8-235.4,366.6C2337.7,3381.5,2322.9,3506.6,2158.8,3665.3z"/>
						<g class="st7">
							<path class="st5" d="M2026.5,3678.2l-3.3,0c0-1.9,94.3-461.2,256.9-908.3c22.5-72.4,46.9-145.4,70.5-216
								c63.2-189.1,128.5-384.6,159.6-579.3c34.7-217.7,22.3-413.7-37.8-599.3l3.2-1.1c60.3,186.2,72.7,382.7,37.9,600.9
								c-31.1,195-96.5,390.7-159.7,579.9c-23.6,70.6-48,143.6-70.5,216C2121.1,3216.5,2026.7,3675.6,2026.5,3678.2z"/>
							<path class="st5" d="M2467.9,2188l-2.5-2.3c110-124.4,242.8-301.3,314.1-396.3c55.7-74.1,57.6-76.2,59.8-75.8l-0.5,3.4
								l0.3-1.7l0.6,1.5c-2.8,1.9-26.9,34-57.5,74.7C2710.9,1886.6,2578,2063.5,2467.9,2188z"/>
							<path class="st5" d="M2501.7,2017.6c-22.8-142.9-80.7-236.8-125.2-290.5c-49.6-59.8-94.3-84.9-98.8-85.3c0,0,0.3,0,0.7-0.2
								l-1.9-2.8c0.9-0.6,2-0.4,4.5,0.7c12.2,5.4,57.6,34.3,105.3,94.7c60.1,76.1,101.1,173.9,118.5,283L2501.7,2017.6z"/>
							<path class="st5" d="M2186.6,3062.2l-3.3-0.4c15.5-132.8-14.9-275.5-90.3-424.4c-39.3-77.6-89.5-153.7-149.1-226
								c-4.1-5-5.8-7.1-6.3-7.9l2.9-1.7c0.3,0.6,2.8,3.6,6,7.4c59.8,72.5,110.1,148.8,149.6,226.6
								C2171.7,2785.3,2202.2,2928.7,2186.6,3062.2z"/>
							<path class="st5" d="M2231.1,2922.3l-2.9-1.8c118.2-194.4,367.5-208,369.6-207.3l1.3,1.6l-1.2,1.7l-0.5-1.6l-0.2,1.7
								c0,0,0,0,0,0C2592.9,2716.6,2348.3,2729.6,2231.1,2922.3z M2596.9,2713.3l0.5,1.6L2596.9,2713.3z"/>
							<path class="st5" d="M2042.9,3603.3l-3.3-0.1c2.1-57.8-18.2-156.4-126.8-297.5c-5.8-7.5-5.8-7.5-5.7-8.5l3.3,0.5l-1.7-0.2
								l1.5-0.6c0.3,0.6,2.5,3.5,5.1,6.8C2024.7,3445.5,2045.1,3544.9,2042.9,3603.3z"/>
							<path class="st5" d="M2068,3494.4l-3.2-0.9c12.5-43.9,61.7-129.9,250.8-212.7c2.6-1.2,4.3-1.9,4.9-2.2l1.5,3
								c-0.6,0.3-2.4,1.1-5.1,2.3C2129.1,3366.1,2080.4,3451.1,2068,3494.4z"/>
						</g>
					</g>
				</g>
			</g>
		</g>
		<g>
			<g>
				<g>
					<linearGradient id="SVGID_6_" gradientUnits="userSpaceOnUse" x1="2032.9957" y1="937.3801" x2="2610.9207" y2="937.3801">
						<stop  offset="0" style="stop-color:#8BBE1F"/>
						<stop  offset="0.1347" style="stop-color:#8EBF24"/>
						<stop  offset="0.3017" style="stop-color:#96C434"/>
						<stop  offset="0.4857" style="stop-color:#A3CB4D"/>
						<stop  offset="0.682" style="stop-color:#B6D570"/>
						<stop  offset="0.8858" style="stop-color:#CDE19D"/>
						<stop  offset="1" style="stop-color:#DCE9B9"/>
					</linearGradient>
					<path class="st8" d="M2035.4,737.4c108.5-46.6,211.9-34,263.6-14.2c61.1,23.4,81.3,40.9,135.4,49.8c48,7.9,97.9-43.2,135.4-7.1
						c2.5,2.4,5.6,5.4,9.1,10.7c26.8,40.1-4.9,88.6,3.9,173.3c4.5,43.3,15.3,55.4,25.4,138.7c3.8,31.7,3,36.3,2,40
						c-16.4,56.2-146.6,45.6-238.2,21.3c-126.3-33.4-167-89.5-249.9-64c-38.3,11.8-67.3,35.3-85.9,53.3
						C2044.5,1005.8,2026.9,870.7,2035.4,737.4z"/>
					<g>
						<path class="st9" d="M2036.7,1988.5c-2.8,0-5.1-2.3-5.1-5.2V697.7c0-2.9,2.3-5.2,5.1-5.2s5.1,2.3,5.1,5.2v1285.5
							C2041.8,1986.1,2039.6,1988.5,2036.7,1988.5z"/>
					</g>
				</g>
			</g>
			<g>
				
					<linearGradient id="SVGID_7_" gradientUnits="userSpaceOnUse" x1="3637.3838" y1="1990.2156" x2="3637.8594" y2="1990.2156" gradientTransform="matrix(0.444 0.896 -0.896 0.444 3455.7615 -448.1513)">
					<stop  offset="0" style="stop-color:#FFC444"/>
					<stop  offset="0.9964" style="stop-color:#F36F56"/>
				</linearGradient>
				<path class="st10" d="M2014.3,1174.6l9.1-13c0,0-1.8-6.8,1.2-11.8c3-5,3-5,3-5s3.9-3.7,11.3-1.1c1.7,0.6,3.5,0.4,5-0.6
					c4.4-3.1,5.5,5.4,5.5,5.4s3.2,3.8,0.3,7c0,0-0.4,4.8-3.9,7.3c-3.5,2.5-13,6.6-13,6.6l-10.2,12.5L2014.3,1174.6z"/>
				
					<linearGradient id="SVGID_8_" gradientUnits="userSpaceOnUse" x1="3614.5623" y1="2175.1189" x2="3615.0337" y2="2175.1189" gradientTransform="matrix(0.444 0.896 -0.896 0.444 3455.7615 -448.1513)">
					<stop  offset="0" style="stop-color:#FF9085"/>
					<stop  offset="1" style="stop-color:#FB6FBB"/>
				</linearGradient>
				<path class="st11" d="M2012.9,1160.9c-65.3,26.5-107.3,16.1-126.8,8.7c-24.5-9.4-48.1-26.6-48.1-26.6
					c-33.2-24.3-46.2-48.5-79-53.7c-2.5-0.4-9.8-1.4-17.8-0.7c-47.2,4.3-99.8,67.9-93.1,110.2c11.7,73.4,212.4,148.9,322.6,67.3
					c35.5-26.3,53.2-62.7,62.3-87.4C2026.3,1172.7,2019.6,1166.8,2012.9,1160.9z"/>
				
					<linearGradient id="SVGID_9_" gradientUnits="userSpaceOnUse" x1="3654.8679" y1="2005.332" x2="3655.3345" y2="2005.332" gradientTransform="matrix(-0.996 8.970000e-02 8.970000e-02 0.996 2456.5469 -160.4537)">
					<stop  offset="0" style="stop-color:#444B8C"/>
					<stop  offset="0.9964" style="stop-color:#26264F"/>
				</linearGradient>
				<path class="st12" d="M1586.3,1919.2c-2.7,2.5-2.9,8.4-3,12.2c-0.1,1.7-0.1,2.6,0.1,3.2c1.6,4.3,10,4.3,23.3,4.8
					c20.9,0.9,27.2,2.2,28.6-1.1c1.3-3-2.6-7.6-3.1-8.1c-2.4-2.7-5.2-3.6-10.6-5c-10-2.7-16.7-4.1-18.8-4.5
					C1590.2,1918,1588.1,1917.6,1586.3,1919.2z"/>
				
					<linearGradient id="SVGID_10_" gradientUnits="userSpaceOnUse" x1="3623.9771" y1="1936.4895" x2="3624.4436" y2="1936.4895" gradientTransform="matrix(-0.9976 6.940000e-02 6.940000e-02 0.9976 2040.621 -60.6691)">
					<stop  offset="0" style="stop-color:#FFC444"/>
					<stop  offset="0.9964" style="stop-color:#F36F56"/>
				</linearGradient>
				<path class="st13" d="M1601,1898l0.8,24.2c-0.7,1.1-7.9,4.2-13.3,0.9l-4.1-24L1601,1898z"/>
				
					<linearGradient id="SVGID_11_" gradientUnits="userSpaceOnUse" x1="3641.2085" y1="2050.3667" x2="3641.675" y2="2050.3667" gradientTransform="matrix(-0.977 0.2133 0.2133 0.977 1968.0525 -210.6557)">
					<stop  offset="0" style="stop-color:#444B8C"/>
					<stop  offset="0.9964" style="stop-color:#26264F"/>
				</linearGradient>
				<path class="st14" d="M1762.3,1919.5c-3.6,3.6-4.7,10.6-2,14.2c2.7,3.6,7.2,1.2,19.6,2.3c13.2,1.1,16.5,4.5,25.6,2.5
					c3.7-0.8,10.2-3,10.3-5.6c0-1.9-3.2-3-13.9-7.3c-15.2-6.1-15.1-6.4-18.4-7.1C1775.3,1916.6,1767,1914.8,1762.3,1919.5z"/>
				
					<linearGradient id="SVGID_12_" gradientUnits="userSpaceOnUse" x1="3622.3352" y1="1988.3695" x2="3622.8003" y2="1988.3695" gradientTransform="matrix(-0.9894 0.1453 0.1453 0.9894 1974.5804 -128.6684)">
					<stop  offset="0" style="stop-color:#FFC444"/>
					<stop  offset="0.9964" style="stop-color:#F36F56"/>
				</linearGradient>
				<path class="st15" d="M1771.9,1898l5.5,22.8c-0.6,1.2-7.5,4.8-13.2,2l-8.7-22.4L1771.9,1898z"/>
				
					<linearGradient id="SVGID_14_" gradientUnits="userSpaceOnUse" x1="3585.2786" y1="1567.5923" x2="3585.7461" y2="1567.5923" gradientTransform="matrix(0.9986 5.330000e-02 -5.330000e-02 0.9986 -237.5799 -19.3005)">
					<stop  offset="0" style="stop-color:#311944"/>
					<stop  offset="1" style="stop-color:#893976"/>
				</linearGradient>
				<path class="st16" d="M1738.8,1402.3c-3,75.6-2.4,160.9,4.9,253.9c7.2,91.9,19.7,175.3,34.3,248.7c-8.6,1.9-17.2,3.7-25.8,5.6
					c-20.4-21.6-45.9-55.2-56.6-101.3c-6.6-28.6-3.2-42.9-6.5-77.9c-5.3-55.6-20.4-85.4-35.2-130.8
					c-13.3-40.8-28.5-100.5-34.2-179.4C1659.4,1414.8,1699.1,1408.6,1738.8,1402.3z"/>
				
					<linearGradient id="SVGID_15_" gradientUnits="userSpaceOnUse" x1="3585.7883" y1="1572.8934" x2="3586.2563" y2="1572.8934" gradientTransform="matrix(0.9986 5.330000e-02 -5.330000e-02 0.9986 -237.5799 -19.3005)">
					<stop  offset="0" style="stop-color:#311944"/>
					<stop  offset="1" style="stop-color:#893976"/>
				</linearGradient>
				<path class="st17" d="M1726.9,1755.7c-9.5-38.2-27.7-48.2-28.3-84.3c-0.5-25.5,8.5-27.6,7.9-51.9c-0.9-37-22.2-56.4-32.9-79.6
					c-11.3-24.6-15.6-64,14.8-129.7c-22.9,3.6-45.8,7.2-68.7,10.8c5.7,79,20.8,138.6,34.2,179.4c14.8,45.4,29.9,75.2,35.2,130.8
					c3.3,34.9-0.1,49.3,6.5,77.9c10.7,46.1,36.1,79.7,56.6,101.3c2.2-0.5,4.4-0.9,6.6-1.4c-22.1-26.8-29.9-50.8-31.9-70.2
					C1723.7,1807.2,1736.4,1794.2,1726.9,1755.7z"/>
				
					<linearGradient id="SVGID_17_" gradientUnits="userSpaceOnUse" x1="3560.7573" y1="1680.239" x2="3561.2244" y2="1680.239" gradientTransform="matrix(0.9976 -6.940000e-02 6.940000e-02 0.9976 -160.8932 92.9864)">
					<stop  offset="0" style="stop-color:#311944"/>
					<stop  offset="1" style="stop-color:#893976"/>
				</linearGradient>
				<path class="st18" d="M1652.8,1397.6c-10.2,95.8-19.6,193.5-28.1,293c-6.3,74.6-12,148.4-17,221.1c-8.7,0.6-17.4,1.2-26.1,1.9
					c-7.5-16.3-17.4-41.1-23.3-72.6c-7.3-38.2-3.9-60.5-6-99.8c-2.2-44.1-8.4-54-17.2-110c-17.9-113.6-26.8-170.3,1.5-203.8
					C1545.9,1416.5,1574.3,1389.5,1652.8,1397.6z"/>
				<linearGradient id="SVGID_18_" gradientUnits="userSpaceOnUse" x1="3557.7139" y1="1300.1533" x2="3558.1804" y2="1300.1533">
					<stop  offset="0" style="stop-color:#FF9085"/>
					<stop  offset="1" style="stop-color:#FB6FBB"/>
				</linearGradient>
				<path class="st19" d="M1427.2,1099.6c47.1-16.2,118.9-34.2,206.7-30.6c50.9,2.1,94.6,11,129.3,20.9c4.7,26.7,9.4,53.4,14.1,80
					c1.1,26.7,1.4,63-1.5,105.8c-3,42.8-5.8,43.5-12.6,103.9c-11,98.5-6.4,124.3-25.9,136.1c-12.7,7.7-17.2-1.6-81.8-8.1
					c-43.3-4.4-65.4-6.4-87.3,1.2c-29.9,10.3-39.8,27.5-52.2,21.9c-11.8-5.4-13.3-26.1-14.7-62.3c-2.2-55.8-2.1-93.8-2.3-107.3
					c-0.9-62.3-16.4-109.9-36.3-170.8C1450.3,1152.1,1437.2,1121.2,1427.2,1099.6z"/>
				<g>
					
						<linearGradient id="SVGID_19_" gradientUnits="userSpaceOnUse" x1="3610.8945" y1="456.513" x2="3611.3613" y2="456.513" gradientTransform="matrix(0.8944 0.4471 -0.4471 0.8944 171.027 -182.9961)">
						<stop  offset="0" style="stop-color:#FFC444"/>
						<stop  offset="0.9964" style="stop-color:#F36F56"/>
					</linearGradient>
					<path class="st20" d="M1628.1,1007.3c-0.7,15.7-3.1,28-5.1,36.4c-2.4,9.6-3.8,12.1-5.7,14c-2.7,2.9-6.8,5.3-29.1,9.7
						c-12.2,2.4-13.7,2.2-14,3.4c-1.6,5.8,30.1,27.8,64.1,24.7c20.8-1.8,40.3-12.8,39.5-19.2c-0.8-6.4-21.7-4.1-27.2-15.9
						c-3.9-8.2,1.5-19.3,7.7-28.4C1653.3,1021.2,1633,1018.1,1628.1,1007.3z"/>
					<g>
						
							<linearGradient id="SVGID_21_" gradientUnits="userSpaceOnUse" x1="3590.5503" y1="767.5621" x2="3591.0168" y2="767.5621" gradientTransform="matrix(-0.9988 -4.960000e-02 -4.960000e-02 0.9988 1789.584 252.4768)">
							<stop  offset="0" style="stop-color:#311944"/>
							<stop  offset="1" style="stop-color:#6B3976"/>
						</linearGradient>
						<path class="st21" d="M1666.1,1015.6c5.2-6.3,6.1-17.8,0.9-25.4c-4.5-6.5-12.1-7.8-16.6-8.6c-13.1-2.3-30.1,2.4-36.5,14.5
							c-3.8,7.1,2.8,22.8,3.8,25.6c1.2,3.2,3.5,4.4,5.6,6.8c2.9,3.4,7.4,8.8,14.8,17.9c0.7-2.5,1.8-5.6,3.5-9
							c0.6-1.3,3.2-6.3,6.8-10.4C1655.7,1018.8,1661.2,1021.6,1666.1,1015.6z"/>
						
							<linearGradient id="SVGID_22_" gradientUnits="userSpaceOnUse" x1="3537.5142" y1="817.6884" x2="3537.9807" y2="817.6884" gradientTransform="matrix(0.9999 -1.160000e-02 1.160000e-02 0.9999 281.3529 228.061)">
							<stop  offset="0" style="stop-color:#FFC444"/>
							<stop  offset="0.9964" style="stop-color:#F36F56"/>
						</linearGradient>
						<path class="st22" d="M1627.3,1038.5c0,0,7.9,15,25.3,14.8c15.5-0.2,19.7-35.4,10.2-43.4c-3.2-2.7-9.7-4.1-15.2-2.8
							c-3.2,0.7-4.4,2-9.7,3.1c-4.9,1-6.2,0.4-7.7,1.6c-1.9,1.5-3.4,5.2-0.9,15.7c-2.8-3.2-6.3-4.6-8.9-3.5
							c-0.4,0.2-1.5,0.9-2.2,1.9C1615.9,1029.7,1619.2,1035,1627.3,1038.5z"/>
						
							<linearGradient id="SVGID_23_" gradientUnits="userSpaceOnUse" x1="3591.8127" y1="787.1077" x2="3592.2795" y2="787.1077" gradientTransform="matrix(-0.9988 -4.960000e-02 -4.960000e-02 0.9988 1789.584 252.4768)">
							<stop  offset="0" style="stop-color:#311944"/>
							<stop  offset="1" style="stop-color:#6B3976"/>
						</linearGradient>
						<path class="st23" d="M1629.6,1009.5c0.7,0.6-1.7,3.3-2.1,7.3c-0.7,7.8,6.5,17.5,14.4,18.8c4.6,0.7,6.1-2.1,13.9-2.5
							c4.8-0.3,8.8,0.6,11.2,1.3c2,8.7-0.8,17.1-6.6,20.7c-6.3,3.9-13.8,0.9-17-0.3c-2.1-0.8-8.9-3.5-12.2-10.2
							c-3.4-6.9,0.5-10.8-3.6-15.6c-2.1-2.4-4.9-3.6-7.4-8.2c-0.7-1.2-1.1-2.3-1.4-3.1C1623,1013.7,1628.6,1008.6,1629.6,1009.5z"/>
						
							<linearGradient id="SVGID_24_" gradientUnits="userSpaceOnUse" x1="3590.1602" y1="792.0637" x2="3590.6267" y2="792.0637" gradientTransform="matrix(-0.9988 -4.960000e-02 -4.960000e-02 0.9988 1789.584 252.4768)">
							<stop  offset="0" style="stop-color:#FFC444"/>
							<stop  offset="1" style="stop-color:#F36F56"/>
						</linearGradient>
						<path class="st24" d="M1661.2,1037.2c0,0-3.4,1.6-9.2,1c-0.3,0-0.6,0-0.6,0.2c-0.2,0.6,3.4,3.3,6.9,2.5
							c2.5-0.6,4.5-2.8,4.2-3.4C1662.3,1037.1,1661.7,1037.2,1661.2,1037.2z"/>
					</g>
				</g>
				<linearGradient id="SVGID_25_" gradientUnits="userSpaceOnUse" x1="3557.7139" y1="1362.2751" x2="3558.1804" y2="1362.2751">
					<stop  offset="0" style="stop-color:#FFC444"/>
					<stop  offset="0.9964" style="stop-color:#F36F56"/>
				</linearGradient>
				<path class="st25" d="M1470.6,1361.1l15.6-0.9c0,0,17.1-14.5,24.8-13.6c7.8,0.9,19.4,6.4,20.8,7.5c1.4,1.2-4.3,7.6-9.9,7
					c-5.7-0.6-18.3,2.5-20.6,7.6c-2.3,5.1-12.1,8.2-13.7,5.2l-20.9,4.2L1470.6,1361.1z"/>
				<linearGradient id="SVGID_26_" gradientUnits="userSpaceOnUse" x1="3557.7139" y1="1244.5221" x2="3558.1804" y2="1244.5221">
					<stop  offset="0" style="stop-color:#FF9085"/>
					<stop  offset="1" style="stop-color:#FB6FBB"/>
				</linearGradient>
				<path class="st26" d="M1475.3,1355.5c1.1,13-1.7,21.8-6.3,27.9c-20.6,26.9-90.6,15.9-132.2-20.1c-30.8-26.6-47.1-68-46.5-105
					c1.2-72.3,67-143.1,164.9-167.6c14.5,44.1,29,88.2,43.5,132.3c-60.4,0.9-97,47.3-91.6,80.3
					C1411.2,1327.9,1439.4,1350.1,1475.3,1355.5z"/>
				<linearGradient id="SVGID_27_" gradientUnits="userSpaceOnUse" x1="3557.7139" y1="1373.6212" x2="3558.1804" y2="1373.6212">
					<stop  offset="0" style="stop-color:#FF9085"/>
					<stop  offset="1" style="stop-color:#FB6FBB"/>
				</linearGradient>
				<path class="st27" d="M1712.1,1483.4c-31.8-13.8-31.6-42.3-61.2-54.2c-42.3-17-89.1,22.5-96.4,11.5
					c-7.6-11.4,48.2-46.3,40.8-80.8c-5.9-27.4-44.9-22.5-65.8-60c-19.8-35.6-0.6-68.4-18.1-80.8c-6.3-4.4-17.4-6.2-38.4,3.2
					c14.7,46.6,25.2,87.7,25.9,138.7c0.2,13.6,0.1,51.5,2.3,107.3c1.4,36.2,2.9,56.9,14.7,62.3c12.3,5.6,22.3-11.6,52.2-21.9
					c21.9-7.6,44-5.5,87.3-1.2c64.6,6.5,69.1,15.8,81.8,8.1c8.2-5,12.2-12.6,14.8-27C1739.1,1490.1,1725.3,1489.1,1712.1,1483.4z"/>
			</g>
		</g>
		<g>
			<g>
				<g>
					<path class="st28" d="M1544.7,2292.5c-179.8,6.5-359.5,13.9-539.1,22.2c-49.5,2.3-89.9-53.4-91-124.4
						c-0.2-16.1-0.5-32.1-0.7-48.2c-1.1-71,37.7-132.7,87.5-137.9c180.5-18.6,361.2-36.3,542-53.1
						C1543.9,2064.9,1544.3,2178.7,1544.7,2292.5z"/>
					
						<linearGradient id="SVGID_28_" gradientUnits="userSpaceOnUse" x1="2569.0754" y1="2131.7119" x2="3244.7585" y2="2131.7119" gradientTransform="matrix(1 0 0 1 -1675.0461 0)">
						<stop  offset="0" style="stop-color:#C9DF95"/>
						<stop  offset="0.9964" style="stop-color:#8FC027"/>
					</linearGradient>
					<path class="st29" d="M1468.9,2308.3c-152.1,6.9-304.2,14.5-456.3,22.7c-64.5,2.8-117.1-69.9-118.5-162.2c0-0.3,0-0.7,0-1
						c-1.5-92.2,49-172.9,114-179.7c152.8-19.2,305.8-37.7,459-55.6c8.1-0.8,101.6,7.4,101.6,17.5c0,10.1-87.2,18.1-95.2,18.8
						c-155.1,16.8-310.1,34.2-464.9,52.4c-52.4,5.2-93.4,70.2-92.3,144.9c0,0.3,0,0.7,0,1c1.2,74.7,43.8,133.3,95.9,130.7
						c152.1-9.3,304.3-17.9,456.5-25.9c8-0.4,101,9.5,101,19.6C1569.7,2301.7,1476.9,2308,1468.9,2308.3z"/>
				</g>
				<g>
					<path class="st30" d="M2581.6,2281.1c-367.2-0.9-734.4,2.1-1101.5,8.8c-0.6-113.5-1.1-226.9-1.7-340.4
						c369.4,3,738.6,9.9,1107.8,20.5C2584.7,2073.8,2583.2,2177.5,2581.6,2281.1z"/>
					
						<linearGradient id="SVGID_29_" gradientUnits="userSpaceOnUse" x1="3128.3008" y1="1960.2037" x2="4281.9409" y2="1960.2037" gradientTransform="matrix(1 0 0 1 -1675.0461 0)">
						<stop  offset="0" style="stop-color:#8FC027"/>
						<stop  offset="0.9964" style="stop-color:#8EC025"/>
					</linearGradient>
					<path class="st31" d="M2595.2,1988c-375.9-10.4-751.9-16.8-1128-19.2c-7.6,0-13.9-8.2-13.9-18.3c-0.1-10,6.1-18.1,13.7-18.1
						c376.3,3.5,752.6,11,1128.7,22.4c6.3,0.2,11.4,7.8,11.2,16.9C2606.7,1980.9,2601.5,1988.1,2595.2,1988z"/>
					
						<linearGradient id="SVGID_30_" gradientUnits="userSpaceOnUse" x1="3130.1091" y1="2286.2349" x2="4277.1655" y2="2286.2349" gradientTransform="matrix(1 0 0 1 -1675.0461 0)">
						<stop  offset="0" style="stop-color:#8FC027"/>
						<stop  offset="0.9964" style="stop-color:#8EC025"/>
					</linearGradient>
					<path class="st32" d="M2590.4,2297.7c-373.9-0.4-747.8,3.1-1121.6,10.5c-7.6,0.1-13.8-7.9-13.8-17.9
						c-0.1-10,6.1-18.3,13.6-18.4c374-6.4,748.1-8.8,1122.3-7.4c6.3,0,11.3,7.5,11.2,16.6C2602,2290.3,2596.8,2297.8,2590.4,2297.7z
						"/>
				</g>
			</g>
			<g>
				
					<linearGradient id="SVGID_31_" gradientUnits="userSpaceOnUse" x1="2579.5547" y1="2452.2795" x2="3277.4622" y2="2452.2795" gradientTransform="matrix(1 0 0 1 -1675.0461 0)">
					<stop  offset="0" style="stop-color:#40447E"/>
					<stop  offset="0.9964" style="stop-color:#00373F"/>
				</linearGradient>
				<path class="st33" d="M1551.7,2302.9L1551.7,2302.9l-17.1-0.1l-74.1,2.3l-437.8,15.5c-13,0.3-25.4,2.8-36.9,7.2
					c-50.4,19.3-84.8,74.6-81,138.2l0.1,0.8c4.2,70.5,53.6,127.5,114.1,136.2c6.2,0.9,12.6,1.3,19.1,1.1l366.5-14.6l58-2.3l22.4-0.9
					l64.5-2.9l13.5-0.9h0.1l4.6,0.2l9.4-0.2l0.3-2.7l1.1-12l0.1-1.4l0.9-9.7l20.6-229.5l1.3-14.5l0.6-6.9l0.6-5.5L1551.7,2302.9z"/>
				<g>
					<path class="st30" d="M2583.4,2564l-965.9,6.2c-80.4,0.5-146.9-47.1-148.9-106.6l-1.4-40.5c-2.1-59.8,61.6-109.5,142.5-110.6
						l973.5-14.2L2583.4,2564z"/>
					
						<linearGradient id="SVGID_32_" gradientUnits="userSpaceOnUse" x1="3120.3933" y1="2434.3159" x2="4281.9409" y2="2434.3159" gradientTransform="matrix(1 0 0 1 -1675.0461 0)">
						<stop  offset="0" style="stop-color:#40447E"/>
						<stop  offset="0.9964" style="stop-color:#00373F"/>
					</linearGradient>
					<path class="st34" d="M2593.8,2578l-1017.4,6c-69.6,0.4-128.2-62.1-131-139.6l0-0.9c-2.8-77.9,51.8-142.4,122-143.5
						l1026.2-15.4c7.3-0.1,13.2,6.2,13.2,14.1c0,7.9-5.9,14.4-13.2,14.5l-1025.3,14.5c-56.6,0.8-100.6,52.7-98.5,115.6l0,0.9
						c2.2,62.6,49.5,113,105.7,112.6l1018.2-6.9c7.2,0,13.1,6.2,13.1,14C2606.9,2571.6,2601,2577.9,2593.8,2578z"/>
				</g>
			</g>
			<g>
				
					<linearGradient id="SVGID_33_" gradientUnits="userSpaceOnUse" x1="2576.7566" y1="3016.8994" x2="3298.2739" y2="3016.8994" gradientTransform="matrix(1 0 0 1 -1675.0461 0)">
					<stop  offset="0" style="stop-color:#40447E"/>
					<stop  offset="0.9964" style="stop-color:#00373F"/>
				</linearGradient>
				<path class="st35" d="M1565.4,2817.8l-16,0.5l-58.4,2l-31.1,1.1l-266.9,9.2l-11.2,0.4l-50.7,1.7l-81.2,2.8l-32.8,1.1
					c-10.3,0.2-20.2,2.4-29.7,6.4c-6.4,2.7-12.4,6.2-18.3,10.5c-40.1,28.9-67.5,91.6-67.5,163.6v1.1c0,98.2,51.2,180.5,115.7,183.5
					l532.2,15.1l33.9,1l1.8-19.2l0.9-9.3l31.4-319.2l2.2-18.4l2.4-19.9v0l0.8-12.7l0.1-3.3L1565.4,2817.8z"/>
				<g>
					<path class="st30" d="M2584.1,2838.4v331.3l-265.3,10.7l-674,27.1c-21.1,0.9-41.2-2.3-59.7-8.7
						c-58.6-20.3-100.2-73.4-100.2-137.5v-57.2c0-75.9,58.6-139.6,134.6-152.2c8.3-1.4,16.9-2.2,25.7-2.3l590.7-7L2584.1,2838.4z"/>
					<linearGradient id="SVGID_34_" gradientUnits="userSpaceOnUse" x1="1461.3898" y1="3024.9429" x2="2605.9509" y2="3024.9429">
						<stop  offset="0" style="stop-color:#40447E"/>
						<stop  offset="0.9964" style="stop-color:#00373F"/>
					</linearGradient>
					<path class="st36" d="M2606,3168.9c0,9.7-5.1,17.8-11.4,18.1l-254.5,10.6l-740,30.8c-17.8,0.8-34-3.3-49.7-11.4
						c-52.2-26.8-88.9-97.8-88.9-182.5v-1.2c0-109.7,62-199.7,138.5-201.2l0.5,0l21.3-0.2l621.7-6.6l351.2-3.8c0,0,0,0,0.1,0
						c6.3,0,11.4,8,11.4,17.7c0,9.7-5.1,17.8-11.4,17.9l-9.1,0.2l-355.2,4.8l-612.6,8.2l-17.2,0.2c-61.9,0.8-112.2,73.6-112.2,162.1
						v1.2c0,81.9,43,148.1,98.5,155.7c4.5,0.6,8.9,0.8,13.5,0.6L2302,3163l283.5-11l9.1-0.3C2600.9,3151.4,2606,3159.1,2606,3168.9z
						"/>
				</g>
				<g>
					<path class="st28" d="M1549.4,2822.5l-539,12.4c-49.5,1.1-89-38.8-89-89.1v-34.2c0-50.4,39.5-93.7,89-96.8l539-34.2V2822.5z"/>
					
						<linearGradient id="SVGID_35_" gradientUnits="userSpaceOnUse" x1="2576.2671" y1="2706.657" x2="3249.4927" y2="2706.657" gradientTransform="matrix(1 0 0 1 -1675.0461 0)">
						<stop  offset="0" style="stop-color:#FFC444"/>
						<stop  offset="0.9964" style="stop-color:#F36F56"/>
					</linearGradient>
					<path class="st37" d="M1473.6,2833.4l-456.4,13c-64.6,1.3-116-50.8-116-116.2v-0.7c0-65.4,51.4-122,116-126.3l456.4-36.3
						c8-0.5,100.8,5.6,100.8,12.8s-86.7,12.6-94.7,13.1l-462.6,34c-52.2,3.2-93.9,48.8-93.9,101.8v0.7c0,53,41.7,95,93.9,93.7
						l456.4-15.2c7.9-0.2,100.8,7.1,100.8,14.2S1481.6,2833.3,1473.6,2833.4z"/>
				</g>
				<g>
					<polygon class="st30" points="2584.1,2589.5 2584.1,2810.1 2248.1,2813.3 1622.4,2819.1 1571.3,2819.6 1549.3,2819.8 
						1491,2820.4 1484.8,2820.4 1484.8,2579.1 1544.3,2579.2 1544.3,2579.2 1574.4,2579.7 1577.2,2579.9 1840.4,2582.4 					"/>
					
						<linearGradient id="SVGID_36_" gradientUnits="userSpaceOnUse" x1="3134.9241" y1="2584.4749" x2="4280.981" y2="2584.4749" gradientTransform="matrix(1 0 0 1 -1675.0461 0)">
						<stop  offset="0" style="stop-color:#FFC444"/>
						<stop  offset="0.9964" style="stop-color:#F36F56"/>
					</linearGradient>
					<path class="st38" d="M2594.5,2602.1l-1120.9-9.4c-7.6-0.1-13.7-5.9-13.7-13s6.1-12.8,13.7-12.8l1120.9,11.7
						c6.3,0.1,11.4,5.4,11.4,11.9C2605.9,2596.9,2600.8,2602.1,2594.5,2602.1z"/>
					<linearGradient id="SVGID_37_" gradientUnits="userSpaceOnUse" x1="1459.881" y1="2816.6084" x2="2605.9509" y2="2816.6084">
						<stop  offset="0" style="stop-color:#FFC444"/>
						<stop  offset="0.9964" style="stop-color:#F36F56"/>
					</linearGradient>
					<path class="st39" d="M2606,2809.7c0,6.4-5.1,11.7-11.4,11.7c0,0,0,0-0.1,0l-351.3,3.8l-621.8,6.6l-21.5,0.3l-0.8,0.9
						l-125.5,2.1h-0.1c-6.1,0-11.2-4.5-13-9.7c-0.3-1-0.5-2.4-0.6-3.5c0-0.2,0-0.7,0-1c0-7.1,6.1-13.2,13.7-13.2h0.4l10.9-0.1
						l64.5-0.6l705.5-5.9l330.5-2.8l9.1-0.2C2600.8,2798.1,2606,2803.2,2606,2809.7z"/>
				</g>
				<path class="st40" d="M1431.7,3173.3l-120.3-7c-29.1-84.4-26.9-165.8,0-264.8l120.3,0.4
					C1407.5,3002.9,1411.2,3092.3,1431.7,3173.3z"/>
				
					<linearGradient id="SVGID_38_" gradientUnits="userSpaceOnUse" x1="3669.8032" y1="2825.5708" x2="3670.2698" y2="2825.5708" gradientTransform="matrix(1 0 0 1 -1675.0461 0)">
					<stop  offset="0" style="stop-color:#FFC444"/>
					<stop  offset="0.9964" style="stop-color:#F36F56"/>
				</linearGradient>
				<path class="st41" d="M1182.2,2844.5l-3.8-152.8l-138.2,154.8c0,0-74.7,41-61.8,112.9l85.4-34.6l75.9,26.8
					C1139.6,2951.6,1141.6,2876.1,1182.2,2844.5z"/>
				<linearGradient id="SVGID_39_" gradientUnits="userSpaceOnUse" x1="3557.7139" y1="2825.5708" x2="3558.1804" y2="2825.5708">
					<stop  offset="3.597120e-03" style="stop-color:#E38DDD"/>
					<stop  offset="1" style="stop-color:#9571F6"/>
				</linearGradient>
				<path class="st42" d="M1024.7,2701.3l153.7-9.6c0,0-72.3,55.9-38.7,259.8c0,0-65.7-21.2-94.3-57.6l-67,65.4
					C978.4,2959.4,937.5,2778.1,1024.7,2701.3z"/>
			</g>
		</g>
		<g>
			<linearGradient id="SVGID_40_" gradientUnits="userSpaceOnUse" x1="3557.7139" y1="2650.6028" x2="3558.1804" y2="2650.6028">
				<stop  offset="0" style="stop-color:#C6DD8F"/>
				<stop  offset="4.077378e-02" style="stop-color:#B5D387"/>
				<stop  offset="0.1656" style="stop-color:#85B772"/>
				<stop  offset="0.2943" style="stop-color:#5C9E60"/>
				<stop  offset="0.425" style="stop-color:#3B8B51"/>
				<stop  offset="0.5583" style="stop-color:#217B46"/>
				<stop  offset="0.6953" style="stop-color:#0F713D"/>
				<stop  offset="0.8381" style="stop-color:#046A39"/>
				<stop  offset="0.9964" style="stop-color:#006837"/>
			</linearGradient>
			<path class="st43" d="M1083.6,2052.2c-6-2.2-12.5,0.3-14.4,5.7L647.2,3235.2c-1.9,5.4,1.4,11.6,7.4,13.8c6,2.2,12.5-0.3,14.4-5.7
				L1091,2066.1C1092.9,2060.7,1089.6,2054.5,1083.6,2052.2z"/>
			<linearGradient id="SVGID_41_" gradientUnits="userSpaceOnUse" x1="3557.7139" y1="2212.4749" x2="3558.1804" y2="2212.4749">
				<stop  offset="0" style="stop-color:#C6DD8F"/>
				<stop  offset="4.077378e-02" style="stop-color:#B5D387"/>
				<stop  offset="0.1656" style="stop-color:#85B772"/>
				<stop  offset="0.2943" style="stop-color:#5C9E60"/>
				<stop  offset="0.425" style="stop-color:#3B8B51"/>
				<stop  offset="0.5583" style="stop-color:#217B46"/>
				<stop  offset="0.6953" style="stop-color:#0F713D"/>
				<stop  offset="0.8381" style="stop-color:#046A39"/>
				<stop  offset="0.9964" style="stop-color:#006837"/>
			</linearGradient>
			<path class="st44" d="M1303.9,2213.1c0,6.2-5,11.3-11.1,11.3h-262.7c-6.1,0-11.1-5.1-11.1-11.3v-1.3c0-6.2,5-11.3,11.1-11.3
				h262.7c6.1,0,11.1,5.1,11.1,11.3V2213.1z"/>
			<linearGradient id="SVGID_42_" gradientUnits="userSpaceOnUse" x1="3557.7139" y1="2427.3884" x2="3558.1804" y2="2427.3884">
				<stop  offset="0" style="stop-color:#C6DD8F"/>
				<stop  offset="4.077378e-02" style="stop-color:#B5D387"/>
				<stop  offset="0.1656" style="stop-color:#85B772"/>
				<stop  offset="0.2943" style="stop-color:#5C9E60"/>
				<stop  offset="0.425" style="stop-color:#3B8B51"/>
				<stop  offset="0.5583" style="stop-color:#217B46"/>
				<stop  offset="0.6953" style="stop-color:#0F713D"/>
				<stop  offset="0.8381" style="stop-color:#046A39"/>
				<stop  offset="0.9964" style="stop-color:#006837"/>
			</linearGradient>
			<path class="st45" d="M1226.8,2428c0,6.2-5,11.3-11.1,11.3H953c-6.1,0-11.1-5.1-11.1-11.3v-1.3c0-6.2,5-11.3,11.1-11.3h262.7
				c6.1,0,11.1,5.1,11.1,11.3V2428z"/>
			<linearGradient id="SVGID_43_" gradientUnits="userSpaceOnUse" x1="3557.7139" y1="2645.7131" x2="3558.1804" y2="2645.7131">
				<stop  offset="0" style="stop-color:#C6DD8F"/>
				<stop  offset="4.077378e-02" style="stop-color:#B5D387"/>
				<stop  offset="0.1656" style="stop-color:#85B772"/>
				<stop  offset="0.2943" style="stop-color:#5C9E60"/>
				<stop  offset="0.425" style="stop-color:#3B8B51"/>
				<stop  offset="0.5583" style="stop-color:#217B46"/>
				<stop  offset="0.6953" style="stop-color:#0F713D"/>
				<stop  offset="0.8381" style="stop-color:#046A39"/>
				<stop  offset="0.9964" style="stop-color:#006837"/>
			</linearGradient>
			<path class="st46" d="M1149.7,2646.4c0,6.2-5,11.3-11.1,11.3H875.9c-6.1,0-11.1-5.1-11.1-11.3v-1.3c0-6.2,5-11.3,11.1-11.3h262.7
				c6.1,0,11.1,5.1,11.1,11.3V2646.4z"/>
			<linearGradient id="SVGID_44_" gradientUnits="userSpaceOnUse" x1="3557.7139" y1="2870.8606" x2="3558.1804" y2="2870.8606">
				<stop  offset="0" style="stop-color:#C6DD8F"/>
				<stop  offset="4.077378e-02" style="stop-color:#B5D387"/>
				<stop  offset="0.1656" style="stop-color:#85B772"/>
				<stop  offset="0.2943" style="stop-color:#5C9E60"/>
				<stop  offset="0.425" style="stop-color:#3B8B51"/>
				<stop  offset="0.5583" style="stop-color:#217B46"/>
				<stop  offset="0.6953" style="stop-color:#0F713D"/>
				<stop  offset="0.8381" style="stop-color:#046A39"/>
				<stop  offset="0.9964" style="stop-color:#006837"/>
			</linearGradient>
			<path class="st47" d="M1069.3,2871.5c0,6.2-5,11.3-11.1,11.3H795.5c-6.1,0-11.1-5.1-11.1-11.3v-1.3c0-6.2,5-11.3,11.1-11.3h262.7
				c6.1,0,11.1,5.1,11.1,11.3V2871.5z"/>
			<linearGradient id="SVGID_45_" gradientUnits="userSpaceOnUse" x1="3557.7139" y1="3085.7739" x2="3558.1804" y2="3085.7739">
				<stop  offset="0" style="stop-color:#C6DD8F"/>
				<stop  offset="4.077378e-02" style="stop-color:#B5D387"/>
				<stop  offset="0.1656" style="stop-color:#85B772"/>
				<stop  offset="0.2943" style="stop-color:#5C9E60"/>
				<stop  offset="0.425" style="stop-color:#3B8B51"/>
				<stop  offset="0.5583" style="stop-color:#217B46"/>
				<stop  offset="0.6953" style="stop-color:#0F713D"/>
				<stop  offset="0.8381" style="stop-color:#046A39"/>
				<stop  offset="0.9964" style="stop-color:#006837"/>
			</linearGradient>
			<path class="st48" d="M992.2,3086.4c0,6.2-5,11.3-11.1,11.3H718.4c-6.1,0-11.1-5.1-11.1-11.3v-1.3c0-6.2,5-11.3,11.1-11.3h262.7
				c6.1,0,11.1,5.1,11.1,11.3V3086.4z"/>
			<linearGradient id="SVGID_46_" gradientUnits="userSpaceOnUse" x1="3557.7139" y1="2662.8005" x2="3558.1804" y2="2662.8005">
				<stop  offset="0" style="stop-color:#C6DD8F"/>
				<stop  offset="4.077378e-02" style="stop-color:#B5D387"/>
				<stop  offset="0.1656" style="stop-color:#85B772"/>
				<stop  offset="0.2943" style="stop-color:#5C9E60"/>
				<stop  offset="0.425" style="stop-color:#3B8B51"/>
				<stop  offset="0.5583" style="stop-color:#217B46"/>
				<stop  offset="0.6953" style="stop-color:#0F713D"/>
				<stop  offset="0.8381" style="stop-color:#046A39"/>
				<stop  offset="0.9964" style="stop-color:#006837"/>
			</linearGradient>
			<path class="st49" d="M1353.9,2044.1c-6.2-2.3-12.9,0.3-14.9,5.9L903.2,3267.2c-2,5.6,1.4,12,7.7,14.3c6.2,2.3,12.9-0.3,14.9-5.9
				l435.8-1217.2C1363.5,2052.8,1360.1,2046.4,1353.9,2044.1z"/>
		</g>
		<g>
			<linearGradient id="SVGID_47_" gradientUnits="userSpaceOnUse" x1="3557.7139" y1="2906.3213" x2="3558.1804" y2="2906.3213">
				<stop  offset="0" style="stop-color:#40447E"/>
				<stop  offset="0.9964" style="stop-color:#3C3B6B"/>
			</linearGradient>
			<path class="st50" d="M2584.1,2857.2V3152l9.8-0.3c6.3-0.2,11.8,7.4,11.8,17.2c0,9.7-5,17.8-11.3,18.1l-254.4,10.6
				c-7.1-5.4-13.9-11.2-20.5-17.2c-6.1-5.6-11.9-11.4-17.6-17.4c-51.9-55.7-83.9-131-83.9-213.8c0-30.3,4.3-59.6,12.3-87.2
				c1.8-6.6,3.9-13.1,6.2-19.4c2.1-5.8,4.3-11.5,6.8-17.1c1.7-4.1,3.6-8.2,5.5-12.1c2-4.1,4-8.2,6.2-12.1
				c16.7-31.2,38.5-59.3,64.3-82.9c55.9-63.3,136.3-103.2,226.3-103.2c13.3,0,28.5,0.9,38.5,2.6v180.7l9.8-0.1
				c6.3-0.1,11.8,5.2,11.8,11.6c0,6.4-4.9,11.8-11.2,11.9c6.3,0,11.4,7.8,11.4,17.5c0,9.7-5.8,17.7-12.1,17.8L2584.1,2857.2z"/>
			<g>
				<linearGradient id="SVGID_48_" gradientUnits="userSpaceOnUse" x1="2251.4858" y1="2949.2214" x2="2862.0398" y2="2949.2214">
					<stop  offset="0" style="stop-color:#444B8C"/>
					<stop  offset="0.9964" style="stop-color:#26264F"/>
				</linearGradient>
				<ellipse class="st51" cx="2556.8" cy="2949.2" rx="305.3" ry="310.7"/>
				<g>
					<linearGradient id="SVGID_49_" gradientUnits="userSpaceOnUse" x1="2274.5129" y1="2925.7817" x2="2885.0674" y2="2925.7817">
						<stop  offset="0" style="stop-color:#AA80F9"/>
						<stop  offset="0.9964" style="stop-color:#6165D7"/>
					</linearGradient>
					<ellipse class="st52" cx="2579.8" cy="2925.8" rx="305.3" ry="310.7"/>
					<linearGradient id="SVGID_50_" gradientUnits="userSpaceOnUse" x1="2295.5667" y1="2925.7815" x2="2864.0134" y2="2925.7815">
						<stop  offset="0" style="stop-color:#AA80F9"/>
						<stop  offset="0.9964" style="stop-color:#6165D7"/>
					</linearGradient>
					<path class="st53" d="M2864,2925.8c0,159.8-127.2,289.3-284.2,289.3c-56,0-108.2-16.5-152.2-44.9
						c-79.4-51.3-132.1-141.5-132.1-244.4c0-159.8,127.2-289.3,284.2-289.3c2.6,0,5.2,0,7.8,0.1
						C2741,2640.8,2864,2768.7,2864,2925.8z"/>
					<g>
						<path class="st0" d="M2369.7,2888.5"/>
						<path class="st0" d="M2362.6,2922.2"/>
						<path class="st0" d="M2362.6,2883.8"/>
					</g>
					<path class="st54" d="M2864,2925.8c0,159.8-127.2,289.3-284.2,289.3c-56,0-108.2-16.5-152.2-44.9c26.7-74,104-153.5,184-203.2
						c148.1-92.1,35.6-258.6-24-330.3C2741,2640.8,2864,2768.7,2864,2925.8z"/>
				</g>
			</g>
		</g>
	</g>
</g>
</svg>
