<?xml version="1.0" encoding="utf-8"?>
<!-- Generator: Adobe Illustrator 23.0.5, SVG Export Plug-In . SVG Version: 6.00 Build 0)  -->
<svg version="1.1" id="Layer_1" xmlns="http://www.w3.org/2000/svg" xmlns:xlink="http://www.w3.org/1999/xlink" x="0px" y="0px"
	 viewBox="0 0 3543.6 2952" style="enable-background:new 0 0 3543.6 2952;" xml:space="preserve">
<style type="text/css">
	.st0{display:none;}
	.st1{display:inline;}
	.st2{clip-path:url(#SVGID_2_);}
	.st3{fill:#231F20;}
	.st4{display:none;opacity:0.5;}
	.st5{display:inline;fill:#231F20;}
	.st6{fill:#004450;}
	.st7{fill:#7B9E3E;}
	.st8{fill:#1C2815;}
	.st9{fill:#FFFFFF;}
</style>
<g>
	<g id="Layer_1-2">
		<g class="st0">
			<g class="st1">
				<defs>
					<rect id="SVGID_1_" x="1640.9" y="82.6" width="1103.3" height="566.7"/>
				</defs>
				<clipPath id="SVGID_2_">
					<use xlink:href="#SVGID_1_"  style="overflow:visible;"/>
				</clipPath>
				<g class="st2">
					<rect x="1645.6" y="545.3" class="st3" width="9.9" height="74.5"/>
					<path class="st3" d="M1670.3,565.9h8.3v8.5h0.2c3.8-6.7,9.8-9.8,17.5-9.8c14.2,0,18.6,8.2,18.6,19.7v35.5h-8.9v-36.5
						c0-6.6-4.2-10.8-11-10.8c-10.7,0-15.9,7.2-15.9,16.9v30.5h-8.9L1670.3,565.9z"/>
					<polygon class="st3" points="1752.2,619.8 1742.7,619.8 1722.7,565.9 1732.6,565.9 1747.7,610.8 1747.9,610.8 1762.6,565.9 
						1771.9,565.9 					"/>
					<path class="st3" d="M1825.6,602.7c-2.4,11.9-11,18.4-23.1,18.4c-17.2,0-25.3-11.9-25.9-28.4c0-16.2,10.6-28,25.3-28
						c19.1,0,24.9,17.8,24.4,30.9h-40.4c-0.3,9.4,5,17.7,16.8,17.7c7.3,0,12.4-3.5,14-10.5L1825.6,602.7z M1817.1,587.7
						c-0.4-8.5-6.8-15.2-15.6-15.2c-9.3,0-14.8,7-15.4,15.2H1817.1z"/>
					<path class="st3" d="M1840.7,602.8c0.3,7.9,7.2,10.4,14.5,10.4c5.5,0,13-1.3,13-8s-8.8-8-17.6-10s-17.6-4.9-17.6-15.2
						c0-10.8,10.7-15.3,20.1-15.3c11.9,0,21.4,3.8,22.1,16.9h-8.9c-0.6-6.9-6.7-9.1-12.5-9.1c-5.3,0-11.5,1.5-11.5,6.9
						c0,6.4,9.4,7.4,17.6,9.4c8.9,2,17.6,4.9,17.6,15.3c0,12.8-12,17-22.9,17c-12.1,0-22.3-4.9-22.8-18.3L1840.7,602.8z"/>
					<path class="st3" d="M1899.3,565.9h10.8v7.8h-10.8v33.5c0,4.1,1.2,4.8,6.7,4.8h4.1v7.8h-6.8c-9.2,0-12.8-1.9-12.8-11.8v-34.3
						h-9.2v-7.8h9.2v-16.2h8.8L1899.3,565.9L1899.3,565.9z"/>
					<path class="st3" d="M1928.9,556.2h-8.9v-10.8h8.9V556.2z M1920,565.9h8.9v53.9h-8.9V565.9z"/>
					<path class="st3" d="M1942.2,565.9h8.3v8.5h0.2c3.7-6.7,9.8-9.8,17.5-9.8c14.2,0,18.6,8.2,18.6,19.7v35.5h-8.8v-36.5
						c0-6.6-4.2-10.8-11-10.8c-10.7,0-16,7.2-16,16.9v30.5h-8.9L1942.2,565.9z"/>
					<path class="st3" d="M2046.3,615.2c0,17.5-8,26.5-25,26.5c-10.1,0-21.8-4.1-22.3-15.8h8.8c0.4,6.5,8.2,8.8,14,8.8
						c11.6,0,16.2-8.3,16.2-20.4v-3.6h-0.2c-2.9,6.6-10,9.8-16.8,9.8c-16.1,0-24.1-12.6-24.1-27.3c0-12.7,6.3-28.5,24.9-28.5
						c6.8,0,12.8,3,16,9h0.1V566h8.3L2046.3,615.2z M2037.6,591.7c0-9.5-4.2-19.3-15.3-19.3c-11.4,0-16,9.3-16,19.6
						c0,9.7,3.5,20.6,15.2,20.6S2037.6,601.8,2037.6,591.7z"/>
					<path class="st3" d="M2097.3,556.2h-8.9v-10.8h8.9V556.2z M2088.4,565.9h8.9v53.9h-8.9V565.9z"/>
					<path class="st3" d="M2110.6,565.9h8.4v8.5h0.2c3.8-6.7,9.8-9.8,17.5-9.8c14.2,0,18.6,8.2,18.6,19.7v35.5h-8.9v-36.5
						c0-6.6-4.2-10.8-11-10.8c-10.7,0-15.9,7.2-15.9,16.9v30.5h-8.9L2110.6,565.9z"/>
					<path class="st3" d="M2196.5,565.9h8.3v11.4h0.2c4.3-8.7,10.2-12.9,19.8-12.6v9.4c-14.3,0-19.5,8.1-19.5,21.8v24h-8.9
						L2196.5,565.9L2196.5,565.9z"/>
					<path class="st3" d="M2275.8,619.8h-8.3v-8.5h-0.2c-3.8,6.7-9.8,9.8-17.5,9.8c-14.2,0-18.6-8.1-18.6-19.7v-35.5h8.9v36.5
						c0,6.6,4.2,10.8,10.9,10.8c10.7,0,16-7.2,16-16.9v-30.5h8.9L2275.8,619.8z"/>
					<path class="st3" d="M2288.4,565.9h8.3v11.4h0.2c4.3-8.7,10.2-12.9,19.8-12.6v9.4c-14.3,0-19.5,8.1-19.5,21.8v24h-8.9
						L2288.4,565.9L2288.4,565.9z"/>
					<path class="st3" d="M2370.8,619.6c-1.9,1.1-4.1,1.6-6.3,1.5c-4.6,0-7.5-2.5-7.5-8.3c-4.9,5.7-11.5,8.3-19,8.3
						c-9.8,0-17.8-4.4-17.8-15.1c0-12.2,9.1-14.8,18.2-16.6c9.8-1.9,18.2-1.3,18.2-7.9c0-7.7-6.4-9-12-9c-7.5,0-13,2.3-13.4,10.2
						h-8.9c0.5-13.3,10.9-18,22.9-18c9.7,0,20.2,2.2,20.2,14.8v27.8c0,4.2,0,6,2.8,6c0.9,0,1.8-0.2,2.7-0.5L2370.8,619.6z
						 M2356.4,591.9c-3.4,2.5-10.1,2.6-16.1,3.7s-10.9,3.1-10.9,9.7c0,5.8,5,7.9,10.4,7.9c11.7,0,16.5-7.3,16.5-12.2L2356.4,591.9z"
						/>
					<rect x="2379.2" y="545.3" class="st3" width="8.9" height="74.5"/>
					<path class="st3" d="M2430.3,565.9h8.9v7.3h0.2c2.9-6,9.8-8.6,17.2-8.6c16.6,0,24.8,13.1,24.8,28.4s-8.1,28-24.6,28
						c-5.5,0-13.4-2.1-17.4-8.5h-0.2v27.8h-8.9V565.9z M2455.3,572.4c-11.9,0-16.5,10.2-16.5,20.3c0,10.6,4.8,20.4,17,20.4
						s16.2-10.3,16.2-20.9C2472,582.2,2466.8,572.4,2455.3,572.4L2455.3,572.4z"/>
					<path class="st3" d="M2537.4,602.7c-2.4,11.9-10.9,18.4-23,18.4c-17.2,0-25.3-11.9-25.9-28.4c0-16.2,10.6-28,25.4-28
						c19.1,0,24.9,17.8,24.4,30.9H2498c-0.3,9.4,5,17.7,16.8,17.7c7.3,0,12.4-3.5,14-10.5L2537.4,602.7z M2528.9,587.7
						c-0.4-8.5-6.8-15.2-15.5-15.2c-9.3,0-14.8,7-15.4,15.2H2528.9z"/>
					<path class="st3" d="M2570.3,564.6c17.1,0,26.2,12.4,26.2,28.3s-9.1,28.1-26.2,28.1s-26.2-12.4-26.2-28.2
						S2553.2,564.6,2570.3,564.6 M2570.3,613.2c9.3,0,16.8-7.3,16.8-20.3s-7.5-20.4-16.8-20.4s-16.8,7.3-16.8,20.4
						S2561.1,613.2,2570.3,613.2L2570.3,613.2z"/>
					<path class="st3" d="M2606.9,565.9h8.9v7.3h0.2c2.9-6,9.8-8.6,17.2-8.6c16.6,0,24.8,13.1,24.8,28.4s-8.1,28-24.6,28
						c-5.5,0-13.4-2.1-17.4-8.5h-0.2v27.8h-8.9V565.9z M2631.9,572.4c-11.9,0-16.5,10.2-16.5,20.3c0,10.6,4.8,20.4,17,20.4
						s16.1-10.3,16.1-20.9C2648.6,582.2,2643.4,572.4,2631.9,572.4L2631.9,572.4z"/>
					<rect x="2668.6" y="545.3" class="st3" width="8.9" height="74.5"/>
					<path class="st3" d="M2736.7,602.7c-2.4,11.9-10.9,18.4-23,18.4c-17.2,0-25.3-11.9-25.9-28.4c0-16.2,10.6-28,25.4-28
						c19.1,0,24.9,17.8,24.4,30.9h-40.4c-0.3,9.4,5,17.7,16.8,17.7c7.3,0,12.4-3.5,14-10.5L2736.7,602.7z M2728.2,587.7
						c-0.4-8.5-6.8-15.2-15.5-15.2c-9.3,0-14.8,7-15.4,15.2H2728.2z"/>
					<path class="st3" d="M1920.4,461.5h41.2V300.1h-41.2V461.5z M1990.9,461.5h39.5V400h46.9v-36.2h-46.9v-27.5h48.7v-36.2h-88.2
						L1990.9,461.5z M2184.1,438.2l7.9,23.3h44.7l-64.2-161.4H2140l-64.8,161.4h44.3l8.5-23.3H2184.1z M2155.9,350.2h0.6l16.6,55.2
						h-33.8L2155.9,350.2z M2251,461.5h56.5c61.3,0,83.1-37.1,83.1-81.1c0-17.7-3.7-34.9-14.8-50.2c-20.9-30.1-53.2-30.1-71.4-30.1
						H2251V461.5z M2292.2,336.3h17.9c18.3,0,26.6,7.6,31.4,14.9c5.9,9.1,7.8,20.7,7.8,29.9c0,22.9-8.7,44.3-39.5,44.3h-17.7v-89.1
						H2292.2z"/>
					<path class="st3" d="M1764.1,207.2c-2.2-2.8-3.1-4.7-5.6-7.3c-2-2.1-4.3-4-6.8-5.4c-2-1.2-3.3-1.6-5.3-2.8
						c-2.1-1.2-4.1-2.5-5.9-4.2c-1.8-1.6-3.3-3.4-4.7-5.4c-2-2.5-3.6-5.3-4.8-8.4c-1.1-2.6-1.8-5.3-2.1-8.1
						c-0.4-2.9-0.3-5.8,0.1-8.7c0.3-2.1,0.8-4.3,1.5-6.3c0.4-1.3,0.9-2.6,1.5-3.7c0.6-1.1,1.3-2,2.1-2.9V93.6h3.1V145
						c0.2,2.8-0.1,4.5,0.6,7.3c0.4,2.2,1.3,4.4,2.5,6.2c1.3,2.2,3.1,4,5.3,5.3c1,0.9,2.3,1.5,3.6,1.8c0.6,0.1,1.3,0.1,1.9,0.1
						c-0.8-2.8-1.2-5.7-1.2-8.7c-0.1-3.1,0.4-6.2,1.3-9.1V93.6h3v49.3l0.1,0.1l0.1-0.3c0.7-0.8,1.4-1.6,2.2-2.4
						c0.7-0.6,1.4-1.1,2.2-1.6c0.7-0.4,1.5-0.7,2.3-0.9c1-0.2,1.9-0.3,2.9-0.3s1.9,0.1,2.9,0.3c0.8,0.2,1.6,0.5,2.3,0.9
						c0.8,0.4,1.6,0.9,2.2,1.6c0.8,0.7,1.5,1.5,2.2,2.4l0.2,0.3l0.1-0.1V93.6h3v54.3c1,2.9,1.4,6,1.3,9.1c0,2.9-0.4,5.8-1.2,8.6
						c0.6,0,1.3,0,1.9-0.1c1.3-0.4,2.5-1,3.6-1.8c2.2-1.3,4-3.1,5.3-5.3c1.2-1.9,2.1-4,2.5-6.2c0.7-2.8,0.3-4.4,0.6-7.3V93.6h3V144
						c0.9,0.9,1.6,1.8,2.2,2.9c0.6,1.2,1.1,2.4,1.5,3.7c0.7,2.1,1.2,4.2,1.5,6.3c0.5,2.9,0.5,5.8,0.2,8.7c-0.3,2.8-1,5.5-2.1,8.1
						c-1.2,3-2.8,5.8-4.8,8.4c-1.3,2-2.9,3.8-4.7,5.4c-1.8,1.6-3.8,3-5.9,4.2c-2,1.2-3.3,1.5-5.3,2.8c-2.5,1.5-4.8,3.3-6.8,5.4
						C1767.1,202.4,1766.3,204.3,1764.1,207.2"/>
					<path class="st3" d="M1764.1,250.5c-4.2-7.1-9.9-13.1-16.7-17.7c0,0-2.6-1.8-9.2-5.5c-5.4-3-8.8-6.8-11.9-10.5
						c-17.8-26.3-8-50-6.3-49.5l0.2-0.1l-0.2,0.1V93.6h3V173c0,0-1.5,9.1,12.3,15.3c8.9,3.9,20.8,14.7,28.7,28.4
						c7.9-13.8,19.9-24.5,28.8-28.4c13.8-6.1,12.3-15.3,12.3-15.3V93.6h3v73.6l-0.2-0.1l0.2,0.1c1.8-0.5,11.5,23.2-6.2,49.5
						c-3.1,3.7-6.6,7.5-11.9,10.5c-6.6,3.7-9.2,5.5-9.2,5.5C1773.9,237.4,1768.2,243.4,1764.1,250.5"/>
					<path class="st3" d="M1764.1,294.3c-3.6-9.5-11.2-17-20.8-20.4c-56-20.8-35.7-64.8-33.7-66.9V93.6h3.1v113.1
						c0.2,2.7,0.8,5.4,1.7,8c1.6,4.4,4.5,9.1,7.3,10.9c6.9,4.2,11.6,5.1,18.1,8.5c5.8,3,13,7.9,24.3,20.9
						c11.3-13,18.5-17.9,24.3-20.9c6.5-3.4,11.2-4.3,18.1-8.5c2.9-1.8,5.7-6.4,7.3-10.9c0.9-2.6,1.5-5.3,1.7-8V93.6h3.1V207
						c1.9,2,22.3,46-33.7,66.9C1775.3,277.3,1767.7,284.7,1764.1,294.3"/>
					<path class="st3" d="M1682.2,461.5h-36.3v-32h36.2c15.9,0,28.8-12.9,28.7-28.8V300.2h31l0.1,101.5
						c0.1,32.9-26.5,59.7-59.5,59.8C1682.4,461.5,1682.3,461.5,1682.2,461.5"/>
					<path class="st3" d="M1846,461.5h36.3v-32h-36.2c-15.9,0-28.7-12.9-28.7-28.8V300.2h-31v101.5
						C1786.4,434.7,1813,461.4,1846,461.5C1845.9,461.5,1846,461.5,1846,461.5"/>
					<path class="st3" d="M1681.8,500.3h-35.9v-32h36.2c41.1,0,66.6-32.2,66.6-67.6V300.2h31v101.5
						C1779.6,455.2,1737.2,500.3,1681.8,500.3"/>
				</g>
			</g>
		</g>
		<g class="st4">
			<rect x="1504.1" class="st5" width="5.1" height="731.8"/>
		</g>
		<path class="st6" d="M484.5,1655.9L843,1985.1c-5.8,0.2-9.1,0.5-12.3,0.5c-70.6,0-141.2-0.1-211.8,0.2c-7,0-12.1-2.3-17.1-6.9
			c-94.6-87.1-189.3-174.1-284.1-261c-47-43.1-94-86.3-141-129.4c-2.4-2.2-5-4.3-9.2-7.8c-1.2,28.5-0.4,55.1-0.6,81.6
			c-0.2,26.8,0,53.6,0,80.4v240.8c-8.3,2.6-155.1,3-165.5,0.6V916c4.2-0.2,7.8-0.5,11.4-0.5c108.6,0,217.2-0.8,325.8,0.2
			c141.8,1.3,256.6,58.5,342.8,171.3c39.3,51.3,60.8,110,66.5,174.5c5.8,64.8-2.9,127.2-30.4,186.6c-24.1,52-60,95-103.5,131.8
			c-36,30.7-76.8,55-120.9,72.1C490.7,1652.9,488.4,1654.1,484.5,1655.9z M167.6,1526.8c3.9,0.2,6.6,0.4,9.3,0.4
			c51.9,0,103.8,0.1,155.7-0.1c12.2,0,24.4-0.8,36.5-2.2c72.3-8.6,130-43.2,173.5-100.9c54.1-71.9,56.1-173.9,4.2-246.8
			c-50.1-70.4-119.3-107.1-205.8-109c-54.3-1.2-108.6-0.2-162.9-0.2c-3.3,0-6.6,0.4-10.5,0.6V1526.8z"/>
		<path class="st6" d="M2711.8,1985.6v-1069c2.3-0.5,4.6-0.9,7-1c90.9,0.1,182-2.6,272.7,1.1c196.8,8,353,94.2,467.4,254.2
			c49,68.5,75.1,146.1,82.4,230c6.9,79.6-1.6,157.1-30.6,231.9c-27,69.9-69.2,129.6-122.4,181.7c-63.7,62.4-137,109.5-221.6,138.4
			c-45.7,15.6-92.7,25.8-141,29.4c-25,1.8-50.1,3-75.2,3.2c-75.3,0.4-150.6,0.1-226,0.1L2711.8,1985.6z M2878.1,1832.7
			c4.2,0.3,7.5,0.6,10.8,0.6c24.4,0,48.9,0.2,73.3,0c29.5-0.3,58.9-2.5,88-8.1c79.7-15.4,148.9-51.3,208.1-106.6
			c81.4-76,122.8-168.9,119.3-281c-2.1-65.6-19.2-126.9-56.6-181c-84.2-121.7-201-184.4-349-188.5c-27.8-0.8-55.6-0.1-83.4-0.1
			c-3.3,0-6.6,0.4-10.4,0.6L2878.1,1832.7z"/>
		<path class="st7" d="M844.1,1982.1v-12.5c0-57.3,0.2-114.7-0.2-172c-0.1-9.2,3-13.8,11.1-17.9c95.1-48,190.1-96.2,284.9-144.6
			c116.7-59.4,233.4-118.8,350.1-178.2c3.2-1.6,6.1-3.7,10.8-6.5c-5.2-3-8.5-5.2-12-7c-67.1-34.2-134.2-68.3-201.3-102.4
			c-71.3-36.3-142.7-72.5-214.1-108.8c-73.5-37.3-146.9-74.7-220.4-112c-6.1-3.1-9.1-6.6-9-14c0.3-59.7,0.2-119.4,0.2-179.2
			c0-2,0.3-4,0.4-5.7c0.4-0.3,0.9-0.5,1.3-0.8c0.3-0.1,0.7-0.3,1-0.1c355.7,175.9,711.4,351.8,1067,527.7c1.3,0.8,2.5,1.7,3.7,2.7
			L844.1,1982.1z"/>
		<path class="st6" d="M1658.7,915.5h12.5c107.9,0,215.8-0.5,323.7,0.1c130.9,0.8,240.1,50.2,326.1,149.2
			c51,58.7,79.3,127.1,84.8,205c5.6,81.1-11.1,156.9-57.4,224.3c-60.1,87.6-141.7,145.7-245,172.2c-34.9,8.8-70.8,13.2-106.7,12.9
			c-52.9-0.2-105.9,0-158.8,0h-13.3c-0.3,5.4-0.8,10-0.8,14.6c-0.1,92.3-0.1,184.6,0,276.9v12.7c-8.3,2.6-153.2,3.1-165.1,0.8
			c-0.2-3.1-0.5-6.3-0.5-9.6c0-104.2-0.1-208.3-0.2-312.5c0-7.2,2.4-10.7,8.7-13.9c79.1-39,158-78.4,237-117.4
			c4.9-2.2,10.2-3.4,15.6-3.4c26.5-0.4,53,0.2,79.4-0.4c80.6-1.7,146.4-34.4,196.6-97.1c65.2-81.5,60.8-197.8-9.4-275.8
			c-41.7-46.4-93.3-74.8-155.3-83.5c-10.7-1.5-21.6-2.4-32.4-2.5c-54.6-0.3-109.3-0.1-163.9-0.1c-3,0-6,0.3-10.4,0.5
			c-0.3,44.2-0.1,87.8-0.1,131.5c0,43.4,0,86.8,0,130.2c-8.3-1.1-148.1-69.2-165.1-80L1658.7,915.5z"/>
		<path class="st6" d="M2462.6,916h163.2c2,8,2.7,1054.1,0.8,1067.7c-7,2.2-146.3,3.1-163.1,1.1c-0.3-0.3-0.6-0.5-0.8-0.7
			s-0.6-0.5-0.6-0.8c-0.4-2.3-0.6-4.7-0.7-7c0-351.8,0.1-703.7,0.2-1055.5C2461.5,919.4,2462.1,918.1,2462.6,916z"/>
		<path class="st8" d="M2295,2495.1h-39c-34.8-108.1-69.6-216-104.3-323.9l-2.4-0.1c-35,107.7-70.1,215.6-105.3,323.7h-38.7
			L1879.1,2121h40.5l105.3,330.8c11.6-26.7,18.9-54.7,27.9-82.1c9-27.4,17.6-54.9,26.4-82.3c8.8-27.8,17.6-55.6,26.3-83.4
			c8.7-27.4,17.3-54.9,26.2-83h38.4c35.1,110.1,70.2,220.5,106.1,333.4c9-23.6,14.5-45.8,21.6-67.4c7.3-22.2,14.5-44.5,21.6-66.8
			c7-22,13.9-44,20.8-65.9c7-22.3,14-44.6,21.1-66.9c6.9-22,13.9-43.9,21.1-66.4h39.5L2295,2495.1z"/>
		<path class="st8" d="M1633.5,2305.3c0.2,34.8-8.2,64.9-23.9,92.9c-31.1,55.4-78.4,88.7-140.7,98.1
			c-71.1,10.8-133.4-9.9-180.2-64.9c-97-114.1-36.6-274.3,99.7-308c70-17.3,133.3-1.1,186.7,48.2
			C1612.4,2206,1633.7,2254.5,1633.5,2305.3z M1595.5,2308.1c1.5-86.1-72-157.6-157.2-157.2c-87.1,0.4-158.2,69.6-159.1,154.7
			c-0.9,80,65.6,159.3,157.6,160C1530.8,2466.2,1596.8,2384.1,1595.5,2308.1L1595.5,2308.1z"/>
		<path class="st8" d="M867,2365.8l89.2,129.6c-14.6,0-27.4,0.3-40.1-0.3c-2.5-0.1-5.4-3.6-7.2-6.2c-13.3-19.7-26.4-39.4-39.4-59.3
			c-11.2-17-22.2-34.1-33.2-51.2c-2.4-3.7-4.8-5.8-9.7-5.7c-38.7,0.4-77.3,0.4-116,0.6c-2,0-4,0.4-7.4,0.7c0,13.3-0.1,26.4-0.1,39.5
			c0,13.6,0,27.1,0,40.7v40.4H667v-373.1c1.4-0.3,2.7-0.6,4.1-0.7c50.9,0.1,101.7-0.3,152.6,0.4c25.3,0.4,49.8,6.3,72.2,18.7
			c32.2,17.8,50.4,45.3,55.7,81.6c3.5,22.5,2,45.5-4.3,67.4c-7.1,24.2-20.6,44.4-41.6,58.5c-9.2,6.1-19.9,10-29.9,14.8
			C873.3,2363.5,870.8,2364.3,867,2365.8z M703.7,2340.3c1.7,0.3,3.3,0.5,5,0.6c36,0,71.9,0.2,107.9-0.2c16.7-0.2,33.2-3.6,48.5-10
			c25.8-10.8,43.1-29.4,49.2-56.9c2.5-11.1,3-22.9,2.8-34.3c-0.7-36.5-19.9-63-53.9-76.3c-18.3-7.1-37.5-9.2-56.9-9.4
			c-31.2-0.4-62.4-0.1-93.7-0.1c-2.9,0-5.8,0.5-9,0.8L703.7,2340.3z"/>
		<path class="st8" d="M3500.9,2291v-169.6h35.1c2.3,7.1,3,359,0.6,374.2H3501V2329c-1.1-1.3-1.3-1.6-1.6-1.9
			c-0.2-0.3-0.5-0.4-0.8-0.6c-1.7-0.3-3.3-0.5-5-0.6c-74.3,0-148.6,0-222.9,0.1c-1,0-1.9,0.5-4.1,1.1v167.7h-35.4
			c-0.3-0.2-0.5-0.4-0.8-0.6c-0.3-0.2-0.4-0.5-0.6-0.8c-0.3-1.3-0.5-2.7-0.6-4c0-121.1,0-242.2,0-363.4c0.1-1.5,0.4-3.1,0.8-4.6h36
			V2290C3273.8,2292.6,3484.2,2293.4,3500.9,2291z"/>
		<path class="st8" d="M300.1,2312.8h32c0.3,3,0.7,5.6,0.7,8.2c0,40.4-0.1,80.7,0.2,121.1c0,6.1-2.2,9.9-7,13.4
			c-29.4,22.2-64,36.4-100.5,41.4c-62,8.6-117.7-7.1-163.5-50c-94.2-88.2-79.2-236.2,32.7-302c72.8-42.9,169.4-34.9,234.4,19
			c1.5,1.3,3.1,2.5,5.4,4.3l-21.5,26.4c-3-2.3-5.5-4.3-8.1-6.4c-57.3-46.6-144.7-52.9-207.1-3.4c-68.2,54.1-79.3,151.2-25.5,219.8
			c45.5,58.1,125.6,77.6,196.3,45c8.6-4,16.6-9.1,25-13.5c5.1-2.7,6.7-6.5,6.7-12.3c-0.3-32.9-0.1-65.8-0.1-98.7v-12.3H300.1z"/>
		<path class="st8" d="M2816.4,2153.6v341.2h-37.3c-0.3-22.6-0.1-45.1-0.1-67.7s0-45.5,0-68.2V2154c-41.4-0.8-81.8,0.1-123-0.5
			v-31.6c8-2.1,273.3-2.5,284.6-0.2v31.9L2816.4,2153.6z"/>
		<g>
			<rect x="2.8" y="2622.4" class="st6" width="3538.1" height="329.6"/>
		</g>
	</g>
</g>
<g>
	<path class="st9" d="M400,2797v84.1h-19.6v-183.9h39.1c15.7,0,23.5,0,27.4,2c5.9,2,13.7,5.9,17.6,7.8c5.9,5.9,9.8,9.8,15.7,17.6
		s5.9,17.6,5.9,23.5c0,9.8-2,17.6-5.9,23.5c-5.9,7.8-7.8,15.7-15.7,17.6c-5.9,5.9-9.8,5.9-17.6,7.8c-5.9,2-17.6,2-27.4,2h-5.9
		L400,2797L400,2797z M400,2777.4h13.7c17.6,0,31.3-2,39.1-5.9c5.9-5.9,9.8-13.7,9.8-23.5c0-13.7-5.9-17.6-9.8-25.4
		c-5.9-5.9-17.6-7.8-39.1-7.8H400V2777.4z"/>
	<path class="st9" d="M830.4,2879.1v-183.9h43c13.7,0,19.6,0,27.4,2c5.9,2,13.7,5.9,17.6,7.8c5.9,5.9,9.8,9.8,13.7,17.6
		c5.9,7.8,5.9,17.6,5.9,23.5c0,17.6-5.9,27.4-13.7,35.2c-7.8,7.8-19.6,13.7-39.1,13.7h-5.9l70.4,90h-27.4l-66.5-90h-5.9v90
		L830.4,2879.1L830.4,2879.1z M851.9,2712.9v60.6h17.6c17.6,0,27.4-2,35.2-5.9c5.9-5.9,7.8-13.7,7.8-23.5c0-13.7-5.9-17.6-9.8-25.4
		c-5.9-5.9-17.6-7.8-33.3-7.8h-17.6V2712.9z"/>
	<path class="st9" d="M1479.9,2787.2c0,15.7-2,25.4-7.8,39.1c-5.9,13.7-13.7,19.6-19.6,31.3c-9.8,9.8-17.6,17.6-31.3,19.6
		c-13.7,5.9-25.4,7.8-39.1,7.8s-25.4-2-39.1-7.8c-13.7-5.9-23.5-13.7-31.3-19.6c-9.8-9.8-17.6-17.6-19.6-31.3
		c-5.9-13.7-7.8-23.5-7.8-39.1c0-15.7,2-25.4,7.8-39.1c5.9-13.7,13.7-19.6,19.6-31.3c7.8-9.8,17.6-17.6,31.3-19.6
		c13.7-5.9,25.4-7.8,39.1-7.8c15.7,0,25.4,2,39.1,7.8c13.7,5.9,23.5,13.7,31.3,19.6c9.8,9.8,17.6,17.6,19.6,31.3
		C1477.9,2761.8,1479.9,2775.5,1479.9,2787.2z M1382,2863.5c9.8,0,17.6-2,27.4-5.9c9.8-5.9,17.6-9.8,25.4-17.6
		c7.8-7.8,15.7-17.6,17.6-25.4c5.9-9.8,5.9-17.6,5.9-27.4s-2-17.6-5.9-27.4c-5.9-9.8-9.8-17.6-17.6-25.4
		c-7.8-7.8-17.6-15.7-25.4-17.6c-9.8-5.9-17.6-5.9-27.4-5.9s-17.6,2-27.4,5.9c-9.8,5.9-17.6,9.8-23.5,17.6
		c-5.9,7.8-15.7,17.6-17.6,25.4c-5.9,9.8-5.9,17.6-5.9,27.4s2,17.6,5.9,27.4c5.9,9.8,9.8,17.6,17.6,25.4
		c7.8,7.8,17.6,15.7,25.4,17.6C1360.5,2861.5,1370.3,2863.5,1382,2863.5z"/>
	<path class="st9" d="M1873.1,2693.3h19.6v142.8c0,17.6-5.9,27.4-9.8,35.2c-7.8,7.8-17.6,13.7-31.3,13.7c-7.8,0-15.7-2-17.6-5.9
		c-5.9-5.9-13.7-7.8-17.6-15.7l15.7-15.7c5.9,5.9,7.8,7.8,13.7,9.8c5.9,2,7.8,5.9,13.7,5.9c5.9,0,13.7-2,15.7-7.8s5.9-17.6,5.9-27.4
		L1873.1,2693.3L1873.1,2693.3z"/>
	<path class="st9" d="M2262.4,2879.1v-183.9h95.9v17.6h-74.3v52.8h74.3v17.6h-74.3v70.4h74.3v17.6L2262.4,2879.1L2262.4,2879.1z"/>
	<path class="st9" d="M2864.9,2738.3c-9.8-9.8-17.6-17.6-27.4-19.6c-9.8-5.9-19.6-7.8-33.3-7.8c-9.8,0-17.6,2-27.4,5.9
		c-9.8,2-17.6,9.8-23.5,17.6c-5.9,7.8-13.7,17.6-17.6,25.4c-5.9,9.8-5.9,17.6-5.9,27.4c0,7.8,2,17.6,5.9,23.5
		c2,7.8,5.9,15.7,9.8,17.6c7.8,9.8,17.6,17.6,27.4,23.5c13.7,5.9,19.6,7.8,35.2,7.8c13.7,0,23.5-2,33.3-7.8
		c9.8-5.9,17.6-13.7,27.4-19.6v27.4c-9.8,5.9-17.6,13.7-27.4,17.6c-9.8,5.9-19.6,5.9-33.3,5.9c-9.8,0-17.6-2-27.4-5.9
		c-9.8-2-17.6-7.8-25.4-13.7c-15.7-9.8-23.5-19.6-31.3-35.2c-7.8-15.7-9.8-27.4-9.8-45c0-15.7,2-27.4,7.8-39.1
		c5.9-13.7,13.7-19.6,19.6-31.3c9.8-9.8,17.6-17.6,31.3-17.6c13.7-5.9,23.5-5.9,39.1-5.9c9.8,0,19.6,2,31.3,5.9
		c9.8,5.9,17.6,7.8,27.4,17.6L2864.9,2738.3L2864.9,2738.3z"/>
	<path class="st9" d="M3258.1,2879.1v-162.4h-52.8v-19.6h127.2v19.6h-52.8v162.4H3258.1z"/>
</g>
</svg>
