<?xml version="1.0" encoding="utf-8"?>
<!-- Generator: Adobe Illustrator 23.0.5, SVG Export Plug-In . SVG Version: 6.00 Build 0)  -->
<svg version="1.1" id="Layer_1" xmlns="http://www.w3.org/2000/svg" xmlns:xlink="http://www.w3.org/1999/xlink" x="0px" y="0px"
	 viewBox="0 0 188.4 188.3" style="enable-background:new 0 0 188.4 188.3;" xml:space="preserve">
<style type="text/css">
	.st0{fill:#263974;}
	.st1{fill:#FBFCFD;}
	.st2{fill:#253873;}
	.st3{fill:#253973;}
	.st4{fill:#FEFEFD;}
	.st5{fill:#F3F5F8;}
	.st6{fill:#EBEEF3;}
	.st7{fill:#EFD13D;}
	.st8{fill:#EFD13E;}
	.st9{fill:#F0D13F;}
	.st10{fill:#EFD142;}
	.st11{fill:#FEFEFA;}
	.st12{fill:#FFFEFB;}
	.st13{fill:#FEFDF6;}
</style>
<path class="st0" d="M188.4,94.1c-0.1,16.9-4.6,33.4-13.2,47.9c-8.6,14.6-20.9,26.5-35.8,34.6c-14.7,8.2-31.4,12.2-48.2,11.6
	c-24.4-1-45.7-9.9-63.1-27.2C9.9,143,0.8,120.9,0,95.3c0.2-25.5,8.6-47.7,26.2-66.2S65.7,1.3,91.1,0c16.8-0.5,33.5,3.5,48.2,11.6
	c14.9,8.1,27.3,20,35.9,34.6C183.8,60.7,188.3,77.2,188.4,94.1z M2.6,103c2.2,24.1,13.3,46,33.8,62.6s44.2,23,70.3,19.5
	c23.3-3.1,42.7-13.9,57.8-31.9c16.8-20.1,23.6-43.4,21-69.4c-3.1-24.9-14.4-45.4-33.8-61.3c-21.2-16.6-45.2-23-71.8-19.1
	c-13.6,2-26.5,7.2-37.8,15.1c-13.3,9.1-24,21.5-30.9,36.1C4.2,69.1,1.4,84.6,2.6,103L2.6,103z"/>
<path class="st1" d="M2.6,103c-1.2-18.4,1.6-33.9,8.6-48.5c6.9-14.6,17.6-27,30.9-36.1C53.4,10.5,66.3,5.3,79.9,3.3
	c26.6-3.9,50.6,2.5,71.8,19.1c19.3,16,30.6,36.4,33.8,61.3c2.6,26-4.2,49.3-21,69.4c-15.1,18-34.5,28.8-57.8,31.9
	c-26.1,3.5-49.8-3-70.3-19.5S4.9,127.1,2.6,103z M168.3,93.9c-0.3-19.8-7.1-37.2-21.1-51.5S115.9,20.8,95.9,20
	c-21.3-0.1-39.7,7.1-54.7,22.4C26.8,57.2,20,75.1,20.1,95.7c0.8,20.1,8,37.4,22.5,51.5C57.7,161.8,76,168.8,97,168.1
	c18.9-0.4,36.8-8.3,49.9-21.9C161,131.8,168,114.3,168.3,93.9z M162.4,143.8l-0.1,0.2c-0.7,0-1.5,0-2.2-0.1
	c-1.2-0.3-2.4-0.2-3.5-0.4c-0.8-0.1-1.6-0.1-2.4-0.3c-0.6-0.2-1.3,0.1-1.6,0.7c-0.2,0.3-0.4,0.5-0.6,0.8c-0.5,0.6-0.4,0.6,0.2,1.1
	l3.8,2.9c1.6,1.2,3.2,2.4,4.7,3.7c0.3,0.2,0.5,0.3,0.8,0s0.7-0.8,1-1.2c0.1-0.1,0.1-0.3,0-0.4l0,0c-0.1-0.1-0.2-0.2-0.4-0.4
	c-1-0.8-2-1.5-3-2.3c-0.7-0.5-1.4-1.1-2.1-1.7c-0.1-0.1-0.3-0.2-0.3-0.4c0.1-0.2,0.3-0.1,0.5-0.1l0.4,0.1c1.1,0.2,2.2,0.3,3.4,0.4
	c1.4,0.1,2.9,0.4,4.3,0.5c0.3,0.1,0.6,0,0.8-0.3c0.4-0.5,0.8-1,1.1-1.4c0.1-0.1,0.2-0.3,0.1-0.4c0,0,0-0.1-0.1-0.1
	c-0.2-0.1-0.3-0.3-0.5-0.4c-2.6-2-5.2-4-7.7-6c-0.2-0.2-0.5-0.4-0.8-0.6c-0.3-0.2-0.4-0.2-0.5,0c-0.4,0.6-1,1-1.2,1.7l3,2.4
	L162.4,143.8z M159.1,40.1c0,0.3,0,0.7-0.1,1c-0.8,2-1.6,4.1-2.3,6.2c-0.7,1.9-0.8,1.4,0.4,2.9c0.1,0.1,0.2,0.3,0.3,0.4
	c0.1,0.2,0.3,0.3,0.5,0.2c0,0,0.1,0,0.1-0.1l0.4-0.3l3.5-2.8c1.6-1.2,3.2-2.5,4.8-3.8c0.4-0.3,0.5-0.5,0.1-0.8s-0.5-0.6-0.8-1
	s-0.4-0.5-0.9-0.1c-1.1,0.9-2.2,1.7-3.4,2.6l-1.9,1.4c-0.1,0.1-0.3,0.1-0.4,0c-0.1-0.1-0.1-0.2-0.1-0.3c0-0.2,0.1-0.3,0.1-0.5
	c0.7-2,1.4-4,2.2-6c0.5-1.2,0.6-2.2-0.5-3.2c-0.6-0.5-0.6-0.6-1.2-0.2l-5,3.9l-3.4,2.7c-0.5,0.4-0.5,0.4-0.1,0.9L152,44
	c0.4,0.6,0.4,0.6,1,0.2l3.2-2.5C157.5,41.3,158.2,40.7,159.1,40.1z M59.8,20.7c-0.2,0.1-0.4-0.1-0.5-0.2c-2-1.2-3.9-2.4-5.9-3.5
	c-0.5-0.3-1-0.9-1.6-0.9c-0.6,0.2-1.2,0.4-1.7,0.8c-0.5,0.3-0.5,0.3-0.2,0.9l3.5,7l1.4,2.7c0.2,0.3,0.3,0.5,0.7,0.2
	c0.4-0.2,0.8-0.5,1.2-0.6c0.4-0.2,0.4-0.4,0.2-0.8c-0.4-0.7-0.8-1.4-1.1-2.1l-1.9-3.8c-0.1-0.1-0.2-0.3,0-0.5s0.3,0,0.5,0.1l0.1,0.1
	c1.9,1.1,3.8,2.2,5.6,3.4c1.7,1,1.7,1.1,3.4,0.1c0.6-0.3,0.6-0.3,0.3-0.9c-0.8-1.6-1.6-3.2-2.5-4.9s-1.6-3.1-2.4-4.7
	c-0.3-0.6-0.3-0.6-0.9-0.3l-0.9,0.4c-0.7,0.3-0.7,0.4-0.4,1c0.1,0.2,0.1,0.3,0.2,0.5c0.9,1.8,1.8,3.6,2.7,5.3
	C59.7,20.3,59.9,20.5,59.8,20.7L59.8,20.7z M132.3,27.3c0.2-1.1,0.6-2.1,1-3.1c0.3-0.8,0.3-1.6-0.1-2.3c-0.3-0.5-0.3-0.6,0.3-0.7
	c1.6-0.3,2.7-1.7,2.7-3.4c-0.1-1.4-0.9-2.6-2.2-3.1c-0.9-0.4-1.9-0.9-2.8-1.4l-2.9-1.4c-0.2,0.2-0.3,0.3-0.4,0.6l-3.3,6.9
	c-0.5,0.9-0.9,1.9-1.4,2.8c-0.3,0.6-0.2,0.6,0.3,0.9l1.1,0.5c0.6,0.3,0.7,0.3,1-0.4c0.5-1,0.9-2,1.4-3c0.3-0.5,0.4-0.6,1-0.4
	s1.2,0.6,1.9,0.9c1,0.5,1.4,1,1,2.6c-0.2,0.7-0.5,1.4-0.7,2.1c-0.1,0.4,0,0.7,0.4,0.9l0,0C131.1,26.8,131.7,27,132.3,27.3
	L132.3,27.3z M173.9,114.9c0.4,0.6,0.5,1.1,1,1.5c1.4,1.3,3.5,1.2,4.8-0.2c0.4-0.4,0.7-0.9,0.8-1.5c0.5-2,0.9-3.9,1.3-5.9
	c0.1-0.6,0.1-0.6-0.5-0.9c-0.2-0.1-0.4-0.1-0.6-0.1l-3.3-0.7l-3.2-0.7c-1.1-0.2-2.2-0.5-3.4-0.8c-0.5-0.1-0.7-0.1-0.8,0.4
	s-0.2,0.9-0.3,1.3c-0.1,0.4,0,0.8,0.6,0.9c1.1,0.1,2.1,0.5,3.1,0.6c0.7,0.1,0.8,0.3,0.7,0.9c-0.1,0.8-0.3,1.6-0.6,2.4
	c-0.2,0.6-0.8,1.1-1.4,1.1c-0.7,0-1.3,0-2-0.1c-0.3-0.1-0.6-0.1-0.9-0.1c-0.3-0.1-0.6,0.1-0.7,0.4c0,0,0,0,0,0.1
	c-0.1,0.5-0.2,1.1-0.4,1.6c-0.1,0.3,0.1,0.5,0.4,0.4c0.6,0,1.3,0,1.9,0.2C171.6,115.9,172.9,116.2,173.9,114.9L173.9,114.9z
	 M14.5,111.2c-0.4,0-0.5-0.1-0.6-0.5c-0.2-1.2-0.4-2.5-0.6-3.8c-0.1-0.5,0-0.7,0.5-0.8s1.3-0.3,2-0.3c0.7-0.1,1.3-0.2,2-0.3
	c0.3,0,0.6-0.1,0.5-0.5c-0.1-0.5-0.2-1-0.3-1.5c-0.2-0.7-0.2-0.7-0.9-0.5s-1.4,0.3-2,0.4c-2.3,0.3-4.6,0.9-7,1.2
	c-0.5,0.1-1,0.2-1.5,0.3c-0.2,0-0.6,0.1-0.5,0.5c0.1,0.5,0.2,1.1,0.3,1.6c0.1,0.4,0.3,0.6,0.7,0.5l3.4-0.7c0.5-0.1,0.6,0,0.8,0.5
	s0.1,1,0.3,1.5c0.2,0.8,0.3,1.5,0.4,2.3c0.1,0.2-0.1,0.5-0.3,0.6c-0.1,0-0.1,0-0.2,0c-1.2,0.1-2.4,0.6-3.6,0.6
	c-0.2,0-0.4,0.1-0.4,0.4c0,0.1,0,0.1,0,0.2c0.2,0.6,0.2,1.2,0.4,1.8c0,0.2,0.2,0.4,0.4,0.4c0.1,0,0.1,0,0.2-0.1
	c0.7-0.2,1.3-0.3,2-0.4c2.3-0.4,4.6-0.8,6.8-1.2c0.7-0.1,1.4-0.3,2-0.4c0.2-0.1,0.5-0.1,0.4-0.5s-0.1-1-0.2-1.4s-0.3-0.7-0.9-0.5
	c-0.8,0.2-1.6,0.2-2.4,0.4C15.5,111,15,111.1,14.5,111.2L14.5,111.2z M71.5,10.6c0.4-0.2,0.8-0.4,1.2-0.4c1.5-0.4,3-0.8,4.5-1.1
	c0.2,0,0.4-0.2,0.4-0.4c0,0,0,0,0-0.1c0-0.4-0.2-0.8-0.3-1.2S77,6.9,76.6,6.9c-1.2,0.3-2.5,0.6-3.7,0.9s-2.7,0.7-4,1
	c-0.4,0.1-0.5,0.3-0.4,0.6c0.4,1.5,0.8,3,1.1,4.5c0.5,2.1,1.1,4.1,1.6,6.2c0.1,0.4,0.2,0.5,0.6,0.4c1.4-0.4,2.9-0.7,4.3-1
	c1-0.2,2.1-0.6,3.1-0.8s1-0.3,0.8-1.2c-0.1-0.4-0.2-0.8-0.4-1.3c-0.5,0.3-1.1,0.5-1.7,0.5c-1.3,0.4-2.7,0.6-4,1
	c-0.4,0.1-0.6,0-0.7-0.4c-0.2-0.7-0.3-1.4-0.5-2.1c-0.1-0.3,0.1-0.4,0.4-0.4c1.5-0.4,3-0.8,4.5-1.1c0.6-0.1,0.7-0.2,0.5-0.8
	c0-0.3-0.1-0.6-0.2-0.8c-0.1-0.4-0.2-0.5-0.7-0.4c-1.5,0.4-3.1,0.8-4.6,1.2c-0.4,0.1-0.6-0.1-0.7-0.5C71.9,11.8,71.7,11.3,71.5,10.6
	L71.5,10.6z M70.5,169.5c1.9,0.6,3.8,1,5.6,1.5c0.6,0.1,0.7,0.2,0.5,0.8c-0.1,0.6-0.3,1.2-0.4,1.8c-0.1,0.4-0.3,0.5-0.7,0.4
	c-1.4-0.4-2.9-0.7-4.3-1c-0.9-0.2-1-0.2-1.2,0.7c0,0.1,0,0.3,0,0.4c-0.2,0.4,0,0.6,0.4,0.7l1.6,0.4c1,0.3,2.1,0.5,3.1,0.8
	c0.4,0.1,0.5,0.2,0.4,0.6s-0.2,1-0.4,1.4c-0.1,0.4-0.3,0.7-0.8,0.5c-0.9-0.3-1.9-0.4-2.8-0.7c-0.7-0.2-1.5-0.4-2.3-0.6
	c-0.4-0.1-0.6,0-0.7,0.4s-0.1,0.8-0.3,1.2c-0.1,0.2,0,0.3,0.1,0.4h0.1c1.1,0.3,2.2,0.6,3.3,0.9c1.4,0.3,2.8,0.6,4.2,1
	c0.8,0.2,0.9,0.1,1.1-0.7c0.2-1,0.4-1.9,0.7-2.9c0.6-2.4,1.2-4.9,1.8-7.3c0.2-0.6,0.1-0.7-0.5-0.9c-1.2-0.3-2.4-0.6-3.6-0.9
	c-1.4-0.3-2.8-0.6-4.1-1c-0.4-0.1-0.5,0-0.6,0.4S70.7,168.8,70.5,169.5L70.5,169.5z M172.5,135.9c0.1-0.1,0.2-0.2,0.2-0.3
	c1.1-2.4,2.3-4.8,3.4-7.2c0.2-0.5,0.2-0.6-0.4-0.9l-9.6-4.6c-0.6-0.3-0.6-0.2-0.9,0.3c-1,2.1-1.9,4.1-2.9,6.2
	c-0.8,1.6-0.8,1.6,0.8,2.2h0.1c0.3,0.1,0.5,0.1,0.6-0.3c0.3-0.6,0.6-1.3,0.9-1.9c0.5-1,1-2.1,1.5-3.1c0.2-0.4,0.3-0.5,0.7-0.3
	s0.9,0.4,1.4,0.7c0.9,0.4,0.9,0.4,0.4,1.3v0.1c-0.7,1.4-1.3,2.9-2,4.3c0.1,0.1,0.1,0.1,0.2,0.2c0.3,0.1,0.6,0.3,0.8,0.4
	c0.7,0.3,0.7,0.3,1-0.3c0.6-1.4,1.3-2.8,1.9-4.1c0.2-0.4,0.3-0.5,0.7-0.3c0.5,0.2,0.9,0.5,1.4,0.7s0.4,0.4,0.3,0.8
	c-0.7,1.6-1.4,3.1-2.2,4.7c-0.2,0.4-0.1,0.6,0.3,0.8L172.5,135.9z M95.7,174.9L95.7,174.9c0.3,0,0.5,0,0.8,0s0.5-0.1,0.5-0.5
	c0-0.8-0.3-1.5-0.8-2.1c-0.8-0.9-1.8-1.4-3-1.6c-1.6-0.4-3.3-0.1-4.7,0.7c-1.8,1-2.6,4.4,0,5.8c1,0.5,2,0.8,3.1,1.1
	c0.6,0.1,1.2,0.4,1.7,0.6c0.8,0.5,0.8,1,0.3,1.8c-0.2,0.3-0.5,0.5-0.9,0.5c-1.2,0.4-2.5-0.2-3-1.4l0,0c-0.1-0.2-0.2-0.3-0.4-0.4
	c-0.5,0-0.9-0.1-1.4-0.1c-0.7,0-0.8,0.2-0.7,0.8c0.2,1.2,1,2.2,2.1,2.6c1.4,0.6,2.9,0.7,4.4,0.3c1.4-0.3,2.4-1.4,2.8-2.8
	c0.3-1.5-0.5-3-1.9-3.5c-0.9-0.4-1.8-0.7-2.8-0.9c-0.6-0.1-1.1-0.3-1.6-0.6c-0.6-0.3-0.9-1.1-0.5-1.7c0.1-0.3,0.4-0.5,0.6-0.6
	c0.8-0.3,1.6-0.4,2.5-0.2c0.9,0.1,1.6,0.7,1.8,1.6c0.2,0.7,0.2,0.7,0.9,0.7L95.7,174.9z M165,55.4c-1.6,0.8-2.5,2.4-2.3,4.1
	c0.1,0.5,0.2,0.9,0.3,1.4c0.4,1.3,1.1,2.4,2.2,3.3c0.9,0.8,2.1,1.1,3.2,0.7c1.9-0.6,2.6-1.8,2.4-4c0-0.6-0.2-1.2-0.3-1.9
	s-0.2-1.3-0.3-2c-0.1-0.5,0.2-1,0.7-1.2s1-0.2,1.4,0.2c1.1,0.8,1.3,2.3,0.5,3.4c0,0.1-0.1,0.1-0.1,0.2c-0.2,0.2-0.3,0.5-0.1,0.7
	c0.3,0.7,0.6,1.3,1,1.9c1.3-0.7,2.1-2,2-3.5c-0.1-1.2-0.6-2.4-1.3-3.4c-0.8-1.3-2.2-2-3.6-1.9c-1.2,0.1-2.2,0.9-2.6,2
	c-0.2,0.7-0.3,1.4-0.1,2.1s0.2,1.4,0.4,2.1c0.1,0.6,0.2,1.1,0.2,1.7c0,0.5-0.2,1-0.7,1.2s-1.1,0.1-1.6-0.2c-0.3-0.3-0.6-0.7-0.8-1.1
	c-0.8-1.1-0.5-2.5,0.5-3.3c0.2-0.1,0.3-0.4,0.1-0.6C165.7,56.5,165.4,55.9,165,55.4L165,55.4z M151.8,159.4c0-0.5,0-1-0.1-1.5
	c-0.4-1.2-1-2.4-1.9-3.3c-1.8-2.1-4.8-2.7-7.2-1.4c-2.7,1.5-3.9,4.2-2.5,7.1c0.3,0.6,0.4,0.7,1,0.2l0.7-0.5c0.7-0.5,0.7-0.5,0.4-1.3
	c-0.3-0.6-0.3-1.2-0.1-1.9c0.6-1.5,2.1-2.3,3.7-1.9c1.5,0.6,2.7,1.7,3.3,3.2c0.6,1,0.5,2.3-0.3,3.3s-2.2,1.6-3.2,1.1
	c-0.5-0.4-1.2-0.3-1.6,0.2l0,0c-0.2,0.2-0.5,0.3-0.7,0.5c-0.5,0.4-0.5,0.5,0,0.8c1.3,1,2.9,1.2,4.4,0.7
	C149.8,164.1,152,161.9,151.8,159.4L151.8,159.4z M65,165.4l-1.9-1c-0.3-0.2-0.7-0.1-0.9,0.2c-0.4,0.4-0.7,0.7-1.1,1.1
	c-0.2,0.3-0.7,0.4-1.1,0.2l0,0c-0.8-0.4-1.6-0.8-2.4-1.2c-1.1-0.5-1-0.5-1-1.6c0-0.6,0.5-1.3,0.1-1.8c-0.5-0.4-1.1-0.7-1.6-0.9
	c-0.4-0.2-0.6-0.2-0.6,0.3c-0.2,1.4-0.3,2.9-0.5,4.3s-0.3,2.8-0.5,4.1c-0.1,1.1-0.2,2.2-0.4,3.3c-0.1,0.4,0.1,0.7,0.5,0.8
	c0.4,0.2,0.7,0.4,1.1,0.5c0.8,0.4,0.8,0.4,1.6-0.2c0.1-0.1,0.1-0.2,0.2-0.2l4.9-4.5L65,165.4z M137.8,30.7c0.5,0.5,1,0.9,1.5,1.3
	c0.2,0.3,0.7,0.3,1,0.1l0,0c0.5-0.3,1-0.6,1.5-0.9c0.3-0.2,0.7-0.2,0.9,0.1c0.9,0.7,1.7,1.4,2.6,2.1c0.3,0.2,0.5,0.5,0.3,0.9
	s-0.4,1-0.6,1.5c-0.2,0.4-0.1,0.8,0.3,1.1c0.4,0.3,0.8,0.6,1.2,1s0.4,0.1,0.5-0.2c0.2-0.8,0.6-1.6,0.8-2.4c1-3,2-6,3-8.9
	c0.1-0.3,0.1-0.5-0.1-0.7c-0.5-0.4-1.1-0.8-1.6-1.3c-0.2-0.2-0.4-0.1-0.6,0s-0.4,0.2-0.6,0.3L137.8,30.7z M15.1,53.4
	c0.3,0.2,0.6,0.4,0.9,0.6c3,1.7,6,3.5,9,5.2c0.4,0.3,0.6,0.2,0.8-0.2s0.5-0.8,0.7-1.2c0.3-0.6,0.3-0.6-0.2-0.9
	c-0.9-0.5-1.8-1-2.6-1.5c-0.5-0.3-0.6-0.5-0.3-1s0.7-1.2,1.1-1.8c0.5-0.8,0.8-1.7,0.8-2.6c-0.2-1.7-1.4-3-3-3.4
	c-1.7-0.5-3.5,0.3-4.3,1.8c-0.5,0.8-0.9,1.6-1.4,2.4S15.6,52.6,15.1,53.4z M183,93.1v-0.6c0-0.8,0-0.8-0.7-1.1s-1.7-0.6-2.5-0.9
	l-8.5-3.1c-0.3-0.1-0.5-0.1-0.5,0.3c0,0.6,0,1.3,0,1.9c0,0.3,0.1,0.4,0.4,0.5c0.6,0.2,1.1,0.4,1.7,0.6c0.4,0.1,0.7,0.4,0.6,0.8
	c0,0,0,0,0,0.1c0,0.8,0,1.6,0,2.4c0,1.5,0,1.5-1.3,2c-1.5,0.6-1.5,0.6-1.4,2.2c0.1,0.8,0.2,0.9,1,0.6l0.2-0.1l9.7-3.8
	C183,94.3,183,94.3,183,93.1z M36.2,35.9c0-1.3-0.7-2.6-1.8-3.2c-0.7-0.6-1.6-0.8-2.4-0.7c-0.9,0.1-1.8,0.6-2.4,1.3
	c-1.2,1.3-2.4,2.5-3.6,3.8c-0.5,0.5-0.4,0.5,0.1,1l5.5,5l2.5,2.3c0.3,0.2,0.5,0.3,0.7,0s0.7-0.7,1-1.1s0.4-0.5,0-0.9
	c-0.7-0.6-1.4-1.2-2.1-1.9s-0.7-0.6-0.1-1.3s1-1.1,1.5-1.7C35.8,37.8,36.2,36.9,36.2,35.9z M168.7,75.5c0.6-0.2,1.2-0.4,1.8-0.5
	c0.6-0.2,1.2-0.3,1.9-0.4c0.4-0.1,0.6,0.1,0.6,0.5c0.1,0.9,0.4,1.7,0.6,2.5c0.2,1,0.8,1.8,1.6,2.4c0.9,0.6,2.1,0.7,3.1,0.4
	c1.2-0.2,2.3-1.1,2.6-2.3c0.2-0.6,0.3-1.3,0.2-2c-0.2-0.7-0.3-1.4-0.4-2c-0.3-1.2-0.5-2.3-0.8-3.5c-0.1-0.3-0.1-0.4-0.5-0.3
	c-1.4,0.4-2.9,0.7-4.4,1c-2.2,0.5-4.4,1-6.7,1.4c-0.3,0.1-0.4,0.2-0.3,0.5C168.4,74.1,168.4,74.8,168.7,75.5L168.7,75.5z
	 M15.6,122.3c-2.1-0.1-3.9,1.5-4,3.5c0,0.6,0.1,1.2,0.3,1.8c0.6,1.5,1.3,3,1.9,4.5c0.3,0.8,0.4,0.8,1.2,0.5l4.9-2l4.8-2.1
	c0.6-0.3,0.6-0.3,0.4-1c-0.2-0.4-0.4-0.8-0.5-1.2s-0.3-0.4-0.7-0.3c-0.9,0.4-1.8,0.8-2.7,1.2s-0.8,0.3-1.1-0.4s-0.6-1.4-0.9-2.1
	C18.4,123.3,17.4,122.3,15.6,122.3L15.6,122.3z M126.9,163.5c0.6,1.3,1.2,2.5,1.8,3.6c0.1,0.3,0.2,0.5,0.2,0.8
	c-0.1,2.1-0.3,4.1-0.5,6.2c-0.1,0.7-0.1,1.3,0,2c0.6-0.3,1-0.5,1.6-0.7c0.6-0.1,1.1-0.7,1-1.4c0-0.6,0.1-1.1,0.1-1.7
	c0-0.8,0.1-1.6,0.2-2.3c0.1-0.5,0.1-0.6,0.6-0.3l2.5,1.7c0.5,0.4,1,0.7,1.5,0.9c0.6,0.1,1.1-0.5,1.7-0.7c0.3-0.1,0.7-0.2,0.8-0.5
	c-0.1-0.1-0.1-0.1-0.1-0.1c-2-1.3-4-2.6-6.1-3.9c-0.6-0.4-1.1-1-1.4-1.7c-0.4-0.9-0.9-1.8-1.3-2.7c-0.1-0.3-0.2-0.4-0.6-0.2
	C128.2,162.8,127.5,163.1,126.9,163.5L126.9,163.5z M110.7,18.8c0,0.2,0.1,0.4,0.4,0.5c0.5,0.1,1,0.2,1.5,0.3c0.2,0.1,0.5,0,0.6-0.2
	v-0.1c0.1-0.4,0.2-0.9,0.3-1.4c0.3-1.4,0.7-2.9,1-4.4c0.2-1,0.5-2,0.7-2.9c0.1-0.4,0.3-0.5,0.7-0.4l1.8,0.4c1.3,0.3,1.3,0.3,1.5-1
	V9.5c0.1-0.8,0.1-0.9-0.7-1s-1.3-0.3-1.9-0.4c-2-0.5-4.1-0.9-6.1-1.5c-0.3-0.1-0.7-0.1-0.8,0.3s-0.2,0.9-0.3,1.4
	c-0.1,0.2,0,0.3,0.2,0.4h0.1c0.8,0.1,1.6,0.3,2.4,0.6c0.7,0.1,0.8,0.1,0.6,0.9c-0.4,1.8-0.9,3.6-1.3,5.5
	C111.2,16.7,111,17.7,110.7,18.8L110.7,18.8z M48.9,156.3c0-0.3-0.2-0.5-0.4-0.6c-1.6-1.3-3.3-2.7-5-4c-0.4-0.3-0.6-0.9-1.1-0.8
	s-0.7,0.7-1,1.1c-0.4,0.5-0.4,0.5,0.1,1l3.6,2.9c0.3,0.2,0.4,0.5,0.1,0.8c-1.2,1.4-2.3,2.9-3.5,4.3c-0.7,0.9-1.4,1.7-2.1,2.6
	c-0.2,0.3-0.3,0.5,0.1,0.7c0.5,0.3,0.9,0.7,1.3,1.1c0.1,0.2,0.3,0.2,0.5,0.1l0.1-0.1c0.4-0.5,0.8-1,1.2-1.5c1.9-2.3,3.8-4.7,5.7-7
	C48.8,156.8,48.9,156.6,48.9,156.3L48.9,156.3z M17.9,84.3c0.3-1.1,0.4-2.2,0.6-3.3c0.2-1.3,0.4-2.6,0.7-3.8
	c0.2-1.1,0.3-1.1-0.8-1.4l-0.2-0.1c-0.8-0.2-0.9-0.1-1,0.7c-0.1,0.3-0.1,0.7-0.2,1c-0.2,1.2-0.4,2.3-0.6,3.5
	c-0.1,0.4-0.2,0.6-0.7,0.4c-1.1-0.3-2.3-0.4-3.5-0.6c-1.5-0.3-3.1-0.5-4.6-0.8c-0.3,0-0.6-0.1-0.9-0.1c-0.2,0-0.4,0.1-0.4,0.3
	c-0.1,0.6-0.2,1.1-0.3,1.7c-0.1,0.3,0.1,0.5,0.4,0.6c1.4,0.2,2.8,0.5,4.2,0.8c0.7,0.1,1.5,0.2,2.2,0.4C14.6,83.7,16.3,84,17.9,84.3
	L17.9,84.3z M17.5,93.6c0-0.2,0-0.4,0-0.5c0-0.8,0-0.8-0.8-0.8l-6.4-0.1c-0.6,0-1.1,0-1.6-0.1c-0.9,0-1.8,0-2.7,0
	c-0.3,0-0.5,0.1-0.5,0.4s-0.1,1-0.1,1.5c0,0.7,0,0.7,0.6,0.7c3.4,0,6.8,0,10.2,0.2C17.7,95,17.5,95.1,17.5,93.6L17.5,93.6z
	 M38.9,24.6l0.2,0.3c1.3,1.7,2.6,3.4,3.9,5.1c0.9,1.2,1.9,2.5,2.9,3.7c0.3,0.4,0.4,0.4,0.8,0.1s0.8-0.6,1.2-0.9s0.3-0.4,0.1-0.7
	c-1.9-2.4-3.7-4.8-5.6-7.2c-0.4-0.6-0.9-1.1-1.3-1.6c-0.2-0.2-0.4-0.4-0.6-0.1L38.9,24.6z M22.3,67.2c0-0.3-0.1-0.4-0.3-0.5
	c-0.4-0.1-0.8-0.3-1.2-0.4c-3.1-1.1-6.2-2.2-9.2-3.3c-0.4-0.1-0.6-0.1-0.7,0.3s-0.3,0.9-0.5,1.3c-0.2,0.6-0.1,0.7,0.5,0.9l9,3.2
	l1.3,0.4c0.2,0.1,0.4,0.1,0.4-0.1C21.9,68.4,22.2,67.7,22.3,67.2L22.3,67.2z M28.5,146.1c0.1-0.5,0.1-1,0.1-1.5c0-0.4,0.2-0.8,0.6-1
	c0.5-0.2,0.9-0.5,1.2-0.9c-0.4-0.2-0.9-0.4-1.3-0.5c-0.6-0.1-0.8-0.5-0.8-1.1c0-0.4-0.2-0.8-0.4-1.2c-0.2,0.2-0.5,0.5-0.7,0.8
	c-0.3,0.6-1,0.9-1.7,0.7l-0.6-0.1c-0.2,0-0.4-0.1-0.4,0.2l0.8,1.2c0.2,0.3,0.2,0.6,0.1,0.9c-0.3,0.4-0.4,0.9-0.5,1.4
	c0.4,0,0.8,0,1.2-0.2c0.4-0.2,1-0.1,1.3,0.2C27.8,145.4,28.1,145.7,28.5,146.1L28.5,146.1z M93,13.8c0.5-0.1,0.9-0.2,1.2-0.5
	c0.4-0.3,0.9-0.3,1.3,0c0.3,0.2,0.5,0.3,0.8,0.5c0.3,0.1,0.4,0.1,0.4-0.3c0-0.3,0-0.6-0.1-0.9c-0.2-0.4,0-0.9,0.3-1.1
	c0.4-0.3,0.7-0.7,1-1.1c-0.5-0.1-1-0.2-1.6-0.3c-0.3,0-0.6-0.2-0.7-0.5c-0.2-0.5-0.5-1-0.8-1.4c-0.3,0.5-0.6,1-0.8,1.5
	c-0.1,0.3-0.4,0.4-0.7,0.4c-0.5,0-1.1,0.1-1.6,0.3c0.2,0.3,0.5,0.6,0.8,0.9c0.5,0.3,0.7,0.8,0.5,1.3C93.1,13,93.1,13.4,93,13.8
	L93,13.8z M108.3,172.9c-0.1,0.5,0.1,1,0.3,1.5c0.2,0.4,0.1,0.9-0.2,1.2c-0.3,0.4-0.6,0.8-0.8,1.2c0.4,0,0.9,0,1.3,0
	c0.5-0.1,1.1,0.2,1.3,0.6c0.2,0.4,0.5,0.8,0.8,1c0.1-0.3,0.2-0.5,0.2-0.7s0.1-0.4,0.2-0.7c0.1-0.4,0.4-0.8,0.8-0.9
	c0.3-0.1,0.7-0.2,1-0.3c0.2-0.1,0.3-0.3,0.1-0.5s-0.6-0.4-0.9-0.6c-0.3-0.2-0.5-0.5-0.4-0.9c0-0.4,0-0.7,0-1.1
	c0-0.4-0.2-0.5-0.5-0.2s-0.6,0.4-0.9,0.7c-0.3,0.3-0.7,0.3-1.1,0.1C109.1,173.3,108.7,173.1,108.3,172.9z"/>
<path class="st2" d="M168.3,93.9c-0.3,20.4-7.3,37.9-21.5,52.3c-13.1,13.6-31,21.5-49.9,21.9c-21,0.7-39.3-6.3-54.4-20.9
	C28,133.2,20.8,115.8,20,95.7c-0.1-20.6,6.7-38.5,21.1-53.3c15-15.3,33.4-22.5,54.7-22.4c20,0.8,37.2,8,51.3,22.4
	C161.2,56.7,168,74.1,168.3,93.9z M22.1,94.7c1.5,18.5,6.5,35.3,20.6,49.5c16,16.2,35.6,23.4,58.3,21.4c16.5-1.3,32.1-8.5,43.7-20.4
	c15.9-15.9,23-35.3,21.1-57.7c-1.2-16.5-8.4-31.9-20.1-43.6c-15.8-16-35.2-23.1-57.6-21.5c-10.2,0.8-20.1,3.8-29,8.9
	c-11.2,6.2-20.6,15.4-27,26.5C24.5,70.9,21.4,85,22.1,94.7z"/>
<path class="st3" d="M162.4,143.8l-3-2.3l-3-2.4c0.2-0.7,0.8-1.1,1.2-1.7c0.1-0.2,0.4-0.2,0.5,0s0.5,0.4,0.8,0.6c2.6,2,5.1,4,7.7,6
	c0.2,0.1,0.3,0.3,0.5,0.4c0.1,0.1,0.2,0.3,0.1,0.4c0,0,0,0.1-0.1,0.1c-0.4,0.5-0.8,1-1.1,1.4c-0.2,0.2-0.5,0.3-0.8,0.3
	c-1.4-0.1-2.9-0.3-4.3-0.5c-1.1-0.1-2.2-0.2-3.4-0.4l-0.4-0.1c-0.2,0-0.4-0.1-0.5,0.1s0.1,0.3,0.3,0.4c0.7,0.6,1.4,1.1,2.1,1.7
	c1,0.8,2,1.5,3,2.3c0.1,0.1,0.3,0.2,0.4,0.4c0.1,0.1,0.1,0.3,0,0.4l0,0c-0.3,0.4-0.7,0.8-1,1.2s-0.4,0.3-0.8,0
	c-1.6-1.2-3.2-2.5-4.7-3.7l-3.7-2.9c-0.6-0.5-0.6-0.5-0.2-1.1c0.2-0.2,0.4-0.5,0.6-0.8c0.3-0.6,1-0.9,1.6-0.7
	c0.8,0.1,1.6,0.1,2.4,0.3c1.2,0.2,2.4,0.2,3.5,0.4c0.7,0.1,1.5,0.2,2.2,0.1L162.4,143.8z"/>
<path class="st2" d="M159.1,40.1c-0.9,0.7-1.6,1.2-2.4,1.8l-3.2,2.5c-0.6,0.4-0.6,0.4-1-0.2l-0.6-0.8c-0.4-0.5-0.4-0.5,0.1-0.9
	l3.4-2.7l5-3.9c0.6-0.5,0.6-0.4,1.2,0.2c1,1,1,1.9,0.5,3.2c-0.8,2-1.5,4-2.2,6c-0.1,0.2-0.1,0.3-0.1,0.5c0,0.1,0,0.2,0.1,0.3
	c0.1,0.1,0.3,0,0.4,0l1.8-1.4c1.1-0.9,2.2-1.8,3.4-2.6c0.5-0.4,0.5-0.4,0.9,0.1s0.5,0.7,0.8,1s0.2,0.6-0.1,0.8
	c-1.6,1.2-3.2,2.5-4.8,3.8l-3.6,2.8l-0.4,0.3c-0.1,0.1-0.4,0.1-0.5,0l-0.1-0.1c-0.1-0.1-0.2-0.3-0.3-0.4c-1.2-1.5-1.1-1-0.4-2.9
	c0.7-2.1,1.5-4.1,2.3-6.2C159.2,40.8,159.2,40.4,159.1,40.1z"/>
<path class="st2" d="M59.8,20.7c0.2-0.2,0-0.4-0.1-0.5c-0.9-1.8-1.8-3.6-2.7-5.3c-0.1-0.2-0.2-0.3-0.2-0.5c-0.3-0.7-0.3-0.7,0.4-1
	l0.9-0.4c0.6-0.3,0.6-0.3,0.9,0.3c0.8,1.6,1.6,3.1,2.4,4.7s1.6,3.2,2.5,4.9c0.3,0.6,0.3,0.6-0.3,0.9c-1.7,0.9-1.7,0.9-3.4-0.1
	c-1.9-1.1-3.8-2.3-5.6-3.4l-0.1-0.1c-0.1-0.1-0.3-0.2-0.5-0.1s0,0.3,0,0.5l1.9,3.8c0.4,0.7,0.7,1.4,1.1,2.1c0.2,0.4,0.1,0.6-0.2,0.8
	c-0.4,0.2-0.8,0.4-1.2,0.6c-0.4,0.3-0.6,0.1-0.7-0.2L53.5,25L50,18c-0.3-0.5-0.2-0.6,0.2-0.9c0.5-0.4,1.1-0.6,1.7-0.8
	c0.6-0.1,1.1,0.6,1.6,0.9c2,1.2,3.9,2.4,5.9,3.5C59.4,20.6,59.5,20.8,59.8,20.7z"/>
<path class="st3" d="M132.3,27.3c-0.6-0.3-1.2-0.5-1.7-0.8c-0.4-0.1-0.6-0.5-0.4-0.9l0,0c0.2-0.7,0.5-1.4,0.7-2.1
	c0.4-1.6,0.1-2.1-1-2.6c-0.6-0.3-1.2-0.6-1.9-0.9s-0.7-0.2-1,0.4c-0.5,1-1,2-1.4,3c-0.3,0.6-0.4,0.7-1,0.4l-1.1-0.5
	c-0.6-0.3-0.6-0.4-0.3-0.9c0.4-0.9,0.9-1.9,1.4-2.8l3.3-6.9c0.1-0.2,0.2-0.4,0.4-0.6l2.9,1.4c0.9,0.4,1.9,0.9,2.8,1.4
	c1.3,0.5,2.1,1.7,2.2,3.1c0,1.6-1.1,3-2.7,3.4c-0.6,0.1-0.6,0.1-0.3,0.7c0.4,0.7,0.4,1.6,0.1,2.3C132.8,25.2,132.5,26.2,132.3,27.3z
	 M133.5,17.7c0.1-0.5-0.2-1-0.7-1.2c-0.9-0.5-1.8-0.9-2.8-1.4c-0.2-0.1-0.4-0.1-0.5,0.1c-0.4,0.8-0.8,1.6-1.2,2.4
	c-0.1,0.2-0.1,0.5,0.2,0.6c0,0,0,0,0.1,0c0.9,0.4,1.7,0.9,2.6,1.2c0.8,0.4,1.8,0,2.2-0.9C133.5,18.3,133.6,18,133.5,17.7L133.5,17.7
	z"/>
<path class="st2" d="M173.9,114.9c-1,1.3-2.3,1-3.6,0.9c-0.6-0.1-1.3-0.2-1.9-0.2c-0.4,0.1-0.5-0.1-0.4-0.4c0.2-0.5,0.3-1.1,0.4-1.6
	c0.1-0.3,0.3-0.5,0.7-0.5c0,0,0,0,0.1,0c0.3,0,0.6,0.1,0.9,0.1c0.7,0.1,1.3,0.2,2,0.1c0.7,0,1.2-0.4,1.4-1.1
	c0.3-0.8,0.5-1.6,0.6-2.4c0.1-0.7,0-0.9-0.7-0.9c-1.1-0.1-2.1-0.5-3.1-0.6c-0.6-0.1-0.7-0.3-0.6-0.9c0.1-0.5,0.2-0.9,0.3-1.3
	c0.1-0.4,0.3-0.6,0.8-0.4c1.1,0.3,2.2,0.5,3.4,0.8l3.2,0.7l3.3,0.7c0.2,0,0.4,0.1,0.6,0.1c0.6,0.2,0.6,0.2,0.5,0.9
	c-0.4,2-0.9,3.9-1.3,5.9c-0.5,1.8-2.3,2.9-4.1,2.5c-0.6-0.1-1.1-0.4-1.5-0.8C174.4,116.1,174.3,115.5,173.9,114.9z M177.2,114.7
	c0.8-0.1,1.5-0.7,1.6-1.5c0.1-0.7,0.3-1.5,0.5-2.2s0.1-0.8-0.5-0.9s-1.5-0.3-2.3-0.5c-0.4-0.1-0.5,0.1-0.5,0.4
	c-0.2,0.9-0.4,1.7-0.6,2.6c-0.2,0.9,0.3,1.8,1.2,2.1C176.8,114.7,177,114.7,177.2,114.7z"/>
<path class="st2" d="M14.5,111.1c0.5-0.1,1-0.2,1.5-0.3c0.8-0.2,1.6-0.2,2.4-0.4c0.6-0.2,0.7-0.1,0.9,0.5s0.1,1,0.2,1.4
	s-0.1,0.5-0.4,0.5c-0.7,0.2-1.4,0.3-2,0.4c-2.3,0.4-4.6,0.8-6.8,1.2c-0.7,0.1-1.3,0.2-2,0.4c-0.2,0.1-0.4,0-0.5-0.1
	c0-0.1,0-0.1-0.1-0.2c-0.1-0.6-0.2-1.2-0.4-1.8c-0.1-0.2,0-0.4,0.2-0.5c0.1,0,0.1,0,0.2,0c1.2,0,2.4-0.5,3.6-0.6
	c0.2,0,0.5-0.2,0.5-0.4c0-0.1,0-0.1,0-0.2c-0.1-0.8-0.2-1.6-0.4-2.3c-0.1-0.5-0.2-1-0.3-1.5s-0.2-0.6-0.8-0.5l-3.4,0.7
	c-0.4,0.1-0.6-0.1-0.7-0.5c-0.1-0.5-0.2-1.1-0.3-1.6c-0.1-0.4,0.3-0.5,0.5-0.5c0.5-0.1,1-0.2,1.5-0.3c2.4-0.3,4.6-0.9,7-1.2
	c0.7-0.1,1.4-0.3,2-0.4s0.7-0.1,0.9,0.5c0.1,0.5,0.2,1,0.3,1.5c0.1,0.4-0.2,0.5-0.5,0.5c-0.7,0.1-1.3,0.2-2,0.3s-1.3,0.3-2,0.3
	s-0.6,0.2-0.5,0.8c0.2,1.3,0.4,2.5,0.6,3.8C13.9,111.1,14.1,111.2,14.5,111.1z"/>
<path class="st0" d="M71.5,10.6c0.2,0.7,0.3,1.3,0.5,1.9c0.1,0.4,0.3,0.6,0.7,0.5c1.5-0.4,3.1-0.7,4.6-1.2c0.5-0.1,0.6,0,0.7,0.4
	c0.1,0.3,0.1,0.6,0.2,0.8c0.1,0.6,0,0.7-0.5,0.8c-1.5,0.3-3,0.7-4.5,1.1c-0.3,0.1-0.4,0.1-0.4,0.4c0.2,0.7,0.3,1.4,0.5,2.1
	c0.1,0.4,0.3,0.5,0.7,0.4c1.3-0.4,2.7-0.6,4-1c0.6,0,1.2-0.2,1.7-0.5c0.1,0.5,0.3,0.9,0.4,1.3c0.2,0.9,0.1,1-0.8,1.2
	c-0.9,0.2-2.1,0.5-3.1,0.8c-1.4,0.3-2.9,0.7-4.3,1c-0.4,0.1-0.5,0-0.6-0.4c-0.5-2.1-1-4.1-1.6-6.2c-0.4-1.5-0.8-3-1.2-4.5
	c-0.1-0.3,0-0.5,0.4-0.6c1.4-0.3,2.7-0.7,4-1s2.4-0.6,3.7-0.9c0.4-0.1,0.7-0.1,0.7,0.5s0.2,0.8,0.3,1.2c0.1,0.2-0.1,0.4-0.3,0.5
	c0,0,0,0-0.1,0c-1.5,0.4-3,0.8-4.5,1.1C72.3,10.2,71.9,10.4,71.5,10.6z"/>
<path class="st0" d="M70.6,169.4c0.1-0.6,0.2-1.1,0.4-1.6s0.2-0.5,0.6-0.4c1.4,0.4,2.7,0.7,4.1,1c1.2,0.3,2.4,0.6,3.6,0.9
	c0.6,0.1,0.6,0.3,0.5,0.9c-0.6,2.4-1.2,4.9-1.8,7.3c-0.2,1-0.5,1.9-0.7,2.9c-0.2,0.8-0.4,0.9-1.1,0.7c-1.4-0.4-2.8-0.7-4.2-1
	c-1.1-0.2-2.2-0.6-3.3-0.9c-0.2,0-0.3-0.2-0.3-0.3v-0.1c0.1-0.4,0.2-0.8,0.3-1.2s0.3-0.5,0.7-0.4c0.8,0.2,1.5,0.4,2.3,0.6
	c0.9,0.3,1.9,0.4,2.8,0.7c0.5,0.2,0.6,0,0.8-0.5s0.2-1,0.3-1.4c0.2-0.4,0-0.5-0.4-0.6c-1-0.2-2-0.5-3.1-0.8l-1.6-0.4
	c-0.3-0.1-0.6-0.3-0.4-0.7c0-0.1,0-0.3,0-0.4c0.1-0.9,0.3-1,1.2-0.7c1.4,0.4,2.9,0.7,4.3,1c0.4,0.1,0.6,0,0.7-0.4
	c0.1-0.6,0.3-1.2,0.4-1.8s0.1-0.7-0.5-0.8C74.3,170.4,72.5,170.1,70.6,169.4z"/>
<path class="st3" d="M172.6,135.8l-1.4-0.6c-0.4-0.2-0.5-0.4-0.3-0.8c0.8-1.5,1.4-3.1,2.2-4.7c0.2-0.4,0.2-0.6-0.3-0.8
	s-1-0.4-1.4-0.7c-0.4-0.2-0.6-0.1-0.7,0.3c-0.6,1.4-1.3,2.8-1.9,4.2c-0.3,0.7-0.3,0.7-1,0.3c-0.3-0.1-0.6-0.3-0.8-0.4
	c-0.1-0.1-0.2-0.1-0.2-0.2c0.7-1.4,1.3-2.9,2-4.3c0,0,0-0.1,0.1-0.1c0.4-0.9,0.4-0.9-0.4-1.3c-0.5-0.2-1-0.4-1.4-0.7
	s-0.6-0.1-0.7,0.3c-0.5,1-1,2.1-1.5,3.1c-0.3,0.6-0.6,1.2-0.9,1.9c-0.1,0.3-0.3,0.4-0.6,0.3h-0.1c-1.6-0.7-1.5-0.6-0.8-2.2
	c1-2.1,1.9-4.1,2.9-6.2c0.3-0.6,0.3-0.6,0.9-0.3l9.7,4.5c0.6,0.3,0.6,0.4,0.4,0.9c-1.1,2.4-2.2,4.8-3.4,7.2
	C172.8,135.6,172.7,135.7,172.6,135.8z"/>
<path class="st0" d="M95.8,174.8h-0.4c-0.7,0-0.7,0-0.9-0.7c-0.2-0.8-0.9-1.4-1.8-1.6c-0.8-0.2-1.7-0.1-2.5,0.2
	c-0.6,0.3-1,1-0.7,1.6c0.1,0.3,0.3,0.5,0.6,0.6c0.5,0.3,1,0.5,1.6,0.6c1,0.2,1.9,0.5,2.8,0.9c1.4,0.5,2.3,2,1.9,3.5
	c-0.3,1.4-1.4,2.4-2.8,2.8c-1.5,0.4-3,0.3-4.4-0.3c-1.1-0.4-1.9-1.4-2.1-2.6c-0.1-0.6,0-0.8,0.7-0.8c0.5,0,0.9,0.1,1.4,0.1
	c0.2,0,0.4,0.2,0.4,0.4c0.4,1.2,1.8,1.8,3,1.4l0,0c0.3-0.1,0.7-0.2,0.9-0.5c0.5-0.8,0.5-1.3-0.3-1.8c-0.5-0.3-1.1-0.5-1.7-0.6
	c-1.1-0.3-2.1-0.6-3.1-1.1c-2.6-1.4-1.8-4.8,0-5.8c1.4-0.8,3.1-1,4.7-0.7c1.2,0.2,2.2,0.7,3,1.6c0.5,0.6,0.8,1.3,0.8,2.1
	c0,0.4-0.1,0.5-0.5,0.5C96.2,174.8,96,174.8,95.8,174.8L95.8,174.8z"/>
<path class="st3" d="M165,55.3c0.4,0.6,0.7,1.2,1,1.9c0.1,0.2,0.1,0.5-0.1,0.6c-1,0.8-1.3,2.3-0.5,3.3c0.2,0.4,0.5,0.8,0.8,1.1
	c0.4,0.4,1,0.5,1.6,0.2c0.5-0.2,0.7-0.7,0.7-1.2c0-0.6,0-1.2-0.2-1.7c-0.2-0.7-0.2-1.4-0.4-2.1s-0.1-1.4,0.1-2.1
	c0.4-1.1,1.4-1.9,2.6-2c1.4-0.1,2.8,0.6,3.6,1.9c0.7,1,1.1,2.2,1.2,3.5c0.1,1.5-0.7,2.8-2,3.5c-0.4-0.6-0.7-1.2-1-1.9
	c-0.1-0.2-0.1-0.5,0.2-0.7c0.9-1,0.8-2.6-0.2-3.5c-0.1,0-0.1-0.1-0.2-0.1c-0.4-0.3-0.9-0.4-1.4-0.2c-0.5,0.2-0.7,0.7-0.6,1.2
	c0.1,0.6,0.2,1.3,0.3,2s0.3,1.2,0.3,1.9c0.2,2.2-0.5,3.3-2.4,4c-1.1,0.3-2.4,0-3.2-0.8c-1-0.9-1.8-2.1-2.1-3.4
	c-0.2-0.4-0.3-0.9-0.3-1.4C162.5,57.7,163.4,56,165,55.3z"/>
<path class="st3" d="M151.8,159.3c0.2,2.6-2.1,4.8-4,5.5c-1.5,0.5-3.2,0.3-4.4-0.7c-0.5-0.3-0.5-0.4,0-0.8c0.2-0.2,0.5-0.3,0.7-0.5
	c0.4-0.5,1.1-0.6,1.6-0.3l0,0c1,0.5,2.4,0,3.2-1.1c0.7-0.9,0.8-2.2,0.3-3.3c-0.6-1.5-1.8-2.7-3.3-3.2c-1.5-0.4-3.1,0.4-3.7,1.9
	c-0.2,0.6-0.2,1.3,0.1,1.9c0.4,0.8,0.3,0.8-0.3,1.3l-0.7,0.5c-0.6,0.5-0.7,0.4-1-0.2c-1.4-2.9-0.2-5.6,2.5-7.1
	c2.4-1.3,5.4-0.7,7.2,1.4c0.9,0.9,1.5,2.1,1.9,3.3C151.8,158.3,151.9,158.8,151.8,159.3z"/>
<path class="st3" d="M65.1,165.3l-3.7,3.4l-4.9,4.5c-0.1,0.1-0.2,0.2-0.2,0.2c-0.7,0.6-0.7,0.6-1.6,0.2c-0.4-0.2-0.7-0.4-1.1-0.5
	c-0.4-0.1-0.6-0.5-0.5-0.8c0.2-1.1,0.3-2.2,0.4-3.3c0.2-1.4,0.3-2.8,0.5-4.1s0.3-2.9,0.5-4.3c0.1-0.5,0.2-0.5,0.6-0.3
	c0.6,0.2,1.2,0.5,1.6,0.9c0.4,0.5-0.1,1.2-0.1,1.8c0,1.1,0,1.1,1,1.6c0.8,0.4,1.6,0.8,2.4,1.2c0.3,0.2,0.8,0.2,1.1-0.2l0,0
	c0.4-0.4,0.8-0.7,1.1-1.1c0.2-0.3,0.6-0.4,0.9-0.2L65.1,165.3z M55.8,170c-0.1,0.1-0.1,0.3,0.1,0.4s0.3,0,0.5-0.1
	c0.8-0.8,1.7-1.6,2.5-2.4c0.3-0.3,0.3-0.5-0.1-0.7c-0.6-0.3-1.2-0.6-1.9-0.9s-0.6-0.2-0.7,0.3C56,167.8,55.9,168.9,55.8,170
	L55.8,170z"/>
<path class="st2" d="M137.8,30.7l10.2-6c0.2-0.1,0.4-0.2,0.6-0.3s0.4-0.2,0.6,0c0.5,0.4,1,0.8,1.6,1.3c0.2,0.2,0.2,0.4,0.1,0.7
	c-1,3-2,6-3,8.9c-0.3,0.8-0.6,1.6-0.8,2.4c-0.1,0.3-0.2,0.4-0.5,0.2c-0.3-0.2-0.8-0.7-1.2-1c-0.4-0.2-0.5-0.7-0.3-1.1
	c0.2-0.5,0.3-1,0.6-1.5c0.2-0.5,0-0.6-0.3-0.9c-0.9-0.7-1.8-1.4-2.6-2.1c-0.3-0.3-0.7-0.3-0.9-0.1c-0.5,0.3-1,0.6-1.5,0.9
	c-0.3,0.3-0.7,0.2-1,0l0,0C138.8,31.5,138.3,31.1,137.8,30.7z M147.8,27.4c-1.2,0.7-2.3,1.4-3.5,2.1c-0.3,0.2-0.2,0.4,0,0.6
	c0.6,0.4,1.1,0.9,1.7,1.4c0.4,0.3,0.5,0.2,0.7-0.2c0.4-1.1,0.8-2.2,1.2-3.3C148,27.7,148,27.6,147.8,27.4L147.8,27.4z"/>
<path class="st3" d="M15.1,53.4c0.5-0.8,0.9-1.7,1.4-2.5s0.9-1.6,1.4-2.4c0.8-1.6,2.6-2.3,4.3-1.8c1.6,0.4,2.8,1.7,3,3.4
	c0,0.9-0.3,1.8-0.8,2.6c-0.3,0.6-0.7,1.2-1.1,1.8s-0.2,0.7,0.3,1c0.9,0.5,1.8,1,2.6,1.5c0.5,0.3,0.5,0.3,0.2,0.9
	c-0.2,0.4-0.5,0.8-0.7,1.2s-0.4,0.5-0.8,0.2c-3-1.8-6-3.5-9-5.2C15.7,53.9,15.4,53.7,15.1,53.4z M22.9,50.7c0-0.4-0.1-0.7-0.4-1
	c-1-1-2-1.1-2.9,0.1c-0.5,0.6-0.9,1.3-1.2,2c-0.2,0.4-0.1,0.6,0.3,0.8c0.7,0.4,1.4,0.8,2.1,1.2c0.5,0.3,0.7,0.3,1-0.2s0.6-1.2,1-1.8
	C22.9,51.4,22.9,51.1,22.9,50.7L22.9,50.7z"/>
<path class="st2" d="M183,93.1c0,1.2,0,1.3-1.1,1.7l-9.6,3.8l-0.2,0.1c-0.8,0.3-0.9,0.3-1-0.6c-0.1-1.6-0.1-1.6,1.4-2.2
	c1.3-0.5,1.3-0.5,1.3-2c0-0.8,0-1.6,0-2.4c0.1-0.4-0.2-0.8-0.6-0.9c0,0,0,0-0.1,0c-0.6-0.1-1.1-0.4-1.7-0.6
	c-0.3-0.1-0.4-0.2-0.4-0.5c0-0.6,0-1.3,0-1.9c0-0.3,0.2-0.4,0.5-0.3l8.5,3.1c0.8,0.3,1.7,0.6,2.5,0.9s0.7,0.3,0.7,1.1L183,93.1z
	 M179.7,92.9c-1.3-0.4-2.5-0.9-3.8-1.3c-0.4-0.1-0.5,0-0.5,0.3c0,0.7,0,1.4,0,2.1c0,0.5,0.2,0.6,0.6,0.5c1.1-0.4,2.2-0.8,3.2-1.2
	C179.5,93.2,179.7,93.1,179.7,92.9L179.7,92.9z"/>
<path class="st3" d="M36.2,35.9c0,1-0.3,1.9-1,2.6c-0.5,0.6-1,1.1-1.5,1.7s-0.6,0.7,0.1,1.3s1.4,1.2,2.1,1.9c0.5,0.4,0.5,0.4,0,0.9
	s-0.7,0.7-1,1.1s-0.5,0.3-0.7,0l-2.5-2.3l-5.5-5c-0.6-0.5-0.6-0.5-0.1-1c1.2-1.3,2.4-2.5,3.6-3.8c0.6-0.7,1.5-1.1,2.4-1.3
	c0.9-0.1,1.8,0.1,2.4,0.7C35.5,33.4,36.2,34.6,36.2,35.9z M32.1,34.4c-0.4,0-0.9,0.1-1.2,0.4c-0.7,0.6-1.3,1.2-1.9,1.9
	c-0.2,0.2-0.1,0.4,0.1,0.6l2.1,1.9c0.1,0.2,0.3,0.2,0.5,0.1l0.1-0.1c0.6-0.6,1.1-1.2,1.6-1.9c0.1-0.2,0.2-0.4,0.3-0.6
	c0.3-1-0.3-2-1.3-2.3C32.3,34.4,32.2,34.4,32.1,34.4L32.1,34.4z"/>
<path class="st2" d="M168.7,75.5c-0.3-0.7-0.4-1.5-0.6-2.2c-0.1-0.3,0-0.4,0.3-0.5c2.2-0.5,4.4-0.9,6.7-1.4c1.5-0.3,2.9-0.7,4.4-1
	c0.3-0.1,0.4,0,0.5,0.3c0.2,1.2,0.5,2.3,0.8,3.5c0.1,0.7,0.2,1.4,0.4,2c0.1,0.7,0.1,1.4-0.2,2c-0.4,1.2-1.4,2.1-2.6,2.3
	c-1,0.3-2.2,0.2-3.1-0.4c-0.8-0.6-1.4-1.4-1.6-2.4c-0.2-0.8-0.4-1.7-0.6-2.5c-0.1-0.4-0.3-0.6-0.6-0.5c-0.6,0.1-1.2,0.2-1.9,0.4
	C169.9,75.1,169.3,75.3,168.7,75.5z M177.1,78.1c1,0.1,1.8-0.6,2-1.5c0-0.3,0-0.5-0.1-0.8c-0.1-0.6-0.3-1.3-0.4-1.9
	c-0.1-0.4-0.2-0.5-0.6-0.4c-0.9,0.2-1.8,0.4-2.7,0.6c-0.2,0.1-0.4,0.2-0.4,0.5c0.1,1,0.4,2,0.8,2.9C176,77.9,176.6,78.1,177.1,78.1
	L177.1,78.1z"/>
<path class="st2" d="M15.7,122.3c1.8,0,2.8,1,3.5,2.4c0.3,0.7,0.6,1.4,0.9,2.1s0.4,0.8,1.1,0.4s1.8-0.8,2.7-1.2
	c0.4-0.2,0.6-0.2,0.7,0.3c0.1,0.4,0.3,0.8,0.5,1.2c0.3,0.7,0.3,0.7-0.4,1l-4.8,2.1l-4.9,2c-0.8,0.4-0.8,0.3-1.2-0.5
	c-0.6-1.5-1.3-3-1.9-4.5c-0.9-1.9,0-4.1,1.9-5C14.4,122.4,15,122.2,15.7,122.3z M13.9,126.8c0.3,1,0.7,1.9,1.1,2.8
	c0.1,0.2,0.3,0.2,0.4,0.1l2.7-1.1c0.2-0.1,0.4-0.2,0.2-0.5c-0.3-0.9-0.8-1.8-1.3-2.6c-0.4-0.6-1.2-0.8-1.9-0.6
	C14.4,125.1,13.8,125.9,13.9,126.8L13.9,126.8z"/>
<path class="st3" d="M126.9,163.5c0.6-0.4,1.3-0.7,1.9-1c0.4-0.2,0.5-0.1,0.6,0.2c0.4,0.9,0.9,1.8,1.3,2.7c0.3,0.7,0.8,1.3,1.4,1.7
	c2.1,1.2,4,2.6,6.1,3.9l0.1,0.1c-0.1,0.4-0.5,0.4-0.8,0.5c-0.6,0.2-1.1,0.8-1.7,0.7c-0.6-0.2-1.1-0.5-1.5-0.9l-2.5-1.7
	c-0.4-0.3-0.5-0.2-0.6,0.3c-0.1,0.8-0.2,1.5-0.2,2.3c0,0.6-0.1,1.1-0.1,1.7c0.1,0.6-0.4,1.2-1,1.4c-0.5,0.2-1,0.5-1.6,0.7
	c-0.1-0.7-0.1-1.3,0-2c0.2-2.1,0.4-4.1,0.5-6.2c0-0.3,0-0.6-0.2-0.8C128.1,166,127.5,164.8,126.9,163.5z"/>
<path class="st3" d="M110.7,18.8c0.3-1.1,0.5-2.1,0.7-3.1c0.4-1.8,0.9-3.6,1.3-5.5c0.2-0.8,0.1-0.8-0.6-0.9
	c-0.8-0.2-1.6-0.4-2.4-0.6c-0.2,0-0.3-0.1-0.3-0.3V8.3c0.2-0.4,0.2-0.9,0.3-1.4s0.4-0.4,0.8-0.3c2,0.6,4.1,1,6.1,1.5
	c0.6,0.2,1.3,0.3,1.9,0.4s0.9,0.2,0.7,1v0.1c-0.2,1.3-0.2,1.3-1.5,1l-1.8-0.4c-0.4-0.1-0.6,0-0.7,0.4c-0.2,1-0.5,2-0.7,2.9
	c-0.3,1.5-0.7,2.9-1,4.4c-0.1,0.5-0.2,0.9-0.3,1.4c0,0.2-0.3,0.4-0.5,0.3h-0.1c-0.5-0.1-1-0.2-1.5-0.3
	C110.8,19.2,110.6,19.1,110.7,18.8z"/>
<path class="st0" d="M48.9,156.4c0,0.2-0.2,0.4-0.3,0.5c-1.9,2.3-3.8,4.7-5.7,7c-0.4,0.5-0.8,1-1.2,1.5c-0.1,0.2-0.3,0.2-0.5,0.2
	l-0.1-0.1c-0.4-0.4-0.9-0.8-1.3-1.1c-0.3-0.2-0.3-0.4-0.1-0.7c0.7-0.8,1.4-1.7,2.1-2.6c1.1-1.5,2.3-2.9,3.5-4.3
	c0.3-0.4,0.2-0.6-0.1-0.8l-3.6-2.9c-0.5-0.4-0.5-0.4-0.1-1c0.3-0.4,0.5-1,1-1.1s0.7,0.5,1.1,0.8c1.7,1.3,3.3,2.6,5,4
	C48.7,155.9,49,156.1,48.9,156.4z"/>
<path class="st2" d="M18,84.3c-1.7-0.3-3.3-0.5-5-0.9c-0.7-0.1-1.5-0.2-2.2-0.4c-1.4-0.2-2.8-0.5-4.2-0.8c-0.4-0.1-0.5-0.3-0.4-0.6
	c0.1-0.6,0.2-1.1,0.3-1.7c0-0.2,0.2-0.3,0.4-0.3c0.3,0,0.6,0,0.9,0.1c1.5,0.3,3.1,0.6,4.6,0.8c1.2,0.2,2.3,0.4,3.5,0.6
	c0.4,0.1,0.6-0.1,0.7-0.4c0.2-1.2,0.4-2.3,0.6-3.5c0.1-0.3,0.1-0.7,0.2-1c0.1-0.8,0.2-0.8,1-0.7l0.2,0.1c1.1,0.3,1,0.2,0.8,1.4
	c-0.3,1.3-0.4,2.6-0.7,3.8C18.4,82.1,18.3,83.1,18,84.3z"/>
<path class="st0" d="M17.5,93.6c0,1.4,0.2,1.4-1.3,1.3c-3.4-0.2-6.8-0.1-10.2-0.2c-0.7,0-0.7,0-0.6-0.7c0-0.5,0.1-1,0.1-1.5
	s0.2-0.4,0.5-0.4c0.9,0,1.8,0,2.7,0c0.6,0,1.1,0.1,1.6,0.1l6.4,0.1c0.8,0,0.8,0,0.8,0.8C17.5,93.3,17.5,93.4,17.5,93.6z"/>
<path class="st0" d="M39,24.6l1.7-1.4c0.3-0.2,0.5-0.1,0.6,0.1c0.4,0.6,0.9,1.1,1.3,1.6c1.9,2.4,3.7,4.8,5.6,7.2
	c0.2,0.3,0.2,0.5-0.1,0.7s-0.8,0.6-1.2,0.9s-0.5,0.3-0.8-0.1c-1-1.2-1.9-2.5-2.9-3.7c-1.3-1.7-2.6-3.4-3.9-5.1L39,24.6z"/>
<path class="st3" d="M22.4,67.2c-0.2,0.6-0.5,1.2-0.7,1.9c-0.1,0.2-0.3,0.1-0.4,0.1L20,68.8l-9-3.2c-0.6-0.2-0.7-0.4-0.5-0.9
	c0.1-0.4,0.4-0.9,0.5-1.3s0.3-0.5,0.7-0.3c3.1,1.1,6.1,2.2,9.2,3.3c0.4,0.1,0.8,0.3,1.2,0.4C22.2,66.8,22.4,66.8,22.4,67.2z"/>
<path class="st0" d="M28.5,146.1c-0.4-0.4-0.8-0.7-1.1-1c-0.3-0.4-0.8-0.4-1.3-0.2c-0.4,0.2-0.8,0.2-1.2,0.2c0.1-0.5,0.2-1,0.5-1.4
	c0.1-0.3,0.1-0.6-0.1-0.9l-0.8-1.2c0.1-0.3,0.3-0.2,0.4-0.2l0.6,0.1c0.7,0.2,1.4-0.1,1.7-0.7c0.2-0.3,0.4-0.6,0.7-0.8
	c0.2,0.4,0.4,0.8,0.4,1.2c0.1,0.5,0.2,0.9,0.8,1.1c0.5,0.1,0.9,0.3,1.3,0.5c-0.3,0.4-0.7,0.7-1.2,0.9c-0.4,0.2-0.6,0.6-0.6,1
	C28.7,145,28.6,145.6,28.5,146.1z"/>
<path class="st0" d="M93.1,13.8c0-0.4,0.1-0.9,0.2-1.3c0.1-0.5-0.1-1.1-0.5-1.3c-0.3-0.3-0.6-0.5-0.8-0.9c0.5-0.2,1-0.3,1.6-0.3
	c0.3,0,0.6-0.1,0.7-0.4c0.2-0.5,0.5-1,0.8-1.5c0.4,0.4,0.6,0.9,0.8,1.4C96,9.8,96.3,10,96.6,10c0.5,0.1,1.1,0.2,1.6,0.3
	c-0.3,0.4-0.6,0.8-1,1.1c-0.3,0.3-0.5,0.7-0.3,1.1c0.1,0.3,0.1,0.6,0.1,0.9c0,0.3-0.1,0.4-0.4,0.3c-0.3-0.1-0.5-0.3-0.8-0.5
	c-0.4-0.3-0.9-0.3-1.3,0C93.9,13.6,93.5,13.8,93.1,13.8z"/>
<path class="st0" d="M108.3,172.9c0.4,0.2,0.8,0.4,1.3,0.5c0.3,0.2,0.8,0.1,1.1-0.1c0.3-0.2,0.6-0.5,0.9-0.7
	c0.3-0.2,0.5-0.1,0.5,0.2c0,0.4,0,0.7,0,1.1c-0.1,0.4,0.1,0.7,0.4,0.9c0.3,0.2,0.6,0.4,0.9,0.6s0.2,0.4-0.1,0.5s-0.7,0.3-1,0.3
	c-0.4,0.1-0.8,0.4-0.9,0.9c-0.1,0.2-0.1,0.5-0.2,0.7s-0.1,0.4-0.2,0.7c-0.4-0.2-0.7-0.6-0.8-1c-0.2-0.5-0.8-0.7-1.3-0.6
	c-0.4,0-0.9,0-1.3,0c0.2-0.4,0.5-0.9,0.8-1.2s0.4-0.8,0.2-1.2C108.4,173.9,108.2,173.4,108.3,172.9z"/>
<path class="st4" d="M22.1,94.7c-0.7-9.8,2.4-23.9,10-36.9c6.4-11.1,15.8-20.3,27-26.5c8.9-5.1,18.8-8.1,29-8.9
	c22.5-1.7,41.8,5.5,57.6,21.5c11.7,11.6,18.9,27.1,20.1,43.6c1.9,22.4-5.2,41.8-21.1,57.7c-11.6,11.9-27.1,19.1-43.7,20.4
	c-22.7,2-42.2-5.2-58.3-21.4C28.6,130,23.6,113.2,22.1,94.7z M51,105.1c0.4-0.2,0.9-0.1,1.3-0.3c0.9-0.3,1.9-0.6,2.8-0.9
	c0.7-0.2,1.4-0.4,2.1-0.6c1.1-0.2,2.2-0.6,3.2-0.9c0.7-0.3,0.9-0.2,1.1,0.5c0.4,1.3,0.9,2.6,1.4,3.9c0.6,1.5,1.3,3,2.2,4.4
	c0.1,0.2,0.2,0.5,0.3,0.7c0,0.1,0,0.3-0.2,0.4c-0.5,0-0.7,0.5-1.1,0.6c-0.6,0.2-1.1,0.4-1.6,0.8c-0.6,0.3-1.2,0.5-1.9,0.9
	c-1.1,0.6-2.2,1-3.3,1.7c-0.3,0.2-0.4,0.3-0.4,0.7c0.1,1,0.1,2,0.2,3c0,0.5,0.2,0.6,0.7,0.3c0.8-0.5,1.6-1,2.4-1.5l2.1-1.3
	c0.8-0.5,1.6-0.9,2.4-1.5c0.6-0.4,1.2-0.8,1.8-1.1c0.3-0.2,0.7-0.2,0.9,0.1c0.4,0.4,0.7,0.9,1.1,1.4c0.1,0.1,0.2,0.3,0.1,0.5
	c0,0,0,0-0.1,0.1c-0.9,0.5-1.6,1.2-2.4,1.8c-1.2,0.8-2.4,1.7-3.6,2.6c-0.9,0.6-1.7,1.3-2.6,1.9c-0.7,0.4-1.3,1-2,1.5
	c-0.3,0.2-0.4,0.5-0.4,0.8c0,0.6,0,1.3,0,1.9c0,1.2,0.1,2.3,0.2,3.5c0,0.4,0.2,0.5,0.6,0.6c1,0.2,2,0.2,3,0.3
	c0.9,0.1,1.8,0.2,2.7,0.2c0.4,0,0.8-0.1,1.1-0.5c0.4-0.5,0.8-1,1.2-1.4c2.1-2.4,4.2-5,6.3-7.4c0.3-0.4,0.6-0.7,1-1
	c0.2-0.1,0.3-0.2,0.5-0.1c0.3,0.2,0.6,0.4,0.9,0.6c0.6,0.5,0.6,0.6,0.1,1.2l-2.9,3.8c-1.1,1.4-2.1,2.8-3.2,4.3
	c-0.2,0.2-0.4,0.5-0.2,0.8s0.4,0.2,0.7,0.2c0.8,0,1.7,0.1,2.5,0.2c0.4,0,0.8-0.2,1-0.6c0.5-0.9,1-1.7,1.5-2.6
	c0.9-1.6,1.9-3.2,2.8-4.8c0.4-0.7,0.5-0.7,1.2-0.3c0.6,0.4,1.2,0.7,1.8,1c0.6,0.2,1.2,0.5,1.8,0.7c0.8,0.3,1.7,0.6,2.5,0.9
	c0.7,0.2,1.4,0.4,2.1,0.6c0.3,0.1,0.4,0.2,0.3,0.6c-0.5,1.5-0.9,3.1-1.4,4.6s-0.9,2.9-1.4,4.4c-0.1,0.3,0,0.7,0.2,0.9
	c0.9,0.8,1.8,1.5,2.7,2.3c0.3-0.5,0.2-1,0.3-1.5c0.5-1.5,0.4-3.2,1-4.7c0-0.1,0-0.2,0-0.3c0.2-1.5,0.5-3,0.8-4.4
	c0.1-0.4-0.1-0.9,0.4-1.2c0.4-0.1,0.9-0.1,1.3,0c0.5,0,0.7,0.2,0.7,0.7c0,0.2,0,0.5,0,0.7c-0.2,1.2-0.4,2.4-0.5,3.6
	c-0.3,1.9-0.3,3.8-0.7,5.7c-0.2,1-0.1,2-0.3,3c-0.2,0.7,0.1,1.4,0.6,1.7c1.3,1,2.5,2.1,3.8,3.2c0.5,0.4,0.7,0.4,1.2,0
	c1.2-1,2.4-2.1,3.6-3.1c0.5-0.3,0.7-0.9,0.5-1.4c-0.4-1.2-0.2-2.5-0.4-3.7c-0.3-1.6-0.3-3.2-0.6-4.7c-0.3-1.7-0.2-3.5-0.6-5.2
	c-0.1-0.3,0.1-0.4,0.4-0.5c0.5-0.1,1.1-0.2,1.6-0.4c0.2-0.1,0.5,0,0.5,0.2v0.1c0.2,0.7,0.4,1.4,0.5,2.2c0.1,1.4,0.6,2.7,0.7,4.1
	c0.1,0.7,0.4,1.4,0.4,2c0.1,0.9,0.2,1.7,0.4,2.6c0.1,0.4,0.2,0.9,0.3,1.4c0.9-0.8,1.7-1.5,2.6-2.3c0.3-0.3,0.6-0.5,0.4-1
	c-0.3-0.9-0.6-1.8-0.9-2.7c-0.2-0.6-0.4-1.3-0.6-2c-0.3-1-0.6-2.1-0.9-3.2c-0.2-0.5-0.3-1-0.4-1.5s0-0.6,0.4-0.7
	c0.8-0.2,1.6-0.4,2.3-0.8c0.6-0.3,1.2-0.5,1.8-0.8l2.1-1c0.6-0.3,1.1-0.6,1.8-0.9c0.3-0.2,0.6-0.1,0.8,0.2l0,0
	c0.7,1.2,1.5,2.5,2.2,3.7c0.9,1.5,1.8,3,2.6,4.6c0.2,0.4,0.6,0.6,1,0.6c1,0,1.9-0.2,2.9-0.3c0.5,0,0.5-0.2,0.3-0.6s-0.5-0.7-0.8-1.1
	c-1.2-1.5-2.3-3.1-3.5-4.6c-0.9-1.1-1.7-2.3-2.6-3.4c-0.2-0.3-0.4-0.7-0.1-1c0.2-0.3,0.5-0.6,0.9-0.8c0.3-0.2,0.8-0.1,1,0.2
	c0.4,0.6,0.9,1.1,1.4,1.6l4.8,5.6c0.9,1,1.7,2.1,2.6,3c0.2,0.4,0.7,0.6,1.1,0.5c1.7-0.3,3.3-0.4,5-0.5c0.3,0,0.5,0,0.8-0.1
	c0.6-0.1,0.7-0.3,0.8-0.9c0.2-1.6,0.1-3.3,0.2-4.9c0-0.3-0.1-0.6-0.4-0.8c-0.9-0.7-1.8-1.4-2.8-2.1c-1.4-1-2.8-2-4.2-3
	s-2.9-2.3-4.4-3.3c-0.6-0.4-0.6-0.7-0.2-1.3c0.2-0.3,0.5-0.6,0.7-1c0.1-0.2,0.4-0.3,0.7-0.1l0,0c0.9,0.5,1.7,1,2.5,1.5
	s1.4,1,2.1,1.4c1.1,0.6,2.2,1.3,3.3,2l2.4,1.5c0.3,0.2,0.5,0,0.5-0.3c0.1-1.1,0.1-2.2,0.2-3.3c0-0.3-0.2-0.4-0.4-0.5
	c-1.3-0.8-2.8-1.4-4.1-2.1c-1.1-0.6-2.3-1.1-3.4-1.7c-0.4-0.3-0.9-0.5-1.4-0.7c-0.7-0.3-0.8-0.6-0.5-1.2s0.6-1.1,0.8-1.6
	c0.5-1.1,1-2.2,1.4-3.3c0.4-1,0.7-2,0.9-3.1c0.1-0.9,0.5-1,1.3-0.7c0.9,0.4,1.8,0.7,2.8,0.9c0.2,0.1,0.3,0.1,0.5,0.2
	c0.2,0.1,0.5,0.2,0.7,0.3c0.8,0.2,1.5,0.4,2.2,0.7c1.1,0.4,2.2,0.7,3.3,1.1c0.3,0.1,0.6,0,0.8-0.2l1.6-1.8c0.8-0.9,0.7-1.1-0.5-1.3
	h-0.1c-1.4-0.2-2.8-0.6-4.1-0.9c-0.3-0.1-0.6-0.2-0.8-0.2c-1.4-0.2-2.8-0.6-4.1-0.9c-0.4-0.1-0.7-0.2-1.1-0.2
	c-1.4-0.1-1.7-0.4-1.4-1.8c0-0.1,0-0.2,0-0.3c0.1-0.7,0.1-0.8,0.9-0.7c1.4,0.1,2.7,0.4,4.1,0.6c1.5,0.2,3.1,0.4,4.6,0.8
	c1,0.2,2,0.3,3,0.4c0.9,0.2,1.9,0.4,2.8,0.4c0.3,0,0.5-0.1,0.7-0.3c0.9-1.1,1.8-2.1,2.7-3.1c0.3-0.3,0.3-0.8,0-1.2l0,0
	c-0.2-0.3-0.5-0.6-0.8-0.9c-1.2-1.3-2.4-2.6-3.5-4c-0.2-0.3-0.6-0.5-1-0.4c-2.2,0.2-4.3,0.4-6.5,0.5c-1.6,0.1-3.2,0.3-4.8,0.4
	c-0.6,0.1-1.2,0.2-1.8,0.2c-0.2,0-0.3,0-0.5-0.1c-0.2-0.5-0.4-1.1-0.3-1.8c0.1-0.3,0.3-0.4,0.6-0.4s0.7,0,1,0
	c1.2-0.2,2.5-0.4,3.8-0.5c1.6-0.1,3.1-0.6,4.7-0.6c0.5,0,1-0.1,1.5-0.3c0.4-0.1,0.4-0.3,0.2-0.6c-0.7-0.7-1.3-1.6-2-2.3
	c-0.2-0.2-0.5-0.3-0.8-0.2c-1.1,0.3-2.2,0.5-3.3,0.8c-1.8,0.6-3.8,0.9-5.6,1.5l-0.2,0.1c-0.3,0.1-0.6-0.1-0.7-0.4v-0.1
	c-0.4-1.4-0.9-2.8-1.5-4.2c-0.5-1.1-1-2.1-1.6-3.2c-0.1-0.2-0.1-0.3-0.2-0.5c-0.1-0.2,0-0.5,0.2-0.6h0.1c0.9-0.4,1.7-0.8,2.6-1.2
	c0.4-0.2,0.9-0.4,1.3-0.6c0.9-0.5,1.8-1,2.8-1.4c1-0.5,1.9-1,2.9-1.4c0.4-0.1,0.7-0.5,0.7-0.9c0-1,0-1.9-0.1-2.9
	c0-0.6-0.2-0.7-0.8-0.5c-0.1,0-0.3,0.1-0.4,0.2c-0.4,0.3-0.8,0.6-1.2,0.8c-1.1,0.7-2.3,1.4-3.4,2.1c-0.7,0.4-1.3,0.9-2,1.3
	c-1.1,0.7-2.2,1.4-3.3,2.1c-0.7,0.4-1,0.6-1.6-0.2c-0.1-0.2-0.2-0.4-0.3-0.5c-0.5-0.7-0.4-0.9,0.2-1.3c0.9-0.6,1.8-1.2,2.6-1.9
	c1.6-1.2,3.2-2.5,4.9-3.7c1.4-1,2.7-2.1,4.2-3c0.4-0.3,0.6-0.7,0.6-1.2c0-1.6-0.2-3.1-0.2-4.7c0-0.3-0.2-0.6-0.5-0.7
	S132,57,131.8,57c-0.6,0-1.1-0.1-1.7-0.1c-1.3-0.2-2.6-0.3-3.9-0.2c-0.2,0-0.4-0.1-0.6,0.2c-0.6,0.7-1.3,1.5-1.9,2.2
	c-0.9,1.1-1.8,2.2-2.8,3.3c-1.5,1.8-3,3.5-4.5,5.2c-0.5,0.6-0.7,0.6-1.4,0.1c-0.1-0.1-0.2-0.3-0.4-0.4c-0.1-0.1-0.5-0.2-0.4-0.5
	c0-0.3,0.1-0.5,0.3-0.7c1-1.1,1.8-2.3,2.7-3.5c1.4-1.8,2.8-3.7,4.2-5.5c0.4-0.5,0.3-0.9-0.4-0.9c-1-0.1-2-0.1-3-0.1
	c-0.4,0-0.5,0.2-0.7,0.5c-0.4,0.7-0.9,1.4-1.3,2.1c-1.1,1.9-2.2,3.8-3.3,5.6c-0.2,0.3-0.4,0.5-0.5,0.8c-0.1,0.1-0.3,0.3-0.4,0.2
	s-0.7-0.2-1-0.5c-1.2-0.8-2.5-1.5-3.9-2c-0.9-0.4-1.9-0.6-2.8-1.1c-0.1-0.1-0.3-0.1-0.4-0.1c-0.8-0.1-0.9-0.3-0.7-1
	c0.3-0.9,0.5-1.9,0.8-2.8c0.6-2.1,1.3-4.2,2-6.4c0.1-0.4,0-0.8-0.3-1c-0.8-0.6-1.5-1.3-2.2-1.9c-0.1-0.1-0.3-0.2-0.5-0.1
	s-0.1,0.2-0.1,0.4c-0.2,1.3-0.4,2.6-0.7,3.8c-0.3,1.3-0.4,2.6-0.7,3.9c-0.1,0.3-0.2,0.7-0.2,1c-0.1,0.9-0.3,1.9-0.5,2.8
	c-0.1,0.4-0.3,0.6-0.7,0.5c-0.5-0.1-1-0.2-1.4-0.3c-0.3,0-0.4-0.2-0.4-0.5c0.2-2.7,0.7-5.3,0.8-8c0-0.2,0.1-0.3,0.1-0.5
	c0.2-1.2,0.3-2.4,0.4-3.5c0-0.6,0.1-1.2,0.2-1.7c0.2-0.5,0-1-0.4-1.3c-1.3-1.1-2.5-2.2-3.7-3.2c-0.5-0.4-0.6-0.4-1.1,0
	s-1.3,1.1-1.9,1.7c-0.8,0.7-1.6,1.4-2.4,2.1c-0.2,0.2-0.4,0.3-0.3,0.6c0.2,0.9,0.2,1.7,0.2,2.6c0.3,1.4,0.4,2.7,0.5,4.1
	c0,0.2,0,0.4,0.1,0.6c0.1,1.1,0.4,2.1,0.4,3.2c0,0.6,0.1,1.2,0.2,1.7c0.1,0.4,0.1,0.7,0.1,1.1c0,0.9,0,1-1,1.1c-0.2,0-0.3,0-0.5,0
	c-0.3,0.1-0.6-0.1-0.7-0.4c0,0,0,0,0-0.1c-0.1-0.6-0.3-1.2-0.4-1.8c-0.2-1.6-0.6-3.2-0.8-4.9c-0.1-0.4-0.2-0.9-0.3-1.4
	c0-0.5-0.1-1-0.2-1.4c-0.2-0.6-0.3-1.2-0.3-1.8c0-0.2,0-0.4-0.2-0.4c-0.2-0.1-0.3,0-0.5,0.2c-0.7,0.7-1.5,1.2-2.2,1.9
	c-0.5,0.6-0.6,0.6-0.3,1.2c0.1,0.3,0.3,0.6,0.4,0.9c0.4,1.7,1,3.4,1.5,5.1c0.4,1,0.7,2,0.9,3c0,0.3,0,0.4-0.3,0.5
	c-1.7,0.4-3.4,1-5,1.6c-1.2,0.5-2.4,1-3.5,1.6c-0.5,0.3-0.8,0.2-1.1-0.3c-0.5-0.7-0.9-1.5-1.4-2.2c-0.8-1.4-1.6-2.7-2.4-4.1
	c-0.1-0.3-0.5-0.6-0.8-0.6c-1,0-1.9,0-2.9,0.1c-0.5,0.1-0.6,0.2-0.3,0.6c0.4,0.6,0.8,1.2,1.3,1.7c1.5,1.9,2.9,3.9,4.4,5.8
	c0.2,0.2,0.2,0.4,0,0.6s-0.4,0.4-0.7,0.6c-0.8,0.6-1,0.5-1.6-0.3s-1.4-1.6-2.1-2.5c-1.5-1.8-3.1-3.5-4.6-5.4
	c-0.4-0.6-1.1-0.9-1.8-0.9c-1.7,0.1-3.3,0.4-5,0.4c-1.1,0-1.4,0.4-1.3,1.5c0,0.6,0,1.2,0,1.8s-0.2,1.2-0.2,1.8c0,0.5,0.2,1,0.6,1.2
	c0.6,0.4,1.2,0.9,1.9,1.4c0.9,0.6,1.7,1.3,2.5,1.9c1.6,1.2,3.3,2.4,5,3.6c0.9,0.7,0.9,0.7,0.1,1.6c-0.1,0.2-0.3,0.4-0.4,0.6
	c-0.2,0.3-0.6,0.4-0.9,0.2c-0.3-0.1-0.6-0.3-0.8-0.4c-1.1-0.8-2.3-1.5-3.5-2.3c-0.4-0.2-0.8-0.4-1.1-0.6c-0.7-0.5-1.4-1-2.1-1.4
	c-0.2-0.2-0.5-0.4-0.8-0.5c-0.4-0.3-0.6-0.1-0.7,0.4c0,0.9-0.1,1.7-0.2,2.6c-0.1,0.3,0,0.6,0.3,0.8c0.4,0.4,0.9,0.4,1.3,0.7
	c0.9,0.6,1.9,0.9,2.9,1.4c0.4,0.3,0.8,0.5,1.2,0.6c0.8,0.2,1.5,0.6,2.2,1c0.2,0.1,0.3,0.3,0.2,0.5c0,0,0,0.1-0.1,0.1
	c-0.7,1.1-1.3,2.3-1.9,3.5c-0.6,1.3-1.1,2.6-1.5,4c-0.3,1-0.5,1.1-1.4,0.8c-1.2-0.3-2.5-0.4-3.7-0.8c-0.4-0.1-0.7-0.2-1.1-0.3
	c-1.1-0.1-2.2-0.5-3.3-0.7c-0.6-0.2-1.2,0-1.5,0.5c-0.6,0.7-1.1,1.3-1.7,1.9c-0.3,0.3-0.2,0.5,0.2,0.6C49.4,86,49.7,86,50,86
	c1,0.1,2,0.1,2.9,0.3c2.2,0.4,4.4,0.5,6.6,0.8c0.9,0.1,1,0.2,0.9,1.1c0,0.1,0,0.2,0,0.3c0,0.9-0.3,1.1-1.2,1c-2-0.3-4.1-0.4-6.1-0.4
	c-0.2,0-0.4,0-0.6,0c-0.8-0.1-1.5-0.2-2.3-0.2c-1.2-0.1-2.3-0.1-3.5-0.3c-0.4-0.1-0.8,0.1-1,0.4c-0.3,0.4-0.7,0.8-1,1.2
	c-1.2,1.3-2.3,2.6-3.5,3.9c-0.1,0.1-0.2,0.3-0.1,0.5s0.3,0.4,0.4,0.5c0.8,0.9,1.6,1.8,2.3,2.7c0.3,0.5,0.8,0.7,1.4,0.7
	c0.3,0,0.6,0,0.9-0.1c1.8-0.4,3.7-0.4,5.5-0.8c1.2-0.2,2.4-0.2,3.5-0.5c1.4-0.4,2.9-0.2,4.3-0.6c0.4-0.1,0.8-0.1,0.8,0.4
	s0.2,1,0.3,1.4S60.4,99,60,99.1c-0.8,0.1-1.6,0.4-2.4,0.5c-1.4,0.3-2.8,0.5-4.2,0.9c-0.2,0.1-0.3,0.1-0.5,0.2
	c-1.6,0.1-3,0.7-4.6,0.9c-0.6,0.1-0.7,0.3-0.4,0.8c0.7,0.8,1.4,1.6,2.1,2.4C50.4,105.5,50.5,105.5,51,105.1z M54.7,52.1
	c1.7,0,3.2-0.2,4.7-0.4c0.4,0,0.5-0.3,0.3-0.6c-1.1-1.2-2.1-2.4-3.2-3.7c-0.2-0.2-0.4-0.3-0.7-0.4c-1.4,0-2.7,0-4.1-0.1
	s-2.8,0-4.2-0.1c-0.2,0-0.5,0-0.7,0c-0.3,0-0.5,0.2-0.6,0.5c0,0,0,0,0,0.1c0,0.7-0.1,1.4-0.1,2.1c0.1,1.9,0.3,3.8,0.3,5.6
	c0,0.3,0.1,0.7,0.4,0.9c1.3,1,2.7,2,4.1,3c0.2,0.1,0.4,0.3,0.6,0.2s0.1-0.4,0.1-0.6c0-1.9,0.2-3.7,0.3-5.5c0-0.6,0.1-0.7,0.7-0.9
	C53.4,52.2,54,52.1,54.7,52.1L54.7,52.1z M154.5,88l-2.7,0.2c-0.4,0-0.9,0.2-1.3,0.2s-0.4,0.2-0.2,0.5s0.3,0.3,0.4,0.4
	c1.5,1.6,2.9,3.3,4.3,5c0.4,0.5,0.4,0.9,0,1.3c-1.2,1.2-2.3,2.6-3.5,3.9c-0.2,0.2-0.4,0.3-0.3,0.6s0.3,0.3,0.6,0.3
	c1.3,0.2,2.6,0.4,3.9,0.6c0.2,0,0.5,0,0.6-0.2c1.5-1.4,3.1-2.8,4.6-4.3c0.5-0.4,0.9-0.8,1.3-1.3c0.1-0.2,0.3-0.4,0-0.7
	c-1.2-0.9-2.1-2.1-3.3-3s-2-1.9-3-2.9C155.5,88.1,155,87.8,154.5,88L154.5,88z M34.1,88c-0.5-0.1-1,0-1.4,0.4
	c-0.3,0.3-0.7,0.6-1,0.9c-0.6,0.6-1.3,1.2-2,1.9c-1.1,1.1-2.2,2.1-3.4,3.2c-0.5,0.5-0.5,0.7,0.1,1.1c0.7,0.6,1.4,1.2,2.1,1.9
	c1.1,1.1,2.3,2.1,3.4,3.2c0.3,0.2,0.6,0.3,0.9,0.3c0.6-0.2,1.2-0.3,1.8-0.4c0.6,0,1.3-0.1,1.9-0.2s0.7-0.4,0.3-0.8
	c-0.6-0.8-1.3-1.5-2-2.3s-1.2-1.3-1.8-2c-0.2-0.2-0.3-0.5-0.1-0.8l2.5-2.8c0.8-0.9,1.5-1.7,2.3-2.6c0.5-0.6,0.5-0.6-0.2-0.8
	C36.4,88.1,35.2,88.2,34.1,88L34.1,88z M100.5,37.5c0.1-0.1,0.1-0.2,0.2-0.4c0.2-1.2,0.4-2.3,0.5-3.5s0.1-2.1-1-2.7
	c-0.1,0-0.1-0.1-0.1-0.2l-4.6-4.5c-0.2-0.2-0.5-0.3-0.8-0.1l-0.1,0.1c-0.3,0.3-0.6,0.6-0.8,1L89,32.7c-0.4,0.4-0.6,0.9-0.5,1.5
	c0.2,1.1,0.3,2.2,0.5,3.3c0,0.3,0.2,0.3,0.4,0.2c0.2-0.2,0.2-0.1,0.3-0.2l4.7-4.1c0.3-0.4,0.9-0.5,1.3-0.2l0.1,0.1
	c0.9,0.8,1.9,1.7,2.8,2.5C99.2,36.4,99.8,36.9,100.5,37.5L100.5,37.5z M89.2,150.3c-0.1,0.1-0.1,0.2-0.2,0.2
	c-0.3,1.2-0.4,2.4-0.5,3.7c0,0.3,0.1,0.7,0.3,0.9c2,2.3,3.9,4.5,5.8,6.8c0.3,0.3,0.4,0.4,0.8,0c1.8-1.8,3.7-3.6,5.5-5.4
	c0.3-0.3,0.4-0.6,0.4-1c0-1.3-0.4-2.6-0.4-4c0-0.2-0.1-0.5-0.2-0.7c-0.1-0.3-0.2-0.4-0.5-0.1c-1.5,1.4-3.1,2.6-4.6,4.1
	c-0.3,0.3-0.8,0.3-1.1,0l0,0c-0.1-0.1-0.2-0.3-0.3-0.4c-1.2-1-2.3-2.1-3.6-3C90.2,151,89.7,150.6,89.2,150.3z M139.9,58.7
	c0.9-0.8,2-1.5,3-2.2c0.7-0.4,1-1.1,0.9-1.9c-0.1-0.9,0-1.7,0.1-2.6c0.1-1.4,0.1-2.8,0.2-4.2c0.1-0.6-0.2-0.9-0.8-0.9
	c-0.9,0-1.8,0-2.8,0c-2,0.2-3.9,0.3-5.9,0.2c-0.3,0-0.7,0.1-0.9,0.4c-0.7,0.9-1.4,1.7-2.1,2.5c-0.1,0.1-0.2,0.3-0.2,0.5
	c0.1,0.2,0.2,0.2,0.4,0.2c0.5,0,0.9,0,1.4,0.1c1.1,0.2,2.1,0.2,3.2,0.2c0.5,0,1.1,0,1.6,0.1c1.1,0.2,1.1,0.2,1.2,1.2
	c0,0.2,0,0.3,0,0.5c0.1,1.8,0.2,3.6,0.4,5.4C139.7,58.4,139.7,58.6,139.9,58.7L139.9,58.7z M139.1,132.1c0,1.4-0.1,2.8-0.3,4.1
	c0,0.4-0.2,0.5-0.5,0.5c-2.3,0.1-4.5,0.5-6.8,0.5c-0.2,0-0.4,0-0.5,0.2s0.1,0.4,0.2,0.5c0.6,0.7,1.2,1.4,1.8,2.1
	c0.3,0.4,0.7,0.6,1.2,0.6c0.8,0,1.6,0.1,2.4,0.1c1.7,0,3.4,0,5.1,0.1c0.4,0,0.9,0,1.3,0c0.4,0,0.5-0.1,0.5-0.5
	c0-0.6,0.1-1.3,0.1-1.9c-0.1-1.9-0.2-3.9-0.3-5.8c0-0.3-0.1-0.7-0.3-1c-0.3-0.3-0.6-0.5-0.9-0.7c-0.8-0.4-1.5-1-2.1-1.6
	c-0.1-0.2-0.4-0.2-0.6-0.2c-0.3,0.1-0.2,0.3-0.2,0.5L139.1,132.1L139.1,132.1z M46.7,137.4L46.7,137.4c0,1,0,1.9,0,2.9
	c0,0.7,0,0.7,0.8,0.7c1.3,0,2.5-0.2,3.8-0.1c1.6,0,3.1,0,4.7-0.1c0.4,0,0.7-0.1,1-0.4c0.6-0.6,1.1-1.3,1.7-2
	c0.4-0.5,0.3-0.7-0.3-0.8c-1.8-0.3-3.7-0.3-5.5-0.5c-1.4-0.1-1.4-0.1-1.4-1.5c0-1.9-0.4-3.9-0.3-5.8v-0.1c0-0.3-0.2-0.3-0.4-0.3
	s-0.4,0.1-0.5,0.3c-0.9,0.7-1.7,1.3-2.6,2c-0.4,0.2-0.6,0.6-0.6,1C46.9,134.3,46.8,135.8,46.7,137.4L46.7,137.4z M64.1,46.9h-2.4
	c-0.2,0-0.4,0-0.4,0.2c-0.1,0.2,0,0.4,0.1,0.5c0.9,1,1.8,2.1,2.5,3.3c0.2,0.3,0.6,0.5,1,0.5l2.8-0.2c0.4,0,0.7-0.2,1-0.2
	s0.4-0.2,0.3-0.5c0-0.1-0.1-0.3-0.2-0.4c-0.5-0.8-1-1.6-1.5-2.4c-0.3-0.5-0.8-0.8-1.3-0.8H64.1z M147.5,85.1
	c0.4-0.2,0.9-0.1,1.4-0.1c0.8-0.1,1.6-0.4,2.4-0.4c0.2,0,0.4-0.1,0.4-0.4c0-0.2-0.2-0.3-0.3-0.4c-1-1.1-2.1-2-3.1-3.1
	c-0.2-0.2-0.6-0.5-0.9-0.4c-0.6,0.3-1.3,0.1-1.9,0.4c-0.3,0.2-0.7,0.3-1.1,0.3c-0.5,0-0.6,0.2-0.3,0.6c0.8,1.1,1.8,2,2.6,3.1
	C147,85,147.2,85.1,147.5,85.1L147.5,85.1z M40.2,85c0.4,0,0.9,0.2,1.3-0.2c0.9-1,1.8-2.1,2.7-3.1c0.2-0.3,0.2-0.4-0.2-0.4
	c-1-0.2-1.9-0.6-2.8-0.8c-0.4-0.1-0.9,0-1.2,0.3l-3.1,3.1c-0.1,0.1-0.4,0.2-0.4,0.4s0.3,0.3,0.5,0.4C38.1,84.8,39.2,84.9,40.2,85z
	 M50.9,68.9c0.3-1.5,0.3-3,0.2-4.6c0-0.2-0.1-0.4-0.3-0.5c-1.1-0.6-2.2-1.3-3.2-2c-0.1,0-0.2-0.1-0.2-0.1c-0.1,0-0.2,0.1-0.1,0.2
	l0,0c0.1,0.7,0.2,1.4,0.2,2.1c0.2,1,0.4,2,0.4,3.1c0,0.3,0.1,0.4,0.3,0.6c0.4,0.3,0.9,0.4,1.4,0.7C50,68.8,50.4,68.9,50.9,68.9
	L50.9,68.9z M126.3,50.3c0.3,0,0.4,0,0.8-0.6s1-1.4,1.5-2.1c0.1-0.2,0.3-0.3,0.2-0.5s-0.3-0.2-0.5-0.2h-4.5c-0.3,0-0.5,0.1-0.7,0.3
	c-0.5,0.7-0.9,1.5-1.3,2.2c-0.2,0.3,0,0.5,0.3,0.5L126.3,50.3z M109,41.6c0.1-0.3,0-0.6-0.2-0.8c-0.3-0.3-0.6-0.7-0.8-1
	c-0.8-0.9-1.5-1.9-2.3-2.8c-0.3-0.3-0.4-0.3-0.5,0c-0.3,1.2-0.6,2.4-0.7,3.6c0,0.2,0.1,0.4,0.2,0.5c0.9,0.9,2,1.7,2.9,2.6
	c0.4,0.4,0.8,0.2,0.9-0.4c0.1-0.3,0.2-0.6,0.3-0.9C108.8,42.1,108.9,41.8,109,41.6L109,41.6z M105.3,151.6c0.1-0.1,0.2-0.1,0.3-0.1
	c1-1.4,2.1-2.6,3.1-3.9c0.3-0.4,0.4-0.9,0.2-1.3c-0.2-0.6-0.4-1.1-0.5-1.7c0-0.4-0.2-0.5-0.6-0.2c-0.8,0.7-1.6,1.4-2.4,2.1
	c-0.8,0.4-1.1,1.4-0.8,2.2c0,0,0,0.1,0,0.2C104.8,149.7,105,150.6,105.3,151.6L105.3,151.6z M125.6,141.1h2.4c0.4,0,0.5-0.2,0.3-0.5
	c-0.1-0.1-0.1-0.3-0.2-0.4c-0.4-0.6-0.9-1.2-1.3-1.8c-0.2-0.4-0.7-0.6-1.1-0.6c-1.3,0-2.5,0.4-3.8,0.4c-0.1,0-0.1,0-0.2,0
	c-0.4,0.1-0.4,0.4-0.2,0.7c0.3,0.4,0.6,0.9,0.8,1.4s0.7,0.8,1.2,0.7C124.3,141.1,124.9,141.1,125.6,141.1z M85,37.1
	c-0.2,0.1-0.4,0.2-0.5,0.3c-1,1.1-2,2.2-3,3.3c-0.3,0.3-0.4,0.6-0.3,1c0.2,0.6,0.3,1.2,0.6,1.7c0.2,0.6,0.5,0.7,0.9,0.2
	c0.4-0.4,0.7-0.7,1.1-1l1.6-1.5c0.2-0.1,0.3-0.3,0.3-0.6C85.7,39.4,85.4,38.2,85,37.1z M85.7,147.7c0-0.4-0.2-0.8-0.5-1
	c-1-0.9-2-1.6-3-2.6c-0.2-0.2-0.4-0.2-0.4,0.1c-0.1,0.5-0.3,0.9-0.5,1.4c-0.4,0.8-0.2,1.7,0.5,2.2c1,0.9,1.9,1.9,2.7,3
	c0.1,0.1,0.1,0.3,0.3,0.2s0.2-0.2,0.2-0.4C85.4,149.8,85.6,148.7,85.7,147.7L85.7,147.7z M61.8,141.1c1.6,0,3.3,0,4.9,0
	c0.5,0.1,1-0.3,1.2-0.8c0.3-0.5,0.5-0.9,0.9-1.4c0.2-0.3,0.1-0.5-0.2-0.5s-0.6,0.1-0.9,0c-1-0.2-1.9-0.3-2.9-0.4
	c-0.6-0.2-1.2,0.1-1.5,0.6c-0.2,0.3-0.5,0.6-0.7,1S61.7,140.3,61.8,141.1z M151.3,104.7c0-0.1-0.1-0.2-0.2-0.2
	c-0.3,0-0.5-0.1-0.7-0.2c-0.6-0.2-1.3-0.4-1.9-0.4c-0.4-0.1-0.9,0.1-1.1,0.5c-0.3,0.4-0.6,0.7-0.9,1l-1.6,1.8
	c-0.2,0.2-0.2,0.5,0.1,0.5c0.4,0.1,0.8,0.3,1.2,0.5c0.3,0.1,0.6,0.2,0.8-0.2c0.1-0.1,0.3-0.2,0.4-0.3l3.8-2.8
	C151.3,104.9,151.3,104.8,151.3,104.7L151.3,104.7z M47.9,125l-0.1,0.6c0,0.2-0.1,0.4,0.1,0.4c0.2,0.1,0.4,0,0.4-0.2
	c0.1-0.2,0.4-0.3,0.6-0.4c0.5-0.3,1-0.6,1.5-0.9c0.4-0.3,0.6-0.8,0.5-1.3c-0.1-1.1-0.3-2.1-0.3-3.2c0-0.7-0.4-0.9-1-0.5
	c-0.2,0.1-0.4,0.4-0.7,0.4s-0.4,0.2-0.4,0.5c0,0.4-0.1,0.8-0.1,1.2C48,122.8,47.9,123.9,47.9,125L47.9,125z M43.6,107.5
	c-0.1-0.2-0.2-0.3-0.3-0.5c-0.8-1-1.7-1.9-2.5-2.9c-0.2-0.2-0.5-0.3-0.7-0.2c-1,0.1-1.9,0.3-2.8,0.7c-0.2,0.1-0.2,0.3,0,0.4
	c0.4,0.3,0.8,0.5,1.2,0.8c0.9,0.7,1.8,1.3,2.6,2c0.6,0.5,1.1,0.7,1.8,0.1c0.2-0.2,0.4-0.1,0.7-0.2C43.6,107.7,43.7,107.6,43.6,107.5
	L43.6,107.5z M142.4,125.1c0-0.5-0.1-0.9-0.1-1.4c-0.2-0.8-0.3-1.7-0.4-2.6c0-0.4,0-0.9-0.3-1c-0.5-0.2-0.9-0.7-1.4-0.7
	c-0.3,0-0.5,0.1-0.5,0.4c0.1,1.3-0.2,2.6-0.2,4c0,0.3,0.1,0.5,0.3,0.7c0.6,0.6,1.5,0.9,2.1,1.4c0.1,0.1,0.3,0.2,0.5,0.1
	c0.3-0.1,0.1-0.3,0.1-0.5S142.4,125.3,142.4,125.1L142.4,125.1z M140.5,68.6c0.3-0.1,0.6-0.2,0.8-0.4c0.6-0.3,1.2-0.7,1.1-1.6
	c0-0.5,0.1-1,0.2-1.5c0.2-1,0.3-2,0.4-3c0-0.1,0-0.2-0.1-0.3c-0.1-0.1-0.2,0-0.3,0.1c-0.6,0.5-1.3,1-2,1.3c-0.5,0.2-0.8,0.8-0.6,1.3
	c0.2,1.1,0.2,2.1,0.2,3.2C140.1,68,140.2,68.4,140.5,68.6L140.5,68.6z"/>
<path class="st5" d="M133.5,17.7c0.1,0.9-0.5,1.8-1.4,1.9c-0.3,0-0.6,0-0.9-0.1c-0.9-0.3-1.7-0.8-2.6-1.2c-0.2-0.1-0.3-0.4-0.2-0.6
	c0,0,0,0,0-0.1c0.4-0.8,0.8-1.6,1.2-2.4c0.1-0.2,0.3-0.2,0.5-0.1c0.9,0.4,1.9,0.9,2.8,1.4C133.3,16.6,133.6,17.1,133.5,17.7z"/>
<path class="st5" d="M177.2,114.7c-0.9,0.1-1.8-0.6-1.9-1.5c0-0.2,0-0.4,0.1-0.6c0.1-0.9,0.3-1.8,0.6-2.6c0.1-0.3,0.2-0.5,0.5-0.4
	c0.8,0.2,1.5,0.3,2.3,0.5s0.7,0.3,0.5,0.9s-0.3,1.5-0.5,2.2C178.7,114,178.1,114.6,177.2,114.7z"/>
<path class="st6" d="M55.8,170.1c0.1-1.1,0.3-2.2,0.4-3.4c0.1-0.5,0.2-0.6,0.7-0.3s1.2,0.6,1.9,0.9c0.4,0.2,0.4,0.4,0.1,0.7
	c-0.8,0.8-1.7,1.6-2.5,2.4c-0.1,0.1-0.3,0.2-0.5,0.1S55.7,170.2,55.8,170.1z"/>
<path class="st6" d="M147.8,27.4c0.2,0.2,0.2,0.4,0.1,0.5c-0.4,1.1-0.8,2.2-1.2,3.3c-0.2,0.5-0.3,0.5-0.7,0.2
	c-0.6-0.4-1.1-0.9-1.7-1.4c-0.2-0.2-0.3-0.4,0-0.6C145.5,28.8,146.6,28.1,147.8,27.4z"/>
<path class="st5" d="M22.9,50.7c0,0.3-0.1,0.6-0.2,0.9c-0.3,0.6-0.6,1.2-1,1.8s-0.5,0.5-1,0.2c-0.7-0.4-1.4-0.8-2.1-1.2
	c-0.3-0.2-0.5-0.4-0.3-0.8c0.4-0.7,0.8-1.4,1.2-2c0.9-1.1,2-1.1,2.9-0.1C22.8,49.9,23,50.3,22.9,50.7z"/>
<path class="st6" d="M179.7,92.8c0,0.2-0.2,0.4-0.4,0.4c-1.1,0.4-2.1,0.8-3.2,1.2c-0.5,0.2-0.6,0.1-0.6-0.5c0-0.7,0-1.4,0-2.1
	c0-0.3,0.1-0.4,0.5-0.3C177.2,91.9,178.4,92.4,179.7,92.8z"/>
<path class="st5" d="M32.1,34.4c1,0.1,1.8,1,1.7,2c0,0.1,0,0.2,0,0.3c-0.1,0.2-0.2,0.4-0.3,0.6c-0.5,0.7-1,1.3-1.6,1.9
	c-0.1,0.2-0.3,0.2-0.5,0.1l-0.1-0.1l-2.1-1.9c-0.2-0.2-0.3-0.4-0.1-0.6c0.6-0.7,1.2-1.3,1.9-1.9C31.3,34.5,31.7,34.4,32.1,34.4z"/>
<path class="st5" d="M177.1,78.1c-0.6,0.1-1.1-0.2-1.4-0.7c-0.4-0.9-0.7-1.9-0.8-2.9c-0.1-0.3,0.2-0.4,0.4-0.5
	c0.9-0.2,1.8-0.4,2.7-0.6c0.4-0.1,0.5,0.1,0.6,0.4c0.1,0.6,0.3,1.3,0.4,1.9c0.3,0.9-0.2,1.9-1.1,2.2
	C177.7,78.1,177.4,78.1,177.1,78.1z"/>
<path class="st5" d="M13.9,126.8c-0.1-0.9,0.5-1.7,1.3-2c0.7-0.2,1.4,0,1.9,0.6c0.6,0.8,1,1.7,1.3,2.6c0.1,0.2-0.1,0.4-0.2,0.5
	l-2.7,1.1c-0.2,0.1-0.4,0.1-0.4-0.1C14.5,128.7,14.2,127.7,13.9,126.8z"/>
<path class="st7" d="M50.1,105.1c-0.7-0.8-1.4-1.6-2.1-2.4c-0.4-0.4-0.2-0.7,0.4-0.8c1.6-0.2,3-0.7,4.6-0.9c0.2,0,0.3-0.1,0.5-0.2
	c1.4-0.3,2.8-0.6,4.2-0.9c0.8-0.2,1.6-0.4,2.4-0.5c0.5-0.1,0.6-0.3,0.5-0.8s-0.2-0.9-0.3-1.4s-0.4-0.5-0.8-0.4
	c-1.4,0.4-2.9,0.2-4.3,0.6c-1.1,0.3-2.3,0.2-3.5,0.5c-1.8,0.4-3.7,0.4-5.5,0.8c-0.3,0.1-0.6,0-0.9,0.1c-0.6,0.1-1.1-0.2-1.4-0.7
	c-0.8-0.9-1.6-1.8-2.3-2.7c-0.2-0.2-0.3-0.3-0.4-0.5c-0.1-0.1-0.1-0.4,0.1-0.5c1.2-1.3,2.3-2.6,3.5-3.9c0.4-0.4,0.7-0.8,1-1.2
	c0.2-0.3,0.6-0.5,1-0.4c1.1,0.1,2.3,0.2,3.5,0.3c0.8,0,1.6,0.1,2.3,0.2c0.2,0,0.4,0,0.6,0c2.1,0,4.1,0.1,6.1,0.4
	c0.9,0.1,1.2-0.1,1.2-1c0-0.1,0-0.2,0-0.3c0.1-0.9,0-1-0.9-1.1c-2.2-0.3-4.4-0.4-6.6-0.8c-1-0.2-2-0.1-2.9-0.3
	c-0.3,0-0.6-0.1-0.9-0.1c-0.4-0.1-0.4-0.3-0.2-0.6c0.6-0.6,1.2-1.3,1.7-1.9c0.4-0.5,1-0.6,1.5-0.5c1.1,0.2,2.2,0.6,3.3,0.7
	c0.4,0.1,0.7,0.1,1.1,0.3c1.2,0.4,2.5,0.4,3.7,0.8c0.8,0.2,1.1,0.2,1.4-0.8c0.4-1.4,0.9-2.7,1.5-4c0.5-1.2,1.2-2.4,1.9-3.5
	c0.2-0.2,0.1-0.4,0-0.6L65,76c-0.7-0.5-1.4-0.8-2.2-1.1c-0.4-0.2-0.8-0.4-1.2-0.6c-0.9-0.5-2-0.8-2.9-1.4c-0.4-0.3-0.9-0.3-1.3-0.7
	c-0.2-0.2-0.4-0.5-0.3-0.8c0.1-0.9,0.2-1.7,0.2-2.6c0.1-0.5,0.3-0.7,0.7-0.4c0.3,0.2,0.5,0.3,0.8,0.5c0.7,0.4,1.4,0.9,2.1,1.4
	c0.4,0.2,0.7,0.4,1.1,0.6c1.1,0.8,2.3,1.5,3.5,2.3c0.3,0.2,0.6,0.3,0.8,0.4c0.3,0.2,0.7,0.1,0.9-0.2c0.1-0.2,0.3-0.4,0.4-0.6
	c0.8-0.9,0.8-1-0.1-1.6c-1.6-1.2-3.3-2.4-5-3.6c-0.9-0.6-1.7-1.3-2.5-1.9c-0.6-0.4-1.2-1-1.9-1.4c-0.4-0.2-0.7-0.7-0.6-1.2
	c0-0.6,0.2-1.2,0.2-1.8s0.1-1.2,0-1.8c-0.1-1.1,0.2-1.4,1.3-1.5c1.7,0,3.3-0.3,5-0.4c0.7-0.1,1.4,0.3,1.8,0.9
	c1.5,1.8,3.1,3.6,4.6,5.4c0.7,0.8,1.4,1.6,2.1,2.5c0.7,0.8,0.8,0.8,1.6,0.3c0.2-0.2,0.5-0.3,0.7-0.6c0.2-0.2,0.2-0.4,0-0.6
	c-1.5-1.9-3-3.9-4.4-5.8c-0.4-0.6-0.9-1.1-1.3-1.7c-0.3-0.4-0.2-0.5,0.3-0.6c0.9-0.1,1.9-0.2,2.9-0.1c0.4,0,0.7,0.2,0.8,0.6
	c0.8,1.4,1.6,2.7,2.4,4.1c0.4,0.7,0.9,1.5,1.4,2.2c0.3,0.5,0.6,0.6,1.1,0.3c1.1-0.6,2.3-1.2,3.5-1.6c1.6-0.6,3.3-1.2,5-1.6
	c0.3-0.1,0.4-0.2,0.3-0.5c-0.2-1-0.5-2-0.9-3c-0.5-1.7-1.1-3.3-1.5-5.1c-0.1-0.3-0.2-0.6-0.4-0.9c-0.2-0.6-0.2-0.7,0.3-1.2
	c0.6-0.7,1.5-1.3,2.2-1.9c0.1-0.1,0.3-0.2,0.5-0.2s0.2,0.3,0.2,0.4c0,0.6,0.1,1.2,0.3,1.8c0.2,0.5,0.2,0.9,0.2,1.4
	c0.1,0.5,0.2,0.9,0.3,1.4c0.2,1.6,0.6,3.2,0.8,4.9c0.1,0.6,0.3,1.2,0.4,1.8c0,0.3,0.3,0.5,0.6,0.5c0,0,0,0,0.1,0c0.2,0,0.3,0,0.5,0
	c0.9-0.1,1-0.2,1-1.1c0-0.4,0-0.8-0.1-1.1c-0.1-0.6-0.2-1.1-0.2-1.7c0-1.1-0.3-2.1-0.4-3.2c0-0.2-0.1-0.4-0.1-0.6
	c-0.1-1.4-0.2-2.8-0.5-4.1c0-0.9-0.1-1.7-0.2-2.6c-0.1-0.2,0.1-0.4,0.3-0.6c0.8-0.7,1.5-1.5,2.4-2.1c0.7-0.5,1.2-1.1,1.9-1.7
	c0.7-0.5,0.6-0.4,1.1,0c1.2,1.1,2.5,2.2,3.7,3.2c0.4,0.3,0.6,0.8,0.4,1.3c-0.2,0.6-0.2,1.1-0.2,1.7c-0.1,1.2-0.2,2.4-0.4,3.5
	c0,0.2-0.1,0.3-0.1,0.5c-0.1,2.7-0.6,5.3-0.8,8c0,0.3,0.1,0.5,0.4,0.5c0.5,0.1,1,0.1,1.4,0.3c0.5,0.1,0.7,0,0.7-0.5
	c0.2-0.9,0.4-1.9,0.5-2.8c0-0.3,0.1-0.7,0.2-1c0.4-1.3,0.5-2.6,0.7-3.9c0.3-1.3,0.5-2.5,0.7-3.8c0-0.1,0-0.3,0.1-0.4s0.3,0,0.5,0.1
	c0.7,0.6,1.5,1.3,2.2,1.9c0.3,0.2,0.5,0.6,0.3,1c-0.7,2.1-1.3,4.2-2,6.4c-0.3,0.9-0.6,1.9-0.8,2.8c-0.2,0.8-0.1,0.9,0.7,1
	c0.1,0,0.3,0.1,0.4,0.1c0.9,0.4,1.9,0.6,2.8,1.1c1.3,0.5,2.6,1.2,3.9,2c0.3,0.2,0.7,0.2,1,0.5c0.3,0.2,0.3,0,0.4-0.2
	c0.2-0.2,0.4-0.5,0.5-0.8c1.1-1.9,2.2-3.8,3.3-5.6c0.4-0.7,0.9-1.4,1.3-2.1c0.1-0.2,0.3-0.5,0.7-0.5c1,0,2,0,3,0.1
	c0.7,0,0.8,0.4,0.4,0.9c-1.4,1.8-2.8,3.7-4.2,5.5c-0.9,1.2-1.7,2.4-2.7,3.5c-0.2,0.2-0.3,0.5-0.3,0.7c-0.1,0.3,0.3,0.3,0.4,0.5
	c0.2,0.1,0.2,0.3,0.4,0.4c0.7,0.4,0.9,0.5,1.4-0.1c1.5-1.8,3-3.5,4.5-5.2c0.9-1.1,1.8-2.2,2.8-3.3c0.6-0.7,1.3-1.4,1.9-2.2
	c0.2-0.2,0.4-0.2,0.6-0.2c1.3,0,2.6,0.1,3.9,0.2c0.6,0,1.1,0.1,1.7,0.1c0.3,0,0.6,0.1,0.8,0.1c0.3,0,0.6,0.3,0.5,0.7
	c0,1.6,0.3,3.1,0.2,4.7c0,0.5-0.2,0.9-0.6,1.2c-1.4,0.9-2.8,2-4.2,3c-1.7,1.1-3.3,2.4-4.9,3.7c-0.9,0.6-1.8,1.3-2.6,1.9
	c-0.7,0.5-0.8,0.7-0.2,1.3c0.1,0.2,0.2,0.3,0.3,0.5c0.6,0.9,0.9,0.7,1.6,0.2c1.1-0.7,2.2-1.4,3.3-2.1c0.7-0.4,1.3-0.9,2-1.3
	c1.1-0.7,2.2-1.4,3.4-2.1c0.4-0.2,0.9-0.5,1.2-0.8c0.1-0.1,0.2-0.2,0.4-0.2c0.6-0.2,0.8-0.1,0.8,0.5c0,0.9,0,1.9,0.1,2.9
	c0,0.4-0.3,0.8-0.7,0.9c-1,0.4-2,0.9-2.9,1.4c-0.9,0.4-1.9,0.9-2.8,1.4c-0.4,0.3-0.9,0.4-1.3,0.6c-0.8,0.4-1.7,0.8-2.6,1.2
	c-0.2,0.1-0.4,0.3-0.3,0.5v0.1c0.1,0.2,0.1,0.3,0.2,0.5c0.6,1,1.1,2.1,1.6,3.2c0.6,1.4,1.2,2.8,1.6,4.3c0,0.3,0.3,0.5,0.6,0.5h0.1
	l0.2-0.1c1.8-0.7,3.7-0.9,5.6-1.5c1.1-0.3,2.2-0.6,3.3-0.8c0.3-0.1,0.6,0,0.8,0.2c0.7,0.8,1.3,1.6,2,2.3c0.2,0.2,0.1,0.5-0.2,0.6
	c-0.5,0.1-1,0.2-1.5,0.3c-1.6,0.1-3.1,0.5-4.7,0.6c-1.3,0.1-2.5,0.4-3.8,0.5c-0.3,0-0.7,0-1,0s-0.5,0.1-0.6,0.4
	c0,0.6,0.1,1.2,0.3,1.8c0.1,0.1,0.3,0.1,0.5,0.1c0.6,0,1.2,0,1.8-0.2c1.6-0.1,3.2-0.4,4.8-0.4c2.2-0.1,4.3-0.3,6.5-0.5
	c0.4-0.1,0.8,0.1,1,0.4c1.1,1.4,2.3,2.7,3.5,4c0.3,0.3,0.5,0.6,0.8,0.9s0.3,0.8,0,1.2l0,0c-1,1-1.9,2-2.7,3.1
	c-0.2,0.2-0.4,0.3-0.7,0.3c-1,0-1.9-0.2-2.8-0.4c-1-0.1-2-0.2-3-0.4c-1.5-0.3-3.1-0.5-4.6-0.8c-1.4-0.2-2.7-0.5-4.1-0.6
	c-0.8-0.1-0.8,0-0.9,0.7c0,0.1,0,0.2,0,0.3c-0.3,1.4,0,1.7,1.4,1.8c0.4,0,0.7,0.1,1.1,0.2c1.4,0.3,2.7,0.7,4.1,0.9
	c0.3,0,0.6,0.2,0.8,0.2c1.4,0.4,2.7,0.7,4.1,0.9h0.1c1.2,0.2,1.3,0.4,0.5,1.3l-1.6,1.8c-0.2,0.3-0.5,0.4-0.8,0.2
	c-1.1-0.4-2.2-0.7-3.3-1.1c-0.7-0.3-1.5-0.6-2.2-0.7c-0.3-0.1-0.5-0.1-0.7-0.3c-0.1-0.1-0.3-0.2-0.5-0.2c-1-0.2-1.9-0.5-2.8-0.9
	c-0.8-0.4-1.3-0.2-1.3,0.7c-0.2,1.1-0.5,2.1-0.9,3.1c-0.4,1.1-0.9,2.2-1.4,3.3c-0.2,0.6-0.5,1.1-0.8,1.6s-0.2,0.9,0.5,1.2
	c0.5,0.2,0.9,0.4,1.4,0.7c1.2,0.6,2.3,1.1,3.4,1.7c1.4,0.7,2.8,1.2,4.1,2.1c0.2,0.1,0.4,0.2,0.4,0.5c-0.1,1.1-0.1,2.2-0.2,3.3
	c0,0.3-0.2,0.5-0.5,0.3l-2.4-1.5c-1.1-0.7-2.2-1.4-3.3-2c-0.7-0.4-1.4-0.9-2.1-1.4c-0.7-0.5-1.7-1.1-2.5-1.5
	c-0.2-0.2-0.5-0.1-0.7,0.1l0,0c-0.2,0.3-0.5,0.6-0.7,1c-0.4,0.6-0.4,0.9,0.2,1.3c1.6,1,3,2.2,4.5,3.2s2.8,2.1,4.2,3
	c1,0.6,1.8,1.4,2.8,2.1c0.3,0.2,0.4,0.5,0.4,0.8c0,1.6,0,3.3-0.1,4.9c-0.1,0.6-0.2,0.7-0.8,0.8c-0.3,0.1-0.5,0.1-0.8,0.1
	c-1.7,0-3.3,0.2-5,0.5c-0.4,0.1-0.8-0.1-1.1-0.4c-0.9-1-1.7-2-2.6-3.1l-4.8-5.6c-0.5-0.5-1-1.1-1.4-1.6c-0.2-0.3-0.7-0.4-1-0.2
	c-0.4,0.2-0.7,0.4-0.9,0.8c-0.2,0.3-0.1,0.7,0.1,1c0.9,1.1,1.7,2.3,2.6,3.4c1.2,1.5,2.3,3.1,3.5,4.6c0.3,0.4,0.6,0.7,0.8,1.1
	c0.3,0.4,0.2,0.6-0.3,0.6c-1,0.1-1.9,0.3-2.9,0.3c-0.4,0-0.8-0.2-1-0.6c-0.9-1.5-1.8-3-2.6-4.6c-0.7-1.2-1.5-2.5-2.2-3.7
	c-0.1-0.3-0.5-0.4-0.8-0.3l0,0c-0.6,0.3-1.2,0.6-1.8,0.9l-2.1,1c-0.6,0.3-1.2,0.5-1.8,0.8c-0.7,0.3-1.5,0.6-2.3,0.8
	c-0.5,0.1-0.6,0.3-0.4,0.7s0.3,1,0.4,1.5c0.3,1,0.6,2.1,0.9,3.2c0.2,0.7,0.4,1.3,0.6,2c0.2,0.9,0.5,1.8,0.9,2.7
	c0.2,0.5-0.1,0.8-0.4,1c-0.8,0.7-1.7,1.5-2.6,2.3c-0.1-0.5-0.3-0.9-0.3-1.4c-0.2-0.8-0.3-1.7-0.4-2.6c0-0.7-0.3-1.3-0.4-2
	c-0.1-1.4-0.6-2.7-0.7-4.1c-0.1-0.7-0.3-1.5-0.5-2.2c0-0.2-0.2-0.4-0.5-0.4h-0.1c-0.5,0.1-1.1,0.2-1.6,0.4c-0.3,0-0.4,0.2-0.4,0.5
	c0.4,1.7,0.4,3.5,0.6,5.2c0.2,1.6,0.3,3.2,0.5,4.7c0.2,1.2,0,2.5,0.4,3.7c0.2,0.5-0.1,1.1-0.5,1.4c-1.2,1-2.4,2-3.6,3.1
	c-0.5,0.5-0.8,0.5-1.2,0c-1.2-1.1-2.4-2.2-3.8-3.2c-0.6-0.4-0.9-1.1-0.7-1.7c0.2-1,0.1-2,0.3-3c0.4-1.9,0.4-3.8,0.7-5.7
	c0.1-1.2,0.2-2.4,0.5-3.6c0-0.2,0-0.5,0-0.7c0-0.5-0.2-0.7-0.7-0.7c-0.4-0.1-0.9-0.1-1.3,0c-0.5,0.2-0.3,0.8-0.4,1.2
	c-0.3,1.5-0.7,2.9-0.8,4.4c0,0.1,0,0.2,0,0.3c-0.6,1.5-0.5,3.2-1,4.7c-0.2,0.5,0,1-0.3,1.5c-0.9-0.8-1.8-1.5-2.7-2.3
	c-0.3-0.2-0.3-0.6-0.2-0.9c0.5-1.5,1-2.9,1.4-4.4s0.9-3.1,1.4-4.6c0.1-0.3,0-0.5-0.3-0.6c-0.7-0.2-1.4-0.4-2.1-0.6
	c-0.9-0.2-1.7-0.5-2.5-0.9c-0.6-0.3-1.2-0.5-1.8-0.7c-0.6-0.3-1.2-0.6-1.8-0.9c-0.7-0.4-0.8-0.4-1.2,0.3c-0.9,1.6-1.9,3.2-2.8,4.8
	c-0.5,0.9-1,1.7-1.5,2.6c-0.2,0.4-0.6,0.6-1,0.6c-0.8-0.1-1.7-0.2-2.5-0.2c-0.2,0-0.6,0.1-0.7-0.2c-0.1-0.3,0-0.5,0.2-0.8
	c1.1-1.4,2.2-2.8,3.2-4.2l2.9-3.8c0.5-0.6,0.5-0.7-0.1-1.2c-0.3-0.2-0.6-0.4-0.9-0.6c-0.2-0.1-0.4,0-0.5,0.1c-0.4,0.3-0.7,0.6-1,1
	c-2.1,2.4-4.2,4.9-6.3,7.4c-0.4,0.5-0.8,1-1.2,1.4c-0.3,0.3-0.7,0.5-1.1,0.5c-0.9,0-1.8-0.1-2.7-0.2c-1-0.1-2-0.1-3-0.3
	c-0.4-0.1-0.6-0.3-0.6-0.6c-0.1-1.2-0.2-2.3-0.2-3.5c0-0.6,0-1.3,0-1.9c0-0.3,0.1-0.6,0.4-0.8c0.7-0.5,1.3-1.1,2-1.5
	c0.9-0.6,1.8-1.2,2.6-1.9c1.2-0.9,2.4-1.8,3.6-2.6c0.8-0.6,1.5-1.3,2.4-1.8c0.1-0.1,0.2-0.3,0.1-0.5c0,0,0,0-0.1-0.1
	c-0.4-0.5-0.7-0.9-1.1-1.4c-0.2-0.2-0.6-0.3-0.9-0.1c-0.6,0.3-1.3,0.7-1.8,1.1c-0.8,0.6-1.6,1-2.4,1.5l-2.1,1.3
	c-0.8,0.5-1.6,1-2.4,1.5c-0.5,0.3-0.6,0.2-0.7-0.3c-0.1-1-0.1-2-0.2-3c0-0.3,0.1-0.5,0.4-0.7c1.1-0.6,2.2-1.1,3.3-1.7
	c0.6-0.3,1.2-0.5,1.9-0.9c0.5-0.3,1-0.6,1.6-0.8c0.4-0.1,0.7-0.5,1.1-0.6c0.1,0,0.2-0.2,0.2-0.4c-0.1-0.3-0.1-0.5-0.3-0.7
	c-0.8-1.4-1.6-2.9-2.2-4.4c-0.5-1.3-0.9-2.6-1.4-3.9c-0.2-0.7-0.4-0.8-1.1-0.5c-1,0.4-2.1,0.7-3.2,0.9c-0.7,0.2-1.4,0.4-2.1,0.6
	c-1,0.2-1.9,0.5-2.8,0.9c-0.4,0.2-0.9,0.1-1.3,0.3L50.1,105.1z M124.6,94.1L124.6,94.1c0.1-1.3,0.1-2.7,0-4c-0.3-2-0.8-4-1.4-6
	c-0.6-1.8-1.4-3.6-2.4-5.3c-1-1.7-2.1-3.3-3.4-4.7c-1.3-1.6-2.9-3-4.5-4.2c-1.4-1-2.8-1.9-4.3-2.8c-1-0.5-2-1-3.1-1.4
	c-1.5-0.5-2.9-1-4.5-1.3c-1.4-0.3-2.8-0.5-4.3-0.6c-1.7-0.2-3.4-0.2-5.1,0c-1.3,0-2.5,0.2-3.8,0.5c-0.4,0.1-0.9,0.2-1.3,0.3
	c-0.8,0.2-1.6,0.4-2.4,0.7c-0.8,0.2-1.6,0.6-2.4,0.9c-0.6,0.3-1.2,0.4-1.8,0.8c-0.7,0.5-1.4,0.9-2.2,1.3c-1,0.5-1.9,1.2-2.7,1.9
	c-1.7,1.4-3.3,3-4.7,4.8c-0.7,0.9-1.4,1.9-2,2.9c-0.7,1.2-1.4,2.4-2,3.6c-0.5,0.9-0.8,1.8-1.1,2.8c-0.2,1-0.6,1.9-0.8,2.9
	c-0.3,1.3-0.6,2.7-0.6,4.1c-0.3,3-0.1,6.1,0.5,9.1c0.4,1.8,0.9,3.5,1.5,5.2c0.5,1.3,1.2,2.6,1.9,3.9c1.5,2.6,3.4,4.9,5.6,7
	c1.7,1.6,3.6,3,5.6,4.2c0.3,0.3,0.7,0.5,1.1,0.7c0.6,0.2,1.1,0.4,1.6,0.8c0.7,0.3,1.4,0.6,2.1,0.8c1.6,0.6,3.3,1.1,5.1,1.4
	c0.8,0.1,1.6,0.3,2.5,0.4c1.5,0.1,3,0.1,4.4,0c0.9,0,1.7,0,2.6-0.1c1.5-0.3,3-0.6,4.4-0.9c0.8-0.2,1.6-0.5,2.4-0.8
	c0.7-0.2,1.4-0.5,2.1-0.9c0.9-0.4,1.8-0.9,2.6-1.4c1.3-0.8,2.5-1.6,3.7-2.6c1.3-1.1,2.5-2.2,3.6-3.4c1.3-1.4,2.4-2.9,3.4-4.5
	c0.7-1.2,1.3-2.5,1.9-3.7c0.5-1,0.9-2,1.2-3.1s0.6-2.2,0.8-3.3c0.2-0.8,0.3-1.5,0.4-2.3C124.6,96.3,124.6,95.3,124.6,94.1
	L124.6,94.1z"/>
<path class="st7" d="M54.7,52.1c-0.6,0-1.3,0-1.9,0.1c-0.6,0.1-0.7,0.2-0.7,0.9c-0.1,1.8-0.4,3.7-0.3,5.5c0,0.2,0.1,0.4-0.1,0.6
	s-0.4,0-0.6-0.2c-1.4-1-2.7-1.9-4.1-3c-0.3-0.2-0.4-0.5-0.4-0.9c0-1.9-0.2-3.8-0.3-5.6c0-0.7,0-1.4,0.1-2.1c0-0.3,0.2-0.5,0.5-0.5
	c0,0,0,0,0.1,0c0.2,0,0.5,0,0.7,0c1.4,0.2,2.8,0,4.2,0.1s2.7,0.1,4.1,0.1c0.3,0,0.5,0.1,0.7,0.4c1.1,1.2,2.1,2.4,3.2,3.7
	c0.2,0.3,0.1,0.5-0.3,0.6C57.9,51.9,56.4,52.1,54.7,52.1z"/>
<path class="st8" d="M154.5,88c0.5-0.2,1,0.1,1.4,0.5c1,1,2,2,3,2.9s2.1,2.1,3.3,3c0.3,0.2,0.2,0.4,0,0.7c-0.4,0.5-0.8,0.9-1.3,1.3
	c-1.5,1.4-3.1,2.9-4.6,4.3c-0.1,0.2-0.4,0.3-0.6,0.2c-1.3-0.2-2.6-0.4-3.8-0.6c-0.2,0-0.5,0-0.6-0.3s0.2-0.4,0.3-0.6
	c1.1-1.3,2.2-2.7,3.5-3.9c0.4-0.4,0.4-0.8,0-1.3c-1.4-1.7-2.9-3.4-4.3-5c-0.1-0.1-0.3-0.3-0.4-0.4c-0.1-0.2-0.1-0.5,0.2-0.5
	s0.9-0.1,1.3-0.2L154.5,88z"/>
<path class="st8" d="M34.1,88c1.1,0.2,2.3,0.1,3.4,0.3c0.7,0.2,0.8,0.2,0.2,0.8c-0.8,0.9-1.5,1.7-2.3,2.6l-2.5,2.8
	c-0.3,0.3-0.1,0.5,0.1,0.8c0.6,0.7,1.2,1.4,1.8,2s1.3,1.5,2,2.3c0.4,0.5,0.3,0.7-0.3,0.8c-0.6,0.2-1.3,0.2-1.9,0.2
	c-0.6,0.1-1.2,0.2-1.8,0.4c-0.3,0.1-0.7,0-0.9-0.3c-1.1-1.1-2.3-2.1-3.4-3.2c-0.7-0.6-1.3-1.3-2.1-1.9c-0.5-0.4-0.6-0.7-0.1-1.1
	c1.1-1.1,2.2-2.1,3.4-3.2c0.7-0.6,1.3-1.2,2-1.9c0.3-0.3,0.7-0.6,1-0.9C33.1,88,33.6,87.9,34.1,88z"/>
<path class="st8" d="M100.5,37.5c-0.7-0.6-1.3-1.1-2-1.7c-0.9-0.8-1.9-1.7-2.8-2.5c-0.3-0.4-0.9-0.4-1.3,0l-0.1,0.1l-4.7,4.1
	c-0.1,0.1-0.2,0.1-0.3,0.2s-0.4,0.1-0.4-0.2c-0.2-1.1-0.4-2.2-0.5-3.3c-0.1-0.6,0.1-1.1,0.5-1.5l4.8-5.5c0.3-0.3,0.5-0.6,0.8-1
	c0.2-0.2,0.5-0.3,0.8-0.1l0.1,0.1l4.6,4.5c0.1,0.1,0.1,0.2,0.1,0.2c1.1,0.6,1.2,1.6,1,2.7s-0.3,2.3-0.5,3.5
	C100.6,37.3,100.6,37.4,100.5,37.5z"/>
<path class="st8" d="M89.2,150.3c0.5,0.3,1,0.7,1.4,1.2c1.2,1,2.3,2.1,3.6,3c0.1,0.1,0.2,0.2,0.3,0.4c0.3,0.3,0.8,0.4,1.1,0.1l0,0
	c1.4-1.5,3.1-2.7,4.6-4.1c0.3-0.2,0.4-0.2,0.5,0.1c0.1,0.2,0.1,0.4,0.2,0.7c0,1.3,0.4,2.6,0.4,4c0,0.4-0.2,0.7-0.4,1
	c-1.8,1.8-3.7,3.6-5.5,5.4c-0.3,0.3-0.5,0.3-0.8,0c-1.9-2.3-3.9-4.6-5.8-6.8c-0.2-0.2-0.4-0.6-0.3-0.9c0.1-1.2,0.3-2.5,0.5-3.7
	C89,150.5,89.1,150.4,89.2,150.3z"/>
<path class="st8" d="M139.9,58.7c-0.1-0.1-0.2-0.2-0.2-0.4c-0.1-1.8-0.3-3.6-0.4-5.4c0-0.2,0-0.4,0-0.5c-0.1-1.1-0.1-1-1.2-1.2
	c-0.5-0.1-1.1-0.1-1.6-0.1c-1.1,0-2.1-0.1-3.2-0.2c-0.5-0.1-0.9,0-1.4-0.1c-0.2,0-0.4,0-0.4-0.2s0-0.3,0.2-0.5
	c0.7-0.8,1.4-1.6,2.1-2.5c0.2-0.3,0.6-0.4,0.9-0.4c2,0.1,3.9,0,5.9-0.2c0.9,0,1.9,0,2.8,0c0.6,0,0.9,0.2,0.8,0.9
	c-0.2,1.4-0.1,2.8-0.2,4.2c-0.1,0.9-0.1,1.7-0.1,2.6c0.1,0.8-0.3,1.5-0.9,1.9C141.9,57.2,140.8,57.9,139.9,58.7z"/>
<path class="st9" d="M139.1,132.1v-2.2c0-0.2,0-0.4,0.2-0.5c0.2,0,0.4,0,0.6,0.2c0.7,0.6,1.4,1.1,2.1,1.6c0.3,0.2,0.7,0.5,0.9,0.7
	c0.2,0.3,0.4,0.6,0.3,1c0.1,1.9,0.2,3.9,0.3,5.8c0,0.6,0,1.3-0.1,1.9c0,0.3-0.2,0.5-0.5,0.5s-0.9,0-1.3,0c-1.7-0.1-3.4-0.2-5.1-0.1
	c-0.8,0-1.6-0.2-2.4-0.1c-0.5,0-0.9-0.2-1.2-0.6c-0.6-0.7-1.2-1.4-1.8-2.1c-0.1-0.1-0.3-0.3-0.2-0.5s0.3-0.2,0.5-0.2
	c2.3,0,4.5-0.5,6.8-0.5c0.4,0,0.5-0.1,0.5-0.5C139,134.8,139.1,133.4,139.1,132.1z"/>
<path class="st9" d="M46.7,137.4c0.1-1.6,0.1-3.2,0.2-4.8c0-0.4,0.2-0.8,0.6-1c0.9-0.6,1.8-1.3,2.6-2c0.1-0.1,0.3-0.2,0.5-0.3
	c0.2,0,0.4,0,0.4,0.3v0.1c-0.1,1.9,0.4,3.9,0.3,5.8c0,1.4,0,1.3,1.4,1.5c1.9,0.2,3.7,0.2,5.5,0.5c0.6,0.1,0.7,0.3,0.3,0.8
	c-0.6,0.7-1.1,1.3-1.7,2c-0.3,0.3-0.6,0.4-1,0.4c-1.6,0.1-3.1,0.1-4.7,0.1c-1.3,0-2.6,0.2-3.8,0.1c-0.7,0-0.7,0-0.8-0.7
	C46.8,139.3,46.8,138.4,46.7,137.4L46.7,137.4z"/>
<path class="st10" d="M64.1,47h2c0.6,0,1.1,0.3,1.3,0.8c0.4,0.9,0.9,1.7,1.4,2.4c0.1,0.1,0.1,0.3,0.2,0.4c0.1,0.3,0.1,0.5-0.3,0.5
	s-0.7,0.1-1,0.2l-2.8,0.2c-0.4,0.1-0.8-0.1-1-0.5c-0.8-1.1-1.6-2.2-2.5-3.3c-0.1-0.1-0.2-0.3-0.1-0.5c0-0.2,0.2-0.2,0.4-0.2H64.1z"
	/>
<path class="st10" d="M147.5,85.1c-0.3,0-0.5-0.1-0.7-0.3c-0.8-1.1-1.8-2-2.6-3.1c-0.3-0.4-0.3-0.6,0.3-0.6c0.4,0,0.7-0.1,1.1-0.3
	c0.6-0.3,1.3-0.2,1.9-0.4c0.3-0.1,0.7,0.1,0.9,0.4c0.9,1.1,2.1,2.1,3.1,3.1c0.1,0.1,0.3,0.2,0.3,0.4c0,0.2-0.2,0.4-0.4,0.4
	c-0.8,0-1.6,0.3-2.4,0.4C148.5,85.1,148,84.9,147.5,85.1z"/>
<path class="st10" d="M40.2,85c-1-0.1-2.1-0.2-3.1-0.4c-0.2,0-0.5-0.1-0.5-0.4s0.2-0.3,0.4-0.4l3.1-3.1c0.3-0.3,0.8-0.4,1.2-0.3
	c1,0.2,1.9,0.6,2.8,0.8c0.3,0.1,0.4,0.2,0.2,0.4c-0.9,1-1.8,2.1-2.7,3.1C41.1,85.2,40.6,85,40.2,85z"/>
<path class="st10" d="M50.9,68.9c-0.5,0-1-0.1-1.4-0.4s-0.9-0.4-1.4-0.7c-0.2-0.2-0.4-0.3-0.3-0.6c-0.1-1-0.2-2.1-0.4-3.1
	c0-0.7-0.1-1.4-0.2-2.1c0-0.1,0-0.2,0.1-0.3l0,0c0.1,0,0.2,0,0.2,0.1c1,0.7,2.1,1.4,3.2,2c0.2,0.1,0.3,0.2,0.3,0.5
	C51.2,65.8,51.2,67.4,50.9,68.9z"/>
<path class="st10" d="M126.3,50.3l-4.2-0.4c-0.3,0-0.5-0.2-0.3-0.5c0.4-0.7,0.9-1.5,1.3-2.2c0.2-0.2,0.4-0.3,0.7-0.3h4.5
	c0.2,0,0.4,0,0.5,0.2s-0.1,0.4-0.2,0.5c-0.5,0.7-1,1.4-1.5,2.1S126.6,50.4,126.3,50.3z"/>
<path class="st10" d="M109,41.6c-0.1,0.2-0.2,0.5-0.3,0.8s-0.2,0.6-0.3,0.9c-0.1,0.6-0.5,0.8-0.9,0.4c-0.9-0.9-2-1.6-2.9-2.6
	c-0.2-0.1-0.2-0.3-0.2-0.5c0.1-1.2,0.3-2.5,0.7-3.6c0.1-0.4,0.2-0.4,0.5,0c0.8,0.9,1.5,1.9,2.3,2.8c0.3,0.3,0.5,0.7,0.8,1
	C109,41,109.1,41.3,109,41.6z"/>
<path class="st10" d="M105.3,151.5c-0.3-0.9-0.5-1.9-0.7-2.9c0-0.1,0-0.1,0-0.2c-0.3-0.8,0-1.7,0.8-2.2c0.8-0.7,1.6-1.4,2.4-2.1
	c0.3-0.3,0.5-0.2,0.6,0.2c0.1,0.6,0.3,1.2,0.5,1.7c0.2,0.4,0.1,0.9-0.2,1.3c-1,1.3-2.2,2.5-3.1,3.9
	C105.5,151.4,105.4,151.5,105.3,151.5z"/>
<path class="st10" d="M125.6,141.1c-0.7,0-1.3,0-2,0c-0.5,0.1-1-0.2-1.2-0.7s-0.5-1-0.8-1.4c-0.2-0.4-0.2-0.6,0.2-0.7
	c0.1,0,0.1,0,0.2,0c1.3,0,2.5-0.3,3.8-0.4c0.5-0.1,0.9,0.2,1.1,0.6c0.4,0.6,0.9,1.2,1.3,1.8c0.1,0.1,0.2,0.2,0.2,0.4
	c0.1,0.3,0,0.5-0.3,0.5L125.6,141.1z"/>
<path class="st10" d="M85,37.1c0.4,1.1,0.7,2.3,0.8,3.6c0,0.3-0.1,0.4-0.3,0.6l-1.6,1.5c-0.4,0.3-0.8,0.6-1.1,1
	c-0.4,0.4-0.7,0.3-0.9-0.2c-0.2-0.6-0.4-1.1-0.6-1.7c-0.1-0.4,0-0.7,0.3-1c1.1-1,2-2.2,3-3.3C84.6,37.3,84.8,37.1,85,37.1z"/>
<path class="st10" d="M85.7,147.7c-0.1,1-0.3,2.1-0.6,3c0,0.1,0,0.3-0.2,0.4s-0.2-0.1-0.3-0.2c-0.8-1.1-1.7-2.1-2.7-3
	c-0.7-0.5-0.9-1.5-0.5-2.2c0.2-0.4,0.4-0.9,0.5-1.4c0-0.3,0.2-0.3,0.4-0.1c0.9,0.9,2,1.7,3,2.6C85.6,147,85.7,147.3,85.7,147.7z"/>
<path class="st10" d="M61.8,141.1c-0.1-0.7,0.4-1,0.7-1.4s0.5-0.6,0.7-1c0.3-0.5,0.9-0.8,1.5-0.6c1,0.1,2,0.2,2.9,0.4
	c0.3,0.1,0.6-0.1,0.9,0s0.4,0.2,0.2,0.5c-0.3,0.4-0.6,0.9-0.8,1.4s-0.7,0.8-1.2,0.8C65,141.1,63.4,141.1,61.8,141.1z"/>
<path class="st10" d="M151.3,104.7c0,0.1-0.1,0.2-0.2,0.3l-3.8,2.8c-0.2,0.1-0.3,0.2-0.4,0.3c-0.2,0.3-0.5,0.3-0.8,0.2
	c-0.4-0.2-0.8-0.4-1.2-0.5c-0.3-0.1-0.3-0.3-0.1-0.5l1.6-1.8c0.3-0.3,0.6-0.6,0.9-1c0.2-0.4,0.6-0.6,1.1-0.5
	c0.7,0.1,1.3,0.2,1.9,0.4c0.2,0.1,0.5,0.2,0.7,0.2C151.2,104.5,151.3,104.5,151.3,104.7z"/>
<path class="st10" d="M47.9,125c0-1.1,0.2-2.2,0.4-3.2c0.1-0.4,0.1-0.8,0.1-1.2c0-0.3,0.1-0.5,0.4-0.5s0.5-0.3,0.7-0.4
	c0.6-0.3,1-0.1,1,0.5c0,1.1,0.2,2.1,0.3,3.2c0.1,0.5-0.1,1-0.5,1.3c-0.5,0.3-1,0.6-1.5,0.9c-0.2,0.1-0.4,0.2-0.6,0.4
	c-0.1,0.2-0.3,0.2-0.4,0.2c-0.2-0.1-0.2-0.3-0.1-0.4L47.9,125z"/>
<path class="st10" d="M43.6,107.5c0,0.1-0.1,0.3-0.2,0.3c-0.2,0.1-0.5,0-0.7,0.2c-0.6,0.5-1.2,0.3-1.8-0.1c-0.9-0.7-1.7-1.4-2.6-2
	c-0.4-0.3-0.8-0.5-1.2-0.8c-0.2-0.1-0.2-0.3,0-0.4c0.9-0.4,1.9-0.6,2.8-0.7c0.3,0,0.5,0.1,0.7,0.2c0.8,1,1.7,2,2.5,2.9
	C43.4,107.2,43.5,107.3,43.6,107.5z"/>
<path class="st10" d="M142.4,125.1c0,0.1,0,0.3,0,0.4s0.2,0.4-0.1,0.5c-0.2,0.1-0.4,0-0.5-0.1c-0.6-0.6-1.5-0.8-2.1-1.4
	c-0.2-0.2-0.3-0.4-0.3-0.7c0-1.3,0.3-2.6,0.2-4c0-0.3,0.2-0.4,0.4-0.4c0.6,0,0.9,0.5,1.4,0.7c0.3,0.1,0.3,0.6,0.3,1
	c0.1,0.9,0.2,1.7,0.4,2.6C142.3,124.2,142.4,124.6,142.4,125.1z"/>
<path class="st10" d="M140.4,68.6c-0.2-0.2-0.4-0.6-0.3-0.9c0.1-1.1,0-2.1-0.2-3.2c-0.2-0.5,0.1-1.1,0.6-1.3c0.7-0.3,1.4-0.8,2-1.3
	c0.1-0.1,0.2-0.1,0.3-0.1c0.1,0.1,0.1,0.2,0.1,0.3c0,1-0.2,2-0.4,3c-0.2,0.5-0.2,1-0.2,1.5c0.1,0.9-0.4,1.3-1.1,1.6
	C141,68.3,140.7,68.5,140.4,68.6z"/>
<path class="st6" d="M50.1,105.1H51C50.5,105.5,50.4,105.5,50.1,105.1z"/>
<path class="st11" d="M124.6,94.1c0,1.1,0,2.2,0,3.3c-0.1,0.8-0.2,1.5-0.4,2.3c-0.2,1.1-0.4,2.2-0.8,3.3c-0.3,1.1-0.7,2.1-1.2,3.2
	c-0.6,1.3-1.2,2.5-1.9,3.7c-1,1.6-2.1,3.1-3.4,4.5c-1.1,1.2-2.3,2.4-3.6,3.4c-1.2,0.9-2.4,1.8-3.7,2.6c-0.9,0.5-1.7,1-2.6,1.4
	c-0.7,0.3-1.4,0.6-2.1,0.9c-0.8,0.3-1.6,0.6-2.4,0.8c-1.5,0.4-2.9,0.6-4.4,0.9c-0.9,0.1-1.7,0.2-2.6,0.1c-1.5,0-3,0-4.4,0
	c-0.8,0-1.6-0.2-2.5-0.4c-1.7-0.3-3.4-0.8-5.1-1.4c-0.7-0.2-1.4-0.5-2.1-0.8c-0.5-0.3-1.1-0.6-1.6-0.8c-0.4-0.2-0.8-0.4-1.1-0.7
	c-2-1.2-3.9-2.6-5.6-4.2c-2.2-2.1-4.1-4.4-5.6-7c-0.7-1.2-1.4-2.5-1.9-3.9c-0.6-1.7-1.1-3.4-1.5-5.2c-0.6-3-0.7-6-0.5-9.1
	c0.1-1.4,0.3-2.8,0.6-4.1c0.2-1,0.6-1.9,0.8-2.9c0.3-1,0.7-1.9,1.1-2.8c0.6-1.3,1.3-2.5,2-3.6c0.6-1,1.3-1.9,2-2.9
	c1.4-1.8,3-3.4,4.7-4.8c0.9-0.7,1.8-1.3,2.7-1.9c0.7-0.4,1.5-0.8,2.2-1.3c0.5-0.4,1.2-0.5,1.8-0.8c0.8-0.4,1.6-0.7,2.4-0.9
	c0.8-0.3,1.6-0.5,2.4-0.7c0.4-0.1,0.9-0.2,1.3-0.3c1.2-0.3,2.5-0.5,3.8-0.5c1.7-0.2,3.4-0.2,5.1,0c1.4,0.1,2.9,0.3,4.3,0.6
	c1.5,0.3,3,0.8,4.5,1.3c1.1,0.4,2.1,0.9,3.1,1.4c1.5,0.8,3,1.8,4.3,2.8c1.7,1.2,3.2,2.6,4.5,4.2c1.3,1.5,2.4,3.1,3.4,4.8
	c1,1.7,1.8,3.5,2.4,5.3c0.6,2,1.1,4,1.4,6C124.7,91.5,124.7,92.8,124.6,94.1L124.6,94.1z M68.4,94c-0.1,6.8,2.7,13.4,7.5,18.2
	c4.7,5,11.3,7.7,18.2,7.7c7.2,0.1,14.2-2.9,19-8.3c4.5-4.8,7-11.1,6.9-17.7c0.1-7.4-3.2-14.5-8.8-19.2c-5.3-4.8-12.3-7.1-19.4-6.4
	C80.2,69.2,68.3,79.4,68.4,94L68.4,94z"/>
<path class="st9" d="M68.4,94.1c-0.1-14.6,11.8-24.9,23.4-25.8c7.1-0.7,14.1,1.6,19.4,6.4c5.6,4.8,8.9,11.8,8.8,19.2
	c0.1,6.6-2.4,12.9-6.9,17.7c-4.8,5.4-11.8,8.4-19,8.3c-6.9,0.1-13.5-2.7-18.2-7.7C71,107.5,68.3,100.9,68.4,94.1z M94.6,111.5
	c1.7-0.1,3.4-0.3,5.1-0.6c0.5-0.1,1-0.3,1.5-0.4c0.8-0.1,1.5-0.3,2.2-0.6c1.1-0.5,2.3-0.9,3.4-1.5c0.8-0.4,1.6-0.9,2.4-1.4
	c1-0.6,2-1.3,2.9-2.1c0.6-0.5,1.2-1,1.7-1.6c0.2-0.2,0.3-0.4-0.1-0.6c-1-0.3-2-0.7-3-1c-0.7-0.2-1.3-0.5-2-0.7
	c-0.9-0.2-1.7-0.5-2.5-0.8c-0.8-0.2-1.7-0.4-2.4-0.8c-0.3-0.1-0.6-0.2-0.9-0.2c-0.2-0.1-0.4,0.1-0.5,0.3l0,0
	c-0.3,0.9-0.8,1.7-1.4,2.4c-0.8,1-1.8,1.8-3,2.4c-0.8,0.4-1.7,0.7-2.6,0.8c-1.3,0.2-2.7,0-4-0.4c-0.8-0.3-1.6-0.8-2.3-1.3
	c-1.2-0.8-2.2-2-2.8-3.4c-0.3-0.6-0.3-0.6-1-0.6c-0.3,0-0.6,0.1-0.9,0.2c-0.8,0.3-1.7,0.6-2.6,0.9c-0.8,0.2-1.6,0.4-2.4,0.7
	c-1.7,0.6-3.4,1-5.1,1.6c-0.3,0.1-0.4,0.3-0.2,0.5c0.8,0.8,1.7,1.6,2.7,2.3c0.7,0.5,1.4,0.9,2.1,1.4c0.8,0.5,1.6,1,2.5,1.4
	c0.3,0.2,0.7,0.4,1,0.6c0.7,0.2,1.4,0.5,2.1,0.8c0.8,0.4,1.7,0.7,2.6,0.8c1.3,0.4,2.7,0.6,4.1,0.7C92.2,111.3,93.2,111.5,94.6,111.5
	L94.6,111.5z M93.8,79.5v-7.3c0-0.2,0-0.4,0-0.5c0-0.4-0.1-0.6-0.5-0.5c-0.5,0-1.1,0-1.6,0c-1.1,0.1-2.1,0.6-3.1,0.5
	c-0.1,0-0.3,0.1-0.4,0.1c-0.8,0.4-1.8,0.5-2.6,0.9c-0.4,0.2-0.8,0.5-1.3,0.7c-0.7,0.2-0.8,0.4-0.5,1.1s0.5,1.2,0.8,1.7
	c0.4,1,0.9,2,1.3,3c0.7,1.4,1.4,2.9,2,4.3c0.7,1.4,1.5,3.1,2.2,4.7c0.2,0.4,0.4,0.4,0.7,0.3c0.8-0.1,1.5-0.6,2.2-0.6
	s0.8-0.1,0.8-0.9L93.8,79.5z M85.7,94.9c0.1-0.5-0.1-1.1-0.4-1.4l-3.6-4c-2.1-2.3-4.2-4.7-6.3-7C75,82,74.6,82,74.3,82.6
	c-0.5,0.9-0.9,1.8-1.3,2.7c-0.4,1-0.7,2.1-1,3.1c-0.4,0.9-0.2,1.9,0.6,2.5c1.3,1,2.5,2.2,3.7,3.3c1.6,1.5,3.3,3.1,4.9,4.6
	c0.3,0.3,0.7,0.6,1.1,0.4c0.7-0.3,1.5-0.2,2.1-0.7c0.2-0.1,0.5-0.2,0.7-0.2c0.4,0,0.5-0.2,0.5-0.6C85.5,96.8,85.5,95.8,85.7,94.9
	L85.7,94.9z M94.8,79.5v7.6c0,0.3-0.1,0.7,0.4,0.7c0.9,0.1,1.8,0.4,2.6,0.8c0.3,0.1,0.5,0.1,0.6-0.2c0.3-0.7,0.7-1.4,1-2.1
	c0.6-1.5,1.3-2.9,2-4.4s1.1-2.7,1.8-4c0.6-1,1-2.1,1.5-3.2c0.3-0.7,0.2-1.1-0.6-1.3c-0.3,0-0.5-0.2-0.7-0.3
	c-0.2-0.2-0.4-0.3-0.7-0.3s-0.5-0.1-0.7-0.3c-0.2-0.2-0.4-0.2-0.6-0.2c-0.5,0-0.9-0.1-1.3-0.4c-0.2-0.1-0.3-0.2-0.5-0.2
	c-0.6,0-1.2-0.1-1.7-0.3c-0.8-0.2-1.6-0.3-2.4-0.3c-0.8,0-0.8,0-0.8,0.8C94.8,74.4,94.8,77,94.8,79.5L94.8,79.5z M86.2,92.5
	c0.2,0,0.4-0.2,0.5-0.4c0.5-1,1.3-1.9,2.2-2.6c0.3-0.3,0.3-0.5,0.2-0.8c-0.1-0.5-0.5-0.9-0.6-1.3c-0.4-1.1-1-2.1-1.4-3.2
	c-0.6-1.4-1.2-2.7-1.9-4c-0.6-1.3-1.2-2.8-1.8-4.2c-0.2-0.4-0.4-0.9-0.7-1.3c-0.2-0.4-0.7-0.6-1-0.2c-0.6,0.5-1.2,1-1.8,1.4
	c-1.4,1.1-2.7,2.4-3.8,3.8c-0.2,0.2-0.3,0.4-0.5,0.6c-0.2,0.4-0.2,0.6,0.1,0.9s0.7,0.9,1.1,1.3c1.1,1.2,2.2,2.4,3.4,3.7
	c0.9,1,1.8,2,2.7,3.1s1.8,1.9,2.7,2.9C85.7,92.4,85.9,92.6,86.2,92.5z M102.9,96.6v1c0,0.4,0.1,0.7,0.5,0.7c0.9,0.1,1.7,0.4,2.5,0.8
	c0.6,0.2,1.2,0,1.6-0.4c0.5-0.5,1.1-1,1.6-1.5c2.4-2.2,4.9-4.5,7.3-6.7c0.4-0.3,0.5-0.8,0.3-1.3c-0.3-1.1-0.6-2.2-1-3.2
	s-0.8-2-1.4-3c-0.7-1.2-0.7-1-1.5-0.1c-2.7,2.9-5.4,5.9-8,8.9c-0.6,0.7-1.2,1.4-1.9,2.1c-0.3,0.3-0.4,0.7-0.3,1.1
	C102.9,95.4,102.9,96,102.9,96.6L102.9,96.6z M113,80.9c-0.1-0.4-0.3-0.7-0.6-1c-0.7-0.9-1.5-1.8-2.3-2.6c-1-0.9-2-1.7-3.1-2.4
	c-0.8-0.5-1-0.4-1.3,0.4c-0.2,0.6-0.5,1.2-0.8,1.8c-0.5,1-1,2-1.4,2.9c-0.7,1.5-1.3,3-2,4.5c-0.6,1.3-1.2,2.6-1.8,3.8
	c-0.4,0.4-0.3,1.1,0.1,1.4c0,0,0.1,0,0.1,0.1c0.8,0.7,1.5,1.5,2,2.5c0.1,0.3,0.4,0.4,0.7,0.3c0.1,0,0.1-0.1,0.2-0.1
	c0.1-0.1,0.3-0.2,0.4-0.4c1.6-1.8,3.2-3.6,4.8-5.3s3.2-3.5,4.8-5.2C112.9,81.5,113,81.2,113,80.9L113,80.9z M93.8,114.8L93.8,114.8
	c0-0.4,0-0.9,0-1.3c0-0.8-0.2-1-0.9-1c-1.4-0.1-2.8-0.3-4.2-0.5c-0.4-0.1-0.9,0.1-1.2,0.4c-0.6,0.7-1.3,1.4-2,2.1
	c-0.5,0.4-0.3,0.9,0.2,1.1c1.1,0.3,2.3,0.6,3.4,1c0.6,0.2,1.2,0,1.8,0.2s1.3,0.3,2,0.3s0.9-0.1,0.9-0.8
	C93.8,115.8,93.8,115.3,93.8,114.8L93.8,114.8z M94.8,114.7c0,0.5,0,1,0,1.6c0,0.7,0.1,0.8,0.8,0.8c1.3-0.1,2.6-0.3,3.8-0.6
	c0.5-0.1,1-0.3,1.5-0.4s1.2-0.5,1.9-0.6c0.2-0.1,0.4-0.2,0.6-0.4c0.2-0.1,0.2-0.3,0.1-0.5l-0.1-0.1c-0.8-0.7-1.4-1.4-2.1-2.1
	c-0.3-0.4-0.9-0.6-1.3-0.4c-0.3,0.1-0.7,0.2-1,0.2c-1.2,0-2.3,0.3-3.4,0.3c-0.5,0-0.6,0.1-0.6,0.7S94.8,114.2,94.8,114.7L94.8,114.7
	z M80.7,109.4c-0.1,0-0.2,0-0.3,0c-0.7,0.3-1.3,0.8-1.8,1.3c-0.1,0.1-0.1,0.3,0,0.4c0.1,0.2,0.3,0.4,0.4,0.5c1.2,1,2.6,1.9,4,2.7
	c0.4,0.2,0.8,0.2,1.1-0.1c0.6-0.7,1.3-1.3,2-2c0.3-0.3,0.3-0.6-0.1-0.8c-0.2-0.1-0.5-0.2-0.7-0.3c-0.9-0.2-1.8-0.6-2.7-1
	c-0.4-0.2-0.9-0.1-1.2-0.5C81.3,109.4,81,109.3,80.7,109.4L80.7,109.4z M109.9,110.7c-0.1-0.1-0.1-0.2-0.1-0.2
	c-0.2-0.4-0.6-0.5-0.9-0.8c-0.9-0.7-1.3-0.6-2.2-0.1c-0.6,0.4-1.2,0.7-1.9,0.9c-0.6,0.3-1.3,0.5-2,0.7c-0.3,0-0.5,0.2-0.5,0.5
	c0,0.2,0.1,0.4,0.3,0.5c0.7,0.6,1.3,1.4,2.1,2c0.2,0.2,0.5,0.2,0.8,0.1l1.3-0.8c1.1-0.7,2.1-1.5,3-2.3
	C109.8,111.1,109.9,110.9,109.9,110.7L109.9,110.7z M114.4,104.4c-0.4,0.2-0.7,0.5-1.1,0.8c-1,1-2.2,1.8-3.4,2.6
	c-0.3,0.2-0.7,0.4-0.8,0.8c-0.1,0.4,0.5,0.4,0.6,0.6l0.1,0.1c0.8,0.6,1.1,0.6,1.7-0.1c0.8-1,1.6-2.1,2.3-3.2
	C114.3,105.5,114.5,105,114.4,104.4L114.4,104.4z M79.3,108.8c0-0.3-0.1-0.4-0.2-0.5c-0.4-0.2-0.8-0.5-1.2-0.7c-1-0.7-1.9-1.4-2.9-2
	c-0.3-0.2-0.5-0.7-0.8-0.5s0.2,0.5,0.3,0.8c0.6,1.2,1.3,2.2,2.2,3.1c0.9,1,1.2,1,2.2,0.1C79.1,109.1,79.3,108.9,79.3,108.8
	L79.3,108.8z"/>
<path class="st12" d="M94.6,111.5c-1.3,0-2.3-0.2-3.3-0.2c-1.4-0.1-2.8-0.3-4.1-0.7c-0.9-0.2-1.8-0.4-2.6-0.8
	c-0.7-0.3-1.4-0.6-2.1-0.8c-0.3-0.2-0.7-0.4-1-0.6c-0.9-0.4-1.7-0.8-2.5-1.4c-0.7-0.5-1.4-0.9-2.1-1.4c-0.9-0.7-1.8-1.5-2.7-2.3
	c-0.2-0.2-0.2-0.4,0.2-0.5c1.7-0.6,3.4-1,5.1-1.6c0.8-0.3,1.6-0.5,2.4-0.7c0.9-0.2,1.8-0.5,2.6-0.9c0.3-0.1,0.6-0.2,0.9-0.2
	c0.7,0,0.7,0,1,0.6c0.6,1.4,1.5,2.5,2.8,3.4c0.7,0.5,1.5,1,2.3,1.3c1.3,0.4,2.7,0.6,4,0.4c0.9-0.1,1.8-0.3,2.6-0.8
	c1.2-0.6,2.2-1.4,3-2.4c0.6-0.7,1-1.5,1.4-2.4c0-0.2,0.3-0.3,0.5-0.3l0,0c0.3,0,0.6,0.1,0.9,0.2c0.8,0.4,1.6,0.6,2.5,0.8
	c0.8,0.3,1.7,0.6,2.5,0.8c0.7,0.1,1.3,0.5,2,0.7c1,0.3,2,0.7,3,1c0.4,0.1,0.3,0.3,0.1,0.6c-0.5,0.6-1.1,1.2-1.7,1.6
	c-0.9,0.8-1.9,1.5-2.9,2.1c-0.8,0.5-1.6,0.9-2.4,1.4c-1.1,0.6-2.3,0.9-3.4,1.5c-0.7,0.3-1.5,0.5-2.2,0.6c-0.5,0.1-1,0.3-1.5,0.4
	C98,111.2,96.3,111.4,94.6,111.5z"/>
<path class="st11" d="M93.8,79.5V87c0,0.8,0,0.8-0.8,0.9s-1.5,0.5-2.2,0.6c-0.4,0.1-0.6,0-0.7-0.3c-0.7-1.6-1.4-3.1-2.2-4.7
	c-0.7-1.4-1.3-2.9-2-4.3c-0.5-1-0.9-2-1.3-3c-0.3-0.6-0.5-1.1-0.8-1.7c-0.2-0.6-0.2-0.8,0.5-1.1c0.5-0.2,0.8-0.5,1.3-0.7
	c0.9-0.4,1.8-0.4,2.6-0.9c0.1-0.1,0.3-0.1,0.4-0.1c1.1,0,2.1-0.4,3.1-0.5c0.6,0,1.1,0,1.7,0c0.4,0,0.5,0.2,0.5,0.5
	c0,0.2,0,0.3,0,0.5L93.8,79.5z"/>
<path class="st11" d="M85.7,94.8c-0.2,1-0.3,2-0.2,2.9c0,0.4-0.1,0.5-0.5,0.6c-0.3,0-0.5,0.1-0.7,0.2c-0.6,0.5-1.4,0.4-2.1,0.7
	c-0.4,0.2-0.8-0.2-1.1-0.4c-1.6-1.5-3.3-3.1-4.9-4.6c-1.2-1.1-2.4-2.3-3.7-3.3c-0.8-0.6-1-1.6-0.6-2.5c0.3-1.1,0.6-2.1,1-3.1
	c0.4-0.9,0.9-1.8,1.3-2.7c0.3-0.6,0.6-0.6,1.1-0.1c2.1,2.3,4.2,4.7,6.3,7l3.6,4C85.6,93.8,85.8,94.3,85.7,94.8z"/>
<path class="st12" d="M94.8,79.5c0-2.5,0-5,0-7.6c0-0.8,0-0.8,0.8-0.8s1.6,0.1,2.4,0.3c0.6,0.2,1.1,0.3,1.7,0.3
	c0.2,0,0.3,0.1,0.5,0.2c0.4,0.2,0.9,0.4,1.3,0.4c0.2,0,0.5,0.1,0.6,0.2c0.2,0.2,0.4,0.3,0.7,0.3s0.5,0.1,0.7,0.3
	c0.2,0.2,0.4,0.3,0.7,0.3c0.8,0.2,0.9,0.6,0.6,1.3c-0.5,1.1-0.9,2.2-1.5,3.2c-0.7,1.3-1.2,2.7-1.8,4s-1.4,2.9-2,4.4
	c-0.3,0.7-0.7,1.4-1,2.1c-0.1,0.3-0.3,0.3-0.6,0.2c-0.8-0.4-1.7-0.6-2.6-0.8c-0.5,0-0.4-0.4-0.4-0.7L94.8,79.5L94.8,79.5z"/>
<path class="st11" d="M86.2,92.5c-0.3,0-0.5-0.1-0.6-0.3c-0.9-1-1.8-1.9-2.7-2.9s-1.8-2.1-2.7-3.1c-1.1-1.2-2.2-2.5-3.4-3.7
	c-0.4-0.4-0.7-0.9-1.1-1.3s-0.3-0.6-0.1-0.9c0.1-0.2,0.3-0.4,0.5-0.6c1.1-1.4,2.4-2.7,3.8-3.8c0.6-0.4,1.3-0.9,1.8-1.4
	c0.3-0.3,0.7-0.2,1,0.2s0.4,0.9,0.7,1.3c0.6,1.4,1.2,2.8,1.8,4.2s1.3,2.6,1.9,4c0.4,1.1,1,2.1,1.4,3.2c0.2,0.5,0.6,0.8,0.6,1.3
	c0.1,0.4,0.1,0.6-0.2,0.8c-0.9,0.7-1.7,1.6-2.2,2.6C86.6,92.4,86.4,92.5,86.2,92.5z"/>
<path class="st11" d="M102.9,96.6c0.1-0.6,0-1.2-0.1-1.7c-0.1-0.4,0-0.8,0.3-1.1c0.6-0.7,1.2-1.4,1.9-2.1c2.7-3,5.3-6,8-8.9
	c0.8-0.9,0.8-1.1,1.5,0.1c0.6,1,1,2,1.4,3c0.4,1.1,0.7,2.1,1,3.2c0.2,0.4,0,1-0.3,1.3c-2.4,2.2-4.8,4.5-7.3,6.7
	c-0.6,0.5-1.1,1-1.6,1.5c-0.4,0.4-1,0.6-1.6,0.4c-0.8-0.3-1.7-0.6-2.5-0.8c-0.4,0-0.5-0.3-0.5-0.7L102.9,96.6z"/>
<path class="st11" d="M113,81c0,0.3-0.1,0.5-0.3,0.7c-1.6,1.7-3.2,3.4-4.8,5.2c-1.6,1.8-3.2,3.6-4.8,5.3c-0.1,0.1-0.2,0.3-0.4,0.4
	c-0.2,0.2-0.6,0.2-0.8,0c-0.1-0.1-0.1-0.1-0.1-0.2c-0.5-0.9-1.2-1.8-2-2.5c-0.5-0.3-0.6-0.9-0.3-1.4c0,0,0-0.1,0.1-0.1
	c0.7-1.2,1.2-2.6,1.8-3.8c0.7-1.5,1.3-3,2-4.5c0.5-1,1-2,1.4-2.9c0.3-0.6,0.5-1.2,0.8-1.8c0.3-0.8,0.6-0.9,1.3-0.4
	c1.1,0.7,2.1,1.5,3.1,2.4c0.8,0.8,1.6,1.7,2.3,2.6C112.7,80.2,112.9,80.6,113,81z"/>
<path class="st13" d="M93.8,114.8c0,0.5,0,0.9,0,1.4c0,0.7-0.2,0.9-0.9,0.8c-0.7,0-1.4-0.1-2-0.3s-1.2,0-1.8-0.2
	c-1.1-0.4-2.2-0.6-3.4-1c-0.6-0.2-0.7-0.7-0.2-1.1c0.7-0.6,1.4-1.3,2-2.1c0.3-0.4,0.7-0.5,1.2-0.4c1.4,0.2,2.8,0.4,4.2,0.5
	c0.8,0.1,0.9,0.2,0.9,1C93.8,113.9,93.8,114.3,93.8,114.8L93.8,114.8z"/>
<path class="st13" d="M94.8,114.7c0-0.5,0-1,0-1.5s0.1-0.7,0.6-0.7c1.2,0,2.3-0.4,3.4-0.3c0.3,0,0.7-0.1,1-0.2c0.5-0.2,1,0,1.3,0.4
	c0.7,0.7,1.4,1.5,2.1,2.1c0.2,0.1,0.2,0.3,0.1,0.5l-0.1,0.1c-0.1,0.2-0.3,0.3-0.5,0.4c-0.7,0.1-1.2,0.5-1.9,0.6
	c-0.6,0.1-1,0.3-1.5,0.4c-1.3,0.3-2.5,0.5-3.8,0.6c-0.7,0-0.8-0.1-0.8-0.8C94.8,115.8,94.8,115.2,94.8,114.7z"/>
<path class="st13" d="M80.7,109.4c0.3-0.1,0.6,0,0.9,0.3c0.3,0.4,0.8,0.4,1.2,0.5c0.8,0.4,1.7,0.8,2.7,1c0.3,0.1,0.5,0.2,0.7,0.3
	c0.4,0.2,0.4,0.5,0.1,0.8c-0.7,0.7-1.4,1.3-2,2c-0.3,0.3-0.7,0.4-1.1,0.1c-1.4-0.8-2.8-1.7-4-2.7c-0.2-0.2-0.3-0.3-0.4-0.5
	c-0.1-0.1-0.1-0.3,0-0.4c0.5-0.5,1.1-1,1.8-1.3C80.6,109.4,80.7,109.4,80.7,109.4z"/>
<path class="st13" d="M109.9,110.8c0,0.2-0.1,0.3-0.2,0.4c-0.9,0.8-1.9,1.6-3,2.3l-1.3,0.8c-0.2,0.2-0.6,0.1-0.8-0.1
	c-0.8-0.6-1.3-1.4-2.1-2c-0.3-0.1-0.4-0.5-0.2-0.7c0.1-0.2,0.3-0.3,0.5-0.3c0.7-0.2,1.4-0.4,2-0.7c0.7-0.2,1.3-0.5,1.9-0.9
	c1-0.6,1.3-0.6,2.2,0.1c0.3,0.2,0.7,0.3,0.9,0.8C109.8,110.6,109.9,110.7,109.9,110.8z"/>
<path class="st13" d="M114.5,104.4c0,0.6-0.1,1.1-0.5,1.5c-0.7,1.1-1.5,2.2-2.3,3.2c-0.7,0.7-1,0.8-1.7,0.1l-0.1-0.1
	c-0.2-0.3-0.7-0.2-0.6-0.6s0.4-0.6,0.8-0.8c1.2-0.7,2.3-1.6,3.4-2.6C113.7,104.9,114.1,104.7,114.5,104.4z"/>
<path class="st13" d="M79.3,108.8c0,0.1-0.3,0.2-0.4,0.4c-1,1-1.3,0.9-2.2-0.1c-0.9-0.9-1.6-2-2.2-3.2c-0.1-0.3-0.8-0.5-0.4-0.8
	s0.5,0.3,0.8,0.5c1,0.6,1.9,1.4,2.9,2c0.4,0.3,0.8,0.5,1.2,0.7C79.2,108.4,79.3,108.5,79.3,108.8z"/>
</svg>
