<?xml version="1.0" encoding="utf-8"?>
<!-- Generator: Adobe Illustrator 25.0.1, SVG Export Plug-In . SVG Version: 6.00 Build 0)  -->
<svg version="1.0" id="Layer_1" xmlns="http://www.w3.org/2000/svg" xmlns:xlink="http://www.w3.org/1999/xlink" x="0px" y="0px"
	 viewBox="0 0 350.4 240.3" style="enable-background:new 0 0 350.4 240.3;" xml:space="preserve">
<style type="text/css">
	.st0{fill:#263974;}
	.st1{fill:#FBFCFD;}
	.st2{fill:#253873;}
	.st3{fill:#253973;}
	.st4{fill:#FEFEFD;}
	.st5{fill:#F3F5F8;}
	.st6{fill:#EBEEF3;}
	.st7{fill:#EFD13D;}
	.st8{fill:#EFD13E;}
	.st9{fill:#F0D13F;}
	.st10{fill:#EFD142;}
	.st11{fill:#FEFEFA;}
	.st12{fill:#FFFEFB;}
	.st13{fill:#FEFDF6;}
</style>
<path class="st0" d="M269.4,120.2c-0.1,16.9-4.6,33.4-13.2,47.9c-8.6,14.6-20.9,26.5-35.8,34.6c-14.7,8.2-31.4,12.2-48.2,11.6
	c-24.4-1-45.7-9.9-63.1-27.2c-18.2-18-27.3-40.1-28.1-65.7c0.2-25.5,8.6-47.7,26.2-66.2s39.5-27.8,64.9-29.1
	c16.8-0.5,33.5,3.5,48.2,11.6c14.9,8.1,27.3,20,35.9,34.6C264.8,86.8,269.3,103.3,269.4,120.2z M83.6,129.1
	c2.2,24.1,13.3,46,33.8,62.6s44.2,23,70.3,19.5c23.3-3.1,42.7-13.9,57.8-31.9c16.8-20.1,23.6-43.4,21-69.4
	c-3.1-24.9-14.4-45.4-33.8-61.3c-21.2-16.6-45.2-23-71.8-19.1c-13.6,2-26.5,7.2-37.8,15.1c-13.3,9.1-24,21.5-30.9,36.1
	C85.2,95.2,82.4,110.7,83.6,129.1L83.6,129.1z"/>
<path class="st1" d="M83.6,129.1c-1.2-18.4,1.6-33.9,8.6-48.5c6.9-14.6,17.6-27,30.9-36.1c11.3-7.9,24.2-13.1,37.8-15.1
	c26.6-3.9,50.6,2.5,71.8,19.1c19.3,16,30.6,36.4,33.8,61.3c2.6,26-4.2,49.3-21,69.4c-15.1,18-34.5,28.8-57.8,31.9
	c-26.1,3.5-49.8-3-70.3-19.5S85.9,153.2,83.6,129.1z M249.3,120c-0.3-19.8-7.1-37.2-21.1-51.5s-31.3-21.6-51.3-22.4
	c-21.3-0.1-39.7,7.1-54.7,22.4c-14.4,14.8-21.2,32.7-21.1,53.3c0.8,20.1,8,37.4,22.5,51.5c15.1,14.6,33.4,21.6,54.4,20.9
	c18.9-0.4,36.8-8.3,49.9-21.9C242,157.9,249,140.4,249.3,120z M243.4,169.9l-0.1,0.2c-0.7,0-1.5,0-2.2-0.1c-1.2-0.3-2.4-0.2-3.5-0.4
	c-0.8-0.1-1.6-0.1-2.4-0.3c-0.6-0.2-1.3,0.1-1.6,0.7c-0.2,0.3-0.4,0.5-0.6,0.8c-0.5,0.6-0.4,0.6,0.2,1.1l3.8,2.9
	c1.6,1.2,3.2,2.4,4.7,3.7c0.3,0.2,0.5,0.3,0.8,0s0.7-0.8,1-1.2c0.1-0.1,0.1-0.3,0-0.4c0,0,0,0,0,0c-0.1-0.1-0.2-0.2-0.4-0.4
	c-1-0.8-2-1.5-3-2.3c-0.7-0.5-1.4-1.1-2.1-1.7c-0.1-0.1-0.3-0.2-0.3-0.4c0.1-0.2,0.3-0.1,0.5-0.1l0.4,0.1c1.1,0.2,2.2,0.3,3.4,0.4
	c1.4,0.1,2.9,0.4,4.3,0.5c0.3,0.1,0.6,0,0.8-0.3c0.4-0.5,0.8-1,1.1-1.4c0.1-0.1,0.2-0.3,0.1-0.4c0,0,0-0.1-0.1-0.1
	c-0.2-0.1-0.3-0.3-0.5-0.4c-2.6-2-5.2-4-7.7-6c-0.2-0.2-0.5-0.4-0.8-0.6c-0.3-0.2-0.4-0.2-0.5,0c-0.4,0.6-1,1-1.2,1.7l3,2.4
	L243.4,169.9z M240.1,66.2c0,0.3,0,0.7-0.1,1c-0.8,2-1.6,4.1-2.3,6.2c-0.7,1.9-0.8,1.4,0.4,2.9c0.1,0.1,0.2,0.3,0.3,0.4
	c0.1,0.2,0.3,0.3,0.5,0.2c0,0,0.1,0,0.1-0.1l0.4-0.3l3.5-2.8c1.6-1.2,3.2-2.5,4.8-3.8c0.4-0.3,0.5-0.5,0.1-0.8s-0.5-0.6-0.8-1
	s-0.4-0.5-0.9-0.1c-1.1,0.9-2.2,1.7-3.4,2.6l-1.9,1.4c-0.1,0.1-0.3,0.1-0.4,0c-0.1-0.1-0.1-0.2-0.1-0.3c0-0.2,0.1-0.3,0.1-0.5
	c0.7-2,1.4-4,2.2-6c0.5-1.2,0.6-2.2-0.5-3.2c-0.6-0.5-0.6-0.6-1.2-0.2l-5,3.9l-3.4,2.7c-0.5,0.4-0.5,0.4-0.1,0.9l0.6,0.8
	c0.4,0.6,0.4,0.6,1,0.2l3.2-2.5C238.5,67.4,239.2,66.8,240.1,66.2z M140.8,46.8c-0.2,0.1-0.4-0.1-0.5-0.2c-2-1.2-3.9-2.4-5.9-3.5
	c-0.5-0.3-1-0.9-1.6-0.9c-0.6,0.2-1.2,0.4-1.7,0.8c-0.5,0.3-0.5,0.3-0.2,0.9l3.5,7l1.4,2.7c0.2,0.3,0.3,0.5,0.7,0.2
	c0.4-0.2,0.8-0.5,1.2-0.6c0.4-0.2,0.4-0.4,0.2-0.8c-0.4-0.7-0.8-1.4-1.1-2.1l-1.9-3.8c-0.1-0.1-0.2-0.3,0-0.5s0.3,0,0.5,0.1l0.1,0.1
	c1.9,1.1,3.8,2.2,5.6,3.4c1.7,1,1.7,1.1,3.4,0.1c0.6-0.3,0.6-0.3,0.3-0.9c-0.8-1.6-1.6-3.2-2.5-4.9s-1.6-3.1-2.4-4.7
	c-0.3-0.6-0.3-0.6-0.9-0.3l-0.9,0.4c-0.7,0.3-0.7,0.4-0.4,1c0.1,0.2,0.1,0.3,0.2,0.5c0.9,1.8,1.8,3.6,2.7,5.3
	C140.7,46.4,140.9,46.6,140.8,46.8L140.8,46.8z M213.3,53.4c0.2-1.1,0.6-2.1,1-3.1c0.3-0.8,0.3-1.6-0.1-2.3
	c-0.3-0.5-0.3-0.6,0.3-0.7c1.6-0.3,2.7-1.7,2.7-3.4c-0.1-1.4-0.9-2.6-2.2-3.1c-0.9-0.4-1.9-0.9-2.8-1.4l-2.9-1.4
	c-0.2,0.2-0.3,0.3-0.4,0.6l-3.3,6.9c-0.5,0.9-0.9,1.9-1.4,2.8c-0.3,0.6-0.2,0.6,0.3,0.9l1.1,0.5c0.6,0.3,0.7,0.3,1-0.4
	c0.5-1,0.9-2,1.4-3c0.3-0.5,0.4-0.6,1-0.4s1.2,0.6,1.9,0.9c1,0.5,1.4,1,1,2.6c-0.2,0.7-0.5,1.4-0.7,2.1c-0.1,0.4,0,0.7,0.4,0.9
	c0,0,0,0,0,0C212.1,52.9,212.7,53.1,213.3,53.4L213.3,53.4z M254.9,141c0.4,0.6,0.5,1.1,1,1.5c1.4,1.3,3.5,1.2,4.8-0.2
	c0.4-0.4,0.7-0.9,0.8-1.5c0.5-2,0.9-3.9,1.3-5.9c0.1-0.6,0.1-0.6-0.5-0.9c-0.2-0.1-0.4-0.1-0.6-0.1l-3.3-0.7l-3.2-0.7
	c-1.1-0.2-2.2-0.5-3.4-0.8c-0.5-0.1-0.7-0.1-0.8,0.4s-0.2,0.9-0.3,1.3c-0.1,0.4,0,0.8,0.6,0.9c1.1,0.1,2.1,0.5,3.1,0.6
	c0.7,0.1,0.8,0.3,0.7,0.9c-0.1,0.8-0.3,1.6-0.6,2.4c-0.2,0.6-0.8,1.1-1.4,1.1c-0.7,0-1.3,0-2-0.1c-0.3-0.1-0.6-0.1-0.9-0.1
	c-0.3-0.1-0.6,0.1-0.7,0.4c0,0,0,0,0,0.1c-0.1,0.5-0.2,1.1-0.4,1.6c-0.1,0.3,0.1,0.5,0.4,0.4c0.6,0,1.3,0,1.9,0.2
	C252.6,142,253.9,142.3,254.9,141L254.9,141z M95.5,137.3c-0.4,0-0.5-0.1-0.6-0.5c-0.2-1.2-0.4-2.5-0.6-3.8c-0.1-0.5,0-0.7,0.5-0.8
	s1.3-0.3,2-0.3c0.7-0.1,1.3-0.2,2-0.3c0.3,0,0.6-0.1,0.5-0.5c-0.1-0.5-0.2-1-0.3-1.5c-0.2-0.7-0.2-0.7-0.9-0.5s-1.4,0.3-2,0.4
	c-2.3,0.3-4.6,0.9-7,1.2c-0.5,0.1-1,0.2-1.5,0.3c-0.2,0-0.6,0.1-0.5,0.5c0.1,0.5,0.2,1.1,0.3,1.6c0.1,0.4,0.3,0.6,0.7,0.5l3.4-0.7
	c0.5-0.1,0.6,0,0.8,0.5s0.1,1,0.3,1.5c0.2,0.8,0.3,1.5,0.4,2.3c0.1,0.2-0.1,0.5-0.3,0.6c-0.1,0-0.1,0-0.2,0
	c-1.2,0.1-2.4,0.6-3.6,0.6c-0.2,0-0.4,0.1-0.4,0.4c0,0.1,0,0.1,0,0.2c0.2,0.6,0.2,1.2,0.4,1.8c0,0.2,0.2,0.4,0.4,0.4
	c0.1,0,0.1,0,0.2-0.1c0.7-0.2,1.3-0.3,2-0.4c2.3-0.4,4.6-0.8,6.8-1.2c0.7-0.1,1.4-0.3,2-0.4c0.2-0.1,0.5-0.1,0.4-0.5s-0.1-1-0.2-1.4
	s-0.3-0.7-0.9-0.5c-0.8,0.2-1.6,0.2-2.4,0.4C96.5,137.1,96,137.2,95.5,137.3L95.5,137.3z M152.5,36.7c0.4-0.2,0.8-0.4,1.2-0.4
	c1.5-0.4,3-0.8,4.5-1.1c0.2,0,0.4-0.2,0.4-0.4c0,0,0,0,0-0.1c0-0.4-0.2-0.8-0.3-1.2S158,33,157.6,33c-1.2,0.3-2.5,0.6-3.7,0.9
	s-2.7,0.7-4,1c-0.4,0.1-0.5,0.3-0.4,0.6c0.4,1.5,0.8,3,1.1,4.5c0.5,2.1,1.1,4.1,1.6,6.2c0.1,0.4,0.2,0.5,0.6,0.4
	c1.4-0.4,2.9-0.7,4.3-1c1-0.2,2.1-0.6,3.1-0.8s1-0.3,0.8-1.2c-0.1-0.4-0.2-0.8-0.4-1.3c-0.5,0.3-1.1,0.5-1.7,0.5
	c-1.3,0.4-2.7,0.6-4,1c-0.4,0.1-0.6,0-0.7-0.4c-0.2-0.7-0.3-1.4-0.5-2.1c-0.1-0.3,0.1-0.4,0.4-0.4c1.5-0.4,3-0.8,4.5-1.1
	c0.6-0.1,0.7-0.2,0.5-0.8c0-0.3-0.1-0.6-0.2-0.8c-0.1-0.4-0.2-0.5-0.7-0.4c-1.5,0.4-3.1,0.8-4.6,1.2c-0.4,0.1-0.6-0.1-0.7-0.5
	C152.9,37.9,152.7,37.4,152.5,36.7L152.5,36.7z M151.5,195.6c1.9,0.6,3.8,1,5.6,1.5c0.6,0.1,0.7,0.2,0.5,0.8
	c-0.1,0.6-0.3,1.2-0.4,1.8c-0.1,0.4-0.3,0.5-0.7,0.4c-1.4-0.4-2.9-0.7-4.3-1c-0.9-0.2-1-0.2-1.2,0.7c0,0.1,0,0.3,0,0.4
	c-0.2,0.4,0,0.6,0.4,0.7l1.6,0.4c1,0.3,2.1,0.5,3.1,0.8c0.4,0.1,0.5,0.2,0.4,0.6s-0.2,1-0.4,1.4c-0.1,0.4-0.3,0.7-0.8,0.5
	c-0.9-0.3-1.9-0.4-2.8-0.7c-0.7-0.2-1.5-0.4-2.3-0.6c-0.4-0.1-0.6,0-0.7,0.4s-0.1,0.8-0.3,1.2c-0.1,0.2,0,0.3,0.1,0.4
	c0,0,0.1,0,0.1,0c1.1,0.3,2.2,0.6,3.3,0.9c1.4,0.3,2.8,0.6,4.2,1c0.8,0.2,0.9,0.1,1.1-0.7c0.2-1,0.4-1.9,0.7-2.9
	c0.6-2.4,1.2-4.9,1.8-7.3c0.2-0.6,0.1-0.7-0.5-0.9c-1.2-0.3-2.4-0.6-3.6-0.9c-1.4-0.3-2.8-0.6-4.1-1c-0.4-0.1-0.5,0-0.6,0.4
	S151.7,194.9,151.5,195.6L151.5,195.6z M253.5,162c0.1-0.1,0.2-0.2,0.2-0.3c1.1-2.4,2.3-4.8,3.4-7.2c0.2-0.5,0.2-0.6-0.4-0.9
	l-9.6-4.6c-0.6-0.3-0.6-0.2-0.9,0.3c-1,2.1-1.9,4.1-2.9,6.2c-0.8,1.6-0.8,1.6,0.8,2.2h0.1c0.3,0.1,0.5,0.1,0.6-0.3
	c0.3-0.6,0.6-1.3,0.9-1.9c0.5-1,1-2.1,1.5-3.1c0.2-0.4,0.3-0.5,0.7-0.3s0.9,0.4,1.4,0.7c0.9,0.4,0.9,0.4,0.4,1.3c0,0,0,0.1,0,0.1
	c-0.7,1.4-1.3,2.9-2,4.3c0.1,0.1,0.1,0.1,0.2,0.2c0.3,0.1,0.6,0.3,0.8,0.4c0.7,0.3,0.7,0.3,1-0.3c0.6-1.4,1.3-2.8,1.9-4.1
	c0.2-0.4,0.3-0.5,0.7-0.3c0.5,0.2,0.9,0.5,1.4,0.7c0.5,0.2,0.4,0.4,0.3,0.8c-0.7,1.6-1.4,3.1-2.2,4.7c-0.2,0.4-0.1,0.6,0.3,0.8
	L253.5,162z M176.7,201L176.7,201c0.3,0,0.5,0,0.8,0c0.3,0,0.5-0.1,0.5-0.5c0-0.8-0.3-1.5-0.8-2.1c-0.8-0.9-1.8-1.4-3-1.6
	c-1.6-0.4-3.3-0.1-4.7,0.7c-1.8,1-2.6,4.4,0,5.8c1,0.5,2,0.8,3.1,1.1c0.6,0.1,1.2,0.4,1.7,0.6c0.8,0.5,0.8,1,0.3,1.8
	c-0.2,0.3-0.5,0.5-0.9,0.5c-1.2,0.4-2.5-0.2-3-1.4c0,0,0,0,0,0c-0.1-0.2-0.2-0.3-0.4-0.4c-0.5,0-0.9-0.1-1.4-0.1
	c-0.7,0-0.8,0.2-0.7,0.8c0.2,1.2,1,2.2,2.1,2.6c1.4,0.6,2.9,0.7,4.4,0.3c1.4-0.3,2.4-1.4,2.8-2.8c0.3-1.5-0.5-3-1.9-3.5
	c-0.9-0.4-1.8-0.7-2.8-0.9c-0.6-0.1-1.1-0.3-1.6-0.6c-0.6-0.3-0.9-1.1-0.5-1.7c0.1-0.3,0.4-0.5,0.6-0.6c0.8-0.3,1.6-0.4,2.5-0.2
	c0.9,0.1,1.6,0.7,1.8,1.6c0.2,0.7,0.2,0.7,0.9,0.7L176.7,201z M246,81.5c-1.6,0.8-2.5,2.4-2.3,4.1c0.1,0.5,0.2,0.9,0.3,1.4
	c0.4,1.3,1.1,2.4,2.2,3.3c0.9,0.8,2.1,1.1,3.2,0.7c1.9-0.6,2.6-1.8,2.4-4c0-0.6-0.2-1.2-0.3-1.9s-0.2-1.3-0.3-2
	c-0.1-0.5,0.2-1,0.7-1.2c0.5-0.2,1-0.2,1.4,0.2c1.1,0.8,1.3,2.3,0.5,3.4c0,0.1-0.1,0.1-0.1,0.2c-0.2,0.2-0.3,0.5-0.1,0.7
	c0.3,0.7,0.6,1.3,1,1.9c1.3-0.7,2.1-2,2-3.5c-0.1-1.2-0.6-2.4-1.3-3.4c-0.8-1.3-2.2-2-3.6-1.9c-1.2,0.1-2.2,0.9-2.6,2
	c-0.2,0.7-0.3,1.4-0.1,2.1c0.2,0.7,0.2,1.4,0.4,2.1c0.1,0.6,0.2,1.1,0.2,1.7c0,0.5-0.2,1-0.7,1.2c-0.5,0.2-1.1,0.1-1.6-0.2
	c-0.3-0.3-0.6-0.7-0.8-1.1c-0.8-1.1-0.5-2.5,0.5-3.3c0.2-0.1,0.3-0.4,0.1-0.6C246.7,82.6,246.4,82,246,81.5L246,81.5z M232.8,185.5
	c0-0.5,0-1-0.1-1.5c-0.4-1.2-1-2.4-1.9-3.3c-1.8-2.1-4.8-2.7-7.2-1.4c-2.7,1.5-3.9,4.2-2.5,7.1c0.3,0.6,0.4,0.7,1,0.2l0.7-0.5
	c0.7-0.5,0.7-0.5,0.4-1.3c-0.3-0.6-0.3-1.2-0.1-1.9c0.6-1.5,2.1-2.3,3.7-1.9c1.5,0.6,2.7,1.7,3.3,3.2c0.6,1,0.5,2.3-0.3,3.3
	c-0.8,1-2.2,1.6-3.2,1.1c-0.5-0.4-1.2-0.3-1.6,0.2c0,0,0,0,0,0c-0.2,0.2-0.5,0.3-0.7,0.5c-0.5,0.4-0.5,0.5,0,0.8
	c1.3,1,2.9,1.2,4.4,0.7C230.8,190.2,233,188,232.8,185.5L232.8,185.5z M146,191.5l-1.9-1c-0.3-0.2-0.7-0.1-0.9,0.2
	c-0.4,0.4-0.7,0.7-1.1,1.1c-0.2,0.3-0.7,0.4-1.1,0.2c0,0,0,0,0,0c-0.8-0.4-1.6-0.8-2.4-1.2c-1.1-0.5-1-0.5-1-1.6
	c0-0.6,0.5-1.3,0.1-1.8c-0.5-0.4-1.1-0.7-1.6-0.9c-0.4-0.2-0.6-0.2-0.6,0.3c-0.2,1.4-0.3,2.9-0.5,4.3s-0.3,2.8-0.5,4.1
	c-0.1,1.1-0.2,2.2-0.4,3.3c-0.1,0.4,0.1,0.7,0.5,0.8c0.4,0.2,0.7,0.4,1.1,0.5c0.8,0.4,0.8,0.4,1.6-0.2c0.1-0.1,0.1-0.2,0.2-0.2
	l4.9-4.5L146,191.5z M218.8,56.8c0.5,0.5,1,0.9,1.5,1.3c0.2,0.3,0.7,0.3,1,0.1c0,0,0,0,0,0c0.5-0.3,1-0.6,1.5-0.9
	c0.3-0.2,0.7-0.2,0.9,0.1c0.9,0.7,1.7,1.4,2.6,2.1c0.3,0.2,0.5,0.5,0.3,0.9c-0.2,0.4-0.4,1-0.6,1.5c-0.2,0.4-0.1,0.8,0.3,1.1
	c0.4,0.3,0.8,0.6,1.2,1c0.4,0.4,0.4,0.1,0.5-0.2c0.2-0.8,0.6-1.6,0.8-2.4c1-3,2-6,3-8.9c0.1-0.3,0.1-0.5-0.1-0.7
	c-0.5-0.4-1.1-0.8-1.6-1.3c-0.2-0.2-0.4-0.1-0.6,0s-0.4,0.2-0.6,0.3L218.8,56.8z M96.1,79.5c0.3,0.2,0.6,0.4,0.9,0.6
	c3,1.7,6,3.5,9,5.2c0.4,0.3,0.6,0.2,0.8-0.2s0.5-0.8,0.7-1.2c0.3-0.6,0.3-0.6-0.2-0.9c-0.9-0.5-1.8-1-2.6-1.5
	c-0.5-0.3-0.6-0.5-0.3-1s0.7-1.2,1.1-1.8c0.5-0.8,0.8-1.7,0.8-2.6c-0.2-1.7-1.4-3-3-3.4c-1.7-0.5-3.5,0.3-4.3,1.8
	c-0.5,0.8-0.9,1.6-1.4,2.4S96.6,78.7,96.1,79.5z M264,119.2v-0.6c0-0.8,0-0.8-0.7-1.1s-1.7-0.6-2.5-0.9l-8.5-3.1
	c-0.3-0.1-0.5-0.1-0.5,0.3c0,0.6,0,1.3,0,1.9c0,0.3,0.1,0.4,0.4,0.5c0.6,0.2,1.1,0.4,1.7,0.6c0.4,0.1,0.7,0.4,0.6,0.8c0,0,0,0,0,0.1
	c0,0.8,0,1.6,0,2.4c0,1.5,0,1.5-1.3,2c-1.5,0.6-1.5,0.6-1.4,2.2c0.1,0.8,0.2,0.9,1,0.6l0.2-0.1l9.7-3.8
	C264,120.4,264,120.4,264,119.2z M117.2,62c0-1.3-0.7-2.6-1.8-3.2c-0.7-0.6-1.6-0.8-2.4-0.7c-0.9,0.1-1.8,0.6-2.4,1.3
	c-1.2,1.3-2.4,2.5-3.6,3.8c-0.5,0.5-0.4,0.5,0.1,1l5.5,5l2.5,2.3c0.3,0.2,0.5,0.3,0.7,0s0.7-0.7,1-1.1s0.4-0.5,0-0.9
	c-0.7-0.6-1.4-1.2-2.1-1.9s-0.7-0.6-0.1-1.3s1-1.1,1.5-1.7C116.8,63.9,117.2,63,117.2,62z M249.7,101.6c0.6-0.2,1.2-0.4,1.8-0.5
	c0.6-0.2,1.2-0.3,1.9-0.4c0.4-0.1,0.6,0.1,0.6,0.5c0.1,0.9,0.4,1.7,0.6,2.5c0.2,1,0.8,1.8,1.6,2.4c0.9,0.6,2.1,0.7,3.1,0.4
	c1.2-0.2,2.3-1.1,2.6-2.3c0.2-0.6,0.3-1.3,0.2-2c-0.2-0.7-0.3-1.4-0.4-2c-0.3-1.2-0.5-2.3-0.8-3.5c-0.1-0.3-0.1-0.4-0.5-0.3
	c-1.4,0.4-2.9,0.7-4.4,1c-2.2,0.5-4.4,1-6.7,1.4c-0.3,0.1-0.4,0.2-0.3,0.5C249.4,100.2,249.4,100.9,249.7,101.6L249.7,101.6z
	 M96.6,148.4c-2.1-0.1-3.9,1.5-4,3.5c0,0.6,0.1,1.2,0.3,1.8c0.6,1.5,1.3,3,1.9,4.5c0.3,0.8,0.4,0.8,1.2,0.5l4.9-2l4.8-2.1
	c0.6-0.3,0.6-0.3,0.4-1c-0.2-0.4-0.4-0.8-0.5-1.2c-0.1-0.4-0.3-0.4-0.7-0.3c-0.9,0.4-1.8,0.8-2.7,1.2s-0.8,0.3-1.1-0.4
	s-0.6-1.4-0.9-2.1C99.4,149.4,98.4,148.4,96.6,148.4L96.6,148.4z M207.9,189.6c0.6,1.3,1.2,2.5,1.8,3.6c0.1,0.3,0.2,0.5,0.2,0.8
	c-0.1,2.1-0.3,4.1-0.5,6.2c-0.1,0.7-0.1,1.3,0,2c0.6-0.3,1-0.5,1.6-0.7c0.6-0.1,1.1-0.7,1-1.4c0-0.6,0.1-1.1,0.1-1.7
	c0-0.8,0.1-1.6,0.2-2.3c0.1-0.5,0.1-0.6,0.6-0.3l2.5,1.7c0.5,0.4,1,0.7,1.5,0.9c0.6,0.1,1.1-0.5,1.7-0.7c0.3-0.1,0.7-0.2,0.8-0.5
	c-0.1-0.1-0.1-0.1-0.1-0.1c-2-1.3-4-2.6-6.1-3.9c-0.6-0.4-1.1-1-1.4-1.7c-0.4-0.9-0.9-1.8-1.3-2.7c-0.1-0.3-0.2-0.4-0.6-0.2
	C209.2,188.9,208.5,189.2,207.9,189.6L207.9,189.6z M191.7,44.9c0,0.2,0.1,0.4,0.4,0.5c0.5,0.1,1,0.2,1.5,0.3c0.2,0.1,0.5,0,0.6-0.2
	c0,0,0-0.1,0-0.1c0.1-0.4,0.2-0.9,0.3-1.4c0.3-1.4,0.7-2.9,1-4.4c0.2-1,0.5-2,0.7-2.9c0.1-0.4,0.3-0.5,0.7-0.4l1.8,0.4
	c1.3,0.3,1.3,0.3,1.5-1v-0.1c0.1-0.8,0.1-0.9-0.7-1s-1.3-0.3-1.9-0.4c-2-0.5-4.1-0.9-6.1-1.5c-0.3-0.1-0.7-0.1-0.8,0.3
	s-0.2,0.9-0.3,1.4c-0.1,0.2,0,0.3,0.2,0.4c0,0,0.1,0,0.1,0c0.8,0.1,1.6,0.3,2.4,0.6c0.7,0.1,0.8,0.1,0.6,0.9
	c-0.4,1.8-0.9,3.6-1.3,5.5C192.2,42.8,192,43.8,191.7,44.9L191.7,44.9z M129.9,182.4c0-0.3-0.2-0.5-0.4-0.6c-1.6-1.3-3.3-2.7-5-4
	c-0.4-0.3-0.6-0.9-1.1-0.8s-0.7,0.7-1,1.1c-0.4,0.5-0.4,0.5,0.1,1l3.6,2.9c0.3,0.2,0.4,0.5,0.1,0.8c-1.2,1.4-2.3,2.9-3.5,4.3
	c-0.7,0.9-1.4,1.7-2.1,2.6c-0.2,0.3-0.3,0.5,0.1,0.7c0.5,0.3,0.9,0.7,1.3,1.1c0.1,0.2,0.3,0.2,0.5,0.1c0,0,0.1-0.1,0.1-0.1
	c0.4-0.5,0.8-1,1.2-1.5c1.9-2.3,3.8-4.7,5.7-7C129.8,182.9,129.9,182.7,129.9,182.4L129.9,182.4z M98.9,110.4
	c0.3-1.1,0.4-2.2,0.6-3.3c0.2-1.3,0.4-2.6,0.7-3.8c0.2-1.1,0.3-1.1-0.8-1.4l-0.2-0.1c-0.8-0.2-0.9-0.1-1,0.7c-0.1,0.3-0.1,0.7-0.2,1
	c-0.2,1.2-0.4,2.3-0.6,3.5c-0.1,0.4-0.2,0.6-0.7,0.4c-1.1-0.3-2.3-0.4-3.5-0.6c-1.5-0.3-3.1-0.5-4.6-0.8c-0.3,0-0.6-0.1-0.9-0.1
	c-0.2,0-0.4,0.1-0.4,0.3c-0.1,0.6-0.2,1.1-0.3,1.7c-0.1,0.3,0.1,0.5,0.4,0.6c1.4,0.2,2.8,0.5,4.2,0.8c0.7,0.1,1.5,0.2,2.2,0.4
	C95.6,109.8,97.3,110.1,98.9,110.4L98.9,110.4z M98.5,119.7c0-0.2,0-0.4,0-0.5c0-0.8,0-0.8-0.8-0.8l-6.4-0.1c-0.6,0-1.1,0-1.6-0.1
	c-0.9,0-1.8,0-2.7,0c-0.3,0-0.5,0.1-0.5,0.4s-0.1,1-0.1,1.5c0,0.7,0,0.7,0.6,0.7c3.4,0,6.8,0,10.2,0.2
	C98.7,121.1,98.5,121.2,98.5,119.7L98.5,119.7z M119.9,50.7l0.2,0.3c1.3,1.7,2.6,3.4,3.9,5.1c0.9,1.2,1.9,2.5,2.9,3.7
	c0.3,0.4,0.4,0.4,0.8,0.1s0.8-0.6,1.2-0.9s0.3-0.4,0.1-0.7c-1.9-2.4-3.7-4.8-5.6-7.2c-0.4-0.6-0.9-1.1-1.3-1.6
	c-0.2-0.2-0.4-0.4-0.6-0.1L119.9,50.7z M103.3,93.3c0-0.3-0.1-0.4-0.3-0.5c-0.4-0.1-0.8-0.3-1.2-0.4c-3.1-1.1-6.2-2.2-9.2-3.3
	c-0.4-0.1-0.6-0.1-0.7,0.3s-0.3,0.9-0.5,1.3c-0.2,0.6-0.1,0.7,0.5,0.9l9,3.2l1.3,0.4c0.2,0.1,0.4,0.1,0.4-0.1
	C102.9,94.5,103.2,93.8,103.3,93.3L103.3,93.3z M109.5,172.2c0.1-0.5,0.1-1,0.1-1.5c0-0.4,0.2-0.8,0.6-1c0.5-0.2,0.9-0.5,1.2-0.9
	c-0.4-0.2-0.9-0.4-1.3-0.5c-0.6-0.1-0.8-0.5-0.8-1.1c0-0.4-0.2-0.8-0.4-1.2c-0.2,0.2-0.5,0.5-0.7,0.8c-0.3,0.6-1,0.9-1.7,0.7
	l-0.6-0.1c-0.2,0-0.4-0.1-0.4,0.2l0.8,1.2c0.2,0.3,0.2,0.6,0.1,0.9c-0.3,0.4-0.4,0.9-0.5,1.4c0.4,0,0.8,0,1.2-0.2
	c0.4-0.2,1-0.1,1.3,0.2C108.8,171.5,109.1,171.8,109.5,172.2L109.5,172.2z M174,39.9c0.5-0.1,0.9-0.2,1.2-0.5c0.4-0.3,0.9-0.3,1.3,0
	c0.3,0.2,0.5,0.3,0.8,0.5c0.3,0.1,0.4,0.1,0.4-0.3c0-0.3,0-0.6-0.1-0.9c-0.2-0.4,0-0.9,0.3-1.1c0.4-0.3,0.7-0.7,1-1.1
	c-0.5-0.1-1-0.2-1.6-0.3c-0.3,0-0.6-0.2-0.7-0.5c-0.2-0.5-0.5-1-0.8-1.4c-0.3,0.5-0.6,1-0.8,1.5c-0.1,0.3-0.4,0.4-0.7,0.4
	c-0.5,0-1.1,0.1-1.6,0.3c0.2,0.3,0.5,0.6,0.8,0.9c0.5,0.3,0.7,0.8,0.5,1.3C174.1,39.1,174.1,39.5,174,39.9L174,39.9z M189.3,199
	c-0.1,0.5,0.1,1,0.3,1.5c0.2,0.4,0.1,0.9-0.2,1.2c-0.3,0.4-0.6,0.8-0.8,1.2c0.4,0,0.9,0,1.3,0c0.5-0.1,1.1,0.2,1.3,0.6
	c0.2,0.4,0.5,0.8,0.8,1c0.1-0.3,0.2-0.5,0.2-0.7s0.1-0.4,0.2-0.7c0.1-0.4,0.4-0.8,0.8-0.9c0.3-0.1,0.7-0.2,1-0.3
	c0.2-0.1,0.3-0.3,0.1-0.5s-0.6-0.4-0.9-0.6c-0.3-0.2-0.5-0.5-0.4-0.9c0-0.4,0-0.7,0-1.1c0-0.4-0.2-0.5-0.5-0.2s-0.6,0.4-0.9,0.7
	c-0.3,0.3-0.7,0.3-1.1,0.1C190.1,199.4,189.7,199.2,189.3,199z"/>
<path class="st2" d="M249.3,120c-0.3,20.4-7.3,37.9-21.5,52.3c-13.1,13.6-31,21.5-49.9,21.9c-21,0.7-39.3-6.3-54.4-20.9
	c-14.5-14-21.7-31.4-22.5-51.5c-0.1-20.6,6.7-38.5,21.1-53.3c15-15.3,33.4-22.5,54.7-22.4c20,0.8,37.2,8,51.3,22.4
	C242.2,82.8,249,100.2,249.3,120z M103.1,120.8c1.5,18.5,6.5,35.3,20.6,49.5c16,16.2,35.6,23.4,58.3,21.4
	c16.5-1.3,32.1-8.5,43.7-20.4c15.9-15.9,23-35.3,21.1-57.7c-1.2-16.5-8.4-31.9-20.1-43.6c-15.8-16-35.2-23.1-57.6-21.5
	c-10.2,0.8-20.1,3.8-29,8.9c-11.2,6.2-20.6,15.4-27,26.5C105.5,97,102.4,111.1,103.1,120.8z"/>
<path class="st3" d="M243.4,169.9l-3-2.3l-3-2.4c0.2-0.7,0.8-1.1,1.2-1.7c0.1-0.2,0.4-0.2,0.5,0s0.5,0.4,0.8,0.6c2.6,2,5.1,4,7.7,6
	c0.2,0.1,0.3,0.3,0.5,0.4c0.1,0.1,0.2,0.3,0.1,0.4c0,0,0,0.1-0.1,0.1c-0.4,0.5-0.8,1-1.1,1.4c-0.2,0.2-0.5,0.3-0.8,0.3
	c-1.4-0.1-2.9-0.3-4.3-0.5c-1.1-0.1-2.2-0.2-3.4-0.4l-0.4-0.1c-0.2,0-0.4-0.1-0.5,0.1s0.1,0.3,0.3,0.4c0.7,0.6,1.4,1.1,2.1,1.7
	c1,0.8,2,1.5,3,2.3c0.1,0.1,0.3,0.2,0.4,0.4c0.1,0.1,0.1,0.3,0,0.4c0,0,0,0,0,0c-0.3,0.4-0.7,0.8-1,1.2c-0.3,0.4-0.4,0.3-0.8,0
	c-1.6-1.2-3.2-2.5-4.7-3.7l-3.7-2.9c-0.6-0.5-0.6-0.5-0.2-1.1c0.2-0.2,0.4-0.5,0.6-0.8c0.3-0.6,1-0.9,1.6-0.7
	c0.8,0.1,1.6,0.1,2.4,0.3c1.2,0.2,2.4,0.2,3.5,0.4c0.7,0.1,1.5,0.2,2.2,0.1L243.4,169.9z"/>
<path class="st2" d="M240.1,66.2c-0.9,0.7-1.6,1.2-2.4,1.8l-3.2,2.5c-0.6,0.4-0.6,0.4-1-0.2l-0.6-0.8c-0.4-0.5-0.4-0.5,0.1-0.9
	l3.4-2.7l5-3.9c0.6-0.5,0.6-0.4,1.2,0.2c1,1,1,1.9,0.5,3.2c-0.8,2-1.5,4-2.2,6c-0.1,0.2-0.1,0.3-0.1,0.5c0,0.1,0,0.2,0.1,0.3
	c0.1,0.1,0.3,0,0.4,0l1.8-1.4c1.1-0.9,2.2-1.8,3.4-2.6c0.5-0.4,0.5-0.4,0.9,0.1c0.4,0.5,0.5,0.7,0.8,1c0.3,0.3,0.2,0.6-0.1,0.8
	c-1.6,1.2-3.2,2.5-4.8,3.8l-3.6,2.8l-0.4,0.3c-0.1,0.1-0.4,0.1-0.5,0c0,0-0.1-0.1-0.1-0.1c-0.1-0.1-0.2-0.3-0.3-0.4
	c-1.2-1.5-1.1-1-0.4-2.9c0.7-2.1,1.5-4.1,2.3-6.2C240.2,66.9,240.2,66.5,240.1,66.2z"/>
<path class="st2" d="M140.8,46.8c0.2-0.2,0-0.4-0.1-0.5c-0.9-1.8-1.8-3.6-2.7-5.3c-0.1-0.2-0.2-0.3-0.2-0.5c-0.3-0.7-0.3-0.7,0.4-1
	l0.9-0.4c0.6-0.3,0.6-0.3,0.9,0.3c0.8,1.6,1.6,3.1,2.4,4.7s1.6,3.2,2.5,4.9c0.3,0.6,0.3,0.6-0.3,0.9c-1.7,0.9-1.7,0.9-3.4-0.1
	c-1.9-1.1-3.8-2.3-5.6-3.4l-0.1-0.1c-0.1-0.1-0.3-0.2-0.5-0.1s0,0.3,0,0.5l1.9,3.8c0.4,0.7,0.7,1.4,1.1,2.1c0.2,0.4,0.1,0.6-0.2,0.8
	c-0.4,0.2-0.8,0.4-1.2,0.6c-0.4,0.3-0.6,0.1-0.7-0.2l-1.4-2.7l-3.5-7c-0.3-0.5-0.2-0.6,0.2-0.9c0.5-0.4,1.1-0.6,1.7-0.8
	c0.6-0.1,1.1,0.6,1.6,0.9c2,1.2,3.9,2.4,5.9,3.5C140.4,46.7,140.5,46.9,140.8,46.8z"/>
<path class="st3" d="M213.3,53.4c-0.6-0.3-1.2-0.5-1.7-0.8c-0.4-0.1-0.6-0.5-0.4-0.9c0,0,0,0,0,0c0.2-0.7,0.5-1.4,0.7-2.1
	c0.4-1.6,0.1-2.1-1-2.6c-0.6-0.3-1.2-0.6-1.9-0.9s-0.7-0.2-1,0.4c-0.5,1-1,2-1.4,3c-0.3,0.6-0.4,0.7-1,0.4l-1.1-0.5
	c-0.6-0.3-0.6-0.4-0.3-0.9c0.4-0.9,0.9-1.9,1.4-2.8l3.3-6.9c0.1-0.2,0.2-0.4,0.4-0.6l2.9,1.4c0.9,0.4,1.9,0.9,2.8,1.4
	c1.3,0.5,2.1,1.7,2.2,3.1c0,1.6-1.1,3-2.7,3.4c-0.6,0.1-0.6,0.1-0.3,0.7c0.4,0.7,0.4,1.6,0.1,2.3C213.8,51.3,213.5,52.3,213.3,53.4z
	 M214.5,43.8c0.1-0.5-0.2-1-0.7-1.2c-0.9-0.5-1.8-0.9-2.8-1.4c-0.2-0.1-0.4-0.1-0.5,0.1c-0.4,0.8-0.8,1.6-1.2,2.4
	c-0.1,0.2-0.1,0.5,0.2,0.6c0,0,0,0,0.1,0c0.9,0.4,1.7,0.9,2.6,1.2c0.8,0.4,1.8,0,2.2-0.9C214.5,44.4,214.6,44.1,214.5,43.8
	L214.5,43.8z"/>
<path class="st2" d="M254.9,141c-1,1.3-2.3,1-3.6,0.9c-0.6-0.1-1.3-0.2-1.9-0.2c-0.4,0.1-0.5-0.1-0.4-0.4c0.2-0.5,0.3-1.1,0.4-1.6
	c0.1-0.3,0.3-0.5,0.7-0.5c0,0,0,0,0.1,0c0.3,0,0.6,0.1,0.9,0.1c0.7,0.1,1.3,0.2,2,0.1c0.7,0,1.2-0.4,1.4-1.1
	c0.3-0.8,0.5-1.6,0.6-2.4c0.1-0.7,0-0.9-0.7-0.9c-1.1-0.1-2.1-0.5-3.1-0.6c-0.6-0.1-0.7-0.3-0.6-0.9c0.1-0.5,0.2-0.9,0.3-1.3
	c0.1-0.4,0.3-0.6,0.8-0.4c1.1,0.3,2.2,0.5,3.4,0.8l3.2,0.7l3.3,0.7c0.2,0,0.4,0.1,0.6,0.1c0.6,0.2,0.6,0.2,0.5,0.9
	c-0.4,2-0.9,3.9-1.3,5.9c-0.5,1.8-2.3,2.9-4.1,2.5c-0.6-0.1-1.1-0.4-1.5-0.8C255.4,142.2,255.3,141.6,254.9,141z M258.2,140.8
	c0.8-0.1,1.5-0.7,1.6-1.5c0.1-0.7,0.3-1.5,0.5-2.2s0.1-0.8-0.5-0.9s-1.5-0.3-2.3-0.5c-0.4-0.1-0.5,0.1-0.5,0.4
	c-0.2,0.9-0.4,1.7-0.6,2.6c-0.2,0.9,0.3,1.8,1.2,2.1C257.8,140.8,258,140.8,258.2,140.8z"/>
<path class="st2" d="M95.5,137.2c0.5-0.1,1-0.2,1.5-0.3c0.8-0.2,1.6-0.2,2.4-0.4c0.6-0.2,0.7-0.1,0.9,0.5s0.1,1,0.2,1.4
	s-0.1,0.5-0.4,0.5c-0.7,0.2-1.4,0.3-2,0.4c-2.3,0.4-4.6,0.8-6.8,1.2c-0.7,0.1-1.3,0.2-2,0.4c-0.2,0.1-0.4,0-0.5-0.1
	c0-0.1,0-0.1-0.1-0.2c-0.1-0.6-0.2-1.2-0.4-1.8c-0.1-0.2,0-0.4,0.2-0.5c0.1,0,0.1,0,0.2,0c1.2,0,2.4-0.5,3.6-0.6
	c0.2,0,0.5-0.2,0.5-0.4c0-0.1,0-0.1,0-0.2c-0.1-0.8-0.2-1.6-0.4-2.3c-0.1-0.5-0.2-1-0.3-1.5s-0.2-0.6-0.8-0.5l-3.4,0.7
	c-0.4,0.1-0.6-0.1-0.7-0.5c-0.1-0.5-0.2-1.1-0.3-1.6c-0.1-0.4,0.3-0.5,0.5-0.5c0.5-0.1,1-0.2,1.5-0.3c2.4-0.3,4.6-0.9,7-1.2
	c0.7-0.1,1.4-0.3,2-0.4s0.7-0.1,0.9,0.5c0.1,0.5,0.2,1,0.3,1.5c0.1,0.4-0.2,0.5-0.5,0.5c-0.7,0.1-1.3,0.2-2,0.3
	c-0.7,0.1-1.3,0.3-2,0.3s-0.6,0.2-0.5,0.8c0.2,1.3,0.4,2.5,0.6,3.8C94.9,137.2,95.1,137.3,95.5,137.2z"/>
<path class="st0" d="M152.5,36.7c0.2,0.7,0.3,1.3,0.5,1.9c0.1,0.4,0.3,0.6,0.7,0.5c1.5-0.4,3.1-0.7,4.6-1.2c0.5-0.1,0.6,0,0.7,0.4
	c0.1,0.3,0.1,0.6,0.2,0.8c0.1,0.6,0,0.7-0.5,0.8c-1.5,0.3-3,0.7-4.5,1.1c-0.3,0.1-0.4,0.1-0.4,0.4c0.2,0.7,0.3,1.4,0.5,2.1
	c0.1,0.4,0.3,0.5,0.7,0.4c1.3-0.4,2.7-0.6,4-1c0.6,0,1.2-0.2,1.7-0.5c0.1,0.5,0.3,0.9,0.4,1.3c0.2,0.9,0.1,1-0.8,1.2
	c-0.9,0.2-2.1,0.5-3.1,0.8c-1.4,0.3-2.9,0.7-4.3,1c-0.4,0.1-0.5,0-0.6-0.4c-0.5-2.1-1-4.1-1.6-6.2c-0.4-1.5-0.8-3-1.2-4.5
	c-0.1-0.3,0-0.5,0.4-0.6c1.4-0.3,2.7-0.7,4-1s2.4-0.6,3.7-0.9c0.4-0.1,0.7-0.1,0.7,0.5s0.2,0.8,0.3,1.2c0.1,0.2-0.1,0.4-0.3,0.5
	c0,0,0,0-0.1,0c-1.5,0.4-3,0.8-4.5,1.1C153.3,36.3,152.9,36.5,152.5,36.7z"/>
<path class="st0" d="M151.6,195.5c0.1-0.6,0.2-1.1,0.4-1.6s0.2-0.5,0.6-0.4c1.4,0.4,2.7,0.7,4.1,1c1.2,0.3,2.4,0.6,3.6,0.9
	c0.6,0.1,0.6,0.3,0.5,0.9c-0.6,2.4-1.2,4.9-1.8,7.3c-0.2,1-0.5,1.9-0.7,2.9c-0.2,0.8-0.4,0.9-1.1,0.7c-1.4-0.4-2.8-0.7-4.2-1
	c-1.1-0.2-2.2-0.6-3.3-0.9c-0.2,0-0.3-0.2-0.3-0.3c0,0,0-0.1,0-0.1c0.1-0.4,0.2-0.8,0.3-1.2s0.3-0.5,0.7-0.4
	c0.8,0.2,1.5,0.4,2.3,0.6c0.9,0.3,1.9,0.4,2.8,0.7c0.5,0.2,0.6,0,0.8-0.5s0.2-1,0.3-1.4c0.2-0.4,0-0.5-0.4-0.6c-1-0.2-2-0.5-3.1-0.8
	l-1.6-0.4c-0.3-0.1-0.6-0.3-0.4-0.7c0-0.1,0-0.3,0-0.4c0.1-0.9,0.3-1,1.2-0.7c1.4,0.4,2.9,0.7,4.3,1c0.4,0.1,0.6,0,0.7-0.4
	c0.1-0.6,0.3-1.2,0.4-1.8s0.1-0.7-0.5-0.8C155.3,196.5,153.5,196.2,151.6,195.5z"/>
<path class="st3" d="M253.6,161.9l-1.4-0.6c-0.4-0.2-0.5-0.4-0.3-0.8c0.8-1.5,1.4-3.1,2.2-4.7c0.2-0.4,0.2-0.6-0.3-0.8
	c-0.5-0.2-1-0.4-1.4-0.7c-0.4-0.2-0.6-0.1-0.7,0.3c-0.6,1.4-1.3,2.8-1.9,4.2c-0.3,0.7-0.3,0.7-1,0.3c-0.3-0.1-0.6-0.3-0.8-0.4
	c-0.1-0.1-0.2-0.1-0.2-0.2c0.7-1.4,1.3-2.9,2-4.3c0,0,0-0.1,0.1-0.1c0.4-0.9,0.4-0.9-0.4-1.3c-0.5-0.2-1-0.4-1.4-0.7
	s-0.6-0.1-0.7,0.3c-0.5,1-1,2.1-1.5,3.1c-0.3,0.6-0.6,1.2-0.9,1.9c-0.1,0.3-0.3,0.4-0.6,0.3h-0.1c-1.6-0.7-1.5-0.6-0.8-2.2
	c1-2.1,1.9-4.1,2.9-6.2c0.3-0.6,0.3-0.6,0.9-0.3l9.7,4.5c0.6,0.3,0.6,0.4,0.4,0.9c-1.1,2.4-2.2,4.8-3.4,7.2
	C253.8,161.7,253.7,161.8,253.6,161.9z"/>
<path class="st0" d="M176.8,200.9h-0.4c-0.7,0-0.7,0-0.9-0.7c-0.2-0.8-0.9-1.4-1.8-1.6c-0.8-0.2-1.7-0.1-2.5,0.2
	c-0.6,0.3-1,1-0.7,1.6c0.1,0.3,0.3,0.5,0.6,0.6c0.5,0.3,1,0.5,1.6,0.6c1,0.2,1.9,0.5,2.8,0.9c1.4,0.5,2.3,2,1.9,3.5
	c-0.3,1.4-1.4,2.4-2.8,2.8c-1.5,0.4-3,0.3-4.4-0.3c-1.1-0.4-1.9-1.4-2.1-2.6c-0.1-0.6,0-0.8,0.7-0.8c0.5,0,0.9,0.1,1.4,0.1
	c0.2,0,0.4,0.2,0.4,0.4c0.4,1.2,1.8,1.8,3,1.4c0,0,0,0,0,0c0.3-0.1,0.7-0.2,0.9-0.5c0.5-0.8,0.5-1.3-0.3-1.8
	c-0.5-0.3-1.1-0.5-1.7-0.6c-1.1-0.3-2.1-0.6-3.1-1.1c-2.6-1.4-1.8-4.8,0-5.8c1.4-0.8,3.1-1,4.7-0.7c1.2,0.2,2.2,0.7,3,1.6
	c0.5,0.6,0.8,1.3,0.8,2.1c0,0.4-0.1,0.5-0.5,0.5C177.2,200.9,177,200.9,176.8,200.9L176.8,200.9z"/>
<path class="st3" d="M246,81.4c0.4,0.6,0.7,1.2,1,1.9c0.1,0.2,0.1,0.5-0.1,0.6c-1,0.8-1.3,2.3-0.5,3.3c0.2,0.4,0.5,0.8,0.8,1.1
	c0.4,0.4,1,0.5,1.6,0.2c0.5-0.2,0.7-0.7,0.7-1.2c0-0.6,0-1.2-0.2-1.7c-0.2-0.7-0.2-1.4-0.4-2.1c-0.2-0.7-0.1-1.4,0.1-2.1
	c0.4-1.1,1.4-1.9,2.6-2c1.4-0.1,2.8,0.6,3.6,1.9c0.7,1,1.1,2.2,1.2,3.5c0.1,1.5-0.7,2.8-2,3.5c-0.4-0.6-0.7-1.2-1-1.9
	c-0.1-0.2-0.1-0.5,0.2-0.7c0.9-1,0.8-2.6-0.2-3.5c-0.1,0-0.1-0.1-0.2-0.1c-0.4-0.3-0.9-0.4-1.4-0.2c-0.5,0.2-0.7,0.7-0.6,1.2
	c0.1,0.6,0.2,1.3,0.3,2c0.1,0.7,0.3,1.2,0.3,1.9c0.2,2.2-0.5,3.3-2.4,4c-1.1,0.3-2.4,0-3.2-0.8c-1-0.9-1.8-2.1-2.1-3.4
	c-0.2-0.4-0.3-0.9-0.3-1.4C243.5,83.8,244.4,82.1,246,81.4z"/>
<path class="st3" d="M232.8,185.4c0.2,2.6-2.1,4.8-4,5.5c-1.5,0.5-3.2,0.3-4.4-0.7c-0.5-0.3-0.5-0.4,0-0.8c0.2-0.2,0.5-0.3,0.7-0.5
	c0.4-0.5,1.1-0.6,1.6-0.3c0,0,0,0,0,0c1,0.5,2.4,0,3.2-1.1c0.7-0.9,0.8-2.2,0.3-3.3c-0.6-1.5-1.8-2.7-3.3-3.2
	c-1.5-0.4-3.1,0.4-3.7,1.9c-0.2,0.6-0.2,1.3,0.1,1.9c0.4,0.8,0.3,0.8-0.3,1.3l-0.7,0.5c-0.6,0.5-0.7,0.4-1-0.2
	c-1.4-2.9-0.2-5.6,2.5-7.1c2.4-1.3,5.4-0.7,7.2,1.4c0.9,0.9,1.5,2.1,1.9,3.3C232.8,184.4,232.9,184.9,232.8,185.4z"/>
<path class="st3" d="M146.1,191.4l-3.7,3.4l-4.9,4.5c-0.1,0.1-0.2,0.2-0.2,0.2c-0.7,0.6-0.7,0.6-1.6,0.2c-0.4-0.2-0.7-0.4-1.1-0.5
	c-0.4-0.1-0.6-0.5-0.5-0.8c0.2-1.1,0.3-2.2,0.4-3.3c0.2-1.4,0.3-2.8,0.5-4.1s0.3-2.9,0.5-4.3c0.1-0.5,0.2-0.5,0.6-0.3
	c0.6,0.2,1.2,0.5,1.6,0.9c0.4,0.5-0.1,1.2-0.1,1.8c0,1.1,0,1.1,1,1.6c0.8,0.4,1.6,0.8,2.4,1.2c0.3,0.2,0.8,0.2,1.1-0.2c0,0,0,0,0,0
	c0.4-0.4,0.8-0.7,1.1-1.1c0.2-0.3,0.6-0.4,0.9-0.2L146.1,191.4z M136.8,196.1c-0.1,0.1-0.1,0.3,0.1,0.4s0.3,0,0.5-0.1
	c0.8-0.8,1.7-1.6,2.5-2.4c0.3-0.3,0.3-0.5-0.1-0.7c-0.6-0.3-1.2-0.6-1.9-0.9s-0.6-0.2-0.7,0.3C137,193.9,136.9,195,136.8,196.1
	L136.8,196.1z"/>
<path class="st2" d="M218.8,56.8l10.2-6c0.2-0.1,0.4-0.2,0.6-0.3s0.4-0.2,0.6,0c0.5,0.4,1,0.8,1.6,1.3c0.2,0.2,0.2,0.4,0.1,0.7
	c-1,3-2,6-3,8.9c-0.3,0.8-0.6,1.6-0.8,2.4c-0.1,0.3-0.2,0.4-0.5,0.2c-0.3-0.2-0.8-0.7-1.2-1c-0.4-0.2-0.5-0.7-0.3-1.1
	c0.2-0.5,0.3-1,0.6-1.5c0.2-0.5,0-0.6-0.3-0.9c-0.9-0.7-1.8-1.4-2.6-2.1c-0.3-0.3-0.7-0.3-0.9-0.1c-0.5,0.3-1,0.6-1.5,0.9
	c-0.3,0.3-0.7,0.2-1,0c0,0,0,0,0,0C219.8,57.6,219.3,57.2,218.8,56.8z M228.8,53.5c-1.2,0.7-2.3,1.4-3.5,2.1c-0.3,0.2-0.2,0.4,0,0.6
	c0.6,0.4,1.1,0.9,1.7,1.4c0.4,0.3,0.5,0.2,0.7-0.2c0.4-1.1,0.8-2.2,1.2-3.3C229,53.8,229,53.7,228.8,53.5L228.8,53.5z"/>
<path class="st3" d="M96.1,79.5c0.5-0.8,0.9-1.7,1.4-2.5s0.9-1.6,1.4-2.4c0.8-1.6,2.6-2.3,4.3-1.8c1.6,0.4,2.8,1.7,3,3.4
	c0,0.9-0.3,1.8-0.8,2.6c-0.3,0.6-0.7,1.2-1.1,1.8s-0.2,0.7,0.3,1c0.9,0.5,1.8,1,2.6,1.5c0.5,0.3,0.5,0.3,0.2,0.9
	c-0.2,0.4-0.5,0.8-0.7,1.2s-0.4,0.5-0.8,0.2c-3-1.8-6-3.5-9-5.2C96.7,80,96.4,79.8,96.1,79.5z M103.9,76.8c0-0.4-0.1-0.7-0.4-1
	c-1-1-2-1.1-2.9,0.1c-0.5,0.6-0.9,1.3-1.2,2c-0.2,0.4-0.1,0.6,0.3,0.8c0.7,0.4,1.4,0.8,2.1,1.2c0.5,0.3,0.7,0.3,1-0.2s0.6-1.2,1-1.8
	C103.9,77.5,103.9,77.2,103.9,76.8L103.9,76.8z"/>
<path class="st2" d="M264,119.2c0,1.2,0,1.3-1.1,1.7l-9.6,3.8l-0.2,0.1c-0.8,0.3-0.9,0.3-1-0.6c-0.1-1.6-0.1-1.6,1.4-2.2
	c1.3-0.5,1.3-0.5,1.3-2c0-0.8,0-1.6,0-2.4c0.1-0.4-0.2-0.8-0.6-0.9c0,0,0,0-0.1,0c-0.6-0.1-1.1-0.4-1.7-0.6
	c-0.3-0.1-0.4-0.2-0.4-0.5c0-0.6,0-1.3,0-1.9c0-0.3,0.2-0.4,0.5-0.3l8.5,3.1c0.8,0.3,1.7,0.6,2.5,0.9c0.8,0.3,0.7,0.3,0.7,1.1
	L264,119.2z M260.7,119c-1.3-0.4-2.5-0.9-3.8-1.3c-0.4-0.1-0.5,0-0.5,0.3c0,0.7,0,1.4,0,2.1c0,0.5,0.2,0.6,0.6,0.5
	c1.1-0.4,2.2-0.8,3.2-1.2C260.5,119.3,260.7,119.2,260.7,119L260.7,119z"/>
<path class="st3" d="M117.2,62c0,1-0.3,1.9-1,2.6c-0.5,0.6-1,1.1-1.5,1.7s-0.6,0.7,0.1,1.3s1.4,1.2,2.1,1.9c0.5,0.4,0.5,0.4,0,0.9
	s-0.7,0.7-1,1.1s-0.5,0.3-0.7,0l-2.5-2.3l-5.5-5c-0.6-0.5-0.6-0.5-0.1-1c1.2-1.3,2.4-2.5,3.6-3.8c0.6-0.7,1.5-1.1,2.4-1.3
	c0.9-0.1,1.8,0.1,2.4,0.7C116.5,59.5,117.2,60.7,117.2,62z M113.1,60.5c-0.4,0-0.9,0.1-1.2,0.4c-0.7,0.6-1.3,1.2-1.9,1.9
	c-0.2,0.2-0.1,0.4,0.1,0.6l2.1,1.9c0.1,0.2,0.3,0.2,0.5,0.1c0,0,0.1-0.1,0.1-0.1c0.6-0.6,1.1-1.2,1.6-1.9c0.1-0.2,0.2-0.4,0.3-0.6
	c0.3-1-0.3-2-1.3-2.3C113.3,60.5,113.2,60.5,113.1,60.5L113.1,60.5z"/>
<path class="st2" d="M249.7,101.6c-0.3-0.7-0.4-1.5-0.6-2.2c-0.1-0.3,0-0.4,0.3-0.5c2.2-0.5,4.4-0.9,6.7-1.4c1.5-0.3,2.9-0.7,4.4-1
	c0.3-0.1,0.4,0,0.5,0.3c0.2,1.2,0.5,2.3,0.8,3.5c0.1,0.7,0.2,1.4,0.4,2c0.1,0.7,0.1,1.4-0.2,2c-0.4,1.2-1.4,2.1-2.6,2.3
	c-1,0.3-2.2,0.2-3.1-0.4c-0.8-0.6-1.4-1.4-1.6-2.4c-0.2-0.8-0.4-1.7-0.6-2.5c-0.1-0.4-0.3-0.6-0.6-0.5c-0.6,0.1-1.2,0.2-1.9,0.4
	C250.9,101.2,250.3,101.4,249.7,101.6z M258.1,104.2c1,0.1,1.8-0.6,2-1.5c0-0.3,0-0.5-0.1-0.8c-0.1-0.6-0.3-1.3-0.4-1.9
	c-0.1-0.4-0.2-0.5-0.6-0.4c-0.9,0.2-1.8,0.4-2.7,0.6c-0.2,0.1-0.4,0.2-0.4,0.5c0.1,1,0.4,2,0.8,2.9C257,104,257.6,104.2,258.1,104.2
	L258.1,104.2z"/>
<path class="st2" d="M96.7,148.4c1.8,0,2.8,1,3.5,2.4c0.3,0.7,0.6,1.4,0.9,2.1s0.4,0.8,1.1,0.4s1.8-0.8,2.7-1.2
	c0.4-0.2,0.6-0.2,0.7,0.3c0.1,0.4,0.3,0.8,0.5,1.2c0.3,0.7,0.3,0.7-0.4,1l-4.8,2.1l-4.9,2c-0.8,0.4-0.8,0.3-1.2-0.5
	c-0.6-1.5-1.3-3-1.9-4.5c-0.9-1.9,0-4.1,1.9-5C95.4,148.5,96,148.3,96.7,148.4z M94.9,152.9c0.3,1,0.7,1.9,1.1,2.8
	c0.1,0.2,0.3,0.2,0.4,0.1l2.7-1.1c0.2-0.1,0.4-0.2,0.2-0.5c-0.3-0.9-0.8-1.8-1.3-2.6c-0.4-0.6-1.2-0.8-1.9-0.6
	C95.4,151.2,94.8,152,94.9,152.9L94.9,152.9z"/>
<path class="st3" d="M207.9,189.6c0.6-0.4,1.3-0.7,1.9-1c0.4-0.2,0.5-0.1,0.6,0.2c0.4,0.9,0.9,1.8,1.3,2.7c0.3,0.7,0.8,1.3,1.4,1.7
	c2.1,1.2,4,2.6,6.1,3.9c0,0,0.1,0.1,0.1,0.1c-0.1,0.4-0.5,0.4-0.8,0.5c-0.6,0.2-1.1,0.8-1.7,0.7c-0.6-0.2-1.1-0.5-1.5-0.9l-2.5-1.7
	c-0.4-0.3-0.5-0.2-0.6,0.3c-0.1,0.8-0.2,1.5-0.2,2.3c0,0.6-0.1,1.1-0.1,1.7c0.1,0.6-0.4,1.2-1,1.4c-0.5,0.2-1,0.5-1.6,0.7
	c-0.1-0.7-0.1-1.3,0-2c0.2-2.1,0.4-4.1,0.5-6.2c0-0.3,0-0.6-0.2-0.8C209.1,192.1,208.5,190.9,207.9,189.6z"/>
<path class="st3" d="M191.7,44.9c0.3-1.1,0.5-2.1,0.7-3.1c0.4-1.8,0.9-3.6,1.3-5.5c0.2-0.8,0.1-0.8-0.6-0.9
	c-0.8-0.2-1.6-0.4-2.4-0.6c-0.2,0-0.3-0.1-0.3-0.3c0,0,0-0.1,0-0.1c0.2-0.4,0.2-0.9,0.3-1.4s0.4-0.4,0.8-0.3c2,0.6,4.1,1,6.1,1.5
	c0.6,0.2,1.3,0.3,1.9,0.4s0.9,0.2,0.7,1v0.1c-0.2,1.3-0.2,1.3-1.5,1l-1.8-0.4c-0.4-0.1-0.6,0-0.7,0.4c-0.2,1-0.5,2-0.7,2.9
	c-0.3,1.5-0.7,2.9-1,4.4c-0.1,0.5-0.2,0.9-0.3,1.4c0,0.2-0.3,0.4-0.5,0.3c0,0-0.1,0-0.1,0c-0.5-0.1-1-0.2-1.5-0.3
	C191.8,45.3,191.6,45.2,191.7,44.9z"/>
<path class="st0" d="M129.9,182.5c0,0.2-0.2,0.4-0.3,0.5c-1.9,2.3-3.8,4.7-5.7,7c-0.4,0.5-0.8,1-1.2,1.5c-0.1,0.2-0.3,0.2-0.5,0.2
	c0,0-0.1-0.1-0.1-0.1c-0.4-0.4-0.9-0.8-1.3-1.1c-0.3-0.2-0.3-0.4-0.1-0.7c0.7-0.8,1.4-1.7,2.1-2.6c1.1-1.5,2.3-2.9,3.5-4.3
	c0.3-0.4,0.2-0.6-0.1-0.8l-3.6-2.9c-0.5-0.4-0.5-0.4-0.1-1c0.3-0.4,0.5-1,1-1.1s0.7,0.5,1.1,0.8c1.7,1.3,3.3,2.6,5,4
	C129.7,182,130,182.2,129.9,182.5z"/>
<path class="st2" d="M99,110.4c-1.7-0.3-3.3-0.5-5-0.9c-0.7-0.1-1.5-0.2-2.2-0.4c-1.4-0.2-2.8-0.5-4.2-0.8c-0.4-0.1-0.5-0.3-0.4-0.6
	c0.1-0.6,0.2-1.1,0.3-1.7c0-0.2,0.2-0.3,0.4-0.3c0.3,0,0.6,0,0.9,0.1c1.5,0.3,3.1,0.6,4.6,0.8c1.2,0.2,2.3,0.4,3.5,0.6
	c0.4,0.1,0.6-0.1,0.7-0.4c0.2-1.2,0.4-2.3,0.6-3.5c0.1-0.3,0.1-0.7,0.2-1c0.1-0.8,0.2-0.8,1-0.7l0.2,0.1c1.1,0.3,1,0.2,0.8,1.4
	c-0.3,1.3-0.4,2.6-0.7,3.8C99.4,108.2,99.3,109.2,99,110.4z"/>
<path class="st0" d="M98.5,119.7c0,1.4,0.2,1.4-1.3,1.3c-3.4-0.2-6.8-0.1-10.2-0.2c-0.7,0-0.7,0-0.6-0.7c0-0.5,0.1-1,0.1-1.5
	s0.2-0.4,0.5-0.4c0.9,0,1.8,0,2.7,0c0.6,0,1.1,0.1,1.6,0.1l6.4,0.1c0.8,0,0.8,0,0.8,0.8C98.5,119.4,98.5,119.5,98.5,119.7z"/>
<path class="st0" d="M120,50.7l1.7-1.4c0.3-0.2,0.5-0.1,0.6,0.1c0.4,0.6,0.9,1.1,1.3,1.6c1.9,2.4,3.7,4.8,5.6,7.2
	c0.2,0.3,0.2,0.5-0.1,0.7s-0.8,0.6-1.2,0.9s-0.5,0.3-0.8-0.1c-1-1.2-1.9-2.5-2.9-3.7c-1.3-1.7-2.6-3.4-3.9-5.1L120,50.7z"/>
<path class="st3" d="M103.4,93.3c-0.2,0.6-0.5,1.2-0.7,1.9c-0.1,0.2-0.3,0.1-0.4,0.1l-1.3-0.4l-9-3.2c-0.6-0.2-0.7-0.4-0.5-0.9
	c0.1-0.4,0.4-0.9,0.5-1.3s0.3-0.5,0.7-0.3c3.1,1.1,6.1,2.2,9.2,3.3c0.4,0.1,0.8,0.3,1.2,0.4C103.2,92.9,103.4,92.9,103.4,93.3z"/>
<path class="st0" d="M109.5,172.2c-0.4-0.4-0.8-0.7-1.1-1c-0.3-0.4-0.8-0.4-1.3-0.2c-0.4,0.2-0.8,0.2-1.2,0.2c0.1-0.5,0.2-1,0.5-1.4
	c0.1-0.3,0.1-0.6-0.1-0.9l-0.8-1.2c0.1-0.3,0.3-0.2,0.4-0.2l0.6,0.1c0.7,0.2,1.4-0.1,1.7-0.7c0.2-0.3,0.4-0.6,0.7-0.8
	c0.2,0.4,0.4,0.8,0.4,1.2c0.1,0.5,0.2,0.9,0.8,1.1c0.5,0.1,0.9,0.3,1.3,0.5c-0.3,0.4-0.7,0.7-1.2,0.9c-0.4,0.2-0.6,0.6-0.6,1
	C109.7,171.1,109.6,171.7,109.5,172.2z"/>
<path class="st0" d="M174.1,39.9c0-0.4,0.1-0.9,0.2-1.3c0.1-0.5-0.1-1.1-0.5-1.3c-0.3-0.3-0.6-0.5-0.8-0.9c0.5-0.2,1-0.3,1.6-0.3
	c0.3,0,0.6-0.1,0.7-0.4c0.2-0.5,0.5-1,0.8-1.5c0.4,0.4,0.6,0.9,0.8,1.4c0.1,0.3,0.4,0.5,0.7,0.5c0.5,0.1,1.1,0.2,1.6,0.3
	c-0.3,0.4-0.6,0.8-1,1.1c-0.3,0.3-0.5,0.7-0.3,1.1c0.1,0.3,0.1,0.6,0.1,0.9c0,0.3-0.1,0.4-0.4,0.3c-0.3-0.1-0.5-0.3-0.8-0.5
	c-0.4-0.3-0.9-0.3-1.3,0C174.9,39.7,174.5,39.9,174.1,39.9z"/>
<path class="st0" d="M189.3,199c0.4,0.2,0.8,0.4,1.3,0.5c0.3,0.2,0.8,0.1,1.1-0.1c0.3-0.2,0.6-0.5,0.9-0.7c0.3-0.2,0.5-0.1,0.5,0.2
	c0,0.4,0,0.7,0,1.1c-0.1,0.4,0.1,0.7,0.4,0.9c0.3,0.2,0.6,0.4,0.9,0.6s0.2,0.4-0.1,0.5c-0.3,0.1-0.7,0.3-1,0.3
	c-0.4,0.1-0.8,0.4-0.9,0.9c-0.1,0.2-0.1,0.5-0.2,0.7s-0.1,0.4-0.2,0.7c-0.4-0.2-0.7-0.6-0.8-1c-0.2-0.5-0.8-0.7-1.3-0.6
	c-0.4,0-0.9,0-1.3,0c0.2-0.4,0.5-0.9,0.8-1.2c0.3-0.3,0.4-0.8,0.2-1.2C189.4,200,189.2,199.5,189.3,199z"/>
<path class="st4" d="M103.1,120.8c-0.7-9.8,2.4-23.9,10-36.9c6.4-11.1,15.8-20.3,27-26.5c8.9-5.1,18.8-8.1,29-8.9
	c22.5-1.7,41.8,5.5,57.6,21.5c11.7,11.6,18.9,27.1,20.1,43.6c1.9,22.4-5.2,41.8-21.1,57.7c-11.6,11.9-27.1,19.1-43.7,20.4
	c-22.7,2-42.2-5.2-58.3-21.4C109.6,156.1,104.6,139.3,103.1,120.8z M132,131.2c0.4-0.2,0.9-0.1,1.3-0.3c0.9-0.3,1.9-0.6,2.8-0.9
	c0.7-0.2,1.4-0.4,2.1-0.6c1.1-0.2,2.2-0.6,3.2-0.9c0.7-0.3,0.9-0.2,1.1,0.5c0.4,1.3,0.9,2.6,1.4,3.9c0.6,1.5,1.3,3,2.2,4.4
	c0.1,0.2,0.2,0.5,0.3,0.7c0,0.1,0,0.3-0.2,0.4c-0.5,0-0.7,0.5-1.1,0.6c-0.6,0.2-1.1,0.4-1.6,0.8c-0.6,0.3-1.2,0.5-1.9,0.9
	c-1.1,0.6-2.2,1-3.3,1.7c-0.3,0.2-0.4,0.3-0.4,0.7c0.1,1,0.1,2,0.2,3c0,0.5,0.2,0.6,0.7,0.3c0.8-0.5,1.6-1,2.4-1.5l2.1-1.3
	c0.8-0.5,1.6-0.9,2.4-1.5c0.6-0.4,1.2-0.8,1.8-1.1c0.3-0.2,0.7-0.2,0.9,0.1c0.4,0.4,0.7,0.9,1.1,1.4c0.1,0.1,0.2,0.3,0.1,0.5
	c0,0,0,0-0.1,0.1c-0.9,0.5-1.6,1.2-2.4,1.8c-1.2,0.8-2.4,1.7-3.6,2.6c-0.9,0.6-1.7,1.3-2.6,1.9c-0.7,0.4-1.3,1-2,1.5
	c-0.3,0.2-0.4,0.5-0.4,0.8c0,0.6,0,1.3,0,1.9c0,1.2,0.1,2.3,0.2,3.5c0,0.4,0.2,0.5,0.6,0.6c1,0.2,2,0.2,3,0.3
	c0.9,0.1,1.8,0.2,2.7,0.2c0.4,0,0.8-0.1,1.1-0.5c0.4-0.5,0.8-1,1.2-1.4c2.1-2.4,4.2-5,6.3-7.4c0.3-0.4,0.6-0.7,1-1
	c0.2-0.1,0.3-0.2,0.5-0.1c0.3,0.2,0.6,0.4,0.9,0.6c0.6,0.5,0.6,0.6,0.1,1.2l-2.9,3.8c-1.1,1.4-2.1,2.8-3.2,4.3
	c-0.2,0.2-0.4,0.5-0.2,0.8s0.4,0.2,0.7,0.2c0.8,0,1.7,0.1,2.5,0.2c0.4,0,0.8-0.2,1-0.6c0.5-0.9,1-1.7,1.5-2.6
	c0.9-1.6,1.9-3.2,2.8-4.8c0.4-0.7,0.5-0.7,1.2-0.3c0.6,0.4,1.2,0.7,1.8,1c0.6,0.2,1.2,0.5,1.8,0.7c0.8,0.3,1.7,0.6,2.5,0.9
	c0.7,0.2,1.4,0.4,2.1,0.6c0.3,0.1,0.4,0.2,0.3,0.6c-0.5,1.5-0.9,3.1-1.4,4.6c-0.5,1.5-0.9,2.9-1.4,4.4c-0.1,0.3,0,0.7,0.2,0.9
	c0.9,0.8,1.8,1.5,2.7,2.3c0.3-0.5,0.2-1,0.3-1.5c0.5-1.5,0.4-3.2,1-4.7c0-0.1,0-0.2,0-0.3c0.2-1.5,0.5-3,0.8-4.4
	c0.1-0.4-0.1-0.9,0.4-1.2c0.4-0.1,0.9-0.1,1.3,0c0.5,0,0.7,0.2,0.7,0.7c0,0.2,0,0.5,0,0.7c-0.2,1.2-0.4,2.4-0.5,3.6
	c-0.3,1.9-0.3,3.8-0.7,5.7c-0.2,1-0.1,2-0.3,3c-0.2,0.7,0.1,1.4,0.6,1.7c1.3,1,2.5,2.1,3.8,3.2c0.5,0.4,0.7,0.4,1.2,0
	c1.2-1,2.4-2.1,3.6-3.1c0.5-0.3,0.7-0.9,0.5-1.4c-0.4-1.2-0.2-2.5-0.4-3.7c-0.3-1.6-0.3-3.2-0.6-4.7c-0.3-1.7-0.2-3.5-0.6-5.2
	c-0.1-0.3,0.1-0.4,0.4-0.5c0.5-0.1,1.1-0.2,1.6-0.4c0.2-0.1,0.5,0,0.5,0.2c0,0,0,0.1,0,0.1c0.2,0.7,0.4,1.4,0.5,2.2
	c0.1,1.4,0.6,2.7,0.7,4.1c0.1,0.7,0.4,1.4,0.4,2c0.1,0.9,0.2,1.7,0.4,2.6c0.1,0.4,0.2,0.9,0.3,1.4c0.9-0.8,1.7-1.5,2.6-2.3
	c0.3-0.3,0.6-0.5,0.4-1c-0.3-0.9-0.6-1.8-0.9-2.7c-0.2-0.6-0.4-1.3-0.6-2c-0.3-1-0.6-2.1-0.9-3.2c-0.2-0.5-0.3-1-0.4-1.5
	s0-0.6,0.4-0.7c0.8-0.2,1.6-0.4,2.3-0.8c0.6-0.3,1.2-0.5,1.8-0.8l2.1-1c0.6-0.3,1.1-0.6,1.8-0.9c0.3-0.2,0.6-0.1,0.8,0.2
	c0,0,0,0,0,0c0.7,1.2,1.5,2.5,2.2,3.7c0.9,1.5,1.8,3,2.6,4.6c0.2,0.4,0.6,0.6,1,0.6c1,0,1.9-0.2,2.9-0.3c0.5,0,0.5-0.2,0.3-0.6
	s-0.5-0.7-0.8-1.1c-1.2-1.5-2.3-3.1-3.5-4.6c-0.9-1.1-1.7-2.3-2.6-3.4c-0.2-0.3-0.4-0.7-0.1-1c0.2-0.3,0.5-0.6,0.9-0.8
	c0.3-0.2,0.8-0.1,1,0.2c0.4,0.6,0.9,1.1,1.4,1.6l4.8,5.6c0.9,1,1.7,2.1,2.6,3c0.2,0.4,0.7,0.6,1.1,0.5c1.7-0.3,3.3-0.4,5-0.5
	c0.3,0,0.5,0,0.8-0.1c0.6-0.1,0.7-0.3,0.8-0.9c0.2-1.6,0.1-3.3,0.2-4.9c0-0.3-0.1-0.6-0.4-0.8c-0.9-0.7-1.8-1.4-2.8-2.1
	c-1.4-1-2.8-2-4.2-3c-1.4-1-2.9-2.3-4.4-3.3c-0.6-0.4-0.6-0.7-0.2-1.3c0.2-0.3,0.5-0.6,0.7-1c0.1-0.2,0.4-0.3,0.7-0.1c0,0,0,0,0,0
	c0.9,0.5,1.7,1,2.5,1.5c0.8,0.5,1.4,1,2.1,1.4c1.1,0.6,2.2,1.3,3.3,2l2.4,1.5c0.3,0.2,0.5,0,0.5-0.3c0.1-1.1,0.1-2.2,0.2-3.3
	c0-0.3-0.2-0.4-0.4-0.5c-1.3-0.8-2.8-1.4-4.1-2.1c-1.1-0.6-2.3-1.1-3.4-1.7c-0.4-0.3-0.9-0.5-1.4-0.7c-0.7-0.3-0.8-0.6-0.5-1.2
	s0.6-1.1,0.8-1.6c0.5-1.1,1-2.2,1.4-3.3c0.4-1,0.7-2,0.9-3.1c0.1-0.9,0.5-1,1.3-0.7c0.9,0.4,1.8,0.7,2.8,0.9
	c0.2,0.1,0.3,0.1,0.5,0.2c0.2,0.1,0.5,0.2,0.7,0.3c0.8,0.2,1.5,0.4,2.2,0.7c1.1,0.4,2.2,0.7,3.3,1.1c0.3,0.1,0.6,0,0.8-0.2l1.6-1.8
	c0.8-0.9,0.7-1.1-0.5-1.3h-0.1c-1.4-0.2-2.8-0.6-4.1-0.9c-0.3-0.1-0.6-0.2-0.8-0.2c-1.4-0.2-2.8-0.6-4.1-0.9
	c-0.4-0.1-0.7-0.2-1.1-0.2c-1.4-0.1-1.7-0.4-1.4-1.8c0-0.1,0-0.2,0-0.3c0.1-0.7,0.1-0.8,0.9-0.7c1.4,0.1,2.7,0.4,4.1,0.6
	c1.5,0.2,3.1,0.4,4.6,0.8c1,0.2,2,0.3,3,0.4c0.9,0.2,1.9,0.4,2.8,0.4c0.3,0,0.5-0.1,0.7-0.3c0.9-1.1,1.8-2.1,2.7-3.1
	c0.3-0.3,0.3-0.8,0-1.2c0,0,0,0,0,0c-0.2-0.3-0.5-0.6-0.8-0.9c-1.2-1.3-2.4-2.6-3.5-4c-0.2-0.3-0.6-0.5-1-0.4
	c-2.2,0.2-4.3,0.4-6.5,0.5c-1.6,0.1-3.2,0.3-4.8,0.4c-0.6,0.1-1.2,0.2-1.8,0.2c-0.2,0-0.3,0-0.5-0.1c-0.2-0.5-0.4-1.1-0.3-1.8
	c0.1-0.3,0.3-0.4,0.6-0.4c0.3,0,0.7,0,1,0c1.2-0.2,2.5-0.4,3.8-0.5c1.6-0.1,3.1-0.6,4.7-0.6c0.5,0,1-0.1,1.5-0.3
	c0.4-0.1,0.4-0.3,0.2-0.6c-0.7-0.7-1.3-1.6-2-2.3c-0.2-0.2-0.5-0.3-0.8-0.2c-1.1,0.3-2.2,0.5-3.3,0.8c-1.8,0.6-3.8,0.9-5.6,1.5
	l-0.2,0.1c-0.3,0.1-0.6-0.1-0.7-0.4c0,0,0-0.1,0-0.1c-0.4-1.4-0.9-2.8-1.5-4.2c-0.5-1.1-1-2.1-1.6-3.2c-0.1-0.2-0.1-0.3-0.2-0.5
	c-0.1-0.2,0-0.5,0.2-0.6c0,0,0.1,0,0.1,0c0.9-0.4,1.7-0.8,2.6-1.2c0.4-0.2,0.9-0.4,1.3-0.6c0.9-0.5,1.8-1,2.8-1.4
	c1-0.5,1.9-1,2.9-1.4c0.4-0.1,0.7-0.5,0.7-0.9c0-1,0-1.9-0.1-2.9c0-0.6-0.2-0.7-0.8-0.5c-0.1,0-0.3,0.1-0.4,0.2
	c-0.4,0.3-0.8,0.6-1.2,0.8c-1.1,0.7-2.3,1.4-3.4,2.1c-0.7,0.4-1.3,0.9-2,1.3c-1.1,0.7-2.2,1.4-3.3,2.1c-0.7,0.4-1,0.6-1.6-0.2
	c-0.1-0.2-0.2-0.4-0.3-0.5c-0.5-0.7-0.4-0.9,0.2-1.3c0.9-0.6,1.8-1.2,2.6-1.9c1.6-1.2,3.2-2.5,4.9-3.7c1.4-1,2.7-2.1,4.2-3
	c0.4-0.3,0.6-0.7,0.6-1.2c0-1.6-0.2-3.1-0.2-4.7c0-0.3-0.2-0.6-0.5-0.7c-0.3-0.1-0.6-0.1-0.8-0.1c-0.6,0-1.1-0.1-1.7-0.1
	c-1.3-0.2-2.6-0.3-3.9-0.2c-0.2,0-0.4-0.1-0.6,0.2c-0.6,0.7-1.3,1.5-1.9,2.2c-0.9,1.1-1.8,2.2-2.8,3.3c-1.5,1.8-3,3.5-4.5,5.2
	c-0.5,0.6-0.7,0.6-1.4,0.1c-0.1-0.1-0.2-0.3-0.4-0.4c-0.1-0.1-0.5-0.2-0.4-0.5c0-0.3,0.1-0.5,0.3-0.7c1-1.1,1.8-2.3,2.7-3.5
	c1.4-1.8,2.8-3.7,4.2-5.5c0.4-0.5,0.3-0.9-0.4-0.9c-1-0.1-2-0.1-3-0.1c-0.4,0-0.5,0.2-0.7,0.5c-0.4,0.7-0.9,1.4-1.3,2.1
	c-1.1,1.9-2.2,3.8-3.3,5.6c-0.2,0.3-0.4,0.5-0.5,0.8c-0.1,0.1-0.3,0.3-0.4,0.2s-0.7-0.2-1-0.5c-1.2-0.8-2.5-1.5-3.9-2
	c-0.9-0.4-1.9-0.6-2.8-1.1c-0.1-0.1-0.3-0.1-0.4-0.1c-0.8-0.1-0.9-0.3-0.7-1c0.3-0.9,0.5-1.9,0.8-2.8c0.6-2.1,1.3-4.2,2-6.4
	c0.1-0.4,0-0.8-0.3-1c-0.8-0.6-1.5-1.3-2.2-1.9c-0.1-0.1-0.3-0.2-0.5-0.1s-0.1,0.2-0.1,0.4c-0.2,1.3-0.4,2.6-0.7,3.8
	c-0.3,1.3-0.4,2.6-0.7,3.9c-0.1,0.3-0.2,0.7-0.2,1c-0.1,0.9-0.3,1.9-0.5,2.8c-0.1,0.4-0.3,0.6-0.7,0.5c-0.5-0.1-1-0.2-1.4-0.3
	c-0.3,0-0.4-0.2-0.4-0.5c0.2-2.7,0.7-5.3,0.8-8c0-0.2,0.1-0.3,0.1-0.5c0.2-1.2,0.3-2.4,0.4-3.5c0-0.6,0.1-1.2,0.2-1.7
	c0.2-0.5,0-1-0.4-1.3c-1.3-1.1-2.5-2.2-3.7-3.2c-0.5-0.4-0.6-0.4-1.1,0c-0.5,0.4-1.3,1.1-1.9,1.7c-0.8,0.7-1.6,1.4-2.4,2.1
	c-0.2,0.2-0.4,0.3-0.3,0.6c0.2,0.9,0.2,1.7,0.2,2.6c0.3,1.4,0.4,2.7,0.5,4.1c0,0.2,0,0.4,0.1,0.6c0.1,1.1,0.4,2.1,0.4,3.2
	c0,0.6,0.1,1.2,0.2,1.7c0.1,0.4,0.1,0.7,0.1,1.1c0,0.9,0,1-1,1.1c-0.2,0-0.3,0-0.5,0c-0.3,0.1-0.6-0.1-0.7-0.4c0,0,0,0,0-0.1
	c-0.1-0.6-0.3-1.2-0.4-1.8c-0.2-1.6-0.6-3.2-0.8-4.9c-0.1-0.4-0.2-0.9-0.3-1.4c0-0.5-0.1-1-0.2-1.4c-0.2-0.6-0.3-1.2-0.3-1.8
	c0-0.2,0-0.4-0.2-0.4c-0.2-0.1-0.3,0-0.5,0.2c-0.7,0.7-1.5,1.2-2.2,1.9c-0.5,0.6-0.6,0.6-0.3,1.2c0.1,0.3,0.3,0.6,0.4,0.9
	c0.4,1.7,1,3.4,1.5,5.1c0.4,1,0.7,2,0.9,3c0,0.3,0,0.4-0.3,0.5c-1.7,0.4-3.4,1-5,1.6c-1.2,0.5-2.4,1-3.5,1.6
	c-0.5,0.3-0.8,0.2-1.1-0.3c-0.5-0.7-0.9-1.5-1.4-2.2c-0.8-1.4-1.6-2.7-2.4-4.1c-0.1-0.3-0.5-0.6-0.8-0.6c-1,0-1.9,0-2.9,0.1
	c-0.5,0.1-0.6,0.2-0.3,0.6c0.4,0.6,0.8,1.2,1.3,1.7c1.5,1.9,2.9,3.9,4.4,5.8c0.2,0.2,0.2,0.4,0,0.6c-0.2,0.2-0.4,0.4-0.7,0.6
	c-0.8,0.6-1,0.5-1.6-0.3c-0.6-0.8-1.4-1.6-2.1-2.5c-1.5-1.8-3.1-3.5-4.6-5.4c-0.4-0.6-1.1-0.9-1.8-0.9c-1.7,0.1-3.3,0.4-5,0.4
	c-1.1,0-1.4,0.4-1.3,1.5c0,0.6,0,1.2,0,1.8s-0.2,1.2-0.2,1.8c0,0.5,0.2,1,0.6,1.2c0.6,0.4,1.2,0.9,1.9,1.4c0.9,0.6,1.7,1.3,2.5,1.9
	c1.6,1.2,3.3,2.4,5,3.6c0.9,0.7,0.9,0.7,0.1,1.6c-0.1,0.2-0.3,0.4-0.4,0.6c-0.2,0.3-0.6,0.4-0.9,0.2c-0.3-0.1-0.6-0.3-0.8-0.4
	c-1.1-0.8-2.3-1.5-3.5-2.3c-0.4-0.2-0.8-0.4-1.1-0.6c-0.7-0.5-1.4-1-2.1-1.4c-0.2-0.2-0.5-0.4-0.8-0.5c-0.4-0.3-0.6-0.1-0.7,0.4
	c0,0.9-0.1,1.7-0.2,2.6c-0.1,0.3,0,0.6,0.3,0.8c0.4,0.4,0.9,0.4,1.3,0.7c0.9,0.6,1.9,0.9,2.9,1.4c0.4,0.3,0.8,0.5,1.2,0.6
	c0.8,0.2,1.5,0.6,2.2,1c0.2,0.1,0.3,0.3,0.2,0.5c0,0,0,0.1-0.1,0.1c-0.7,1.1-1.3,2.3-1.9,3.5c-0.6,1.3-1.1,2.6-1.5,4
	c-0.3,1-0.5,1.1-1.4,0.8c-1.2-0.3-2.5-0.4-3.7-0.8c-0.4-0.1-0.7-0.2-1.1-0.3c-1.1-0.1-2.2-0.5-3.3-0.7c-0.6-0.2-1.2,0-1.5,0.5
	c-0.6,0.7-1.1,1.3-1.7,1.9c-0.3,0.3-0.2,0.5,0.2,0.6c0.3,0.1,0.6,0.1,0.9,0.1c1,0.1,2,0.1,2.9,0.3c2.2,0.4,4.4,0.5,6.6,0.8
	c0.9,0.1,1,0.2,0.9,1.1c0,0.1,0,0.2,0,0.3c0,0.9-0.3,1.1-1.2,1c-2-0.3-4.1-0.4-6.1-0.4c-0.2,0-0.4,0-0.6,0c-0.8-0.1-1.5-0.2-2.3-0.2
	c-1.2-0.1-2.3-0.1-3.5-0.3c-0.4-0.1-0.8,0.1-1,0.4c-0.3,0.4-0.7,0.8-1,1.2c-1.2,1.3-2.3,2.6-3.5,3.9c-0.1,0.1-0.2,0.3-0.1,0.5
	c0.1,0.2,0.3,0.4,0.4,0.5c0.8,0.9,1.6,1.8,2.3,2.7c0.3,0.5,0.8,0.7,1.4,0.7c0.3,0,0.6,0,0.9-0.1c1.8-0.4,3.7-0.4,5.5-0.8
	c1.2-0.2,2.4-0.2,3.5-0.5c1.4-0.4,2.9-0.2,4.3-0.6c0.4-0.1,0.8-0.1,0.8,0.4s0.2,1,0.3,1.4s-0.1,0.7-0.5,0.8
	c-0.8,0.1-1.6,0.4-2.4,0.5c-1.4,0.3-2.8,0.5-4.2,0.9c-0.2,0.1-0.3,0.1-0.5,0.2c-1.6,0.1-3,0.7-4.6,0.9c-0.6,0.1-0.7,0.3-0.4,0.8
	c0.7,0.8,1.4,1.6,2.1,2.4C131.4,131.6,131.5,131.6,132,131.2z M135.7,78.2c1.7,0,3.2-0.2,4.7-0.4c0.4,0,0.5-0.3,0.3-0.6
	c-1.1-1.2-2.1-2.4-3.2-3.7c-0.2-0.2-0.4-0.3-0.7-0.4c-1.4,0-2.7,0-4.1-0.1s-2.8,0-4.2-0.1c-0.2,0-0.5,0-0.7,0
	c-0.3,0-0.5,0.2-0.6,0.5c0,0,0,0,0,0.1c0,0.7-0.1,1.4-0.1,2.1c0.1,1.9,0.3,3.8,0.3,5.6c0,0.3,0.1,0.7,0.4,0.9c1.3,1,2.7,2,4.1,3
	c0.2,0.1,0.4,0.3,0.6,0.2s0.1-0.4,0.1-0.6c0-1.9,0.2-3.7,0.3-5.5c0-0.6,0.1-0.7,0.7-0.9C134.4,78.3,135,78.2,135.7,78.2L135.7,78.2z
	 M235.5,114.1l-2.7,0.2c-0.4,0-0.9,0.2-1.3,0.2s-0.4,0.2-0.2,0.5s0.3,0.3,0.4,0.4c1.5,1.6,2.9,3.3,4.3,5c0.4,0.5,0.4,0.9,0,1.3
	c-1.2,1.2-2.3,2.6-3.5,3.9c-0.2,0.2-0.4,0.3-0.3,0.6s0.3,0.3,0.6,0.3c1.3,0.2,2.6,0.4,3.9,0.6c0.2,0,0.5,0,0.6-0.2
	c1.5-1.4,3.1-2.8,4.6-4.3c0.5-0.4,0.9-0.8,1.3-1.3c0.1-0.2,0.3-0.4,0-0.7c-1.2-0.9-2.1-2.1-3.3-3s-2-1.9-3-2.9
	C236.5,114.2,236,113.9,235.5,114.1L235.5,114.1z M115.1,114.1c-0.5-0.1-1,0-1.4,0.4c-0.3,0.3-0.7,0.6-1,0.9c-0.6,0.6-1.3,1.2-2,1.9
	c-1.1,1.1-2.2,2.1-3.4,3.2c-0.5,0.5-0.5,0.7,0.1,1.1c0.7,0.6,1.4,1.2,2.1,1.9c1.1,1.1,2.3,2.1,3.4,3.2c0.3,0.2,0.6,0.3,0.9,0.3
	c0.6-0.2,1.2-0.3,1.8-0.4c0.6,0,1.3-0.1,1.9-0.2c0.6-0.1,0.7-0.4,0.3-0.8c-0.6-0.8-1.3-1.5-2-2.3s-1.2-1.3-1.8-2
	c-0.2-0.2-0.3-0.5-0.1-0.8l2.5-2.8c0.8-0.9,1.5-1.7,2.3-2.6c0.5-0.6,0.5-0.6-0.2-0.8C117.4,114.2,116.2,114.3,115.1,114.1
	L115.1,114.1z M181.5,63.6c0.1-0.1,0.1-0.2,0.2-0.4c0.2-1.2,0.4-2.3,0.5-3.5s0.1-2.1-1-2.7c-0.1,0-0.1-0.1-0.1-0.2l-4.6-4.5
	c-0.2-0.2-0.5-0.3-0.8-0.1c0,0-0.1,0.1-0.1,0.1c-0.3,0.3-0.6,0.6-0.8,1l-4.8,5.5c-0.4,0.4-0.6,0.9-0.5,1.5c0.2,1.1,0.3,2.2,0.5,3.3
	c0,0.3,0.2,0.3,0.4,0.2c0.2-0.2,0.2-0.1,0.3-0.2l4.7-4.1c0.3-0.4,0.9-0.5,1.3-0.2c0,0,0.1,0.1,0.1,0.1c0.9,0.8,1.9,1.7,2.8,2.5
	C180.2,62.5,180.8,63,181.5,63.6L181.5,63.6z M170.2,176.4c-0.1,0.1-0.1,0.2-0.2,0.2c-0.3,1.2-0.4,2.4-0.5,3.7
	c0,0.3,0.1,0.7,0.3,0.9c2,2.3,3.9,4.5,5.8,6.8c0.3,0.3,0.4,0.4,0.8,0c1.8-1.8,3.7-3.6,5.5-5.4c0.3-0.3,0.4-0.6,0.4-1
	c0-1.3-0.4-2.6-0.4-4c0-0.2-0.1-0.5-0.2-0.7c-0.1-0.3-0.2-0.4-0.5-0.1c-1.5,1.4-3.1,2.6-4.6,4.1c-0.3,0.3-0.8,0.3-1.1,0c0,0,0,0,0,0
	c-0.1-0.1-0.2-0.3-0.3-0.4c-1.2-1-2.3-2.1-3.6-3C171.2,177.1,170.7,176.7,170.2,176.4z M220.9,84.8c0.9-0.8,2-1.5,3-2.2
	c0.7-0.4,1-1.1,0.9-1.9c-0.1-0.9,0-1.7,0.1-2.6c0.1-1.4,0.1-2.8,0.2-4.2c0.1-0.6-0.2-0.9-0.8-0.9c-0.9,0-1.8,0-2.8,0
	c-2,0.2-3.9,0.3-5.9,0.2c-0.3,0-0.7,0.1-0.9,0.4c-0.7,0.9-1.4,1.7-2.1,2.5c-0.1,0.1-0.2,0.3-0.2,0.5c0.1,0.2,0.2,0.2,0.4,0.2
	c0.5,0,0.9,0,1.4,0.1c1.1,0.2,2.1,0.2,3.2,0.2c0.5,0,1.1,0,1.6,0.1c1.1,0.2,1.1,0.2,1.2,1.2c0,0.2,0,0.3,0,0.5
	c0.1,1.8,0.2,3.6,0.4,5.4C220.7,84.5,220.7,84.7,220.9,84.8L220.9,84.8z M220.1,158.2c0,1.4-0.1,2.8-0.3,4.1c0,0.4-0.2,0.5-0.5,0.5
	c-2.3,0.1-4.5,0.5-6.8,0.5c-0.2,0-0.4,0-0.5,0.2s0.1,0.4,0.2,0.5c0.6,0.7,1.2,1.4,1.8,2.1c0.3,0.4,0.7,0.6,1.2,0.6
	c0.8,0,1.6,0.1,2.4,0.1c1.7,0,3.4,0,5.1,0.1c0.4,0,0.9,0,1.3,0c0.4,0,0.5-0.1,0.5-0.5c0-0.6,0.1-1.3,0.1-1.9
	c-0.1-1.9-0.2-3.9-0.3-5.8c0-0.3-0.1-0.7-0.3-1c-0.3-0.3-0.6-0.5-0.9-0.7c-0.8-0.4-1.5-1-2.1-1.6c-0.1-0.2-0.4-0.2-0.6-0.2
	c-0.3,0.1-0.2,0.3-0.2,0.5V158.2z M127.7,163.5L127.7,163.5c0,1,0,1.9,0,2.9c0,0.7,0,0.7,0.8,0.7c1.3,0,2.5-0.2,3.8-0.1
	c1.6,0,3.1,0,4.7-0.1c0.4,0,0.7-0.1,1-0.4c0.6-0.6,1.1-1.3,1.7-2c0.4-0.5,0.3-0.7-0.3-0.8c-1.8-0.3-3.7-0.3-5.5-0.5
	c-1.4-0.1-1.4-0.1-1.4-1.5c0-1.9-0.4-3.9-0.3-5.8v-0.1c0-0.3-0.2-0.3-0.4-0.3c-0.2,0-0.4,0.1-0.5,0.3c-0.9,0.7-1.7,1.3-2.6,2
	c-0.4,0.2-0.6,0.6-0.6,1C127.9,160.4,127.8,161.9,127.7,163.5L127.7,163.5z M145.1,73h-2.4c-0.2,0-0.4,0-0.4,0.2
	c-0.1,0.2,0,0.4,0.1,0.5c0.9,1,1.8,2.1,2.5,3.3c0.2,0.3,0.6,0.5,1,0.5l2.8-0.2c0.4,0,0.7-0.2,1-0.2c0.3,0,0.4-0.2,0.3-0.5
	c0-0.1-0.1-0.3-0.2-0.4c-0.5-0.8-1-1.6-1.5-2.4c-0.3-0.5-0.8-0.8-1.3-0.8L145.1,73z M228.5,111.2c0.4-0.2,0.9-0.1,1.4-0.1
	c0.8-0.1,1.6-0.4,2.4-0.4c0.2,0,0.4-0.1,0.4-0.4c0-0.2-0.2-0.3-0.3-0.4c-1-1.1-2.1-2-3.1-3.1c-0.2-0.2-0.6-0.5-0.9-0.4
	c-0.6,0.3-1.3,0.1-1.9,0.4c-0.3,0.2-0.7,0.3-1.1,0.3c-0.5,0-0.6,0.2-0.3,0.6c0.8,1.1,1.8,2,2.6,3.1
	C228,111.1,228.2,111.2,228.5,111.2L228.5,111.2z M121.2,111.1c0.4,0,0.9,0.2,1.3-0.2c0.9-1,1.8-2.1,2.7-3.1
	c0.2-0.3,0.2-0.4-0.2-0.4c-1-0.2-1.9-0.6-2.8-0.8c-0.4-0.1-0.9,0-1.2,0.3l-3.1,3.1c-0.1,0.1-0.4,0.2-0.4,0.4s0.3,0.3,0.5,0.4
	C119.1,110.9,120.2,111,121.2,111.1z M131.9,95c0.3-1.5,0.3-3,0.2-4.6c0-0.2-0.1-0.4-0.3-0.5c-1.1-0.6-2.2-1.3-3.2-2
	c-0.1,0-0.2-0.1-0.2-0.1c-0.1,0-0.2,0.1-0.1,0.2c0,0,0,0,0,0c0.1,0.7,0.2,1.4,0.2,2.1c0.2,1,0.4,2,0.4,3.1c0,0.3,0.1,0.4,0.3,0.6
	c0.4,0.3,0.9,0.4,1.4,0.7C131,94.9,131.4,95,131.9,95L131.9,95z M207.3,76.4c0.3,0,0.4,0,0.8-0.6s1-1.4,1.5-2.1
	c0.1-0.2,0.3-0.3,0.2-0.5c-0.1-0.2-0.3-0.2-0.5-0.2h-4.5c-0.3,0-0.5,0.1-0.7,0.3c-0.5,0.7-0.9,1.5-1.3,2.2c-0.2,0.3,0,0.5,0.3,0.5
	L207.3,76.4z M190,67.7c0.1-0.3,0-0.6-0.2-0.8c-0.3-0.3-0.6-0.7-0.8-1c-0.8-0.9-1.5-1.9-2.3-2.8c-0.3-0.3-0.4-0.3-0.5,0
	c-0.3,1.2-0.6,2.4-0.7,3.6c0,0.2,0.1,0.4,0.2,0.5c0.9,0.9,2,1.7,2.9,2.6c0.4,0.4,0.8,0.2,0.9-0.4c0.1-0.3,0.2-0.6,0.3-0.9
	C189.8,68.2,189.9,67.9,190,67.7L190,67.7z M186.3,177.7c0.1-0.1,0.2-0.1,0.3-0.1c1-1.4,2.1-2.6,3.1-3.9c0.3-0.4,0.4-0.9,0.2-1.3
	c-0.2-0.6-0.4-1.1-0.5-1.7c0-0.4-0.2-0.5-0.6-0.2c-0.8,0.7-1.6,1.4-2.4,2.1c-0.8,0.4-1.1,1.4-0.8,2.2c0,0,0,0.1,0,0.2
	C185.8,175.8,186,176.7,186.3,177.7L186.3,177.7z M206.6,167.2h2.4c0.4,0,0.5-0.2,0.3-0.5c-0.1-0.1-0.1-0.3-0.2-0.4
	c-0.4-0.6-0.9-1.2-1.3-1.8c-0.2-0.4-0.7-0.6-1.1-0.6c-1.3,0-2.5,0.4-3.8,0.4c-0.1,0-0.1,0-0.2,0c-0.4,0.1-0.4,0.4-0.2,0.7
	c0.3,0.4,0.6,0.9,0.8,1.4c0.2,0.5,0.7,0.8,1.2,0.7C205.3,167.2,205.9,167.2,206.6,167.2z M166,63.2c-0.2,0.1-0.4,0.2-0.5,0.3
	c-1,1.1-2,2.2-3,3.3c-0.3,0.3-0.4,0.6-0.3,1c0.2,0.6,0.3,1.2,0.6,1.7c0.2,0.6,0.5,0.7,0.9,0.2c0.4-0.4,0.7-0.7,1.1-1l1.6-1.5
	c0.2-0.1,0.3-0.3,0.3-0.6C166.7,65.5,166.4,64.3,166,63.2z M166.7,173.8c0-0.4-0.2-0.8-0.5-1c-1-0.9-2-1.6-3-2.6
	c-0.2-0.2-0.4-0.2-0.4,0.1c-0.1,0.5-0.3,0.9-0.5,1.4c-0.4,0.8-0.2,1.7,0.5,2.2c1,0.9,1.9,1.9,2.7,3c0.1,0.1,0.1,0.3,0.3,0.2
	s0.2-0.2,0.2-0.4C166.4,175.9,166.6,174.8,166.7,173.8L166.7,173.8z M142.8,167.2c1.6,0,3.3,0,4.9,0c0.5,0.1,1-0.3,1.2-0.8
	c0.3-0.5,0.5-0.9,0.9-1.4c0.2-0.3,0.1-0.5-0.2-0.5s-0.6,0.1-0.9,0c-1-0.2-1.9-0.3-2.9-0.4c-0.6-0.2-1.2,0.1-1.5,0.6
	c-0.2,0.3-0.5,0.6-0.7,1S142.7,166.4,142.8,167.2z M232.3,130.8c0-0.1-0.1-0.2-0.2-0.2c-0.3,0-0.5-0.1-0.7-0.2
	c-0.6-0.2-1.3-0.4-1.9-0.4c-0.4-0.1-0.9,0.1-1.1,0.5c-0.3,0.4-0.6,0.7-0.9,1l-1.6,1.8c-0.2,0.2-0.2,0.5,0.1,0.5
	c0.4,0.1,0.8,0.3,1.2,0.5c0.3,0.1,0.6,0.2,0.8-0.2c0.1-0.1,0.3-0.2,0.4-0.3l3.8-2.8C232.3,131,232.3,130.9,232.3,130.8L232.3,130.8z
	 M128.9,151.1l-0.1,0.6c0,0.2-0.1,0.4,0.1,0.4c0.2,0.1,0.4,0,0.4-0.2c0.1-0.2,0.4-0.3,0.6-0.4c0.5-0.3,1-0.6,1.5-0.9
	c0.4-0.3,0.6-0.8,0.5-1.3c-0.1-1.1-0.3-2.1-0.3-3.2c0-0.7-0.4-0.9-1-0.5c-0.2,0.1-0.4,0.4-0.7,0.4s-0.4,0.2-0.4,0.5
	c0,0.4-0.1,0.8-0.1,1.2C129,148.9,128.9,150,128.9,151.1L128.9,151.1z M124.6,133.6c-0.1-0.2-0.2-0.3-0.3-0.5
	c-0.8-1-1.7-1.9-2.5-2.9c-0.2-0.2-0.5-0.3-0.7-0.2c-1,0.1-1.9,0.3-2.8,0.7c-0.2,0.1-0.2,0.3,0,0.4c0.4,0.3,0.8,0.5,1.2,0.8
	c0.9,0.7,1.8,1.3,2.6,2c0.6,0.5,1.1,0.7,1.8,0.1c0.2-0.2,0.4-0.1,0.7-0.2C124.6,133.8,124.7,133.7,124.6,133.6L124.6,133.6z
	 M223.4,151.2c0-0.5-0.1-0.9-0.1-1.4c-0.2-0.8-0.3-1.7-0.4-2.6c0-0.4,0-0.9-0.3-1c-0.5-0.2-0.9-0.7-1.4-0.7c-0.3,0-0.5,0.1-0.5,0.4
	c0.1,1.3-0.2,2.6-0.2,4c0,0.3,0.1,0.5,0.3,0.7c0.6,0.6,1.5,0.9,2.1,1.4c0.1,0.1,0.3,0.2,0.5,0.1c0.3-0.1,0.1-0.3,0.1-0.5
	S223.4,151.4,223.4,151.2L223.4,151.2z M221.5,94.7c0.3-0.1,0.6-0.2,0.8-0.4c0.6-0.3,1.2-0.7,1.1-1.6c0-0.5,0.1-1,0.2-1.5
	c0.2-1,0.3-2,0.4-3c0-0.1,0-0.2-0.1-0.3c-0.1-0.1-0.2,0-0.3,0.1c-0.6,0.5-1.3,1-2,1.3c-0.5,0.2-0.8,0.8-0.6,1.3
	c0.2,1.1,0.2,2.1,0.2,3.2C221.1,94.1,221.2,94.5,221.5,94.7L221.5,94.7z"/>
<path class="st5" d="M214.5,43.8c0.1,0.9-0.5,1.8-1.4,1.9c-0.3,0-0.6,0-0.9-0.1c-0.9-0.3-1.7-0.8-2.6-1.2c-0.2-0.1-0.3-0.4-0.2-0.6
	c0,0,0,0,0-0.1c0.4-0.8,0.8-1.6,1.2-2.4c0.1-0.2,0.3-0.2,0.5-0.1c0.9,0.4,1.9,0.9,2.8,1.4C214.3,42.7,214.6,43.2,214.5,43.8z"/>
<path class="st5" d="M258.2,140.8c-0.9,0.1-1.8-0.6-1.9-1.5c0-0.2,0-0.4,0.1-0.6c0.1-0.9,0.3-1.8,0.6-2.6c0.1-0.3,0.2-0.5,0.5-0.4
	c0.8,0.2,1.5,0.3,2.3,0.5c0.8,0.2,0.7,0.3,0.5,0.9s-0.3,1.5-0.5,2.2C259.7,140.1,259.1,140.7,258.2,140.8z"/>
<path class="st6" d="M136.8,196.2c0.1-1.1,0.3-2.2,0.4-3.4c0.1-0.5,0.2-0.6,0.7-0.3s1.2,0.6,1.9,0.9c0.4,0.2,0.4,0.4,0.1,0.7
	c-0.8,0.8-1.7,1.6-2.5,2.4c-0.1,0.1-0.3,0.2-0.5,0.1S136.7,196.3,136.8,196.2z"/>
<path class="st6" d="M228.8,53.5c0.2,0.2,0.2,0.4,0.1,0.5c-0.4,1.1-0.8,2.2-1.2,3.3c-0.2,0.5-0.3,0.5-0.7,0.2
	c-0.6-0.4-1.1-0.9-1.7-1.4c-0.2-0.2-0.3-0.4,0-0.6C226.5,54.9,227.6,54.2,228.8,53.5z"/>
<path class="st5" d="M103.9,76.8c0,0.3-0.1,0.6-0.2,0.9c-0.3,0.6-0.6,1.2-1,1.8s-0.5,0.5-1,0.2c-0.7-0.4-1.4-0.8-2.1-1.2
	c-0.3-0.2-0.5-0.4-0.3-0.8c0.4-0.7,0.8-1.4,1.2-2c0.9-1.1,2-1.1,2.9-0.1C103.8,76,104,76.4,103.9,76.8z"/>
<path class="st6" d="M260.7,118.9c0,0.2-0.2,0.4-0.4,0.4c-1.1,0.4-2.1,0.8-3.2,1.2c-0.5,0.2-0.6,0.1-0.6-0.5c0-0.7,0-1.4,0-2.1
	c0-0.3,0.1-0.4,0.5-0.3C258.2,118,259.4,118.5,260.7,118.9z"/>
<path class="st5" d="M113.1,60.5c1,0.1,1.8,1,1.7,2c0,0.1,0,0.2,0,0.3c-0.1,0.2-0.2,0.4-0.3,0.6c-0.5,0.7-1,1.3-1.6,1.9
	c-0.1,0.2-0.3,0.2-0.5,0.1c0,0-0.1-0.1-0.1-0.1l-2.1-1.9c-0.2-0.2-0.3-0.4-0.1-0.6c0.6-0.7,1.2-1.3,1.9-1.9
	C112.3,60.6,112.7,60.5,113.1,60.5z"/>
<path class="st5" d="M258.1,104.2c-0.6,0.1-1.1-0.2-1.4-0.7c-0.4-0.9-0.7-1.9-0.8-2.9c-0.1-0.3,0.2-0.4,0.4-0.5
	c0.9-0.2,1.8-0.4,2.7-0.6c0.4-0.1,0.5,0.1,0.6,0.4c0.1,0.6,0.3,1.3,0.4,1.9c0.3,0.9-0.2,1.9-1.1,2.2
	C258.7,104.2,258.4,104.2,258.1,104.2z"/>
<path class="st5" d="M94.9,152.9c-0.1-0.9,0.5-1.7,1.3-2c0.7-0.2,1.4,0,1.9,0.6c0.6,0.8,1,1.7,1.3,2.6c0.1,0.2-0.1,0.4-0.2,0.5
	l-2.7,1.1c-0.2,0.1-0.4,0.1-0.4-0.1C95.5,154.8,95.2,153.8,94.9,152.9z"/>
<path class="st7" d="M131.1,131.2c-0.7-0.8-1.4-1.6-2.1-2.4c-0.4-0.4-0.2-0.7,0.4-0.8c1.6-0.2,3-0.7,4.6-0.9c0.2,0,0.3-0.1,0.5-0.2
	c1.4-0.3,2.8-0.6,4.2-0.9c0.8-0.2,1.6-0.4,2.4-0.5c0.5-0.1,0.6-0.3,0.5-0.8s-0.2-0.9-0.3-1.4s-0.4-0.5-0.8-0.4
	c-1.4,0.4-2.9,0.2-4.3,0.6c-1.1,0.3-2.3,0.2-3.5,0.5c-1.8,0.4-3.7,0.4-5.5,0.8c-0.3,0.1-0.6,0-0.9,0.1c-0.6,0.1-1.1-0.2-1.4-0.7
	c-0.8-0.9-1.6-1.8-2.3-2.7c-0.2-0.2-0.3-0.3-0.4-0.5c-0.1-0.1-0.1-0.4,0.1-0.5c1.2-1.3,2.3-2.6,3.5-3.9c0.4-0.4,0.7-0.8,1-1.2
	c0.2-0.3,0.6-0.5,1-0.4c1.1,0.1,2.3,0.2,3.5,0.3c0.8,0,1.6,0.1,2.3,0.2c0.2,0,0.4,0,0.6,0c2.1,0,4.1,0.1,6.1,0.4
	c0.9,0.1,1.2-0.1,1.2-1c0-0.1,0-0.2,0-0.3c0.1-0.9,0-1-0.9-1.1c-2.2-0.3-4.4-0.4-6.6-0.8c-1-0.2-2-0.1-2.9-0.3
	c-0.3,0-0.6-0.1-0.9-0.1c-0.4-0.1-0.4-0.3-0.2-0.6c0.6-0.6,1.2-1.3,1.7-1.9c0.4-0.5,1-0.6,1.5-0.5c1.1,0.2,2.2,0.6,3.3,0.7
	c0.4,0.1,0.7,0.1,1.1,0.3c1.2,0.4,2.5,0.4,3.7,0.8c0.8,0.2,1.1,0.2,1.4-0.8c0.4-1.4,0.9-2.7,1.5-4c0.5-1.2,1.2-2.4,1.9-3.5
	c0.2-0.2,0.1-0.4,0-0.6c0,0-0.1-0.1-0.1-0.1c-0.7-0.5-1.4-0.8-2.2-1.1c-0.4-0.2-0.8-0.4-1.2-0.6c-0.9-0.5-2-0.8-2.9-1.4
	c-0.4-0.3-0.9-0.3-1.3-0.7c-0.2-0.2-0.4-0.5-0.3-0.8c0.1-0.9,0.2-1.7,0.2-2.6c0.1-0.5,0.3-0.7,0.7-0.4c0.3,0.2,0.5,0.3,0.8,0.5
	c0.7,0.4,1.4,0.9,2.1,1.4c0.4,0.2,0.7,0.4,1.1,0.6c1.1,0.8,2.3,1.5,3.5,2.3c0.3,0.2,0.6,0.3,0.8,0.4c0.3,0.2,0.7,0.1,0.9-0.2
	c0.1-0.2,0.3-0.4,0.4-0.6c0.8-0.9,0.8-1-0.1-1.6c-1.6-1.2-3.3-2.4-5-3.6c-0.9-0.6-1.7-1.3-2.5-1.9c-0.6-0.4-1.2-1-1.9-1.4
	c-0.4-0.2-0.7-0.7-0.6-1.2c0-0.6,0.2-1.2,0.2-1.8s0.1-1.2,0-1.8c-0.1-1.1,0.2-1.4,1.3-1.5c1.7,0,3.3-0.3,5-0.4
	c0.7-0.1,1.4,0.3,1.8,0.9c1.5,1.8,3.1,3.6,4.6,5.4c0.7,0.8,1.4,1.6,2.1,2.5c0.7,0.8,0.8,0.8,1.6,0.3c0.2-0.2,0.5-0.3,0.7-0.6
	c0.2-0.2,0.2-0.4,0-0.6c-1.5-1.9-3-3.9-4.4-5.8c-0.4-0.6-0.9-1.1-1.3-1.7c-0.3-0.4-0.2-0.5,0.3-0.6c0.9-0.1,1.9-0.2,2.9-0.1
	c0.4,0,0.7,0.2,0.8,0.6c0.8,1.4,1.6,2.7,2.4,4.1c0.4,0.7,0.9,1.5,1.4,2.2c0.3,0.5,0.6,0.6,1.1,0.3c1.1-0.6,2.3-1.2,3.5-1.6
	c1.6-0.6,3.3-1.2,5-1.6c0.3-0.1,0.4-0.2,0.3-0.5c-0.2-1-0.5-2-0.9-3c-0.5-1.7-1.1-3.3-1.5-5.1c-0.1-0.3-0.2-0.6-0.4-0.9
	c-0.2-0.6-0.2-0.7,0.3-1.2c0.6-0.7,1.5-1.3,2.2-1.9c0.1-0.1,0.3-0.2,0.5-0.2s0.2,0.3,0.2,0.4c0,0.6,0.1,1.2,0.3,1.8
	c0.2,0.5,0.2,0.9,0.2,1.4c0.1,0.5,0.2,0.9,0.3,1.4c0.2,1.6,0.6,3.2,0.8,4.9c0.1,0.6,0.3,1.2,0.4,1.8c0,0.3,0.3,0.5,0.6,0.5
	c0,0,0,0,0.1,0c0.2,0,0.3,0,0.5,0c0.9-0.1,1-0.2,1-1.1c0-0.4,0-0.8-0.1-1.1c-0.1-0.6-0.2-1.1-0.2-1.7c0-1.1-0.3-2.1-0.4-3.2
	c0-0.2-0.1-0.4-0.1-0.6c-0.1-1.4-0.2-2.8-0.5-4.1c0-0.9-0.1-1.7-0.2-2.6c-0.1-0.2,0.1-0.4,0.3-0.6c0.8-0.7,1.5-1.5,2.4-2.1
	c0.7-0.5,1.2-1.1,1.9-1.7c0.7-0.5,0.6-0.4,1.1,0c1.2,1.1,2.5,2.2,3.7,3.2c0.4,0.3,0.6,0.8,0.4,1.3c-0.2,0.6-0.2,1.1-0.2,1.7
	c-0.1,1.2-0.2,2.4-0.4,3.5c0,0.2-0.1,0.3-0.1,0.5c-0.1,2.7-0.6,5.3-0.8,8c0,0.3,0.1,0.5,0.4,0.5c0.5,0.1,1,0.1,1.4,0.3
	c0.5,0.1,0.7,0,0.7-0.5c0.2-0.9,0.4-1.9,0.5-2.8c0-0.3,0.1-0.7,0.2-1c0.4-1.3,0.5-2.6,0.7-3.9c0.3-1.3,0.5-2.5,0.7-3.8
	c0-0.1,0-0.3,0.1-0.4s0.3,0,0.5,0.1c0.7,0.6,1.5,1.3,2.2,1.9c0.3,0.2,0.5,0.6,0.3,1c-0.7,2.1-1.3,4.2-2,6.4
	c-0.3,0.9-0.6,1.9-0.8,2.8c-0.2,0.8-0.1,0.9,0.7,1c0.1,0,0.3,0.1,0.4,0.1c0.9,0.4,1.9,0.6,2.8,1.1c1.3,0.5,2.6,1.2,3.9,2
	c0.3,0.2,0.7,0.2,1,0.5c0.3,0.2,0.3,0,0.4-0.2c0.2-0.2,0.4-0.5,0.5-0.8c1.1-1.9,2.2-3.8,3.3-5.6c0.4-0.7,0.9-1.4,1.3-2.1
	c0.1-0.2,0.3-0.5,0.7-0.5c1,0,2,0,3,0.1c0.7,0,0.8,0.4,0.4,0.9c-1.4,1.8-2.8,3.7-4.2,5.5c-0.9,1.2-1.7,2.4-2.7,3.5
	c-0.2,0.2-0.3,0.5-0.3,0.7c-0.1,0.3,0.3,0.3,0.4,0.5c0.2,0.1,0.2,0.3,0.4,0.4c0.7,0.4,0.9,0.5,1.4-0.1c1.5-1.8,3-3.5,4.5-5.2
	c0.9-1.1,1.8-2.2,2.8-3.3c0.6-0.7,1.3-1.4,1.9-2.2c0.2-0.2,0.4-0.2,0.6-0.2c1.3,0,2.6,0.1,3.9,0.2c0.6,0,1.1,0.1,1.7,0.1
	c0.3,0,0.6,0.1,0.8,0.1c0.3,0,0.6,0.3,0.5,0.7c0,1.6,0.3,3.1,0.2,4.7c0,0.5-0.2,0.9-0.6,1.2c-1.4,0.9-2.8,2-4.2,3
	c-1.7,1.1-3.3,2.4-4.9,3.7c-0.9,0.6-1.8,1.3-2.6,1.9c-0.7,0.5-0.8,0.7-0.2,1.3c0.1,0.2,0.2,0.3,0.3,0.5c0.6,0.9,0.9,0.7,1.6,0.2
	c1.1-0.7,2.2-1.4,3.3-2.1c0.7-0.4,1.3-0.9,2-1.3c1.1-0.7,2.2-1.4,3.4-2.1c0.4-0.2,0.9-0.5,1.2-0.8c0.1-0.1,0.2-0.2,0.4-0.2
	c0.6-0.2,0.8-0.1,0.8,0.5c0,0.9,0,1.9,0.1,2.9c0,0.4-0.3,0.8-0.7,0.9c-1,0.4-2,0.9-2.9,1.4c-0.9,0.4-1.9,0.9-2.8,1.4
	c-0.4,0.3-0.9,0.4-1.3,0.6c-0.8,0.4-1.7,0.8-2.6,1.2c-0.2,0.1-0.4,0.3-0.3,0.5c0,0,0,0.1,0,0.1c0.1,0.2,0.1,0.3,0.2,0.5
	c0.6,1,1.1,2.1,1.6,3.2c0.6,1.4,1.2,2.8,1.6,4.3c0,0.3,0.3,0.5,0.6,0.5c0,0,0.1,0,0.1,0l0.2-0.1c1.8-0.7,3.7-0.9,5.6-1.5
	c1.1-0.3,2.2-0.6,3.3-0.8c0.3-0.1,0.6,0,0.8,0.2c0.7,0.8,1.3,1.6,2,2.3c0.2,0.2,0.1,0.5-0.2,0.6c-0.5,0.1-1,0.2-1.5,0.3
	c-1.6,0.1-3.1,0.5-4.7,0.6c-1.3,0.1-2.5,0.4-3.8,0.5c-0.3,0-0.7,0-1,0c-0.3,0-0.5,0.1-0.6,0.4c0,0.6,0.1,1.2,0.3,1.8
	c0.1,0.1,0.3,0.1,0.5,0.1c0.6,0,1.2,0,1.8-0.2c1.6-0.1,3.2-0.4,4.8-0.4c2.2-0.1,4.3-0.3,6.5-0.5c0.4-0.1,0.8,0.1,1,0.4
	c1.1,1.4,2.3,2.7,3.5,4c0.3,0.3,0.5,0.6,0.8,0.9c0.3,0.3,0.3,0.8,0,1.2c0,0,0,0,0,0c-1,1-1.9,2-2.7,3.1c-0.2,0.2-0.4,0.3-0.7,0.3
	c-1,0-1.9-0.2-2.8-0.4c-1-0.1-2-0.2-3-0.4c-1.5-0.3-3.1-0.5-4.6-0.8c-1.4-0.2-2.7-0.5-4.1-0.6c-0.8-0.1-0.8,0-0.9,0.7
	c0,0.1,0,0.2,0,0.3c-0.3,1.4,0,1.7,1.4,1.8c0.4,0,0.7,0.1,1.1,0.2c1.4,0.3,2.7,0.7,4.1,0.9c0.3,0,0.6,0.2,0.8,0.2
	c1.4,0.4,2.7,0.7,4.1,0.9h0.1c1.2,0.2,1.3,0.4,0.5,1.3l-1.6,1.8c-0.2,0.3-0.5,0.4-0.8,0.2c-1.1-0.4-2.2-0.7-3.3-1.1
	c-0.7-0.3-1.5-0.6-2.2-0.7c-0.3-0.1-0.5-0.1-0.7-0.3c-0.1-0.1-0.3-0.2-0.5-0.2c-1-0.2-1.9-0.5-2.8-0.9c-0.8-0.4-1.3-0.2-1.3,0.7
	c-0.2,1.1-0.5,2.1-0.9,3.1c-0.4,1.1-0.9,2.2-1.4,3.3c-0.2,0.6-0.5,1.1-0.8,1.6s-0.2,0.9,0.5,1.2c0.5,0.2,0.9,0.4,1.4,0.7
	c1.2,0.6,2.3,1.1,3.4,1.7c1.4,0.7,2.8,1.2,4.1,2.1c0.2,0.1,0.4,0.2,0.4,0.5c-0.1,1.1-0.1,2.2-0.2,3.3c0,0.3-0.2,0.5-0.5,0.3
	l-2.4-1.5c-1.1-0.7-2.2-1.4-3.3-2c-0.7-0.4-1.4-0.9-2.1-1.4c-0.7-0.5-1.7-1.1-2.5-1.5c-0.2-0.2-0.5-0.1-0.7,0.1c0,0,0,0,0,0
	c-0.2,0.3-0.5,0.6-0.7,1c-0.4,0.6-0.4,0.9,0.2,1.3c1.6,1,3,2.2,4.5,3.2s2.8,2.1,4.2,3c1,0.6,1.8,1.4,2.8,2.1
	c0.3,0.2,0.4,0.5,0.4,0.8c0,1.6,0,3.3-0.1,4.9c-0.1,0.6-0.2,0.7-0.8,0.8c-0.3,0.1-0.5,0.1-0.8,0.1c-1.7,0-3.3,0.2-5,0.5
	c-0.4,0.1-0.8-0.1-1.1-0.4c-0.9-1-1.7-2-2.6-3.1l-4.8-5.6c-0.5-0.5-1-1.1-1.4-1.6c-0.2-0.3-0.7-0.4-1-0.2c-0.4,0.2-0.7,0.4-0.9,0.8
	c-0.2,0.3-0.1,0.7,0.1,1c0.9,1.1,1.7,2.3,2.6,3.4c1.2,1.5,2.3,3.1,3.5,4.6c0.3,0.4,0.6,0.7,0.8,1.1c0.3,0.4,0.2,0.6-0.3,0.6
	c-1,0.1-1.9,0.3-2.9,0.3c-0.4,0-0.8-0.2-1-0.6c-0.9-1.5-1.8-3-2.6-4.6c-0.7-1.2-1.5-2.5-2.2-3.7c-0.1-0.3-0.5-0.4-0.8-0.3
	c0,0,0,0,0,0c-0.6,0.3-1.2,0.6-1.8,0.9l-2.1,1c-0.6,0.3-1.2,0.5-1.8,0.8c-0.7,0.3-1.5,0.6-2.3,0.8c-0.5,0.1-0.6,0.3-0.4,0.7
	s0.3,1,0.4,1.5c0.3,1,0.6,2.1,0.9,3.2c0.2,0.7,0.4,1.3,0.6,2c0.2,0.9,0.5,1.8,0.9,2.7c0.2,0.5-0.1,0.8-0.4,1
	c-0.8,0.7-1.7,1.5-2.6,2.3c-0.1-0.5-0.3-0.9-0.3-1.4c-0.2-0.8-0.3-1.7-0.4-2.6c0-0.7-0.3-1.3-0.4-2c-0.1-1.4-0.6-2.7-0.7-4.1
	c-0.1-0.7-0.3-1.5-0.5-2.2c0-0.2-0.2-0.4-0.5-0.4c0,0-0.1,0-0.1,0c-0.5,0.1-1.1,0.2-1.6,0.4c-0.3,0-0.4,0.2-0.4,0.5
	c0.4,1.7,0.4,3.5,0.6,5.2c0.2,1.6,0.3,3.2,0.5,4.7c0.2,1.2,0,2.5,0.4,3.7c0.2,0.5-0.1,1.1-0.5,1.4c-1.2,1-2.4,2-3.6,3.1
	c-0.5,0.5-0.8,0.5-1.2,0c-1.2-1.1-2.4-2.2-3.8-3.2c-0.6-0.4-0.9-1.1-0.7-1.7c0.2-1,0.1-2,0.3-3c0.4-1.9,0.4-3.8,0.7-5.7
	c0.1-1.2,0.2-2.4,0.5-3.6c0-0.2,0-0.5,0-0.7c0-0.5-0.2-0.7-0.7-0.7c-0.4-0.1-0.9-0.1-1.3,0c-0.5,0.2-0.3,0.8-0.4,1.2
	c-0.3,1.5-0.7,2.9-0.8,4.4c0,0.1,0,0.2,0,0.3c-0.6,1.5-0.5,3.2-1,4.7c-0.2,0.5,0,1-0.3,1.5c-0.9-0.8-1.8-1.5-2.7-2.3
	c-0.3-0.2-0.3-0.6-0.2-0.9c0.5-1.5,1-2.9,1.4-4.4s0.9-3.1,1.4-4.6c0.1-0.3,0-0.5-0.3-0.6c-0.7-0.2-1.4-0.4-2.1-0.6
	c-0.9-0.2-1.7-0.5-2.5-0.9c-0.6-0.3-1.2-0.5-1.8-0.7c-0.6-0.3-1.2-0.6-1.8-0.9c-0.7-0.4-0.8-0.4-1.2,0.3c-0.9,1.6-1.9,3.2-2.8,4.8
	c-0.5,0.9-1,1.7-1.5,2.6c-0.2,0.4-0.6,0.6-1,0.6c-0.8-0.1-1.7-0.2-2.5-0.2c-0.2,0-0.6,0.1-0.7-0.2c-0.1-0.3,0-0.5,0.2-0.8
	c1.1-1.4,2.2-2.8,3.2-4.2l2.9-3.8c0.5-0.6,0.5-0.7-0.1-1.2c-0.3-0.2-0.6-0.4-0.9-0.6c-0.2-0.1-0.4,0-0.5,0.1c-0.4,0.3-0.7,0.6-1,1
	c-2.1,2.4-4.2,4.9-6.3,7.4c-0.4,0.5-0.8,1-1.2,1.4c-0.3,0.3-0.7,0.5-1.1,0.5c-0.9,0-1.8-0.1-2.7-0.2c-1-0.1-2-0.1-3-0.3
	c-0.4-0.1-0.6-0.3-0.6-0.6c-0.1-1.2-0.2-2.3-0.2-3.5c0-0.6,0-1.3,0-1.9c0-0.3,0.1-0.6,0.4-0.8c0.7-0.5,1.3-1.1,2-1.5
	c0.9-0.6,1.8-1.2,2.6-1.9c1.2-0.9,2.4-1.8,3.6-2.6c0.8-0.6,1.5-1.3,2.4-1.8c0.1-0.1,0.2-0.3,0.1-0.5c0,0,0,0-0.1-0.1
	c-0.4-0.5-0.7-0.9-1.1-1.4c-0.2-0.2-0.6-0.3-0.9-0.1c-0.6,0.3-1.3,0.7-1.8,1.1c-0.8,0.6-1.6,1-2.4,1.5l-2.1,1.3
	c-0.8,0.5-1.6,1-2.4,1.5c-0.5,0.3-0.6,0.2-0.7-0.3c-0.1-1-0.1-2-0.2-3c0-0.3,0.1-0.5,0.4-0.7c1.1-0.6,2.2-1.1,3.3-1.7
	c0.6-0.3,1.2-0.5,1.9-0.9c0.5-0.3,1-0.6,1.6-0.8c0.4-0.1,0.7-0.5,1.1-0.6c0.1,0,0.2-0.2,0.2-0.4c-0.1-0.3-0.1-0.5-0.3-0.7
	c-0.8-1.4-1.6-2.9-2.2-4.4c-0.5-1.3-0.9-2.6-1.4-3.9c-0.2-0.7-0.4-0.8-1.1-0.5c-1,0.4-2.1,0.7-3.2,0.9c-0.7,0.2-1.4,0.4-2.1,0.6
	c-1,0.2-1.9,0.5-2.8,0.9c-0.4,0.2-0.9,0.1-1.3,0.3L131.1,131.2z M205.6,120.2L205.6,120.2c0.1-1.3,0.1-2.7,0-4c-0.3-2-0.8-4-1.4-6
	c-0.6-1.8-1.4-3.6-2.4-5.3c-1-1.7-2.1-3.3-3.4-4.7c-1.3-1.6-2.9-3-4.5-4.2c-1.4-1-2.8-1.9-4.3-2.8c-1-0.5-2-1-3.1-1.4
	c-1.5-0.5-2.9-1-4.5-1.3c-1.4-0.3-2.8-0.5-4.3-0.6c-1.7-0.2-3.4-0.2-5.1,0c-1.3,0-2.5,0.2-3.8,0.5c-0.4,0.1-0.9,0.2-1.3,0.3
	c-0.8,0.2-1.6,0.4-2.4,0.7c-0.8,0.2-1.6,0.6-2.4,0.9c-0.6,0.3-1.2,0.4-1.8,0.8c-0.7,0.5-1.4,0.9-2.2,1.3c-1,0.5-1.9,1.2-2.7,1.9
	c-1.7,1.4-3.3,3-4.7,4.8c-0.7,0.9-1.4,1.9-2,2.9c-0.7,1.2-1.4,2.4-2,3.6c-0.5,0.9-0.8,1.8-1.1,2.8c-0.2,1-0.6,1.9-0.8,2.9
	c-0.3,1.3-0.6,2.7-0.6,4.1c-0.3,3-0.1,6.1,0.5,9.1c0.4,1.8,0.9,3.5,1.5,5.2c0.5,1.3,1.2,2.6,1.9,3.9c1.5,2.6,3.4,4.9,5.6,7
	c1.7,1.6,3.6,3,5.6,4.2c0.3,0.3,0.7,0.5,1.1,0.7c0.6,0.2,1.1,0.4,1.6,0.8c0.7,0.3,1.4,0.6,2.1,0.8c1.6,0.6,3.3,1.1,5.1,1.4
	c0.8,0.1,1.6,0.3,2.5,0.4c1.5,0.1,3,0.1,4.4,0c0.9,0,1.7,0,2.6-0.1c1.5-0.3,3-0.6,4.4-0.9c0.8-0.2,1.6-0.5,2.4-0.8
	c0.7-0.2,1.4-0.5,2.1-0.9c0.9-0.4,1.8-0.9,2.6-1.4c1.3-0.8,2.5-1.6,3.7-2.6c1.3-1.1,2.5-2.2,3.6-3.4c1.3-1.4,2.4-2.9,3.4-4.5
	c0.7-1.2,1.3-2.5,1.9-3.7c0.5-1,0.9-2,1.2-3.1c0.3-1.1,0.6-2.2,0.8-3.3c0.2-0.8,0.3-1.5,0.4-2.3
	C205.6,122.4,205.6,121.4,205.6,120.2L205.6,120.2z"/>
<path class="st7" d="M135.7,78.2c-0.6,0-1.3,0-1.9,0.1c-0.6,0.1-0.7,0.2-0.7,0.9c-0.1,1.8-0.4,3.7-0.3,5.5c0,0.2,0.1,0.4-0.1,0.6
	s-0.4,0-0.6-0.2c-1.4-1-2.7-1.9-4.1-3c-0.3-0.2-0.4-0.5-0.4-0.9c0-1.9-0.2-3.8-0.3-5.6c0-0.7,0-1.4,0.1-2.1c0-0.3,0.2-0.5,0.5-0.5
	c0,0,0,0,0.1,0c0.2,0,0.5,0,0.7,0c1.4,0.2,2.8,0,4.2,0.1s2.7,0.1,4.1,0.1c0.3,0,0.5,0.1,0.7,0.4c1.1,1.2,2.1,2.4,3.2,3.7
	c0.2,0.3,0.1,0.5-0.3,0.6C138.9,78,137.4,78.2,135.7,78.2z"/>
<path class="st8" d="M235.5,114.1c0.5-0.2,1,0.1,1.4,0.5c1,1,2,2,3,2.9s2.1,2.1,3.3,3c0.3,0.2,0.2,0.4,0,0.7
	c-0.4,0.5-0.8,0.9-1.3,1.3c-1.5,1.4-3.1,2.9-4.6,4.3c-0.1,0.2-0.4,0.3-0.6,0.2c-1.3-0.2-2.6-0.4-3.8-0.6c-0.2,0-0.5,0-0.6-0.3
	c-0.1-0.3,0.2-0.4,0.3-0.6c1.1-1.3,2.2-2.7,3.5-3.9c0.4-0.4,0.4-0.8,0-1.3c-1.4-1.7-2.9-3.4-4.3-5c-0.1-0.1-0.3-0.3-0.4-0.4
	c-0.1-0.2-0.1-0.5,0.2-0.5c0.3,0,0.9-0.1,1.3-0.2L235.5,114.1z"/>
<path class="st8" d="M115.1,114.1c1.1,0.2,2.3,0.1,3.4,0.3c0.7,0.2,0.8,0.2,0.2,0.8c-0.8,0.9-1.5,1.7-2.3,2.6l-2.5,2.8
	c-0.3,0.3-0.1,0.5,0.1,0.8c0.6,0.7,1.2,1.4,1.8,2s1.3,1.5,2,2.3c0.4,0.5,0.3,0.7-0.3,0.8c-0.6,0.2-1.3,0.2-1.9,0.2
	c-0.6,0.1-1.2,0.2-1.8,0.4c-0.3,0.1-0.7,0-0.9-0.3c-1.1-1.1-2.3-2.1-3.4-3.2c-0.7-0.6-1.3-1.3-2.1-1.9c-0.5-0.4-0.6-0.7-0.1-1.1
	c1.1-1.1,2.2-2.1,3.4-3.2c0.7-0.6,1.3-1.2,2-1.9c0.3-0.3,0.7-0.6,1-0.9C114.1,114.1,114.6,114,115.1,114.1z"/>
<path class="st8" d="M181.5,63.6c-0.7-0.6-1.3-1.1-2-1.7c-0.9-0.8-1.9-1.7-2.8-2.5c-0.3-0.4-0.9-0.4-1.3,0c0,0-0.1,0.1-0.1,0.1
	l-4.7,4.1c-0.1,0.1-0.2,0.1-0.3,0.2s-0.4,0.1-0.4-0.2c-0.2-1.1-0.4-2.2-0.5-3.3c-0.1-0.6,0.1-1.1,0.5-1.5l4.8-5.5
	c0.3-0.3,0.5-0.6,0.8-1c0.2-0.2,0.5-0.3,0.8-0.1c0,0,0.1,0.1,0.1,0.1l4.6,4.5c0.1,0.1,0.1,0.2,0.1,0.2c1.1,0.6,1.2,1.6,1,2.7
	s-0.3,2.3-0.5,3.5C181.6,63.4,181.6,63.5,181.5,63.6z"/>
<path class="st8" d="M170.2,176.4c0.5,0.3,1,0.7,1.4,1.2c1.2,1,2.3,2.1,3.6,3c0.1,0.1,0.2,0.2,0.3,0.4c0.3,0.3,0.8,0.4,1.1,0.1
	c0,0,0,0,0,0c1.4-1.5,3.1-2.7,4.6-4.1c0.3-0.2,0.4-0.2,0.5,0.1c0.1,0.2,0.1,0.4,0.2,0.7c0,1.3,0.4,2.6,0.4,4c0,0.4-0.2,0.7-0.4,1
	c-1.8,1.8-3.7,3.6-5.5,5.4c-0.3,0.3-0.5,0.3-0.8,0c-1.9-2.3-3.9-4.6-5.8-6.8c-0.2-0.2-0.4-0.6-0.3-0.9c0.1-1.2,0.3-2.5,0.5-3.7
	C170,176.6,170.1,176.5,170.2,176.4z"/>
<path class="st8" d="M220.9,84.8c-0.1-0.1-0.2-0.2-0.2-0.4c-0.1-1.8-0.3-3.6-0.4-5.4c0-0.2,0-0.4,0-0.5c-0.1-1.1-0.1-1-1.2-1.2
	c-0.5-0.1-1.1-0.1-1.6-0.1c-1.1,0-2.1-0.1-3.2-0.2c-0.5-0.1-0.9,0-1.4-0.1c-0.2,0-0.4,0-0.4-0.2c0-0.2,0-0.3,0.2-0.5
	c0.7-0.8,1.4-1.6,2.1-2.5c0.2-0.3,0.6-0.4,0.9-0.4c2,0.1,3.9,0,5.9-0.2c0.9,0,1.9,0,2.8,0c0.6,0,0.9,0.2,0.8,0.9
	c-0.2,1.4-0.1,2.8-0.2,4.2c-0.1,0.9-0.1,1.7-0.1,2.6c0.1,0.8-0.3,1.5-0.9,1.9C222.9,83.3,221.8,84,220.9,84.8z"/>
<path class="st9" d="M220.1,158.2V156c0-0.2,0-0.4,0.2-0.5c0.2,0,0.4,0,0.6,0.2c0.7,0.6,1.4,1.1,2.1,1.6c0.3,0.2,0.7,0.5,0.9,0.7
	c0.2,0.3,0.4,0.6,0.3,1c0.1,1.9,0.2,3.9,0.3,5.8c0,0.6,0,1.3-0.1,1.9c0,0.3-0.2,0.5-0.5,0.5c-0.3,0-0.9,0-1.3,0
	c-1.7-0.1-3.4-0.2-5.1-0.1c-0.8,0-1.6-0.2-2.4-0.1c-0.5,0-0.9-0.2-1.2-0.6c-0.6-0.7-1.2-1.4-1.8-2.1c-0.1-0.1-0.3-0.3-0.2-0.5
	s0.3-0.2,0.5-0.2c2.3,0,4.5-0.5,6.8-0.5c0.4,0,0.5-0.1,0.5-0.5C220,160.9,220.1,159.5,220.1,158.2z"/>
<path class="st9" d="M127.7,163.5c0.1-1.6,0.1-3.2,0.2-4.8c0-0.4,0.2-0.8,0.6-1c0.9-0.6,1.8-1.3,2.6-2c0.1-0.1,0.3-0.2,0.5-0.3
	c0.2,0,0.4,0,0.4,0.3v0.1c-0.1,1.9,0.4,3.9,0.3,5.8c0,1.4,0,1.3,1.4,1.5c1.9,0.2,3.7,0.2,5.5,0.5c0.6,0.1,0.7,0.3,0.3,0.8
	c-0.6,0.7-1.1,1.3-1.7,2c-0.3,0.3-0.6,0.4-1,0.4c-1.6,0.1-3.1,0.1-4.7,0.1c-1.3,0-2.6,0.2-3.8,0.1c-0.7,0-0.7,0-0.8-0.7
	C127.8,165.4,127.8,164.5,127.7,163.5L127.7,163.5z"/>
<path class="st10" d="M145.1,73.1h2c0.6,0,1.1,0.3,1.3,0.8c0.4,0.9,0.9,1.7,1.4,2.4c0.1,0.1,0.1,0.3,0.2,0.4
	c0.1,0.3,0.1,0.5-0.3,0.5s-0.7,0.1-1,0.2l-2.8,0.2c-0.4,0.1-0.8-0.1-1-0.5c-0.8-1.1-1.6-2.2-2.5-3.3c-0.1-0.1-0.2-0.3-0.1-0.5
	c0-0.2,0.2-0.2,0.4-0.2L145.1,73.1z"/>
<path class="st10" d="M228.5,111.2c-0.3,0-0.5-0.1-0.7-0.3c-0.8-1.1-1.8-2-2.6-3.1c-0.3-0.4-0.3-0.6,0.3-0.6c0.4,0,0.7-0.1,1.1-0.3
	c0.6-0.3,1.3-0.2,1.9-0.4c0.3-0.1,0.7,0.1,0.9,0.4c0.9,1.1,2.1,2.1,3.1,3.1c0.1,0.1,0.3,0.2,0.3,0.4c0,0.2-0.2,0.4-0.4,0.4
	c-0.8,0-1.6,0.3-2.4,0.4C229.5,111.2,229,111,228.5,111.2z"/>
<path class="st10" d="M121.2,111.1c-1-0.1-2.1-0.2-3.1-0.4c-0.2,0-0.5-0.1-0.5-0.4s0.2-0.3,0.4-0.4l3.1-3.1c0.3-0.3,0.8-0.4,1.2-0.3
	c1,0.2,1.9,0.6,2.8,0.8c0.3,0.1,0.4,0.2,0.2,0.4c-0.9,1-1.8,2.1-2.7,3.1C122.1,111.3,121.6,111.1,121.2,111.1z"/>
<path class="st10" d="M131.9,95c-0.5,0-1-0.1-1.4-0.4c-0.4-0.3-0.9-0.4-1.4-0.7c-0.2-0.2-0.4-0.3-0.3-0.6c-0.1-1-0.2-2.1-0.4-3.1
	c0-0.7-0.1-1.4-0.2-2.1c0-0.1,0-0.2,0.1-0.3c0,0,0,0,0,0c0.1,0,0.2,0,0.2,0.1c1,0.7,2.1,1.4,3.2,2c0.2,0.1,0.3,0.2,0.3,0.5
	C132.2,91.9,132.2,93.5,131.9,95z"/>
<path class="st10" d="M207.3,76.4l-4.2-0.4c-0.3,0-0.5-0.2-0.3-0.5c0.4-0.7,0.9-1.5,1.3-2.2c0.2-0.2,0.4-0.3,0.7-0.3h4.5
	c0.2,0,0.4,0,0.5,0.2c0.1,0.2-0.1,0.4-0.2,0.5c-0.5,0.7-1,1.4-1.5,2.1S207.6,76.5,207.3,76.4z"/>
<path class="st10" d="M190,67.7c-0.1,0.2-0.2,0.5-0.3,0.8c-0.1,0.3-0.2,0.6-0.3,0.9c-0.1,0.6-0.5,0.8-0.9,0.4
	c-0.9-0.9-2-1.6-2.9-2.6c-0.2-0.1-0.2-0.3-0.2-0.5c0.1-1.2,0.3-2.5,0.7-3.6c0.1-0.4,0.2-0.4,0.5,0c0.8,0.9,1.5,1.9,2.3,2.8
	c0.3,0.3,0.5,0.7,0.8,1C190,67.1,190.1,67.4,190,67.7z"/>
<path class="st10" d="M186.3,177.6c-0.3-0.9-0.5-1.9-0.7-2.9c0-0.1,0-0.1,0-0.2c-0.3-0.8,0-1.7,0.8-2.2c0.8-0.7,1.6-1.4,2.4-2.1
	c0.3-0.3,0.5-0.2,0.6,0.2c0.1,0.6,0.3,1.2,0.5,1.7c0.2,0.4,0.1,0.9-0.2,1.3c-1,1.3-2.2,2.5-3.1,3.9
	C186.5,177.5,186.4,177.6,186.3,177.6z"/>
<path class="st10" d="M206.6,167.2c-0.7,0-1.3,0-2,0c-0.5,0.1-1-0.2-1.2-0.7c-0.2-0.5-0.5-1-0.8-1.4c-0.2-0.4-0.2-0.6,0.2-0.7
	c0.1,0,0.1,0,0.2,0c1.3,0,2.5-0.3,3.8-0.4c0.5-0.1,0.9,0.2,1.1,0.6c0.4,0.6,0.9,1.2,1.3,1.8c0.1,0.1,0.2,0.2,0.2,0.4
	c0.1,0.3,0,0.5-0.3,0.5L206.6,167.2z"/>
<path class="st10" d="M166,63.2c0.4,1.1,0.7,2.3,0.8,3.6c0,0.3-0.1,0.4-0.3,0.6l-1.6,1.5c-0.4,0.3-0.8,0.6-1.1,1
	c-0.4,0.4-0.7,0.3-0.9-0.2c-0.2-0.6-0.4-1.1-0.6-1.7c-0.1-0.4,0-0.7,0.3-1c1.1-1,2-2.2,3-3.3C165.6,63.4,165.8,63.2,166,63.2z"/>
<path class="st10" d="M166.7,173.8c-0.1,1-0.3,2.1-0.6,3c0,0.1,0,0.3-0.2,0.4s-0.2-0.1-0.3-0.2c-0.8-1.1-1.7-2.1-2.7-3
	c-0.7-0.5-0.9-1.5-0.5-2.2c0.2-0.4,0.4-0.9,0.5-1.4c0-0.3,0.2-0.3,0.4-0.1c0.9,0.9,2,1.7,3,2.6C166.6,173.1,166.7,173.4,166.7,173.8
	z"/>
<path class="st10" d="M142.8,167.2c-0.1-0.7,0.4-1,0.7-1.4s0.5-0.6,0.7-1c0.3-0.5,0.9-0.8,1.5-0.6c1,0.1,2,0.2,2.9,0.4
	c0.3,0.1,0.6-0.1,0.9,0s0.4,0.2,0.2,0.5c-0.3,0.4-0.6,0.9-0.8,1.4c-0.2,0.5-0.7,0.8-1.2,0.8C146,167.2,144.4,167.2,142.8,167.2z"/>
<path class="st10" d="M232.3,130.8c0,0.1-0.1,0.2-0.2,0.3l-3.8,2.8c-0.2,0.1-0.3,0.2-0.4,0.3c-0.2,0.3-0.5,0.3-0.8,0.2
	c-0.4-0.2-0.8-0.4-1.2-0.5c-0.3-0.1-0.3-0.3-0.1-0.5l1.6-1.8c0.3-0.3,0.6-0.6,0.9-1c0.2-0.4,0.6-0.6,1.1-0.5
	c0.7,0.1,1.3,0.2,1.9,0.4c0.2,0.1,0.5,0.2,0.7,0.2C232.2,130.6,232.3,130.6,232.3,130.8z"/>
<path class="st10" d="M128.9,151.1c0-1.1,0.2-2.2,0.4-3.2c0.1-0.4,0.1-0.8,0.1-1.2c0-0.3,0.1-0.5,0.4-0.5s0.5-0.3,0.7-0.4
	c0.6-0.3,1-0.1,1,0.5c0,1.1,0.2,2.1,0.3,3.2c0.1,0.5-0.1,1-0.5,1.3c-0.5,0.3-1,0.6-1.5,0.9c-0.2,0.1-0.4,0.2-0.6,0.4
	c-0.1,0.2-0.3,0.2-0.4,0.2c-0.2-0.1-0.2-0.3-0.1-0.4L128.9,151.1z"/>
<path class="st10" d="M124.6,133.6c0,0.1-0.1,0.3-0.2,0.3c-0.2,0.1-0.5,0-0.7,0.2c-0.6,0.5-1.2,0.3-1.8-0.1c-0.9-0.7-1.7-1.4-2.6-2
	c-0.4-0.3-0.8-0.5-1.2-0.8c-0.2-0.1-0.2-0.3,0-0.4c0.9-0.4,1.9-0.6,2.8-0.7c0.3,0,0.5,0.1,0.7,0.2c0.8,1,1.7,2,2.5,2.9
	C124.4,133.3,124.5,133.4,124.6,133.6z"/>
<path class="st10" d="M223.4,151.2c0,0.1,0,0.3,0,0.4s0.2,0.4-0.1,0.5c-0.2,0.1-0.4,0-0.5-0.1c-0.6-0.6-1.5-0.8-2.1-1.4
	c-0.2-0.2-0.3-0.4-0.3-0.7c0-1.3,0.3-2.6,0.2-4c0-0.3,0.2-0.4,0.4-0.4c0.6,0,0.9,0.5,1.4,0.7c0.3,0.1,0.3,0.6,0.3,1
	c0.1,0.9,0.2,1.7,0.4,2.6C223.3,150.3,223.4,150.7,223.4,151.2z"/>
<path class="st10" d="M221.4,94.7c-0.2-0.2-0.4-0.6-0.3-0.9c0.1-1.1,0-2.1-0.2-3.2c-0.2-0.5,0.1-1.1,0.6-1.3c0.7-0.3,1.4-0.8,2-1.3
	c0.1-0.1,0.2-0.1,0.3-0.1c0.1,0.1,0.1,0.2,0.1,0.3c0,1-0.2,2-0.4,3c-0.2,0.5-0.2,1-0.2,1.5c0.1,0.9-0.4,1.3-1.1,1.6
	C222,94.4,221.7,94.6,221.4,94.7z"/>
<path class="st6" d="M131.1,131.2h0.9C131.5,131.6,131.4,131.6,131.1,131.2z"/>
<path class="st11" d="M205.6,120.2c0,1.1,0,2.2,0,3.3c-0.1,0.8-0.2,1.5-0.4,2.3c-0.2,1.1-0.4,2.2-0.8,3.3c-0.3,1.1-0.7,2.1-1.2,3.2
	c-0.6,1.3-1.2,2.5-1.9,3.7c-1,1.6-2.1,3.1-3.4,4.5c-1.1,1.2-2.3,2.4-3.6,3.4c-1.2,0.9-2.4,1.8-3.7,2.6c-0.9,0.5-1.7,1-2.6,1.4
	c-0.7,0.3-1.4,0.6-2.1,0.9c-0.8,0.3-1.6,0.6-2.4,0.8c-1.5,0.4-2.9,0.6-4.4,0.9c-0.9,0.1-1.7,0.2-2.6,0.1c-1.5,0-3,0-4.4,0
	c-0.8,0-1.6-0.2-2.5-0.4c-1.7-0.3-3.4-0.8-5.1-1.4c-0.7-0.2-1.4-0.5-2.1-0.8c-0.5-0.3-1.1-0.6-1.6-0.8c-0.4-0.2-0.8-0.4-1.1-0.7
	c-2-1.2-3.9-2.6-5.6-4.2c-2.2-2.1-4.1-4.4-5.6-7c-0.7-1.2-1.4-2.5-1.9-3.9c-0.6-1.7-1.1-3.4-1.5-5.2c-0.6-3-0.7-6-0.5-9.1
	c0.1-1.4,0.3-2.8,0.6-4.1c0.2-1,0.6-1.9,0.8-2.9c0.3-1,0.7-1.9,1.1-2.8c0.6-1.3,1.3-2.5,2-3.6c0.6-1,1.3-1.9,2-2.9
	c1.4-1.8,3-3.4,4.7-4.8c0.9-0.7,1.8-1.3,2.7-1.9c0.7-0.4,1.5-0.8,2.2-1.3c0.5-0.4,1.2-0.5,1.8-0.8c0.8-0.4,1.6-0.7,2.4-0.9
	c0.8-0.3,1.6-0.5,2.4-0.7c0.4-0.1,0.9-0.2,1.3-0.3c1.2-0.3,2.5-0.5,3.8-0.5c1.7-0.2,3.4-0.2,5.1,0c1.4,0.1,2.9,0.3,4.3,0.6
	c1.5,0.3,3,0.8,4.5,1.3c1.1,0.4,2.1,0.9,3.1,1.4c1.5,0.8,3,1.8,4.3,2.8c1.7,1.2,3.2,2.6,4.5,4.2c1.3,1.5,2.4,3.1,3.4,4.8
	c1,1.7,1.8,3.5,2.4,5.3c0.6,2,1.1,4,1.4,6C205.7,117.6,205.7,118.9,205.6,120.2L205.6,120.2z M149.4,120.1
	c-0.1,6.8,2.7,13.4,7.5,18.2c4.7,5,11.3,7.7,18.2,7.7c7.2,0.1,14.2-2.9,19-8.3c4.5-4.8,7-11.1,6.9-17.7c0.1-7.4-3.2-14.5-8.8-19.2
	c-5.3-4.8-12.3-7.1-19.4-6.4C161.2,95.3,149.3,105.5,149.4,120.1L149.4,120.1z"/>
<path class="st9" d="M149.4,120.2c-0.1-14.6,11.8-24.9,23.4-25.8c7.1-0.7,14.1,1.6,19.4,6.4c5.6,4.8,8.9,11.8,8.8,19.2
	c0.1,6.6-2.4,12.9-6.9,17.7c-4.8,5.4-11.8,8.4-19,8.3c-6.9,0.1-13.5-2.7-18.2-7.7C152,133.6,149.3,127,149.4,120.2z M175.6,137.6
	c1.7-0.1,3.4-0.3,5.1-0.6c0.5-0.1,1-0.3,1.5-0.4c0.8-0.1,1.5-0.3,2.2-0.6c1.1-0.5,2.3-0.9,3.4-1.5c0.8-0.4,1.6-0.9,2.4-1.4
	c1-0.6,2-1.3,2.9-2.1c0.6-0.5,1.2-1,1.7-1.6c0.2-0.2,0.3-0.4-0.1-0.6c-1-0.3-2-0.7-3-1c-0.7-0.2-1.3-0.5-2-0.7
	c-0.9-0.2-1.7-0.5-2.5-0.8c-0.8-0.2-1.7-0.4-2.4-0.8c-0.3-0.1-0.6-0.2-0.9-0.2c-0.2-0.1-0.4,0.1-0.5,0.3c0,0,0,0,0,0
	c-0.3,0.9-0.8,1.7-1.4,2.4c-0.8,1-1.8,1.8-3,2.4c-0.8,0.4-1.7,0.7-2.6,0.8c-1.3,0.2-2.7,0-4-0.4c-0.8-0.3-1.6-0.8-2.3-1.3
	c-1.2-0.8-2.2-2-2.8-3.4c-0.3-0.6-0.3-0.6-1-0.6c-0.3,0-0.6,0.1-0.9,0.2c-0.8,0.3-1.7,0.6-2.6,0.9c-0.8,0.2-1.6,0.4-2.4,0.7
	c-1.7,0.6-3.4,1-5.1,1.6c-0.3,0.1-0.4,0.3-0.2,0.5c0.8,0.8,1.7,1.6,2.7,2.3c0.7,0.5,1.4,0.9,2.1,1.4c0.8,0.5,1.6,1,2.5,1.4
	c0.3,0.2,0.7,0.4,1,0.6c0.7,0.2,1.4,0.5,2.1,0.8c0.8,0.4,1.7,0.7,2.6,0.8c1.3,0.4,2.7,0.6,4.1,0.7
	C173.2,137.4,174.2,137.6,175.6,137.6L175.6,137.6z M174.8,105.6v-7.3c0-0.2,0-0.4,0-0.5c0-0.4-0.1-0.6-0.5-0.5c-0.5,0-1.1,0-1.6,0
	c-1.1,0.1-2.1,0.6-3.1,0.5c-0.1,0-0.3,0.1-0.4,0.1c-0.8,0.4-1.8,0.5-2.6,0.9c-0.4,0.2-0.8,0.5-1.3,0.7c-0.7,0.2-0.8,0.4-0.5,1.1
	s0.5,1.2,0.8,1.7c0.4,1,0.9,2,1.3,3c0.7,1.4,1.4,2.9,2,4.3c0.7,1.4,1.5,3.1,2.2,4.7c0.2,0.4,0.4,0.4,0.7,0.3
	c0.8-0.1,1.5-0.6,2.2-0.6s0.8-0.1,0.8-0.9L174.8,105.6z M166.7,121c0.1-0.5-0.1-1.1-0.4-1.4l-3.6-4c-2.1-2.3-4.2-4.7-6.3-7
	c-0.4-0.5-0.8-0.5-1.1,0.1c-0.5,0.9-0.9,1.8-1.3,2.7c-0.4,1-0.7,2.1-1,3.1c-0.4,0.9-0.2,1.9,0.6,2.5c1.3,1,2.5,2.2,3.7,3.3
	c1.6,1.5,3.3,3.1,4.9,4.6c0.3,0.3,0.7,0.6,1.1,0.4c0.7-0.3,1.5-0.2,2.1-0.7c0.2-0.1,0.5-0.2,0.7-0.2c0.4,0,0.5-0.2,0.5-0.6
	C166.5,122.9,166.5,121.9,166.7,121L166.7,121z M175.8,105.6v7.6c0,0.3-0.1,0.7,0.4,0.7c0.9,0.1,1.8,0.4,2.6,0.8
	c0.3,0.1,0.5,0.1,0.6-0.2c0.3-0.7,0.7-1.4,1-2.1c0.6-1.5,1.3-2.9,2-4.4s1.1-2.7,1.8-4c0.6-1,1-2.1,1.5-3.2c0.3-0.7,0.2-1.1-0.6-1.3
	c-0.3,0-0.5-0.2-0.7-0.3c-0.2-0.2-0.4-0.3-0.7-0.3c-0.3,0-0.5-0.1-0.7-0.3c-0.2-0.2-0.4-0.2-0.6-0.2c-0.5,0-0.9-0.1-1.3-0.4
	c-0.2-0.1-0.3-0.2-0.5-0.2c-0.6,0-1.2-0.1-1.7-0.3c-0.8-0.2-1.6-0.3-2.4-0.3c-0.8,0-0.8,0-0.8,0.8
	C175.8,100.5,175.8,103.1,175.8,105.6L175.8,105.6z M167.2,118.6c0.2,0,0.4-0.2,0.5-0.4c0.5-1,1.3-1.9,2.2-2.6
	c0.3-0.3,0.3-0.5,0.2-0.8c-0.1-0.5-0.5-0.9-0.6-1.3c-0.4-1.1-1-2.1-1.4-3.2c-0.6-1.4-1.2-2.7-1.9-4c-0.6-1.3-1.2-2.8-1.8-4.2
	c-0.2-0.4-0.4-0.9-0.7-1.3c-0.2-0.4-0.7-0.6-1-0.2c-0.6,0.5-1.2,1-1.8,1.4c-1.4,1.1-2.7,2.4-3.8,3.8c-0.2,0.2-0.3,0.4-0.5,0.6
	c-0.2,0.4-0.2,0.6,0.1,0.9c0.3,0.3,0.7,0.9,1.1,1.3c1.1,1.2,2.2,2.4,3.4,3.7c0.9,1,1.8,2,2.7,3.1s1.8,1.9,2.7,2.9
	C166.7,118.5,166.9,118.7,167.2,118.6z M183.9,122.7v1c0,0.4,0.1,0.7,0.5,0.7c0.9,0.1,1.7,0.4,2.5,0.8c0.6,0.2,1.2,0,1.6-0.4
	c0.5-0.5,1.1-1,1.6-1.5c2.4-2.2,4.9-4.5,7.3-6.7c0.4-0.3,0.5-0.8,0.3-1.3c-0.3-1.1-0.6-2.2-1-3.2c-0.4-1-0.8-2-1.4-3
	c-0.7-1.2-0.7-1-1.5-0.1c-2.7,2.9-5.4,5.9-8,8.9c-0.6,0.7-1.2,1.4-1.9,2.1c-0.3,0.3-0.4,0.7-0.3,1.1
	C183.9,121.5,183.9,122.1,183.9,122.7L183.9,122.7z M194,107c-0.1-0.4-0.3-0.7-0.6-1c-0.7-0.9-1.5-1.8-2.3-2.6c-1-0.9-2-1.7-3.1-2.4
	c-0.8-0.5-1-0.4-1.3,0.4c-0.2,0.6-0.5,1.2-0.8,1.8c-0.5,1-1,2-1.4,2.9c-0.7,1.5-1.3,3-2,4.5c-0.6,1.3-1.2,2.6-1.8,3.8
	c-0.4,0.4-0.3,1.1,0.1,1.4c0,0,0.1,0,0.1,0.1c0.8,0.7,1.5,1.5,2,2.5c0.1,0.3,0.4,0.4,0.7,0.3c0.1,0,0.1-0.1,0.2-0.1
	c0.1-0.1,0.3-0.2,0.4-0.4c1.6-1.8,3.2-3.6,4.8-5.3s3.2-3.5,4.8-5.2C193.9,107.6,194,107.3,194,107L194,107z M174.8,140.9
	L174.8,140.9c0-0.4,0-0.9,0-1.3c0-0.8-0.2-1-0.9-1c-1.4-0.1-2.8-0.3-4.2-0.5c-0.4-0.1-0.9,0.1-1.2,0.4c-0.6,0.7-1.3,1.4-2,2.1
	c-0.5,0.4-0.3,0.9,0.2,1.1c1.1,0.3,2.3,0.6,3.4,1c0.6,0.2,1.2,0,1.8,0.2c0.6,0.2,1.3,0.3,2,0.3c0.7,0,0.9-0.1,0.9-0.8
	C174.8,141.9,174.8,141.4,174.8,140.9L174.8,140.9z M175.8,140.8c0,0.5,0,1,0,1.6c0,0.7,0.1,0.8,0.8,0.8c1.3-0.1,2.6-0.3,3.8-0.6
	c0.5-0.1,1-0.3,1.5-0.4s1.2-0.5,1.9-0.6c0.2-0.1,0.4-0.2,0.6-0.4c0.2-0.1,0.2-0.3,0.1-0.5c0,0-0.1-0.1-0.1-0.1
	c-0.8-0.7-1.4-1.4-2.1-2.1c-0.3-0.4-0.9-0.6-1.3-0.4c-0.3,0.1-0.7,0.2-1,0.2c-1.2,0-2.3,0.3-3.4,0.3c-0.5,0-0.6,0.1-0.6,0.7
	S175.8,140.3,175.8,140.8L175.8,140.8z M161.7,135.5c-0.1,0-0.2,0-0.3,0c-0.7,0.3-1.3,0.8-1.8,1.3c-0.1,0.1-0.1,0.3,0,0.4
	c0.1,0.2,0.3,0.4,0.4,0.5c1.2,1,2.6,1.9,4,2.7c0.4,0.2,0.8,0.2,1.1-0.1c0.6-0.7,1.3-1.3,2-2c0.3-0.3,0.3-0.6-0.1-0.8
	c-0.2-0.1-0.5-0.2-0.7-0.3c-0.9-0.2-1.8-0.6-2.7-1c-0.4-0.2-0.9-0.1-1.2-0.5C162.3,135.5,162,135.4,161.7,135.5L161.7,135.5z
	 M190.9,136.8c-0.1-0.1-0.1-0.2-0.1-0.2c-0.2-0.4-0.6-0.5-0.9-0.8c-0.9-0.7-1.3-0.6-2.2-0.1c-0.6,0.4-1.2,0.7-1.9,0.9
	c-0.6,0.3-1.3,0.5-2,0.7c-0.3,0-0.5,0.2-0.5,0.5c0,0.2,0.1,0.4,0.3,0.5c0.7,0.6,1.3,1.4,2.1,2c0.2,0.2,0.5,0.2,0.8,0.1l1.3-0.8
	c1.1-0.7,2.1-1.5,3-2.3C190.8,137.2,190.9,137,190.9,136.8L190.9,136.8z M195.4,130.5c-0.4,0.2-0.7,0.5-1.1,0.8
	c-1,1-2.2,1.8-3.4,2.6c-0.3,0.2-0.7,0.4-0.8,0.8c-0.1,0.4,0.5,0.4,0.6,0.6l0.1,0.1c0.8,0.6,1.1,0.6,1.7-0.1c0.8-1,1.6-2.1,2.3-3.2
	C195.3,131.6,195.5,131.1,195.4,130.5L195.4,130.5z M160.3,134.9c0-0.3-0.1-0.4-0.2-0.5c-0.4-0.2-0.8-0.5-1.2-0.7
	c-1-0.7-1.9-1.4-2.9-2c-0.3-0.2-0.5-0.7-0.8-0.5s0.2,0.5,0.3,0.8c0.6,1.2,1.3,2.2,2.2,3.1c0.9,1,1.2,1,2.2,0.1
	C160.1,135.2,160.3,135,160.3,134.9L160.3,134.9z"/>
<path class="st12" d="M175.6,137.6c-1.3,0-2.3-0.2-3.3-0.2c-1.4-0.1-2.8-0.3-4.1-0.7c-0.9-0.2-1.8-0.4-2.6-0.8
	c-0.7-0.3-1.4-0.6-2.1-0.8c-0.3-0.2-0.7-0.4-1-0.6c-0.9-0.4-1.7-0.8-2.5-1.4c-0.7-0.5-1.4-0.9-2.1-1.4c-0.9-0.7-1.8-1.5-2.7-2.3
	c-0.2-0.2-0.2-0.4,0.2-0.5c1.7-0.6,3.4-1,5.1-1.6c0.8-0.3,1.6-0.5,2.4-0.7c0.9-0.2,1.8-0.5,2.6-0.9c0.3-0.1,0.6-0.2,0.9-0.2
	c0.7,0,0.7,0,1,0.6c0.6,1.4,1.5,2.5,2.8,3.4c0.7,0.5,1.5,1,2.3,1.3c1.3,0.4,2.7,0.6,4,0.4c0.9-0.1,1.8-0.3,2.6-0.8
	c1.2-0.6,2.2-1.4,3-2.4c0.6-0.7,1-1.5,1.4-2.4c0-0.2,0.3-0.3,0.5-0.3c0,0,0,0,0,0c0.3,0,0.6,0.1,0.9,0.2c0.8,0.4,1.6,0.6,2.5,0.8
	c0.8,0.3,1.7,0.6,2.5,0.8c0.7,0.1,1.3,0.5,2,0.7c1,0.3,2,0.7,3,1c0.4,0.1,0.3,0.3,0.1,0.6c-0.5,0.6-1.1,1.2-1.7,1.6
	c-0.9,0.8-1.9,1.5-2.9,2.1c-0.8,0.5-1.6,0.9-2.4,1.4c-1.1,0.6-2.3,0.9-3.4,1.5c-0.7,0.3-1.5,0.5-2.2,0.6c-0.5,0.1-1,0.3-1.5,0.4
	C179,137.3,177.3,137.5,175.6,137.6z"/>
<path class="st11" d="M174.8,105.6v7.5c0,0.8,0,0.8-0.8,0.9s-1.5,0.5-2.2,0.6c-0.4,0.1-0.6,0-0.7-0.3c-0.7-1.6-1.4-3.1-2.2-4.7
	c-0.7-1.4-1.3-2.9-2-4.3c-0.5-1-0.9-2-1.3-3c-0.3-0.6-0.5-1.1-0.8-1.7c-0.2-0.6-0.2-0.8,0.5-1.1c0.5-0.2,0.8-0.5,1.3-0.7
	c0.9-0.4,1.8-0.4,2.6-0.9c0.1-0.1,0.3-0.1,0.4-0.1c1.1,0,2.1-0.4,3.1-0.5c0.6,0,1.1,0,1.7,0c0.4,0,0.5,0.2,0.5,0.5
	c0,0.2,0,0.3,0,0.5L174.8,105.6z"/>
<path class="st11" d="M166.7,120.9c-0.2,1-0.3,2-0.2,2.9c0,0.4-0.1,0.5-0.5,0.6c-0.3,0-0.5,0.1-0.7,0.2c-0.6,0.5-1.4,0.4-2.1,0.7
	c-0.4,0.2-0.8-0.2-1.1-0.4c-1.6-1.5-3.3-3.1-4.9-4.6c-1.2-1.1-2.4-2.3-3.7-3.3c-0.8-0.6-1-1.6-0.6-2.5c0.3-1.1,0.6-2.1,1-3.1
	c0.4-0.9,0.9-1.8,1.3-2.7c0.3-0.6,0.6-0.6,1.1-0.1c2.1,2.3,4.2,4.7,6.3,7l3.6,4C166.6,119.9,166.8,120.4,166.7,120.9z"/>
<path class="st12" d="M175.8,105.6c0-2.5,0-5,0-7.6c0-0.8,0-0.8,0.8-0.8c0.8,0,1.6,0.1,2.4,0.3c0.6,0.2,1.1,0.3,1.7,0.3
	c0.2,0,0.3,0.1,0.5,0.2c0.4,0.2,0.9,0.4,1.3,0.4c0.2,0,0.5,0.1,0.6,0.2c0.2,0.2,0.4,0.3,0.7,0.3c0.3,0,0.5,0.1,0.7,0.3
	c0.2,0.2,0.4,0.3,0.7,0.3c0.8,0.2,0.9,0.6,0.6,1.3c-0.5,1.1-0.9,2.2-1.5,3.2c-0.7,1.3-1.2,2.7-1.8,4s-1.4,2.9-2,4.4
	c-0.3,0.7-0.7,1.4-1,2.1c-0.1,0.3-0.3,0.3-0.6,0.2c-0.8-0.4-1.7-0.6-2.6-0.8c-0.5,0-0.4-0.4-0.4-0.7L175.8,105.6L175.8,105.6z"/>
<path class="st11" d="M167.2,118.6c-0.3,0-0.5-0.1-0.6-0.3c-0.9-1-1.8-1.9-2.7-2.9c-0.9-1-1.8-2.1-2.7-3.1c-1.1-1.2-2.2-2.5-3.4-3.7
	c-0.4-0.4-0.7-0.9-1.1-1.3s-0.3-0.6-0.1-0.9c0.1-0.2,0.3-0.4,0.5-0.6c1.1-1.4,2.4-2.7,3.8-3.8c0.6-0.4,1.3-0.9,1.8-1.4
	c0.3-0.3,0.7-0.2,1,0.2s0.4,0.9,0.7,1.3c0.6,1.4,1.2,2.8,1.8,4.2s1.3,2.6,1.9,4c0.4,1.1,1,2.1,1.4,3.2c0.2,0.5,0.6,0.8,0.6,1.3
	c0.1,0.4,0.1,0.6-0.2,0.8c-0.9,0.7-1.7,1.6-2.2,2.6C167.6,118.5,167.4,118.6,167.2,118.6z"/>
<path class="st11" d="M183.9,122.7c0.1-0.6,0-1.2-0.1-1.7c-0.1-0.4,0-0.8,0.3-1.1c0.6-0.7,1.2-1.4,1.9-2.1c2.7-3,5.3-6,8-8.9
	c0.8-0.9,0.8-1.1,1.5,0.1c0.6,1,1,2,1.4,3c0.4,1.1,0.7,2.1,1,3.2c0.2,0.4,0,1-0.3,1.3c-2.4,2.2-4.8,4.5-7.3,6.7
	c-0.6,0.5-1.1,1-1.6,1.5c-0.4,0.4-1,0.6-1.6,0.4c-0.8-0.3-1.7-0.6-2.5-0.8c-0.4,0-0.5-0.3-0.5-0.7L183.9,122.7z"/>
<path class="st11" d="M194,107.1c0,0.3-0.1,0.5-0.3,0.7c-1.6,1.7-3.2,3.4-4.8,5.2c-1.6,1.8-3.2,3.6-4.8,5.3
	c-0.1,0.1-0.2,0.3-0.4,0.4c-0.2,0.2-0.6,0.2-0.8,0c-0.1-0.1-0.1-0.1-0.1-0.2c-0.5-0.9-1.2-1.8-2-2.5c-0.5-0.3-0.6-0.9-0.3-1.4
	c0,0,0-0.1,0.1-0.1c0.7-1.2,1.2-2.6,1.8-3.8c0.7-1.5,1.3-3,2-4.5c0.5-1,1-2,1.4-2.9c0.3-0.6,0.5-1.2,0.8-1.8
	c0.3-0.8,0.6-0.9,1.3-0.4c1.1,0.7,2.1,1.5,3.1,2.4c0.8,0.8,1.6,1.7,2.3,2.6C193.7,106.3,193.9,106.7,194,107.1z"/>
<path class="st13" d="M174.8,140.9c0,0.5,0,0.9,0,1.4c0,0.7-0.2,0.9-0.9,0.8c-0.7,0-1.4-0.1-2-0.3c-0.6-0.2-1.2,0-1.8-0.2
	c-1.1-0.4-2.2-0.6-3.4-1c-0.6-0.2-0.7-0.7-0.2-1.1c0.7-0.6,1.4-1.3,2-2.1c0.3-0.4,0.7-0.5,1.2-0.4c1.4,0.2,2.8,0.4,4.2,0.5
	c0.8,0.1,0.9,0.2,0.9,1C174.8,140,174.8,140.4,174.8,140.9L174.8,140.9z"/>
<path class="st13" d="M175.8,140.8c0-0.5,0-1,0-1.5s0.1-0.7,0.6-0.7c1.2,0,2.3-0.4,3.4-0.3c0.3,0,0.7-0.1,1-0.2c0.5-0.2,1,0,1.3,0.4
	c0.7,0.7,1.4,1.5,2.1,2.1c0.2,0.1,0.2,0.3,0.1,0.5c0,0-0.1,0.1-0.1,0.1c-0.1,0.2-0.3,0.3-0.5,0.4c-0.7,0.1-1.2,0.5-1.9,0.6
	c-0.6,0.1-1,0.3-1.5,0.4c-1.3,0.3-2.5,0.5-3.8,0.6c-0.7,0-0.8-0.1-0.8-0.8C175.8,141.9,175.8,141.3,175.8,140.8z"/>
<path class="st13" d="M161.7,135.5c0.3-0.1,0.6,0,0.9,0.3c0.3,0.4,0.8,0.4,1.2,0.5c0.8,0.4,1.7,0.8,2.7,1c0.3,0.1,0.5,0.2,0.7,0.3
	c0.4,0.2,0.4,0.5,0.1,0.8c-0.7,0.7-1.4,1.3-2,2c-0.3,0.3-0.7,0.4-1.1,0.1c-1.4-0.8-2.8-1.7-4-2.7c-0.2-0.2-0.3-0.3-0.4-0.5
	c-0.1-0.1-0.1-0.3,0-0.4c0.5-0.5,1.1-1,1.8-1.3C161.6,135.5,161.7,135.5,161.7,135.5z"/>
<path class="st13" d="M190.9,136.9c0,0.2-0.1,0.3-0.2,0.4c-0.9,0.8-1.9,1.6-3,2.3l-1.3,0.8c-0.2,0.2-0.6,0.1-0.8-0.1
	c-0.8-0.6-1.3-1.4-2.1-2c-0.3-0.1-0.4-0.5-0.2-0.7c0.1-0.2,0.3-0.3,0.5-0.3c0.7-0.2,1.4-0.4,2-0.7c0.7-0.2,1.3-0.5,1.9-0.9
	c1-0.6,1.3-0.6,2.2,0.1c0.3,0.2,0.7,0.3,0.9,0.8C190.8,136.7,190.9,136.8,190.9,136.9z"/>
<path class="st13" d="M195.5,130.5c0,0.6-0.1,1.1-0.5,1.5c-0.7,1.1-1.5,2.2-2.3,3.2c-0.7,0.7-1,0.8-1.7,0.1l-0.1-0.1
	c-0.2-0.3-0.7-0.2-0.6-0.6s0.4-0.6,0.8-0.8c1.2-0.7,2.3-1.6,3.4-2.6C194.7,131,195.1,130.8,195.5,130.5z"/>
<path class="st13" d="M160.3,134.9c0,0.1-0.3,0.2-0.4,0.4c-1,1-1.3,0.9-2.2-0.1c-0.9-0.9-1.6-2-2.2-3.2c-0.1-0.3-0.8-0.5-0.4-0.8
	s0.5,0.3,0.8,0.5c1,0.6,1.9,1.4,2.9,2c0.4,0.3,0.8,0.5,1.2,0.7C160.2,134.5,160.3,134.6,160.3,134.9z"/>
</svg>
